<svg xmlns="http://www.w3.org/2000/svg" width="34.821" height="19.112" viewBox="0 0 34.821 19.112">
  <g id="Arrow" transform="translate(-217.473 -17.905)">
    <path id="Path_8399" data-name="Path 8399" d="M251,70.581a1.4,1.4,0,0,0-1.26-2.128,250.026,250.026,0,0,0-29.058-.4c-.962.042-2.853.438-3.168,1.857-.315,1.44,1.426,1.732,2.156,1.711a240.8,240.8,0,0,1,27.714.313C248.509,72.021,250.234,71.9,251,70.581Z" transform="translate(0 -42.012)" fill="#fff"/>
    <path id="Path_6360_4_" d="M371.993,29.421c-.48.367-.939.734-1.419,1.1q-2.5,1.878-5.2,3.605c-1,.634.23,3.505,1.356,2.771,2.3-1.469,4.486-3.038,6.594-4.69,1.043-.818,2.107-1.652,3.067-2.537,1.064-.985.689-2.337-.209-3.321-2.879-3.1-7.866-4.59-10.433-7.878-.334-.434-.981-.868-1.44-.284-.438.551-.1,1.6.292,2.1a20.127,20.127,0,0,0,5.321,4.423c1,.634,2.024,1.235,3,1.886l.146.1" transform="translate(-124.749)" fill="#fff"/>
  </g>
</svg>
