<svg xmlns="http://www.w3.org/2000/svg" width="21.388" height="23.108" viewBox="0 0 21.388 23.108">
  <path id="Nav_expand_close_icon" data-name="Nav expand close icon" d="M7347.757,3644.857q-2.9-2.315-5.6-4.859c-.246-.23-1.312-1.288-2.43-2.391-.106-.11-.217-.218-.328-.327.111-.109.222-.217.328-.328,1.117-1.1,2.184-2.16,2.43-2.39q2.7-2.543,5.6-4.86c1.069-.86-.254-4.722-1.474-3.745a93.918,93.918,0,0,0-7.1,6.311c-.565.554-1.132,1.114-1.689,1.682l0,0v-.134l-.063.063c-.557-.568-1.125-1.128-1.688-1.682a94.148,94.148,0,0,0-7.1-6.31c-1.22-.977-2.545,2.883-1.477,3.746q2.9,2.317,5.6,4.858c.246.231,1.313,1.288,2.428,2.391.135.134.269.268.4.4l-.4.4c-1.115,1.1-2.182,2.159-2.428,2.391q-2.7,2.544-5.6,4.859c-1.068.861.257,4.723,1.477,3.746a94.174,94.174,0,0,0,7.1-6.312c.563-.552,1.132-1.113,1.688-1.681l.063.063v-.133l0,0c.558.569,1.124,1.128,1.689,1.682a94.24,94.24,0,0,0,7.1,6.311C7347.5,3649.579,7348.827,3645.719,7347.757,3644.857Z" transform="translate(-7326.762 -3625.726)"/>
</svg>
