<svg xmlns="http://www.w3.org/2000/svg" xmlns:xlink="http://www.w3.org/1999/xlink" width="197" height="302" viewBox="0 0 197 302">
  <defs>
    <clipPath id="clip-path">
      <rect id="Rectangle_1258" data-name="Rectangle 1258" width="197" height="302" transform="translate(0 2101)" fill="none"/>
    </clipPath>
  </defs>
  <g id="Star_illustration" data-name="Star illustration" transform="translate(0 -2101)" clip-path="url(#clip-path)">
    <g id="Group_1089" data-name="Group 1089" transform="translate(-1868.451 -400.992)">
      <path id="Path_8621" data-name="Path 8621" d="M1932.393,2699.517A6.725,6.725,0,0,1,1926.7,2702c-7.15.155-14.3.206-21.453.358-5.6.12-11.193.339-16.79.492-2.324.062-4.649.02-6.972.107a14.761,14.761,0,0,0-2.525.614,25.393,25.393,0,0,0,1.61,2.073c2.888,2.962,5.835,5.87,8.705,8.853,5.739,5.967,11.519,11.9,17.116,18a66.689,66.689,0,0,1,5.484,7.473c1.116,1.624,2.1,3.339,3.066,5.062,1.232,2.208.572,4.534.22,6.811-.059.366-.471.941-.765.969-2.347.238-4.479,2.415-7.068.7a11.18,11.18,0,0,0-3.114-1.236,17.744,17.744,0,0,1-6.144-3.222,26.816,26.816,0,0,0-2.871-1.72c.038-.992.039-2.185.142-3.371a4.337,4.337,0,0,0-1.785-4.062,56.573,56.573,0,0,1-8.69-8.467c-1.948-2.293-4.147-4.376-6.252-6.533a9.887,9.887,0,0,0-1.3-.9,17.242,17.242,0,0,0-1.076,2.994c-.63,4.077-1.088,8.179-1.732,12.253-.52,3.293-1.337,6.543-1.788,9.845-.31,2.281-.161,4.62-.323,6.925-.222,3.25-.388,6.532-1.661,9.59-1.227,2.954-4.149,3.729-6.776,1.92-.913-.63-1.933-1.116-2.8-1.8a3.093,3.093,0,0,1-1.143-1.588c-.963-4.8-2.03-9.606-2.683-14.459-.637-4.765-.819-9.594-1.223-14.392-.062-.756-.239-1.5-.437-2.679-.791.47-1.354.737-1.843,1.107a20.873,20.873,0,0,1-2.175,1.769c-2.1,1.167-4.338,2.09-6.389,3.333-2.543,1.543-5.038,2.131-7.811.683a21.263,21.263,0,0,0-2.845-1.005,31.331,31.331,0,0,1,1.2-3.453c1.866-3.849,4.092-7.55,5.643-11.518,1.353-3.456,3.774-6.124,5.623-9.2,1.149-1.907,2.476-3.71,3.672-5.594.484-.766.835-1.618,1.36-2.652a10.117,10.117,0,0,0-1.521-.315c-6.38-.076-12.778.127-19.137-.273a68.063,68.063,0,0,1-16.949-3.227,10.326,10.326,0,0,1-2.89-2.109c-.577-.471-1.076-1.041-1.769-1.724a6.265,6.265,0,0,1-1.039,1.646,1.841,1.841,0,0,1-1.522.4,1.006,1.006,0,0,1-.161-1.737,14,14,0,0,1,3.039-2.285c3.4-1.667,7.162-1.764,10.832-2.235,1.874-.245,3.747-.581,5.632-.678,2.223-.117,4.467.1,6.685-.049,3.691-.254,7.365-.685,11.045-1.068a5.017,5.017,0,0,0,1.174-.542c-1.812-1.978-3.372-3.906-5.163-5.586-2.577-2.42-5.313-4.669-7.994-6.975-2.616-2.248-5.224-4.5-7.875-6.707a20.915,20.915,0,0,1-4.607-4.842c-1.111-1.763-4.081-1.95-6.406-.644-1.277-1.238-1.408-2.054-.216-2.784a9.872,9.872,0,0,1,3.112-1.168c2.85-.591,5.687.757,8.653-.073,1.507-.421,3.357.462,5.061.655a12.8,12.8,0,0,1,5.494,2.094,133.838,133.838,0,0,1,24.991,19.9,11,11,0,0,0,1.143,1.036c.1.083.322.023.723.036.027-2.552.182-5.115.056-7.666-.258-5.25-.445-10.52-1.067-15.733-.8-6.671-1.908-13.306-3.078-19.921-.272-1.54-1.326-2.938-2.11-4.592.886-2.919,1.864-3.567,4.9-2.556a13.508,13.508,0,0,1,4.293,2.271c2.115,1.751,3.985,3.8,5.975,5.709a4.5,4.5,0,0,1,1.387,3.222,44.056,44.056,0,0,0,2.832,12.792,40.347,40.347,0,0,1,1.214,6.063c.233,1.246.453,2.5.726,4,.72-.323,1.294-.4,1.538-.719,2.713-3.557,5.338-7.183,8.064-10.731,1.254-1.634,2.811-2.872,5.087-2.23a3.428,3.428,0,0,1,1.525.866c.994,1.068,1.912,2.215,2.809,3.367a2.36,2.36,0,0,1,.262,2.645,101.965,101.965,0,0,1-6.863,13.728,7.625,7.625,0,0,0-.9,3.188,5.892,5.892,0,0,1-1.65,3.672c-1.861,1.94-2.218,2.936-2.468,5.788.956.153,1.936.361,2.927.461,5.319.54,10.645,1.036,15.963,1.584,1.533.157,3.067.4,4.586.675,4.146.758,8.316,1.437,12.422,2.381,3.1.714,6.137,1.734,9.157,2.743a10.683,10.683,0,0,1,2.366,1.668"/>
      <path id="Path_8622" data-name="Path 8622" d="M2037.377,2766.6a6.725,6.725,0,0,1-5.574-2.737c-4.736-5.359-9.394-10.789-14.126-16.15-3.7-4.195-7.487-8.327-11.217-12.5-1.549-1.735-3.018-3.537-4.584-5.254a14.6,14.6,0,0,0-2.1-1.532,25.252,25.252,0,0,0-.543,2.568c-.4,4.118-.714,8.246-1.139,12.364-.85,8.235-1.645,16.476-2.689,24.69a66.8,66.8,0,0,1-2.165,9.013c-.519,1.9-1.19,3.763-1.885,5.61-.891,2.366-3.093,3.364-5.059,4.566a1.358,1.358,0,0,1-1.234.042c-1.7-1.639-4.736-1.862-5.1-4.945a11.194,11.194,0,0,0-1.067-3.176,17.765,17.765,0,0,1-1.508-6.772,26.939,26.939,0,0,0-.539-3.3c.781-.612,1.693-1.382,2.664-2.069a4.335,4.335,0,0,0,1.95-3.986,56.563,56.563,0,0,1,.853-12.1c.493-2.969.664-5.993.952-8.993a9.848,9.848,0,0,0-.153-1.577,17.348,17.348,0,0,0-2.982,1.112c-3.519,2.152-6.947,4.451-10.474,6.59-2.85,1.729-5.859,3.2-8.672,4.992-1.942,1.236-3.631,2.861-5.5,4.225-2.625,1.929-5.238,3.921-8.4,4.924-3.048.97-5.527-.76-5.842-3.934-.108-1.1-.4-2.2-.435-3.3a3.089,3.089,0,0,1,.474-1.9c3.047-3.839,6.024-7.753,9.308-11.386,3.226-3.564,6.8-6.82,10.2-10.227.538-.536.994-1.154,1.764-2.064-.87-.3-1.438-.558-2.036-.693a20.633,20.633,0,0,1-2.755-.518c-2.246-.848-4.4-1.963-6.67-2.726-2.821-.946-4.881-2.471-5.566-5.523a21.164,21.164,0,0,0-1.07-2.821,31.254,31.254,0,0,1,3.412-1.313c4.145-1.061,8.407-1.751,12.439-3.129,3.513-1.2,7.112-1.073,10.655-1.647,2.2-.354,4.432-.5,6.643-.809.9-.125,1.775-.407,2.9-.674a10.091,10.091,0,0,0-.741-1.364c-4.062-4.921-8.349-9.675-12.149-14.789a68.111,68.111,0,0,1-8.481-15.025,10.352,10.352,0,0,1-.256-3.57c-.013-.744.1-1.492.175-2.463a6.264,6.264,0,0,1-1.928.27c-.49-.1-1.2-.5-1.292-.9a1.008,1.008,0,0,1,1.223-1.246,14.028,14.028,0,0,1,3.707.846c3.468,1.519,5.972,4.329,8.7,6.827,1.4,1.273,2.863,2.486,4.154,3.863,1.525,1.621,2.805,3.479,4.354,5.073,2.578,2.654,5.279,5.181,7.948,7.744a5.06,5.06,0,0,0,1.172.546c.341-2.661.805-5.1.932-7.55.184-3.53.134-7.071.164-10.607.027-3.449.064-6.9.035-10.344a20.94,20.94,0,0,1,.723-6.644c.628-1.987-1.146-4.376-3.645-5.308.12-1.774.659-2.4,1.986-1.963a9.869,9.869,0,0,1,2.9,1.623c2.292,1.794,3.095,4.831,5.644,6.56,1.294.879,1.815,2.861,2.768,4.287a12.82,12.82,0,0,1,1.949,5.547,133.9,133.9,0,0,1,.94,31.934,11.028,11.028,0,0,0-.053,1.542c0,.133.19.261.439.575,1.966-1.627,4.024-3.164,5.89-4.907,3.842-3.587,7.745-7.133,11.324-10.974,4.58-4.915,8.928-10.049,13.223-15.215,1-1.2,1.388-2.909,2.144-4.576,2.8-1.208,3.927-.88,5.113,2.087a13.52,13.52,0,0,1,1.038,4.745c.029,2.746-.329,5.5-.5,8.249a4.494,4.494,0,0,1-1.565,3.139,44.116,44.116,0,0,0-7.939,10.423,40.058,40.058,0,0,1-3.845,4.842c-.8.983-1.614,1.958-2.589,3.141.711.341,1.138.732,1.542.709,4.468-.225,8.932-.562,13.4-.771,2.058-.1,4.008.291,4.988,2.444a3.434,3.434,0,0,1,.323,1.723c-.174,1.449-.457,2.891-.757,4.32a2.361,2.361,0,0,1-1.85,1.908,102.01,102.01,0,0,1-14.914,3.624,7.642,7.642,0,0,0-3.015,1.373,5.888,5.888,0,0,1-3.868,1.111c-2.683-.168-3.675.2-6.014,1.853.5.829.975,1.711,1.538,2.533,3.023,4.41,6.083,8.8,9.1,13.211.87,1.273,1.677,2.6,2.446,3.938,2.1,3.656,4.273,7.278,6.2,11.022,1.456,2.828,2.639,5.806,3.818,8.764a10.691,10.691,0,0,1,.255,2.883"/>
      <path id="Path_8623" data-name="Path 8623" d="M1867.949,2619.224a6.724,6.724,0,0,1,4.791-3.949c6.836-2.1,13.7-4.11,20.538-6.21,5.35-1.646,10.674-3.388,16.015-5.064,2.22-.7,4.467-1.291,6.677-2.01a14.6,14.6,0,0,0,2.262-1.282,25.535,25.535,0,0,0-2.116-1.553c-3.588-2.059-7.218-4.051-10.794-6.135-7.152-4.171-14.332-8.293-21.385-12.631a66.782,66.782,0,0,1-7.318-5.688c-1.518-1.257-2.938-2.636-4.334-4.031-1.789-1.788-1.79-4.2-2.074-6.492-.044-.368.2-1.033.471-1.141,2.193-.87,3.649-3.547,6.607-2.606a11.189,11.189,0,0,0,3.334.336,17.776,17.776,0,0,1,6.791,1.419,27.085,27.085,0,0,0,3.231.871c.235.963.56,2.112.785,3.28a4.339,4.339,0,0,0,2.828,3.42,56.549,56.549,0,0,1,10.674,5.767c2.5,1.673,5.186,3.076,7.8,4.575a9.943,9.943,0,0,0,1.5.511,17.239,17.239,0,0,0,.216-3.174c-.509-4.094-1.19-8.165-1.684-12.26-.4-3.31-.5-6.659-.972-9.959-.326-2.279-1.109-4.488-1.584-6.75-.675-3.186-1.412-6.389-1.024-9.678.373-3.177,2.972-4.722,5.993-3.7,1.051.357,2.165.545,3.185.964a3.092,3.092,0,0,1,1.534,1.215c2.241,4.358,4.579,8.684,6.535,13.174,1.916,4.409,3.411,9,5.111,13.509.267.711.642,1.382,1.153,2.457.633-.667,1.1-1.079,1.471-1.568a20.7,20.7,0,0,1,1.608-2.3c1.7-1.7,3.6-3.2,5.234-4.953,2.025-2.18,4.263-3.428,7.327-2.793a21.273,21.273,0,0,0,3.011.188,31.092,31.092,0,0,1-.211,3.65c-.743,4.213-1.871,8.381-2.278,12.622-.357,3.7-1.956,6.922-2.893,10.387-.585,2.149-1.368,4.246-2,6.385-.257.87-.362,1.785-.584,2.923a10.234,10.234,0,0,0,1.549-.113c6.158-1.672,12.256-3.616,18.483-4.97a68.038,68.038,0,0,1,17.185-1.531,10.349,10.349,0,0,1,3.357,1.239c.683.295,1.319.706,2.172,1.175a6.26,6.26,0,0,1,.55-1.868c.292-.406.953-.882,1.353-.8a1.007,1.007,0,0,1,.631,1.627,14.064,14.064,0,0,1-2.3,3.029c-2.814,2.532-6.407,3.655-9.808,5.111-1.736.749-3.445,1.584-5.232,2.193-2.106.72-4.326,1.12-6.417,1.874-3.481,1.254-6.9,2.673-10.332,4.048-.282.113-.493.413-.981.842,2.283,1.408,4.312,2.836,6.494,3.962,3.14,1.623,6.387,3.039,9.6,4.524,3.131,1.446,6.256,2.9,9.409,4.3a20.922,20.922,0,0,1,5.755,3.4c1.551,1.392,4.459.76,6.339-1.132,1.566.841,1.916,1.59.969,2.618a9.875,9.875,0,0,1-2.675,1.975c-2.58,1.348-5.677.827-8.3,2.436-1.335.817-3.355.474-5.047.754a12.791,12.791,0,0,1-5.857-.512,133.763,133.763,0,0,1-29.481-12.311,11.109,11.109,0,0,0-1.383-.684c-.123-.052-.316.066-.705.164.672,2.461,1.224,4.969,2.042,7.389,1.684,4.978,3.305,10,5.329,14.841,2.589,6.2,5.473,12.278,8.408,18.32.682,1.407,2.078,2.464,3.285,3.84-.054,3.051-.817,3.941-4.009,3.8a13.508,13.508,0,0,1-4.751-1.011c-2.514-1.106-4.873-2.566-7.309-3.857a4.5,4.5,0,0,1-2.214-2.721,44.122,44.122,0,0,0-6.222-11.53,40.136,40.136,0,0,1-2.826-5.5c-.565-1.135-1.119-2.278-1.794-3.653-.6.507-1.136.735-1.282,1.112-1.638,4.163-3.171,8.369-4.823,12.527-.759,1.915-1.918,3.531-4.284,3.535a3.419,3.419,0,0,1-1.7-.415c-1.249-.756-2.446-1.608-3.624-2.471a2.362,2.362,0,0,1-.975-2.472,102.193,102.193,0,0,1,2.847-15.082,7.614,7.614,0,0,0-.007-3.312,5.891,5.891,0,0,1,.583-3.983c1.259-2.375,1.33-3.431.792-6.242-.962.113-1.961.182-2.942.356-5.264.936-10.523,1.915-15.787,2.842-1.519.268-3.06.456-4.6.6-4.2.4-8.392.891-12.6,1.106-3.177.161-6.378.01-9.558-.135a10.659,10.659,0,0,1-2.732-.957"/>
    </g>
  </g>
</svg>
