<svg xmlns="http://www.w3.org/2000/svg" width="373.184" height="304.818" viewBox="0 0 373.184 304.818">
  <path id="Path_8603" data-name="Path 8603" d="M733.367,2593.1a74.36,74.36,0,0,0,20.957,31.679A72.444,72.444,0,0,0,770,2635.835a94.361,94.361,0,0,0,17.714,7.408c5.987,1.73,12.167,2.561,17.762,1.229a22.235,22.235,0,0,0,13.631-9.909,15.8,15.8,0,0,0,2.3-7.919,13.216,13.216,0,0,0-.589-3.976,10.5,10.5,0,0,0-1.8-3.358,19.188,19.188,0,0,0-6.759-5.07,44.5,44.5,0,0,0-8.741-3.079,65.073,65.073,0,0,0-9.354-1.584,50.993,50.993,0,0,0-9.452.048,62,62,0,0,0-18.444,5,109.536,109.536,0,0,0-17,9.493c-5.436,3.676-10.957,7.5-16.489,11.169-11.072,7.389-22.337,14.513-33.838,21.257-11.487,6.768-23.255,13.1-35.375,18.741a266.028,266.028,0,0,1-37.479,14.369c-6.434,1.9-12.966,3.509-19.572,4.767-3.3.623-6.622,1.184-9.959,1.633a90.408,90.408,0,0,1-10.17.954,55.981,55.981,0,0,1-20.635-2.786,32.885,32.885,0,0,1-9.513-5.209,25.939,25.939,0,0,1-7.061-8.627,26.5,26.5,0,0,1-2.738-10.857,32.9,32.9,0,0,1,1.555-10.88,48.151,48.151,0,0,1,11.026-18.162c9.651-10.351,22.5-16.8,35.326-21.125,12.956-4.308,26.665-6.77,40.456-6.074a79.174,79.174,0,0,1,20.37,3.618,56.565,56.565,0,0,1,18.417,9.68,44.869,44.869,0,0,1,12.839,16.368,50.915,50.915,0,0,1,4.494,20.127,65.4,65.4,0,0,1-.563,10.279,55.233,55.233,0,0,1-2.38,10.057,66.3,66.3,0,0,1-9.558,18.16c-8.137,11.043-18.879,19.828-30.572,26.7a113.776,113.776,0,0,1-38.194,14.221,64.939,64.939,0,0,1-20.954.288,38.666,38.666,0,0,1-10.477-3.248,30.627,30.627,0,0,1-4.85-3,29.424,29.424,0,0,1-4.139-3.947,32.328,32.328,0,0,1-5.712-9.609,37.472,37.472,0,0,1-2.467-10.741,32.152,32.152,0,0,1,.955-11.163,33.384,33.384,0,0,1,4.764-10.134c4.231-6.072,9.77-10.636,15.436-14.525a178.047,178.047,0,0,1,17.56-10.279l8.91-4.593c3.041-1.534,6.135-2.951,9.253-4.283a194.782,194.782,0,0,1,19.076-6.931q9.688-2.981,19.615-5.035c6.656-1.366,13.172-2.432,19.774-3.519,6.6-1.054,13.277-2.012,20.089-2.474a80.827,80.827,0,0,1,20.745.968,44.5,44.5,0,0,1,19.446,8.706,47.862,47.862,0,0,1,13.235,16.546,45.7,45.7,0,0,1,3.564,9.949,49.249,49.249,0,0,1,1.128,10.45,76.211,76.211,0,0,1-3.014,20.349,93.915,93.915,0,0,1-19.881,35.3c-9.016,10.17-20.024,18.863-32.871,24.258a71.122,71.122,0,0,1-41.3,4.357q-1.315-.234-2.6-.6c-.86-.233-1.73-.434-2.582-.7-1.7-.554-3.427-1.1-4.973-1.684a62.609,62.609,0,0,1-9.7-4.374,37.059,37.059,0,0,1-8.929-6.885,29,29,0,0,1-6.125-9.932,30.138,30.138,0,0,1-1.766-11.436,39.426,39.426,0,0,1,2.04-10.942,56.194,56.194,0,0,1,4.4-9.811q1.308-2.323,2.808-4.523a39.993,39.993,0,0,1,3.342-4.369,55.152,55.152,0,0,1,17.395-12.352,103.478,103.478,0,0,1,19.549-6.778,104.892,104.892,0,0,1,20.408-3,144.264,144.264,0,0,1,20.457.331,196.971,196.971,0,0,1,39.9,7.75c13.017,3.98,25.211,9.845,37.361,14.291a79.318,79.318,0,0,0,18.4,4.6,52.544,52.544,0,0,0,18.49-1.272,29.452,29.452,0,0,0,14.952-9.034c3.863-4.377,6.318-10.158,5.9-15.527a12.556,12.556,0,0,0-2.808-7.088,15.369,15.369,0,0,0-6.621-4.465,31.7,31.7,0,0,0-8.731-1.7,43,43,0,0,0-9.191.29,54.67,54.67,0,0,0-17.7,5.787,75.171,75.171,0,0,0-15.467,10.952,76.428,76.428,0,0,0-21.059,31.919,92.053,92.053,0,0,0-4.466,18.9A113.253,113.253,0,0,0,759.141,2758a63.925,63.925,0,0,0,3.35,18.779,48.819,48.819,0,0,0,3.924,8.5,31.561,31.561,0,0,0,5.894,6.932,38.777,38.777,0,0,0,16.161,8.612,29.984,29.984,0,0,0,17.762-.677,29.473,29.473,0,0,0,13.886-10.915,37.77,37.77,0,0,0,4.36-8.021,41.907,41.907,0,0,0,2.493-8.839,36.041,36.041,0,0,0-1.186-17.84,25.653,25.653,0,0,0-10.885-13.158c-5.065-3.22-11.1-5.24-17.3-6.741-6.219-1.492-12.707-2.434-19.246-3.44-12.649-1.943-25.479-1.075-38.235,1.545-3.2.632-6.4,1.346-9.628,2.082-3.209.727-6.344,1.5-9.475,2.386a183.946,183.946,0,0,0-18.482,6.373c-12.169,4.872-24.106,10.585-35.884,16.57-11.815,5.919-23.429,12.222-34.7,19.042a293.635,293.635,0,0,0-32.368,22.373,137.273,137.273,0,0,0-14.214,13.254A89.283,89.283,0,0,0,574,2830.26c-3.225,5.5-5.865,11.251-6.576,17.126a31.335,31.335,0,0,0,3.093,17.292,42.572,42.572,0,0,0,11.17,14.19,36.309,36.309,0,0,0,15.807,7.889,32.427,32.427,0,0,0,17.264-1.672,52.718,52.718,0,0,0,15.691-9.319,69.753,69.753,0,0,0,20.748-30.53,49.45,49.45,0,0,0,2.679-18.223,54.509,54.509,0,0,0-1.392-9.265,56.093,56.093,0,0,0-3.143-8.905,64.106,64.106,0,0,0-4.754-8.267,69.756,69.756,0,0,0-6.076-7.457A88.719,88.719,0,0,0,623.7,2780.63a113.676,113.676,0,0,0-17.016-9.515,84.2,84.2,0,0,0-9.056-3.513c-3.1-1.029-6.246-1.906-9.411-2.681-12.647-3.073-25.856-4.087-38.608-1.96a72.025,72.025,0,0,0-56.529,46.914,99.079,99.079,0,0,0-5.976,28.263,80.376,80.376,0,0,0-.064,9.519l.005.1a3.351,3.351,0,1,1-6.689.4c0-.038,0-.089-.006-.126a103.465,103.465,0,0,1,1.8-20.534,101.5,101.5,0,0,1,5.649-19.681c5.105-12.668,13.129-24.411,23.927-32.97a79.484,79.484,0,0,1,17.5-10.684,79.182,79.182,0,0,1,19.64-5.755,101.98,101.98,0,0,1,40.421,2.141c3.283.806,6.531,1.743,9.738,2.784a89.016,89.016,0,0,1,9.516,3.651,118.277,118.277,0,0,1,17.746,9.837c11.192,7.582,21.273,17.354,27.835,29.663a64.989,64.989,0,0,1,4.057,9.639,62.937,62.937,0,0,1,2.294,10.282,54.5,54.5,0,0,1-1.627,21.131,67.411,67.411,0,0,1-8.745,19.179,73.416,73.416,0,0,1-13.967,15.788,59.424,59.424,0,0,1-18.434,10.82,40.006,40.006,0,0,1-21.918,1.728,44.511,44.511,0,0,1-19.335-9.989,49.9,49.9,0,0,1-12.9-17.155,38.79,38.79,0,0,1-3.291-21.481c1.065-7.355,4.248-13.871,7.791-19.731a96.246,96.246,0,0,1,12.426-16.407,161.547,161.547,0,0,1,14.966-13.815,299.926,299.926,0,0,1,33.147-22.848c11.462-6.9,23.134-13.415,35.036-19.441,11.852-6.124,23.878-11.923,36.3-17.083,6.214-2.566,12.58-4.881,19.079-6.836,3.243-.977,6.542-1.849,9.8-2.643,3.234-.79,6.5-1.585,9.8-2.283a133.5,133.5,0,0,1,20.276-2.892,103.134,103.134,0,0,1,20.643.963c6.585.975,13.249,2,19.937,3.662,6.654,1.683,13.409,3.926,19.562,7.888a35.455,35.455,0,0,1,8.32,7.329,31.359,31.359,0,0,1,5.426,9.828,38.98,38.98,0,0,1,1.951,10.779,46.553,46.553,0,0,1-.768,10.722,48.389,48.389,0,0,1-3.07,10.243,44.574,44.574,0,0,1-5.292,9.345,35.092,35.092,0,0,1-38.652,13.508,44.652,44.652,0,0,1-18.493-10.248,37.023,37.023,0,0,1-6.8-8.327,54.078,54.078,0,0,1-4.239-9.627,69.082,69.082,0,0,1-3.259-20.352,121.99,121.99,0,0,1,1.411-20.262,103.93,103.93,0,0,1,4.73-19.785,98.53,98.53,0,0,1,8.736-18.458A87.036,87.036,0,0,1,781.57,2683.4a70.492,70.492,0,0,1,16.451-12.67,60.843,60.843,0,0,1,19.9-6.747,50.173,50.173,0,0,1,10.674-.452,38.643,38.643,0,0,1,10.746,2.122,22.562,22.562,0,0,1,9.661,6.6,19.7,19.7,0,0,1,4.447,11.119,25.643,25.643,0,0,1-1.832,11.351,32.671,32.671,0,0,1-5.839,9.489,36.685,36.685,0,0,1-18.572,11.344,62.177,62.177,0,0,1-21.032,1.659,86.8,86.8,0,0,1-20.226-4.732c-6.436-2.226-12.6-4.8-18.744-7.178-6.137-2.406-12.267-4.622-18.471-6.5a180.145,180.145,0,0,0-18.923-4.562,189.953,189.953,0,0,0-19.266-2.787c-12.883-1.086-25.92-.973-38.314,2.013a88.184,88.184,0,0,0-18.073,6.083,56.847,56.847,0,0,0-8.112,4.615,36.126,36.126,0,0,0-6.808,5.878c-7.407,9.19-12.3,22.681-8.119,32.765,1.976,5.085,5.961,9.128,11.115,12.124a65.929,65.929,0,0,0,8.36,3.968c1.538.647,2.964,1.137,4.4,1.674,1.467.447,2.924.953,4.429,1.285a62.736,62.736,0,0,0,36.9-2.376,86.492,86.492,0,0,0,31.654-21.334c8.912-9.344,16.1-20.6,19.806-33a47.68,47.68,0,0,0,1.964-18.986,50.03,50.03,0,0,0-5.466-17.812,41.38,41.38,0,0,0-11.675-14.108,38.667,38.667,0,0,0-16.681-7.149,73.99,73.99,0,0,0-18.944-.667c-6.439.467-12.924,1.409-19.424,2.475-6.5,1.094-13.083,2.2-19.43,3.531q-9.581,2.028-18.936,4.935a186.443,186.443,0,0,0-18.319,6.743c-2.982,1.289-5.921,2.651-8.8,4.12l-8.775,4.572a170.679,170.679,0,0,0-16.761,9.9c-5.229,3.622-10.082,7.706-13.462,12.574a25.7,25.7,0,0,0-3.69,7.794,25.246,25.246,0,0,0-.746,8.578,29.918,29.918,0,0,0,1.908,8.614,24.848,24.848,0,0,0,4.343,7.465c3.588,4.4,9.061,6.814,15.063,7.953a61.451,61.451,0,0,0,18.714.12,106.641,106.641,0,0,0,36.458-12.336c11.33-6.255,21.742-14.446,29.606-24.664a60.339,60.339,0,0,0,9.259-16.763,52.1,52.1,0,0,0,2.861-18.854,46.062,46.062,0,0,0-4.25-18.448,37.478,37.478,0,0,0-11.977-14.289,50.873,50.873,0,0,0-17.139-7.757,79.951,79.951,0,0,0-18.907-2.34,118.313,118.313,0,0,0-37.872,6.054,105.938,105.938,0,0,0-17.628,7.559,66.736,66.736,0,0,0-15.048,11.295,41.534,41.534,0,0,0-9.841,15.38,26.5,26.5,0,0,0-1.45,8.713,20.307,20.307,0,0,0,1.883,8.358c2.421,5.228,7.366,9.1,13.083,11.272a49.482,49.482,0,0,0,18.555,2.864,85.261,85.261,0,0,0,9.665-.734c3.252-.369,6.49-.875,9.715-1.449,6.452-1.152,12.848-2.648,19.169-4.438a261.592,261.592,0,0,0,36.919-13.922c23.963-11.077,46.565-25.016,68.511-39.82,5.513-3.7,10.884-7.475,16.424-11.271a114.263,114.263,0,0,1,17.679-10,86.045,86.045,0,0,1,9.64-3.562,71.728,71.728,0,0,1,10.124-2.188,59.916,59.916,0,0,1,20.754.879,46.916,46.916,0,0,1,10.091,3.285,24.273,24.273,0,0,1,9,6.816,16.672,16.672,0,0,1,2.831,5.392,19.64,19.64,0,0,1,.837,5.84,22.748,22.748,0,0,1-3.049,11.033,29.283,29.283,0,0,1-17.389,13.452,32.017,32.017,0,0,1-11.035.881,45.924,45.924,0,0,1-10.464-2.151,95.062,95.062,0,0,1-18.6-8.794,90.048,90.048,0,0,1-30.027-27.673,83.064,83.064,0,0,1-9.335-18.383,2.984,2.984,0,0,1,5.614-2.022C733.347,2593.04,733.36,2593.081,733.367,2593.1Z" transform="translate(-480.331 -2591.047)"/>
</svg>
