<svg xmlns="http://www.w3.org/2000/svg" width="17.362" height="17.362" viewBox="0 0 17.362 17.362">
  <path id="Location_icon" data-name="Location icon" d="M12.537,9.38a3.157,3.157,0,1,0,3.157,3.157A3.156,3.156,0,0,0,12.537,9.38Zm7.055,2.367a7.1,7.1,0,0,0-6.266-6.266V3.856H11.748V5.482a7.1,7.1,0,0,0-6.266,6.266H3.856v1.578H5.482a7.1,7.1,0,0,0,6.266,6.266v1.626h1.578V19.592a7.1,7.1,0,0,0,6.266-6.266h1.626V11.748H19.592Zm-7.055,6.313a5.524,5.524,0,1,1,5.524-5.524A5.525,5.525,0,0,1,12.537,18.061Z" transform="translate(-3.856 -3.856)"/>
</svg>
