<svg xmlns="http://www.w3.org/2000/svg" width="28.228" height="18.64" viewBox="0 0 28.228 18.64">
  <g id="Hamburger_icon" data-name="Hamburger icon" transform="translate(-331.109 -18.36)">
    <path id="Path_8739" data-name="Path 8739" d="M6730.674,3367.341c-.577-.8.282-1.372,1.061-1.415,8.091-.452,16.194-.553,24.295-.258.8.029,2.391.3,2.652,1.237s-1.191,1.157-1.8,1.135c-7.725-.281-15.461-.227-23.179.2C6732.745,3368.3,6731.3,3368.206,6730.674,3367.341Z" transform="translate(-6399.376 -3347.141)" fill="#fff"/>
    <path id="Path_8739-2" data-name="Path 8739" d="M6730.674,3367.341c-.577-.8.282-1.372,1.061-1.415,8.091-.452,16.194-.553,24.295-.258.8.029,2.391.3,2.652,1.237s-1.191,1.157-1.8,1.135c-7.725-.281-15.461-.227-23.179.2C6732.745,3368.3,6731.3,3368.206,6730.674,3367.341Z" transform="translate(-6399.376 -3339.199)" fill="#fff"/>
    <g id="Group_1095" data-name="Group 1095" transform="translate(331.109 34.244)">
      <path id="Path_8739-3" data-name="Path 8739" d="M6730.674,3367.341c-.577-.8.282-1.372,1.061-1.415,8.091-.452,16.194-.553,24.295-.258.8.029,2.391.3,2.652,1.237s-1.191,1.157-1.8,1.135c-7.725-.281-15.461-.227-23.179.2C6732.745,3368.3,6731.3,3368.206,6730.674,3367.341Z" transform="translate(-6730.486 -3365.501)" fill="#fff"/>
    </g>
  </g>
</svg>
