<svg id="Group_1089" data-name="Group 1089" xmlns="http://www.w3.org/2000/svg" width="188.754" height="200.565" viewBox="0 0 188.754 200.565">
  <path id="Path_8621" data-name="Path 8621" d="M1806.7,2686.411a5.339,5.339,0,0,0,4.517,1.975c5.677.123,11.356.164,17.032.284,4.443.1,8.886.269,13.33.391,1.845.049,3.691.016,5.535.085a11.724,11.724,0,0,1,2,.487,20.115,20.115,0,0,1-1.278,1.646c-2.293,2.352-4.633,4.66-6.911,7.029-4.556,4.737-9.145,9.444-13.589,14.288a52.948,52.948,0,0,0-4.354,5.933c-.886,1.289-1.671,2.651-2.434,4.019-.978,1.753-.454,3.6-.175,5.407.047.291.374.747.607.769,1.864.189,3.556,1.917,5.611.556a8.877,8.877,0,0,1,2.472-.981,14.083,14.083,0,0,0,4.878-2.558,21.294,21.294,0,0,1,2.279-1.365c-.03-.788-.031-1.735-.113-2.676a3.444,3.444,0,0,1,1.417-3.225,44.919,44.919,0,0,0,6.9-6.722c1.547-1.82,3.292-3.474,4.963-5.187a7.876,7.876,0,0,1,1.035-.715,13.7,13.7,0,0,1,.854,2.377c.5,3.237.864,6.493,1.375,9.728.413,2.614,1.061,5.194,1.419,7.816.246,1.811.128,3.668.257,5.5a23.62,23.62,0,0,0,1.319,7.614,3.383,3.383,0,0,0,5.379,1.524c.725-.5,1.535-.886,2.224-1.427a2.455,2.455,0,0,0,.907-1.261c.765-3.815,1.612-7.626,2.13-11.479.506-3.783.65-7.617.971-11.426.049-.6.19-1.194.347-2.127.628.373,1.075.585,1.463.879a16.559,16.559,0,0,0,1.727,1.4c1.666.927,3.444,1.659,5.072,2.646,2.019,1.225,4,1.692,6.2.542a16.89,16.89,0,0,1,2.259-.8,24.855,24.855,0,0,0-.953-2.741c-1.481-3.056-3.249-5.994-4.48-9.144-1.074-2.744-3-4.862-4.464-7.3-.912-1.514-1.966-2.945-2.915-4.441-.384-.608-.663-1.285-1.08-2.105a8.038,8.038,0,0,1,1.208-.25c5.065-.06,10.145.1,15.193-.217a54.044,54.044,0,0,0,13.456-2.562,8.2,8.2,0,0,0,2.294-1.675c.458-.374.854-.826,1.4-1.369a4.971,4.971,0,0,0,.825,1.307,1.463,1.463,0,0,0,1.208.321.8.8,0,0,0,.128-1.379,11.122,11.122,0,0,0-2.413-1.814c-2.7-1.323-5.686-1.4-8.6-1.774-1.488-.195-2.975-.461-4.471-.538-1.765-.093-3.546.083-5.307-.039-2.93-.2-5.847-.544-8.769-.848a3.986,3.986,0,0,1-.932-.43c1.438-1.571,2.677-3.1,4.1-4.435,2.046-1.921,4.218-3.707,6.346-5.537,2.077-1.785,4.147-3.574,6.252-5.325a16.6,16.6,0,0,0,3.657-3.844c.882-1.4,3.24-1.548,5.086-.511,1.014-.983,1.118-1.631.171-2.21a7.835,7.835,0,0,0-2.47-.927c-2.263-.469-4.515.6-6.87-.058-1.2-.334-2.665.367-4.018.52a10.161,10.161,0,0,0-4.362,1.662,106.255,106.255,0,0,0-19.84,15.8,8.719,8.719,0,0,1-.907.823c-.083.066-.256.018-.574.029-.021-2.026-.145-4.061-.044-6.086.2-4.168.353-8.352.847-12.49.631-5.3,1.515-10.564,2.444-15.815a16.2,16.2,0,0,1,1.675-3.646c-.7-2.317-1.48-2.832-3.886-2.03a10.727,10.727,0,0,0-3.408,1.8c-1.679,1.39-3.164,3.018-4.743,4.533a3.572,3.572,0,0,0-1.1,2.558,34.976,34.976,0,0,1-2.248,10.156,32.044,32.044,0,0,0-.964,4.813c-.185.989-.36,1.982-.576,3.179-.572-.256-1.027-.315-1.221-.571-2.154-2.824-4.238-5.7-6.4-8.519-1-1.3-2.232-2.28-4.039-1.77a2.721,2.721,0,0,0-1.211.687c-.789.848-1.518,1.759-2.23,2.673a1.873,1.873,0,0,0-.208,2.1,80.957,80.957,0,0,0,5.448,10.9,6.055,6.055,0,0,1,.713,2.531,4.677,4.677,0,0,0,1.31,2.916c1.478,1.54,1.761,2.331,1.959,4.595-.759.121-1.537.287-2.324.366-4.223.429-8.451.823-12.673,1.258-1.217.125-2.435.315-3.641.536-3.292.6-6.6,1.141-9.862,1.89-2.46.567-4.872,1.377-7.27,2.178a8.478,8.478,0,0,0-1.878,1.324" transform="translate(-1717.734 -2555.623)"/>
  <path id="Path_8622" data-name="Path 8622" d="M1946.433,2743.146a5.338,5.338,0,0,0,4.425-2.173c3.76-4.255,7.458-8.565,11.215-12.822,2.941-3.33,5.944-6.611,8.905-9.925,1.23-1.377,2.4-2.808,3.639-4.171a11.6,11.6,0,0,1,1.667-1.216,20.027,20.027,0,0,1,.431,2.039c.315,3.27.567,6.547.9,9.816.675,6.538,1.306,13.08,2.135,19.6a53.049,53.049,0,0,0,1.719,7.156c.412,1.508.945,2.987,1.5,4.454.707,1.878,2.456,2.671,4.016,3.625a1.078,1.078,0,0,0,.98.033c1.346-1.3,3.76-1.478,4.048-3.926a8.885,8.885,0,0,1,.847-2.521,14.106,14.106,0,0,0,1.2-5.376,21.365,21.365,0,0,1,.428-2.621c-.62-.486-1.344-1.1-2.115-1.643a3.441,3.441,0,0,1-1.548-3.164,44.906,44.906,0,0,0-.677-9.608c-.391-2.357-.527-4.758-.756-7.139a7.816,7.816,0,0,1,.121-1.252,13.776,13.776,0,0,1,2.367.883c2.794,1.708,5.515,3.534,8.315,5.232,2.263,1.373,4.651,2.543,6.885,3.963,1.542.981,2.883,2.271,4.363,3.354a23.626,23.626,0,0,0,6.665,3.909,3.383,3.383,0,0,0,4.638-3.123c.086-.876.314-1.744.345-2.619a2.452,2.452,0,0,0-.376-1.507c-2.419-3.048-4.782-6.155-7.39-9.039-2.561-2.83-5.4-5.414-8.1-8.119-.427-.426-.789-.916-1.4-1.639.691-.238,1.142-.443,1.616-.55a16.4,16.4,0,0,0,2.187-.411c1.783-.673,3.492-1.558,5.3-2.164,2.24-.751,3.875-1.962,4.419-4.385a16.788,16.788,0,0,1,.849-2.24,24.825,24.825,0,0,0-2.709-1.042c-3.291-.843-6.674-1.39-9.875-2.484-2.789-.951-5.646-.852-8.459-1.307-1.746-.281-3.519-.4-5.274-.642-.713-.1-1.409-.323-2.3-.535a8.014,8.014,0,0,1,.588-1.083c3.225-3.907,6.628-7.681,9.645-11.741a54.072,54.072,0,0,0,6.733-11.928,8.217,8.217,0,0,0,.2-2.834c.01-.591-.079-1.185-.139-1.956a4.968,4.968,0,0,0,1.531.214c.389-.079.949-.4,1.026-.715a.8.8,0,0,0-.971-.989,11.141,11.141,0,0,0-2.943.672c-2.753,1.206-4.741,3.437-6.908,5.42-1.11,1.01-2.273,1.973-3.3,3.067-1.211,1.287-2.227,2.762-3.457,4.027-2.047,2.107-4.191,4.113-6.31,6.148a4.007,4.007,0,0,1-.93.434c-.271-2.113-.639-4.047-.74-5.994-.146-2.8-.106-5.614-.13-8.421-.021-2.738-.051-5.475-.028-8.212a16.625,16.625,0,0,0-.574-5.274c-.5-1.578.91-3.474,2.894-4.214-.1-1.408-.523-1.906-1.577-1.558a7.836,7.836,0,0,0-2.3,1.289c-1.82,1.424-2.457,3.835-4.481,5.208-1.027.7-1.441,2.271-2.2,3.4a10.177,10.177,0,0,0-1.547,4.4,106.307,106.307,0,0,0-.746,25.353,8.742,8.742,0,0,1,.042,1.224c0,.105-.151.207-.349.456-1.561-1.292-3.195-2.512-4.676-3.9-3.05-2.848-6.149-5.663-8.99-8.712-3.636-3.9-7.088-7.978-10.5-12.079a16.176,16.176,0,0,1-1.7-3.633c-2.224-.959-3.118-.7-4.059,1.657a10.733,10.733,0,0,0-.824,3.767c-.023,2.18.261,4.364.4,6.549a3.568,3.568,0,0,0,1.242,2.492,35.023,35.023,0,0,1,6.3,8.275,31.8,31.8,0,0,0,3.053,3.844c.636.781,1.281,1.554,2.055,2.494-.564.271-.9.581-1.224.563-3.547-.179-7.091-.446-10.639-.612-1.634-.078-3.182.231-3.96,1.94a2.726,2.726,0,0,0-.256,1.368c.138,1.15.363,2.295.6,3.429a1.874,1.874,0,0,0,1.469,1.515,80.975,80.975,0,0,0,11.84,2.877,6.07,6.07,0,0,1,2.394,1.09,4.674,4.674,0,0,0,3.071.882c2.13-.133,2.917.161,4.775,1.471-.4.658-.774,1.358-1.221,2.011-2.4,3.5-4.829,6.984-7.224,10.488-.691,1.011-1.331,2.063-1.942,3.126-1.666,2.9-3.392,5.778-4.925,8.75-1.156,2.245-2.1,4.61-3.031,6.958a8.484,8.484,0,0,0-.2,2.289" transform="translate(-1940.816 -2559.101)"/>
  <path id="Path_8623" data-name="Path 8623" d="M1966.968,2601.82a5.338,5.338,0,0,0-3.8-3.135c-5.427-1.671-10.879-3.263-16.305-4.93-4.247-1.307-8.474-2.69-12.714-4.02-1.762-.552-3.546-1.025-5.3-1.6a11.589,11.589,0,0,1-1.8-1.018,20.274,20.274,0,0,1,1.68-1.233c2.849-1.635,5.73-3.216,8.569-4.871,5.678-3.311,11.378-6.584,16.978-10.028a52.984,52.984,0,0,0,5.81-4.516c1.205-1,2.333-2.093,3.441-3.2,1.42-1.419,1.421-3.338,1.647-5.154.035-.292-.156-.82-.374-.906-1.741-.691-2.9-2.816-5.245-2.069a8.879,8.879,0,0,1-2.647.267,14.112,14.112,0,0,0-5.391,1.127,21.489,21.489,0,0,1-2.565.691c-.187.764-.445,1.677-.623,2.6a3.445,3.445,0,0,1-2.245,2.715,44.906,44.906,0,0,0-8.474,4.578c-1.985,1.328-4.117,2.442-6.193,3.632a7.921,7.921,0,0,1-1.191.406,13.691,13.691,0,0,1-.172-2.52c.4-3.25.945-6.482,1.337-9.733.318-2.628.4-5.286.772-7.906.259-1.81.88-3.563,1.258-5.359a23.631,23.631,0,0,0,.813-7.684,3.383,3.383,0,0,0-4.758-2.937c-.834.283-1.719.433-2.529.765a2.456,2.456,0,0,0-1.218.965c-1.779,3.46-3.635,6.894-5.188,10.459-1.521,3.5-2.708,7.148-4.058,10.725-.212.564-.51,1.1-.915,1.951-.5-.53-.874-.857-1.168-1.245a16.458,16.458,0,0,0-1.277-1.823c-1.349-1.347-2.86-2.538-4.155-3.932-1.608-1.73-3.384-2.721-5.817-2.217a16.882,16.882,0,0,1-2.391.149,24.7,24.7,0,0,0,.167,2.9c.59,3.345,1.485,6.654,1.808,10.021.284,2.934,1.553,5.5,2.3,8.246.464,1.706,1.086,3.371,1.589,5.069.2.69.287,1.417.464,2.321a8.116,8.116,0,0,1-1.23-.09c-4.889-1.327-9.73-2.871-14.674-3.946a54.026,54.026,0,0,0-13.643-1.216,8.221,8.221,0,0,0-2.665.984c-.542.234-1.047.561-1.724.933a4.967,4.967,0,0,0-.437-1.483c-.232-.323-.757-.7-1.074-.639a.8.8,0,0,0-.5,1.292,11.168,11.168,0,0,0,1.825,2.4c2.234,2.01,5.087,2.9,7.787,4.057,1.378.595,2.735,1.258,4.154,1.741,1.672.572,3.434.889,5.094,1.488,2.764,1,5.475,2.122,8.2,3.214.224.09.391.328.779.668-1.812,1.118-3.423,2.252-5.156,3.146-2.493,1.288-5.071,2.413-7.618,3.592-2.486,1.148-4.967,2.3-7.47,3.411a16.613,16.613,0,0,0-4.569,2.7c-1.231,1.1-3.54.6-5.033-.9-1.243.668-1.521,1.262-.769,2.078a7.842,7.842,0,0,0,2.124,1.568c2.048,1.07,4.507.656,6.592,1.934,1.06.648,2.664.376,4.007.6a10.152,10.152,0,0,0,4.65-.406,106.194,106.194,0,0,0,23.405-9.773,8.82,8.82,0,0,1,1.1-.543c.1-.041.251.052.56.13-.534,1.954-.972,3.945-1.621,5.866-1.337,3.952-2.624,7.936-4.231,11.782-2.055,4.921-4.345,9.748-6.675,14.544a16.148,16.148,0,0,1-2.608,3.049c.043,2.422.649,3.129,3.183,3.015a10.727,10.727,0,0,0,3.772-.8c2-.878,3.869-2.037,5.8-3.062a3.572,3.572,0,0,0,1.758-2.16,35.029,35.029,0,0,1,4.94-9.154,31.873,31.873,0,0,0,2.244-4.366c.449-.9.888-1.809,1.424-2.9.479.4.9.584,1.018.883,1.3,3.3,2.517,6.644,3.829,9.945.6,1.52,1.523,2.8,3.4,2.806a2.715,2.715,0,0,0,1.351-.33c.992-.6,1.942-1.277,2.877-1.962a1.875,1.875,0,0,0,.774-1.963,81.136,81.136,0,0,0-2.26-11.974,6.043,6.043,0,0,1,.006-2.629,4.676,4.676,0,0,0-.463-3.162c-1-1.886-1.056-2.724-.629-4.956.764.09,1.557.145,2.336.282,4.179.743,8.354,1.521,12.533,2.256,1.206.213,2.429.362,3.65.48,3.331.321,6.662.708,10,.878,2.522.128,5.064.008,7.588-.107a8.453,8.453,0,0,0,2.169-.76" transform="translate(-1826.842 -2534.777)"/>
</svg>
