<svg xmlns="http://www.w3.org/2000/svg" width="31.594" height="88.592" viewBox="0 0 31.594 88.592">
  <path id="Path_8403" data-name="Path 8403" d="M3333.873,3766.236a18.868,18.868,0,0,0-6.093-9.289,14.963,14.963,0,0,0-18.255-.266,77.515,77.515,0,0,1-2.538-20.281,87.634,87.634,0,0,1,1.087-14.22c.089-.568.069-2.061-.65-2.291-.766-.245-1.056.724-1.146,1.3a93.257,93.257,0,0,0,.25,30.708c.371,2.083.809,4.192,1.354,6.28-2.788,3-3.792,7.176-4.378,11.122a33.9,33.9,0,0,0,1.269,14.158,73.706,73.706,0,0,0,4.589,13.075,126.958,126.958,0,0,0,6.891,11.341c.12.189.239.378.359.568h2.906c-3.6-6.194-8.282-11.842-10.584-18.687a75.518,75.518,0,0,1-3.66-13.259c-.606-4.287-.077-9.5,2.182-13.294a11.1,11.1,0,0,1,1.358-1.827,35.18,35.18,0,0,0,6.5,12.181,19.2,19.2,0,0,0,8.735,6c3.094.96,7.119.917,9.228-1.94C3335.548,3774.536,3334.9,3769.663,3333.873,3766.236Zm-1.915,8.625A6.254,6.254,0,0,1,3327,3776.4c-7.432-.4-12.646-7.43-15.342-13.657q-.615-1.421-1.134-2.89a14.156,14.156,0,0,1,16.026.125,15.682,15.682,0,0,1,6.06,9.511C3332.955,3771.208,3333.261,3773.469,3331.958,3774.861Z" transform="translate(-3303.218 -3719.85)" fill="#f1f0ea"/>
</svg>
