<svg xmlns="http://www.w3.org/2000/svg" width="43" height="43" viewBox="0 0 43 43">
  <g id="Instagram_red" data-name="Instagram red" transform="translate(0 -0.039)">
    <circle id="Ellipse_1" data-name="Ellipse 1" cx="21.5" cy="21.5" r="21.5" transform="translate(0 0.039)" fill="#c52433"/>
    <path id="Path_3" data-name="Path 3" d="M8.535,1.517a26.171,26.171,0,0,1,3.414.095,4.4,4.4,0,0,1,1.612.285,3.331,3.331,0,0,1,1.612,1.612,4.4,4.4,0,0,1,.285,1.612c0,.854.095,1.138.095,3.414a26.172,26.172,0,0,1-.095,3.414,4.4,4.4,0,0,1-.285,1.612,3.331,3.331,0,0,1-1.612,1.612,4.4,4.4,0,0,1-1.612.285c-.854,0-1.138.095-3.414.095a26.172,26.172,0,0,1-3.414-.095,4.4,4.4,0,0,1-1.612-.285A3.331,3.331,0,0,1,1.9,13.562a4.4,4.4,0,0,1-.285-1.612c0-.854-.095-1.138-.095-3.414a26.171,26.171,0,0,1,.095-3.414A4.4,4.4,0,0,1,1.9,3.509a3.406,3.406,0,0,1,.664-.948A1.6,1.6,0,0,1,3.509,1.9a4.4,4.4,0,0,1,1.612-.285,26.171,26.171,0,0,1,3.414-.095M8.535,0A28.022,28.022,0,0,0,5.026.095,5.855,5.855,0,0,0,2.94.474a3.713,3.713,0,0,0-1.517.948A3.713,3.713,0,0,0,.474,2.94,4.321,4.321,0,0,0,.095,5.026,28.022,28.022,0,0,0,0,8.535a28.022,28.022,0,0,0,.095,3.509,5.855,5.855,0,0,0,.379,2.086,3.713,3.713,0,0,0,.948,1.517A3.713,3.713,0,0,0,2.94,16.6a5.855,5.855,0,0,0,2.086.379,28.022,28.022,0,0,0,3.509.095,28.022,28.022,0,0,0,3.509-.095,5.855,5.855,0,0,0,2.086-.379A3.979,3.979,0,0,0,16.6,14.131a5.855,5.855,0,0,0,.379-2.086c0-.948.095-1.233.095-3.509a28.022,28.022,0,0,0-.095-3.509A5.855,5.855,0,0,0,16.6,2.94a3.713,3.713,0,0,0-.948-1.517A3.713,3.713,0,0,0,14.131.474,5.855,5.855,0,0,0,12.044.095,28.022,28.022,0,0,0,8.535,0m0,4.173A4.292,4.292,0,0,0,4.173,8.535,4.363,4.363,0,1,0,8.535,4.173m0,7.208A2.794,2.794,0,0,1,5.69,8.535,2.794,2.794,0,0,1,8.535,5.69a2.794,2.794,0,0,1,2.845,2.845,2.794,2.794,0,0,1-2.845,2.845M13.088,2.94a1.043,1.043,0,1,0,1.043,1.043A1.052,1.052,0,0,0,13.088,2.94" transform="translate(13.293 13.331)" fill="#fff" fill-rule="evenodd"/>
  </g>
</svg>
