<svg id="Instagram" xmlns="http://www.w3.org/2000/svg" width="36" height="36" viewBox="0 0 36 36">
  <circle id="Ellipse_1" data-name="Ellipse 1" cx="18" cy="18" r="18" transform="translate(0 0)" fill="#fff"/>
  <path id="Path_3" data-name="Path 3" d="M7.146,1.27A21.911,21.911,0,0,1,10,1.35a3.683,3.683,0,0,1,1.35.238,2.789,2.789,0,0,1,1.35,1.35,3.683,3.683,0,0,1,.238,1.35c0,.715.079.953.079,2.858A21.912,21.912,0,0,1,12.942,10a3.683,3.683,0,0,1-.238,1.35,2.788,2.788,0,0,1-1.35,1.35,3.683,3.683,0,0,1-1.35.238c-.715,0-.953.079-2.858.079a21.911,21.911,0,0,1-2.858-.079,3.683,3.683,0,0,1-1.35-.238,2.788,2.788,0,0,1-1.35-1.35A3.683,3.683,0,0,1,1.35,10c0-.715-.079-.953-.079-2.858A21.911,21.911,0,0,1,1.35,4.288a3.683,3.683,0,0,1,.238-1.35,2.852,2.852,0,0,1,.556-.794,1.342,1.342,0,0,1,.794-.556,3.683,3.683,0,0,1,1.35-.238A21.911,21.911,0,0,1,7.146,1.27m0-1.27A23.461,23.461,0,0,0,4.208.079,4.9,4.9,0,0,0,2.461.4a3.108,3.108,0,0,0-1.27.794A3.108,3.108,0,0,0,.4,2.461,3.618,3.618,0,0,0,.079,4.208,23.461,23.461,0,0,0,0,7.146a23.461,23.461,0,0,0,.079,2.938A4.9,4.9,0,0,0,.4,11.831a3.108,3.108,0,0,0,.794,1.27,3.108,3.108,0,0,0,1.27.794,4.9,4.9,0,0,0,1.747.318,23.461,23.461,0,0,0,2.938.079,23.461,23.461,0,0,0,2.938-.079,4.9,4.9,0,0,0,1.747-.318A3.331,3.331,0,0,0,13.9,11.831a4.9,4.9,0,0,0,.318-1.747c0-.794.079-1.032.079-2.938a23.461,23.461,0,0,0-.079-2.938A4.9,4.9,0,0,0,13.9,2.461a3.108,3.108,0,0,0-.794-1.27A3.108,3.108,0,0,0,11.831.4,4.9,4.9,0,0,0,10.084.079,23.461,23.461,0,0,0,7.146,0m0,3.494A3.594,3.594,0,0,0,3.494,7.146,3.652,3.652,0,1,0,7.146,3.494m0,6.034A2.339,2.339,0,0,1,4.764,7.146,2.339,2.339,0,0,1,7.146,4.764,2.339,2.339,0,0,1,9.528,7.146,2.339,2.339,0,0,1,7.146,9.528m3.811-7.067a.873.873,0,1,0,.873.873.881.881,0,0,0-.873-.873" transform="translate(11.129 11.129)" fill-rule="evenodd"/>
</svg>
