<svg xmlns="http://www.w3.org/2000/svg" width="151.119" height="22.091" viewBox="0 0 151.119 22.091">
  <g id="Group_893" data-name="Group 893" transform="translate(735.72 13484.65)">
    <path id="Path_4361" data-name="Path 4361" d="M102.972.774h4.707l1.815,7.047L111.3.774H116V12.356h-2.931V3.523l-2.258,8.833h-2.654L105.9,3.523v8.833h-2.931Z" transform="translate(-838.692 -13485.227)" fill="#1d1d1b"/>
    <path id="Path_4362" data-name="Path 4362" d="M164.225,10.444h-4.063l-.565,1.912h-3.654L160.3.774h3.9l4.352,11.582H164.8Zm-.742-2.5L162.2,3.776,160.939,7.94Z" transform="translate(-878.143 -13485.227)" fill="#1d1d1b"/>
    <path id="Path_4363" data-name="Path 4363" d="M207.582,12.356V.774h5.965a8.667,8.667,0,0,1,2.536.284A2.7,2.7,0,0,1,217.5,2.113a3.2,3.2,0,0,1,.537,1.876,3.226,3.226,0,0,1-.411,1.663,3.212,3.212,0,0,1-1.131,1.133,4.326,4.326,0,0,1-1.257.458,3.573,3.573,0,0,1,.932.427,3.621,3.621,0,0,1,.572.609,4.562,4.562,0,0,1,.5.72l1.733,3.356h-4.044l-1.913-3.54a2.7,2.7,0,0,0-.648-.893,1.5,1.5,0,0,0-.877-.268h-.316v4.7Zm3.6-6.889h1.509a5.386,5.386,0,0,0,.948-.158.947.947,0,0,0,.581-.363,1.071,1.071,0,0,0,.225-.672,1.066,1.066,0,0,0-.355-.861,2.153,2.153,0,0,0-1.336-.3h-1.572Z" transform="translate(-916.603 -13485.227)" fill="#1d1d1b"/>
    <path id="Path_4364" data-name="Path 4364" d="M261.671.774h3.571v6.9a5.811,5.811,0,0,1-.32,1.938,4.187,4.187,0,0,1-1,1.6,4,4,0,0,1-1.434.959,7.219,7.219,0,0,1-2.5.387,15.785,15.785,0,0,1-1.845-.118,4.829,4.829,0,0,1-1.671-.47,4.183,4.183,0,0,1-1.229-1,3.665,3.665,0,0,1-.762-1.335,6.912,6.912,0,0,1-.332-1.958V.774h3.571V7.839a2.016,2.016,0,0,0,.526,1.48,2.262,2.262,0,0,0,2.907.008,2.012,2.012,0,0,0,.526-1.488Z" transform="translate(-951.28 -13485.227)" fill="#1d1d1b"/>
    <path id="Path_4365" data-name="Path 4365" d="M306.7,7.585V5.175h5.53v4.938a11.328,11.328,0,0,1-2.809,1.474,9.538,9.538,0,0,1-2.9.391,7.039,7.039,0,0,1-3.362-.7,4.812,4.812,0,0,1-2.014-2.094,6.881,6.881,0,0,1-.715-3.192,6.664,6.664,0,0,1,.782-3.3A5.068,5.068,0,0,1,303.507.561,7.456,7.456,0,0,1,306.675,0a8.892,8.892,0,0,1,2.872.348,3.729,3.729,0,0,1,1.58,1.078,4.792,4.792,0,0,1,.944,1.853l-3.453.616a1.868,1.868,0,0,0-.723-1,2.258,2.258,0,0,0-1.3-.348,2.343,2.343,0,0,0-1.876.818,3.937,3.937,0,0,0-.7,2.587,4.059,4.059,0,0,0,.707,2.686,2.484,2.484,0,0,0,1.971.806,3.75,3.75,0,0,0,1.145-.174,6.189,6.189,0,0,0,1.248-.593V7.585Z" transform="translate(-985.757 -13484.65)" fill="#1d1d1b"/>
    <path id="Path_4366" data-name="Path 4366" d="M356.618,10.444h-4.063l-.565,1.912h-3.654L352.689.774h3.9l4.352,11.582H357.2Zm-.742-2.5L354.6,3.776,353.332,7.94Z" transform="translate(-1021.434 -13485.227)" fill="#1d1d1b"/>
    <path id="Path_4367" data-name="Path 4367" d="M400.523.774h4.707l1.815,7.047,1.8-7.047h4.7V12.356H410.62V3.523l-2.258,8.833h-2.653l-2.254-8.833v8.833h-2.931Z" transform="translate(-1060.302 -13485.227)" fill="#1d1d1b"/>
    <path id="Path_4368" data-name="Path 4368" d="M455.92.774h9.592V3.247h-6V5.088h5.57V7.45h-5.57V9.733h6.178v2.623H455.92Z" transform="translate(-1101.561 -13485.227)" fill="#1d1d1b"/>
    <path id="Path_4369" data-name="Path 4369" d="M517.644.774h3.571v6.9a5.813,5.813,0,0,1-.32,1.938,4.192,4.192,0,0,1-1,1.6,4.007,4.007,0,0,1-1.434.959,7.22,7.22,0,0,1-2.5.387,15.785,15.785,0,0,1-1.845-.118,4.828,4.828,0,0,1-1.671-.47,4.178,4.178,0,0,1-1.229-1,3.669,3.669,0,0,1-.763-1.335,6.922,6.922,0,0,1-.332-1.958V.774h3.571V7.839a2.017,2.017,0,0,0,.525,1.48,2.262,2.262,0,0,0,2.908.008,2.012,2.012,0,0,0,.526-1.488Z" transform="translate(-1141.923 -13485.227)" fill="#1d1d1b"/>
    <path id="Path_4370" data-name="Path 4370" d="M557.691.774h5.317a6.371,6.371,0,0,1,2.54.426,4.132,4.132,0,0,1,1.6,1.225,5.068,5.068,0,0,1,.917,1.857,8.621,8.621,0,0,1,.284,2.244,7.79,7.79,0,0,1-.423,2.88,4.767,4.767,0,0,1-1.173,1.715,3.829,3.829,0,0,1-1.612.92,8.3,8.3,0,0,1-2.133.316h-5.317ZM561.27,3.4V9.725h.877a3.688,3.688,0,0,0,1.6-.249,1.688,1.688,0,0,0,.743-.869,5.46,5.46,0,0,0,.268-2.011,3.906,3.906,0,0,0-.6-2.521,2.542,2.542,0,0,0-1.991-.679Z" transform="translate(-1177.357 -13485.227)" fill="#1d1d1b"/>
    <path id="Path_4371" data-name="Path 4371" d="M601.567,6a5.969,5.969,0,0,1,1.58-4.416,5.948,5.948,0,0,1,4.4-1.58A6.055,6.055,0,0,1,612,1.553,5.853,5.853,0,0,1,613.568,5.9a7.133,7.133,0,0,1-.684,3.33,4.872,4.872,0,0,1-1.975,2.023,6.521,6.521,0,0,1-3.219.723,7.409,7.409,0,0,1-3.243-.624,4.884,4.884,0,0,1-2.082-1.975,6.559,6.559,0,0,1-.8-3.382m3.579.016a3.883,3.883,0,0,0,.652,2.52,2.467,2.467,0,0,0,3.559.016,4.284,4.284,0,0,0,.632-2.694,3.58,3.58,0,0,0-.66-2.39,2.255,2.255,0,0,0-1.79-.754,2.175,2.175,0,0,0-1.738.766,3.9,3.9,0,0,0-.656,2.536" transform="translate(-1210.035 -13484.65)" fill="#1d1d1b"/>
    <path id="Path_4372" data-name="Path 4372" d="M651.544.774h3.342l4.361,6.408V.774h3.373V12.356h-3.373L654.91,6v6.36h-3.366Z" transform="translate(-1247.258 -13485.227)" fill="#1d1d1b"/>
    <path id="Path_4373" data-name="Path 4373" d="M106.124,58.256h.7v4.756a4.676,4.676,0,0,1-.17,1.525,1.424,1.424,0,0,1-.568.685,1.741,1.741,0,0,1-.963.256,2.249,2.249,0,0,1-.841-.165,3.556,3.556,0,0,1-.917-.582l.374-.56a5.506,5.506,0,0,0,.917.546,1.162,1.162,0,0,0,.47.106.906.906,0,0,0,.55-.182.952.952,0,0,0,.345-.484,4.481,4.481,0,0,0,.1-1.169Z" transform="translate(-838.988 -13528.038)" fill="#1d1d1b"/>
    <path id="Path_4374" data-name="Path 4374" d="M122.778,58.257l3.286,7.046H125.3L124.2,62.984H121.16l-1.1,2.318h-.786l3.329-7.046Zm-.089,1.5-1.207,2.55h2.409Z" transform="translate(-850.835 -13528.039)" fill="#1d1d1b"/>
    <path id="Path_4375" data-name="Path 4375" d="M149.438,58.257h1.4a8.107,8.107,0,0,1,1.629.105,1.808,1.808,0,0,1,.987.611,1.972,1.972,0,0,1,.009,2.323,1.837,1.837,0,0,1-1.03.616,9.112,9.112,0,0,1-1.791.115h-.5V65.3h-.7Zm.7.69v2.39l1.193.014a3.116,3.116,0,0,0,1.058-.131,1.086,1.086,0,0,0,.527-.425,1.178,1.178,0,0,0,.191-.657,1.163,1.163,0,0,0-.191-.648,1.058,1.058,0,0,0-.506-.418,3.037,3.037,0,0,0-1.027-.124Z" transform="translate(-873.299 -13528.039)" fill="#1d1d1b"/>
    <path id="Path_4376" data-name="Path 4376" d="M169.42,58.257l3.286,7.046h-.761l-1.108-2.318H167.8L166.7,65.3h-.786l3.329-7.046Zm-.089,1.5-1.207,2.55h2.408Z" transform="translate(-885.573 -13528.039)" fill="#1d1d1b"/>
    <path id="Path_4377" data-name="Path 4377" d="M196.81,65.3V58.257h.153l4.689,5.4v-5.4h.694V65.3h-.158l-4.651-5.335V65.3Z" transform="translate(-908.58 -13528.039)" fill="#1d1d1b"/>
    <path id="Path_4378" data-name="Path 4378" d="M224.282,58.256h4.038v.69h-3.333v2.208h3.3v.69h-3.3v2.768h3.3v.69h-4.009Z" transform="translate(-929.041 -13528.039)" fill="#1d1d1b"/>
    <path id="Path_4379" data-name="Path 4379" d="M244.477,63.472l.6-.359q.632,1.164,1.461,1.164a1.4,1.4,0,0,0,.666-.165,1.172,1.172,0,0,0,.474-.443,1.148,1.148,0,0,0,.163-.589,1.2,1.2,0,0,0-.24-.694,5.735,5.735,0,0,0-1.207-1.13,6.168,6.168,0,0,1-1.1-.963,1.761,1.761,0,0,1-.374-1.078,1.634,1.634,0,0,1,.22-.838,1.574,1.574,0,0,1,.62-.6,1.788,1.788,0,0,1,.869-.218,1.853,1.853,0,0,1,.932.247,3.194,3.194,0,0,1,.917.908l-.575.436a2.756,2.756,0,0,0-.678-.694,1.167,1.167,0,0,0-.61-.168.967.967,0,0,0-.7.259.847.847,0,0,0-.271.637,1.087,1.087,0,0,0,.1.446,1.642,1.642,0,0,0,.35.469q.139.134.91.7a5.131,5.131,0,0,1,1.255,1.2,1.938,1.938,0,0,1,.34,1.058,1.8,1.8,0,0,1-.582,1.331,1.956,1.956,0,0,1-1.415.565,2.076,2.076,0,0,1-1.164-.342,3.129,3.129,0,0,1-.962-1.147" transform="translate(-944.082 -13527.521)" fill="#1d1d1b"/>
    <path id="Path_4380" data-name="Path 4380" d="M265.53,58.256h4.038v.69h-3.333v2.208h3.3v.69h-3.3v2.768h3.3v.69H265.53Z" transform="translate(-959.761 -13528.039)" fill="#1d1d1b"/>
    <path id="Path_4381" data-name="Path 4381" d="M296.777,65.3V58.257h.153l4.689,5.4v-5.4h.694V65.3h-.158L297.5,59.967V65.3Z" transform="translate(-983.034 -13528.039)" fill="#1d1d1b"/>
    <path id="Path_4382" data-name="Path 4382" d="M327.637,57.562a3.656,3.656,0,0,1,2.679,1.068,3.7,3.7,0,0,1-2.622,6.332,3.607,3.607,0,0,1-2.646-1.073,3.527,3.527,0,0,1-1.078-2.6,3.75,3.75,0,0,1,.491-1.882,3.627,3.627,0,0,1,3.175-1.849m.031.685a2.9,2.9,0,0,0-1.483.408,2.931,2.931,0,0,0-1.094,1.1,3.054,3.054,0,0,0-.393,1.539,2.964,2.964,0,0,0,2.97,2.986,3.013,3.013,0,0,0,1.518-.4,2.852,2.852,0,0,0,1.089-1.088,3.059,3.059,0,0,0,.391-1.534,2.983,2.983,0,0,0-.391-1.517,2.92,2.92,0,0,0-1.1-1.086,2.977,2.977,0,0,0-1.506-.408" transform="translate(-1003.287 -13527.521)" fill="#1d1d1b"/>
    <path id="Path_4383" data-name="Path 4383" d="M361.044,57.562a3.655,3.655,0,0,1,2.679,1.068,3.7,3.7,0,0,1-2.621,6.332,3.607,3.607,0,0,1-2.646-1.073,3.526,3.526,0,0,1-1.078-2.6,3.75,3.75,0,0,1,.491-1.882,3.628,3.628,0,0,1,3.175-1.849m.031.685a2.9,2.9,0,0,0-1.483.408,2.933,2.933,0,0,0-1.094,1.1,3.055,3.055,0,0,0-.393,1.539,2.964,2.964,0,0,0,2.97,2.986,3.014,3.014,0,0,0,1.518-.4,2.853,2.853,0,0,0,1.089-1.088,3.059,3.059,0,0,0,.391-1.534,2.983,2.983,0,0,0-.391-1.517,2.919,2.919,0,0,0-1.1-1.086,2.977,2.977,0,0,0-1.506-.408" transform="translate(-1028.167 -13527.521)" fill="#1d1d1b"/>
    <path id="Path_4384" data-name="Path 4384" d="M392,65.3V58.257h1.461a7.463,7.463,0,0,1,2.294.254,3.069,3.069,0,0,1,1.6,1.245,3.782,3.782,0,0,1,.577,2.112,3.7,3.7,0,0,1-.458,1.863,2.93,2.93,0,0,1-1.188,1.188,4.473,4.473,0,0,1-2.047.383Zm.675-.666h.814a7.58,7.58,0,0,0,2.026-.182,2.337,2.337,0,0,0,1.25-.931,2.866,2.866,0,0,0,.455-1.644,3.017,3.017,0,0,0-.493-1.742,2.484,2.484,0,0,0-1.375-.991,8.311,8.311,0,0,0-2.179-.2h-.5Z" transform="translate(-1053.956 -13528.039)" fill="#1d1d1b"/>
    <path id="Path_4385" data-name="Path 4385" d="M419.643,58.256h.7v6.365h2.711v.68h-3.415Z" transform="translate(-1074.542 -13528.039)" fill="#1d1d1b"/>
    <path id="Path_4386" data-name="Path 4386" d="M437.415,58.256h4.038v.69H438.12v2.208h3.3v.69h-3.3v2.768h3.3v.69h-4.009Z" transform="translate(-1087.778 -13528.039)" fill="#1d1d1b"/>
    <path id="Path_4387" data-name="Path 4387" d="M457.073,63.472l.6-.359q.632,1.164,1.461,1.164a1.4,1.4,0,0,0,.666-.165,1.172,1.172,0,0,0,.474-.443,1.146,1.146,0,0,0,.163-.589,1.2,1.2,0,0,0-.24-.694,5.741,5.741,0,0,0-1.207-1.13,6.178,6.178,0,0,1-1.1-.963,1.761,1.761,0,0,1-.374-1.078,1.636,1.636,0,0,1,.22-.838,1.574,1.574,0,0,1,.62-.6,1.788,1.788,0,0,1,.869-.218,1.855,1.855,0,0,1,.932.247,3.194,3.194,0,0,1,.917.908l-.575.436a2.761,2.761,0,0,0-.678-.694,1.167,1.167,0,0,0-.611-.168.968.968,0,0,0-.7.259.847.847,0,0,0-.271.637,1.084,1.084,0,0,0,.1.446,1.642,1.642,0,0,0,.349.469q.139.134.91.7a5.121,5.121,0,0,1,1.255,1.2,1.938,1.938,0,0,1,.34,1.058,1.8,1.8,0,0,1-.582,1.331,1.955,1.955,0,0,1-1.415.565,2.076,2.076,0,0,1-1.164-.342,3.127,3.127,0,0,1-.963-1.147" transform="translate(-1102.419 -13527.521)" fill="#1d1d1b"/>
    <path id="Path_4388" data-name="Path 4388" d="M495.04,63.437l.477.506a10.908,10.908,0,0,1-.873.7q.287.265.75.727.365.363.628.67h-.982l-.935-.963a6.041,6.041,0,0,1-1.431.925,3.168,3.168,0,0,1-1.164.215,1.824,1.824,0,0,1-1.308-.467,1.541,1.541,0,0,1-.493-1.167,1.974,1.974,0,0,1,.333-1.057,6.184,6.184,0,0,1,1.357-1.339,6.355,6.355,0,0,1-.744-1.032,1.426,1.426,0,0,1-.165-.634,1.092,1.092,0,0,1,.407-.871,1.732,1.732,0,0,1,1.169-.4,1.813,1.813,0,0,1,.8.177,1.334,1.334,0,0,1,.556.476,1.16,1.16,0,0,1,.191.635,1.439,1.439,0,0,1-.249.754,5.049,5.049,0,0,1-.983,1.022l1.068,1.121.7.71a11,11,0,0,0,.887-.71m-3.177-.715a5.7,5.7,0,0,0-1.176,1.076,1.323,1.323,0,0,0-.278.741.937.937,0,0,0,.341.712,1.2,1.2,0,0,0,.835.309,1.859,1.859,0,0,0,.734-.153,5.937,5.937,0,0,0,1.3-.83L492.5,63.431q-.287-.3-.642-.709m.086-.933a3.529,3.529,0,0,0,.773-.781.9.9,0,0,0,.182-.484.516.516,0,0,0-.238-.421,1.033,1.033,0,0,0-.632-.177.97.97,0,0,0-.61.182.535.535,0,0,0-.236.431.711.711,0,0,0,.1.359,5.683,5.683,0,0,0,.664.891" transform="translate(-1126.726 -13528.779)" fill="#1d1d1b"/>
    <path id="Path_4389" data-name="Path 4389" d="M526.7,58.946v-.69h3.861v.69h-1.571V65.3h-.719V58.946Z" transform="translate(-1154.274 -13528.039)" fill="#1d1d1b"/>
    <path id="Path_4390" data-name="Path 4390" d="M546.513,58.256h4.038v.69h-3.334v2.208h3.3v.69h-3.3v2.768h3.3v.69h-4.009Z" transform="translate(-1169.032 -13528.039)" fill="#1d1d1b"/>
    <path id="Path_4391" data-name="Path 4391" d="M566.305,65.3l1.009-7.046h.114l2.864,5.781,2.837-5.781h.113l1.014,7.046h-.691l-.7-5.039L570.378,65.3h-.18l-2.521-5.077-.692,5.077Z" transform="translate(-1183.773 -13528.039)" fill="#1d1d1b"/>
    <path id="Path_4392" data-name="Path 4392" d="M601.9,58.257h1.4a8.106,8.106,0,0,1,1.628.105,1.808,1.808,0,0,1,.987.611,1.971,1.971,0,0,1,.01,2.323,1.839,1.839,0,0,1-1.03.616,9.11,9.11,0,0,1-1.791.115h-.5V65.3h-.7Zm.7.69v2.39l1.193.014a3.115,3.115,0,0,0,1.058-.131,1.085,1.085,0,0,0,.527-.425,1.178,1.178,0,0,0,.192-.657,1.163,1.163,0,0,0-.192-.648,1.059,1.059,0,0,0-.505-.418,3.038,3.038,0,0,0-1.027-.124Z" transform="translate(-1210.286 -13528.039)" fill="#1d1d1b"/>
    <path id="Path_4393" data-name="Path 4393" d="M623.493,58.256h.7v4.253a8.813,8.813,0,0,0,.029.944,1.565,1.565,0,0,0,.244.7,1.44,1.44,0,0,0,.589.469,1.842,1.842,0,0,0,.8.189,1.577,1.577,0,0,0,.67-.149,1.49,1.49,0,0,0,.536-.412,1.68,1.68,0,0,0,.316-.637,5.269,5.269,0,0,0,.072-1.1V58.256h.7v4.253a5.189,5.189,0,0,1-.184,1.526,2.077,2.077,0,0,1-.738,1.013,2.111,2.111,0,0,1-1.339.431,2.566,2.566,0,0,1-1.461-.407,1.961,1.961,0,0,1-.814-1.078,5.707,5.707,0,0,1-.129-1.485Z" transform="translate(-1226.365 -13528.038)" fill="#1d1d1b"/>
    <path id="Path_4394" data-name="Path 4394" d="M647.755,58.257h1.4a8.494,8.494,0,0,1,1.591.1,1.816,1.816,0,0,1,1.02.616,1.759,1.759,0,0,1,.393,1.163,1.878,1.878,0,0,1-.271,1.012,1.686,1.686,0,0,1-.774.659,3.549,3.549,0,0,1-1.389.228l2.534,3.271h-.871l-2.534-3.271h-.4V65.3h-.7Zm.7.69v2.395l1.214.01a3.019,3.019,0,0,0,1.043-.134,1.085,1.085,0,0,0,.528-.429,1.193,1.193,0,0,0,.19-.659,1.144,1.144,0,0,0-.192-.644,1.07,1.07,0,0,0-.5-.414,3.066,3.066,0,0,0-1.036-.125Z" transform="translate(-1244.435 -13528.039)" fill="#1d1d1b"/>
    <path id="Path_4395" data-name="Path 4395" d="M671.994,58.257,675.28,65.3h-.761l-1.108-2.318h-3.035l-1.1,2.318h-.785l3.329-7.046Zm-.089,1.5L670.7,62.3h2.409Z" transform="translate(-1259.88 -13528.039)" fill="#1d1d1b"/>
  </g>
</svg>
