<svg xmlns="http://www.w3.org/2000/svg" width="233" height="41" viewBox="0 0 233 41">
  <g id="Logo" transform="translate(-64 -38.02)">
    <g id="Rectangle_1102" data-name="Rectangle 1102" transform="translate(64 38.02)" fill="#fff" stroke="#707070" stroke-width="1" opacity="0">
      <rect width="233" height="41" stroke="none"/>
      <rect x="0.5" y="0.5" width="232" height="40" fill="none"/>
    </g>
    <g id="Logo_-_w_-_Text" data-name="Logo - w - Text" transform="translate(64 45.642)">
      <path id="Path_4361" data-name="Path 4361" d="M102.972.774h5.659l2.183,8.473L112.981.774h5.656V14.7h-3.524V4.08L112.4,14.7h-3.19L106.5,4.08V14.7h-3.524Z" transform="translate(-71.374 -0.536)" fill="#fff"/>
      <path id="Path_4362" data-name="Path 4362" d="M165.9,12.4h-4.885l-.679,2.3h-4.394L161.177.774h4.694L171.1,14.7H166.6Zm-.893-3.011-1.537-5.006L161.95,9.39Z" transform="translate(-108.09 -0.536)" fill="#fff"/>
      <path id="Path_4363" data-name="Path 4363" d="M207.582,14.7V.774h7.172a10.421,10.421,0,0,1,3.05.342,3.25,3.25,0,0,1,1.7,1.268,3.846,3.846,0,0,1,.646,2.256,3.88,3.88,0,0,1-.494,2A3.863,3.863,0,0,1,218.3,8a5.2,5.2,0,0,1-1.511.551,4.3,4.3,0,0,1,1.12.513,4.353,4.353,0,0,1,.688.732,5.488,5.488,0,0,1,.6.865L221.28,14.7h-4.862l-2.3-4.256a3.245,3.245,0,0,0-.779-1.073,1.807,1.807,0,0,0-1.054-.323h-.38V14.7ZM211.9,6.417h1.814a6.476,6.476,0,0,0,1.14-.19,1.139,1.139,0,0,0,.7-.437,1.288,1.288,0,0,0,.271-.808,1.281,1.281,0,0,0-.427-1.035,2.588,2.588,0,0,0-1.606-.361H211.9Z" transform="translate(-143.883 -0.536)" fill="#fff"/>
      <path id="Path_4364" data-name="Path 4364" d="M263.195.774h4.294v8.3a6.983,6.983,0,0,1-.385,2.33,5.032,5.032,0,0,1-1.206,1.918,4.814,4.814,0,0,1-1.724,1.153,8.679,8.679,0,0,1-3.011.465,18.978,18.978,0,0,1-2.218-.142,5.807,5.807,0,0,1-2.009-.565,5.03,5.03,0,0,1-1.477-1.2,4.406,4.406,0,0,1-.917-1.6,8.309,8.309,0,0,1-.4-2.354V.774h4.294V9.268a2.424,2.424,0,0,0,.632,1.779,2.719,2.719,0,0,0,3.5.01,2.419,2.419,0,0,0,.632-1.789Z" transform="translate(-176.156 -0.536)" fill="#fff"/>
      <path id="Path_4365" data-name="Path 4365" d="M307.967,9.119v-2.9h6.649v5.937a13.621,13.621,0,0,1-3.377,1.772,11.469,11.469,0,0,1-3.482.47,8.462,8.462,0,0,1-4.042-.845,5.786,5.786,0,0,1-2.422-2.517,8.273,8.273,0,0,1-.86-3.838,8.013,8.013,0,0,1,.94-3.966,6.093,6.093,0,0,1,2.755-2.56A8.965,8.965,0,0,1,307.938,0a10.691,10.691,0,0,1,3.453.418,4.483,4.483,0,0,1,1.9,1.3,5.76,5.76,0,0,1,1.135,2.227l-4.152.741a2.245,2.245,0,0,0-.869-1.206,2.714,2.714,0,0,0-1.562-.418,2.817,2.817,0,0,0-2.256.983,4.734,4.734,0,0,0-.841,3.111,4.88,4.88,0,0,0,.85,3.23,2.986,2.986,0,0,0,2.37.969,4.509,4.509,0,0,0,1.377-.209,7.442,7.442,0,0,0,1.5-.713V9.119Z" transform="translate(-208.243 0)" fill="#fff"/>
      <path id="Path_4366" data-name="Path 4366" d="M358.294,12.4h-4.885l-.679,2.3h-4.394L353.57.774h4.694L363.5,14.7h-4.506ZM357.4,9.39l-1.537-5.006L354.343,9.39Z" transform="translate(-241.446 -0.536)" fill="#fff"/>
      <path id="Path_4367" data-name="Path 4367" d="M400.523.774h5.659l2.183,8.473L410.531.774h5.656V14.7h-3.524V4.08L409.948,14.7h-3.19l-2.71-10.62V14.7h-3.524Z" transform="translate(-277.619 -0.536)" fill="#fff"/>
      <path id="Path_4368" data-name="Path 4368" d="M455.92.774h11.532V3.747h-7.22V5.961h6.7V8.8h-6.7v2.745h7.428V14.7H455.92Z" transform="translate(-316.017 -0.536)" fill="#fff"/>
      <path id="Path_4369" data-name="Path 4369" d="M519.167.774h4.294v8.3a6.987,6.987,0,0,1-.385,2.33,5.039,5.039,0,0,1-1.206,1.918,4.818,4.818,0,0,1-1.724,1.153,8.682,8.682,0,0,1-3.011.465,18.975,18.975,0,0,1-2.218-.142,5.807,5.807,0,0,1-2.009-.565,5.026,5.026,0,0,1-1.477-1.2,4.413,4.413,0,0,1-.917-1.6,8.324,8.324,0,0,1-.4-2.354V.774h4.294V9.268a2.425,2.425,0,0,0,.632,1.779,2.72,2.72,0,0,0,3.5.01,2.419,2.419,0,0,0,.632-1.789Z" transform="translate(-353.581 -0.536)" fill="#fff"/>
      <path id="Path_4370" data-name="Path 4370" d="M557.691.774h6.393a7.66,7.66,0,0,1,3.054.513,4.967,4.967,0,0,1,1.923,1.472,6.094,6.094,0,0,1,1.1,2.232,10.363,10.363,0,0,1,.342,2.7A9.366,9.366,0,0,1,570,11.152a5.731,5.731,0,0,1-1.41,2.061,4.6,4.6,0,0,1-1.938,1.107,9.979,9.979,0,0,1-2.565.38h-6.393Zm4.3,3.154v7.609h1.055a4.435,4.435,0,0,0,1.918-.3,2.03,2.03,0,0,0,.893-1.045,6.564,6.564,0,0,0,.323-2.417,4.7,4.7,0,0,0-.722-3.031,3.056,3.056,0,0,0-2.394-.817Z" transform="translate(-386.558 -0.536)" fill="#fff"/>
      <path id="Path_4371" data-name="Path 4371" d="M601.567,7.21a7.177,7.177,0,0,1,1.9-5.31A7.152,7.152,0,0,1,608.758,0a7.28,7.28,0,0,1,5.357,1.867A7.037,7.037,0,0,1,616,7.1a8.576,8.576,0,0,1-.822,4,5.858,5.858,0,0,1-2.375,2.432,7.84,7.84,0,0,1-3.871.869,8.908,8.908,0,0,1-3.9-.75,5.872,5.872,0,0,1-2.5-2.375,7.887,7.887,0,0,1-.959-4.066m4.3.019a4.668,4.668,0,0,0,.784,3.03,2.966,2.966,0,0,0,4.279.019,5.152,5.152,0,0,0,.76-3.239,4.305,4.305,0,0,0-.793-2.873,2.712,2.712,0,0,0-2.152-.907,2.615,2.615,0,0,0-2.09.921,4.684,4.684,0,0,0-.788,3.049" transform="translate(-416.97 0)" fill="#fff"/>
      <path id="Path_4372" data-name="Path 4372" d="M651.544.774h4.018l5.244,7.7V.774h4.056V14.7h-4.056l-5.215-7.646V14.7h-4.047Z" transform="translate(-451.612 -0.536)" fill="#fff"/>
      <path id="Path_4373" data-name="Path 4373" d="M106.681,58.256h.847v5.719a5.621,5.621,0,0,1-.2,1.834,1.712,1.712,0,0,1-.682.824,2.093,2.093,0,0,1-1.157.308,2.7,2.7,0,0,1-1.011-.2,4.275,4.275,0,0,1-1.1-.7l.449-.674a6.623,6.623,0,0,0,1.1.656,1.4,1.4,0,0,0,.565.127,1.09,1.09,0,0,0,.661-.219,1.145,1.145,0,0,0,.415-.582,5.388,5.388,0,0,0,.118-1.405Z" transform="translate(-71.65 -40.38)" fill="#fff"/>
      <path id="Path_4374" data-name="Path 4374" d="M123.487,58.257l3.951,8.471h-.915l-1.332-2.787h-3.649l-1.32,2.787h-.945l4-8.471Zm-.107,1.8-1.451,3.066h2.9Z" transform="translate(-82.676 -40.38)" fill="#fff"/>
      <path id="Path_4375" data-name="Path 4375" d="M149.438,58.257h1.687a9.748,9.748,0,0,1,1.958.126,2.174,2.174,0,0,1,1.186.735,2.37,2.37,0,0,1,.011,2.793,2.209,2.209,0,0,1-1.238.74,10.957,10.957,0,0,1-2.154.138h-.6v3.939h-.847Zm.847.829V61.96l1.434.017a3.746,3.746,0,0,0,1.273-.158,1.306,1.306,0,0,0,.634-.512,1.416,1.416,0,0,0,.23-.79,1.4,1.4,0,0,0-.23-.779,1.273,1.273,0,0,0-.608-.5,3.651,3.651,0,0,0-1.235-.149Z" transform="translate(-103.581 -40.38)" fill="#fff"/>
      <path id="Path_4376" data-name="Path 4376" d="M170.129,58.257l3.951,8.471h-.915l-1.332-2.787h-3.649l-1.32,2.787h-.945l4-8.471Zm-.107,1.8-1.451,3.066h2.9Z" transform="translate(-115.005 -40.38)" fill="#fff"/>
      <path id="Path_4377" data-name="Path 4377" d="M196.81,66.728V58.257h.184l5.638,6.494V58.257h.835v8.471h-.19l-5.592-6.415v6.415Z" transform="translate(-136.417 -40.38)" fill="#fff"/>
      <path id="Path_4378" data-name="Path 4378" d="M224.282,58.256h4.855v.829h-4.008V61.74H229.1v.829h-3.974V65.9H229.1v.829h-4.82Z" transform="translate(-155.459 -40.38)" fill="#fff"/>
      <path id="Path_4379" data-name="Path 4379" d="M244.477,64.668l.72-.432q.76,1.4,1.756,1.4a1.682,1.682,0,0,0,.8-.2,1.409,1.409,0,0,0,.57-.533,1.38,1.38,0,0,0,.2-.709,1.436,1.436,0,0,0-.288-.835A6.9,6.9,0,0,0,246.781,62a7.417,7.417,0,0,1-1.319-1.158,2.117,2.117,0,0,1-.449-1.3,1.965,1.965,0,0,1,.265-1.008,1.893,1.893,0,0,1,.746-.717,2.149,2.149,0,0,1,1.045-.262,2.228,2.228,0,0,1,1.12.3,3.84,3.84,0,0,1,1.1,1.091l-.691.524a3.313,3.313,0,0,0-.815-.835,1.4,1.4,0,0,0-.734-.2,1.163,1.163,0,0,0-.838.311,1.018,1.018,0,0,0-.325.766,1.307,1.307,0,0,0,.115.536,1.974,1.974,0,0,0,.42.564q.167.162,1.094.847a6.168,6.168,0,0,1,1.509,1.446,2.33,2.33,0,0,1,.409,1.273,2.159,2.159,0,0,1-.7,1.6,2.352,2.352,0,0,1-1.7.68,2.5,2.5,0,0,1-1.4-.412,3.762,3.762,0,0,1-1.157-1.379" transform="translate(-169.457 -39.899)" fill="#fff"/>
      <path id="Path_4380" data-name="Path 4380" d="M265.53,58.256h4.855v.829h-4.008V61.74h3.974v.829h-3.974V65.9h3.974v.829h-4.82Z" transform="translate(-184.049 -40.38)" fill="#fff"/>
      <path id="Path_4381" data-name="Path 4381" d="M296.777,66.728V58.257h.184l5.638,6.494V58.257h.835v8.471h-.19l-5.592-6.415v6.415Z" transform="translate(-205.708 -40.38)" fill="#fff"/>
      <path id="Path_4382" data-name="Path 4382" d="M328.379,57.562a4.4,4.4,0,0,1,3.221,1.284,4.453,4.453,0,0,1-3.152,7.613,4.337,4.337,0,0,1-3.181-1.29,4.24,4.24,0,0,1-1.3-3.121,4.509,4.509,0,0,1,.591-2.263,4.361,4.361,0,0,1,3.818-2.223m.037.824a3.489,3.489,0,0,0-1.783.49,3.524,3.524,0,0,0-1.315,1.32,3.673,3.673,0,0,0-.473,1.85,3.563,3.563,0,0,0,3.571,3.591,3.623,3.623,0,0,0,1.825-.478,3.429,3.429,0,0,0,1.31-1.308,3.679,3.679,0,0,0,.47-1.845,3.587,3.587,0,0,0-.47-1.824,3.511,3.511,0,0,0-1.324-1.305,3.579,3.579,0,0,0-1.811-.49" transform="translate(-224.557 -39.899)" fill="#fff"/>
      <path id="Path_4383" data-name="Path 4383" d="M361.785,57.562a4.394,4.394,0,0,1,3.221,1.284,4.453,4.453,0,0,1-3.152,7.613,4.337,4.337,0,0,1-3.181-1.29,4.24,4.24,0,0,1-1.3-3.121,4.509,4.509,0,0,1,.591-2.263,4.362,4.362,0,0,1,3.818-2.223m.037.824a3.489,3.489,0,0,0-1.783.49,3.527,3.527,0,0,0-1.315,1.32,3.673,3.673,0,0,0-.473,1.85,3.564,3.564,0,0,0,3.571,3.591,3.624,3.624,0,0,0,1.825-.478,3.43,3.43,0,0,0,1.309-1.308,3.678,3.678,0,0,0,.47-1.845,3.586,3.586,0,0,0-.47-1.824,3.509,3.509,0,0,0-1.324-1.305,3.58,3.58,0,0,0-1.811-.49" transform="translate(-247.712 -39.899)" fill="#fff"/>
      <path id="Path_4384" data-name="Path 4384" d="M392,66.728V58.257h1.756a8.973,8.973,0,0,1,2.759.305,3.69,3.69,0,0,1,1.926,1.5,4.548,4.548,0,0,1,.694,2.54,4.451,4.451,0,0,1-.55,2.24,3.523,3.523,0,0,1-1.428,1.428,5.377,5.377,0,0,1-2.462.461Zm.812-.8h.979a9.114,9.114,0,0,0,2.436-.219,2.81,2.81,0,0,0,1.5-1.119,3.446,3.446,0,0,0,.547-1.977,3.627,3.627,0,0,0-.593-2.095,2.987,2.987,0,0,0-1.653-1.191,9.992,9.992,0,0,0-2.62-.242h-.6Z" transform="translate(-271.713 -40.38)" fill="#fff"/>
      <path id="Path_4385" data-name="Path 4385" d="M419.643,58.256h.847V65.91h3.259v.818h-4.106Z" transform="translate(-290.872 -40.38)" fill="#fff"/>
      <path id="Path_4386" data-name="Path 4386" d="M437.415,58.256h4.855v.829h-4.008V61.74h3.973v.829h-3.973V65.9h3.973v.829h-4.82Z" transform="translate(-303.19 -40.38)" fill="#fff"/>
      <path id="Path_4387" data-name="Path 4387" d="M457.073,64.668l.72-.432q.76,1.4,1.756,1.4a1.683,1.683,0,0,0,.8-.2,1.409,1.409,0,0,0,.57-.533,1.378,1.378,0,0,0,.2-.709,1.439,1.439,0,0,0-.288-.835A6.9,6.9,0,0,0,459.377,62a7.432,7.432,0,0,1-1.319-1.158,2.118,2.118,0,0,1-.449-1.3,1.967,1.967,0,0,1,.265-1.008,1.893,1.893,0,0,1,.746-.717,2.149,2.149,0,0,1,1.045-.262,2.23,2.23,0,0,1,1.12.3,3.84,3.84,0,0,1,1.1,1.091l-.691.524a3.319,3.319,0,0,0-.815-.835,1.4,1.4,0,0,0-.734-.2,1.164,1.164,0,0,0-.838.311,1.018,1.018,0,0,0-.325.766,1.3,1.3,0,0,0,.115.536,1.973,1.973,0,0,0,.42.564q.167.162,1.094.847a6.157,6.157,0,0,1,1.509,1.446,2.33,2.33,0,0,1,.409,1.273,2.159,2.159,0,0,1-.7,1.6,2.35,2.35,0,0,1-1.7.68,2.5,2.5,0,0,1-1.4-.412,3.759,3.759,0,0,1-1.158-1.379" transform="translate(-316.816 -39.899)" fill="#fff"/>
      <path id="Path_4388" data-name="Path 4388" d="M496.118,64.284l.574.608a13.113,13.113,0,0,1-1.049.845q.346.319.9.874.439.436.754.806h-1.181l-1.124-1.158a7.265,7.265,0,0,1-1.721,1.112,3.808,3.808,0,0,1-1.4.259,2.194,2.194,0,0,1-1.572-.562,1.852,1.852,0,0,1-.593-1.4,2.372,2.372,0,0,1,.4-1.27,7.436,7.436,0,0,1,1.632-1.61,7.651,7.651,0,0,1-.894-1.241,1.715,1.715,0,0,1-.2-.763,1.314,1.314,0,0,1,.49-1.048,2.083,2.083,0,0,1,1.405-.484,2.18,2.18,0,0,1,.967.213,1.6,1.6,0,0,1,.668.573,1.4,1.4,0,0,1,.23.763,1.731,1.731,0,0,1-.3.907,6.072,6.072,0,0,1-1.182,1.229l1.284,1.348.841.853a13.213,13.213,0,0,0,1.067-.853m-3.82-.86a6.856,6.856,0,0,0-1.414,1.293,1.59,1.59,0,0,0-.335.891,1.126,1.126,0,0,0,.41.856,1.439,1.439,0,0,0,1,.372,2.236,2.236,0,0,0,.883-.184,7.14,7.14,0,0,0,1.561-1l-1.336-1.377q-.346-.363-.772-.852m.1-1.121a4.244,4.244,0,0,0,.929-.939,1.087,1.087,0,0,0,.219-.582.62.62,0,0,0-.286-.507,1.242,1.242,0,0,0-.76-.213,1.166,1.166,0,0,0-.733.219.643.643,0,0,0-.283.519.854.854,0,0,0,.116.432,6.828,6.828,0,0,0,.8,1.071" transform="translate(-339.437 -41.069)" fill="#fff"/>
      <path id="Path_4389" data-name="Path 4389" d="M526.7,59.086v-.829h4.642v.829h-1.889v7.642h-.864V59.086Z" transform="translate(-365.076 -40.38)" fill="#fff"/>
      <path id="Path_4390" data-name="Path 4390" d="M546.513,58.256h4.855v.829H547.36V61.74h3.974v.829H547.36V65.9h3.974v.829h-4.82Z" transform="translate(-378.81 -40.38)" fill="#fff"/>
      <path id="Path_4391" data-name="Path 4391" d="M566.305,66.728l1.213-8.471h.138l3.444,6.951,3.411-6.951h.136l1.219,8.471h-.83L574.2,60.67l-3,6.058h-.216l-3.031-6.1-.832,6.1Z" transform="translate(-392.529 -40.38)" fill="#fff"/>
      <path id="Path_4392" data-name="Path 4392" d="M601.9,58.257h1.687a9.748,9.748,0,0,1,1.958.126,2.174,2.174,0,0,1,1.186.735,2.37,2.37,0,0,1,.012,2.793,2.21,2.21,0,0,1-1.238.74,10.953,10.953,0,0,1-2.154.138h-.605v3.939H601.9Zm.846.829V61.96l1.434.017a3.745,3.745,0,0,0,1.272-.158,1.3,1.3,0,0,0,.634-.512,1.415,1.415,0,0,0,.23-.79,1.4,1.4,0,0,0-.23-.779,1.272,1.272,0,0,0-.608-.5,3.652,3.652,0,0,0-1.235-.149Z" transform="translate(-417.203 -40.38)" fill="#fff"/>
      <path id="Path_4393" data-name="Path 4393" d="M623.493,58.256h.847V63.37a10.6,10.6,0,0,0,.034,1.134,1.883,1.883,0,0,0,.294.838,1.732,1.732,0,0,0,.709.564,2.214,2.214,0,0,0,.962.228,1.9,1.9,0,0,0,.806-.179,1.791,1.791,0,0,0,.645-.5,2.021,2.021,0,0,0,.38-.766,6.342,6.342,0,0,0,.086-1.324V58.256h.846V63.37a6.24,6.24,0,0,1-.222,1.834,2.5,2.5,0,0,1-.887,1.218,2.538,2.538,0,0,1-1.61.519,3.085,3.085,0,0,1-1.757-.489,2.358,2.358,0,0,1-.979-1.3,6.862,6.862,0,0,1-.156-1.785Z" transform="translate(-432.168 -40.38)" fill="#fff"/>
      <path id="Path_4394" data-name="Path 4394" d="M647.755,58.257h1.687a10.211,10.211,0,0,1,1.912.115,2.183,2.183,0,0,1,1.226.741,2.114,2.114,0,0,1,.472,1.4,2.257,2.257,0,0,1-.326,1.216,2.027,2.027,0,0,1-.93.793,4.266,4.266,0,0,1-1.67.274l3.046,3.933h-1.047l-3.047-3.933H648.6v3.933h-.847Zm.847.829v2.88l1.459.012a3.63,3.63,0,0,0,1.254-.161,1.3,1.3,0,0,0,.634-.515,1.435,1.435,0,0,0,.228-.792,1.375,1.375,0,0,0-.231-.775,1.286,1.286,0,0,0-.605-.5,3.687,3.687,0,0,0-1.246-.15Z" transform="translate(-448.985 -40.38)" fill="#fff"/>
      <path id="Path_4395" data-name="Path 4395" d="M672.7,58.257l3.951,8.471h-.914l-1.333-2.787h-3.649l-1.32,2.787h-.944l4-8.471Zm-.107,1.8-1.451,3.066h2.9Z" transform="translate(-463.36 -40.38)" fill="#fff"/>
      <path id="Path_4396" data-name="Path 4396" d="M25.866,9.669s.275-5.048.3-6.019a6.446,6.446,0,0,0-.259-1.936,2.936,2.936,0,0,0-2.2-1.32c-1.205,0-6.557.18-6.557.18s-2.193.2-3.157.227c-1.792-.03-5-.333-5-.333S4.043.423,3.425.472A14.062,14.062,0,0,0,1.009.928,2.9,2.9,0,0,0,.036,3.246c0,.505.116,5.176.234,6.76,0,1.836.024,5.637.024,5.637A24.972,24.972,0,0,0,0,18.3c.026,2.56.067,5.325.115,5.871a2.965,2.965,0,0,0,.86,1.941,5.905,5.905,0,0,0,2.338.4c.407,0,5.289.108,8.149-.123a41.317,41.317,0,0,1,4.68-.187,53.124,53.124,0,0,0,7.668.31,3.11,3.11,0,0,0,1.829-.956,7.309,7.309,0,0,0,.45-1.834c.087-.58.054-3.05.035-6.143-.015-2.424-.258-7.915-.258-7.915" transform="translate(0 -0.273)" fill="#c52433"/>
      <path id="Path_4397" data-name="Path 4397" d="M17.292,16.436a1.031,1.031,0,0,1-.559.859,1.8,1.8,0,0,1-.977.311,2.73,2.73,0,0,1-.761-.168,3.445,3.445,0,0,1-2.059-1.672,3.692,3.692,0,0,1-.488-1.838,13.991,13.991,0,0,1,.189-2.425,2.932,2.932,0,0,0-.964-.124,3.963,3.963,0,0,0-.62.049,9.239,9.239,0,0,1-.654,1.991A4.815,4.815,0,0,1,11.433,16.1a1.007,1.007,0,0,1-.2.635q-.392,0-.774-.8-.215-.423-.344-.621a1.809,1.809,0,0,0-.5-.5,11.572,11.572,0,0,1-1.141,1.741,2.826,2.826,0,0,1-1.716,1.056c-.811-.206-1.214-.525-1.214-.956,0-.338.274-.576.819-.708a5.086,5.086,0,0,0,1.406-.51,2.3,2.3,0,0,0,.893-1.268,1.312,1.312,0,0,0-.167-.012,1.059,1.059,0,0,0-1.036.523q-.559-.14-.558-1.008a.743.743,0,0,1,.524-.758,2.893,2.893,0,0,1,.953-.112,3.006,3.006,0,0,1,.821.135,4.746,4.746,0,0,0,.546-1.416,1.19,1.19,0,0,0-.321-.035,4.071,4.071,0,0,0-1.988.656q-.346-.211-.346-1.057a2.334,2.334,0,0,1,.022-.334,2.767,2.767,0,0,1,1.134-.436c.4-.066.8-.129,1.2-.186.119-.026.3-.053.548-.087a3.361,3.361,0,0,1,.035-.41.6.6,0,0,0-.084-.249L9.9,9.275c-.054-.1-.114-.218-.178-.36a.841.841,0,0,1,.322-.454,1.126,1.126,0,0,1,.524-.244,1.438,1.438,0,0,1,.833.958,1.815,1.815,0,0,0-.31.772c.31-.016.6-.024.88-.024a6.365,6.365,0,0,1,1.322.124,1.145,1.145,0,0,0,.321-.324A.556.556,0,0,1,14,9.487a2.748,2.748,0,0,1,.572.41,1.173,1.173,0,0,1,.392.585,2.361,2.361,0,0,1-.577.622,2.381,2.381,0,0,0-.637.746,2.805,2.805,0,0,0-.214.958c-.008.155-.025.409-.048.758-.025.224-.036.311-.036.261q0,.884,1.238,1.467.311.148,1.978.672a1.094,1.094,0,0,1,.618.471" transform="translate(-3.841 -5.696)" fill="#fff"/>
      <path id="Path_4398" data-name="Path 4398" d="M53.368,11.228c-.195,0-.477.009-.852.019h-.767v-.384h1.364a3.5,3.5,0,0,1,1,.1l.036.5a1.012,1.012,0,0,0-.781-.232m2.471,5.353a7.63,7.63,0,0,0-.769.077c-1.071.126-1.8.187-2.168.187a2.724,2.724,0,0,1-.735-.1c-.334-.088-.5-.221-.5-.4l.072-.033a4.941,4.941,0,0,1,.873-.043h1.224a5.989,5.989,0,0,1,1.178.1,1.5,1.5,0,0,0,.59-.614,1.69,1.69,0,0,0,.226-.805,2.859,2.859,0,0,0-.034-.375,2.658,2.658,0,0,1-.036-.365.857.857,0,0,1,.081-.294.841.841,0,0,0,.083-.315l-.537-.322a.82.82,0,0,0-.583.2,12.77,12.77,0,0,0-2.425-.166,6.177,6.177,0,0,0-.628.024v-.289c.521-.009.965-.011,1.479-.011a4.186,4.186,0,0,0,1.468-.212,1.432,1.432,0,0,0,.351-.271.536.536,0,0,0,.2-.337c0-.1-.007-.281-.023-.553-.007-.245-.011-.436-.011-.577a2.32,2.32,0,0,1,.08-.554.721.721,0,0,0-.244-.254.863.863,0,0,0-.338-.166,2.35,2.35,0,0,0-.419.233,8.028,8.028,0,0,0-1.48-.145q-.421,0-.991.044a7.115,7.115,0,0,1,.9-.5c.165-.1.288-.169.374-.222l.011-.089c0-.2-.209-.458-.629-.775V8.415a1.493,1.493,0,0,0-.49-.266A1.741,1.741,0,0,0,51.445,8a.789.789,0,0,0-.455.1c-.249.176-.432.312-.547.408a5.963,5.963,0,0,1-2.123.776c-.233.022-.469.045-.711.066a1.169,1.169,0,0,0-.618.272.817.817,0,0,0-.245.415.592.592,0,0,0,.28.343h.349a4.773,4.773,0,0,0,.537-.033.834.834,0,0,0-.373.411c.086.242.153.434.2.575a5.36,5.36,0,0,0-.186,1.528c.007.022.024.082.046.177l.059.187a.39.39,0,0,0,.117.024,1.819,1.819,0,0,0,.421-.068c.216-.058.353-.091.407-.1a12.591,12.591,0,0,1,1.9-.133v.365c-.933.06-1.5.1-1.76.111q-1.014.034-1.528.055l-.313-.11a.447.447,0,0,0-.263.2.557.557,0,0,0-.133.305,1.257,1.257,0,0,0,.062.332,1.168,1.168,0,0,1,.065.332c0,.184-.011.472-.035.865,0,.073-.012.242-.034.509-.023.214-.036.385-.036.509a.435.435,0,0,0,.151.26.409.409,0,0,0,.269.16,1.256,1.256,0,0,0,.384-.165,2.758,2.758,0,0,1,.385-.188q.511-.055.781-.054c.653-.03,1.3-.057,2-.078a1.812,1.812,0,0,0,.117.531c.3.784,1.517,1.175,3.568,1.175a3.246,3.246,0,0,0,1.411-.267,2.172,2.172,0,0,0,.979-.975c-.11-.17-.353-.253-.736-.253m-4.089-4.249v-.406l1.665.033a.915.915,0,0,0,.734-.356l.07.677c-.529-.022-1.351,0-2.54.052M50.547,10.2c-.941.089-1.644.162-2.11.221l-.2-.12A8.829,8.829,0,0,0,50.1,9.7q1.225-.566,1.283-.587l.141.223c-.568.486-.9.775-.979.863m1.2,4.151V13.99a1.91,1.91,0,0,1,.488-.067,9.261,9.261,0,0,1,2.308.36v.211c-1.291-.1-2.223-.145-2.868-.145m-3.018-2.8.046-.481a15.325,15.325,0,0,0,1.794-.25v.366a5.731,5.731,0,0,0-1.875.365m5.688,3.98c-.226,0-.566-.007-1.019-.027s-.8-.025-1.021-.025a2.041,2.041,0,0,0-.523.052v-.486l.358-.021c.406,0,1.012.033,1.819.09a3.243,3.243,0,0,1,.618-.418l.023.818a1.315,1.315,0,0,1-.257.016m-4.652-3.2a7.317,7.317,0,0,0-1.117.2l.035-.356a7.26,7.26,0,0,1,1.921-.168v.269c-.382.034-.636.052-.839.052m-2.037,2.419.047-.4a10.419,10.419,0,0,1,2.829-.3v.362a11.07,11.07,0,0,0-2.984.338m2.413.838c-.194,0-.93.108-2.422.325l.07-.545a18.72,18.72,0,0,1,2.923-.181v.435a4.693,4.693,0,0,0-.571-.035" transform="translate(-32.232 -5.548)" fill="#fff"/>
      <path id="Path_4399" data-name="Path 4399" d="M53.137,51.9a2.909,2.909,0,0,1-.453-.034c-.029-.519-.044-1.022-.044-1.514s.008-.866.021-1.1l.131-.206a.989.989,0,0,1,.314.034c.022.843.031,1.51.031,2Zm.109-5.432a13.116,13.116,0,0,0-1.352-.076,15.807,15.807,0,0,0-2.792.163l-.292-.044a1.75,1.75,0,0,0-.205.26,2.126,2.126,0,0,0-.779-.1c-.173,0-.343,0-.58.012a1.2,1.2,0,0,0,.02-.217.936.936,0,0,0-.031-.255c-.022-.075-.165-.157-.361-.242a2.033,2.033,0,0,0-.432-.13c-.331.1-.534.216-.534.346a.679.679,0,0,0,.093.254.689.689,0,0,1,.091.266.192.192,0,0,1-.011.055c-.7.086-1.006.129-.991.129a1.553,1.553,0,0,1-.183-.015,1.4,1.4,0,0,0-.184-.018.184.184,0,0,0-.12.045,1.294,1.294,0,0,0-.152.487c0,.159.076.158.227.289a10.7,10.7,0,0,1,1.4-.315v.363c-.426.088-.818.182-1.252.283a.75.75,0,0,0-.118.408c0,.209.053.434.173.36a2.492,2.492,0,0,1,1.2-.346v.353a7.31,7.31,0,0,0-1.544.443l-.129-.031c-.079-.015-.123-.022-.13-.022a.371.371,0,0,0-.379.314c-.014.187-.033.372-.055.551l.184.411a7.383,7.383,0,0,1,2.423-.812,2.588,2.588,0,0,0-.529.292v.27a3.586,3.586,0,0,1-1.038.952c-.03.022-.169.095-.423.216a1.836,1.836,0,0,0-.39.248.329.329,0,0,0-.129.228.351.351,0,0,0,.2.3.7.7,0,0,0,.362.125,1.869,1.869,0,0,0,.628-.195l.378.207a.839.839,0,0,1,.3.313,3.533,3.533,0,0,1-.736.634,2.907,2.907,0,0,1-.508.221q-.314.087-.616.173a.554.554,0,0,0-.358.5.734.734,0,0,0,.358.411.99.99,0,0,0,.518.141,1.927,1.927,0,0,0,1.2-.6c.108-.1.437-.443.985-1.026a10.358,10.358,0,0,0,2.25,1.242,16.626,16.626,0,0,0,2.51.692,13.956,13.956,0,0,0,1.525.27,8.423,8.423,0,0,0,.823-.714,2.41,2.41,0,0,0,.638-.821c-.094-.109-.389-.162-.887-.162a24.133,24.133,0,0,1-2.575-.108q-.911-.154-1.353-.238a3.07,3.07,0,0,1,1.58-.41,7.445,7.445,0,0,1,2.066.313.9.9,0,0,0,.369-.271.918.918,0,0,1,.238-.227A8.365,8.365,0,0,0,53.9,51.5c0-.247-.01-.615-.033-1.106s-.032-.858-.032-1.1a1.24,1.24,0,0,1,.226-.6,1.362,1.362,0,0,0-.34-.438,1.236,1.236,0,0,0-.461-.286c-.093.051-.2.115-.314.195-.332-.08-.7-.155-1.113-.229a1.343,1.343,0,0,1-.034-.3,1.227,1.227,0,0,1,.034-.292,2.138,2.138,0,0,1,.215-.011,3.37,3.37,0,0,1,1.635.454,1.459,1.459,0,0,0,.529-.427,1.347,1.347,0,0,0,.325-.59,3.521,3.521,0,0,0-1.287-.3m-2.239,2.976v-.477a3.56,3.56,0,0,1,.552-.043,3.269,3.269,0,0,1,.39.022v.475c-.326,0-.639.008-.942.023m0,1.234V50.2a4.636,4.636,0,0,1,.616-.042c.11,0,.217,0,.326.01v.454a8.1,8.1,0,0,0-.942.055m0,1.168v-.553a4,4,0,0,1,.508-.032q.217,0,.434.022V51.8c-.326,0-.639.015-.942.044m-.789-.011a1,1,0,0,1-.552.139q.02-1.179.151-2.812a.586.586,0,0,1,.356-.1l.107.087c.015.172.023.378.023.616q0,1.029-.085,2.067m-.509-3.517-.215-.207a1.752,1.752,0,0,0-.683.315v.064a1.072,1.072,0,0,0,.195.563v.141a14.209,14.209,0,0,1-.075,1.666c-.066.764-.1,1.317-.1,1.656a.854.854,0,0,0,.141.54,7.553,7.553,0,0,1-1.786-.768,2.546,2.546,0,0,1,.541-.747c.116-.1.23-.2.347-.292.165-.153.249-.267.249-.347,0-.273-.185-.472-.552-.594a2.406,2.406,0,0,1-.411.043.732.732,0,0,1-.239-.033l.088-.227a.638.638,0,0,0-.271-.259,1.369,1.369,0,0,1-.281-.185.817.817,0,0,0-.12-.011c.1-.007.2-.009.292-.009a2.767,2.767,0,0,1,.59.091,2.718,2.718,0,0,0,.589.091c.129,0,.276-.112.438-.341a.968.968,0,0,0,.234-.546v-.066a5.362,5.362,0,0,0-1.718-.129v-.292c.2.014.315.021.408.021a1.246,1.246,0,0,0,.65-.083.55.55,0,0,0,.291-.5,4,4,0,0,0-1.142-.183l-.012-.309a.6.6,0,0,1,.106-.011,2.786,2.786,0,0,1,.313.027,2.384,2.384,0,0,0,.313.028c.275,0,.486-.015.639-.332a1.254,1.254,0,0,0,.119.465.56.56,0,0,0,.3.345,1.8,1.8,0,0,1,.941-.507,9.311,9.311,0,0,1,1.072-.076,3.643,3.643,0,0,1,.053.66c-.49.122-.928.234-1.309.335m-3.258,3.548-.54-.356a4.171,4.171,0,0,0,.638-.715,2.023,2.023,0,0,0,.422.337,4.7,4.7,0,0,1-.52.734" transform="translate(-30.217 -31.771)" fill="#fff"/>
      <path id="Path_4400" data-name="Path 4400" d="M16.634,54.538c-.056-.065-.246-.182-1.257-.442a10.192,10.192,0,0,1-1.414-.439l-1-.443.392-.158a.457.457,0,0,0,.343-.428l-.034-.144-.029-.105.494.092c.563.132.974.214,1.22.243l.01,0,.01,0c.786-.384,1.168-.73,1.168-1.056v-.014l-.01-.01a.594.594,0,0,0-.174-.106,8.457,8.457,0,0,0-2.327-.354c-.335-.02-.678-.035-1.023-.048-.524-.019-1.055-.03-1.6-.031,0,0-.007-.006-.017-.008a.959.959,0,0,0-.145-.453,1.576,1.576,0,0,0,.045-.468v-.2l-.331-.259-.3.046q-.2,0-.548-.034c-.284-.025-.442-.037-.527-.046v-.374h.066a2.893,2.893,0,0,1,.582.058,2.463,2.463,0,0,0,.559.043.716.716,0,0,0,.489-.184.8.8,0,0,0,.287-.457c-.082-.094-.4-.129-.953-.176-.264-.023-.577-.028-1.029-.028V48.2a1.063,1.063,0,0,1,.254-.028,8.363,8.363,0,0,1,.944.065c.135-.065.258-.26.374-.636.045-.171.112-.373.185-.75-.019-.087-.1-.159-.247-.211-.191-.091-.3-.135-.312-.144a1.009,1.009,0,0,0-.562.365.791.791,0,0,0,.036.135,1.756,1.756,0,0,1,.1.34v.1c-.309-.041-.54-.062-.771-.077a1.265,1.265,0,0,1,.2-.626.486.486,0,0,0-.235-.329c-.023-.016-.141-.076-.346-.179a1.453,1.453,0,0,0-.73.313v.048a.578.578,0,0,0,.071.311.862.862,0,0,1,.1.27c0,.01-.008.1-.017.26a4.977,4.977,0,0,0-.723.123v-.077a3.462,3.462,0,0,1,.11-.676.873.873,0,0,0-.607-.281.785.785,0,0,0-.419.256,1.568,1.568,0,0,1,.126.573,1.617,1.617,0,0,1-.16.566.7.7,0,0,0,.3.525,2.252,2.252,0,0,1,1.325-.219v.319a16.9,16.9,0,0,0-2,.268.818.818,0,0,0-.256.505,1.049,1.049,0,0,0,.132.354,7.441,7.441,0,0,1,2.12-.375V49.7l-.944.177a5.738,5.738,0,0,0-.574-.091l-.413.259a1.722,1.722,0,0,0,.087.427c-.039.375-.056.459-.056.462a1.229,1.229,0,0,0,.239.645l-.056.014c-.187.045-.357.091-.5.138a1.8,1.8,0,0,0-.49-.076H5.867l-.011.013a1.426,1.426,0,0,0-.195.441,1.759,1.759,0,0,0-.091.484.739.739,0,0,0,.116.369.205.205,0,0,0,.114.1.3.3,0,0,0,.22.106A3.094,3.094,0,0,1,7.354,52.6a10.424,10.424,0,0,1,1.156-.21,3.368,3.368,0,0,1-.988.684l-.723.165c-.35.1-.54.222-.605.366l0,.014a.676.676,0,0,0,.328.545,1.111,1.111,0,0,0,.641.3A2.122,2.122,0,0,0,8.18,54c0,.058.014.149.014.149a2.6,2.6,0,0,1-.073.585.275.275,0,0,1-.065.171c-.094.08-.156.153-.156.243a.481.481,0,0,0,.5.544.666.666,0,0,0,.39-.172,2.278,2.278,0,0,1,.632-.291,8.943,8.943,0,0,1,1.545-.268.488.488,0,0,0,.493-.505.373.373,0,0,0-.411-.393,10.569,10.569,0,0,0-1.892.32,7.522,7.522,0,0,0,.05-.917,1.227,1.227,0,0,0-.046-.228l.16-.122,0-.007a.352.352,0,0,0,.048-.182,1.246,1.246,0,0,0-.3-.6c.118-.006,2-.055,2-.055.578-.026,1.191-.007,1.518.006a14.388,14.388,0,0,1-1.752.76.442.442,0,0,0-.29.357.393.393,0,0,0,.447.381,2.166,2.166,0,0,0,.8-.177l.051.029a4.723,4.723,0,0,1,.719.393,6.971,6.971,0,0,1,.723.438l.272.189.674.48a7.842,7.842,0,0,0,1,.631l.013.006.014,0a1.978,1.978,0,0,0,1.383-1.192l.005-.016ZM9.587,50.409a4.267,4.267,0,0,1,.866.08,1.1,1.1,0,0,1-.163.336l.075.28c-.031,0-.048.009-.047.014l-.085.008-.14.012-.56.05c.028-.343.044-.6.053-.779m-1,.032a2.162,2.162,0,0,0,.048.81c-.589.083-1.02.169-1.417.258a2.3,2.3,0,0,0,.344-.944,7.447,7.447,0,0,1,1.026-.125" transform="translate(-3.861 -32.037)" fill="#fff"/>
      <path id="Path_4401" data-name="Path 4401" d="M22.474,69.546l0-.014c0-.01,0-.018,0-.028Z" transform="translate(-15.578 -48.176)" fill="#fff"/>
      <path id="Path_4402" data-name="Path 4402" d="M26.881,50.8l-.007.012,0,.013c.16.445.784.613,1.8.613a2.8,2.8,0,0,0,.424-.022,1.242,1.242,0,0,0,.623-.343,1.1,1.1,0,0,0,.38-.6,6.245,6.245,0,0,0,.022-.694l-.011-.53c-.007-.308-.007-.555,0-.733a1.574,1.574,0,0,1,.041-.441,1.6,1.6,0,0,0,.234-.573l0-.018-.014-.012a1.579,1.579,0,0,0-.86-.45,2.146,2.146,0,0,0-.543.219l-.023.01.17.922h0c0,.031.011.815.011.815l.011.832a.533.533,0,0,1-.314.49,1.249,1.249,0,0,1-.645.158l-.241-.011h-.277c-.409,0-.675.116-.79.343" transform="translate(-18.627 -32.591)" fill="#fff"/>
      <path id="Path_4403" data-name="Path 4403" d="M26.334,49.033v.751a1.21,1.21,0,0,0,.174.718l.01.012h.015c.341,0,.56-.258.651-.767a4.193,4.193,0,0,0,.044-1.178,1.667,1.667,0,0,0-.283-.864L26.94,47.7l-.328-.132a.441.441,0,0,0-.359.215.654.654,0,0,0-.161.383,1.15,1.15,0,0,0,.124.367,1.225,1.225,0,0,1,.118.5" transform="translate(-18.085 -32.969)" fill="#fff"/>
    </g>
  </g>
</svg>
