<svg id="Nav_expand_logo_mobile" data-name="Nav expand logo mobile" xmlns="http://www.w3.org/2000/svg" width="48" height="48" viewBox="0 0 48 48">
  <g id="Group_911" data-name="Group 911" transform="translate(0 0)">
    <path id="Path_4396" data-name="Path 4396" d="M47.448,17.407s.5-9.259.551-11.041a11.825,11.825,0,0,0-.475-3.551A5.386,5.386,0,0,0,43.485.394C41.274.4,31.458.725,31.458.725s-4.024.369-5.79.416C22.38,1.086,16.5.53,16.5.53S7.418.446,6.282.536a25.8,25.8,0,0,0-4.431.838A5.326,5.326,0,0,0,.067,5.626c0,.927.212,9.494.429,12.4C.488,21.394.541,28.367.541,28.367A45.809,45.809,0,0,0,0,33.24c.048,4.7.123,9.768.211,10.77a5.439,5.439,0,0,0,1.578,3.561,10.833,10.833,0,0,0,4.288.741c.747,0,9.7.2,14.948-.225a75.791,75.791,0,0,1,8.585-.343,97.451,97.451,0,0,0,14.066.569,5.706,5.706,0,0,0,3.356-1.754,13.407,13.407,0,0,0,.826-3.364c.16-1.063.1-5.594.064-11.268-.028-4.446-.473-14.52-.473-14.52" transform="translate(0 -0.394)"/>
    <g id="Group_910" data-name="Group 910" transform="translate(2.742 3.763)">
      <path id="Path_4397" data-name="Path 4397" d="M27.5,23.714a1.945,1.945,0,0,1-1.046,1.619,3.342,3.342,0,0,1-1.826.586,5.065,5.065,0,0,1-1.422-.317,6.443,6.443,0,0,1-3.849-3.153,7.01,7.01,0,0,1-.912-3.467,26.611,26.611,0,0,1,.353-4.573,5.435,5.435,0,0,0-1.8-.234,7.343,7.343,0,0,0-1.159.093,17.532,17.532,0,0,1-1.223,3.754,9.127,9.127,0,0,1,1.935,5.06,1.911,1.911,0,0,1-.376,1.2q-.732,0-1.446-1.5-.4-.8-.642-1.172a3.4,3.4,0,0,0-.938-.939,21.839,21.839,0,0,1-2.132,3.283A5.274,5.274,0,0,1,7.81,25.94c-1.516-.389-2.268-.991-2.268-1.8,0-.638.513-1.087,1.531-1.335A9.454,9.454,0,0,0,9.7,21.84a4.339,4.339,0,0,0,1.669-2.392,2.431,2.431,0,0,0-.313-.022,1.975,1.975,0,0,0-1.937.987q-1.044-.264-1.044-1.9a1.4,1.4,0,0,1,.979-1.429,5.362,5.362,0,0,1,1.782-.212,5.572,5.572,0,0,1,1.534.255,9,9,0,0,0,1.02-2.671,2.206,2.206,0,0,0-.6-.066,7.563,7.563,0,0,0-3.715,1.238q-.646-.4-.646-1.993A4.44,4.44,0,0,1,8.475,13a5.146,5.146,0,0,1,2.119-.822c.742-.124,1.491-.242,2.245-.35.223-.049.564-.1,1.025-.165a6.392,6.392,0,0,1,.065-.774,1.128,1.128,0,0,0-.157-.47l-.089-.211c-.1-.188-.213-.411-.332-.679a1.586,1.586,0,0,1,.6-.856,2.1,2.1,0,0,1,.98-.459,2.7,2.7,0,0,1,1.556,1.806,3.441,3.441,0,0,0-.579,1.455c.579-.031,1.13-.046,1.646-.046a11.8,11.8,0,0,1,2.471.233,2.149,2.149,0,0,0,.6-.61,1.037,1.037,0,0,1,.735-.446,5.138,5.138,0,0,1,1.07.772,2.214,2.214,0,0,1,.733,1.1,4.439,4.439,0,0,1-1.078,1.173,4.481,4.481,0,0,0-1.19,1.407,5.329,5.329,0,0,0-.4,1.806c-.015.293-.046.771-.089,1.429-.046.423-.068.587-.068.491q0,1.666,2.315,2.767.582.279,3.7,1.267a2.048,2.048,0,0,1,1.155.888" transform="translate(-5.542 -8.094)" fill="#fff"/>
      <path id="Path_4398" data-name="Path 4398" d="M59.334,14.083c-.364,0-.891.017-1.592.036H56.31V13.4h2.549a6.479,6.479,0,0,1,1.869.18l.067.945a1.882,1.882,0,0,0-1.46-.437m4.618,10.093a14.139,14.139,0,0,0-1.437.146c-2,.237-3.356.353-4.053.353a5.049,5.049,0,0,1-1.373-.187c-.623-.166-.938-.416-.938-.755l.134-.062a9.154,9.154,0,0,1,1.631-.08h2.287a11.1,11.1,0,0,1,2.2.187,2.813,2.813,0,0,0,1.1-1.158,3.208,3.208,0,0,0,.422-1.518,5.437,5.437,0,0,0-.064-.708A5.057,5.057,0,0,1,63.8,19.7a1.628,1.628,0,0,1,.151-.554,1.6,1.6,0,0,0,.154-.595l-1-.606a1.524,1.524,0,0,0-1.089.377,23.662,23.662,0,0,0-4.532-.314,11.445,11.445,0,0,0-1.173.045v-.546c.974-.016,1.8-.021,2.764-.021a7.761,7.761,0,0,0,2.744-.4,2.679,2.679,0,0,0,.656-.51,1.014,1.014,0,0,0,.369-.636c0-.182-.013-.53-.044-1.043-.013-.461-.02-.822-.02-1.088a4.41,4.41,0,0,1,.15-1.045,1.354,1.354,0,0,0-.456-.48,1.608,1.608,0,0,0-.633-.313,4.381,4.381,0,0,0-.784.439,14.878,14.878,0,0,0-2.767-.273q-.786,0-1.853.083a13.264,13.264,0,0,1,1.676-.938c.309-.182.539-.319.7-.418l.021-.168c0-.377-.39-.863-1.176-1.462V8.779a2.784,2.784,0,0,0-.916-.5,3.23,3.23,0,0,0-1-.274,1.464,1.464,0,0,0-.85.193c-.465.332-.808.588-1.023.77A11.082,11.082,0,0,1,49.9,10.43c-.435.042-.878.085-1.329.124a2.177,2.177,0,0,0-1.156.513,1.544,1.544,0,0,0-.458.783,1.115,1.115,0,0,0,.524.647h.653a8.844,8.844,0,0,0,1-.063,1.569,1.569,0,0,0-.7.775c.16.457.285.819.372,1.085a10.191,10.191,0,0,0-.348,2.882c.013.041.044.154.085.334l.11.353a.724.724,0,0,0,.218.046,3.372,3.372,0,0,0,.786-.128c.4-.109.659-.171.761-.188a23.329,23.329,0,0,1,3.55-.25v.689c-1.744.113-2.8.183-3.289.21q-1.9.064-2.856.1l-.586-.208a.837.837,0,0,0-.491.386,1.054,1.054,0,0,0-.25.576,2.389,2.389,0,0,0,.116.625,2.219,2.219,0,0,1,.121.627q0,.522-.065,1.631c0,.137-.022.457-.064.96-.043.4-.067.726-.067.96a.822.822,0,0,0,.283.49.763.763,0,0,0,.5.3,2.337,2.337,0,0,0,.719-.312,5.135,5.135,0,0,1,.72-.355,14.623,14.623,0,0,1,1.459-.1c1.22-.056,2.423-.108,3.746-.148a3.443,3.443,0,0,0,.218,1c.566,1.478,2.836,2.215,6.669,2.215a6.021,6.021,0,0,0,2.637-.5,4.077,4.077,0,0,0,1.831-1.838c-.206-.32-.661-.478-1.375-.478M56.31,16.163V15.4l3.112.062a1.7,1.7,0,0,0,1.371-.671l.131,1.276c-.989-.042-2.526-.009-4.748.1m-2.113-4.021c-1.759.168-3.074.3-3.944.417l-.37-.226A16.4,16.4,0,0,0,53.231,11.2q2.29-1.067,2.4-1.108l.264.42c-1.062.917-1.675,1.461-1.831,1.627m2.247,7.827v-.677a3.54,3.54,0,0,1,.911-.126,17.168,17.168,0,0,1,4.314.679v.4c-2.413-.186-4.154-.274-5.36-.274m-5.64-5.278.085-.908a28.407,28.407,0,0,0,3.352-.472V14a10.63,10.63,0,0,0-3.5.689M61.1,22.2c-.422,0-1.057-.013-1.905-.051s-1.487-.047-1.908-.047a3.783,3.783,0,0,0-.977.1V21.28l.67-.039c.758,0,1.892.061,3.4.17a6.061,6.061,0,0,1,1.155-.788l.044,1.543a2.436,2.436,0,0,1-.479.03M52.4,16.163a13.569,13.569,0,0,0-2.087.382l.065-.671a13.454,13.454,0,0,1,3.591-.317v.508c-.714.064-1.189.1-1.569.1M48.6,20.724l.088-.755a19.31,19.31,0,0,1,5.288-.565v.682a20.518,20.518,0,0,0-5.577.638m4.51,1.58c-.363,0-1.739.2-4.527.613l.131-1.027a34.686,34.686,0,0,1,5.462-.341v.821a8.7,8.7,0,0,0-1.067-.066" transform="translate(-23.011 -8.004)" fill="#fff"/>
      <path id="Path_4399" data-name="Path 4399" d="M61.431,57.262a5.391,5.391,0,0,1-.847-.064c-.054-.978-.081-1.926-.081-2.854s.015-1.632.038-2.081l.244-.389a1.833,1.833,0,0,1,.587.064c.041,1.59.058,2.847.058,3.773Zm.2-10.243a24.3,24.3,0,0,0-2.527-.143,29.291,29.291,0,0,0-5.219.307l-.546-.083a3.3,3.3,0,0,0-.384.49,3.941,3.941,0,0,0-1.457-.184c-.324,0-.641.007-1.084.023a2.279,2.279,0,0,0,.038-.41,1.78,1.78,0,0,0-.059-.481c-.041-.141-.309-.3-.675-.457a3.775,3.775,0,0,0-.808-.245c-.619.189-1,.407-1,.652a1.288,1.288,0,0,0,.174.479,1.307,1.307,0,0,1,.171.5.365.365,0,0,1-.021.1c-1.307.163-1.881.244-1.853.244a2.877,2.877,0,0,1-.343-.029,2.6,2.6,0,0,0-.344-.034.341.341,0,0,0-.225.084,2.455,2.455,0,0,0-.284.918c0,.3.143.3.425.546a19.858,19.858,0,0,1,2.623-.593v.684c-.8.166-1.529.343-2.341.533a1.423,1.423,0,0,0-.22.768c0,.394.1.818.324.679a4.628,4.628,0,0,1,2.237-.652v.665a13.571,13.571,0,0,0-2.885.836l-.241-.058c-.147-.029-.229-.042-.243-.042a.7.7,0,0,0-.708.592c-.026.352-.061.7-.1,1.039l.344.775A13.715,13.715,0,0,1,48.934,53a4.826,4.826,0,0,0-.989.551v.51A6.725,6.725,0,0,1,46,55.853a8.882,8.882,0,0,1-.791.408,3.428,3.428,0,0,0-.728.468.622.622,0,0,0-.241.431.662.662,0,0,0,.374.56,1.31,1.31,0,0,0,.677.235,3.471,3.471,0,0,0,1.174-.367c.243.136.478.265.707.39a1.577,1.577,0,0,1,.567.59,6.618,6.618,0,0,1-1.375,1.2,5.41,5.41,0,0,1-.95.417q-.588.163-1.152.326a1.044,1.044,0,0,0-.67.938,1.381,1.381,0,0,0,.67.775,1.838,1.838,0,0,0,.968.266,3.589,3.589,0,0,0,2.247-1.125c.2-.187.817-.835,1.841-1.934a19.309,19.309,0,0,0,4.205,2.343,30.864,30.864,0,0,0,4.692,1.305,25.87,25.87,0,0,0,2.851.509,15.788,15.788,0,0,0,1.538-1.346A4.542,4.542,0,0,0,63.8,60.688c-.175-.2-.728-.306-1.657-.306a44.716,44.716,0,0,1-4.812-.2q-1.7-.291-2.529-.449a5.7,5.7,0,0,1,2.953-.774,13.8,13.8,0,0,1,3.862.59,1.692,1.692,0,0,0,.689-.511,1.721,1.721,0,0,1,.446-.428,15.907,15.907,0,0,0,.1-2.1c0-.466-.018-1.159-.061-2.085s-.06-1.617-.06-2.08a2.35,2.35,0,0,1,.423-1.123,2.566,2.566,0,0,0-.635-.827,2.307,2.307,0,0,0-.861-.539c-.174.1-.368.217-.587.367-.621-.15-1.312-.293-2.08-.431a2.554,2.554,0,0,1-.063-.569,2.335,2.335,0,0,1,.063-.551,3.967,3.967,0,0,1,.4-.021,6.256,6.256,0,0,1,3.055.855,2.731,2.731,0,0,0,.989-.8,2.548,2.548,0,0,0,.607-1.112,6.534,6.534,0,0,0-2.405-.571m-4.186,5.612v-.9a6.6,6.6,0,0,1,1.032-.08,6.058,6.058,0,0,1,.729.042v.9c-.61,0-1.194.016-1.761.043m0,2.326v-.9a8.59,8.59,0,0,1,1.151-.079c.2,0,.405.005.61.02v.856a15,15,0,0,0-1.761.1m0,2.2V56.118a7.408,7.408,0,0,1,.949-.061,8.1,8.1,0,0,1,.812.041v.978c-.61,0-1.194.028-1.761.084m-1.475-.02a1.851,1.851,0,0,1-1.031.263q.037-2.224.283-5.3a1.087,1.087,0,0,1,.665-.184l.2.164c.029.324.042.713.042,1.161q0,1.94-.159,3.9m-.952-6.632-.4-.389a3.262,3.262,0,0,0-1.277.595v.12a2.034,2.034,0,0,0,.364,1.062v.267a27.034,27.034,0,0,1-.141,3.141c-.123,1.441-.184,2.483-.184,3.122a1.621,1.621,0,0,0,.264,1.019A14.053,14.053,0,0,1,50.309,58a4.8,4.8,0,0,1,1.012-1.408c.217-.192.431-.373.648-.55.309-.288.466-.5.466-.654,0-.516-.345-.891-1.032-1.12a4.461,4.461,0,0,1-.767.081,1.357,1.357,0,0,1-.447-.062l.164-.428a1.2,1.2,0,0,0-.507-.489,2.556,2.556,0,0,1-.525-.348A1.514,1.514,0,0,0,49.1,53c.188-.014.373-.017.547-.017a5.129,5.129,0,0,1,1.1.172,5.039,5.039,0,0,0,1.1.172c.242,0,.516-.212.818-.643a1.834,1.834,0,0,0,.438-1.029v-.124a9.938,9.938,0,0,0-3.211-.244v-.55c.376.026.588.04.762.04a2.311,2.311,0,0,0,1.214-.156,1.038,1.038,0,0,0,.544-.94,7.419,7.419,0,0,0-2.134-.345l-.023-.583a1.111,1.111,0,0,1,.2-.021,5.159,5.159,0,0,1,.586.052,4.42,4.42,0,0,0,.586.052c.514,0,.909-.028,1.194-.627a2.382,2.382,0,0,0,.223.877,1.052,1.052,0,0,0,.564.65,3.36,3.36,0,0,1,1.76-.956,17.254,17.254,0,0,1,2-.144,6.93,6.93,0,0,1,.1,1.245c-.917.229-1.734.442-2.446.632M48.934,57.2l-1.009-.672a7.844,7.844,0,0,0,1.192-1.348,3.786,3.786,0,0,0,.789.636,8.871,8.871,0,0,1-.972,1.384" transform="translate(-21.771 -23.945)" fill="#fff"/>
      <path id="Path_4400" data-name="Path 4400" d="M26.249,61.905c-.1-.122-.461-.343-2.35-.833a18.926,18.926,0,0,1-2.642-.828l-1.87-.835c.2-.08.734-.3.734-.3a.862.862,0,0,0,.642-.807l-.063-.272s-.03-.112-.054-.2l.923.174c1.052.248,1.82.4,2.281.459l.018,0,.018-.009c1.469-.724,2.183-1.377,2.183-1.991v-.027l-.019-.019a1.109,1.109,0,0,0-.326-.2,15.681,15.681,0,0,0-4.349-.668c-.626-.038-1.267-.067-1.913-.09-.979-.036-1.972-.057-2.988-.058,0-.006-.014-.011-.032-.016a1.82,1.82,0,0,0-.271-.854,3,3,0,0,0,.084-.882V53.27l-.619-.488-.552.087q-.379,0-1.024-.064c-.531-.047-.827-.069-.984-.087v-.706H13.2a5.362,5.362,0,0,1,1.087.109,4.564,4.564,0,0,0,1.045.081,1.332,1.332,0,0,0,.914-.346A1.515,1.515,0,0,0,16.782,51c-.153-.178-.746-.242-1.781-.333-.493-.043-1.078-.053-1.924-.053v-.664a1.969,1.969,0,0,1,.474-.053,15.494,15.494,0,0,1,1.765.122c.252-.122.483-.49.7-1.2.084-.323.21-.7.346-1.414-.036-.164-.194-.3-.461-.4-.357-.172-.557-.255-.583-.271a1.884,1.884,0,0,0-1.05.689,1.5,1.5,0,0,0,.068.254,3.335,3.335,0,0,1,.184.641V48.5c-.578-.076-1.01-.116-1.441-.146a2.4,2.4,0,0,1,.373-1.181.917.917,0,0,0-.439-.62c-.042-.03-.263-.143-.646-.337A2.7,2.7,0,0,0,11,46.811v.09a1.1,1.1,0,0,0,.133.586,1.636,1.636,0,0,1,.194.509c0,.018-.015.185-.032.49a9.231,9.231,0,0,0-1.351.233v-.145a6.582,6.582,0,0,1,.2-1.275,1.626,1.626,0,0,0-1.134-.53,1.466,1.466,0,0,0-.784.483,2.979,2.979,0,0,1,.236,1.081,3.07,3.07,0,0,1-.3,1.067,1.321,1.321,0,0,0,.562.989,4.178,4.178,0,0,1,2.477-.413v.6a31.322,31.322,0,0,0-3.733.506A1.549,1.549,0,0,0,7,52.035a1.99,1.99,0,0,0,.247.667,13.8,13.8,0,0,1,3.963-.707v.788l-1.764.334a10.636,10.636,0,0,0-1.072-.171l-.771.489a3.272,3.272,0,0,0,.163.8c-.073.708-.1.866-.1.871a2.329,2.329,0,0,0,.447,1.216l-.1.027c-.349.086-.668.172-.93.26a3.34,3.34,0,0,0-.915-.143h-.03l-.02.024a2.7,2.7,0,0,0-.364.831,3.343,3.343,0,0,0-.171.913,1.4,1.4,0,0,0,.217.7A.385.385,0,0,0,6,59.122a.556.556,0,0,0,.411.2A5.759,5.759,0,0,1,8.9,58.26a19.329,19.329,0,0,1,2.161-.4,6.292,6.292,0,0,1-1.847,1.289l-1.352.312c-.655.188-1.01.419-1.131.69l0,.027a1.276,1.276,0,0,0,.613,1.028,2.068,2.068,0,0,0,1.2.565,3.949,3.949,0,0,0,1.905-.892c.009.11.025.282.025.282a4.951,4.951,0,0,1-.137,1.1.521.521,0,0,1-.122.322.647.647,0,0,0-.292.458.9.9,0,0,0,.934,1.026,1.239,1.239,0,0,0,.73-.323,4.241,4.241,0,0,1,1.181-.548,16.58,16.58,0,0,1,2.887-.5.916.916,0,0,0,.922-.953A.7.7,0,0,0,15.809,61a19.6,19.6,0,0,0-3.536.6,14.307,14.307,0,0,0,.093-1.729,2.333,2.333,0,0,0-.087-.429c.051-.04.3-.229.3-.229l.008-.013a.669.669,0,0,0,.089-.343,2.359,2.359,0,0,0-.559-1.132c.22-.011,3.741-.1,3.741-.1,1.08-.049,2.226-.014,2.837.012a26.767,26.767,0,0,1-3.276,1.433.833.833,0,0,0-.541.673.737.737,0,0,0,.835.719,4.017,4.017,0,0,0,1.488-.334l.095.056a8.8,8.8,0,0,1,1.344.741,13.009,13.009,0,0,1,1.352.826l.508.356,1.259.9a14.64,14.64,0,0,0,1.866,1.19l.025.012.026-.009a3.709,3.709,0,0,0,2.586-2.247l.01-.031ZM13.078,54.12a7.908,7.908,0,0,1,1.619.151,2.075,2.075,0,0,1-.3.633l.141.528c-.057.008-.09.017-.088.026l-.159.014-.261.023-1.046.094c.052-.646.083-1.136.1-1.47m-1.87.061a4.112,4.112,0,0,0,.089,1.528c-1.1.157-1.907.319-2.648.487a4.358,4.358,0,0,0,.642-1.779,13.8,13.8,0,0,1,1.917-.236" transform="translate(-5.554 -24.107)" fill="#fff"/>
      <path id="Path_4401" data-name="Path 4401" d="M22.474,69.583l0-.025c0-.018,0-.035,0-.053Z" transform="translate(-12.763 -33.918)" fill="#fff"/>
      <path id="Path_4402" data-name="Path 4402" d="M26.887,54.147l-.013.023.008.025c.3.839,1.465,1.156,3.369,1.156a5.184,5.184,0,0,0,.793-.042,2.316,2.316,0,0,0,1.164-.647,2.067,2.067,0,0,0,.71-1.136,11.881,11.881,0,0,0,.042-1.309l-.021-1c-.013-.581-.013-1.046,0-1.383A2.994,2.994,0,0,1,33.016,49a3.037,3.037,0,0,0,.438-1.08l0-.033-.026-.022a2.942,2.942,0,0,0-1.607-.849,3.988,3.988,0,0,0-1.015.413l-.044.02.318,1.739v0c0,.059.02,1.537.02,1.537l.021,1.569a1.007,1.007,0,0,1-.587.924,2.318,2.318,0,0,1-1.206.3l-.45-.021h-.518c-.765,0-1.262.219-1.477.647" transform="translate(-14.639 -24.444)" fill="#fff"/>
      <path id="Path_4403" data-name="Path 4403" d="M26.545,50.333v1.415A2.3,2.3,0,0,0,26.87,53.1l.019.023h.028c.637,0,1.046-.487,1.216-1.447a7.975,7.975,0,0,0,.083-2.222,3.16,3.16,0,0,0-.528-1.63l-.011-.012-.613-.249a.824.824,0,0,0-.67.406,1.239,1.239,0,0,0-.3.723,2.182,2.182,0,0,0,.232.693,2.326,2.326,0,0,1,.221.947" transform="translate(-14.306 -24.674)" fill="#fff"/>
    </g>
  </g>
</svg>
