<svg xmlns="http://www.w3.org/2000/svg" width="181.696" height="26.561" viewBox="0 0 181.696 26.561">
  <g id="Group_1144" data-name="Group 1144" transform="translate(-1584.598 4498.378)">
    <path id="Path_4361" data-name="Path 4361" d="M102.972.774h5.659l2.183,8.473L112.981.774h5.656V14.7h-3.524V4.08L112.4,14.7h-3.19L106.5,4.08V14.7h-3.524Z" transform="translate(1481.626 -4498.915)"/>
    <path id="Path_4362" data-name="Path 4362" d="M165.9,12.4h-4.885l-.679,2.3h-4.394L161.177.774h4.694L171.1,14.7H166.6Zm-.893-3.011-1.537-5.006L161.95,9.39Z" transform="translate(1444.909 -4498.915)"/>
    <path id="Path_4363" data-name="Path 4363" d="M207.582,14.7V.774h7.172a10.421,10.421,0,0,1,3.05.342,3.25,3.25,0,0,1,1.7,1.268,3.846,3.846,0,0,1,.646,2.256,3.88,3.88,0,0,1-.494,2A3.863,3.863,0,0,1,218.3,8a5.2,5.2,0,0,1-1.511.551,4.3,4.3,0,0,1,1.12.513,4.353,4.353,0,0,1,.688.732,5.488,5.488,0,0,1,.6.865L221.28,14.7h-4.862l-2.3-4.256a3.245,3.245,0,0,0-.779-1.073,1.807,1.807,0,0,0-1.054-.323h-.38V14.7ZM211.9,6.417h1.814a6.476,6.476,0,0,0,1.14-.19,1.139,1.139,0,0,0,.7-.437,1.288,1.288,0,0,0,.271-.808,1.281,1.281,0,0,0-.427-1.035,2.588,2.588,0,0,0-1.606-.361H211.9Z" transform="translate(1409.116 -4498.915)"/>
    <path id="Path_4364" data-name="Path 4364" d="M263.195.774h4.294v8.3a6.983,6.983,0,0,1-.385,2.33,5.032,5.032,0,0,1-1.206,1.918,4.814,4.814,0,0,1-1.724,1.153,8.679,8.679,0,0,1-3.011.465,18.978,18.978,0,0,1-2.218-.142,5.807,5.807,0,0,1-2.009-.565,5.03,5.03,0,0,1-1.477-1.2,4.406,4.406,0,0,1-.917-1.6,8.309,8.309,0,0,1-.4-2.354V.774h4.294V9.268a2.424,2.424,0,0,0,.632,1.779,2.719,2.719,0,0,0,3.5.01,2.419,2.419,0,0,0,.632-1.789Z" transform="translate(1376.844 -4498.915)"/>
    <path id="Path_4365" data-name="Path 4365" d="M307.967,9.119v-2.9h6.649v5.937a13.621,13.621,0,0,1-3.377,1.772,11.469,11.469,0,0,1-3.482.47,8.462,8.462,0,0,1-4.042-.845,5.786,5.786,0,0,1-2.422-2.517,8.273,8.273,0,0,1-.86-3.838,8.013,8.013,0,0,1,.94-3.966,6.093,6.093,0,0,1,2.755-2.56A8.965,8.965,0,0,1,307.938,0a10.691,10.691,0,0,1,3.453.418,4.483,4.483,0,0,1,1.9,1.3,5.76,5.76,0,0,1,1.135,2.227l-4.152.741a2.245,2.245,0,0,0-.869-1.206,2.714,2.714,0,0,0-1.562-.418,2.817,2.817,0,0,0-2.256.983,4.734,4.734,0,0,0-.841,3.111,4.88,4.88,0,0,0,.85,3.23,2.986,2.986,0,0,0,2.37.969,4.509,4.509,0,0,0,1.377-.209,7.442,7.442,0,0,0,1.5-.713V9.119Z" transform="translate(1344.757 -4498.378)"/>
    <path id="Path_4366" data-name="Path 4366" d="M358.294,12.4h-4.885l-.679,2.3h-4.394L353.57.774h4.694L363.5,14.7h-4.506ZM357.4,9.39l-1.537-5.006L354.343,9.39Z" transform="translate(1311.554 -4498.915)"/>
    <path id="Path_4367" data-name="Path 4367" d="M400.523.774h5.659l2.183,8.473L410.531.774h5.656V14.7h-3.524V4.08L409.948,14.7h-3.19l-2.71-10.62V14.7h-3.524Z" transform="translate(1275.381 -4498.915)"/>
    <path id="Path_4368" data-name="Path 4368" d="M455.92.774h11.532V3.747h-7.22V5.961h6.7V8.8h-6.7v2.745h7.428V14.7H455.92Z" transform="translate(1236.983 -4498.915)"/>
    <path id="Path_4369" data-name="Path 4369" d="M519.167.774h4.294v8.3a6.987,6.987,0,0,1-.385,2.33,5.039,5.039,0,0,1-1.206,1.918,4.818,4.818,0,0,1-1.724,1.153,8.682,8.682,0,0,1-3.011.465,18.975,18.975,0,0,1-2.218-.142,5.807,5.807,0,0,1-2.009-.565,5.026,5.026,0,0,1-1.477-1.2,4.413,4.413,0,0,1-.917-1.6,8.324,8.324,0,0,1-.4-2.354V.774h4.294V9.268a2.425,2.425,0,0,0,.632,1.779,2.72,2.72,0,0,0,3.5.01,2.419,2.419,0,0,0,.632-1.789Z" transform="translate(1199.419 -4498.915)"/>
    <path id="Path_4370" data-name="Path 4370" d="M557.691.774h6.393a7.66,7.66,0,0,1,3.054.513,4.967,4.967,0,0,1,1.923,1.472,6.094,6.094,0,0,1,1.1,2.232,10.363,10.363,0,0,1,.342,2.7A9.366,9.366,0,0,1,570,11.152a5.731,5.731,0,0,1-1.41,2.061,4.6,4.6,0,0,1-1.938,1.107,9.979,9.979,0,0,1-2.565.38h-6.393Zm4.3,3.154v7.609h1.055a4.435,4.435,0,0,0,1.918-.3,2.03,2.03,0,0,0,.893-1.045,6.564,6.564,0,0,0,.323-2.417,4.7,4.7,0,0,0-.722-3.031,3.056,3.056,0,0,0-2.394-.817Z" transform="translate(1166.442 -4498.915)"/>
    <path id="Path_4371" data-name="Path 4371" d="M601.567,7.21a7.177,7.177,0,0,1,1.9-5.31A7.152,7.152,0,0,1,608.758,0a7.28,7.28,0,0,1,5.357,1.867A7.037,7.037,0,0,1,616,7.1a8.576,8.576,0,0,1-.822,4,5.858,5.858,0,0,1-2.375,2.432,7.84,7.84,0,0,1-3.871.869,8.908,8.908,0,0,1-3.9-.75,5.872,5.872,0,0,1-2.5-2.375,7.887,7.887,0,0,1-.959-4.066m4.3.019a4.668,4.668,0,0,0,.784,3.03,2.966,2.966,0,0,0,4.279.019,5.152,5.152,0,0,0,.76-3.239,4.305,4.305,0,0,0-.793-2.873,2.712,2.712,0,0,0-2.152-.907,2.615,2.615,0,0,0-2.09.921,4.684,4.684,0,0,0-.788,3.049" transform="translate(1136.029 -4498.378)"/>
    <path id="Path_4372" data-name="Path 4372" d="M651.544.774h4.018l5.244,7.7V.774h4.056V14.7h-4.056l-5.215-7.646V14.7h-4.047Z" transform="translate(1101.388 -4498.915)"/>
    <path id="Path_4373" data-name="Path 4373" d="M106.681,58.256h.847v5.719a5.621,5.621,0,0,1-.2,1.834,1.712,1.712,0,0,1-.682.824,2.093,2.093,0,0,1-1.157.308,2.7,2.7,0,0,1-1.011-.2,4.275,4.275,0,0,1-1.1-.7l.449-.674a6.623,6.623,0,0,0,1.1.656,1.4,1.4,0,0,0,.565.127,1.09,1.09,0,0,0,.661-.219,1.145,1.145,0,0,0,.415-.582,5.388,5.388,0,0,0,.118-1.405Z" transform="translate(1481.35 -4538.757)"/>
    <path id="Path_4374" data-name="Path 4374" d="M123.487,58.257l3.951,8.471h-.915l-1.332-2.787h-3.649l-1.32,2.787h-.945l4-8.471Zm-.107,1.8-1.451,3.066h2.9Z" transform="translate(1470.324 -4538.758)"/>
    <path id="Path_4375" data-name="Path 4375" d="M149.438,58.257h1.687a9.748,9.748,0,0,1,1.958.126,2.174,2.174,0,0,1,1.186.735,2.37,2.37,0,0,1,.011,2.793,2.209,2.209,0,0,1-1.238.74,10.957,10.957,0,0,1-2.154.138h-.6v3.939h-.847Zm.847.829V61.96l1.434.017a3.746,3.746,0,0,0,1.273-.158,1.306,1.306,0,0,0,.634-.512,1.416,1.416,0,0,0,.23-.79,1.4,1.4,0,0,0-.23-.779,1.273,1.273,0,0,0-.608-.5,3.651,3.651,0,0,0-1.235-.149Z" transform="translate(1449.418 -4538.758)"/>
    <path id="Path_4376" data-name="Path 4376" d="M170.129,58.257l3.951,8.471h-.915l-1.332-2.787h-3.649l-1.32,2.787h-.945l4-8.471Zm-.107,1.8-1.451,3.066h2.9Z" transform="translate(1437.995 -4538.758)"/>
    <path id="Path_4377" data-name="Path 4377" d="M196.81,66.728V58.257h.184l5.638,6.494V58.257h.835v8.471h-.19l-5.592-6.415v6.415Z" transform="translate(1416.583 -4538.758)"/>
    <path id="Path_4378" data-name="Path 4378" d="M224.282,58.256h4.855v.829h-4.008V61.74H229.1v.829h-3.974V65.9H229.1v.829h-4.82Z" transform="translate(1397.541 -4538.758)"/>
    <path id="Path_4379" data-name="Path 4379" d="M244.477,64.668l.72-.432q.76,1.4,1.756,1.4a1.682,1.682,0,0,0,.8-.2,1.409,1.409,0,0,0,.57-.533,1.38,1.38,0,0,0,.2-.709,1.436,1.436,0,0,0-.288-.835A6.9,6.9,0,0,0,246.781,62a7.417,7.417,0,0,1-1.319-1.158,2.117,2.117,0,0,1-.449-1.3,1.965,1.965,0,0,1,.265-1.008,1.893,1.893,0,0,1,.746-.717,2.149,2.149,0,0,1,1.045-.262,2.228,2.228,0,0,1,1.12.3,3.84,3.84,0,0,1,1.1,1.091l-.691.524a3.313,3.313,0,0,0-.815-.835,1.4,1.4,0,0,0-.734-.2,1.163,1.163,0,0,0-.838.311,1.018,1.018,0,0,0-.325.766,1.307,1.307,0,0,0,.115.536,1.974,1.974,0,0,0,.42.564q.167.162,1.094.847a6.168,6.168,0,0,1,1.509,1.446,2.33,2.33,0,0,1,.409,1.273,2.159,2.159,0,0,1-.7,1.6,2.352,2.352,0,0,1-1.7.68,2.5,2.5,0,0,1-1.4-.412,3.762,3.762,0,0,1-1.157-1.379" transform="translate(1383.543 -4538.276)"/>
    <path id="Path_4380" data-name="Path 4380" d="M265.53,58.256h4.855v.829h-4.008V61.74h3.974v.829h-3.974V65.9h3.974v.829h-4.82Z" transform="translate(1368.95 -4538.758)"/>
    <path id="Path_4381" data-name="Path 4381" d="M296.777,66.728V58.257h.184l5.638,6.494V58.257h.835v8.471h-.19l-5.592-6.415v6.415Z" transform="translate(1347.292 -4538.758)"/>
    <path id="Path_4382" data-name="Path 4382" d="M328.379,57.562a4.4,4.4,0,0,1,3.221,1.284,4.453,4.453,0,0,1-3.152,7.613,4.337,4.337,0,0,1-3.181-1.29,4.24,4.24,0,0,1-1.3-3.121,4.509,4.509,0,0,1,.591-2.263,4.361,4.361,0,0,1,3.818-2.223m.037.824a3.489,3.489,0,0,0-1.783.49,3.524,3.524,0,0,0-1.315,1.32,3.673,3.673,0,0,0-.473,1.85,3.563,3.563,0,0,0,3.571,3.591,3.623,3.623,0,0,0,1.825-.478,3.429,3.429,0,0,0,1.31-1.308,3.679,3.679,0,0,0,.47-1.845,3.587,3.587,0,0,0-.47-1.824,3.511,3.511,0,0,0-1.324-1.305,3.579,3.579,0,0,0-1.811-.49" transform="translate(1328.442 -4538.276)"/>
    <path id="Path_4383" data-name="Path 4383" d="M361.785,57.562a4.394,4.394,0,0,1,3.221,1.284,4.453,4.453,0,0,1-3.152,7.613,4.337,4.337,0,0,1-3.181-1.29,4.24,4.24,0,0,1-1.3-3.121,4.509,4.509,0,0,1,.591-2.263,4.362,4.362,0,0,1,3.818-2.223m.037.824a3.489,3.489,0,0,0-1.783.49,3.527,3.527,0,0,0-1.315,1.32,3.673,3.673,0,0,0-.473,1.85,3.564,3.564,0,0,0,3.571,3.591,3.624,3.624,0,0,0,1.825-.478,3.43,3.43,0,0,0,1.309-1.308,3.678,3.678,0,0,0,.47-1.845,3.586,3.586,0,0,0-.47-1.824,3.509,3.509,0,0,0-1.324-1.305,3.58,3.58,0,0,0-1.811-.49" transform="translate(1305.287 -4538.276)"/>
    <path id="Path_4384" data-name="Path 4384" d="M392,66.728V58.257h1.756a8.973,8.973,0,0,1,2.759.305,3.69,3.69,0,0,1,1.926,1.5,4.548,4.548,0,0,1,.694,2.54,4.451,4.451,0,0,1-.55,2.24,3.523,3.523,0,0,1-1.428,1.428,5.377,5.377,0,0,1-2.462.461Zm.812-.8h.979a9.114,9.114,0,0,0,2.436-.219,2.81,2.81,0,0,0,1.5-1.119,3.446,3.446,0,0,0,.547-1.977,3.627,3.627,0,0,0-.593-2.095,2.987,2.987,0,0,0-1.653-1.191,9.992,9.992,0,0,0-2.62-.242h-.6Z" transform="translate(1281.287 -4538.758)"/>
    <path id="Path_4385" data-name="Path 4385" d="M419.643,58.256h.847V65.91h3.259v.818h-4.106Z" transform="translate(1262.128 -4538.758)"/>
    <path id="Path_4386" data-name="Path 4386" d="M437.415,58.256h4.855v.829h-4.008V61.74h3.973v.829h-3.973V65.9h3.973v.829h-4.82Z" transform="translate(1249.809 -4538.758)"/>
    <path id="Path_4387" data-name="Path 4387" d="M457.073,64.668l.72-.432q.76,1.4,1.756,1.4a1.683,1.683,0,0,0,.8-.2,1.409,1.409,0,0,0,.57-.533,1.378,1.378,0,0,0,.2-.709,1.439,1.439,0,0,0-.288-.835A6.9,6.9,0,0,0,459.377,62a7.432,7.432,0,0,1-1.319-1.158,2.118,2.118,0,0,1-.449-1.3,1.967,1.967,0,0,1,.265-1.008,1.893,1.893,0,0,1,.746-.717,2.149,2.149,0,0,1,1.045-.262,2.23,2.23,0,0,1,1.12.3,3.84,3.84,0,0,1,1.1,1.091l-.691.524a3.319,3.319,0,0,0-.815-.835,1.4,1.4,0,0,0-.734-.2,1.164,1.164,0,0,0-.838.311,1.018,1.018,0,0,0-.325.766,1.3,1.3,0,0,0,.115.536,1.973,1.973,0,0,0,.42.564q.167.162,1.094.847a6.157,6.157,0,0,1,1.509,1.446,2.33,2.33,0,0,1,.409,1.273,2.159,2.159,0,0,1-.7,1.6,2.35,2.35,0,0,1-1.7.68,2.5,2.5,0,0,1-1.4-.412,3.759,3.759,0,0,1-1.158-1.379" transform="translate(1236.184 -4538.276)"/>
    <path id="Path_4388" data-name="Path 4388" d="M496.118,64.284l.574.608a13.113,13.113,0,0,1-1.049.845q.346.319.9.874.439.436.754.806h-1.181l-1.124-1.158a7.265,7.265,0,0,1-1.721,1.112,3.808,3.808,0,0,1-1.4.259,2.194,2.194,0,0,1-1.572-.562,1.852,1.852,0,0,1-.593-1.4,2.372,2.372,0,0,1,.4-1.27,7.436,7.436,0,0,1,1.632-1.61,7.651,7.651,0,0,1-.894-1.241,1.715,1.715,0,0,1-.2-.763,1.314,1.314,0,0,1,.49-1.048,2.083,2.083,0,0,1,1.405-.484,2.18,2.18,0,0,1,.967.213,1.6,1.6,0,0,1,.668.573,1.4,1.4,0,0,1,.23.763,1.731,1.731,0,0,1-.3.907,6.072,6.072,0,0,1-1.182,1.229l1.284,1.348.841.853a13.213,13.213,0,0,0,1.067-.853m-3.82-.86a6.856,6.856,0,0,0-1.414,1.293,1.59,1.59,0,0,0-.335.891,1.126,1.126,0,0,0,.41.856,1.439,1.439,0,0,0,1,.372,2.236,2.236,0,0,0,.883-.184,7.14,7.14,0,0,0,1.561-1l-1.336-1.377q-.346-.363-.772-.852m.1-1.121a4.244,4.244,0,0,0,.929-.939,1.087,1.087,0,0,0,.219-.582.62.62,0,0,0-.286-.507,1.242,1.242,0,0,0-.76-.213,1.166,1.166,0,0,0-.733.219.643.643,0,0,0-.283.519.854.854,0,0,0,.116.432,6.828,6.828,0,0,0,.8,1.071" transform="translate(1213.563 -4539.447)"/>
    <path id="Path_4389" data-name="Path 4389" d="M526.7,59.086v-.829h4.642v.829h-1.889v7.642h-.864V59.086Z" transform="translate(1187.924 -4538.758)"/>
    <path id="Path_4390" data-name="Path 4390" d="M546.513,58.256h4.855v.829H547.36V61.74h3.974v.829H547.36V65.9h3.974v.829h-4.82Z" transform="translate(1174.189 -4538.758)"/>
    <path id="Path_4391" data-name="Path 4391" d="M566.305,66.728l1.213-8.471h.138l3.444,6.951,3.411-6.951h.136l1.219,8.471h-.83L574.2,60.67l-3,6.058h-.216l-3.031-6.1-.832,6.1Z" transform="translate(1160.471 -4538.758)"/>
    <path id="Path_4392" data-name="Path 4392" d="M601.9,58.257h1.687a9.748,9.748,0,0,1,1.958.126,2.174,2.174,0,0,1,1.186.735,2.37,2.37,0,0,1,.012,2.793,2.21,2.21,0,0,1-1.238.74,10.953,10.953,0,0,1-2.154.138h-.605v3.939H601.9Zm.846.829V61.96l1.434.017a3.745,3.745,0,0,0,1.272-.158,1.3,1.3,0,0,0,.634-.512,1.415,1.415,0,0,0,.23-.79,1.4,1.4,0,0,0-.23-.779,1.272,1.272,0,0,0-.608-.5,3.652,3.652,0,0,0-1.235-.149Z" transform="translate(1135.796 -4538.758)"/>
    <path id="Path_4393" data-name="Path 4393" d="M623.493,58.256h.847V63.37a10.6,10.6,0,0,0,.034,1.134,1.883,1.883,0,0,0,.294.838,1.732,1.732,0,0,0,.709.564,2.214,2.214,0,0,0,.962.228,1.9,1.9,0,0,0,.806-.179,1.791,1.791,0,0,0,.645-.5,2.021,2.021,0,0,0,.38-.766,6.342,6.342,0,0,0,.086-1.324V58.256h.846V63.37a6.24,6.24,0,0,1-.222,1.834,2.5,2.5,0,0,1-.887,1.218,2.538,2.538,0,0,1-1.61.519,3.085,3.085,0,0,1-1.757-.489,2.358,2.358,0,0,1-.979-1.3,6.862,6.862,0,0,1-.156-1.785Z" transform="translate(1120.832 -4538.757)"/>
    <path id="Path_4394" data-name="Path 4394" d="M647.755,58.257h1.687a10.211,10.211,0,0,1,1.912.115,2.183,2.183,0,0,1,1.226.741,2.114,2.114,0,0,1,.472,1.4,2.257,2.257,0,0,1-.326,1.216,2.027,2.027,0,0,1-.93.793,4.266,4.266,0,0,1-1.67.274l3.046,3.933h-1.047l-3.047-3.933H648.6v3.933h-.847Zm.847.829v2.88l1.459.012a3.63,3.63,0,0,0,1.254-.161,1.3,1.3,0,0,0,.634-.515,1.435,1.435,0,0,0,.228-.792,1.375,1.375,0,0,0-.231-.775,1.286,1.286,0,0,0-.605-.5,3.687,3.687,0,0,0-1.246-.15Z" transform="translate(1104.014 -4538.758)"/>
    <path id="Path_4395" data-name="Path 4395" d="M672.7,58.257l3.951,8.471h-.914l-1.333-2.787h-3.649l-1.32,2.787h-.944l4-8.471Zm-.107,1.8-1.451,3.066h2.9Z" transform="translate(1089.64 -4538.758)"/>
  </g>
</svg>
