<svg xmlns="http://www.w3.org/2000/svg" width="58" height="58" viewBox="0 0 58 58">
  <g id="Group_1047" data-name="Group 1047" transform="translate(-744.219 -7216.543)">
    <rect id="Rectangle_1196" data-name="Rectangle 1196" width="58" height="58" rx="2" transform="translate(744.219 7216.543)"/>
    <path id="Close_icon" data-name="Close icon" d="M7340.35,3638.107q-1.874-1.5-3.623-3.145c-.158-.149-.848-.834-1.571-1.547l-.212-.211.212-.212c.723-.713,1.413-1.4,1.571-1.547q1.748-1.647,3.623-3.145c.692-.558-.166-3.056-.953-2.424a60.588,60.588,0,0,0-4.6,4.084c-.365.358-.733.721-1.093,1.088l0,0v-.087l-.041.041c-.36-.367-.728-.73-1.093-1.088a60.721,60.721,0,0,0-4.6-4.084c-.788-.632-1.646,1.867-.954,2.424q1.875,1.5,3.623,3.145c.159.149.849.834,1.571,1.547l.261.26-.261.26c-.723.714-1.412,1.4-1.571,1.547q-1.748,1.647-3.623,3.145c-.691.557.166,3.056.954,2.424a60.831,60.831,0,0,0,4.6-4.084c.365-.358.733-.721,1.093-1.088l.041.041v-.086l0,0c.36.367.728.73,1.093,1.088a60.638,60.638,0,0,0,4.6,4.084C7340.184,3641.163,7341.042,3638.665,7340.35,3638.107Z" transform="translate(-6560.771 3612.34)" fill="#fff"/>
  </g>
</svg>
