<svg xmlns="http://www.w3.org/2000/svg" xmlns:xlink="http://www.w3.org/1999/xlink" width="295" height="230" viewBox="0 0 295 230">
  <defs>
    <clipPath id="clip-path">
      <rect id="Rectangle_1262" data-name="Rectangle 1262" width="295" height="230" transform="translate(1145 1220)" fill="none"/>
    </clipPath>
  </defs>
  <g id="Illustration_1" data-name="Illustration 1" transform="translate(-1145 -1220)" clip-path="url(#clip-path)">
    <path id="Path_8721" data-name="Path 8721" d="M2198.021-652.6c.543-.223,1.1-.445,1.639-.677-2.85-7-4.65-14.724-8.836-20.817-4.053-5.906-10.556-10.137-17.147-16.167-.713-9.113-8.062-16.408-14.724-24.211-6.592-7.687-13.014-15.508-19.437-23.329l-.053-.053c-1.087-1.14-18.35-19.045-34.766-26.233q-10.1-4.236-20.283-8.284c-5.808-2.3-12.453-2.877-18.778-3.349-8.2-.606-16.479-.089-24.7-.454-7.367-.339-13.691,1.871-19.65,7.082a149.26,149.26,0,0,0-17.976.089q-.361.027-.775.053l-.365.027c-.4.027-.793.062-1.194.1-.16.009-.321.027-.481.044-10.217,1.131-20.416,6.191-22.34,8.266-1.416,1.648-2.841,3.287-4.374,5.068-.045.053-.071.08-.071.08-.49.561-1,1.149-1.514,1.746-7.527-.561-11.687,4.472-17.165,9.5-6.5,5.977-9.193,15.339-18.608,19-4.338,1.675-6.895,7.981-10.2,12.221-1.292,1.657-2.165,3.741-3.715,5.068-4.7,3.991-9.959,7.358-14.4,11.6-6.8,6.476-8.159,14.813-4.294,23.187a10.511,10.511,0,0,0,3.643,3.857c2.557,1.719,5.345,3.082,8.578,4.908-3.946,7.6-6.556,15.579-13.78,20.835a34.154,34.154,0,0,0-8.952,9.282s-.089.134-.232.383-.3.5-.445.748a27.374,27.374,0,0,0-3.233,9.2,29.34,29.34,0,0,0,.4,4.65l59.378,18.581,82.708,13.041H2076.5l36.334-4.151s50.756-13.825,51.549-14.217c.4-.214,10.467-4.383,21.868-9.781.214-.107.445-.223.686-.33.624-.285,1.22-.579,1.781-.864,8.489-4.329,10.493-8.551,10.983-10.351.036-.125.072-.258.107-.41.107-.428.2-.855.312-1.283.481-2.058.927-4.133,1.443-6.173.062-.276.1-.428.1-.428.383-1.514.8-3.02,1.309-4.489C2204.925-645.729,2202.831-649.6,2198.021-652.6Zm-297.293,33.11a34.41,34.41,0,0,0-4.409-1.9,22.406,22.406,0,0,1,3.278-8.979,30.286,30.286,0,0,0,1.452,11.037Zm290.078-36.9c1.514,5.745-2.173,12.426-9.95,17.4a74.013,74.013,0,0,1-44.8,12.043c-3.652-.2-7.322-.027-11.081-.419C2150.517-629.348,2173.2-637.427,2190.806-656.383Zm-13.629-15.063c-.356-2.1-.837-4.187-1.3-6.5,10.226,3.26,13.21,11.393,7.456,19.5a32.384,32.384,0,0,1-4.8,5.255c-4.9,4.427-26.705,13.869-33.2,14.519,7.821-5.015,15.553-10.172,23.481-15.009A17.683,17.683,0,0,0,2177.177-671.446Zm-10.493-3.821c.526.258,1.042.517,1.568.775a22.168,22.168,0,0,1-10.119,19.526h-.018c-11.046,7.242-23.187,12.818-34.776,19.276-12.15,6.77-25.592,8.623-39.033,10.075-10.155,1.1-20.63,2.521-30.624,1.211-15.143-1.986-30.536-4.721-44.806-9.923-14.092-5.14-28.024-12.221-37.394-25.057a85.2,85.2,0,0,1-7.367-12.791c-2.637-5.354-4.855-10.912-7.233-16.346,4.694-.116,8.159,2.209,11.446,6.69,7.322,9.985,14.6,20.292,23.516,28.754,11.028,10.475,25.725,14.956,40,19.828,29.992,10.235,59.147,4.864,88.408-3.51,12.863-3.688,23.338-11.357,33.911-18.724,4.133-2.868,6.209-8.747,9.1-13.326C2164.555-670.858,2165.553-673.1,2166.684-675.267ZM1948.8-628.983a146.793,146.793,0,0,0,29.173,2.94,145.934,145.934,0,0,0,17.183-1.015c7.9-.98,16.328,2.218,24.434,4.044-25.146,2.378-53.687,4.258-79.349-5.273-3.848-1.434-9.2-2.12-11.028-4.97-3.135-4.89-4.694-11.117-5.576-16.987-.392-2.548,2.512-5.594,3.928-8.418C1925.019-639.752,1930.061-632.609,1948.8-628.983Zm3.047-9.772v-.009c6.939,1.274,14.243.436,21.334,1.069,6.414.57,12.774,1.826,19.151,2.779-.107.624-.214,1.256-.321,1.888-17.619,2.6-34.642-.214-51.335-5.719-8.943-2.948-10.342-11.571-3.447-20.906.178.285.561.615.5.819C1934.853-648.731,1936.546-641.552,1951.849-638.755Zm-9.959-15.027,2-1.55c7.75,10.11,19.739,7.874,30.019,10.912-9.139.561-18.43,2.12-26.946-2.494C1944.705-648.143,1943.556-651.439,1941.89-653.782Zm155.073-64.643c-6.244-3.171-11.589-6.146-17.147-8.649-5.442-2.459-11.1-4.436-16.711-6.645C2070.891-738.877,2089.018-730.486,2096.964-718.425Zm-27.676-29.092c4.32-6.636,21.833-6.672,32.424,0Zm24.353,15.321c10.583,1.016,23.142,10.279,24.612,17.753C2112.49-712.136,2103.074-718.852,2093.641-732.2Zm-21.521,9.015v-.009c10.529,4.6,20.719,9.977,31.159,14.787a35.115,35.115,0,0,0,9.905,3.011c5.852.748,10.066-2.254,12.8-7.571.535.24,1.069.472,1.6.713-.73,2.271-.837,5.113-2.3,6.725-6.823,7.491-16.675,8.738-26.126,4.374-15.25-7.028-30.615-13.816-46.008-20.514-3.385-1.47-7.126-2.156-11.99-3.572C2052.916-730.21,2062.7-727.3,2072.12-723.182Zm-6.743,44.7a23,23,0,0,0,11.767,1.452c5.567-.828,9.237,1.853,13.789,4.365-12.087,6.805-36.574-2.672-52.733-18.822C2046.11-687.649,2055.579-682.678,2065.377-678.483Zm-24.87-1.568c9.1,7.607,18.742,13.13,30.811,13.887,3.385.214,6.708,1.211,10.948,2-20.131,4.106-35.595-3.029-49.215-15.811-4.766-4.472-9.656-8.8-14.484-13.2l.552-1.354C2026.282-689.751,2033.933-685.538,2040.507-680.051Zm63.529,17.343a22.36,22.36,0,0,1,11.054,1.185c-18.172,8.979-36.833,7.981-55.584,3.385C2074.837-655.706,2089.33-660.124,2104.036-662.707Zm-79.011-5.345c22.4,17.512,47.736,22.688,75.51,17.637a71.764,71.764,0,0,0,11.963-2.94,28.125,28.125,0,0,0,10.538-6.547c2.557.606,4.463,1.06,7.376,1.746-24.113,15.865-49.589,15.793-75.626,11.072-27.115-4.926-45.919-22.8-63.9-42.338,7.349-.241,13.263,3.055,18.581,7.491C2014.8-677.476,2019.565-672.319,2025.026-668.052Zm113.181,11.384c3.385-2.877,8.5-3.723,13.771-5.888-5.844,8.293-33.047,22.331-47.344,22.59C2116.81-643.636,2128.3-648.295,2138.206-656.668Zm-124.226-1.505c10.885,9.1,23.881,14.261,37.572,17.112,11.224,2.334,22.715,3.367,33.8,5.451-47.068,3.331-87.642-7.616-112.45-52.466a21.96,21.96,0,0,1,15.428,6.716C1996.485-673.227,2005.144-665.567,2013.98-658.173Zm144.865-28.237c-14.546,20.247-28.5,23.124-52.849,14.493-7.393-2.619-14.127-7.135-21.9-11.17,12.506,3.4,24.211,6.022,35.524,9.825,11.74,3.946,27.1-5.817,30.883-16.862,3.643-10.645,3.581-12.266-4.9-26.892C2158.052-714.541,2166.061-696.45,2158.845-686.411Zm-17.7-26.224c12.756,11.473,2.271,30.429-11.17,32.272v.009c-6.895.944-14.591-.624-21.334-2.85-8.935-2.966-17.334-7.58-25.886-11.669-6.084-2.9-12.025-6.111-18.029-9.175l.223-1.131c6.066,2.325,12.1,4.766,18.216,6.966,9.611,3.438,19.116,7.367,28.994,9.772,4.8,1.176,10.734.472,15.446-1.283,12.56-4.659,14.617-19.151,4.124-28.3a123.773,123.773,0,0,0-19.08-13.825c-6.565-3.812-13.869-6.351-20.906-9.469a38.269,38.269,0,0,1,25.788,7.58C2125.967-727.457,2133.289-719.7,2141.146-712.635Zm-2.512-18.02c.178.232.107.65.41,2.868-6.992-5.131-13.05-9.326-18.831-13.869-8.071-6.351-15.865-12.987-26.171-15.66-12.747-3.314-28.977-1.4-35.47,11.927-.721,1.479-2.218,2.592-3.839,4.418-.25-10.6,6.832-18.35,17.566-19.891C2100.83-764.976,2121.9-752.514,2138.634-730.655Zm-90.493-34.41c4.659-2.156,10.1-2.77,15.268-3.59,3.207-.5,6.556-.089,9.843-.089-18.341,3.046-25.262,15.4-26.759,32.771-5.549-3.091-7.741-6.93-7.883-11.972C2038.4-755.516,2041.273-761.876,2048.141-765.065Zm-13.353-3.688c2.352-.3,4.7-.543,7.812-.9-9.2,7.99-11.794,17.5-9.273,28.647-.535.151-1.069.3-1.6.445-2.022-5.692-4.8-11.241-5.87-17.112C2024.607-764.531,2027.876-767.844,2034.788-768.753Zm-15.731,4.587c-.365,13.237,5.63,23.979,14.11,33.716-5.683-1.158-11.669-4.614-16.479-9.032s-8.453-9.8-9.442-14.8C2006.284-759.142,2010.551-763.008,2019.057-764.166Zm-17.726,5.523c.757,16.274,11.874,24.345,23.347,32.174-.16.009-.312.009-.472.009-10.333,0-25.538-13.459-28.683-21.138C1993.715-752.007,1995.853-756.2,2001.331-758.643Zm-17.272,2.637c1.514-.428,3.251-.062,4.534-.062.713,18.323,13.718,25.36,24.852,34.829-2.53-.65-5.113-1.14-7.572-1.986-10.484-3.581-19.428-9.406-25.9-18.564C1975.909-747.544,1977.842-754.243,1984.059-756.006Zm-20.915,11.651a7.638,7.638,0,0,1,1.595-1.39c3.242-2.013,6.44-1.514,7.821,1.9,4.7,11.633,14.724,17.664,24.763,24.6a16.5,16.5,0,0,1-15.865-1.443A166.655,166.655,0,0,1,1963.9-733.47,7.715,7.715,0,0,1,1963.144-744.355Zm-27.9,27.623c.534,7.18,4.855,10.279,9.834,11.571,17.218,4.489,34.633,7.26,52.573,4.543,7.892-1.2,15.918-1.452,23.908-1.969-21.85,6.244-44.173,8.088-66.745,6.877-6.627-.356-13.433-1.345-18.617-6.654C1932.431-706.221,1931.718-710.479,1935.245-716.732Zm-1.407,20.176h.009c1.781,8.649,5.451,15.7,15.321,16.631-12.426,2.619-20.933,2.646-25.244-3.6C1924.538-691.533,1925.643-693.154,1933.838-696.557Zm-24.024,6.9c3.732-6.369,8.551-11.687,16.684-12.542-2.646,2.913-5.9,5.469-7.812,8.792-5.7,9.888-1.6,17.931,9.718,19.276,6.1.722,12.311.677,18.519.971-9.326,2.61-18.661,5.5-28.709,2.9C1908.5-672.773,1904.763-681.022,1909.814-689.653Zm.909,74.619a19.191,19.191,0,0,1-4.347-10.547h.009c-.4-3.625.419-7.384.677-11.081l2-.151c2.833,14.163,13.3,20.283,25.342,25.066q9.687,3.835,19.579,6.7C1939.655-607.6,1924.316-609.956,1910.723-615.034Zm18.733-6.3c-11.794-4.971-16.978-17.539-12.676-30.348,1.9,13.807,4.543,26.108,19.793,29.876,5.149,1.274,10.253,2.753,15.437,3.866,25.832,5.514,51.709,2.815,77.621.534,8.489-.748,17.094-.116,25.636-.116l.4,1.871c-6.2,2.254-12.23,5.229-18.608,6.627-27.685,6.075-55.21,5.781-82.3-3.456C1946.3-615.354,1937.668-617.866,1929.455-621.331Zm69.453,25.048q-6.881-1.283-13.736-2.663a158.618,158.618,0,0,0,16.194.819c1.042,0,2.093-.009,3.136-.027,18.777-.4,37.029-4.258,54.061-12.738,1.755-.873,3.91-.909,5.879-1.327l.6,2.111c-3.118,1.1-6.28,2.093-9.335,3.331C2037.363-599.365,2018.291-596.408,1998.908-596.283Zm38.677,1.5c9.861-3.18,19.57-7.01,29.636-9.228,4.177-.917,9.121,1.577,13.709,2.53l-.3,1.826a9.766,9.766,0,0,1-1.978.73q-20.309,2.779-40.645,5.478C2037.862-593.9,2037.728-594.341,2037.585-594.787Zm12.15,4.89c19.285-.65,38.543-1.808,57.73-3.821q8.378-.882,16.782-1.978A291.847,291.847,0,0,1,2049.735-589.9Zm20.345-26.6c3.189-.267,5.594-1.06,7.678-.552,8.854,2.165,17.557,4.935,26.42,7.055,7.963,1.915,16.07,3.269,23.258,4.7C2107.011-596.319,2078.044-603.685,2070.081-616.495ZM2195.2-638.505c-7.571,11.491-18.973,17.593-31.764,21.191-22.367,6.289-44.681,6.663-66.674-2.263,13.344,0,26.705-.543,40.013.125,19.953,1,36.985-5.576,52-18.145,2.726-2.289,4.686-5.5,7-8.293l1.835.6C2196.828-643.013,2196.48-640.447,2195.2-638.505Z" transform="translate(-707.842 2008.207)" fill="#1e1e1c"/>
  </g>
</svg>
