<svg xmlns="http://www.w3.org/2000/svg" width="44" height="43" viewBox="0 0 44 43">
  <g id="Group_1034" data-name="Group 1034" transform="translate(-0.006 -0.26)">
    <g id="Ellipse_227" data-name="Ellipse 227" transform="translate(0.006 0.26)" fill="rgba(255,255,255,0.64)" stroke="#000" stroke-width="2">
      <ellipse cx="22" cy="21.5" rx="22" ry="21.5" stroke="none"/>
      <ellipse cx="22" cy="21.5" rx="21" ry="20.5" fill="none"/>
    </g>
    <g id="Group_1011" data-name="Group 1011" transform="translate(10.042 15.549)">
      <g id="Group_1081" data-name="Group 1081" transform="translate(0 0)">
        <path id="Path_8402" data-name="Path 8402" d="M6366.458,4390.4c.43-.593-.209-1.02-.788-1.053-6.018-.339-12.044-.416-18.068-.2-.594.022-1.778.22-1.973.919s.885.862,1.34.845c5.745-.206,11.5-.164,17.238.16A2.674,2.674,0,0,0,6366.458,4390.4Z" transform="translate(-6345.605 -4383.89)"/>
        <path id="Path_6360" data-name="Path 6360" d="M6438.345,4365.953q-.349.344-.706.682-1.238,1.166-2.566,2.229c-.491.394.116,2.165.675,1.717a43,43,0,0,0,3.259-2.894c.516-.508,1.038-1.023,1.512-1.569a1.621,1.621,0,0,0-.107-2.05c-1.426-1.916-3.888-2.834-5.163-4.871-.167-.265-.486-.539-.71-.177a1.469,1.469,0,0,0,.14,1.3,10.935,10.935,0,0,0,2.629,2.734c.5.388,1,.765,1.482,1.17l.071.061" transform="translate(-6419.317 -4358.845)"/>
      </g>
    </g>
  </g>
</svg>
