<svg xmlns="http://www.w3.org/2000/svg" width="66.595" height="36.552" viewBox="0 0 66.595 36.552">
  <g id="Click_through_arrow_white" data-name="Click through arrow white" transform="translate(-217.473 -17.905)">
    <path id="Path_8399" data-name="Path 8399" d="M281.992,72.051c1.341-1.819-.638-3.16-2.426-3.256q-27.914-1.58-55.924-.606c-1.851.064-5.49.67-6.1,2.841-.606,2.2,2.745,2.649,4.15,2.617,17.78-.638,35.591-.511,53.339.479C277.2,74.253,280.524,74.062,281.992,72.051Z" transform="translate(0 -33.974)" fill="#fff"/>
    <path id="Path_6360_4_" d="M376.171,39.928c-.734.7-1.436,1.4-2.171,2.107q-3.83,3.591-7.948,6.895c-1.532,1.213.351,6.7,2.075,5.3a134.058,134.058,0,0,0,10.087-8.97c1.6-1.564,3.224-3.16,4.692-4.852,1.628-1.883,1.053-4.469-.319-6.352-4.4-5.937-12.034-8.778-15.96-15.066-.511-.83-1.5-1.66-2.2-.543-.67,1.053-.16,3.064.447,4.022a33.617,33.617,0,0,0,8.14,8.459c1.532,1.213,3.1,2.362,4.6,3.607l.223.192" transform="translate(-99.829)" fill="#fff"/>
  </g>
</svg>
