<svg xmlns="http://www.w3.org/2000/svg" width="43" height="43" viewBox="0 0 43 43">
  <g id="Twitter" transform="translate(0.109 -0.039)">
    <circle id="Ellipse_2" data-name="Ellipse 2" cx="21.5" cy="21.5" r="21.5" transform="translate(-0.109 0.039)"/>
    <path id="Path_2" data-name="Path 2" d="M43.591,16.321a10.208,10.208,0,0,0,10.3-10.3v-.49a7.974,7.974,0,0,0,1.766-1.864,8.143,8.143,0,0,1-2.06.589,3.816,3.816,0,0,0,1.569-1.962,9,9,0,0,1-2.256.883A3.5,3.5,0,0,0,50.261,2a3.685,3.685,0,0,0-3.629,3.629,1.912,1.912,0,0,0,.1.785,10.141,10.141,0,0,1-7.455-3.826,3.756,3.756,0,0,0-.49,1.864,3.9,3.9,0,0,0,1.569,3.041A3.307,3.307,0,0,1,38.687,7h0a3.585,3.585,0,0,0,2.943,3.531,3.024,3.024,0,0,1-.981.1,1.669,1.669,0,0,1-.687-.1,3.716,3.716,0,0,0,3.433,2.55,7.406,7.406,0,0,1-4.512,1.569,2.716,2.716,0,0,1-.883-.1,9.259,9.259,0,0,0,5.591,1.766" transform="translate(-25.109 12.245)" fill="#fff" fill-rule="evenodd"/>
  </g>
</svg>
