<svg xmlns="http://www.w3.org/2000/svg" width="36" height="36" viewBox="0 0 36 36">
  <g id="Twitter" transform="translate(0.047)">
    <circle id="Ellipse_2" data-name="Ellipse 2" cx="18" cy="18" r="18" transform="translate(-0.047 0)" fill="#fff"/>
    <path id="Path_2" data-name="Path 2" d="M42.681,13.99A8.546,8.546,0,0,0,51.3,5.367V4.956A6.676,6.676,0,0,0,52.782,3.4a6.817,6.817,0,0,1-1.725.493,3.2,3.2,0,0,0,1.314-1.642,7.533,7.533,0,0,1-1.889.739A2.933,2.933,0,0,0,48.265,2a3.085,3.085,0,0,0-3.039,3.039,1.6,1.6,0,0,0,.082.657,8.491,8.491,0,0,1-6.241-3.2,3.145,3.145,0,0,0-.411,1.56A3.263,3.263,0,0,0,39.971,6.6a2.769,2.769,0,0,1-1.4-.411h0a3,3,0,0,0,2.464,2.956,2.532,2.532,0,0,1-.821.082,1.4,1.4,0,0,1-.575-.082,3.111,3.111,0,0,0,2.874,2.135,6.2,6.2,0,0,1-3.778,1.314A2.274,2.274,0,0,1,38,12.512a7.752,7.752,0,0,0,4.681,1.478" transform="translate(-27.116 9.894)" fill-rule="evenodd"/>
  </g>
</svg>
