<?xml version="1.0" standalone="no"?>
<!DOCTYPE svg PUBLIC "-//W3C//DTD SVG 1.1//EN" "http://www.w3.org/Graphics/SVG/1.1/DTD/svg11.dtd" >
<svg xmlns="http://www.w3.org/2000/svg" xmlns:xlink="http://www.w3.org/1999/xlink" version="1.1">
<metadata>
Created by FontForge 20170731 at Mon Feb 18 22:38:58 2019
 By Aleksey,,,
Copyright (c) 2018 Kilotype GmbH. All rights reserved.
</metadata>
<defs>
<font id="OldschoolGrotesk-Regular" horiz-adv-x="0" >
  <font-face 
    font-family="Oldschool Grotesk"
    font-weight="400"
    font-stretch="normal"
    units-per-em="2048"
    panose-1="2 11 5 4 3 2 4 2 8 4"
    ascent="1638"
    descent="-410"
    x-height="1166"
    cap-height="1597"
    bbox="-678 -628 2967 2452"
    underline-thickness="50"
    underline-position="-175"
    unicode-range="U+000D-1F310"
  />
<missing-glyph horiz-adv-x="748" 
d="M68 0v1365h544v-1365h-544zM136 68h408v1229h-408v-1229z" />
    <glyph glyph-name="f_f" unicode="ff" horiz-adv-x="1536" 
d="M263 0v979h-231v187h231v122q0 205 97 302.5t287 97.5q42 0 86 -7t77 -20v-175q-55 18 -117 18q-109 0 -158 -56.5t-49 -167.5v-114h483v122q0 205 96.5 302.5t287.5 97.5q48 0 99.5 -8.5t89.5 -22.5v-176q-64 23 -142 23q-110 0 -159 -56.5t-49 -167.5v-114h327v-187
h-327v-979h-223v979h-483v-979h-223z" />
    <glyph glyph-name="f_i" unicode="fi" horiz-adv-x="1356" 
d="M263 0v979h-231v187h231v122q0 205 97 302.5t287 97.5q41 0 84 -6.5t74 -19.5v-175q-56 17 -112 17q-109 0 -158 -56.5t-49 -167.5v-114h327v-187h-327v-979h-223zM1083 1367q-65 0 -107.5 40.5t-42.5 101.5t42.5 101t107.5 40q66 0 108.5 -40t42.5 -101t-42.5 -101.5
t-108.5 -40.5zM971 0v1166h225v-1166h-225z" />
    <glyph glyph-name="f_l" unicode="fl" horiz-adv-x="1355" 
d="M263 0v979h-231v187h231v122q0 205 97 302.5t287 97.5q41 0 84 -6.5t74 -19.5v-175q-56 17 -112 17q-109 0 -158 -56.5t-49 -167.5v-114h327v-187h-327v-979h-223zM969 0v1659h226v-1659h-226z" />
    <glyph glyph-name="f_f_i" unicode="ffi" horiz-adv-x="2062" 
d="M263 0v979h-231v187h231v122q0 205 97 302.5t287 97.5q42 0 86 -7t77 -20v-175q-55 18 -117 18q-109 0 -158 -56.5t-49 -167.5v-114h483v122q0 205 96.5 302.5t287.5 97.5q41 0 84 -6.5t74 -19.5v-175q-56 17 -112 17q-109 0 -158 -56.5t-49 -167.5v-114h327v-187h-327
v-979h-223v979h-483v-979h-223zM1789 1367q-65 0 -107.5 40.5t-42.5 101.5t42.5 101t107.5 40q66 0 108.5 -40t42.5 -101t-42.5 -101.5t-108.5 -40.5zM1676 0v1166h226v-1166h-226z" />
    <glyph glyph-name="f_f_l" unicode="ffl" horiz-adv-x="2060" 
d="M263 0v979h-231v187h231v122q0 205 97 302.5t287 97.5q42 0 86 -7t77 -20v-175q-55 18 -117 18q-109 0 -158 -56.5t-49 -167.5v-114h483v122q0 205 96.5 302.5t287.5 97.5q41 0 84 -6.5t74 -19.5v-175q-56 17 -112 17q-109 0 -158 -56.5t-49 -167.5v-114h327v-187h-327
v-979h-223v979h-483v-979h-223zM1675 0v1659h226v-1659h-226z" />
    <glyph glyph-name=".notdef" horiz-adv-x="748" 
d="M68 0v1365h544v-1365h-544zM136 68h408v1229h-408v-1229z" />
    <glyph glyph-name=".null" 
 />
    <glyph glyph-name="nonmarkingreturn" horiz-adv-x="682" 
 />
    <glyph glyph-name="NULL" 
 />
    <glyph glyph-name="CR" unicode="&#xd;" horiz-adv-x="508" 
 />
    <glyph glyph-name="space" unicode=" " horiz-adv-x="508" 
 />
    <glyph glyph-name="exclam" unicode="!" horiz-adv-x="584" 
d="M199 496l-26 1101h238l-26 -1101h-186zM292 -17q-72 0 -119.5 44.5t-47.5 114.5q0 69 47.5 113.5t119.5 44.5q73 0 120 -44.5t47 -113.5q0 -70 -47 -114.5t-120 -44.5z" />
    <glyph glyph-name="quotedbl" unicode="&#x22;" horiz-adv-x="788" 
d="M123 1072l-26 525h232l-25 -525h-181zM449 1072l-26 525h232l-25 -525h-181z" />
    <glyph glyph-name="numbersign" unicode="#" horiz-adv-x="1607" 
d="M248 0l92 431h-272v155h305l91 425h-287v155h320l92 431h189l-92 -431h392l92 431h189l-92 -431h272v-155h-305l-91 -425h288v-155h-321l-92 -431h-189l92 431h-392l-92 -431h-189zM562 586h392l91 425h-392z" />
    <glyph glyph-name="dollar" unicode="$" horiz-adv-x="1273" 
d="M549 -141v148q-204 29 -328 156.5t-143 319.5h231q17 -113 77.5 -188.5t162.5 -102.5v544q-221 67 -319.5 172.5t-98.5 276.5q0 165 114 274.5t304 132.5v146h198v-148q181 -26 289 -137.5t131 -292.5h-227q-28 207 -193 252v-505q235 -76 339.5 -186.5t104.5 -284.5
q0 -178 -121.5 -293.5t-322.5 -137.5v-146h-198zM359 1201q0 -82 43 -137t147 -96v446q-90 -20 -140 -77t-50 -136zM962 418q0 94 -50 154.5t-165 104.5v-492q99 18 157 79t58 154z" />
    <glyph glyph-name="percent" unicode="%" horiz-adv-x="1992" 
d="M466 763q-118 0 -208 54t-140.5 152.5t-50.5 230.5t50.5 230t140.5 152t208 54t208 -54t140.5 -152t50.5 -230t-50.5 -230.5t-140.5 -152.5t-208 -54zM315 0l1146 1597h215l-1146 -1597h-215zM466 923q98 0 152 70.5t54 206.5q0 135 -54 205.5t-152 70.5
q-97 0 -151.5 -70.5t-54.5 -205.5q0 -136 54.5 -206.5t151.5 -70.5zM1526 -38q-118 0 -208 54.5t-140.5 152.5t-50.5 230t50.5 230t140.5 152.5t208 54.5t208 -54.5t140.5 -152.5t50.5 -230t-50.5 -230t-140.5 -152.5t-208 -54.5zM1526 122q98 0 152 70.5t54 206.5
q0 135 -54 205.5t-152 70.5q-97 0 -151.5 -70.5t-54.5 -205.5q0 -136 54.5 -206.5t151.5 -70.5z" />
    <glyph glyph-name="ampersand" unicode="&#x26;" horiz-adv-x="1616" 
d="M635 -41q-172 0 -296 59t-191 159.5t-67 227.5q0 171 95.5 282.5t296.5 189.5q-103 110 -148 198t-45 189q0 106 55.5 190t156.5 133.5t239 49.5q207 0 326 -102.5t119 -266.5q0 -148 -101 -256t-289 -187l362 -359q48 72 81.5 173.5t45.5 208.5h221q-18 -136 -74 -279
t-134 -242l330 -327h-274l-179 179q-113 -114 -241.5 -167t-288.5 -53zM496 1249q0 -76 38 -143.5t132 -161.5q158 60 229.5 136.5t71.5 174.5q0 92 -63.5 147.5t-170.5 55.5q-109 1 -173 -58t-64 -151zM312 430q0 -128 94 -206t249 -78q118 0 212 43.5t163 124.5l-435 435
q-153 -59 -218 -136t-65 -183z" />
    <glyph glyph-name="quotesingle" unicode="'" horiz-adv-x="463" 
d="M141 1072l-26 525h232l-25 -525h-181z" />
    <glyph glyph-name="parenleft" unicode="(" horiz-adv-x="725" 
d="M536 -409q-129 123 -231.5 298t-161.5 380t-59 419t59 419t161.5 380.5t231.5 297.5h197q-127 -136 -218.5 -311.5t-140 -375.5t-48.5 -410t48.5 -410t140 -375.5t218.5 -311.5h-197z" />
    <glyph glyph-name="parenright" unicode=")" horiz-adv-x="725" 
d="M189 -409q129 123 231.5 298t161.5 380t59 419t-59 419t-161.5 380.5t-231.5 297.5h-197q127 -136 218.5 -311.5t140 -375.5t48.5 -410t-48.5 -410t-140 -375.5t-218.5 -311.5h197z" />
    <glyph glyph-name="asterisk" unicode="*" horiz-adv-x="882" 
d="M371 878l14 267l-222 -146l-71 118l234 121l-234 120l71 118l222 -146l-14 267h141l-15 -265l222 144l71 -118l-238 -120l238 -121l-71 -118l-222 144l15 -265h-141z" />
    <glyph glyph-name="plus" unicode="+" horiz-adv-x="1384" 
d="M589 202v462h-431v189h431v462h212v-462h424v-189h-424v-462h-212z" />
    <glyph glyph-name="comma" unicode="," horiz-adv-x="505" 
d="M36 -360l119 649h239l-189 -649h-169z" />
    <glyph glyph-name="hyphen" unicode="-" horiz-adv-x="1058" 
d="M131 643v206h796v-206h-796z" />
    <glyph glyph-name="period" unicode="." horiz-adv-x="534" 
d="M267 -17q-72 0 -119.5 44.5t-47.5 114.5q0 69 47.5 113.5t119.5 44.5q73 0 120 -44.5t47 -113.5q0 -70 -47 -114.5t-120 -44.5z" />
    <glyph glyph-name="slash" unicode="/" horiz-adv-x="1030" 
d="M52 -297l721 2044h204l-721 -2044h-204z" />
    <glyph glyph-name="zero" unicode="0" horiz-adv-x="1460" 
d="M730 -38q-189 0 -329.5 102.5t-218 290.5t-77.5 444t77.5 444t218 290.5t329.5 102.5q190 0 330.5 -102.5t217.5 -290.5t77 -444t-77 -444t-217.5 -290.5t-330.5 -102.5zM730 162q179 0 282 166.5t103 470.5q0 305 -103 471t-282 166q-178 0 -281 -166t-103 -471
q0 -304 103 -470.5t281 -166.5z" />
    <glyph glyph-name="one" unicode="1" horiz-adv-x="858" 
d="M434 0v1195q-62 -67 -167 -123t-219 -80v220q171 41 288 143t157 242h173v-1597h-232z" />
    <glyph glyph-name="two" unicode="2" horiz-adv-x="1276" 
d="M93 0q7 200 61 350t173.5 271t319.5 232q113 63 176.5 115.5t90 108t26.5 127.5q0 106 -74.5 172.5t-200.5 66.5q-148 0 -233.5 -87.5t-99.5 -249.5h-229q13 164 85.5 283t195 184t285.5 64q149 -1 260 -56.5t172.5 -153.5t61.5 -226q0 -111 -38.5 -197.5t-127.5 -165
t-240 -166.5q-131 -75 -211.5 -147.5t-121.5 -152t-54 -177.5h804v-195h-1081z" />
    <glyph glyph-name="three" unicode="3" horiz-adv-x="1316" 
d="M676 -39q-174 0 -304.5 62t-208.5 175.5t-95 266.5h236q20 -148 119.5 -229t246.5 -81q149 0 235 80.5t86 216.5t-92.5 213.5t-248.5 77.5h-206v187h197q136 0 212.5 68t76.5 192q0 115 -72 184t-192 69q-128 0 -210.5 -73t-98.5 -201h-233q21 136 89 241.5t182.5 166
t276.5 60.5q142 0 250 -54t169.5 -150.5t61.5 -222.5t-66.5 -221t-185.5 -142q150 -42 233 -153t83 -253t-67.5 -250.5t-189.5 -169t-284 -60.5z" />
    <glyph glyph-name="four" unicode="4" horiz-adv-x="1323" 
d="M825 0v400h-779v209l760 988h243v-1004h192v-193h-192v-400h-224zM262 593h563v744z" />
    <glyph glyph-name="five" unicode="5" horiz-adv-x="1348" 
d="M694 -40q-178 0 -309 64t-210.5 177.5t-105.5 263.5h237q26 -140 127 -224.5t256 -84.5q158 0 254 102t96 269q0 105 -44.5 185t-124.5 125t-185 45q-102 0 -183 -43t-130 -120h-238l127 878h882v-195h-693l-74 -505q61 80 158.5 122t210.5 42q154 0 271.5 -67
t184.5 -185t67 -271q0 -168 -72.5 -298.5t-201.5 -205t-300 -74.5z" />
    <glyph glyph-name="six" unicode="6" horiz-adv-x="1389" 
d="M722 -39q-189 0 -327 89t-212.5 257.5t-74.5 409.5q0 444 161.5 682t478.5 238q212 0 349 -122.5t168 -340.5h-230q-22 128 -98 198.5t-195 70.5q-142 0 -229.5 -80.5t-129.5 -230t-46 -353.5q56 118 170.5 186.5t261.5 68.5q149 0 265.5 -67t183.5 -184.5t67 -270.5
q0 -160 -72 -284.5t-199 -195.5t-292 -71zM714 152q152 0 247 97.5t95 254.5q0 105 -44 185t-120.5 124.5t-175.5 44.5q-100 0 -178 -45t-122.5 -125t-44.5 -184t44 -183.5t121.5 -124t177.5 -44.5z" />
    <glyph glyph-name="seven" unicode="7" horiz-adv-x="1186" 
d="M236 0q44 186 107.5 378.5t140.5 377.5t161 350t169 297h-774v194h1132v-5q-250 -379 -421 -788t-270 -804h-245z" />
    <glyph glyph-name="eight" unicode="8" horiz-adv-x="1354" 
d="M677 -39q-172 0 -303 58.5t-204.5 165t-73.5 250.5q0 149 90.5 260.5t239.5 156.5q-118 46 -184 140t-66 222q0 125 63 220t175.5 149t262.5 54t262.5 -54t175 -149t62.5 -220q0 -128 -66 -222t-184 -140q149 -45 239.5 -156.5t90.5 -260.5q0 -144 -73 -250.5
t-203.5 -165t-303.5 -58.5zM677 928q128 0 207.5 72.5t78.5 193.5q-1 119 -79.5 189.5t-206.5 70.5q-127 0 -206.5 -70.5t-79.5 -189.5q-1 -121 79 -193.5t207 -72.5zM677 148q164 0 258.5 82.5t94.5 223.5q0 137 -97.5 220t-255.5 83t-255.5 -83t-97.5 -220
q0 -141 95 -223.5t258 -82.5z" />
    <glyph glyph-name="nine" unicode="9" horiz-adv-x="1386" 
d="M684 -36q-231 0 -379 123t-181 339h230q24 -128 111 -198.5t215 -70.5q368 0 368 668q-54 -116 -165 -181t-254 -65q-153 0 -271.5 66t-186 183.5t-67.5 269.5q0 159 72.5 281t200.5 191t292 69q191 0 327 -90t208.5 -258.5t72.5 -403.5q0 -459 -150 -691t-443 -232z
M675 755q99 0 176 44.5t121 123t44 180.5q0 157 -94.5 251.5t-244.5 94.5q-151 0 -247.5 -94.5t-96.5 -252.5q0 -102 44.5 -180.5t122 -122.5t175.5 -44z" />
    <glyph glyph-name="colon" unicode=":" horiz-adv-x="584" 
d="M292 -17q-72 0 -119.5 44.5t-47.5 114.5q0 69 47.5 113.5t119.5 44.5q73 0 120 -44.5t47 -113.5q0 -70 -47 -114.5t-120 -44.5zM292 849q-72 0 -119.5 44.5t-47.5 114.5q0 69 47.5 113.5t119.5 44.5q73 0 120 -44.5t47 -113.5q0 -70 -47 -114.5t-120 -44.5z" />
    <glyph glyph-name="semicolon" unicode=";" horiz-adv-x="640" 
d="M72 -360l119 649h239l-189 -649h-169zM360 849q-72 0 -119.5 44.5t-47.5 114.5q0 69 47.5 113.5t119.5 44.5q73 0 120 -44.5t47 -113.5q0 -70 -47 -114.5t-120 -44.5z" />
    <glyph glyph-name="less" unicode="&#x3c;" horiz-adv-x="1384" 
d="M1131 152l-927 602l927 601v-219l-596 -382l596 -382v-220z" />
    <glyph glyph-name="equal" unicode="=" horiz-adv-x="1384" 
d="M187 905v189h1009v-189h-1009zM187 425v189h1009v-189h-1009z" />
    <glyph glyph-name="greater" unicode="&#x3e;" horiz-adv-x="1384" 
d="M262 152l927 602l-927 601v-219l596 -382l-596 -382v-220z" />
    <glyph glyph-name="question" unicode="?" horiz-adv-x="1139" 
d="M424 514v77q0 122 49.5 209.5t183.5 179.5q107 74 145.5 128t38.5 129q0 101 -65.5 160t-178.5 59q-132 0 -211 -72.5t-103 -203.5h-224q36 213 180 335t359 122q136 0 238.5 -50.5t160.5 -139t58 -202.5q0 -80 -24 -144.5t-82 -125.5t-160 -132q-64 -45 -98.5 -83.5
t-47 -80.5t-12.5 -98v-67h-207zM536 -17q-72 0 -119.5 44.5t-47.5 114.5q0 69 47.5 113.5t119.5 44.5t119.5 -44.5t47.5 -113.5q0 -70 -47.5 -114.5t-119.5 -44.5z" />
    <glyph glyph-name="at" unicode="@" horiz-adv-x="2132" 
d="M1075 -385q-216 0 -397.5 71t-315 200t-207 306t-73.5 390q0 209 75.5 385.5t212 307.5t320 203.5t400.5 72.5q209 0 382.5 -67t301 -187.5t197 -284t69.5 -356.5q0 -169 -48 -299.5t-132 -204.5t-193 -74q-97 0 -143 38t-72 84q-22 41 -40 41q-10 0 -17.5 -5t-23.5 -22
q-65 -70 -146.5 -106t-197.5 -36q-134 0 -241.5 65t-170 178t-62.5 257t62.5 257t170 178t241.5 65q102 0 181.5 -33t141.5 -98q27 -26 41 -26q19 0 25 36q3 17 6 45t4 47h146v-687q0 -150 115 -150q102 0 163 123t61 328q0 169 -60 311t-169 246.5t-258.5 162t-328.5 57.5
q-193 0 -353 -63.5t-277 -178.5t-180.5 -270.5t-63.5 -339.5q0 -187 63 -343t177.5 -270t271 -176t342.5 -62q154 0 302.5 42.5t251.5 122.5v-123q-104 -77 -252.5 -117.5t-301.5 -40.5zM1069 236q141 0 228 93.5t87 242.5t-87 241.5t-228 92.5q-139 0 -228 -92.5
t-89 -241.5t89 -242.5t228 -93.5z" />
    <glyph glyph-name="A" unicode="A" horiz-adv-x="1538" 
d="M11 0l590 1597h337l589 -1597h-272l-148 409h-686l-148 -409h-262zM477 597h573l-287 812z" />
    <glyph glyph-name="B" unicode="B" horiz-adv-x="1481" 
d="M171 0v1597h641q242 0 369 -111.5t127 -301.5q0 -122 -61 -209.5t-179 -129.5q148 -42 225 -144.5t77 -250.5q0 -214 -132.5 -332t-385.5 -118h-681zM415 919h360q143 0 218 62t75 180q0 114 -73.5 178t-217.5 64h-362v-484zM414 194h406q149 0 227 69.5t78 197.5
q0 129 -80.5 198t-226.5 69h-404v-534z" />
    <glyph glyph-name="C" unicode="C" horiz-adv-x="1807" 
d="M931 -40q-185 0 -339.5 62.5t-267.5 175.5t-175 266.5t-62 334.5q0 182 62 335t175 266t267.5 175.5t339.5 62.5q220 0 390 -80.5t278 -227t140 -345.5h-260q-38 204 -180.5 322t-360.5 118q-177 0 -309.5 -79t-206 -219.5t-73.5 -327.5q0 -186 73.5 -327t206 -220
t309.5 -79q218 0 360.5 118t180.5 322h260q-32 -198 -140 -345t-278 -227.5t-390 -80.5z" />
    <glyph glyph-name="D" unicode="D" horiz-adv-x="1721" 
d="M186 0v1597h615q249 0 436 -99.5t291 -279t104 -419.5t-104 -419.5t-291 -279.5t-436 -100h-615zM436 202h350q182 0 313 72t201.5 206t70.5 319q0 184 -70.5 317.5t-201.5 206t-313 72.5h-350v-1193z" />
    <glyph glyph-name="E" unicode="E" horiz-adv-x="1342" 
d="M186 0v1597h1045v-204h-799v-483h695v-200h-695v-506h840v-204h-1086z" />
    <glyph glyph-name="F" unicode="F" horiz-adv-x="1241" 
d="M186 0v1597h1002v-202h-755v-514h676v-203h-676v-678h-247z" />
    <glyph glyph-name="G" unicode="G" horiz-adv-x="1835" 
d="M895 -37q-173 0 -320 59t-256.5 169t-170 263.5t-60.5 341.5q0 186 63 340.5t177.5 266.5t270 173t340.5 61q207 0 372.5 -71.5t274.5 -205t144 -320.5h-263q-46 182 -182.5 283t-339.5 101q-173 0 -307.5 -76.5t-211 -216t-76.5 -329.5q0 -187 72.5 -328.5t204 -221
t308.5 -79.5q168 0 282.5 68.5t182.5 196.5q36 67 56.5 151.5t28.5 172.5h229v-762h-174q-3 54 -8 111t-10 88q-10 51 -36 51q-12 0 -22 -7t-27 -30q-88 -115 -225.5 -182.5t-316.5 -67.5z" />
    <glyph glyph-name="H" unicode="H" horiz-adv-x="1684" 
d="M186 0v1597h250v-687h813v687h249v-1597h-249v707h-813v-707h-250z" />
    <glyph glyph-name="I" unicode="I" horiz-adv-x="622" 
d="M186 0v1597h250v-1597h-250z" />
    <glyph glyph-name="J" unicode="J" horiz-adv-x="1439" 
d="M678 -40q-263 0 -436.5 150.5t-214.5 420.5h255q31 -177 132.5 -271t264.5 -94q342 0 342 398v1033h249v-1030q0 -285 -153 -446t-439 -161z" />
    <glyph glyph-name="K" unicode="K" horiz-adv-x="1461" 
d="M186 0v1597h250v-774l723 774h298l-734 -777l763 -820h-326l-724 787v-787h-250z" />
    <glyph glyph-name="L" unicode="L" horiz-adv-x="1222" 
d="M186 0v1597h250v-1392h758v-205h-1008z" />
    <glyph glyph-name="M" unicode="M" horiz-adv-x="2058" 
d="M186 0v1597h349l499 -1297l496 1297h342v-1597h-237v1326l-502 -1326h-217l-503 1325v-1325h-227z" />
    <glyph glyph-name="N" unicode="N" horiz-adv-x="1717" 
d="M186 0v1597h280l830 -1268v1268h235v-1597h-280l-830 1267v-1267h-235z" />
    <glyph glyph-name="O" unicode="O" horiz-adv-x="1879" 
d="M940 -39q-189 0 -345 62t-270 175t-176 266t-62 335t62 335t176 266t270 175t345 62q188 0 344.5 -62t270.5 -175t176 -266t62 -335t-62 -335t-176 -266t-270.5 -175t-344.5 -62zM940 175q176 0 309 78.5t207.5 219t74.5 326.5q0 187 -74.5 327t-207.5 218.5t-309 78.5
q-175 0 -308.5 -78.5t-208 -218.5t-74.5 -327q0 -186 74.5 -326.5t208 -219t308.5 -78.5z" />
    <glyph glyph-name="P" unicode="P" horiz-adv-x="1407" 
d="M186 0v1597h616q265 0 407.5 -137.5t142.5 -368.5q0 -232 -142.5 -369t-408.5 -137h-367v-585h-248zM434 781h347q158 0 240 80.5t82 228.5q0 149 -82 229t-240 80h-347v-618z" />
    <glyph glyph-name="Q" unicode="Q" horiz-adv-x="1888" 
d="M940 -39q-189 0 -345 62t-270 175t-176 266t-62 335t62 335t176 266t270 175t345 62q188 0 344.5 -62t270.5 -175t176 -266t62 -335t-63 -336.5t-177 -265.5l179 -236h-268l-82 108q-95 -52 -206 -80t-236 -28zM940 170q172 0 307 77l-346 455h269l238 -314
q62 79 95 183.5t33 227.5q0 188 -75.5 329t-209.5 219.5t-311 78.5t-311 -78.5t-209.5 -219.5t-75.5 -329t75.5 -329.5t209.5 -220.5t311 -79z" />
    <glyph glyph-name="R" unicode="R" horiz-adv-x="1522" 
d="M186 0v1597h681q249 0 384 -112t135 -324q0 -140 -72.5 -243t-212.5 -144q111 -16 162.5 -81t69.5 -202l43 -330q8 -61 23.5 -103.5t30.5 -57.5h-255q-32 24 -44 128l-38 328q-13 121 -65.5 168.5t-186.5 47.5h-408v-672h-247zM433 857h396q310 0 310 270q0 273 -302 273
h-404v-543z" />
    <glyph glyph-name="S" unicode="S" horiz-adv-x="1344" 
d="M695 -40q-179 0 -316.5 65t-220 182.5t-97.5 274.5h244q23 -157 128.5 -243t268.5 -86q141 0 226 70.5t85 179.5q0 87 -35 143t-115 94.5t-214 70.5q-273 65 -390.5 178t-117.5 303q0 133 66 233t186 156t280 56q240 0 382 -123t167 -338h-238q-19 127 -97.5 198.5
t-212.5 71.5q-130 0 -208 -65t-78 -174q0 -103 65 -165.5t234 -103.5q298 -71 435.5 -189.5t137.5 -326.5q0 -139 -71.5 -243t-198.5 -161.5t-295 -57.5z" />
    <glyph glyph-name="T" unicode="T" horiz-adv-x="1338" 
d="M545 0v1393h-518v204h1284v-204h-517v-1393h-249z" />
    <glyph glyph-name="U" unicode="U" horiz-adv-x="1655" 
d="M828 -40q-198 0 -346.5 72t-231 216t-82.5 361v988h249v-998q0 -214 106.5 -323t304.5 -109q197 0 303.5 109t106.5 323v998h249v-988q0 -217 -82 -361t-230 -216t-347 -72z" />
    <glyph glyph-name="V" unicode="V" horiz-adv-x="1533" 
d="M619 0l-617 1597h276l506 -1355l483 1355h251l-591 -1597h-308z" />
    <glyph glyph-name="W" unicode="W" horiz-adv-x="2267" 
d="M494 0l-474 1597h255l373 -1329l355 1329h275l358 -1330l376 1330h238l-478 -1597h-286l-352 1330l-351 -1330h-289z" />
    <glyph glyph-name="X" unicode="X" horiz-adv-x="1424" 
d="M7 0l549 801l-550 796h297l416 -628l413 628h276l-540 -789l556 -808h-297l-419 638l-422 -638h-279z" />
    <glyph glyph-name="Y" unicode="Y" horiz-adv-x="1437" 
d="M599 0v646l-593 951h281l444 -735l431 735h259l-579 -952v-645h-243z" />
    <glyph glyph-name="Z" unicode="Z" horiz-adv-x="1294" 
d="M18 0v5l872 1390h-814v202h1205v-5l-873 -1389h814v-203h-1204z" />
    <glyph glyph-name="bracketleft" unicode="[" horiz-adv-x="753" 
d="M182 -409v2194h532v-162h-328v-1870h328v-162h-532z" />
    <glyph glyph-name="backslash" unicode="\" horiz-adv-x="1030" 
d="M978 -297l-721 2044h-204l721 -2044h204z" />
    <glyph glyph-name="bracketright" unicode="]" horiz-adv-x="753" 
d="M571 -409v2194h-532v-162h328v-1870h-328v-162h532z" />
    <glyph glyph-name="asciicircum" unicode="^" horiz-adv-x="1384" 
d="M141 809l452 788h195l455 -788h-213l-341 625l-341 -625h-207z" />
    <glyph glyph-name="underscore" unicode="_" horiz-adv-x="1229" 
d="M0 -366v182h1229v-182h-1229z" />
    <glyph glyph-name="grave" unicode="`" horiz-adv-x="592" 
d="M353 1313l-303 433h260l232 -433h-189z" />
    <glyph glyph-name="a" unicode="a" horiz-adv-x="1272" 
d="M525 -36q-201 0 -323 100t-122 267q0 166 114.5 254.5t349.5 106.5q114 9 216 20.5t152 25.5v4q0 134 -69.5 207.5t-201.5 73.5q-118 0 -194 -54t-100 -146h-235q36 171 176.5 276t349.5 105q239 0 366.5 -124t127.5 -351v-729h-170q-1 32 -4.5 69t-8.5 59q-7 34 -25 34
q-15 0 -37 -30q-56 -79 -146 -123.5t-216 -44.5zM310 336q0 -91 68.5 -144t182.5 -53q93 0 171 35.5t125 133.5q24 50 39.5 113t15.5 145v8q-48 -14 -139.5 -26.5t-200.5 -22.5q-141 -13 -201.5 -57t-60.5 -132z" />
    <glyph glyph-name="b" unicode="b" horiz-adv-x="1489" 
d="M822 -37q-136 0 -236.5 47.5t-171.5 130.5q-29 33 -47 33q-23 0 -30 -45q-4 -28 -7 -65.5t-5 -63.5h-168v1659h226v-597q0 -33 20 -33q12 0 26 15q63 73 161.5 116t224.5 43q172 0 307 -80.5t213 -220.5t78 -320q0 -179 -78.5 -319t-212 -220t-300.5 -80zM777 159
q119 0 209.5 54t141.5 150t51 221q0 124 -51 219.5t-141.5 150t-209.5 54.5t-209.5 -54t-141.5 -149.5t-51 -220.5q0 -126 51 -221.5t141.5 -149.5t209.5 -54z" />
    <glyph glyph-name="c" unicode="c" horiz-adv-x="1356" 
d="M700 -38q-182 0 -323 79.5t-221 220t-80 322.5t80 322t221 219.5t323 79.5q245 0 402 -131.5t193 -351.5h-231q-25 133 -120.5 210t-237.5 77q-119 0 -208.5 -53.5t-139.5 -149.5t-50 -222t50 -222t139.5 -150t208.5 -54q142 0 237.5 77t120.5 210h231
q-24 -146 -103 -254.5t-204 -168.5t-288 -60z" />
    <glyph glyph-name="d" unicode="d" horiz-adv-x="1488" 
d="M667 -37q-166 0 -300 80t-212.5 220t-78.5 319q0 180 78 320t213 220.5t307 80.5q126 0 224.5 -43t161.5 -116q14 -15 26 -15q20 0 20 33v597h226v-1659h-168q-1 26 -4 63.5t-8 65.5q-7 45 -30 45q-18 0 -47 -33q-71 -83 -171 -130.5t-237 -47.5zM712 159q119 0 209.5 54
t141.5 149.5t51 221.5q0 125 -51 220.5t-141.5 149.5t-209.5 54q-118 0 -209 -54.5t-142 -150t-51 -219.5q0 -125 51 -221t142 -150t209 -54z" />
    <glyph glyph-name="e" unicode="e" horiz-adv-x="1350" 
d="M690 -37q-182 0 -320 77.5t-215.5 217.5t-77.5 326q0 181 80 321t217 219.5t309 79.5q186 0 317.5 -77.5t201.5 -210.5t70 -300q0 -25 -2 -59.5t-4 -50.5h-956q12 -163 114 -262t266 -99q126 0 216 57.5t119 153.5h228q-42 -180 -193 -286.5t-370 -106.5zM688 1025
q-156 0 -258 -94t-119 -251h739q-6 154 -106 249.5t-256 95.5z" />
    <glyph glyph-name="f" unicode="f" horiz-adv-x="830" 
d="M263 0v979h-231v187h231v122q0 200 98 300t286 100q48 0 99.5 -8.5t89.5 -22.5v-177q-69 23 -141 23q-111 0 -160 -57t-49 -167v-113h327v-187h-327v-979h-223z" />
    <glyph glyph-name="g" unicode="g" horiz-adv-x="1451" 
d="M718 -514q-161 0 -285 55.5t-204 152.5t-112 223h231q33 -119 133.5 -186.5t236.5 -67.5q173 0 266 90.5t93 259.5v141q0 33 -21 33q-10 0 -29 -19q-65 -70 -160 -107.5t-208 -37.5q-168 0 -299 76t-206 208t-75 301q0 176 76.5 310t205.5 209t287 75q128 0 223.5 -44
t169.5 -126q29 -30 46 -30q23 0 30 44q5 29 7.5 64t3.5 56h168v-1145q0 -167 -70.5 -287t-200 -184t-307.5 -64zM697 210q114 0 200.5 50.5t135.5 140t49 207.5t-48.5 208t-135.5 140.5t-201 50.5t-200.5 -51t-135.5 -140.5t-49 -207.5q0 -116 49 -206t135.5 -141t200.5 -51
z" />
    <glyph glyph-name="h" unicode="h" horiz-adv-x="1381" 
d="M157 0v1659h226v-624q0 -34 20 -34q9 0 15.5 5.5t21.5 24.5q62 81 151 127t213 46q205 0 320.5 -127.5t115.5 -363.5v-713h-226v686q0 153 -69 235.5t-195 82.5q-178 0 -273 -136q-94 -132 -94 -379v-489h-226z" />
    <glyph glyph-name="i" unicode="i" horiz-adv-x="545" 
d="M273 1367q-66 0 -108.5 40.5t-42.5 101.5t42.5 101t108.5 40q65 0 107.5 -40t42.5 -101t-42.5 -101.5t-107.5 -40.5zM160 0v1166h226v-1166h-226z" />
    <glyph glyph-name="j" unicode="j" horiz-adv-x="545" 
d="M273 1367q-66 0 -108.5 40.5t-42.5 101.5t42.5 101t108.5 40q65 0 107.5 -40t42.5 -101t-42.5 -101.5t-107.5 -40.5zM160 -487v1653h226v-1653h-226z" />
    <glyph glyph-name="k" unicode="k" horiz-adv-x="1200" 
d="M157 0v1659h226v-1058l527 565h285l-544 -570l573 -596h-304l-537 567v-567h-226z" />
    <glyph glyph-name="l" unicode="l" horiz-adv-x="545" 
d="M160 0v1659h226v-1659h-226z" />
    <glyph glyph-name="m" unicode="m" horiz-adv-x="2137" 
d="M157 0v1166h167q2 -28 5 -66.5t7 -63.5q5 -31 13 -42.5t21 -11.5q11 0 18 4.5t21 23.5q68 93 155 143.5t205 50.5q128 0 212 -50t136 -152q24 -45 44 -45q12 0 21.5 7.5t25.5 29.5q74 109 164 159.5t208 50.5q196 0 305.5 -127t109.5 -351v-726h-226v690q0 151 -64 233
t-181 82q-80 0 -140 -35.5t-107 -104.5q-88 -130 -88 -372v-493h-226v690q0 151 -64 233t-181 82q-80 0 -140.5 -35.5t-106.5 -104.5q-88 -130 -88 -372v-493h-226z" />
    <glyph glyph-name="n" unicode="n" horiz-adv-x="1381" 
d="M157 0v1166h167q2 -28 5 -68t7 -64q8 -52 34 -52q11 0 19 5.5t21 24.5q66 91 160 141.5t227 50.5q210 0 326.5 -127.5t116.5 -362.5v-714h-226v686q0 153 -69 235.5t-195 82.5q-178 0 -273 -136q-94 -132 -94 -379v-489h-226z" />
    <glyph glyph-name="o" unicode="o" horiz-adv-x="1426" 
d="M713 -38q-184 0 -328.5 80.5t-227 221t-82.5 320.5t82.5 320t227 220t328.5 80q185 0 329 -80t226.5 -220t82.5 -320t-82.5 -320.5t-226.5 -221t-329 -80.5zM713 158q120 0 211.5 54t143 150t51.5 222q0 125 -51.5 221t-143 150t-211.5 54t-211.5 -54t-143 -150
t-51.5 -221q0 -126 51.5 -222t143 -150t211.5 -54z" />
    <glyph glyph-name="p" unicode="p" horiz-adv-x="1489" 
d="M822 1203q167 0 300.5 -80t212 -219.5t78.5 -319.5q0 -179 -78 -319.5t-213 -221t-307 -80.5q-126 0 -224.5 43.5t-161.5 115.5q-14 15 -26 15q-20 0 -20 -33v-601h-226v1663h168l5 -62.5t7 -66.5q7 -45 30 -45q18 0 47 34q71 83 171.5 130t236.5 47zM777 1008
q-119 0 -209.5 -54t-141.5 -149.5t-51 -221.5q0 -125 51 -221t141.5 -149.5t209.5 -53.5t209.5 54t141.5 150t51 220q0 125 -51 221t-141.5 150t-209.5 54z" />
    <glyph glyph-name="q" unicode="q" horiz-adv-x="1489" 
d="M667 1203q137 0 237 -47t171 -130q29 -34 47 -34q23 0 30 45q5 29 8 66.5t4 62.5h168v-1663h-226v601q0 33 -20 33q-12 0 -26 -15q-63 -72 -161.5 -115.5t-224.5 -43.5q-172 0 -307 80.5t-213 221t-78 319.5q0 180 78.5 319.5t212.5 219.5t300 80zM712 1008
q-118 0 -209 -54t-142 -150t-51 -221q0 -124 51 -220t142 -150t209 -54q119 0 209.5 53.5t141.5 149.5t51 221q0 126 -51 221.5t-141.5 149.5t-209.5 54z" />
    <glyph glyph-name="r" unicode="r" horiz-adv-x="1022" 
d="M157 0v1166h165q2 -20 5.5 -51.5t7.5 -55.5q8 -45 31 -45q11 0 19.5 6t21.5 25q48 70 119.5 109.5t160.5 39.5q146 0 229 -98.5t82 -271.5q0 -18 -2 -42h-206q1 7 1.5 15t0.5 17q1 86 -39.5 138t-117.5 52q-137 0 -204 -149q-25 -55 -37 -127t-12 -159v-569h-225z" />
    <glyph glyph-name="s" unicode="s" horiz-adv-x="1130" 
d="M587 -39q-223 0 -359.5 102.5t-165.5 281.5h231q17 -97 91.5 -153.5t204.5 -56.5q112 0 179 46t67 122q0 54 -24.5 89t-86 59t-171.5 43q-235 42 -335 126t-100 240q0 103 55.5 180t155 120.5t230.5 43.5q208 0 329 -95.5t143 -271.5h-223q-18 98 -76.5 146t-167.5 48
q-104 0 -165 -42.5t-61 -115.5q0 -76 57.5 -115t195.5 -64q174 -30 275.5 -75.5t145 -118t43.5 -183.5q0 -103 -60 -183.5t-165.5 -126.5t-242.5 -46z" />
    <glyph glyph-name="t" unicode="t" horiz-adv-x="869" 
d="M636 -14q-192 0 -286 95.5t-94 310.5v587h-231v187h131q66 0 96.5 23t41.5 73q6 27 12 71.5t11 92t7 83.5h155v-343h326v-187h-326v-567q0 -129 46.5 -185t159.5 -56q35 0 72 4.5t71 14.5v-176q-31 -11 -86 -19.5t-106 -8.5z" />
    <glyph glyph-name="u" unicode="u" horiz-adv-x="1375" 
d="M592 -38q-217 0 -334 128t-117 362v714h226v-685q0 -154 69.5 -236.5t199.5 -82.5q176 0 266 126q44 62 67.5 152t23.5 208v518h225v-1166h-167q-1 26 -4 62.5t-7 59.5q-8 53 -34 53q-10 0 -17.5 -5.5t-23.5 -25.5q-64 -87 -155 -134.5t-218 -47.5z" />
    <glyph glyph-name="v" unicode="v" horiz-adv-x="1259" 
d="M505 0l-496 1166h253l376 -936l367 936h240l-486 -1166h-254z" />
    <glyph glyph-name="w" unicode="w" horiz-adv-x="1817" 
d="M413 0l-394 1166h245l282 -899l259 899h227l259 -899l283 899h225l-395 -1166h-237l-256 889l-257 -889h-241z" />
    <glyph glyph-name="x" unicode="x" horiz-adv-x="1159" 
d="M10 0l424 584l-423 582h273l303 -435l305 435h248l-415 -574l429 -592h-273l-310 441l-310 -441h-251z" />
    <glyph glyph-name="y" unicode="y" horiz-adv-x="1240" 
d="M295 -497l211 497l-495 1166h253l368 -914l361 914h235l-700 -1663h-233z" />
    <glyph glyph-name="z" unicode="z" horiz-adv-x="1101" 
d="M34 0v5l671 974h-638v187h1004v-4l-674 -981h640v-181h-1003z" />
    <glyph glyph-name="braceleft" unicode="{" horiz-adv-x="729" 
d="M671 -419q-225 10 -349.5 99.5t-124.5 261.5q0 83 21.5 176.5t43 180.5t21.5 147q0 116 -91 149q-53 19 -134 20v151q41 2 73.5 6.5t60.5 14.5q91 33 91 149q0 60 -21.5 146.5t-43 180.5t-21.5 176q0 173 124.5 262.5t349.5 99.5v-153q-141 -10 -206 -67t-65 -156
q0 -52 12.5 -118.5t29.5 -135.5t29.5 -132t12.5 -108q0 -190 -181 -240q181 -50 181 -241q0 -45 -12.5 -107.5t-29.5 -131.5t-29.5 -135.5t-12.5 -119.5q0 -98 65 -155.5t206 -66.5v-153z" />
    <glyph glyph-name="bar" unicode="|" horiz-adv-x="570" 
d="M182 -369v2116h206v-2116h-206z" />
    <glyph glyph-name="braceright" unicode="}" horiz-adv-x="729" 
d="M58 -419q225 10 349.5 99.5t124.5 261.5q0 83 -21.5 176.5t-43 180.5t-21.5 147q0 116 91 149q53 19 134 20v151q-41 2 -73.5 6.5t-60.5 14.5q-91 33 -91 149q0 60 21.5 146.5t43 180.5t21.5 176q0 173 -124.5 262.5t-349.5 99.5v-153q141 -10 206 -67t65 -156
q0 -52 -12.5 -118.5t-29.5 -135.5t-29.5 -132t-12.5 -108q0 -190 181 -240q-181 -50 -181 -241q0 -45 12.5 -107.5t29.5 -131.5t29.5 -135.5t12.5 -119.5q0 -98 -65 -155.5t-206 -66.5v-153z" />
    <glyph glyph-name="asciitilde" unicode="~" horiz-adv-x="1384" 
d="M920 629q-70 0 -132.5 25.5t-117.5 59t-106 59t-99 25.5q-112 0 -143 -149h-157q20 147 100 240.5t207 93.5q71 0 133 -25.5t117 -59t106 -59t99 -25.5q112 0 143 148h157q-20 -146 -100 -239.5t-207 -93.5z" />
    <glyph glyph-name="uni00A0" unicode="&#xa0;" horiz-adv-x="508" 
 />
    <glyph glyph-name="exclamdown" unicode="&#xa1;" horiz-adv-x="557" 
d="M186 694l-26 -1101h238l-26 1101h-186zM279 1207q-72 0 -119.5 -44.5t-47.5 -114.5q0 -69 47.5 -113.5t119.5 -44.5q73 0 120 44.5t47 113.5q0 70 -47 114.5t-120 44.5z" />
    <glyph glyph-name="cent" unicode="&#xa2;" horiz-adv-x="1381" 
d="M617 0v183q-158 20 -278.5 103t-188 215t-67.5 298t67.5 298t188 215t278.5 103v182h171v-181q210 -22 345.5 -150t167.5 -329h-220q-22 118 -99 194.5t-194 95.5v-856q117 19 194 95.5t99 194.5h220q-32 -201 -167.5 -329t-345.5 -150v-182h-171zM304 799
q0 -166 85 -280t228 -144v848q-143 -30 -228 -144t-85 -280z" />
    <glyph glyph-name="sterling" unicode="&#xa3;" horiz-adv-x="1323" 
d="M79 0v4q127 144 178.5 267.5t51.5 254.5q0 48 -5.5 93.5t-14.5 88.5h-192v141h159q-21 78 -38 156.5t-17 164.5q0 141 65.5 245.5t181.5 162.5t267 58q235 0 373 -130t156 -352h-235q-12 138 -85 214t-201 76q-131 0 -207.5 -76t-76.5 -200q0 -76 18 -155.5t39 -163.5
h526v-141h-497q6 -39 10 -78.5t4 -81.5q0 -77 -30.5 -170t-111.5 -181h820l-1 -197h-1137z" />
    <glyph glyph-name="currency" unicode="&#xa4;" horiz-adv-x="1451" 
d="M234 182l-126 119l179 183q-55 68 -85 155t-30 187t30 187t85 155l-179 183l126 119l183 -188q65 40 143 62t166 22t166 -21.5t143 -61.5l182 187l126 -119l-179 -182q55 -69 85.5 -156t30.5 -187t-30.5 -187t-85.5 -156l179 -182l-126 -119l-183 187q-65 -40 -143 -61.5
t-165 -21.5q-88 0 -166 21.5t-143 61.5zM726 478q99 0 173.5 44.5t116.5 123.5t42 180q0 102 -42 180.5t-116.5 123t-173.5 44.5t-174 -44.5t-117 -123t-42 -180.5q0 -101 42 -180t117 -123.5t174 -44.5z" />
    <glyph glyph-name="yen" unicode="&#xa5;" horiz-adv-x="1454" 
d="M215 348v131h402v149h-402v131h338l-497 838h264l422 -744l410 744h244l-484 -838h337v-131h-399v-149h399v-131h-399v-348h-233v348h-402z" />
    <glyph glyph-name="brokenbar" unicode="&#xa6;" horiz-adv-x="570" 
d="M182 876v871h206v-871h-206zM182 -369v871h206v-871h-206z" />
    <glyph glyph-name="section" unicode="&#xa7;" horiz-adv-x="1215" 
d="M618 -256q-221 0 -353.5 107.5t-161.5 292.5h231q17 -104 89 -167t199 -63q104 0 165.5 48t61.5 128q0 57 -22.5 93.5t-82 62t-170.5 49.5q-174 39 -279 89t-152 123.5t-47 180.5t63.5 190t172.5 128q-90 48 -129.5 117t-39.5 172q0 105 54.5 183.5t152 122t225.5 43.5
q202 0 318.5 -97t140.5 -276h-224q-17 101 -72.5 152.5t-161.5 51.5q-96 0 -152.5 -45t-56.5 -125q0 -58 23.5 -95.5t81.5 -63t161 -48.5q174 -38 278.5 -89t151 -123.5t46.5 -175.5q0 -105 -63.5 -187.5t-174.5 -128.5q100 -48 141 -115.5t41 -174.5q0 -105 -58.5 -186
t-161 -127.5t-235.5 -46.5zM613 482q38 -9 72 -18q103 21 160.5 78t57.5 140q0 92 -67.5 143t-228.5 87q-46 11 -85 22q-95 -22 -148 -79t-53 -138q0 -92 64.5 -145t227.5 -90z" />
    <glyph glyph-name="dieresis" unicode="&#xa8;" horiz-adv-x="879" 
d="M690 1336q-63 0 -101.5 39t-38.5 94q0 56 38.5 94.5t101.5 38.5q62 0 101 -38.5t39 -94.5q0 -55 -39 -94t-101 -39zM189 1336q-62 0 -100.5 39t-38.5 94q0 56 38.5 94.5t100.5 38.5q64 0 102.5 -38.5t38.5 -94.5q0 -55 -38.5 -94t-102.5 -39z" />
    <glyph glyph-name="copyright" unicode="&#xa9;" horiz-adv-x="1872" 
d="M936 -35q-180 0 -334 63t-269 176t-179 265t-64 331t64 331t179 265t269 176t334 63t334 -63t269 -176t179 -265t64 -331t-64 -331t-179 -265t-269 -176t-334 -63zM936 89q150 0 278 53.5t223.5 150t149 226t53.5 281.5t-53.5 281.5t-149 226t-223.5 150t-278 53.5
t-278 -53.5t-223.5 -150t-149 -226t-53.5 -281.5t53.5 -281.5t149 -226t223.5 -150t278 -53.5zM948 319q-140 0 -250.5 61.5t-173.5 170t-63 249.5t63 249t173.5 169.5t250.5 61.5q193 0 315.5 -103t150.5 -279h-208q-17 94 -84 149.5t-169 55.5q-127 0 -204.5 -84.5
t-77.5 -218.5q0 -135 77.5 -219.5t204.5 -84.5q102 0 169 55.5t84 149.5h208q-27 -173 -149 -277.5t-317 -104.5z" />
    <glyph glyph-name="ordfeminine" unicode="&#xaa;" horiz-adv-x="1118" 
d="M466 633q-158 0 -257.5 79.5t-99.5 214.5q0 263 379 287q92 6 172 14.5t122 20.5v8q0 102 -56.5 158.5t-157.5 56.5q-90 0 -150.5 -42.5t-77.5 -113.5h-205q29 139 143.5 225t288.5 86q195 0 300.5 -98.5t105.5 -281.5v-585h-147q-1 23 -3.5 55.5t-7.5 50.5q-6 27 -21 27
q-9 0 -14.5 -6t-14.5 -18q-99 -138 -299 -138zM311 935q0 -73 55 -113.5t143 -40.5q72 0 132.5 27.5t97.5 100.5q20 40 31.5 89t11.5 109v13q-36 -12 -102.5 -20.5t-165.5 -16.5q-107 -9 -155 -44t-48 -104zM160 365v150h813v-150h-813z" />
    <glyph glyph-name="guillemotleft" unicode="&#xab;" horiz-adv-x="1206" 
d="M953 141h210l-355 465l355 465h-210l-389 -465zM507 141h210l-355 465l355 465h-210l-389 -465z" />
    <glyph glyph-name="logicalnot" unicode="&#xac;" horiz-adv-x="1384" 
d="M144 1094h1066v-603h-195v414h-871v189z" />
    <glyph glyph-name="uni00AD" unicode="&#xad;" horiz-adv-x="1058" 
d="M131 643v206h796v-206h-796z" />
    <glyph glyph-name="registered" unicode="&#xae;" horiz-adv-x="1150" 
d="M575 666q-140 0 -251 63.5t-175 173.5t-64 249q0 140 64 250t175 173.5t251 63.5t251 -63.5t175 -173.5t64 -250q0 -139 -64 -249t-175 -173.5t-251 -63.5zM575 756q111 0 198.5 51.5t137.5 141.5t50 203q0 114 -50 203.5t-137.5 141t-198.5 51.5t-198.5 -51.5t-138 -141
t-50.5 -203.5q0 -113 50.5 -203t138 -141.5t198.5 -51.5zM379 905v495h250q81 0 126 -35t45 -103q0 -44 -24 -76t-71 -43q35 -6 53 -27t25 -66l13 -81q5 -34 11.5 -46t10.5 -18h-136q-14 12 -19 50l-9 72q-4 35 -18 46.5t-47 11.5h-80v-180h-130zM510 1181h85q70 0 70 59
q0 58 -70 58h-85v-117z" />
    <glyph glyph-name="macron" unicode="&#xaf;" horiz-adv-x="778" 
d="M45 1370v162h688v-162h-688z" />
    <glyph glyph-name="degree" unicode="&#xb0;" horiz-adv-x="847" 
d="M424 974q-100 0 -177.5 42.5t-122 117.5t-44.5 170q0 96 44.5 170.5t122 117t177.5 42.5t177.5 -42.5t122 -117t44.5 -170.5q0 -95 -44.5 -170t-122 -117.5t-177.5 -42.5zM424 1121q80 0 131 51.5t51 131.5q0 81 -51 132.5t-131 51.5q-79 0 -130.5 -51.5t-51.5 -132.5
q0 -80 51.5 -131.5t130.5 -51.5z" />
    <glyph glyph-name="plusminus" unicode="&#xb1;" horiz-adv-x="1384" 
d="M589 239v444h-431v190h431v462h212v-462h424v-190h-424v-444h-212zM158 0v189h1069v-189h-1069z" />
    <glyph glyph-name="uni00B2" unicode="&#xb2;" horiz-adv-x="811" 
d="M85 1014q4 103 30.5 183t93.5 148t192 135q83 46 114.5 79t31.5 76q0 47 -35 74.5t-91 27.5q-145 0 -156 -154h-178q13 140 102.5 219.5t228.5 79.5q143 0 221 -70t78 -180q0 -85 -51.5 -147.5t-177.5 -132.5q-96 -54 -135 -97t-48 -94h413v-147h-633z" />
    <glyph glyph-name="uni00B3" unicode="&#xb3;" horiz-adv-x="832" 
d="M428 993q-152 0 -245.5 73t-109.5 203h178q11 -64 57 -98t117 -34q70 0 110 33t40 88q0 57 -42.5 90t-119.5 33h-116v137h111q66 0 103 29.5t37 84.5q0 47 -33.5 76t-91.5 29q-67 0 -103 -34.5t-44 -87.5h-178q20 123 102 195t227 72q131 0 210.5 -64t79.5 -168
q0 -71 -38 -119.5t-105 -73.5q82 -19 128 -74t46 -134q0 -113 -88.5 -184.5t-231.5 -71.5z" />
    <glyph glyph-name="acute" unicode="&#xb4;" horiz-adv-x="592" 
d="M239 1313l303 433h-260l-232 -433h189z" />
    <glyph glyph-name="mu" unicode="&#xb5;" horiz-adv-x="1391" 
d="M157 -487v1653h226v-685q0 -154 69.5 -236.5t199.5 -82.5q177 0 265 126q91 128 91 360v518h226v-1166h-167q-1 26 -4 62.5t-7 59.5q-8 53 -34 53q-10 0 -18 -6t-23 -26q-60 -85 -143.5 -130t-194.5 -45q-147 0 -227 82q-28 28 -43 28q-21 0 -21 -35v-530h-195z" />
    <glyph glyph-name="paragraph" unicode="&#xb6;" horiz-adv-x="1509" 
d="M735 -300v966h-169q-235 0 -370 124t-135 341q0 218 134.5 342t369.5 124h347v-1897h-177zM1127 -300v1897h177v-1897h-177z" />
    <glyph glyph-name="periodcentered" unicode="&#xb7;" horiz-adv-x="571" 
d="M285 424q-72 0 -119.5 44.5t-47.5 114.5q0 69 47.5 113.5t119.5 44.5q73 0 120 -44.5t47 -113.5q0 -70 -47 -114.5t-120 -44.5z" />
    <glyph glyph-name="cedilla" unicode="&#xb8;" horiz-adv-x="714" 
d="M377 -530q-150 0 -234.5 84.5t-92.5 221.5h168q7 -76 48 -119.5t112 -43.5q61 0 95 31.5t34 87.5q0 63 -65.5 133.5t-190.5 134.5h184q107 -46 168 -121t61 -159q0 -110 -75.5 -180t-211.5 -70z" />
    <glyph glyph-name="uni00B9" unicode="&#xb9;" horiz-adv-x="591" 
d="M275 1014v566q-79 -68 -211 -82v169q211 29 260 193h136v-846h-185z" />
    <glyph glyph-name="ordmasculine" unicode="&#xba;" horiz-adv-x="1240" 
d="M621 632q-151 0 -269 64.5t-185.5 177t-67.5 256.5t67.5 256.5t185.5 176.5t269 64t268 -64t184.5 -176.5t67.5 -256.5t-67.5 -256.5t-184.5 -177t-268 -64.5zM621 802q141 0 229.5 91.5t88.5 236.5q0 144 -88.5 235.5t-229.5 91.5q-142 0 -231 -91t-89 -236t89 -236.5
t231 -91.5zM182 365v150h876v-150h-876z" />
    <glyph glyph-name="guillemotright" unicode="&#xbb;" horiz-adv-x="1206" 
d="M252 141h-210l355 465l-355 465h210l389 -465zM699 141h-210l355 465l-355 465h210l389 -465z" />
    <glyph glyph-name="onequarter" unicode="&#xbc;" horiz-adv-x="1654" 
d="M275 754v566q-79 -68 -211 -82v169q211 29 260 193h136v-846h-185zM238 0l911 1597h199l-911 -1597h-199zM1312 0v194h-431v156l422 496h180v-507h101v-145h-101v-194h-171zM1044 339h268v316z" />
    <glyph glyph-name="onehalf" unicode="&#xbd;" horiz-adv-x="1678" 
d="M275 754v566q-79 -68 -211 -82v169q211 29 260 193h136v-846h-185zM175 0l911 1597h199l-911 -1597h-199zM952 0q4 103 30.5 183t93.5 148t192 135q83 46 114.5 79t31.5 76q0 47 -35 74.5t-91 27.5q-145 0 -156 -154h-178q13 140 102.5 219.5t228.5 79.5q143 0 221 -70
t78 -180q0 -85 -51.5 -147.5t-177.5 -132.5q-96 -54 -135 -97t-48 -94h413v-147h-633z" />
    <glyph glyph-name="threequarters" unicode="&#xbe;" horiz-adv-x="1888" 
d="M428 733q-152 0 -245.5 73t-109.5 203h178q11 -64 57 -98t117 -34q70 0 110 33t40 88q0 57 -42.5 90t-119.5 33h-116v137h111q66 0 103 29.5t37 84.5q0 47 -33.5 76t-91.5 29q-67 0 -103 -34.5t-44 -87.5h-178q20 123 102 195t227 72q131 0 210.5 -64t79.5 -168
q0 -71 -38 -119.5t-105 -73.5q82 -19 128 -74t46 -134q0 -113 -88.5 -184.5t-231.5 -71.5zM425 0l911 1597h199l-911 -1597h-199zM1549 0v194h-431v156l422 496h180v-507h101v-145h-101v-194h-171zM1281 339h268v316z" />
    <glyph glyph-name="questiondown" unicode="&#xbf;" horiz-adv-x="1122" 
d="M704 676v-77q0 -122 -49.5 -209.5t-183.5 -179.5q-107 -74 -145.5 -128t-38.5 -129q0 -101 65.5 -160t178.5 -59q132 0 211 72.5t103 203.5h224q-36 -213 -180 -335t-359 -122q-136 0 -238.5 50.5t-160.5 139t-58 202.5q0 80 24 144.5t82 125.5t160 132q64 45 98.5 83.5
t47 80.5t12.5 98v67h207zM592 1207q72 0 119.5 -44.5t47.5 -114.5q0 -69 -47.5 -113.5t-119.5 -44.5t-119.5 44.5t-47.5 113.5q0 70 47.5 114.5t119.5 44.5z" />
    <glyph glyph-name="Agrave" unicode="&#xc0;" horiz-adv-x="1538" 
d="M11 0l590 1597h337l589 -1597h-272l-148 409h-686l-148 -409h-262zM477 597h573l-287 812zM642 1719l-422 340h303l356 -340h-237z" />
    <glyph glyph-name="Aacute" unicode="&#xc1;" horiz-adv-x="1538" 
d="M11 0l590 1597h337l589 -1597h-272l-148 409h-686l-148 -409h-262zM477 597h573l-287 812zM886 1719l422 340h-303l-356 -340h237z" />
    <glyph glyph-name="Acircumflex" unicode="&#xc2;" horiz-adv-x="1538" 
d="M11 0l590 1597h337l589 -1597h-272l-148 409h-686l-148 -409h-262zM477 597h573l-287 812zM358 1719l294 351h225l295 -351h-189l-193 186q-13 12 -25 12t-26 -12l-192 -186h-189z" />
    <glyph glyph-name="Atilde" unicode="&#xc3;" horiz-adv-x="1538" 
d="M11 0l590 1597h337l589 -1597h-272l-148 409h-686l-148 -409h-262zM477 597h573l-287 812zM933 1735q-60 0 -107.5 22t-87 51.5t-74.5 51.5t-70 22q-42 0 -68 -33t-37 -89h-141q17 127 80.5 205t166.5 78q60 0 107.5 -22t87 -51.5t74.5 -51.5t70 -22q42 0 68.5 33
t36.5 89h141q-17 -127 -81 -205t-166 -78z" />
    <glyph glyph-name="Adieresis" unicode="&#xc4;" horiz-adv-x="1538" 
d="M11 0l590 1597h337l589 -1597h-272l-148 409h-686l-148 -409h-262zM477 597h573l-287 812zM1022 1765q-63 0 -101.5 39t-38.5 95t38.5 95.5t101.5 39.5q64 0 103 -39.5t39 -95.5t-39 -95t-103 -39zM505 1765q-63 0 -102 39t-39 95t39 95.5t102 39.5t102 -39.5t39 -95.5
t-39 -95t-102 -39z" />
    <glyph glyph-name="Aring" unicode="&#xc5;" horiz-adv-x="1538" 
d="M11 0l590 1597h337l589 -1597h-272l-148 409h-686l-148 -409h-262zM477 597h573l-287 812zM764 1694q-115 0 -189 69.5t-74 177.5t74 177.5t189 69.5q116 0 189.5 -69.5t73.5 -177.5t-74 -177.5t-189 -69.5zM764 1825q50 0 82.5 33t32.5 83t-32.5 82.5t-82.5 32.5
t-82.5 -32.5t-32.5 -82.5t32.5 -83t82.5 -33z" />
    <glyph glyph-name="AE" unicode="&#xc6;" horiz-adv-x="2188" 
d="M-58 0l980 1597h1155v-204h-760v-483h656v-200h-656v-506h801v-204h-1046v516l-523 1l-315 -517h-292zM655 712h417v691z" />
    <glyph glyph-name="Ccedilla" unicode="&#xc7;" horiz-adv-x="1807" 
d="M931 -40q-185 0 -339.5 62.5t-267.5 175.5t-175 266.5t-62 334.5q0 182 62 335t175 266t267.5 175.5t339.5 62.5q220 0 390 -80.5t278 -227t140 -345.5h-260q-38 204 -180.5 322t-360.5 118q-177 0 -309.5 -79t-206 -219.5t-73.5 -327.5q0 -186 73.5 -327t206 -220
t309.5 -79q218 0 360.5 118t180.5 322h260q-32 -198 -140 -345t-278 -227.5t-390 -80.5zM937 -532q-154 0 -241 83.5t-96 224.5h181q6 -75 45.5 -116t105.5 -41q60 0 92.5 30.5t32.5 85.5q0 65 -63 133.5t-188 131.5l174 19q115 -47 183 -127.5t68 -175.5q0 -110 -79.5 -179
t-214.5 -69z" />
    <glyph glyph-name="Egrave" unicode="&#xc8;" horiz-adv-x="1342" 
d="M186 0v1597h1045v-204h-799v-483h695v-200h-695v-506h840v-204h-1086zM595 1719l-422 340h303l356 -340h-237z" />
    <glyph glyph-name="Eacute" unicode="&#xc9;" horiz-adv-x="1342" 
d="M186 0v1597h1045v-204h-799v-483h695v-200h-695v-506h840v-204h-1086zM839 1719l422 340h-303l-356 -340h237z" />
    <glyph glyph-name="Ecircumflex" unicode="&#xca;" horiz-adv-x="1342" 
d="M186 0v1597h1045v-204h-799v-483h695v-200h-695v-506h840v-204h-1086zM311 1719l294 351h225l295 -351h-189l-193 186q-13 12 -25 12t-26 -12l-192 -186h-189z" />
    <glyph glyph-name="Edieresis" unicode="&#xcb;" horiz-adv-x="1342" 
d="M186 0v1597h1045v-204h-799v-483h695v-200h-695v-506h840v-204h-1086zM975 1765q-63 0 -101.5 39t-38.5 95t38.5 95.5t101.5 39.5q64 0 103 -39.5t39 -95.5t-39 -95t-103 -39zM458 1765q-63 0 -102 39t-39 95t39 95.5t102 39.5t102 -39.5t39 -95.5t-39 -95t-102 -39z" />
    <glyph glyph-name="Igrave" unicode="&#xcc;" horiz-adv-x="622" 
d="M186 0v1597h250v-1597h-250zM190 1719l-422 340h303l356 -340h-237z" />
    <glyph glyph-name="Iacute" unicode="&#xcd;" horiz-adv-x="622" 
d="M186 0v1597h250v-1597h-250zM434 1719l422 340h-303l-356 -340h237z" />
    <glyph glyph-name="Icircumflex" unicode="&#xce;" horiz-adv-x="622" 
d="M186 0v1597h250v-1597h-250zM-94 1719l294 351h225l295 -351h-189l-193 186q-13 12 -25 12t-26 -12l-192 -186h-189z" />
    <glyph glyph-name="Idieresis" unicode="&#xcf;" horiz-adv-x="622" 
d="M186 0v1597h250v-1597h-250zM570 1765q-63 0 -101.5 39t-38.5 95t38.5 95.5t101.5 39.5q64 0 103 -39.5t39 -95.5t-39 -95t-103 -39zM53 1765q-63 0 -102 39t-39 95t39 95.5t102 39.5t102 -39.5t39 -95.5t-39 -95t-102 -39z" />
    <glyph glyph-name="Eth" unicode="&#xd0;" horiz-adv-x="1811" 
d="M276 0v708h-255v187h255v702h614q249 0 436.5 -99.5t291.5 -279t104 -419.5t-104 -419.5t-291.5 -279.5t-436.5 -100h-614zM525 202h350q182 0 313 72t201.5 206t70.5 319q0 184 -70.5 317.5t-201.5 206t-313 72.5h-350v-500h463v-187h-463v-506z" />
    <glyph glyph-name="Ntilde" unicode="&#xd1;" horiz-adv-x="1717" 
d="M186 0v1597h280l830 -1268v1268h235v-1597h-280l-830 1267v-1267h-235zM1029 1735q-60 0 -107.5 22t-87 51.5t-74.5 51.5t-70 22q-42 0 -68 -33t-37 -89h-141q17 127 80.5 205t166.5 78q60 0 107.5 -22t87 -51.5t74.5 -51.5t70 -22q42 0 68.5 33t36.5 89h141
q-17 -127 -81 -205t-166 -78z" />
    <glyph glyph-name="Ograve" unicode="&#xd2;" horiz-adv-x="1879" 
d="M940 -39q-189 0 -345 62t-270 175t-176 266t-62 335t62 335t176 266t270 175t345 62q188 0 344.5 -62t270.5 -175t176 -266t62 -335t-62 -335t-176 -266t-270.5 -175t-344.5 -62zM940 175q176 0 309 78.5t207.5 219t74.5 326.5q0 187 -74.5 327t-207.5 218.5t-309 78.5
q-175 0 -308.5 -78.5t-208 -218.5t-74.5 -327q0 -186 74.5 -326.5t208 -219t308.5 -78.5zM818 1719l-422 340h303l356 -340h-237z" />
    <glyph glyph-name="Oacute" unicode="&#xd3;" horiz-adv-x="1879" 
d="M940 -39q-189 0 -345 62t-270 175t-176 266t-62 335t62 335t176 266t270 175t345 62q188 0 344.5 -62t270.5 -175t176 -266t62 -335t-62 -335t-176 -266t-270.5 -175t-344.5 -62zM940 175q176 0 309 78.5t207.5 219t74.5 326.5q0 187 -74.5 327t-207.5 218.5t-309 78.5
q-175 0 -308.5 -78.5t-208 -218.5t-74.5 -327q0 -186 74.5 -326.5t208 -219t308.5 -78.5zM1062 1719l422 340h-303l-356 -340h237z" />
    <glyph glyph-name="Ocircumflex" unicode="&#xd4;" horiz-adv-x="1879" 
d="M940 -39q-189 0 -345 62t-270 175t-176 266t-62 335t62 335t176 266t270 175t345 62q188 0 344.5 -62t270.5 -175t176 -266t62 -335t-62 -335t-176 -266t-270.5 -175t-344.5 -62zM940 175q176 0 309 78.5t207.5 219t74.5 326.5q0 187 -74.5 327t-207.5 218.5t-309 78.5
q-175 0 -308.5 -78.5t-208 -218.5t-74.5 -327q0 -186 74.5 -326.5t208 -219t308.5 -78.5zM534 1719l294 351h225l295 -351h-189l-193 186q-13 12 -25 12t-26 -12l-192 -186h-189z" />
    <glyph glyph-name="Otilde" unicode="&#xd5;" horiz-adv-x="1879" 
d="M940 -39q-189 0 -345 62t-270 175t-176 266t-62 335t62 335t176 266t270 175t345 62q188 0 344.5 -62t270.5 -175t176 -266t62 -335t-62 -335t-176 -266t-270.5 -175t-344.5 -62zM940 175q176 0 309 78.5t207.5 219t74.5 326.5q0 187 -74.5 327t-207.5 218.5t-309 78.5
q-175 0 -308.5 -78.5t-208 -218.5t-74.5 -327q0 -186 74.5 -326.5t208 -219t308.5 -78.5zM1109 1735q-60 0 -107.5 22t-87 51.5t-74.5 51.5t-70 22q-42 0 -68 -33t-37 -89h-141q17 127 80.5 205t166.5 78q60 0 107.5 -22t87 -51.5t74.5 -51.5t70 -22q42 0 68.5 33t36.5 89
h141q-17 -127 -81 -205t-166 -78z" />
    <glyph glyph-name="Odieresis" unicode="&#xd6;" horiz-adv-x="1879" 
d="M940 -39q-189 0 -345 62t-270 175t-176 266t-62 335t62 335t176 266t270 175t345 62q188 0 344.5 -62t270.5 -175t176 -266t62 -335t-62 -335t-176 -266t-270.5 -175t-344.5 -62zM940 175q176 0 309 78.5t207.5 219t74.5 326.5q0 187 -74.5 327t-207.5 218.5t-309 78.5
q-175 0 -308.5 -78.5t-208 -218.5t-74.5 -327q0 -186 74.5 -326.5t208 -219t308.5 -78.5zM1198 1765q-63 0 -101.5 39t-38.5 95t38.5 95.5t101.5 39.5q64 0 103 -39.5t39 -95.5t-39 -95t-103 -39zM681 1765q-63 0 -102 39t-39 95t39 95.5t102 39.5t102 -39.5t39 -95.5
t-39 -95t-102 -39z" />
    <glyph glyph-name="multiply" unicode="&#xd7;" horiz-adv-x="1384" 
d="M303 268l-130 126l393 406l-393 405l130 126l389 -401l389 401l130 -126l-393 -405l393 -406l-130 -126l-389 401z" />
    <glyph glyph-name="Oslash" unicode="&#xd8;" horiz-adv-x="1879" 
d="M131 -100l211 281q-120 113 -187.5 271t-67.5 347q0 182 62 335t176 266t270 175t345 62q120 0 227.5 -26t199.5 -74l122 161h262l-213 -282q121 -113 188 -271t67 -346q0 -182 -62 -335t-176 -266t-270.5 -175t-344.5 -62q-120 0 -228 26t-200 75l-122 -162h-259z
M337 799q0 -135 40 -247.5t113 -195.5l758 999q-136 76 -308 76q-179 0 -315 -79t-212 -221.5t-76 -331.5zM940 167q179 0 314.5 79.5t211.5 221.5t76 331q0 135 -40 247t-112 195l-758 -999q136 -75 308 -75z" />
    <glyph glyph-name="Ugrave" unicode="&#xd9;" horiz-adv-x="1655" 
d="M828 -40q-198 0 -346.5 72t-231 216t-82.5 361v988h249v-998q0 -214 106.5 -323t304.5 -109q197 0 303.5 109t106.5 323v998h249v-988q0 -217 -82 -361t-230 -216t-347 -72zM706 1719l-422 340h303l356 -340h-237z" />
    <glyph glyph-name="Uacute" unicode="&#xda;" horiz-adv-x="1655" 
d="M828 -40q-198 0 -346.5 72t-231 216t-82.5 361v988h249v-998q0 -214 106.5 -323t304.5 -109q197 0 303.5 109t106.5 323v998h249v-988q0 -217 -82 -361t-230 -216t-347 -72zM950 1719l422 340h-303l-356 -340h237z" />
    <glyph glyph-name="Ucircumflex" unicode="&#xdb;" horiz-adv-x="1655" 
d="M828 -40q-198 0 -346.5 72t-231 216t-82.5 361v988h249v-998q0 -214 106.5 -323t304.5 -109q197 0 303.5 109t106.5 323v998h249v-988q0 -217 -82 -361t-230 -216t-347 -72zM422 1719l294 351h225l295 -351h-189l-193 186q-13 12 -25 12t-26 -12l-192 -186h-189z" />
    <glyph glyph-name="Udieresis" unicode="&#xdc;" horiz-adv-x="1655" 
d="M828 -40q-198 0 -346.5 72t-231 216t-82.5 361v988h249v-998q0 -214 106.5 -323t304.5 -109q197 0 303.5 109t106.5 323v998h249v-988q0 -217 -82 -361t-230 -216t-347 -72zM1086 1765q-63 0 -101.5 39t-38.5 95t38.5 95.5t101.5 39.5q64 0 103 -39.5t39 -95.5t-39 -95
t-103 -39zM569 1765q-63 0 -102 39t-39 95t39 95.5t102 39.5t102 -39.5t39 -95.5t-39 -95t-102 -39z" />
    <glyph glyph-name="Yacute" unicode="&#xdd;" horiz-adv-x="1437" 
d="M599 0v646l-593 951h281l444 -735l431 735h259l-579 -952v-645h-243zM838 1719l422 340h-303l-356 -340h237z" />
    <glyph glyph-name="Thorn" unicode="&#xde;" horiz-adv-x="1430" 
d="M186 0v1597h248v-292h368q265 0 407.5 -137.5t142.5 -368.5t-142.5 -368.5t-408.5 -137.5h-367v-293h-248zM434 490h347q158 0 240 80t82 228q0 149 -82 229t-240 80h-347v-617z" />
    <glyph glyph-name="germandbls" unicode="&#xdf;" horiz-adv-x="1348" 
d="M821 -28q-84 0 -169.5 21t-139.5 56v181q62 -33 127.5 -51.5t135.5 -18.5q115 0 192.5 70t77.5 212q0 161 -115 246.5t-335 89.5v169q140 15 229 93t89 204q0 119 -68.5 190t-183.5 71q-133 0 -207 -81.5t-74 -228.5v-1195h-224l2 1175q0 249 134.5 384t373.5 135
q136 0 240.5 -53t164 -147.5t59.5 -221.5q0 -130 -71.5 -226.5t-199.5 -143.5q198 -39 307 -165.5t109 -312.5q0 -142 -61 -243.5t-164 -155t-229 -53.5z" />
    <glyph glyph-name="agrave" unicode="&#xe0;" horiz-adv-x="1272" 
d="M525 -36q-201 0 -323 100t-122 267q0 166 114.5 254.5t349.5 106.5q114 9 216 20.5t152 25.5v4q0 134 -69.5 207.5t-201.5 73.5q-118 0 -194 -54t-100 -146h-235q36 171 176.5 276t349.5 105q239 0 366.5 -124t127.5 -351v-729h-170q-1 32 -4.5 69t-8.5 59q-7 34 -25 34
q-15 0 -37 -30q-56 -79 -146 -123.5t-216 -44.5zM310 336q0 -91 68.5 -144t182.5 -53q93 0 171 35.5t125 133.5q24 50 39.5 113t15.5 145v8q-48 -14 -139.5 -26.5t-200.5 -22.5q-141 -13 -201.5 -57t-60.5 -132zM533 1310l-303 433h260l232 -433h-189z" />
    <glyph glyph-name="aacute" unicode="&#xe1;" horiz-adv-x="1272" 
d="M525 -36q-201 0 -323 100t-122 267q0 166 114.5 254.5t349.5 106.5q114 9 216 20.5t152 25.5v4q0 134 -69.5 207.5t-201.5 73.5q-118 0 -194 -54t-100 -146h-235q36 171 176.5 276t349.5 105q239 0 366.5 -124t127.5 -351v-729h-170q-1 32 -4.5 69t-8.5 59q-7 34 -25 34
q-15 0 -37 -30q-56 -79 -146 -123.5t-216 -44.5zM310 336q0 -91 68.5 -144t182.5 -53q93 0 171 35.5t125 133.5q24 50 39.5 113t15.5 145v8q-48 -14 -139.5 -26.5t-200.5 -22.5q-141 -13 -201.5 -57t-60.5 -132zM723 1310l303 433h-260l-232 -433h189z" />
    <glyph glyph-name="acircumflex" unicode="&#xe2;" horiz-adv-x="1272" 
d="M525 -36q-201 0 -323 100t-122 267q0 166 114.5 254.5t349.5 106.5q114 9 216 20.5t152 25.5v4q0 134 -69.5 207.5t-201.5 73.5q-118 0 -194 -54t-100 -146h-235q36 171 176.5 276t349.5 105q239 0 366.5 -124t127.5 -351v-729h-170q-1 32 -4.5 69t-8.5 59q-7 34 -25 34
q-15 0 -37 -30q-56 -79 -146 -123.5t-216 -44.5zM310 336q0 -91 68.5 -144t182.5 -53q93 0 171 35.5t125 133.5q24 50 39.5 113t15.5 145v8q-48 -14 -139.5 -26.5t-200.5 -22.5q-141 -13 -201.5 -57t-60.5 -132zM242 1310l297 433h178l297 -433h-165l-179 209q-23 27 -42 27
t-42 -27l-179 -209h-165z" />
    <glyph glyph-name="atilde" unicode="&#xe3;" horiz-adv-x="1272" 
d="M525 -36q-201 0 -323 100t-122 267q0 166 114.5 254.5t349.5 106.5q114 9 216 20.5t152 25.5v4q0 134 -69.5 207.5t-201.5 73.5q-118 0 -194 -54t-100 -146h-235q36 171 176.5 276t349.5 105q239 0 366.5 -124t127.5 -351v-729h-170q-1 32 -4.5 69t-8.5 59q-7 34 -25 34
q-15 0 -37 -30q-56 -79 -146 -123.5t-216 -44.5zM310 336q0 -91 68.5 -144t182.5 -53q93 0 171 35.5t125 133.5q24 50 39.5 113t15.5 145v8q-48 -14 -139.5 -26.5t-200.5 -22.5q-141 -13 -201.5 -57t-60.5 -132zM792 1324q-60 0 -107.5 22t-87 51.5t-74.5 51.5t-70 22
q-42 0 -68 -33t-37 -89h-141q17 127 80.5 205t166.5 78q60 0 107.5 -22t87 -51.5t74.5 -51.5t70 -22q42 0 68.5 33t36.5 89h141q-17 -127 -81 -205t-166 -78z" />
    <glyph glyph-name="adieresis" unicode="&#xe4;" horiz-adv-x="1272" 
d="M525 -36q-201 0 -323 100t-122 267q0 166 114.5 254.5t349.5 106.5q114 9 216 20.5t152 25.5v4q0 134 -69.5 207.5t-201.5 73.5q-118 0 -194 -54t-100 -146h-235q36 171 176.5 276t349.5 105q239 0 366.5 -124t127.5 -351v-729h-170q-1 32 -4.5 69t-8.5 59q-7 34 -25 34
q-15 0 -37 -30q-56 -79 -146 -123.5t-216 -44.5zM310 336q0 -91 68.5 -144t182.5 -53q93 0 171 35.5t125 133.5q24 50 39.5 113t15.5 145v8q-48 -14 -139.5 -26.5t-200.5 -22.5q-141 -13 -201.5 -57t-60.5 -132zM878 1333q-63 0 -101.5 39t-38.5 94q0 56 38.5 94.5
t101.5 38.5q62 0 101 -38.5t39 -94.5q0 -55 -39 -94t-101 -39zM377 1333q-62 0 -100.5 39t-38.5 94q0 56 38.5 94.5t100.5 38.5q64 0 102.5 -38.5t38.5 -94.5q0 -55 -38.5 -94t-102.5 -39z" />
    <glyph glyph-name="aring" unicode="&#xe5;" horiz-adv-x="1272" 
d="M525 -36q-201 0 -323 100t-122 267q0 166 114.5 254.5t349.5 106.5q114 9 216 20.5t152 25.5v4q0 134 -69.5 207.5t-201.5 73.5q-118 0 -194 -54t-100 -146h-235q36 171 176.5 276t349.5 105q239 0 366.5 -124t127.5 -351v-729h-170q-1 32 -4.5 69t-8.5 59q-7 34 -25 34
q-15 0 -37 -30q-56 -79 -146 -123.5t-216 -44.5zM310 336q0 -91 68.5 -144t182.5 -53q93 0 171 35.5t125 133.5q24 50 39.5 113t15.5 145v8q-48 -14 -139.5 -26.5t-200.5 -22.5q-141 -13 -201.5 -57t-60.5 -132zM628 1300q-113 0 -185.5 68t-72.5 174t72.5 174.5t185.5 68.5
t185.5 -68.5t72.5 -174.5t-72.5 -174t-185.5 -68zM628 1422q53 0 86 34t33 86q0 53 -33 86.5t-86 33.5q-52 0 -85.5 -33.5t-33.5 -86.5q0 -52 33.5 -86t85.5 -34z" />
    <glyph glyph-name="ae" unicode="&#xe6;" horiz-adv-x="2154" 
d="M569 -37q-147 1 -257.5 46t-172.5 129t-62 201q0 156 114.5 246t322.5 90h394v13q0 337 -278 337q-106 0 -181 -55t-98 -151h-235q35 171 170 278t343 106q149 0 258.5 -63t159.5 -178q71 116 191.5 179t270.5 63q171 0 298.5 -75t198 -206.5t70.5 -301.5q0 -25 -2 -57
t-5 -46h-927q7 -168 103 -270.5t262 -102.5q121 0 207 57.5t114 154.5h229q-43 -182 -190 -288t-356 -106q-172 0 -298.5 74.5t-188.5 204.5q-48 -132 -170 -206t-285 -73zM1506 1025q-157 0 -253 -96t-110 -254l710 -2q-4 158 -100 255t-247 97zM580 136q158 -1 237 90.5
t89 291.5h-346q-252 0 -252 -181q0 -91 73 -146t199 -55z" />
    <glyph glyph-name="ccedilla" unicode="&#xe7;" horiz-adv-x="1356" 
d="M700 -38q-182 0 -323 79.5t-221 220t-80 322.5t80 322t221 219.5t323 79.5q245 0 402 -131.5t193 -351.5h-231q-25 133 -120.5 210t-237.5 77q-119 0 -208.5 -53.5t-139.5 -149.5t-50 -222t50 -222t139.5 -150t208.5 -54q142 0 237.5 77t120.5 210h231
q-24 -146 -103 -254.5t-204 -168.5t-288 -60zM709 -530q-150 0 -234.5 84.5t-92.5 221.5h168q7 -76 48 -119.5t112 -43.5q61 0 95 31.5t34 87.5q0 63 -65.5 133.5t-190.5 134.5h184q107 -46 168 -121t61 -159q0 -110 -75.5 -180t-211.5 -70z" />
    <glyph glyph-name="egrave" unicode="&#xe8;" horiz-adv-x="1350" 
d="M690 -37q-182 0 -320 77.5t-215.5 217.5t-77.5 326q0 181 80 321t217 219.5t309 79.5q186 0 317.5 -77.5t201.5 -210.5t70 -300q0 -25 -2 -59.5t-4 -50.5h-956q12 -163 114 -262t266 -99q126 0 216 57.5t119 153.5h228q-42 -180 -193 -286.5t-370 -106.5zM688 1025
q-156 0 -258 -94t-119 -251h739q-6 154 -106 249.5t-256 95.5zM581 1314l-303 433h260l232 -433h-189z" />
    <glyph glyph-name="eacute" unicode="&#xe9;" horiz-adv-x="1350" 
d="M690 -37q-182 0 -320 77.5t-215.5 217.5t-77.5 326q0 181 80 321t217 219.5t309 79.5q186 0 317.5 -77.5t201.5 -210.5t70 -300q0 -25 -2 -59.5t-4 -50.5h-956q12 -163 114 -262t266 -99q126 0 216 57.5t119 153.5h228q-42 -180 -193 -286.5t-370 -106.5zM688 1025
q-156 0 -258 -94t-119 -251h739q-6 154 -106 249.5t-256 95.5zM771 1314l303 433h-260l-232 -433h189z" />
    <glyph glyph-name="ecircumflex" unicode="&#xea;" horiz-adv-x="1350" 
d="M690 -37q-182 0 -320 77.5t-215.5 217.5t-77.5 326q0 181 80 321t217 219.5t309 79.5q186 0 317.5 -77.5t201.5 -210.5t70 -300q0 -25 -2 -59.5t-4 -50.5h-956q12 -163 114 -262t266 -99q126 0 216 57.5t119 153.5h228q-42 -180 -193 -286.5t-370 -106.5zM688 1025
q-156 0 -258 -94t-119 -251h739q-6 154 -106 249.5t-256 95.5zM290 1314l297 433h178l297 -433h-165l-179 209q-23 27 -42 27t-42 -27l-179 -209h-165z" />
    <glyph glyph-name="edieresis" unicode="&#xeb;" horiz-adv-x="1350" 
d="M690 -37q-182 0 -320 77.5t-215.5 217.5t-77.5 326q0 181 80 321t217 219.5t309 79.5q186 0 317.5 -77.5t201.5 -210.5t70 -300q0 -25 -2 -59.5t-4 -50.5h-956q12 -163 114 -262t266 -99q126 0 216 57.5t119 153.5h228q-42 -180 -193 -286.5t-370 -106.5zM688 1025
q-156 0 -258 -94t-119 -251h739q-6 154 -106 249.5t-256 95.5zM926 1337q-63 0 -101.5 39t-38.5 94q0 56 38.5 94.5t101.5 38.5q62 0 101 -38.5t39 -94.5q0 -55 -39 -94t-101 -39zM425 1337q-62 0 -100.5 39t-38.5 94q0 56 38.5 94.5t100.5 38.5q64 0 102.5 -38.5
t38.5 -94.5q0 -55 -38.5 -94t-102.5 -39z" />
    <glyph glyph-name="igrave" unicode="&#xec;" horiz-adv-x="565" 
d="M181 0v1166h225v-1166h-225zM205 1313l-223 433h236l157 -433h-170z" />
    <glyph glyph-name="iacute" unicode="&#xed;" horiz-adv-x="544" 
d="M160 0v1166h225v-1166h-225zM360 1313l223 433h-236l-157 -433h170z" />
    <glyph glyph-name="icircumflex" unicode="&#xee;" horiz-adv-x="563" 
d="M179 0v1166h225v-1166h-225zM206 1746l-251 -433h149l146 206q23 32 41 32t41 -32l146 -206h149l-251 433h-170z" />
    <glyph glyph-name="idieresis" unicode="&#xef;" horiz-adv-x="544" 
d="M160 0v1166h225v-1166h-225zM466 1334q-63 0 -101.5 39.5t-38.5 94.5q0 56 38.5 95.5t101.5 39.5q64 0 103 -39.5t39 -95.5q0 -55 -39 -94.5t-103 -39.5zM77 1334q-63 0 -102 39.5t-39 94.5q0 56 39 95.5t102 39.5t102 -39.5t39 -95.5q0 -55 -39 -94.5t-102 -39.5z" />
    <glyph glyph-name="eth" unicode="&#xf0;" horiz-adv-x="1378" 
d="M676 -38q-174 0 -309.5 74t-213 204t-77.5 297q0 165 73.5 293t199.5 201.5t286 73.5q90 0 174 -27.5t137 -73.5q27 -22 39 -22q19 0 19 26t-15 70t-40 90q-53 101 -142 188l-358 -150l-1 137l249 104q-124 86 -267 128l165 104q159 -53 289 -154l297 124v-137l-193 -81
q137 -143 214.5 -343t80.5 -441q3 -213 -73 -366.5t-214 -236t-320 -82.5zM676 153q110 0 193.5 50t130.5 138t47 202q0 106 -47.5 190t-130.5 133t-191 49q-110 0 -194 -49t-131 -134.5t-47 -197.5q0 -111 47 -197t130.5 -135t192.5 -49z" />
    <glyph glyph-name="ntilde" unicode="&#xf1;" horiz-adv-x="1381" 
d="M157 0v1166h167q2 -28 5 -68t7 -64q8 -52 34 -52q11 0 19 5.5t21 24.5q66 91 160 141.5t227 50.5q210 0 326.5 -127.5t116.5 -362.5v-714h-226v686q0 153 -69 235.5t-195 82.5q-178 0 -273 -136q-94 -132 -94 -379v-489h-226zM862 1327q-60 0 -107.5 22t-87 51.5
t-74.5 51.5t-70 22q-42 0 -68 -33t-37 -89h-141q17 127 80.5 205t166.5 78q60 0 107.5 -22t87 -51.5t74.5 -51.5t70 -22q42 0 68.5 33t36.5 89h141q-17 -127 -81 -205t-166 -78z" />
    <glyph glyph-name="ograve" unicode="&#xf2;" horiz-adv-x="1426" 
d="M713 -38q-184 0 -328.5 80.5t-227 221t-82.5 320.5t82.5 320t227 220t328.5 80q185 0 329 -80t226.5 -220t82.5 -320t-82.5 -320.5t-226.5 -221t-329 -80.5zM713 158q120 0 211.5 54t143 150t51.5 222q0 125 -51.5 221t-143 150t-211.5 54t-211.5 -54t-143 -150
t-51.5 -221q0 -126 51.5 -222t143 -150t211.5 -54zM618 1313l-303 433h260l232 -433h-189z" />
    <glyph glyph-name="oacute" unicode="&#xf3;" horiz-adv-x="1426" 
d="M713 -38q-184 0 -328.5 80.5t-227 221t-82.5 320.5t82.5 320t227 220t328.5 80q185 0 329 -80t226.5 -220t82.5 -320t-82.5 -320.5t-226.5 -221t-329 -80.5zM713 158q120 0 211.5 54t143 150t51.5 222q0 125 -51.5 221t-143 150t-211.5 54t-211.5 -54t-143 -150
t-51.5 -221q0 -126 51.5 -222t143 -150t211.5 -54zM808 1313l303 433h-260l-232 -433h189z" />
    <glyph glyph-name="ocircumflex" unicode="&#xf4;" horiz-adv-x="1426" 
d="M713 -38q-184 0 -328.5 80.5t-227 221t-82.5 320.5t82.5 320t227 220t328.5 80q185 0 329 -80t226.5 -220t82.5 -320t-82.5 -320.5t-226.5 -221t-329 -80.5zM713 158q120 0 211.5 54t143 150t51.5 222q0 125 -51.5 221t-143 150t-211.5 54t-211.5 -54t-143 -150
t-51.5 -221q0 -126 51.5 -222t143 -150t211.5 -54zM327 1313l297 433h178l297 -433h-165l-179 209q-23 27 -42 27t-42 -27l-179 -209h-165z" />
    <glyph glyph-name="otilde" unicode="&#xf5;" horiz-adv-x="1426" 
d="M713 -38q-184 0 -328.5 80.5t-227 221t-82.5 320.5t82.5 320t227 220t328.5 80q185 0 329 -80t226.5 -220t82.5 -320t-82.5 -320.5t-226.5 -221t-329 -80.5zM713 158q120 0 211.5 54t143 150t51.5 222q0 125 -51.5 221t-143 150t-211.5 54t-211.5 -54t-143 -150
t-51.5 -221q0 -126 51.5 -222t143 -150t211.5 -54zM877 1327q-60 0 -107.5 22t-87 51.5t-74.5 51.5t-70 22q-42 0 -68 -33t-37 -89h-141q17 127 80.5 205t166.5 78q60 0 107.5 -22t87 -51.5t74.5 -51.5t70 -22q42 0 68.5 33t36.5 89h141q-17 -127 -81 -205t-166 -78z" />
    <glyph glyph-name="odieresis" unicode="&#xf6;" horiz-adv-x="1426" 
d="M713 -38q-184 0 -328.5 80.5t-227 221t-82.5 320.5t82.5 320t227 220t328.5 80q185 0 329 -80t226.5 -220t82.5 -320t-82.5 -320.5t-226.5 -221t-329 -80.5zM713 158q120 0 211.5 54t143 150t51.5 222q0 125 -51.5 221t-143 150t-211.5 54t-211.5 -54t-143 -150
t-51.5 -221q0 -126 51.5 -222t143 -150t211.5 -54zM963 1336q-63 0 -101.5 39t-38.5 94q0 56 38.5 94.5t101.5 38.5q62 0 101 -38.5t39 -94.5q0 -55 -39 -94t-101 -39zM462 1336q-62 0 -100.5 39t-38.5 94q0 56 38.5 94.5t100.5 38.5q64 0 102.5 -38.5t38.5 -94.5
q0 -55 -38.5 -94t-102.5 -39z" />
    <glyph glyph-name="divide" unicode="&#xf7;" horiz-adv-x="1384" 
d="M692 1053q-57 0 -92.5 36t-35.5 86t35.5 85t92.5 35t92.5 -35t35.5 -85t-34.5 -86t-93.5 -36zM175 664v189h1034v-189h-1034zM692 221q-57 0 -92.5 36t-35.5 85q0 50 35.5 85.5t92.5 35.5q59 0 93.5 -35.5t34.5 -85.5q0 -49 -35.5 -85t-92.5 -36z" />
    <glyph glyph-name="oslash" unicode="&#xf8;" horiz-adv-x="1426" 
d="M111 -100l160 223q-92 83 -144 201.5t-52 259.5q0 180 82.5 320t227 220t328.5 80q158 0 292 -62l90 125h220l-161 -223q92 -83 144.5 -201t52.5 -259q0 -180 -82.5 -320.5t-226.5 -221t-329 -80.5q-159 0 -293 62l-89 -124h-220zM295 584q0 -92 27.5 -169t77.5 -134
l502 698q-85 41 -189 41q-123 0 -217.5 -55.5t-147.5 -154t-53 -226.5zM713 147q124 0 218 55.5t147 154t53 227.5q0 91 -27.5 168t-78.5 134l-502 -698q86 -41 190 -41z" />
    <glyph glyph-name="ugrave" unicode="&#xf9;" horiz-adv-x="1375" 
d="M592 -38q-217 0 -334 128t-117 362v714h226v-685q0 -154 69.5 -236.5t199.5 -82.5q176 0 266 126q44 62 67.5 152t23.5 208v518h225v-1166h-167q-1 26 -4 62.5t-7 59.5q-8 53 -34 53q-10 0 -17.5 -5.5t-23.5 -25.5q-64 -87 -155 -134.5t-218 -47.5zM584 1313l-303 433
h260l232 -433h-189z" />
    <glyph glyph-name="uacute" unicode="&#xfa;" horiz-adv-x="1375" 
d="M592 -38q-217 0 -334 128t-117 362v714h226v-685q0 -154 69.5 -236.5t199.5 -82.5q176 0 266 126q44 62 67.5 152t23.5 208v518h225v-1166h-167q-1 26 -4 62.5t-7 59.5q-8 53 -34 53q-10 0 -17.5 -5.5t-23.5 -25.5q-64 -87 -155 -134.5t-218 -47.5zM774 1313l303 433
h-260l-232 -433h189z" />
    <glyph glyph-name="ucircumflex" unicode="&#xfb;" horiz-adv-x="1375" 
d="M592 -38q-217 0 -334 128t-117 362v714h226v-685q0 -154 69.5 -236.5t199.5 -82.5q176 0 266 126q44 62 67.5 152t23.5 208v518h225v-1166h-167q-1 26 -4 62.5t-7 59.5q-8 53 -34 53q-10 0 -17.5 -5.5t-23.5 -25.5q-64 -87 -155 -134.5t-218 -47.5zM293 1313l297 433h178
l297 -433h-165l-179 209q-23 27 -42 27t-42 -27l-179 -209h-165z" />
    <glyph glyph-name="udieresis" unicode="&#xfc;" horiz-adv-x="1375" 
d="M592 -38q-217 0 -334 128t-117 362v714h226v-685q0 -154 69.5 -236.5t199.5 -82.5q176 0 266 126q44 62 67.5 152t23.5 208v518h225v-1166h-167q-1 26 -4 62.5t-7 59.5q-8 53 -34 53q-10 0 -17.5 -5.5t-23.5 -25.5q-64 -87 -155 -134.5t-218 -47.5zM929 1336
q-63 0 -101.5 39t-38.5 94q0 56 38.5 94.5t101.5 38.5q62 0 101 -38.5t39 -94.5q0 -55 -39 -94t-101 -39zM428 1336q-62 0 -100.5 39t-38.5 94q0 56 38.5 94.5t100.5 38.5q64 0 102.5 -38.5t38.5 -94.5q0 -55 -38.5 -94t-102.5 -39z" />
    <glyph glyph-name="yacute" unicode="&#xfd;" horiz-adv-x="1240" 
d="M295 -497l211 497l-495 1166h253l368 -914l361 914h235l-700 -1663h-233zM723 1313l303 433h-260l-232 -433h189z" />
    <glyph glyph-name="thorn" unicode="&#xfe;" horiz-adv-x="1489" 
d="M157 -497v2156h226v-570q0 -48 27 -48q12 0 42 27q142 136 368 136q168 0 302.5 -80t212.5 -220t78 -320t-78 -320t-212.5 -220.5t-302.5 -80.5q-226 0 -368 136q-30 27 -42 27q-27 0 -27 -48v-575h-226zM777 159q119 0 209.5 54t141.5 150t51 221t-51 221t-141.5 150
t-209.5 54t-210 -54t-142 -149.5t-51 -221.5t51 -221.5t142 -149.5t210 -54z" />
    <glyph glyph-name="ydieresis" unicode="&#xff;" horiz-adv-x="1240" 
d="M295 -497l211 497l-495 1166h253l368 -914l361 914h235l-700 -1663h-233zM878 1336q-63 0 -101.5 39t-38.5 94q0 56 38.5 94.5t101.5 38.5q62 0 101 -38.5t39 -94.5q0 -55 -39 -94t-101 -39zM377 1336q-62 0 -100.5 39t-38.5 94q0 56 38.5 94.5t100.5 38.5
q64 0 102.5 -38.5t38.5 -94.5q0 -55 -38.5 -94t-102.5 -39z" />
    <glyph glyph-name="Amacron" unicode="&#x100;" horiz-adv-x="1538" 
d="M11 0l590 1597h337l589 -1597h-272l-148 409h-686l-148 -409h-262zM477 597h573l-287 812zM420 1764v162h688v-162h-688z" />
    <glyph glyph-name="amacron" unicode="&#x101;" horiz-adv-x="1272" 
d="M525 -36q-201 0 -323 100t-122 267q0 166 114.5 254.5t349.5 106.5q114 9 216 20.5t152 25.5v4q0 134 -69.5 207.5t-201.5 73.5q-118 0 -194 -54t-100 -146h-235q36 171 176.5 276t349.5 105q239 0 366.5 -124t127.5 -351v-729h-170q-1 32 -4.5 69t-8.5 59q-7 34 -25 34
q-15 0 -37 -30q-56 -79 -146 -123.5t-216 -44.5zM310 336q0 -91 68.5 -144t182.5 -53q93 0 171 35.5t125 133.5q24 50 39.5 113t15.5 145v8q-48 -14 -139.5 -26.5t-200.5 -22.5q-141 -13 -201.5 -57t-60.5 -132zM284 1367v162h688v-162h-688z" />
    <glyph glyph-name="Abreve" unicode="&#x102;" horiz-adv-x="1538" 
d="M11 0l590 1597h337l589 -1597h-272l-148 409h-686l-148 -409h-262zM477 597h573l-287 812zM764 1719q-163 0 -263 85t-111 233h154q19 -79 73.5 -123t146.5 -44t146.5 44t73.5 123h154q-11 -148 -110.5 -233t-263.5 -85z" />
    <glyph glyph-name="abreve" unicode="&#x103;" horiz-adv-x="1272" 
d="M525 -36q-201 0 -323 100t-122 267q0 166 114.5 254.5t349.5 106.5q114 9 216 20.5t152 25.5v4q0 134 -69.5 207.5t-201.5 73.5q-118 0 -194 -54t-100 -146h-235q36 171 176.5 276t349.5 105q239 0 366.5 -124t127.5 -351v-729h-170q-1 32 -4.5 69t-8.5 59q-7 34 -25 34
q-15 0 -37 -30q-56 -79 -146 -123.5t-216 -44.5zM310 336q0 -91 68.5 -144t182.5 -53q93 0 171 35.5t125 133.5q24 50 39.5 113t15.5 145v8q-48 -14 -139.5 -26.5t-200.5 -22.5q-141 -13 -201.5 -57t-60.5 -132zM628 1325q-163 0 -263.5 90.5t-112.5 247.5h151
q18 -87 76 -136t149 -49q92 0 149.5 49t75.5 136h151q-12 -157 -112 -247.5t-264 -90.5z" />
    <glyph glyph-name="Aogonek" unicode="&#x104;" horiz-adv-x="1538" 
d="M11 0l590 1597h337l589 -1597h-272l-148 409h-686l-148 -409h-262zM477 597h573l-287 812zM1439 -515q-127 0 -204.5 60.5t-77.5 168.5q0 90 66 178.5t210 172.5l93 -65q-94 -79 -135.5 -136.5t-41.5 -113.5q0 -47 33 -73.5t91 -26.5q59 0 113 19v-159q-67 -25 -147 -25z
" />
    <glyph glyph-name="aogonek" unicode="&#x105;" horiz-adv-x="1272" 
d="M525 -36q-201 0 -323 100t-122 267q0 166 114.5 254.5t349.5 106.5q114 9 216 20.5t152 25.5v4q0 134 -69.5 207.5t-201.5 73.5q-118 0 -194 -54t-100 -146h-235q36 171 176.5 276t349.5 105q239 0 366.5 -124t127.5 -351v-729h-170q-1 32 -4.5 69t-8.5 59q-7 34 -25 34
q-15 0 -37 -30q-56 -79 -146 -123.5t-216 -44.5zM310 336q0 -91 68.5 -144t182.5 -53q93 0 171 35.5t125 133.5q24 50 39.5 113t15.5 145v8q-48 -14 -139.5 -26.5t-200.5 -22.5q-141 -13 -201.5 -57t-60.5 -132zM1047 -504q-121 0 -195 59.5t-74 164.5q0 84 56.5 164.5
t180.5 174.5l117 -59q-95 -79 -138 -136.5t-43 -113.5q0 -50 35 -76.5t93 -26.5q69 0 132 30l1 -144q-72 -37 -165 -37z" />
    <glyph glyph-name="Cacute" unicode="&#x106;" horiz-adv-x="1807" 
d="M931 -40q-185 0 -339.5 62.5t-267.5 175.5t-175 266.5t-62 334.5q0 182 62 335t175 266t267.5 175.5t339.5 62.5q220 0 390 -80.5t278 -227t140 -345.5h-260q-38 204 -180.5 322t-360.5 118q-177 0 -309.5 -79t-206 -219.5t-73.5 -327.5q0 -186 73.5 -327t206 -220
t309.5 -79q218 0 360.5 118t180.5 322h260q-32 -198 -140 -345t-278 -227.5t-390 -80.5zM1040 1719l422 340h-303l-356 -340h237z" />
    <glyph glyph-name="cacute" unicode="&#x107;" horiz-adv-x="1356" 
d="M700 -38q-182 0 -323 79.5t-221 220t-80 322.5t80 322t221 219.5t323 79.5q245 0 402 -131.5t193 -351.5h-231q-25 133 -120.5 210t-237.5 77q-119 0 -208.5 -53.5t-139.5 -149.5t-50 -222t50 -222t139.5 -150t208.5 -54q142 0 237.5 77t120.5 210h231
q-24 -146 -103 -254.5t-204 -168.5t-288 -60zM790 1313l303 433h-260l-232 -433h189z" />
    <glyph glyph-name="Ccircumflex" unicode="&#x108;" horiz-adv-x="1807" 
d="M931 -40q-185 0 -339.5 62.5t-267.5 175.5t-175 266.5t-62 334.5q0 182 62 335t175 266t267.5 175.5t339.5 62.5q220 0 390 -80.5t278 -227t140 -345.5h-260q-38 204 -180.5 322t-360.5 118q-177 0 -309.5 -79t-206 -219.5t-73.5 -327.5q0 -186 73.5 -327t206 -220
t309.5 -79q218 0 360.5 118t180.5 322h260q-32 -198 -140 -345t-278 -227.5t-390 -80.5zM512 1719l294 351h225l295 -351h-189l-193 186q-13 12 -25 12t-26 -12l-192 -186h-189z" />
    <glyph glyph-name="ccircumflex" unicode="&#x109;" horiz-adv-x="1356" 
d="M700 -38q-182 0 -323 79.5t-221 220t-80 322.5t80 322t221 219.5t323 79.5q245 0 402 -131.5t193 -351.5h-231q-25 133 -120.5 210t-237.5 77q-119 0 -208.5 -53.5t-139.5 -149.5t-50 -222t50 -222t139.5 -150t208.5 -54q142 0 237.5 77t120.5 210h231
q-24 -146 -103 -254.5t-204 -168.5t-288 -60zM309 1313l297 433h178l297 -433h-165l-179 209q-23 27 -42 27t-42 -27l-179 -209h-165z" />
    <glyph glyph-name="Cdotaccent" unicode="&#x10a;" horiz-adv-x="1807" 
d="M931 -40q-185 0 -339.5 62.5t-267.5 175.5t-175 266.5t-62 334.5q0 182 62 335t175 266t267.5 175.5t339.5 62.5q220 0 390 -80.5t278 -227t140 -345.5h-260q-38 204 -180.5 322t-360.5 118q-177 0 -309.5 -79t-206 -219.5t-73.5 -327.5q0 -186 73.5 -327t206 -220
t309.5 -79q218 0 360.5 118t180.5 322h260q-32 -198 -140 -345t-278 -227.5t-390 -80.5zM917 1747q-63 0 -101.5 39t-38.5 95t38.5 95t101.5 39q64 0 102.5 -39t38.5 -95t-38.5 -95t-102.5 -39z" />
    <glyph glyph-name="cdotaccent" unicode="&#x10b;" horiz-adv-x="1356" 
d="M700 -38q-182 0 -323 79.5t-221 220t-80 322.5t80 322t221 219.5t323 79.5q245 0 402 -131.5t193 -351.5h-231q-25 133 -120.5 210t-237.5 77q-119 0 -208.5 -53.5t-139.5 -149.5t-50 -222t50 -222t139.5 -150t208.5 -54q142 0 237.5 77t120.5 210h231
q-24 -146 -103 -254.5t-204 -168.5t-288 -60zM694 1339q-64 0 -102.5 39.5t-38.5 95.5q0 57 38.5 96.5t102.5 39.5t103 -39.5t39 -96.5q0 -56 -39 -95.5t-103 -39.5z" />
    <glyph glyph-name="Ccaron" unicode="&#x10c;" horiz-adv-x="1807" 
d="M931 -40q-185 0 -339.5 62.5t-267.5 175.5t-175 266.5t-62 334.5q0 182 62 335t175 266t267.5 175.5t339.5 62.5q220 0 390 -80.5t278 -227t140 -345.5h-260q-38 204 -180.5 322t-360.5 118q-177 0 -309.5 -79t-206 -219.5t-73.5 -327.5q0 -186 73.5 -327t206 -220
t309.5 -79q218 0 360.5 118t180.5 322h260q-32 -198 -140 -345t-278 -227.5t-390 -80.5zM511 2069l294 -351h225l295 351h-189l-193 -186q-13 -12 -25 -12t-26 12l-192 186h-189z" />
    <glyph glyph-name="ccaron" unicode="&#x10d;" horiz-adv-x="1356" 
d="M700 -38q-182 0 -323 79.5t-221 220t-80 322.5t80 322t221 219.5t323 79.5q245 0 402 -131.5t193 -351.5h-231q-25 133 -120.5 210t-237.5 77q-119 0 -208.5 -53.5t-139.5 -149.5t-50 -222t50 -222t139.5 -150t208.5 -54q142 0 237.5 77t120.5 210h231
q-24 -146 -103 -254.5t-204 -168.5t-288 -60zM309 1746l297 -433h178l297 433h-165l-179 -209q-23 -27 -42 -27t-42 27l-179 209h-165z" />
    <glyph glyph-name="Dcaron" unicode="&#x10e;" horiz-adv-x="1721" 
d="M186 0v1597h615q249 0 436 -99.5t291 -279t104 -419.5t-104 -419.5t-291 -279.5t-436 -100h-615zM436 202h350q182 0 313 72t201.5 206t70.5 319q0 184 -70.5 317.5t-201.5 206t-313 72.5h-350v-1193zM403 2069l294 -351h225l295 351h-189l-193 -186q-13 -12 -25 -12
t-26 12l-192 186h-189z" />
    <glyph glyph-name="dcaron" unicode="&#x10f;" horiz-adv-x="1614" 
d="M667 -37q-166 0 -300 80t-212.5 220t-78.5 319q0 180 78 320t213 220.5t307 80.5q126 0 224.5 -43t161.5 -116q14 -15 26 -15q20 0 20 33v597h226v-1659h-168q-1 26 -4 63.5t-8 65.5q-7 45 -30 45q-18 0 -47 -33q-71 -83 -171 -130.5t-237 -47.5zM712 159q119 0 209.5 54
t141.5 149.5t51 221.5q0 125 -51 220.5t-141.5 149.5t-209.5 54q-118 0 -209 -54.5t-142 -150t-51 -219.5q0 -125 51 -221t142 -150t209 -54zM1451 1130l40 529h218l-92 -529h-166z" />
    <glyph glyph-name="Dcroat" unicode="&#x110;" horiz-adv-x="1811" 
d="M276 0v708h-255v187h255v702h614q249 0 436.5 -99.5t291.5 -279t104 -419.5t-104 -419.5t-291.5 -279.5t-436.5 -100h-614zM525 202h350q182 0 313 72t201.5 206t70.5 319q0 184 -70.5 317.5t-201.5 206t-313 72.5h-350v-500h463v-187h-463v-506z" />
    <glyph glyph-name="dcroat" unicode="&#x111;" horiz-adv-x="1488" 
d="M667 -37q-166 0 -300 80t-212.5 220t-78.5 319q0 180 78 320t213 220.5t307 80.5q126 0 224.5 -43t161.5 -116q14 -15 26 -15q20 0 20 33v273h-390v150h390v174h226v-174h163v-150h-163v-1335h-168q-1 26 -4 63.5t-8 65.5q-7 45 -30 45q-18 0 -47 -33
q-71 -83 -171 -130.5t-237 -47.5zM712 159q119 0 209.5 54t141.5 149.5t51 221.5q0 125 -51 220.5t-141.5 149.5t-209.5 54q-118 0 -209 -54.5t-142 -150t-51 -219.5q0 -125 51 -221t142 -150t209 -54z" />
    <glyph glyph-name="Emacron" unicode="&#x112;" horiz-adv-x="1342" 
d="M186 0v1597h1045v-204h-799v-483h695v-200h-695v-506h840v-204h-1086zM373 1764v162h688v-162h-688z" />
    <glyph glyph-name="emacron" unicode="&#x113;" horiz-adv-x="1350" 
d="M690 -37q-182 0 -320 77.5t-215.5 217.5t-77.5 326q0 181 80 321t217 219.5t309 79.5q186 0 317.5 -77.5t201.5 -210.5t70 -300q0 -25 -2 -59.5t-4 -50.5h-956q12 -163 114 -262t266 -99q126 0 216 57.5t119 153.5h228q-42 -180 -193 -286.5t-370 -106.5zM688 1025
q-156 0 -258 -94t-119 -251h739q-6 154 -106 249.5t-256 95.5zM332 1371v162h688v-162h-688z" />
    <glyph glyph-name="Ebreve" unicode="&#x114;" horiz-adv-x="1342" 
d="M186 0v1597h1045v-204h-799v-483h695v-200h-695v-506h840v-204h-1086zM717 1719q-163 0 -263 85t-111 233h154q19 -79 73.5 -123t146.5 -44t146.5 44t73.5 123h154q-11 -148 -110.5 -233t-263.5 -85z" />
    <glyph glyph-name="ebreve" unicode="&#x115;" horiz-adv-x="1350" 
d="M690 -37q-182 0 -320 77.5t-215.5 217.5t-77.5 326q0 181 80 321t217 219.5t309 79.5q186 0 317.5 -77.5t201.5 -210.5t70 -300q0 -25 -2 -59.5t-4 -50.5h-956q12 -163 114 -262t266 -99q126 0 216 57.5t119 153.5h228q-42 -180 -193 -286.5t-370 -106.5zM688 1025
q-156 0 -258 -94t-119 -251h739q-6 154 -106 249.5t-256 95.5zM676 1329q-163 0 -263.5 90.5t-112.5 247.5h151q18 -87 76 -136t149 -49q92 0 149.5 49t75.5 136h151q-12 -157 -112 -247.5t-264 -90.5z" />
    <glyph glyph-name="Edotaccent" unicode="&#x116;" horiz-adv-x="1342" 
d="M186 0v1597h1045v-204h-799v-483h695v-200h-695v-506h840v-204h-1086zM716 1747q-63 0 -101.5 39t-38.5 95t38.5 95t101.5 39q64 0 102.5 -39t38.5 -95t-38.5 -95t-102.5 -39z" />
    <glyph glyph-name="edotaccent" unicode="&#x117;" horiz-adv-x="1350" 
d="M690 -37q-182 0 -320 77.5t-215.5 217.5t-77.5 326q0 181 80 321t217 219.5t309 79.5q186 0 317.5 -77.5t201.5 -210.5t70 -300q0 -25 -2 -59.5t-4 -50.5h-956q12 -163 114 -262t266 -99q126 0 216 57.5t119 153.5h228q-42 -180 -193 -286.5t-370 -106.5zM688 1025
q-156 0 -258 -94t-119 -251h739q-6 154 -106 249.5t-256 95.5zM675 1340q-64 0 -102.5 39.5t-38.5 95.5q0 57 38.5 96.5t102.5 39.5t103 -39.5t39 -96.5q0 -56 -39 -95.5t-103 -39.5z" />
    <glyph glyph-name="Eogonek" unicode="&#x118;" horiz-adv-x="1342" 
d="M186 0v1597h1045v-204h-799v-483h695v-200h-695v-506h840v-204h-1086zM1185 -515q-127 0 -204.5 60.5t-77.5 168.5q0 90 66 178.5t210 172.5l93 -65q-94 -79 -135.5 -136.5t-41.5 -113.5q0 -47 33 -73.5t91 -26.5q59 0 113 19v-159q-67 -25 -147 -25z" />
    <glyph glyph-name="eogonek" unicode="&#x119;" horiz-adv-x="1350" 
d="M690 -37q-182 0 -320 77.5t-215.5 217.5t-77.5 326q0 181 80 321t217 219.5t309 79.5q186 0 317.5 -77.5t201.5 -210.5t70 -300q0 -25 -2 -59.5t-4 -50.5h-956q12 -163 114 -262t266 -99q126 0 216 57.5t119 153.5h228q-42 -180 -193 -286.5t-370 -106.5zM688 1025
q-156 0 -258 -94t-119 -251h739q-6 154 -106 249.5t-256 95.5zM951 -486q-119 0 -193 59t-74 165q0 103 72 191.5t237 185.5l73 -51q-207 -143 -207 -283q0 -58 35 -85.5t93 -27.5q68 0 131 25l1 -144q-76 -35 -168 -35z" />
    <glyph glyph-name="Ecaron" unicode="&#x11a;" horiz-adv-x="1342" 
d="M186 0v1597h1045v-204h-799v-483h695v-200h-695v-506h840v-204h-1086zM310 2069l294 -351h225l295 351h-189l-193 -186q-13 -12 -25 -12t-26 12l-192 186h-189z" />
    <glyph glyph-name="ecaron" unicode="&#x11b;" horiz-adv-x="1350" 
d="M690 -37q-182 0 -320 77.5t-215.5 217.5t-77.5 326q0 181 80 321t217 219.5t309 79.5q186 0 317.5 -77.5t201.5 -210.5t70 -300q0 -25 -2 -59.5t-4 -50.5h-956q12 -163 114 -262t266 -99q126 0 216 57.5t119 153.5h228q-42 -180 -193 -286.5t-370 -106.5zM688 1025
q-156 0 -258 -94t-119 -251h739q-6 154 -106 249.5t-256 95.5zM290 1747l297 -433h178l297 433h-165l-179 -209q-23 -27 -42 -27t-42 27l-179 209h-165z" />
    <glyph glyph-name="Gcircumflex" unicode="&#x11c;" horiz-adv-x="1835" 
d="M895 -37q-173 0 -320 59t-256.5 169t-170 263.5t-60.5 341.5q0 186 63 340.5t177.5 266.5t270 173t340.5 61q207 0 372.5 -71.5t274.5 -205t144 -320.5h-263q-46 182 -182.5 283t-339.5 101q-173 0 -307.5 -76.5t-211 -216t-76.5 -329.5q0 -187 72.5 -328.5t204 -221
t308.5 -79.5q168 0 282.5 68.5t182.5 196.5q36 67 56.5 151.5t28.5 172.5h229v-762h-174q-3 54 -8 111t-10 88q-10 51 -36 51q-12 0 -22 -7t-27 -30q-88 -115 -225.5 -182.5t-316.5 -67.5zM519 1719l294 351h225l295 -351h-189l-193 186q-13 12 -25 12t-26 -12l-192 -186
h-189z" />
    <glyph glyph-name="gcircumflex" unicode="&#x11d;" horiz-adv-x="1451" 
d="M718 -514q-161 0 -285 55.5t-204 152.5t-112 223h231q33 -119 133.5 -186.5t236.5 -67.5q173 0 266 90.5t93 259.5v141q0 33 -21 33q-10 0 -29 -19q-65 -70 -160 -107.5t-208 -37.5q-168 0 -299 76t-206 208t-75 301q0 176 76.5 310t205.5 209t287 75q128 0 223.5 -44
t169.5 -126q29 -30 46 -30q23 0 30 44q5 29 7.5 64t3.5 56h168v-1145q0 -167 -70.5 -287t-200 -184t-307.5 -64zM697 210q114 0 200.5 50.5t135.5 140t49 207.5t-48.5 208t-135.5 140.5t-201 50.5t-200.5 -51t-135.5 -140.5t-49 -207.5q0 -116 49 -206t135.5 -141t200.5 -51
zM345 1313l297 433h178l297 -433h-165l-179 209q-23 27 -42 27t-42 -27l-179 -209h-165z" />
    <glyph glyph-name="Gbreve" unicode="&#x11e;" horiz-adv-x="1835" 
d="M895 -37q-173 0 -320 59t-256.5 169t-170 263.5t-60.5 341.5q0 186 63 340.5t177.5 266.5t270 173t340.5 61q207 0 372.5 -71.5t274.5 -205t144 -320.5h-263q-46 182 -182.5 283t-339.5 101q-173 0 -307.5 -76.5t-211 -216t-76.5 -329.5q0 -187 72.5 -328.5t204 -221
t308.5 -79.5q168 0 282.5 68.5t182.5 196.5q36 67 56.5 151.5t28.5 172.5h229v-762h-174q-3 54 -8 111t-10 88q-10 51 -36 51q-12 0 -22 -7t-27 -30q-88 -115 -225.5 -182.5t-316.5 -67.5zM925 1719q-163 0 -263 85t-111 233h154q19 -79 73.5 -123t146.5 -44t146.5 44
t73.5 123h154q-11 -148 -110.5 -233t-263.5 -85z" />
    <glyph glyph-name="gbreve" unicode="&#x11f;" horiz-adv-x="1451" 
d="M718 -514q-161 0 -285 55.5t-204 152.5t-112 223h231q33 -119 133.5 -186.5t236.5 -67.5q173 0 266 90.5t93 259.5v141q0 33 -21 33q-10 0 -29 -19q-65 -70 -160 -107.5t-208 -37.5q-168 0 -299 76t-206 208t-75 301q0 176 76.5 310t205.5 209t287 75q128 0 223.5 -44
t169.5 -126q29 -30 46 -30q23 0 30 44q5 29 7.5 64t3.5 56h168v-1145q0 -167 -70.5 -287t-200 -184t-307.5 -64zM697 210q114 0 200.5 50.5t135.5 140t49 207.5t-48.5 208t-135.5 140.5t-201 50.5t-200.5 -51t-135.5 -140.5t-49 -207.5q0 -116 49 -206t135.5 -141t200.5 -51
zM731 1328q-163 0 -263.5 90.5t-112.5 247.5h151q18 -87 76 -136t149 -49q92 0 149.5 49t75.5 136h151q-12 -157 -112 -247.5t-264 -90.5z" />
    <glyph glyph-name="Gdotaccent" unicode="&#x120;" horiz-adv-x="1835" 
d="M895 -37q-173 0 -320 59t-256.5 169t-170 263.5t-60.5 341.5q0 186 63 340.5t177.5 266.5t270 173t340.5 61q207 0 372.5 -71.5t274.5 -205t144 -320.5h-263q-46 182 -182.5 283t-339.5 101q-173 0 -307.5 -76.5t-211 -216t-76.5 -329.5q0 -187 72.5 -328.5t204 -221
t308.5 -79.5q168 0 282.5 68.5t182.5 196.5q36 67 56.5 151.5t28.5 172.5h229v-762h-174q-3 54 -8 111t-10 88q-10 51 -36 51q-12 0 -22 -7t-27 -30q-88 -115 -225.5 -182.5t-316.5 -67.5zM924 1747q-63 0 -101.5 39t-38.5 95t38.5 95t101.5 39q64 0 102.5 -39t38.5 -95
t-38.5 -95t-102.5 -39z" />
    <glyph glyph-name="gdotaccent" unicode="&#x121;" horiz-adv-x="1451" 
d="M718 -514q-161 0 -285 55.5t-204 152.5t-112 223h231q33 -119 133.5 -186.5t236.5 -67.5q173 0 266 90.5t93 259.5v141q0 33 -21 33q-10 0 -29 -19q-65 -70 -160 -107.5t-208 -37.5q-168 0 -299 76t-206 208t-75 301q0 176 76.5 310t205.5 209t287 75q128 0 223.5 -44
t169.5 -126q29 -30 46 -30q23 0 30 44q5 29 7.5 64t3.5 56h168v-1145q0 -167 -70.5 -287t-200 -184t-307.5 -64zM697 210q114 0 200.5 50.5t135.5 140t49 207.5t-48.5 208t-135.5 140.5t-201 50.5t-200.5 -51t-135.5 -140.5t-49 -207.5q0 -116 49 -206t135.5 -141t200.5 -51
zM730 1339q-64 0 -102.5 39.5t-38.5 95.5q0 57 38.5 96.5t102.5 39.5t103 -39.5t39 -96.5q0 -56 -39 -95.5t-103 -39.5z" />
    <glyph glyph-name="uni0122" unicode="&#x122;" horiz-adv-x="1835" 
d="M895 -37q-173 0 -320 59t-256.5 169t-170 263.5t-60.5 341.5q0 186 63 340.5t177.5 266.5t270 173t340.5 61q207 0 372.5 -71.5t274.5 -205t144 -320.5h-263q-46 182 -182.5 283t-339.5 101q-173 0 -307.5 -76.5t-211 -216t-76.5 -329.5q0 -187 72.5 -328.5t204 -221
t308.5 -79.5q168 0 282.5 68.5t182.5 196.5q36 67 56.5 151.5t28.5 172.5h229v-762h-174q-3 54 -8 111t-10 88q-10 51 -36 51q-12 0 -22 -7t-27 -30q-88 -115 -225.5 -182.5t-316.5 -67.5zM833 -539l86 419h210l-137 -419h-159z" />
    <glyph glyph-name="uni0123" unicode="&#x123;" horiz-adv-x="1451" 
d="M718 -514q-161 0 -285 55.5t-204 152.5t-112 223h231q33 -119 133.5 -186.5t236.5 -67.5q173 0 266 90.5t93 259.5v141q0 33 -21 33q-10 0 -29 -19q-65 -70 -160 -107.5t-208 -37.5q-168 0 -299 76t-206 208t-75 301q0 176 76.5 310t205.5 209t287 75q128 0 223.5 -44
t169.5 -126q29 -30 46 -30q23 0 30 44q5 29 7.5 64t3.5 56h168v-1145q0 -167 -70.5 -287t-200 -184t-307.5 -64zM697 210q114 0 200.5 50.5t135.5 140t49 207.5t-48.5 208t-135.5 140.5t-201 50.5t-200.5 -51t-135.5 -140.5t-49 -207.5q0 -116 49 -206t135.5 -141t200.5 -51
zM927 1771l-95 -458h-210l150 458h155z" />
    <glyph glyph-name="Hcircumflex" unicode="&#x124;" horiz-adv-x="1684" 
d="M186 0v1597h250v-687h813v687h249v-1597h-249v707h-813v-707h-250zM437 1719l294 351h225l295 -351h-189l-193 186q-13 12 -25 12t-26 -12l-192 -186h-189z" />
    <glyph glyph-name="hcircumflex" unicode="&#x125;" horiz-adv-x="1381" 
d="M157 0v1659h226v-624q0 -34 20 -34q9 0 15.5 5.5t21.5 24.5q62 81 151 127t213 46q205 0 320.5 -127.5t115.5 -363.5v-713h-226v686q0 153 -69 235.5t-195 82.5q-178 0 -273 -136q-94 -132 -94 -379v-489h-226zM-136 1781l294 351h225l295 -351h-189l-193 186
q-13 12 -25 12t-26 -12l-192 -186h-189z" />
    <glyph glyph-name="Hbar" unicode="&#x126;" horiz-adv-x="1833" 
d="M261 0v1167h-233v163h233v267h249v-267h813v267h250v-267h232v-163h-232v-1167h-250v704h-813v-704h-249zM510 900h813v267h-813v-267z" />
    <glyph glyph-name="hbar" unicode="&#x127;" horiz-adv-x="1381" 
d="M157 0v1335h-189v150h189v174h226v-174h364v-150h-364v-300q0 -34 20 -34q9 0 15.5 5.5t21.5 24.5q62 81 151 127t213 46q205 0 320.5 -127.5t115.5 -363.5v-713h-226v686q0 153 -69 235.5t-195 82.5q-178 0 -273 -136q-94 -132 -94 -379v-489h-226z" />
    <glyph glyph-name="Itilde" unicode="&#x128;" horiz-adv-x="622" 
d="M186 0v1597h250v-1597h-250zM481 1735q-60 0 -107.5 22t-87 51.5t-74.5 51.5t-70 22q-42 0 -68 -33t-37 -89h-141q17 127 80.5 205t166.5 78q60 0 107.5 -22t87 -51.5t74.5 -51.5t70 -22q42 0 68.5 33t36.5 89h141q-17 -127 -81 -205t-166 -78z" />
    <glyph glyph-name="itilde" unicode="&#x129;" horiz-adv-x="563" 
d="M179 0v1166h225v-1166h-225zM433 1349q-50 0 -90 20t-72.5 45.5t-61.5 45.5t-58 20q-65 0 -79 -110h-137q8 113 64 190t150 77q50 0 90 -20t72.5 -45.5t61.5 -45.5t58 -20q65 0 79 110h137q-8 -113 -63.5 -190t-150.5 -77z" />
    <glyph glyph-name="Imacron" unicode="&#x12a;" horiz-adv-x="622" 
d="M186 0v1597h250v-1597h-250zM-32 1764v162h688v-162h-688z" />
    <glyph glyph-name="imacron" unicode="&#x12b;" horiz-adv-x="544" 
d="M160 0v1166h225v-1166h-225zM21 1370v162h502v-162h-502z" />
    <glyph glyph-name="Ibreve" unicode="&#x12c;" horiz-adv-x="622" 
d="M186 0v1597h250v-1597h-250zM312 1719q-163 0 -263 85t-111 233h154q19 -79 73.5 -123t146.5 -44t146.5 44t73.5 123h154q-11 -148 -110.5 -233t-263.5 -85z" />
    <glyph glyph-name="ibreve" unicode="&#x12d;" horiz-adv-x="565" 
d="M181 0v1166h225v-1166h-225zM292 1328q-153 0 -232 95t-77 243h135q7 -91 49.5 -141t124.5 -50t124.5 50t49.5 141h135q2 -148 -77 -243t-232 -95z" />
    <glyph glyph-name="Iogonek" unicode="&#x12e;" horiz-adv-x="622" 
d="M186 0v1597h250v-1597h-250zM349 -515q-127 0 -204.5 60.5t-77.5 168.5q0 90 66 178.5t210 172.5l93 -65q-94 -79 -135.5 -136.5t-41.5 -113.5q0 -47 33 -73.5t91 -26.5q59 0 113 19v-159q-67 -25 -147 -25z" />
    <glyph glyph-name="iogonek" unicode="&#x12f;" horiz-adv-x="544" 
d="M160 0v1166h225v-1166h-225zM271 1339q-64 0 -102.5 39.5t-38.5 95.5q0 57 38.5 96.5t102.5 39.5t103 -39.5t39 -96.5q0 -56 -39 -95.5t-103 -39.5zM300 -504q-121 0 -195 59.5t-74 164.5q0 84 56.5 164.5t180.5 174.5l117 -59q-95 -79 -138 -136.5t-43 -113.5
q0 -50 35 -76.5t93 -26.5q69 0 132 30l1 -144q-72 -37 -165 -37z" />
    <glyph glyph-name="Idotaccent" unicode="&#x130;" horiz-adv-x="622" 
d="M186 0v1597h250v-1597h-250zM311 1747q-63 0 -101.5 39t-38.5 95t38.5 95t101.5 39q64 0 102.5 -39t38.5 -95t-38.5 -95t-102.5 -39z" />
    <glyph glyph-name="dotlessi" unicode="&#x131;" horiz-adv-x="544" 
d="M160 0v1166h225v-1166h-225z" />
    <glyph glyph-name="IJ" unicode="&#x132;" horiz-adv-x="1577" 
d="M168 706v891h249v-891h-249zM816 -40q-263 0 -437 150.5t-214 420.5h254q32 -177 133 -271t264 -94q342 0 342 398v1033h250v-1030q0 -285 -153 -446t-439 -161z" />
    <glyph glyph-name="ij" unicode="&#x133;" horiz-adv-x="1090" 
d="M273 1367q-66 0 -108.5 40.5t-42.5 101.5t42.5 101t108.5 40q65 0 107.5 -40t42.5 -101t-42.5 -101.5t-107.5 -40.5zM160 0v1166h226v-1166h-226zM818 1367q-66 0 -108.5 40.5t-42.5 101.5t42.5 101t108.5 40q65 0 107.5 -40t42.5 -101t-42.5 -101.5t-107.5 -40.5z
M705 -487v1653h226v-1653h-226z" />
    <glyph glyph-name="Jcircumflex" unicode="&#x134;" horiz-adv-x="1439" 
d="M678 -40q-263 0 -436.5 150.5t-214.5 420.5h255q31 -177 132.5 -271t264.5 -94q342 0 342 398v1033h249v-1030q0 -285 -153 -446t-439 -161zM739 1719l294 351h225l295 -351h-189l-193 186q-13 12 -25 12t-26 -12l-192 -186h-189z" />
    <glyph glyph-name="jcircumflex" unicode="&#x135;" horiz-adv-x="565" 
d="M180 -487v1653h225v-1653h-225zM207 1746l-251 -433h149l146 206q23 32 41 32t41 -32l146 -206h149l-251 433h-170z" />
    <glyph glyph-name="uni0136" unicode="&#x136;" horiz-adv-x="1461" 
d="M186 0v1597h250v-774l723 774h298l-734 -777l763 -820h-326l-724 787v-787h-250zM582 -539l86 419h210l-137 -419h-159z" />
    <glyph glyph-name="uni0137" unicode="&#x137;" horiz-adv-x="1200" 
d="M157 0v1659h226v-1058l527 565h285l-544 -570l573 -596h-304l-537 567v-567h-226zM445 -611l95 458h210l-150 -458h-155z" />
    <glyph glyph-name="Lacute" unicode="&#x139;" horiz-adv-x="1222" 
d="M186 0v1597h250v-1392h758v-205h-1008zM433 1719l422 340h-303l-356 -340h237z" />
    <glyph glyph-name="lacute" unicode="&#x13a;" horiz-adv-x="545" 
d="M160 0v1659h226v-1659h-226zM169 1781l243 340h262l-295 -340h-210z" />
    <glyph glyph-name="uni013B" unicode="&#x13b;" horiz-adv-x="1222" 
d="M186 0v1597h250v-1392h758v-205h-1008zM529 -539l86 419h210l-137 -419h-159z" />
    <glyph glyph-name="uni013C" unicode="&#x13c;" horiz-adv-x="545" 
d="M160 0v1659h226v-1659h-226zM73 -611l95 458h210l-150 -458h-155z" />
    <glyph glyph-name="Lcaron" unicode="&#x13d;" horiz-adv-x="1222" 
d="M186 0v1597h250v-1392h758v-205h-1008zM695 1068l40 529h218l-92 -529h-166z" />
    <glyph glyph-name="lcaron" unicode="&#x13e;" horiz-adv-x="652" 
d="M160 0v1659h226v-1659h-226zM505 1130l40 529h218l-92 -529h-166z" />
    <glyph glyph-name="Ldot" unicode="&#x13f;" horiz-adv-x="1228" 
d="M186 0v1597h250v-1392h758v-205h-1008zM885 717q-67 0 -107 41t-40 99q0 59 40 100t107 41t107 -41t40 -100q0 -58 -40 -99t-107 -41z" />
    <glyph glyph-name="ldot" unicode="&#x140;" horiz-adv-x="794" 
d="M160 0v1659h226v-1659h-226zM664 689q-66 0 -106 41t-40 99q0 59 40 100t106 41q67 0 107.5 -41t40.5 -100q0 -58 -40.5 -99t-107.5 -41z" />
    <glyph glyph-name="Lslash" unicode="&#x141;" horiz-adv-x="1330" 
d="M293 0v504l-228 -122v204l228 122v889h249v-756l459 245v-205l-459 -245v-431h758v-205h-1007z" />
    <glyph glyph-name="lslash" unicode="&#x142;" horiz-adv-x="870" 
d="M339 0v669l-279 -153v189l279 152v802h226v-678l280 153v-188l-280 -153v-793h-226z" />
    <glyph glyph-name="Nacute" unicode="&#x143;" horiz-adv-x="1717" 
d="M186 0v1597h280l830 -1268v1268h235v-1597h-280l-830 1267v-1267h-235zM982 1719l422 340h-303l-356 -340h237z" />
    <glyph glyph-name="nacute" unicode="&#x144;" horiz-adv-x="1381" 
d="M157 0v1166h167q2 -28 5 -68t7 -64q8 -52 34 -52q11 0 19 5.5t21 24.5q66 91 160 141.5t227 50.5q210 0 326.5 -127.5t116.5 -362.5v-714h-226v686q0 153 -69 235.5t-195 82.5q-178 0 -273 -136q-94 -132 -94 -379v-489h-226zM793 1313l303 433h-260l-232 -433h189z" />
    <glyph glyph-name="uni0145" unicode="&#x145;" horiz-adv-x="1717" 
d="M186 0v1597h280l830 -1268v1268h235v-1597h-280l-830 1267v-1267h-235zM666 -539l86 419h210l-137 -419h-159z" />
    <glyph glyph-name="uni0146" unicode="&#x146;" horiz-adv-x="1381" 
d="M157 0v1166h167q2 -28 5 -68t7 -64q8 -52 34 -52q11 0 19 5.5t21 24.5q66 91 160 141.5t227 50.5q210 0 326.5 -127.5t116.5 -362.5v-714h-226v686q0 153 -69 235.5t-195 82.5q-178 0 -273 -136q-94 -132 -94 -379v-489h-226zM503 -611l95 458h210l-150 -458h-155z" />
    <glyph glyph-name="Ncaron" unicode="&#x147;" horiz-adv-x="1717" 
d="M186 0v1597h280l830 -1268v1268h235v-1597h-280l-830 1267v-1267h-235zM453 2069l294 -351h225l295 351h-189l-193 -186q-13 -12 -25 -12t-26 12l-192 186h-189z" />
    <glyph glyph-name="ncaron" unicode="&#x148;" horiz-adv-x="1381" 
d="M157 0v1166h167q2 -28 5 -68t7 -64q8 -52 34 -52q11 0 19 5.5t21 24.5q66 91 160 141.5t227 50.5q210 0 326.5 -127.5t116.5 -362.5v-714h-226v686q0 153 -69 235.5t-195 82.5q-178 0 -273 -136q-94 -132 -94 -379v-489h-226zM312 1746l297 -433h178l297 433h-165
l-179 -209q-23 -27 -42 -27t-42 27l-179 209h-165z" />
    <glyph glyph-name="Eng" unicode="&#x14a;" horiz-adv-x="1736" 
d="M1170 -514q-73 0 -163 18t-163 52v193q59 -25 127.5 -40.5t145.5 -15.5q108 0 155.5 63t47.5 195v1002q0 222 -96.5 346t-271.5 124q-126 0 -219.5 -51t-159.5 -150q-67 -97 -103 -237.5t-36 -310.5v-674h-248v1597h186q0 -30 2.5 -72t6 -80.5t5.5 -58.5q10 -73 44 -73
q14 0 23.5 8.5t29.5 36.5q88 130 213.5 204.5t303.5 74.5q267 0 417.5 -171.5t150.5 -480.5v-1009q0 -257 -94.5 -373.5t-303.5 -116.5z" />
    <glyph glyph-name="eng" unicode="&#x14b;" horiz-adv-x="1381" 
d="M838 -514q-69 0 -140 16.5t-120 43.5v169q47 -20 98.5 -32t109.5 -12q228 0 228 232v783q0 153 -69 235.5t-195 82.5q-178 0 -273 -136q-94 -132 -94 -379v-489h-226v1166h167q2 -28 5 -68t7 -64q8 -52 34 -52q11 0 19 5.5t21 24.5q66 91 160 141.5t227 50.5
q210 0 326.5 -127.5t116.5 -362.5v-822q0 -199 -101 -302.5t-301 -103.5z" />
    <glyph glyph-name="Omacron" unicode="&#x14c;" horiz-adv-x="1879" 
d="M940 -39q-189 0 -345 62t-270 175t-176 266t-62 335t62 335t176 266t270 175t345 62q188 0 344.5 -62t270.5 -175t176 -266t62 -335t-62 -335t-176 -266t-270.5 -175t-344.5 -62zM940 175q176 0 309 78.5t207.5 219t74.5 326.5q0 187 -74.5 327t-207.5 218.5t-309 78.5
q-175 0 -308.5 -78.5t-208 -218.5t-74.5 -327q0 -186 74.5 -326.5t208 -219t308.5 -78.5zM596 1764v162h688v-162h-688z" />
    <glyph glyph-name="omacron" unicode="&#x14d;" horiz-adv-x="1426" 
d="M713 -38q-184 0 -328.5 80.5t-227 221t-82.5 320.5t82.5 320t227 220t328.5 80q185 0 329 -80t226.5 -220t82.5 -320t-82.5 -320.5t-226.5 -221t-329 -80.5zM713 158q120 0 211.5 54t143 150t51.5 222q0 125 -51.5 221t-143 150t-211.5 54t-211.5 -54t-143 -150
t-51.5 -221q0 -126 51.5 -222t143 -150t211.5 -54zM369 1370v162h688v-162h-688z" />
    <glyph glyph-name="Obreve" unicode="&#x14e;" horiz-adv-x="1879" 
d="M940 -39q-189 0 -345 62t-270 175t-176 266t-62 335t62 335t176 266t270 175t345 62q188 0 344.5 -62t270.5 -175t176 -266t62 -335t-62 -335t-176 -266t-270.5 -175t-344.5 -62zM940 175q176 0 309 78.5t207.5 219t74.5 326.5q0 187 -74.5 327t-207.5 218.5t-309 78.5
q-175 0 -308.5 -78.5t-208 -218.5t-74.5 -327q0 -186 74.5 -326.5t208 -219t308.5 -78.5zM940 1719q-163 0 -263 85t-111 233h154q19 -79 73.5 -123t146.5 -44t146.5 44t73.5 123h154q-11 -148 -110.5 -233t-263.5 -85z" />
    <glyph glyph-name="obreve" unicode="&#x14f;" horiz-adv-x="1426" 
d="M713 -38q-184 0 -328.5 80.5t-227 221t-82.5 320.5t82.5 320t227 220t328.5 80q185 0 329 -80t226.5 -220t82.5 -320t-82.5 -320.5t-226.5 -221t-329 -80.5zM713 158q120 0 211.5 54t143 150t51.5 222q0 125 -51.5 221t-143 150t-211.5 54t-211.5 -54t-143 -150
t-51.5 -221q0 -126 51.5 -222t143 -150t211.5 -54zM713 1328q-163 0 -263.5 90.5t-112.5 247.5h151q18 -87 76 -136t149 -49q92 0 149.5 49t75.5 136h151q-12 -157 -112 -247.5t-264 -90.5z" />
    <glyph glyph-name="Ohungarumlaut" unicode="&#x150;" horiz-adv-x="1879" 
d="M940 -39q-189 0 -345 62t-270 175t-176 266t-62 335t62 335t176 266t270 175t345 62q188 0 344.5 -62t270.5 -175t176 -266t62 -335t-62 -335t-176 -266t-270.5 -175t-344.5 -62zM940 175q176 0 309 78.5t207.5 219t74.5 326.5q0 187 -74.5 327t-207.5 218.5t-309 78.5
q-175 0 -308.5 -78.5t-208 -218.5t-74.5 -327q0 -186 74.5 -326.5t208 -219t308.5 -78.5zM1054 1719l362 340h296l-420 -340h-238zM564 1719l347 340h296l-406 -340h-237z" />
    <glyph glyph-name="ohungarumlaut" unicode="&#x151;" horiz-adv-x="1426" 
d="M713 -38q-184 0 -328.5 80.5t-227 221t-82.5 320.5t82.5 320t227 220t328.5 80q185 0 329 -80t226.5 -220t82.5 -320t-82.5 -320.5t-226.5 -221t-329 -80.5zM713 158q120 0 211.5 54t143 150t51.5 222q0 125 -51.5 221t-143 150t-211.5 54t-211.5 -54t-143 -150
t-51.5 -221q0 -126 51.5 -222t143 -150t211.5 -54zM790 1313l260 433h243l-321 -433h-182zM396 1313l234 433h234l-285 -433h-183z" />
    <glyph glyph-name="OE" unicode="&#x152;" horiz-adv-x="2692" 
d="M930 -39q-185 0 -339.5 62t-267.5 174.5t-174.5 266t-61.5 335.5t61.5 335.5t174.5 266t267.5 174.5t339.5 62q192 0 349 -69t261 -195v224h1041v-204h-799v-483h695v-200h-695v-506h840v-204h-1082v225q-104 -126 -261 -195t-349 -69zM940 175q176 0 309 78.5t207.5 219
t74.5 326.5q0 187 -74.5 327t-207.5 218.5t-309 78.5q-175 0 -308.5 -78.5t-208 -218.5t-74.5 -327q0 -186 74.5 -326.5t208 -219t308.5 -78.5z" />
    <glyph glyph-name="oe" unicode="&#x153;" horiz-adv-x="2331" 
d="M698 -38q-180 0 -321 80.5t-221.5 221t-80.5 320.5q0 179 80.5 319t221.5 220.5t321 80.5q171 0 300.5 -70.5t198.5 -188.5q69 120 196.5 189.5t286.5 69.5q172 0 300.5 -74.5t200.5 -206t72 -302.5q0 -25 -2 -58t-5 -47h-941q8 -167 107.5 -269t265.5 -102
q123 0 211 57.5t116 154.5h229q-43 -182 -192.5 -288t-359.5 -106q-171 0 -296.5 67.5t-192.5 185.5q-69 -116 -197.5 -185t-297.5 -69zM1676 1025q-157 0 -256 -96t-114 -254l724 -2q-4 158 -102 255t-252 97zM707 158q120 0 209.5 54t139 150t49.5 222q0 125 -49.5 221
t-139 150t-209.5 54q-118 0 -208.5 -54t-141 -150t-50.5 -221q0 -126 50.5 -222t141 -150t208.5 -54z" />
    <glyph glyph-name="Racute" unicode="&#x154;" horiz-adv-x="1522" 
d="M186 0v1597h681q249 0 384 -112t135 -324q0 -140 -72.5 -243t-212.5 -144q111 -16 162.5 -81t69.5 -202l43 -330q8 -61 23.5 -103.5t30.5 -57.5h-255q-32 24 -44 128l-38 328q-13 121 -65.5 168.5t-186.5 47.5h-408v-672h-247zM433 857h396q310 0 310 270q0 273 -302 273
h-404v-543zM874 1719l422 340h-303l-356 -340h237z" />
    <glyph glyph-name="racute" unicode="&#x155;" horiz-adv-x="1022" 
d="M157 0v1166h165q2 -20 5.5 -51.5t7.5 -55.5q8 -45 31 -45q11 0 19.5 6t21.5 25q48 70 119.5 109.5t160.5 39.5q146 0 229 -98.5t82 -271.5q0 -18 -2 -42h-206q1 7 1.5 15t0.5 17q1 86 -39.5 138t-117.5 52q-137 0 -204 -149q-25 -55 -37 -127t-12 -159v-569h-225z
M626 1313l303 433h-260l-232 -433h189z" />
    <glyph glyph-name="uni0156" unicode="&#x156;" horiz-adv-x="1522" 
d="M186 0v1597h681q249 0 384 -112t135 -324q0 -140 -72.5 -243t-212.5 -144q111 -16 162.5 -81t69.5 -202l43 -330q8 -61 23.5 -103.5t30.5 -57.5h-255q-32 24 -44 128l-38 328q-13 121 -65.5 168.5t-186.5 47.5h-408v-672h-247zM433 857h396q310 0 310 270q0 273 -302 273
h-404v-543zM636 -539l86 419h210l-137 -419h-159z" />
    <glyph glyph-name="uni0157" unicode="&#x157;" horiz-adv-x="1022" 
d="M157 0v1166h165q2 -20 5.5 -51.5t7.5 -55.5q8 -45 31 -45q11 0 19.5 6t21.5 25q48 70 119.5 109.5t160.5 39.5q146 0 229 -98.5t82 -271.5q0 -18 -2 -42h-206q1 7 1.5 15t0.5 17q1 86 -39.5 138t-117.5 52q-137 0 -204 -149q-25 -55 -37 -127t-12 -159v-569h-225z
M76 -611l95 458h210l-150 -458h-155z" />
    <glyph glyph-name="Rcaron" unicode="&#x158;" horiz-adv-x="1522" 
d="M186 0v1597h681q249 0 384 -112t135 -324q0 -140 -72.5 -243t-212.5 -144q111 -16 162.5 -81t69.5 -202l43 -330q8 -61 23.5 -103.5t30.5 -57.5h-255q-32 24 -44 128l-38 328q-13 121 -65.5 168.5t-186.5 47.5h-408v-672h-247zM433 857h396q310 0 310 270q0 273 -302 273
h-404v-543zM345 2069l294 -351h225l295 351h-189l-193 -186q-13 -12 -25 -12t-26 12l-192 186h-189z" />
    <glyph glyph-name="rcaron" unicode="&#x159;" horiz-adv-x="1022" 
d="M157 0v1166h165q2 -20 5.5 -51.5t7.5 -55.5q8 -45 31 -45q11 0 19.5 6t21.5 25q48 70 119.5 109.5t160.5 39.5q146 0 229 -98.5t82 -271.5q0 -18 -2 -42h-206q1 7 1.5 15t0.5 17q1 86 -39.5 138t-117.5 52q-137 0 -204 -149q-25 -55 -37 -127t-12 -159v-569h-225z
M145 1746l297 -433h178l297 433h-165l-179 -209q-23 -27 -42 -27t-42 27l-179 209h-165z" />
    <glyph glyph-name="Sacute" unicode="&#x15a;" horiz-adv-x="1344" 
d="M695 -40q-179 0 -316.5 65t-220 182.5t-97.5 274.5h244q23 -157 128.5 -243t268.5 -86q141 0 226 70.5t85 179.5q0 87 -35 143t-115 94.5t-214 70.5q-273 65 -390.5 178t-117.5 303q0 133 66 233t186 156t280 56q240 0 382 -123t167 -338h-238q-19 127 -97.5 198.5
t-212.5 71.5q-130 0 -208 -65t-78 -174q0 -103 65 -165.5t234 -103.5q298 -71 435.5 -189.5t137.5 -326.5q0 -139 -71.5 -243t-198.5 -161.5t-295 -57.5zM790 1719l422 340h-303l-356 -340h237z" />
    <glyph glyph-name="sacute" unicode="&#x15b;" horiz-adv-x="1130" 
d="M587 -39q-223 0 -359.5 102.5t-165.5 281.5h231q17 -97 91.5 -153.5t204.5 -56.5q112 0 179 46t67 122q0 54 -24.5 89t-86 59t-171.5 43q-235 42 -335 126t-100 240q0 103 55.5 180t155 120.5t230.5 43.5q208 0 329 -95.5t143 -271.5h-223q-18 98 -76.5 146t-167.5 48
q-104 0 -165 -42.5t-61 -115.5q0 -76 57.5 -115t195.5 -64q174 -30 275.5 -75.5t145 -118t43.5 -183.5q0 -103 -60 -183.5t-165.5 -126.5t-242.5 -46zM665 1314l303 433h-260l-232 -433h189z" />
    <glyph glyph-name="Scircumflex" unicode="&#x15c;" horiz-adv-x="1344" 
d="M695 -40q-179 0 -316.5 65t-220 182.5t-97.5 274.5h244q23 -157 128.5 -243t268.5 -86q141 0 226 70.5t85 179.5q0 87 -35 143t-115 94.5t-214 70.5q-273 65 -390.5 178t-117.5 303q0 133 66 233t186 156t280 56q240 0 382 -123t167 -338h-238q-19 127 -97.5 198.5
t-212.5 71.5q-130 0 -208 -65t-78 -174q0 -103 65 -165.5t234 -103.5q298 -71 435.5 -189.5t137.5 -326.5q0 -139 -71.5 -243t-198.5 -161.5t-295 -57.5zM262 1719l294 351h225l295 -351h-189l-193 186q-13 12 -25 12t-26 -12l-192 -186h-189z" />
    <glyph glyph-name="scircumflex" unicode="&#x15d;" horiz-adv-x="1130" 
d="M587 -39q-223 0 -359.5 102.5t-165.5 281.5h231q17 -97 91.5 -153.5t204.5 -56.5q112 0 179 46t67 122q0 54 -24.5 89t-86 59t-171.5 43q-235 42 -335 126t-100 240q0 103 55.5 180t155 120.5t230.5 43.5q208 0 329 -95.5t143 -271.5h-223q-18 98 -76.5 146t-167.5 48
q-104 0 -165 -42.5t-61 -115.5q0 -76 57.5 -115t195.5 -64q174 -30 275.5 -75.5t145 -118t43.5 -183.5q0 -103 -60 -183.5t-165.5 -126.5t-242.5 -46zM184 1314l297 433h178l297 -433h-165l-179 209q-23 27 -42 27t-42 -27l-179 -209h-165z" />
    <glyph glyph-name="Scedilla" unicode="&#x15e;" horiz-adv-x="1344" 
d="M695 -40q-179 0 -316.5 65t-220 182.5t-97.5 274.5h244q23 -157 128.5 -243t268.5 -86q141 0 226 70.5t85 179.5q0 87 -35 143t-115 94.5t-214 70.5q-273 65 -390.5 178t-117.5 303q0 133 66 233t186 156t280 56q240 0 382 -123t167 -338h-238q-19 127 -97.5 198.5
t-212.5 71.5q-130 0 -208 -65t-78 -174q0 -103 65 -165.5t234 -103.5q298 -71 435.5 -189.5t137.5 -326.5q0 -139 -71.5 -243t-198.5 -161.5t-295 -57.5zM730 -532q-154 0 -241 83.5t-96 224.5h181q6 -75 45.5 -116t105.5 -41q60 0 92.5 30.5t32.5 85.5q0 65 -63 133.5
t-188 131.5l174 19q115 -47 183 -127.5t68 -175.5q0 -110 -79.5 -179t-214.5 -69z" />
    <glyph glyph-name="scedilla" unicode="&#x15f;" horiz-adv-x="1130" 
d="M587 -39q-223 0 -359.5 102.5t-165.5 281.5h231q17 -97 91.5 -153.5t204.5 -56.5q112 0 179 46t67 122q0 54 -24.5 89t-86 59t-171.5 43q-235 42 -335 126t-100 240q0 103 55.5 180t155 120.5t230.5 43.5q208 0 329 -95.5t143 -271.5h-223q-18 98 -76.5 146t-167.5 48
q-104 0 -165 -42.5t-61 -115.5q0 -76 57.5 -115t195.5 -64q174 -30 275.5 -75.5t145 -118t43.5 -183.5q0 -103 -60 -183.5t-165.5 -126.5t-242.5 -46zM581 -530q-150 0 -234.5 84.5t-92.5 221.5h168q7 -76 48 -119.5t112 -43.5q61 0 95 31.5t34 87.5q0 63 -65.5 133.5
t-190.5 134.5h184q107 -46 168 -121t61 -159q0 -110 -75.5 -180t-211.5 -70z" />
    <glyph glyph-name="Scaron" unicode="&#x160;" horiz-adv-x="1344" 
d="M695 -40q-179 0 -316.5 65t-220 182.5t-97.5 274.5h244q23 -157 128.5 -243t268.5 -86q141 0 226 70.5t85 179.5q0 87 -35 143t-115 94.5t-214 70.5q-273 65 -390.5 178t-117.5 303q0 133 66 233t186 156t280 56q240 0 382 -123t167 -338h-238q-19 127 -97.5 198.5
t-212.5 71.5q-130 0 -208 -65t-78 -174q0 -103 65 -165.5t234 -103.5q298 -71 435.5 -189.5t137.5 -326.5q0 -139 -71.5 -243t-198.5 -161.5t-295 -57.5zM261 2069l294 -351h225l295 351h-189l-193 -186q-13 -12 -25 -12t-26 12l-192 186h-189z" />
    <glyph glyph-name="scaron" unicode="&#x161;" horiz-adv-x="1130" 
d="M587 -39q-223 0 -359.5 102.5t-165.5 281.5h231q17 -97 91.5 -153.5t204.5 -56.5q112 0 179 46t67 122q0 54 -24.5 89t-86 59t-171.5 43q-235 42 -335 126t-100 240q0 103 55.5 180t155 120.5t230.5 43.5q208 0 329 -95.5t143 -271.5h-223q-18 98 -76.5 146t-167.5 48
q-104 0 -165 -42.5t-61 -115.5q0 -76 57.5 -115t195.5 -64q174 -30 275.5 -75.5t145 -118t43.5 -183.5q0 -103 -60 -183.5t-165.5 -126.5t-242.5 -46zM184 1747l297 -433h178l297 433h-165l-179 -209q-23 -27 -42 -27t-42 27l-179 209h-165z" />
    <glyph glyph-name="uni0162" unicode="&#x162;" horiz-adv-x="1338" 
d="M545 0v1393h-518v204h1284v-204h-517v-1393h-249zM706 -532q-154 0 -241 83.5t-96 224.5h181q6 -75 45.5 -116t105.5 -41q60 0 92.5 30.5t32.5 85.5q0 65 -63 133.5t-188 131.5l174 19q115 -47 183 -127.5t68 -175.5q0 -110 -79.5 -179t-214.5 -69z" />
    <glyph glyph-name="uni0163" unicode="&#x163;" horiz-adv-x="869" 
d="M636 -14q-192 0 -286 95.5t-94 310.5v587h-231v187h131q66 0 96.5 23t41.5 73q6 27 12 71.5t11 92t7 83.5h155v-343h326v-187h-326v-567q0 -129 46.5 -185t159.5 -56q35 0 72 4.5t71 14.5v-176q-31 -11 -86 -19.5t-106 -8.5zM545 -498q-150 0 -234.5 84.5t-92.5 221.5
h168q7 -76 48 -119.5t112 -43.5q61 0 95 31.5t34 87.5q0 63 -65.5 133.5t-190.5 134.5h184q107 -46 168 -121t61 -159q0 -110 -75.5 -180t-211.5 -70z" />
    <glyph glyph-name="Tcaron" unicode="&#x164;" horiz-adv-x="1338" 
d="M545 0v1393h-518v204h1284v-204h-517v-1393h-249zM263 2069l294 -351h225l295 351h-189l-193 -186q-13 -12 -25 -12t-26 12l-192 186h-189z" />
    <glyph glyph-name="tcaron" unicode="&#x165;" horiz-adv-x="868" 
d="M636 -14q-192 0 -286 95.5t-94 310.5v587h-231v187h131q66 0 96.5 23t41.5 73q6 27 12 71.5t11 92t7 83.5h155v-343h326v-187h-326v-567q0 -129 46.5 -185t159.5 -56q35 0 72 4.5t71 14.5v-176q-31 -11 -86 -19.5t-106 -8.5zM601 1288l38 384h206l-84 -384h-160z" />
    <glyph glyph-name="Tbar" unicode="&#x166;" horiz-adv-x="1360" 
d="M555 0v759h-281v181h281v453h-518v204h1285v-204h-517v-453h278v-181h-278v-759h-250z" />
    <glyph glyph-name="tbar" unicode="&#x167;" horiz-adv-x="902" 
d="M50 566v149h232v264h-232v187h132q65 0 96 23t42 73q6 27 12 71.5t11 92t7 83.5h154v-343h327v-187h-327v-264h327v-149h-327v-154q0 -129 47 -185t160 -56q75 0 142 19v-176q-31 -11 -86 -19.5t-105 -8.5q-193 0 -286.5 95.5t-93.5 310.5v174h-232z" />
    <glyph glyph-name="Utilde" unicode="&#x168;" horiz-adv-x="1655" 
d="M828 -40q-198 0 -346.5 72t-231 216t-82.5 361v988h249v-998q0 -214 106.5 -323t304.5 -109q197 0 303.5 109t106.5 323v998h249v-988q0 -217 -82 -361t-230 -216t-347 -72zM997 1735q-60 0 -107.5 22t-87 51.5t-74.5 51.5t-70 22q-42 0 -68 -33t-37 -89h-141
q17 127 80.5 205t166.5 78q60 0 107.5 -22t87 -51.5t74.5 -51.5t70 -22q42 0 68.5 33t36.5 89h141q-17 -127 -81 -205t-166 -78z" />
    <glyph glyph-name="utilde" unicode="&#x169;" horiz-adv-x="1375" 
d="M592 -38q-217 0 -334 128t-117 362v714h226v-685q0 -154 69.5 -236.5t199.5 -82.5q176 0 266 126q44 62 67.5 152t23.5 208v518h225v-1166h-167q-1 26 -4 62.5t-7 59.5q-8 53 -34 53q-10 0 -17.5 -5.5t-23.5 -25.5q-64 -87 -155 -134.5t-218 -47.5zM843 1327
q-60 0 -107.5 22t-87 51.5t-74.5 51.5t-70 22q-42 0 -68 -33t-37 -89h-141q17 127 80.5 205t166.5 78q60 0 107.5 -22t87 -51.5t74.5 -51.5t70 -22q42 0 68.5 33t36.5 89h141q-17 -127 -81 -205t-166 -78z" />
    <glyph glyph-name="Umacron" unicode="&#x16a;" horiz-adv-x="1655" 
d="M828 -40q-198 0 -346.5 72t-231 216t-82.5 361v988h249v-998q0 -214 106.5 -323t304.5 -109q197 0 303.5 109t106.5 323v998h249v-988q0 -217 -82 -361t-230 -216t-347 -72zM484 1764v162h688v-162h-688z" />
    <glyph glyph-name="umacron" unicode="&#x16b;" horiz-adv-x="1375" 
d="M592 -38q-217 0 -334 128t-117 362v714h226v-685q0 -154 69.5 -236.5t199.5 -82.5q176 0 266 126q44 62 67.5 152t23.5 208v518h225v-1166h-167q-1 26 -4 62.5t-7 59.5q-8 53 -34 53q-10 0 -17.5 -5.5t-23.5 -25.5q-64 -87 -155 -134.5t-218 -47.5zM335 1370v162h688
v-162h-688z" />
    <glyph glyph-name="Ubreve" unicode="&#x16c;" horiz-adv-x="1655" 
d="M828 -40q-198 0 -346.5 72t-231 216t-82.5 361v988h249v-998q0 -214 106.5 -323t304.5 -109q197 0 303.5 109t106.5 323v998h249v-988q0 -217 -82 -361t-230 -216t-347 -72zM828 1719q-163 0 -263 85t-111 233h154q19 -79 73.5 -123t146.5 -44t146.5 44t73.5 123h154
q-11 -148 -110.5 -233t-263.5 -85z" />
    <glyph glyph-name="ubreve" unicode="&#x16d;" horiz-adv-x="1375" 
d="M592 -38q-217 0 -334 128t-117 362v714h226v-685q0 -154 69.5 -236.5t199.5 -82.5q176 0 266 126q44 62 67.5 152t23.5 208v518h225v-1166h-167q-1 26 -4 62.5t-7 59.5q-8 53 -34 53q-10 0 -17.5 -5.5t-23.5 -25.5q-64 -87 -155 -134.5t-218 -47.5zM679 1328
q-163 0 -263.5 90.5t-112.5 247.5h151q18 -87 76 -136t149 -49q92 0 149.5 49t75.5 136h151q-12 -157 -112 -247.5t-264 -90.5z" />
    <glyph glyph-name="Uring" unicode="&#x16e;" horiz-adv-x="1655" 
d="M828 -40q-198 0 -346.5 72t-231 216t-82.5 361v988h249v-998q0 -214 106.5 -323t304.5 -109q197 0 303.5 109t106.5 323v998h249v-988q0 -217 -82 -361t-230 -216t-347 -72zM828 1694q-115 0 -189 69.5t-74 177.5t74 177.5t189 69.5q116 0 189.5 -69.5t73.5 -177.5
t-74 -177.5t-189 -69.5zM828 1825q50 0 82.5 33t32.5 83t-32.5 82.5t-82.5 32.5t-82.5 -32.5t-32.5 -82.5t32.5 -83t82.5 -33z" />
    <glyph glyph-name="uring" unicode="&#x16f;" horiz-adv-x="1375" 
d="M592 -38q-217 0 -334 128t-117 362v714h226v-685q0 -154 69.5 -236.5t199.5 -82.5q176 0 266 126q44 62 67.5 152t23.5 208v518h225v-1166h-167q-1 26 -4 62.5t-7 59.5q-8 53 -34 53q-10 0 -17.5 -5.5t-23.5 -25.5q-64 -87 -155 -134.5t-218 -47.5zM679 1303
q-113 0 -185.5 68t-72.5 174t72.5 174.5t185.5 68.5t185.5 -68.5t72.5 -174.5t-72.5 -174t-185.5 -68zM679 1425q53 0 86 34t33 86q0 53 -33 86.5t-86 33.5q-52 0 -85.5 -33.5t-33.5 -86.5q0 -52 33.5 -86t85.5 -34z" />
    <glyph glyph-name="Uhungarumlaut" unicode="&#x170;" horiz-adv-x="1655" 
d="M828 -40q-198 0 -346.5 72t-231 216t-82.5 361v988h249v-998q0 -214 106.5 -323t304.5 -109q197 0 303.5 109t106.5 323v998h249v-988q0 -217 -82 -361t-230 -216t-347 -72zM942 1719l362 340h296l-420 -340h-238zM452 1719l347 340h296l-406 -340h-237z" />
    <glyph glyph-name="uhungarumlaut" unicode="&#x171;" horiz-adv-x="1375" 
d="M592 -38q-217 0 -334 128t-117 362v714h226v-685q0 -154 69.5 -236.5t199.5 -82.5q176 0 266 126q44 62 67.5 152t23.5 208v518h225v-1166h-167q-1 26 -4 62.5t-7 59.5q-8 53 -34 53q-10 0 -17.5 -5.5t-23.5 -25.5q-64 -87 -155 -134.5t-218 -47.5zM756 1313l260 433h243
l-321 -433h-182zM362 1313l234 433h234l-285 -433h-183z" />
    <glyph glyph-name="Uogonek" unicode="&#x172;" horiz-adv-x="1655" 
d="M828 -40q-198 0 -346.5 72t-231 216t-82.5 361v988h249v-998q0 -214 106.5 -323t304.5 -109q197 0 303.5 109t106.5 323v998h249v-988q0 -217 -82 -361t-230 -216t-347 -72zM1119 -493q-123 0 -200 59t-77 167q1 105 75 194.5t241 185.5l72 -49q-101 -70 -149.5 -140.5
t-49.5 -137.5q-1 -58 33 -86t90 -28q36 0 76.5 7.5t80.5 23.5l1 -154q-42 -20 -93 -31t-100 -11z" />
    <glyph glyph-name="uogonek" unicode="&#x173;" horiz-adv-x="1375" 
d="M592 -38q-217 0 -334 128t-117 362v714h226v-685q0 -154 69.5 -236.5t199.5 -82.5q176 0 266 126q44 62 67.5 152t23.5 208v518h225v-1166h-167q-1 26 -4 62.5t-7 59.5q-8 53 -34 53q-10 0 -17.5 -5.5t-23.5 -25.5q-64 -87 -155 -134.5t-218 -47.5zM1133 -504
q-121 0 -195 59.5t-74 164.5q0 84 56.5 164.5t180.5 174.5l117 -59q-95 -79 -138 -136.5t-43 -113.5q0 -50 35 -76.5t93 -26.5q69 0 132 30l1 -144q-72 -37 -165 -37z" />
    <glyph glyph-name="Wcircumflex" unicode="&#x174;" horiz-adv-x="2267" 
d="M494 0l-474 1597h255l373 -1329l355 1329h275l358 -1330l376 1330h238l-478 -1597h-286l-352 1330l-351 -1330h-289zM729 1719l294 351h225l295 -351h-189l-193 186q-13 12 -25 12t-26 -12l-192 -186h-189z" />
    <glyph glyph-name="wcircumflex" unicode="&#x175;" horiz-adv-x="1817" 
d="M413 0l-394 1166h245l282 -899l259 899h227l259 -899l283 899h225l-395 -1166h-237l-256 889l-257 -889h-241zM523 1313l297 433h178l297 -433h-165l-179 209q-23 27 -42 27t-42 -27l-179 -209h-165z" />
    <glyph glyph-name="Ycircumflex" unicode="&#x176;" horiz-adv-x="1437" 
d="M599 0v646l-593 951h281l444 -735l431 735h259l-579 -952v-645h-243zM310 1719l294 351h225l295 -351h-189l-193 186q-13 12 -25 12t-26 -12l-192 -186h-189z" />
    <glyph glyph-name="ycircumflex" unicode="&#x177;" horiz-adv-x="1240" 
d="M295 -497l211 497l-495 1166h253l368 -914l361 914h235l-700 -1663h-233zM242 1313l297 433h178l297 -433h-165l-179 209q-23 27 -42 27t-42 -27l-179 -209h-165z" />
    <glyph glyph-name="Ydieresis" unicode="&#x178;" horiz-adv-x="1437" 
d="M599 0v646l-593 951h281l444 -735l431 735h259l-579 -952v-645h-243zM974 1765q-63 0 -101.5 39t-38.5 95t38.5 95.5t101.5 39.5q64 0 103 -39.5t39 -95.5t-39 -95t-103 -39zM457 1765q-63 0 -102 39t-39 95t39 95.5t102 39.5t102 -39.5t39 -95.5t-39 -95t-102 -39z" />
    <glyph glyph-name="Zacute" unicode="&#x179;" horiz-adv-x="1294" 
d="M18 0v5l872 1390h-814v202h1205v-5l-873 -1389h814v-203h-1204zM772 1719l422 340h-303l-356 -340h237z" />
    <glyph glyph-name="zacute" unicode="&#x17a;" horiz-adv-x="1101" 
d="M34 0v5l671 974h-638v187h1004v-4l-674 -981h640v-181h-1003zM648 1313l303 433h-260l-232 -433h189z" />
    <glyph glyph-name="Zdotaccent" unicode="&#x17b;" horiz-adv-x="1294" 
d="M18 0v5l872 1390h-814v202h1205v-5l-873 -1389h814v-203h-1204zM649 1747q-63 0 -101.5 39t-38.5 95t38.5 95t101.5 39q64 0 102.5 -39t38.5 -95t-38.5 -95t-102.5 -39z" />
    <glyph glyph-name="zdotaccent" unicode="&#x17c;" horiz-adv-x="1101" 
d="M34 0v5l671 974h-638v187h1004v-4l-674 -981h640v-181h-1003zM552 1339q-64 0 -102.5 39.5t-38.5 95.5q0 57 38.5 96.5t102.5 39.5t103 -39.5t39 -96.5q0 -56 -39 -95.5t-103 -39.5z" />
    <glyph glyph-name="Zcaron" unicode="&#x17d;" horiz-adv-x="1294" 
d="M18 0v5l872 1390h-814v202h1205v-5l-873 -1389h814v-203h-1204zM243 2069l294 -351h225l295 351h-189l-193 -186q-13 -12 -25 -12t-26 12l-192 186h-189z" />
    <glyph glyph-name="zcaron" unicode="&#x17e;" horiz-adv-x="1101" 
d="M34 0v5l671 974h-638v187h1004v-4l-674 -981h640v-181h-1003zM167 1746l297 -433h178l297 433h-165l-179 -209q-23 -27 -42 -27t-42 27l-179 209h-165z" />
    <glyph glyph-name="uni0180" unicode="&#x180;" horiz-adv-x="1489" 
d="M822 -37q-136 0 -236.5 47.5t-171.5 130.5q-29 33 -47 33q-23 0 -30 -45q-4 -28 -7 -65.5t-5 -63.5h-168v1335h-163v150h163v174h226v-174h390v-150h-390v-273q0 -33 20 -33q12 0 26 15q63 73 161.5 116t224.5 43q172 0 307 -80.5t213 -220.5t78 -320q0 -179 -78.5 -319
t-212 -220t-300.5 -80zM777 159q119 0 209.5 54t141.5 150t51 221q0 124 -51 219.5t-141.5 150t-209.5 54.5t-209.5 -54t-141.5 -149.5t-51 -220.5q0 -126 51 -221.5t141.5 -149.5t209.5 -54z" />
    <glyph glyph-name="uni0181" unicode="&#x181;" horiz-adv-x="1814" 
d="M524 0v1403h-99q-186 0 -186 -175q0 -55 16 -119.5t51 -148.5h-186q-40 67 -65.5 150t-25.5 162q0 159 101 242t285 83h752q240 0 366 -111.5t126 -301.5q0 -254 -239 -341q146 -41 222.5 -143t76.5 -250q0 -214 -131.5 -332t-382.5 -118h-681zM769 909h360
q143 0 218.5 64t75.5 184q0 117 -74 181.5t-217 64.5h-363v-494zM768 194h406q149 0 226.5 70.5t77.5 200.5q0 131 -80 202t-227 71h-403v-544z" />
    <glyph glyph-name="uni0186" unicode="&#x186;" horiz-adv-x="1805" 
d="M887 -40q-224 0 -397 81t-281.5 228t-141.5 344h261q41 -203 183 -321.5t368 -118.5q171 0 301.5 78.5t204 219.5t73.5 328q0 188 -73.5 328.5t-204 219t-301.5 78.5q-226 0 -368 -118.5t-183 -321.5h-261q33 197 141.5 344t281.5 228t397 81q183 0 335 -62.5
t263.5 -175.5t172 -266t60.5 -335q0 -181 -60.5 -334.5t-172 -266.5t-263.5 -175.5t-335 -62.5z" />
    <glyph glyph-name="uni0187" unicode="&#x187;" horiz-adv-x="1781" 
d="M932 -40q-185 0 -339.5 62.5t-268 175.5t-175.5 266.5t-62 334.5q0 182 62 335t175.5 266t268 175.5t339.5 62.5q242 0 420 -102q-31 53 -46.5 105t-15.5 109q0 124 93.5 204t250.5 80q137 0 239 -64v-182q-45 24 -92.5 35t-96.5 11q-85 0 -138.5 -47t-53.5 -137
q0 -72 29 -145t105 -199q48 -82 74.5 -157t39.5 -164h-261q-37 204 -180 322t-361 118q-176 0 -309 -79t-206.5 -219.5t-73.5 -327.5q0 -186 73.5 -327t206.5 -220t309 -79q218 0 361 118t180 322h261q-32 -198 -140 -345t-278 -227.5t-390 -80.5z" />
    <glyph glyph-name="uni0188" unicode="&#x188;" horiz-adv-x="1366" 
d="M702 -38q-182 0 -323 79.5t-221 220t-80 322.5t80 322t221 219.5t323 79.5q139 0 258 -50q-45 83 -45 183q0 127 83.5 197t216.5 70q46 0 98.5 -11t83.5 -29v-165q-57 21 -123 21q-79 0 -124 -41t-45 -114q0 -70 24 -140.5t79 -163.5q32 -58 55 -116.5t33 -123.5h-231
q-25 133 -120 210t-238 77q-119 0 -208.5 -53.5t-139.5 -149.5t-50 -222t50 -222t139.5 -150t208.5 -54q143 0 238 77t120 210h231q-23 -146 -102 -254.5t-204 -168.5t-288 -60z" />
    <glyph glyph-name="uni0189" unicode="&#x189;" horiz-adv-x="1811" 
d="M276 0v708h-255v187h255v702h614q249 0 436.5 -99.5t291.5 -279t104 -419.5t-104 -419.5t-291.5 -279.5t-436.5 -100h-614zM525 202h350q182 0 313 72t201.5 206t70.5 319q0 184 -70.5 317.5t-201.5 206t-313 72.5h-350v-500h463v-187h-463v-506z" />
    <glyph glyph-name="uni018A" unicode="&#x18a;" horiz-adv-x="2059" 
d="M523 0v1403h-98q-186 0 -186 -175q0 -55 16 -119.5t51 -148.5h-186q-40 67 -65.5 150t-25.5 162q0 159 101 242t285 83h723q249 0 436 -99.5t291.5 -279t104.5 -419.5t-104.5 -419.5t-291.5 -279.5t-436 -100h-615zM773 202h350q182 0 313 72t201.5 206t70.5 319
q0 184 -70.5 317.5t-201.5 206t-313 72.5h-350v-1193z" />
    <glyph glyph-name="uni018E" unicode="&#x18e;" horiz-adv-x="1342" 
d="M1155 0h-1085v204h840v506h-695v200h695v483h-799v204h1044v-1597z" />
    <glyph glyph-name="uni018F" unicode="&#x18f;" horiz-adv-x="1774" 
d="M889 -39q-238 0 -418.5 100.5t-281.5 279t-101 411.5q0 26 1.5 62t4.5 52h1331q-4 170 -71.5 297t-187.5 197.5t-280 70.5q-193 0 -327.5 -89.5t-187.5 -238.5h-259q43 164 150.5 283.5t266 185t355.5 65.5q240 0 420 -105t280.5 -293.5t100.5 -440.5q0 -184 -59 -337.5
t-166.5 -265.5t-252.5 -173t-318 -61zM890 164q150 0 265.5 66t185 184.5t82.5 276.5h-1084q3 -157 72.5 -276t192.5 -185t286 -66z" />
    <glyph glyph-name="uni0190" unicode="&#x190;" horiz-adv-x="1361" 
d="M696 -40q-176 0 -314 58t-217 166t-79 257q0 157 92.5 265t255.5 146q-126 37 -201 134t-75 227q0 125 64.5 220.5t183 149.5t280.5 54q240 0 389.5 -120.5t168.5 -338.5h-237q-17 124 -95.5 191.5t-215.5 67.5q-133 0 -212.5 -67.5t-79.5 -182.5q0 -116 82.5 -187.5
t218.5 -71.5h255v-178h-259q-166 0 -262 -76.5t-96 -207.5q0 -145 98.5 -225t263.5 -80q161 0 250 81t106 232h246q-22 -243 -183.5 -378.5t-427.5 -135.5z" />
    <glyph glyph-name="uni0191" unicode="&#x191;" horiz-adv-x="1241" 
d="M89 -514q-65 0 -137 16t-119 41v193q105 -43 197 -43q84 0 120 48t36 163v1693h1002v-202h-755v-514h676v-203h-676v-772q0 -221 -81 -320.5t-263 -99.5z" />
    <glyph glyph-name="florin" unicode="&#x192;" horiz-adv-x="815" 
d="M165 -514q-45 0 -98.5 10.5t-88.5 28.5v163q57 -19 120 -19q84 0 121 47.5t37 145.5v1117h-232v187h232v121q0 206 96.5 303t288.5 97q47 0 98.5 -8t89.5 -22v-178q-63 23 -142 23q-110 0 -159 -56.5t-49 -166.5v-113h326v-187h-326v-1139q0 -169 -76.5 -261.5
t-237.5 -92.5z" />
    <glyph glyph-name="uni0193" unicode="&#x193;" horiz-adv-x="1802" 
d="M896 -37q-173 0 -320 59t-256.5 169t-170.5 263.5t-61 341.5q0 186 63 340.5t177.5 266.5t270 173t340.5 61q243 0 419 -100q-31 53 -46.5 104.5t-15.5 108.5q0 125 93.5 204.5t247.5 79.5q138 0 242 -68v-183q-91 50 -193 50q-82 0 -135 -47t-53 -136q0 -48 11.5 -95
t40 -106t78.5 -143q39 -69 64 -132t39 -134h-263q-46 182 -182.5 283t-339.5 101q-173 0 -307.5 -76.5t-211.5 -216t-77 -329.5q0 -187 72.5 -328.5t204 -221t308.5 -79.5q169 0 283.5 68.5t182.5 196.5q35 67 56 151.5t29 172.5h228v-762h-173q-3 54 -8 111t-11 88
q-10 51 -35 51q-12 0 -22 -7t-28 -30q-87 -115 -224.5 -182.5t-316.5 -67.5z" />
    <glyph glyph-name="uni0194" unicode="&#x194;" horiz-adv-x="1441" 
d="M726 -40q-158 0 -255.5 81.5t-97.5 206.5q0 60 19.5 118.5t65.5 130t128 171.5l-592 929h279l458 -727l453 727h263l-584 -925q83 -101 130 -173.5t66.5 -131t19.5 -119.5q0 -125 -97.5 -206.5t-255.5 -81.5zM726 126q59 0 97.5 36t38.5 90q0 60 -33 122t-103 149
q-70 -87 -103 -149t-33 -122q0 -54 38 -90t98 -36z" />
    <glyph glyph-name="uni0196" unicode="&#x196;" horiz-adv-x="811" 
d="M554 -18q-190 0 -284.5 94.5t-94.5 307.5v1213h249v-1191q0 -112 42.5 -164.5t135.5 -52.5q52 0 98 9t95 25v-195q-42 -19 -106.5 -32.5t-134.5 -13.5z" />
    <glyph glyph-name="uni0197" unicode="&#x197;" horiz-adv-x="777" 
d="M264 0v723h-234v187h234v687h249v-687h234v-187h-234v-723h-249z" />
    <glyph glyph-name="uni0198" unicode="&#x198;" horiz-adv-x="1589" 
d="M186 0v1597h253v-773l583 636q81 95 149.5 132.5t156.5 37.5q65 0 130 -25t120 -74v-210q-52 38 -104.5 63t-106.5 25q-53 0 -93 -24t-102 -92l-449 -470l765 -823h-326l-723 787v-787h-253z" />
    <glyph glyph-name="uni0199" unicode="&#x199;" horiz-adv-x="1200" 
d="M157 0v1281q0 200 101 303t300 103q70 0 140.5 -16.5t119.5 -43.5v-169q-46 20 -97.5 32t-111.5 12q-226 0 -226 -236v-665l526 565h286l-544 -570l572 -596h-303l-537 567v-567h-226z" />
    <glyph glyph-name="uni019D" unicode="&#x19d;" horiz-adv-x="1717" 
d="M83 -514q-61 0 -132 16t-120 41v193q105 -43 198 -43q84 0 120.5 48t36.5 163v1693h280l830 -1268v1268h235v-1597h-280l-830 1267v-1362q0 -221 -79.5 -320t-258.5 -99z" />
    <glyph glyph-name="uni019F" unicode="&#x19f;" horiz-adv-x="1879" 
d="M940 -39q-189 0 -345 62t-270 175t-176 266t-62 335t62 335t176 266t270 175t345 62q188 0 344.5 -62t270.5 -175t176 -266t62 -335t-62 -335t-176 -266t-270.5 -175t-344.5 -62zM940 1431q-164 0 -292.5 -67t-208 -188.5t-97.5 -285.5h1195q-18 164 -97.5 285.5
t-207.5 188.5t-292 67zM940 167q164 0 292 67t207.5 188.5t97.5 285.5h-1195q18 -164 97.5 -285.5t208 -188.5t292.5 -67z" />
    <glyph glyph-name="Ohorn" unicode="&#x1a0;" horiz-adv-x="1913" 
d="M940 -39q-189 0 -345 62t-270 175t-176 266t-62 335t62 335t176 266t270 175t345 62q188 0 344.5 -62t270.5 -175t176 -266t62 -335t-62 -335t-176 -266t-270.5 -175t-344.5 -62zM940 175q176 0 309 78.5t207.5 219t74.5 326.5q0 187 -74.5 327t-207.5 218.5t-309 78.5
q-175 0 -308.5 -78.5t-208 -218.5t-74.5 -327q0 -186 74.5 -326.5t208 -219t308.5 -78.5zM1621 1342q-119 0 -212 67v104q62 -32 123 -32q115 0 114 133q0 91 -50 204h176q35 -62 53.5 -125t18.5 -125q0 -103 -58.5 -164.5t-164.5 -61.5z" />
    <glyph glyph-name="ohorn" unicode="&#x1a1;" horiz-adv-x="1476" 
d="M713 -38q-184 0 -328.5 80.5t-227 221t-82.5 320.5t82.5 320t227 220t328.5 80q185 0 329 -80t226.5 -220t82.5 -320t-82.5 -320.5t-226.5 -221t-329 -80.5zM713 158q120 0 211.5 54t143 150t51.5 222q0 125 -51.5 221t-143 150t-211.5 54t-211.5 -54t-143 -150
t-51.5 -221q0 -126 51.5 -222t143 -150t211.5 -54zM1208 966q-103 0 -198 63v111q62 -31 121 -31q63 0 89.5 34t26.5 100q0 97 -56 218h161q35 -65 54.5 -132t19.5 -132q0 -106 -58.5 -168.5t-159.5 -62.5z" />
    <glyph glyph-name="uni01A4" unicode="&#x1a4;" horiz-adv-x="1763" 
d="M542 0v1403h-100q-185 0 -185 -175q0 -55 15.5 -119.5t51.5 -148.5h-187q-39 67 -65 150t-26 162q0 159 101 242t285 83h726q265 0 407 -137.5t142 -368.5q0 -232 -142.5 -369t-407.5 -137h-367v-585h-248zM790 781h346q159 0 240.5 80.5t81.5 228.5q0 149 -81.5 229
t-240.5 80h-346v-618z" />
    <glyph glyph-name="uni01A5" unicode="&#x1a5;" horiz-adv-x="1489" 
d="M157 -491v1772q0 200 101 303.5t300 103.5q70 0 141 -17t119 -44v-168q-46 20 -97.5 32t-110.5 12q-227 0 -227 -233v-207q0 -33 20 -33q12 0 26 15q63 72 161.5 115.5t224.5 43.5q172 0 307 -80.5t213 -220.5t78 -319t-78 -319.5t-213 -221t-307 -80.5
q-126 0 -224.5 43.5t-161.5 115.5q-14 15 -26 15q-20 0 -20 -33v-595h-226zM777 159q119 0 209.5 54.5t141.5 150.5t51 220t-51 220t-141.5 150.5t-209.5 54.5t-209.5 -54t-141.5 -150t-51 -221t51 -221t141.5 -150t209.5 -54z" />
    <glyph glyph-name="uni01A9" unicode="&#x1a9;" horiz-adv-x="1170" 
d="M10 0v5l592 808l-581 779v5h1071v-204h-650l440 -581l-451 -608h670v-204h-1091z" />
    <glyph glyph-name="uni01AC" unicode="&#x1ac;" horiz-adv-x="1512" 
d="M719 0v1393l-296 1q-185 0 -185 -172q0 -54 15.5 -116.5t51.5 -145.5h-187q-39 67 -65 150t-26 162q0 159 101 242t285 83h1072v-204h-517v-1393h-249z" />
    <glyph glyph-name="uni01AD" unicode="&#x1ad;" horiz-adv-x="869" 
d="M636 -14q-192 0 -286 95.5t-94 310.5v587h-231v187h231v167q0 170 80 262.5t242 92.5q47 0 98 -11t86 -28v-164q-58 20 -117 20q-166 0 -166 -197v-142h326v-187h-326v-567q0 -123 44 -182t162 -59q35 0 72 4.5t71 14.5v-176q-31 -11 -86 -19.5t-106 -8.5z" />
    <glyph glyph-name="uni01AE" unicode="&#x1ae;" horiz-adv-x="1338" 
d="M921 -514q-186 0 -281 95.5t-95 323.5v1488h-518v204h1284v-204h-517l-1 -1477q0 -123 46 -173.5t139 -49.5q53 0 103 10t101 28v-194q-49 -22 -119.5 -36.5t-141.5 -14.5z" />
    <glyph glyph-name="Uhorn" unicode="&#x1af;" horiz-adv-x="1717" 
d="M828 -40q-198 0 -346.5 72t-231 216t-82.5 361v988h249v-998q0 -214 106.5 -323t304.5 -109q197 0 303.5 109t106.5 323v998h218q64 0 87 22t23 68q0 68 -54 168h173q38 -57 55.5 -115t17.5 -112q0 -196 -270 -196h-1v-823q0 -217 -82 -361t-230 -216t-347 -72z" />
    <glyph glyph-name="uhorn" unicode="&#x1b0;" horiz-adv-x="1412" 
d="M592 -38q-217 0 -334 128t-117 362v714h226v-685q0 -154 69.5 -236.5t199.5 -82.5q176 0 266 126q44 62 67.5 152t23.5 208v518h225v-1166h-167q-1 26 -4 62.5t-7 59.5q-8 53 -34 53q-10 0 -17.5 -5.5t-23.5 -25.5q-64 -87 -155 -134.5t-218 -47.5zM1037 1009v158h113
q74 0 101.5 28t27.5 76q0 44 -13.5 90.5t-36.5 95.5h161q29 -56 47 -110.5t18 -115.5q0 -94 -65.5 -158t-187.5 -64h-165z" />
    <glyph glyph-name="uni01B1" unicode="&#x1b1;" horiz-adv-x="1900" 
d="M97 1597v-207h395q-106 -59 -190.5 -157.5t-133.5 -226.5t-49 -277q0 -166 60 -306t170.5 -244t263 -161.5t337.5 -57.5t337.5 57.5t263 161.5t170.5 244t60 306q0 149 -49 277t-133.5 226.5t-190.5 157.5h395v207h-759v-189q137 -41 249 -129.5t178 -219.5t66 -297
q0 -171 -73 -305t-205 -210.5t-309 -76.5q-176 0 -308.5 76.5t-205.5 210.5t-73 305q0 166 66 297t178 219.5t249 129.5v189h-759z" />
    <glyph glyph-name="uni01B2" unicode="&#x1b2;" horiz-adv-x="1698" 
d="M859 -39q-325 0 -509.5 186t-184.5 544v906h249l1 -905q0 -261 118.5 -389.5t326.5 -128.5q235 0 356 191t121 559q0 259 -75.5 379.5t-247.5 120.5q-101 0 -197 -35v192q56 23 126.5 38t148.5 14q261 -1 379.5 -178t118.5 -506q0 -472 -182 -730t-549 -258z" />
    <glyph glyph-name="uni01B3" unicode="&#x1b3;" horiz-adv-x="1572" 
d="M608 0v646l-593 951h281l444 -735l342 589q56 95 121 136.5t156 41.5q62 0 120 -23.5t99 -61.5v-205q-97 67 -178 67q-55 0 -91.5 -25.5t-78.5 -95.5l-379 -638v-647h-243z" />
    <glyph glyph-name="uni01B4" unicode="&#x1b4;" horiz-adv-x="1235" 
d="M292 -504l214 504l-495 1166h253l369 -917l404 1027q54 141 125 201.5t180 60.5q100 0 166 -45v-165q-60 27 -109 27q-53 0 -85 -25.5t-61 -93.5l-728 -1740h-233z" />
    <glyph glyph-name="uni01B7" unicode="&#x1b7;" horiz-adv-x="1259" 
d="M623 -40q-158 0 -285 60t-207.5 170t-97.5 261h245q22 -134 112 -211.5t232 -77.5q143 0 227 84.5t84 221.5q0 147 -95.5 232.5t-256.5 85.5h-275v4l420 603h-591v204h974v-4l-432 -621q155 -8 268 -73.5t174 -175.5t61 -250q0 -149 -69 -265t-194 -182t-294 -66z" />
    <glyph glyph-name="uni01C0" unicode="&#x1c0;" horiz-adv-x="534" 
d="M157 -550v2209h220v-2209h-220z" />
    <glyph glyph-name="uni01C1" unicode="&#x1c1;" horiz-adv-x="917" 
d="M552 -550v2209h208v-2209h-208zM157 -550v2209h208v-2209h-208z" />
    <glyph glyph-name="uni01C2" unicode="&#x1c2;" horiz-adv-x="1146" 
d="M95 217v176h368v323h-368v176h368v767h220v-767h368v-176h-368v-323h368v-176h-368v-767h-220v767h-368z" />
    <glyph glyph-name="uni01C3" unicode="&#x1c3;" horiz-adv-x="475" 
d="M145 496l-26 1163h238l-26 -1163h-186zM238 -17q-72 0 -119.5 44.5t-47.5 114.5q0 69 47.5 113.5t119.5 44.5q73 0 120 -44.5t47 -113.5q0 -70 -47 -114.5t-120 -44.5z" />
    <glyph glyph-name="uni01CD" unicode="&#x1cd;" horiz-adv-x="1538" 
d="M11 0l590 1597h337l589 -1597h-272l-148 409h-686l-148 -409h-262zM477 597h573l-287 812zM357 2069l294 -351h225l295 351h-189l-193 -186q-13 -12 -25 -12t-26 12l-192 186h-189z" />
    <glyph glyph-name="uni01CE" unicode="&#x1ce;" horiz-adv-x="1272" 
d="M525 -36q-201 0 -323 100t-122 267q0 166 114.5 254.5t349.5 106.5q114 9 216 20.5t152 25.5v4q0 134 -69.5 207.5t-201.5 73.5q-118 0 -194 -54t-100 -146h-235q36 171 176.5 276t349.5 105q239 0 366.5 -124t127.5 -351v-729h-170q-1 32 -4.5 69t-8.5 59q-7 34 -25 34
q-15 0 -37 -30q-56 -79 -146 -123.5t-216 -44.5zM310 336q0 -91 68.5 -144t182.5 -53q93 0 171 35.5t125 133.5q24 50 39.5 113t15.5 145v8q-48 -14 -139.5 -26.5t-200.5 -22.5q-141 -13 -201.5 -57t-60.5 -132zM242 1743l297 -433h178l297 433h-165l-179 -209
q-23 -27 -42 -27t-42 27l-179 209h-165z" />
    <glyph glyph-name="uni01CF" unicode="&#x1cf;" horiz-adv-x="622" 
d="M186 0v1597h250v-1597h-250zM-95 2069l294 -351h225l295 351h-189l-193 -186q-13 -12 -25 -12t-26 12l-192 186h-189z" />
    <glyph glyph-name="uni01D0" unicode="&#x1d0;" horiz-adv-x="544" 
d="M160 0v1166h225v-1166h-225zM187 1313l-251 433h149l146 -206q23 -32 41 -32t41 32l146 206h149l-251 -433h-170z" />
    <glyph glyph-name="uni01D1" unicode="&#x1d1;" horiz-adv-x="1879" 
d="M940 -39q-189 0 -345 62t-270 175t-176 266t-62 335t62 335t176 266t270 175t345 62q188 0 344.5 -62t270.5 -175t176 -266t62 -335t-62 -335t-176 -266t-270.5 -175t-344.5 -62zM940 175q176 0 309 78.5t207.5 219t74.5 326.5q0 187 -74.5 327t-207.5 218.5t-309 78.5
q-175 0 -308.5 -78.5t-208 -218.5t-74.5 -327q0 -186 74.5 -326.5t208 -219t308.5 -78.5zM533 2069l294 -351h225l295 351h-189l-193 -186q-13 -12 -25 -12t-26 12l-192 186h-189z" />
    <glyph glyph-name="uni01D2" unicode="&#x1d2;" horiz-adv-x="1426" 
d="M713 -38q-184 0 -328.5 80.5t-227 221t-82.5 320.5t82.5 320t227 220t328.5 80q185 0 329 -80t226.5 -220t82.5 -320t-82.5 -320.5t-226.5 -221t-329 -80.5zM713 158q120 0 211.5 54t143 150t51.5 222q0 125 -51.5 221t-143 150t-211.5 54t-211.5 -54t-143 -150
t-51.5 -221q0 -126 51.5 -222t143 -150t211.5 -54zM327 1746l297 -433h178l297 433h-165l-179 -209q-23 -27 -42 -27t-42 27l-179 209h-165z" />
    <glyph glyph-name="uni01D3" unicode="&#x1d3;" horiz-adv-x="1655" 
d="M828 -40q-198 0 -346.5 72t-231 216t-82.5 361v988h249v-998q0 -214 106.5 -323t304.5 -109q197 0 303.5 109t106.5 323v998h249v-988q0 -217 -82 -361t-230 -216t-347 -72zM421 2069l294 -351h225l295 351h-189l-193 -186q-13 -12 -25 -12t-26 12l-192 186h-189z" />
    <glyph glyph-name="uni01D4" unicode="&#x1d4;" horiz-adv-x="1375" 
d="M592 -38q-217 0 -334 128t-117 362v714h226v-685q0 -154 69.5 -236.5t199.5 -82.5q176 0 266 126q44 62 67.5 152t23.5 208v518h225v-1166h-167q-1 26 -4 62.5t-7 59.5q-8 53 -34 53q-10 0 -17.5 -5.5t-23.5 -25.5q-64 -87 -155 -134.5t-218 -47.5zM293 1746l297 -433
h178l297 433h-165l-179 -209q-23 -27 -42 -27t-42 27l-179 209h-165z" />
    <glyph glyph-name="uni01D5" unicode="&#x1d5;" horiz-adv-x="1655" 
d="M828 -40q-198 0 -346.5 72t-231 216t-82.5 361v988h249v-998q0 -214 106.5 -323t304.5 -109q197 0 303.5 109t106.5 323v998h249v-988q0 -217 -82 -361t-230 -216t-347 -72zM1057 1752q-58 0 -93.5 36t-35.5 88t35.5 88t93.5 36t94 -36t36 -88t-35.5 -88t-94.5 -36z
M598 1752q-58 0 -93.5 36t-35.5 88q0 51 35.5 87.5t93.5 36.5t94 -36.5t36 -87.5q0 -52 -35.5 -88t-94.5 -36zM506 2135v156h644v-156h-644z" />
    <glyph glyph-name="uni01D6" unicode="&#x1d6;" horiz-adv-x="1375" 
d="M592 -38q-217 0 -334 128t-117 362v714h226v-685q0 -154 69.5 -236.5t199.5 -82.5q176 0 266 126q44 62 67.5 152t23.5 208v518h225v-1166h-167q-1 26 -4 62.5t-7 59.5q-8 53 -34 53q-10 0 -17.5 -5.5t-23.5 -25.5q-64 -87 -155 -134.5t-218 -47.5zM901 1309
q-56 0 -91 34.5t-35 84.5t35 84.5t91 34.5t91 -34.5t35 -84.5t-35 -84.5t-91 -34.5zM457 1309q-56 0 -90.5 34.5t-34.5 84.5t34.5 84.5t90.5 34.5q57 0 92 -34.5t35 -84.5t-35 -84.5t-92 -34.5zM363 1665v148h632v-148h-632z" />
    <glyph glyph-name="uni01D7" unicode="&#x1d7;" horiz-adv-x="1655" 
d="M828 -40q-198 0 -346.5 72t-231 216t-82.5 361v988h249v-998q0 -214 106.5 -323t304.5 -109q197 0 303.5 109t106.5 323v998h249v-988q0 -217 -82 -361t-230 -216t-347 -72zM1057 1752q-58 0 -93.5 36t-35.5 88t35.5 88t93.5 36t94 -36t36 -88t-35.5 -88t-94.5 -36z
M598 1752q-58 0 -93.5 36t-35.5 88q0 51 35.5 87.5t93.5 36.5t94 -36.5t36 -87.5q0 -52 -35.5 -88t-94.5 -36zM724 2084l241 322h247l-304 -322h-184z" />
    <glyph glyph-name="uni01D8" unicode="&#x1d8;" horiz-adv-x="1375" 
d="M592 -38q-217 0 -334 128t-117 362v714h226v-685q0 -154 69.5 -236.5t199.5 -82.5q176 0 266 126q44 62 67.5 152t23.5 208v518h225v-1166h-167q-1 26 -4 62.5t-7 59.5q-8 53 -34 53q-10 0 -17.5 -5.5t-23.5 -25.5q-64 -87 -155 -134.5t-218 -47.5zM901 1309
q-56 0 -91 34.5t-35 84.5t35 84.5t91 34.5t91 -34.5t35 -84.5t-35 -84.5t-91 -34.5zM457 1309q-56 0 -90.5 34.5t-34.5 84.5t34.5 84.5t90.5 34.5q57 0 92 -34.5t35 -84.5t-35 -84.5t-92 -34.5zM747 1631l242 342h-211l-178 -342h147z" />
    <glyph glyph-name="uni01D9" unicode="&#x1d9;" horiz-adv-x="1655" 
d="M828 -40q-198 0 -346.5 72t-231 216t-82.5 361v988h249v-998q0 -214 106.5 -323t304.5 -109q197 0 303.5 109t106.5 323v998h249v-988q0 -217 -82 -361t-230 -216t-347 -72zM1057 1752q-58 0 -93.5 36t-35.5 88t35.5 88t93.5 36t94 -36t36 -88t-35.5 -88t-94.5 -36z
M598 1752q-58 0 -93.5 36t-35.5 88q0 51 35.5 87.5t93.5 36.5t94 -36.5t36 -87.5q0 -52 -35.5 -88t-94.5 -36zM446 2398l270 -317h225l269 317h-189l-168 -160q-13 -10 -25 -10q-14 0 -25 10l-168 160h-189z" />
    <glyph glyph-name="uni01DA" unicode="&#x1da;" horiz-adv-x="1375" 
d="M592 -38q-217 0 -334 128t-117 362v714h226v-685q0 -154 69.5 -236.5t199.5 -82.5q176 0 266 126q44 62 67.5 152t23.5 208v518h225v-1166h-167q-1 26 -4 62.5t-7 59.5q-8 53 -34 53q-10 0 -17.5 -5.5t-23.5 -25.5q-64 -87 -155 -134.5t-218 -47.5zM901 1309
q-56 0 -91 34.5t-35 84.5t35 84.5t91 34.5t91 -34.5t35 -84.5t-35 -84.5t-91 -34.5zM457 1309q-56 0 -90.5 34.5t-34.5 84.5t34.5 84.5t90.5 34.5q57 0 92 -34.5t35 -84.5t-35 -84.5t-92 -34.5zM332 2005l265 -374h166l265 374h-159l-153 -171q-19 -22 -36 -22q-16 0 -36 22
l-153 171h-159z" />
    <glyph glyph-name="uni01DB" unicode="&#x1db;" horiz-adv-x="1655" 
d="M828 -40q-198 0 -346.5 72t-231 216t-82.5 361v988h249v-998q0 -214 106.5 -323t304.5 -109q197 0 303.5 109t106.5 323v998h249v-988q0 -217 -82 -361t-230 -216t-347 -72zM1057 1752q-58 0 -93.5 36t-35.5 88t35.5 88t93.5 36t94 -36t36 -88t-35.5 -88t-94.5 -36z
M598 1752q-58 0 -93.5 36t-35.5 88q0 51 35.5 87.5t93.5 36.5t94 -36.5t36 -87.5q0 -52 -35.5 -88t-94.5 -36zM915 2084l-241 322h-247l304 -322h184z" />
    <glyph glyph-name="uni01DC" unicode="&#x1dc;" horiz-adv-x="1375" 
d="M592 -38q-217 0 -334 128t-117 362v714h226v-685q0 -154 69.5 -236.5t199.5 -82.5q176 0 266 126q44 62 67.5 152t23.5 208v518h225v-1166h-167q-1 26 -4 62.5t-7 59.5q-8 53 -34 53q-10 0 -17.5 -5.5t-23.5 -25.5q-64 -87 -155 -134.5t-218 -47.5zM901 1309
q-56 0 -91 34.5t-35 84.5t35 84.5t91 34.5t91 -34.5t35 -84.5t-35 -84.5t-91 -34.5zM457 1309q-56 0 -90.5 34.5t-34.5 84.5t34.5 84.5t90.5 34.5q57 0 92 -34.5t35 -84.5t-35 -84.5t-92 -34.5zM611 1631l-242 342h211l178 -342h-147z" />
    <glyph glyph-name="uni01DD" unicode="&#x1dd;" horiz-adv-x="1348" 
d="M676 -38q-176 0 -311 74.5t-211.5 207t-76.5 304.5q0 24 2 56t5 46h956q-7 167 -106 269t-260 102q-130 0 -219.5 -57.5t-129.5 -153.5h-229q50 179 202.5 286t375.5 107q177 0 311.5 -77.5t210 -217t75.5 -325.5q0 -182 -77 -322t-211 -219.5t-307 -79.5zM676 142
q152 0 249.5 96.5t113.5 254.5h-740q5 -157 109.5 -254t267.5 -97z" />
    <glyph glyph-name="uni01DE" unicode="&#x1de;" horiz-adv-x="1538" 
d="M11 0l590 1597h337l589 -1597h-272l-148 409h-686l-148 -409h-262zM477 597h573l-287 812zM993 1752q-58 0 -93.5 36t-35.5 88t35.5 88t93.5 36t94 -36t36 -88t-35.5 -88t-94.5 -36zM534 1752q-58 0 -93.5 36t-35.5 88q0 51 35.5 87.5t93.5 36.5t94 -36.5t36 -87.5
q0 -52 -35.5 -88t-94.5 -36zM442 2135v156h644v-156h-644z" />
    <glyph glyph-name="uni01DF" unicode="&#x1df;" horiz-adv-x="1272" 
d="M525 -36q-201 0 -323 100t-122 267q0 166 114.5 254.5t349.5 106.5q114 9 216 20.5t152 25.5v4q0 134 -69.5 207.5t-201.5 73.5q-118 0 -194 -54t-100 -146h-235q36 171 176.5 276t349.5 105q239 0 366.5 -124t127.5 -351v-729h-170q-1 32 -4.5 69t-8.5 59q-7 34 -25 34
q-15 0 -37 -30q-56 -79 -146 -123.5t-216 -44.5zM310 336q0 -91 68.5 -144t182.5 -53q93 0 171 35.5t125 133.5q24 50 39.5 113t15.5 145v8q-48 -14 -139.5 -26.5t-200.5 -22.5q-141 -13 -201.5 -57t-60.5 -132zM850 1306q-56 0 -91 34.5t-35 84.5t35 84.5t91 34.5t91 -34.5
t35 -84.5t-35 -84.5t-91 -34.5zM406 1306q-56 0 -90.5 34.5t-34.5 84.5t34.5 84.5t90.5 34.5q57 0 92 -34.5t35 -84.5t-35 -84.5t-92 -34.5zM312 1662v148h632v-148h-632z" />
    <glyph glyph-name="uni01E4" unicode="&#x1e4;" horiz-adv-x="1998" 
d="M895 -37q-173 0 -320 59t-256.5 169t-170 263.5t-60.5 341.5q0 186 63 340.5t177.5 266.5t270 173t340.5 61q207 0 372.5 -71.5t274.5 -205t144 -320.5h-263q-46 182 -182.5 283t-339.5 101q-173 0 -307.5 -76.5t-211 -216t-76.5 -329.5q0 -187 72.5 -328.5t204 -221
t308.5 -79.5q168 0 282.5 68.5t182.5 196.5q10 19 20 41h-368v171h417q8 43 13 89h232v-89h251v-171h-251v-479h-174q-3 54 -8 111t-10 88q-10 51 -36 51q-12 0 -22 -7t-27 -30q-88 -115 -225.5 -182.5t-316.5 -67.5z" />
    <glyph glyph-name="uni01E5" unicode="&#x1e5;" horiz-adv-x="1655" 
d="M56 533v150h175q16 155 95 272t200.5 182t268.5 65q129 0 224 -44t170 -126q29 -30 46 -30q22 0 30 44q4 29 7 64t4 56h168v-483h181v-150h-181v-514q0 -167 -70.5 -287t-200.5 -184t-307 -64q-161 0 -285 55.5t-204.5 152.5t-111.5 223h231q33 -120 133.5 -187
t236.5 -67q173 0 265.5 90.5t92.5 259.5v143q0 33 -20 33q-11 0 -30 -19q-64 -70 -159 -107.5t-208 -37.5q-155 0 -279 65t-202 180.5t-95 264.5h-175zM845 1010q-154 0 -258 -90t-126 -237h768q-22 148 -126 237.5t-258 89.5zM845 207q154 0 258 89.5t126 236.5h-768
q23 -146 127 -236t257 -90z" />
    <glyph glyph-name="Gcaron" unicode="&#x1e6;" horiz-adv-x="1835" 
d="M895 -37q-173 0 -320 59t-256.5 169t-170 263.5t-60.5 341.5q0 186 63 340.5t177.5 266.5t270 173t340.5 61q207 0 372.5 -71.5t274.5 -205t144 -320.5h-263q-46 182 -182.5 283t-339.5 101q-173 0 -307.5 -76.5t-211 -216t-76.5 -329.5q0 -187 72.5 -328.5t204 -221
t308.5 -79.5q168 0 282.5 68.5t182.5 196.5q36 67 56.5 151.5t28.5 172.5h229v-762h-174q-3 54 -8 111t-10 88q-10 51 -36 51q-12 0 -22 -7t-27 -30q-88 -115 -225.5 -182.5t-316.5 -67.5zM518 2069l294 -351h225l295 351h-189l-193 -186q-13 -12 -25 -12t-26 12l-192 186
h-189z" />
    <glyph glyph-name="gcaron" unicode="&#x1e7;" horiz-adv-x="1451" 
d="M718 -514q-161 0 -285 55.5t-204 152.5t-112 223h231q33 -119 133.5 -186.5t236.5 -67.5q173 0 266 90.5t93 259.5v141q0 33 -21 33q-10 0 -29 -19q-65 -70 -160 -107.5t-208 -37.5q-168 0 -299 76t-206 208t-75 301q0 176 76.5 310t205.5 209t287 75q128 0 223.5 -44
t169.5 -126q29 -30 46 -30q23 0 30 44q5 29 7.5 64t3.5 56h168v-1145q0 -167 -70.5 -287t-200 -184t-307.5 -64zM697 210q114 0 200.5 50.5t135.5 140t49 207.5t-48.5 208t-135.5 140.5t-201 50.5t-200.5 -51t-135.5 -140.5t-49 -207.5q0 -116 49 -206t135.5 -141t200.5 -51
zM345 1746l297 -433h178l297 433h-165l-179 -209q-23 -27 -42 -27t-42 27l-179 209h-165z" />
    <glyph glyph-name="uni01E8" unicode="&#x1e8;" horiz-adv-x="1461" 
d="M186 0v1597h250v-774l723 774h298l-734 -777l763 -820h-326l-724 787v-787h-250zM344 2069l294 -351h225l295 351h-189l-193 -186q-13 -12 -25 -12t-26 12l-192 186h-189z" />
    <glyph glyph-name="uni01E9" unicode="&#x1e9;" horiz-adv-x="1200" 
d="M157 0v1659h226v-1058l527 565h285l-544 -570l573 -596h-304l-537 567v-567h-226zM-139 2131l294 -351h225l295 351h-189l-193 -186q-13 -12 -25 -12t-26 12l-192 186h-189z" />
    <glyph glyph-name="uni01EA" unicode="&#x1ea;" horiz-adv-x="1879" 
d="M940 -39q-189 0 -345 62t-270 175t-176 266t-62 335t62 335t176 266t270 175t345 62q188 0 344.5 -62t270.5 -175t176 -266t62 -335t-62 -335t-176 -266t-270.5 -175t-344.5 -62zM940 175q176 0 309 78.5t207.5 219t74.5 326.5q0 187 -74.5 327t-207.5 218.5t-309 78.5
q-175 0 -308.5 -78.5t-208 -218.5t-74.5 -327q0 -186 74.5 -326.5t208 -219t308.5 -78.5zM1259 -493q-123 0 -200 59t-77 167q1 105 75 194.5t241 185.5l72 -49q-101 -70 -149.5 -140.5t-49.5 -137.5q-1 -58 33 -86t90 -28q36 0 76.5 7.5t80.5 23.5l1 -154q-42 -20 -93 -31
t-100 -11z" />
    <glyph glyph-name="uni01EB" unicode="&#x1eb;" horiz-adv-x="1426" 
d="M713 -38q-184 0 -328.5 80.5t-227 221t-82.5 320.5t82.5 320t227 220t328.5 80q185 0 329 -80t226.5 -220t82.5 -320t-82.5 -320.5t-226.5 -221t-329 -80.5zM713 158q120 0 211.5 54t143 150t51.5 222q0 125 -51.5 221t-143 150t-211.5 54t-211.5 -54t-143 -150
t-51.5 -221q0 -126 51.5 -222t143 -150t211.5 -54zM961 -486q-119 0 -193 59t-74 165q0 103 72 191.5t237 185.5l73 -51q-207 -143 -207 -283q0 -58 35 -85.5t93 -27.5q68 0 131 25l1 -144q-76 -35 -168 -35z" />
    <glyph glyph-name="uni01EC" unicode="&#x1ec;" horiz-adv-x="1879" 
d="M940 -39q-189 0 -345 62t-270 175t-176 266t-62 335t62 335t176 266t270 175t345 62q188 0 344.5 -62t270.5 -175t176 -266t62 -335t-62 -335t-176 -266t-270.5 -175t-344.5 -62zM940 175q176 0 309 78.5t207.5 219t74.5 326.5q0 187 -74.5 327t-207.5 218.5t-309 78.5
q-175 0 -308.5 -78.5t-208 -218.5t-74.5 -327q0 -186 74.5 -326.5t208 -219t308.5 -78.5zM596 1764v162h688v-162h-688zM1259 -493q-123 0 -200 59t-77 167q1 105 75 194.5t241 185.5l72 -49q-101 -70 -149.5 -140.5t-49.5 -137.5q-1 -58 33 -86t90 -28q36 0 76.5 7.5
t80.5 23.5l1 -154q-42 -20 -93 -31t-100 -11z" />
    <glyph glyph-name="uni01ED" unicode="&#x1ed;" horiz-adv-x="1426" 
d="M713 -38q-184 0 -328.5 80.5t-227 221t-82.5 320.5t82.5 320t227 220t328.5 80q185 0 329 -80t226.5 -220t82.5 -320t-82.5 -320.5t-226.5 -221t-329 -80.5zM713 158q120 0 211.5 54t143 150t51.5 222q0 125 -51.5 221t-143 150t-211.5 54t-211.5 -54t-143 -150
t-51.5 -221q0 -126 51.5 -222t143 -150t211.5 -54zM961 -486q-119 0 -193 59t-74 165q0 103 72 191.5t237 185.5l73 -51q-207 -143 -207 -283q0 -58 35 -85.5t93 -27.5q68 0 131 25l1 -144q-76 -35 -168 -35zM369 1370v162h688v-162h-688z" />
    <glyph glyph-name="uni01EE" unicode="&#x1ee;" horiz-adv-x="1259" 
d="M623 -40q-158 0 -285 60t-207.5 170t-97.5 261h245q22 -134 112 -211.5t232 -77.5q143 0 227 84.5t84 221.5q0 147 -95.5 232.5t-256.5 85.5h-275v4l420 603h-591v204h974v-4l-432 -621q155 -8 268 -73.5t174 -175.5t61 -250q0 -149 -69 -265t-194 -182t-294 -66z
M204 2069l294 -351h225l295 351h-189l-193 -186q-13 -12 -25 -12t-26 12l-192 186h-189z" />
    <glyph glyph-name="uni01EF" unicode="&#x1ef;" horiz-adv-x="1173" 
d="M591 -516q-158 0 -284.5 56.5t-205.5 160t-97 243.5h228q23 -127 117.5 -199.5t236.5 -72.5q146 0 237 92.5t91 243.5q0 158 -98.5 250t-273.5 92h-263v4l445 625h-621v187h975v-4l-456 -641q157 -4 273.5 -70t180 -179t63.5 -259q0 -158 -71 -277t-195 -185.5
t-282 -66.5zM184 1746l297 -433h178l297 433h-165l-179 -209q-23 -27 -42 -27t-42 27l-179 209h-165z" />
    <glyph glyph-name="uni01F0" unicode="&#x1f0;" horiz-adv-x="544" 
d="M160 -487v1653h225v-1653h-225zM187 1313l-251 433h149l146 -206q23 -32 41 -32t41 32l146 206h149l-251 -433h-170z" />
    <glyph glyph-name="uni01F8" unicode="&#x1f8;" horiz-adv-x="1717" 
d="M186 0v1597h280l830 -1268v1268h235v-1597h-280l-830 1267v-1267h-235zM738 1719l-422 340h303l356 -340h-237z" />
    <glyph glyph-name="uni01F9" unicode="&#x1f9;" horiz-adv-x="1381" 
d="M157 0v1166h167q2 -28 5 -68t7 -64q8 -52 34 -52q11 0 19 5.5t21 24.5q66 91 160 141.5t227 50.5q210 0 326.5 -127.5t116.5 -362.5v-714h-226v686q0 153 -69 235.5t-195 82.5q-178 0 -273 -136q-94 -132 -94 -379v-489h-226zM603 1313l-303 433h260l232 -433h-189z" />
    <glyph glyph-name="Aringacute" unicode="&#x1fa;" horiz-adv-x="1538" 
d="M11 0l590 1597h337l589 -1597h-272l-148 409h-686l-148 -409h-262zM477 597h573l-287 812zM764 1708q-106 0 -174 63t-68 161t68 161t174 63q105 0 173.5 -63t68.5 -161t-68 -161t-174 -63zM764 1830q44 0 73 29.5t29 72.5q0 44 -29 73t-73 29q-45 0 -74 -29t-29 -73
q0 -43 29 -72.5t74 -29.5zM659 2080l241 322h247l-304 -322h-184z" />
    <glyph glyph-name="aringacute" unicode="&#x1fb;" horiz-adv-x="1272" 
d="M525 -36q-201 0 -323 100t-122 267q0 166 114.5 254.5t349.5 106.5q114 9 216 20.5t152 25.5v4q0 134 -69.5 207.5t-201.5 73.5q-118 0 -194 -54t-100 -146h-235q36 171 176.5 276t349.5 105q239 0 366.5 -124t127.5 -351v-729h-170q-1 32 -4.5 69t-8.5 59q-7 34 -25 34
q-15 0 -37 -30q-56 -79 -146 -123.5t-216 -44.5zM310 336q0 -91 68.5 -144t182.5 -53q93 0 171 35.5t125 133.5q24 50 39.5 113t15.5 145v8q-48 -14 -139.5 -26.5t-200.5 -22.5q-141 -13 -201.5 -57t-60.5 -132zM628 1292q-100 0 -164.5 59.5t-64.5 150.5q0 92 64.5 151.5
t164.5 59.5q101 0 165 -59.5t64 -151.5t-64.5 -151t-164.5 -59zM628 1402q46 0 75 28.5t29 71.5q0 44 -29 72.5t-75 28.5q-45 0 -74 -28.5t-29 -72.5q0 -43 29 -71.5t74 -28.5zM696 1634l242 342h-211l-178 -342h147z" />
    <glyph glyph-name="AEacute" unicode="&#x1fc;" horiz-adv-x="2188" 
d="M-58 0l980 1597h1155v-204h-760v-483h656v-200h-656v-506h801v-204h-1046v516l-523 1l-315 -517h-292zM655 712h417v691zM1534 1719l422 340h-303l-356 -340h237z" />
    <glyph glyph-name="aeacute" unicode="&#x1fd;" horiz-adv-x="2154" 
d="M569 -37q-147 1 -257.5 46t-172.5 129t-62 201q0 156 114.5 246t322.5 90h394v13q0 337 -278 337q-106 0 -181 -55t-98 -151h-235q35 171 170 278t343 106q149 0 258.5 -63t159.5 -178q71 116 191.5 179t270.5 63q171 0 298.5 -75t198 -206.5t70.5 -301.5q0 -25 -2 -57
t-5 -46h-927q7 -168 103 -270.5t262 -102.5q121 0 207 57.5t114 154.5h229q-43 -182 -190 -288t-356 -106q-172 0 -298.5 74.5t-188.5 204.5q-48 -132 -170 -206t-285 -73zM1506 1025q-157 0 -253 -96t-110 -254l710 -2q-4 158 -100 255t-247 97zM580 136q158 -1 237 90.5
t89 291.5h-346q-252 0 -252 -181q0 -91 73 -146t199 -55zM1155 1315l303 433h-260l-232 -433h189z" />
    <glyph glyph-name="Oslashacute" unicode="&#x1fe;" horiz-adv-x="1879" 
d="M131 -100l211 281q-120 113 -187.5 271t-67.5 347q0 182 62 335t176 266t270 175t345 62q120 0 227.5 -26t199.5 -74l122 161h262l-213 -282q121 -113 188 -271t67 -346q0 -182 -62 -335t-176 -266t-270.5 -175t-344.5 -62q-120 0 -228 26t-200 75l-122 -162h-259z
M337 799q0 -135 40 -247.5t113 -195.5l758 999q-136 76 -308 76q-179 0 -315 -79t-212 -221.5t-76 -331.5zM940 167q179 0 314.5 79.5t211.5 221.5t76 331q0 135 -40 247t-112 195l-758 -999q136 -75 308 -75zM1062 1719l422 340h-303l-356 -340h237z" />
    <glyph glyph-name="oslashacute" unicode="&#x1ff;" horiz-adv-x="1426" 
d="M111 -100l160 223q-92 83 -144 201.5t-52 259.5q0 180 82.5 320t227 220t328.5 80q158 0 292 -62l90 125h220l-161 -223q92 -83 144.5 -201t52.5 -259q0 -180 -82.5 -320.5t-226.5 -221t-329 -80.5q-159 0 -293 62l-89 -124h-220zM295 584q0 -92 27.5 -169t77.5 -134
l502 698q-85 41 -189 41q-123 0 -217.5 -55.5t-147.5 -154t-53 -226.5zM713 147q124 0 218 55.5t147 154t53 227.5q0 91 -27.5 168t-78.5 134l-502 -698q86 -41 190 -41zM808 1313l303 433h-260l-232 -433h189z" />
    <glyph glyph-name="uni0218" unicode="&#x218;" horiz-adv-x="1344" 
d="M695 -40q-179 0 -316.5 65t-220 182.5t-97.5 274.5h244q23 -157 128.5 -243t268.5 -86q141 0 226 70.5t85 179.5q0 87 -35 143t-115 94.5t-214 70.5q-273 65 -390.5 178t-117.5 303q0 133 66 233t186 156t280 56q240 0 382 -123t167 -338h-238q-19 127 -97.5 198.5
t-212.5 71.5q-130 0 -208 -65t-78 -174q0 -103 65 -165.5t234 -103.5q298 -71 435.5 -189.5t137.5 -326.5q0 -139 -71.5 -243t-198.5 -161.5t-295 -57.5zM528 -539l86 419h210l-137 -419h-159z" />
    <glyph glyph-name="uni0219" unicode="&#x219;" horiz-adv-x="1130" 
d="M587 -39q-223 0 -359.5 102.5t-165.5 281.5h231q17 -97 91.5 -153.5t204.5 -56.5q112 0 179 46t67 122q0 54 -24.5 89t-86 59t-171.5 43q-235 42 -335 126t-100 240q0 103 55.5 180t155 120.5t230.5 43.5q208 0 329 -95.5t143 -271.5h-223q-18 98 -76.5 146t-167.5 48
q-104 0 -165 -42.5t-61 -115.5q0 -76 57.5 -115t195.5 -64q174 -30 275.5 -75.5t145 -118t43.5 -183.5q0 -103 -60 -183.5t-165.5 -126.5t-242.5 -46zM421 -611l95 458h210l-150 -458h-155z" />
    <glyph glyph-name="uni021A" unicode="&#x21a;" horiz-adv-x="1338" 
d="M545 0v1393h-518v204h1284v-204h-517v-1393h-249zM476 -539l86 419h210l-137 -419h-159z" />
    <glyph glyph-name="uni021B" unicode="&#x21b;" horiz-adv-x="869" 
d="M636 -14q-192 0 -286 95.5t-94 310.5v587h-231v187h131q66 0 96.5 23t41.5 73q6 27 12 71.5t11 92t7 83.5h155v-343h326v-187h-326v-567q0 -129 46.5 -185t159.5 -56q35 0 72 4.5t71 14.5v-176q-31 -11 -86 -19.5t-106 -8.5zM360 -608l95 458h210l-150 -458h-155z" />
    <glyph glyph-name="uni021E" unicode="&#x21e;" horiz-adv-x="1684" 
d="M186 0v1597h250v-687h813v687h249v-1597h-249v707h-813v-707h-250zM436 2069l294 -351h225l295 351h-189l-193 -186q-13 -12 -25 -12t-26 12l-192 186h-189z" />
    <glyph glyph-name="uni021F" unicode="&#x21f;" horiz-adv-x="1381" 
d="M157 0v1659h226v-624q0 -34 20 -34q9 0 15.5 5.5t21.5 24.5q62 81 151 127t213 46q205 0 320.5 -127.5t115.5 -363.5v-713h-226v686q0 153 -69 235.5t-195 82.5q-178 0 -273 -136q-94 -132 -94 -379v-489h-226zM-137 2131l294 -351h225l295 351h-189l-193 -186
q-13 -12 -25 -12t-26 12l-192 186h-189z" />
    <glyph glyph-name="uni0226" unicode="&#x226;" horiz-adv-x="1538" 
d="M11 0l590 1597h337l589 -1597h-272l-148 409h-686l-148 -409h-262zM477 597h573l-287 812zM763 1747q-63 0 -101.5 39t-38.5 95t38.5 95t101.5 39q64 0 102.5 -39t38.5 -95t-38.5 -95t-102.5 -39z" />
    <glyph glyph-name="uni0227" unicode="&#x227;" horiz-adv-x="1272" 
d="M525 -36q-201 0 -323 100t-122 267q0 166 114.5 254.5t349.5 106.5q114 9 216 20.5t152 25.5v4q0 134 -69.5 207.5t-201.5 73.5q-118 0 -194 -54t-100 -146h-235q36 171 176.5 276t349.5 105q239 0 366.5 -124t127.5 -351v-729h-170q-1 32 -4.5 69t-8.5 59q-7 34 -25 34
q-15 0 -37 -30q-56 -79 -146 -123.5t-216 -44.5zM310 336q0 -91 68.5 -144t182.5 -53q93 0 171 35.5t125 133.5q24 50 39.5 113t15.5 145v8q-48 -14 -139.5 -26.5t-200.5 -22.5q-141 -13 -201.5 -57t-60.5 -132zM627 1336q-64 0 -102.5 39.5t-38.5 95.5q0 57 38.5 96.5
t102.5 39.5t103 -39.5t39 -96.5q0 -56 -39 -95.5t-103 -39.5z" />
    <glyph glyph-name="uni0228" unicode="&#x228;" horiz-adv-x="1342" 
d="M186 0v1597h1045v-204h-799v-483h695v-200h-695v-506h840v-204h-1086zM792 -532q-154 0 -241 83.5t-96 224.5h181q6 -75 45.5 -116t105.5 -41q60 0 92.5 30.5t32.5 85.5q0 65 -63 133.5t-188 131.5l174 19q115 -47 183 -127.5t68 -175.5q0 -110 -79.5 -179t-214.5 -69z
" />
    <glyph glyph-name="uni0229" unicode="&#x229;" horiz-adv-x="1350" 
d="M690 -37q-182 0 -320 77.5t-215.5 217.5t-77.5 326q0 181 80 321t217 219.5t309 79.5q186 0 317.5 -77.5t201.5 -210.5t70 -300q0 -25 -2 -59.5t-4 -50.5h-956q12 -163 114 -262t266 -99q126 0 216 57.5t119 153.5h228q-42 -180 -193 -286.5t-370 -106.5zM688 1025
q-156 0 -258 -94t-119 -251h739q-6 154 -106 249.5t-256 95.5zM710 -530q-150 0 -234.5 84.5t-92.5 221.5h168q7 -76 48 -119.5t112 -43.5q61 0 95 31.5t34 87.5q0 63 -65.5 133.5t-190.5 134.5h184q107 -46 168 -121t61 -159q0 -110 -75.5 -180t-211.5 -70z" />
    <glyph glyph-name="uni022A" unicode="&#x22a;" horiz-adv-x="1879" 
d="M940 -39q-189 0 -345 62t-270 175t-176 266t-62 335t62 335t176 266t270 175t345 62q188 0 344.5 -62t270.5 -175t176 -266t62 -335t-62 -335t-176 -266t-270.5 -175t-344.5 -62zM940 175q176 0 309 78.5t207.5 219t74.5 326.5q0 187 -74.5 327t-207.5 218.5t-309 78.5
q-175 0 -308.5 -78.5t-208 -218.5t-74.5 -327q0 -186 74.5 -326.5t208 -219t308.5 -78.5zM1169 1752q-58 0 -93.5 36t-35.5 88t35.5 88t93.5 36t94 -36t36 -88t-35.5 -88t-94.5 -36zM710 1752q-58 0 -93.5 36t-35.5 88q0 51 35.5 87.5t93.5 36.5t94 -36.5t36 -87.5
q0 -52 -35.5 -88t-94.5 -36zM618 2135v156h644v-156h-644z" />
    <glyph glyph-name="uni022B" unicode="&#x22b;" horiz-adv-x="1426" 
d="M713 -38q-184 0 -328.5 80.5t-227 221t-82.5 320.5t82.5 320t227 220t328.5 80q185 0 329 -80t226.5 -220t82.5 -320t-82.5 -320.5t-226.5 -221t-329 -80.5zM713 158q120 0 211.5 54t143 150t51.5 222q0 125 -51.5 221t-143 150t-211.5 54t-211.5 -54t-143 -150
t-51.5 -221q0 -126 51.5 -222t143 -150t211.5 -54zM935 1309q-56 0 -91 34.5t-35 84.5t35 84.5t91 34.5t91 -34.5t35 -84.5t-35 -84.5t-91 -34.5zM491 1309q-56 0 -90.5 34.5t-34.5 84.5t34.5 84.5t90.5 34.5q57 0 92 -34.5t35 -84.5t-35 -84.5t-92 -34.5zM397 1665v148h632
v-148h-632z" />
    <glyph glyph-name="uni022C" unicode="&#x22c;" horiz-adv-x="1879" 
d="M940 -39q-189 0 -345 62t-270 175t-176 266t-62 335t62 335t176 266t270 175t345 62q188 0 344.5 -62t270.5 -175t176 -266t62 -335t-62 -335t-176 -266t-270.5 -175t-344.5 -62zM940 175q176 0 309 78.5t207.5 219t74.5 326.5q0 187 -74.5 327t-207.5 218.5t-309 78.5
q-175 0 -308.5 -78.5t-208 -218.5t-74.5 -327q0 -186 74.5 -326.5t208 -219t308.5 -78.5zM1086 1732q-51 0 -92 19.5t-75.5 45.5t-65.5 45.5t-63 19.5q-37 0 -60 -29.5t-33 -79.5h-130q15 117 75 188t154 71q51 0 91.5 -19.5t74.5 -45t65 -45t63 -19.5q38 0 61 30t32 79h131
q-16 -116 -74.5 -188t-153.5 -72zM619 2149v156h644v-156h-644z" />
    <glyph glyph-name="uni022D" unicode="&#x22d;" horiz-adv-x="1426" 
d="M713 -38q-184 0 -328.5 80.5t-227 221t-82.5 320.5t82.5 320t227 220t328.5 80q185 0 329 -80t226.5 -220t82.5 -320t-82.5 -320.5t-226.5 -221t-329 -80.5zM713 158q120 0 211.5 54t143 150t51.5 222q0 125 -51.5 221t-143 150t-211.5 54t-211.5 -54t-143 -150
t-51.5 -221q0 -126 51.5 -222t143 -150t211.5 -54zM840 1329q-58 0 -100.5 27.5t-78 54.5t-72.5 27q-69 0 -86 -95h-134q15 110 71.5 177.5t146.5 67.5q59 0 101.5 -27t78 -54.5t71.5 -27.5q69 0 87 94h134q-16 -111 -73 -177.5t-146 -66.5zM397 1726v148h632v-148h-632z
" />
    <glyph glyph-name="uni022E" unicode="&#x22e;" horiz-adv-x="1879" 
d="M940 -39q-189 0 -345 62t-270 175t-176 266t-62 335t62 335t176 266t270 175t345 62q188 0 344.5 -62t270.5 -175t176 -266t62 -335t-62 -335t-176 -266t-270.5 -175t-344.5 -62zM940 175q176 0 309 78.5t207.5 219t74.5 326.5q0 187 -74.5 327t-207.5 218.5t-309 78.5
q-175 0 -308.5 -78.5t-208 -218.5t-74.5 -327q0 -186 74.5 -326.5t208 -219t308.5 -78.5zM939 1747q-63 0 -101.5 39t-38.5 95t38.5 95t101.5 39q64 0 102.5 -39t38.5 -95t-38.5 -95t-102.5 -39z" />
    <glyph glyph-name="uni022F" unicode="&#x22f;" horiz-adv-x="1426" 
d="M713 -38q-184 0 -328.5 80.5t-227 221t-82.5 320.5t82.5 320t227 220t328.5 80q185 0 329 -80t226.5 -220t82.5 -320t-82.5 -320.5t-226.5 -221t-329 -80.5zM713 158q120 0 211.5 54t143 150t51.5 222q0 125 -51.5 221t-143 150t-211.5 54t-211.5 -54t-143 -150
t-51.5 -221q0 -126 51.5 -222t143 -150t211.5 -54zM712 1339q-64 0 -102.5 39.5t-38.5 95.5q0 57 38.5 96.5t102.5 39.5t103 -39.5t39 -96.5q0 -56 -39 -95.5t-103 -39.5z" />
    <glyph glyph-name="uni0230" unicode="&#x230;" horiz-adv-x="1879" 
d="M940 -39q-189 0 -345 62t-270 175t-176 266t-62 335t62 335t176 266t270 175t345 62q188 0 344.5 -62t270.5 -175t176 -266t62 -335t-62 -335t-176 -266t-270.5 -175t-344.5 -62zM940 175q176 0 309 78.5t207.5 219t74.5 326.5q0 187 -74.5 327t-207.5 218.5t-309 78.5
q-175 0 -308.5 -78.5t-208 -218.5t-74.5 -327q0 -186 74.5 -326.5t208 -219t308.5 -78.5zM940 1752q-58 0 -94.5 37t-36.5 90t36.5 89.5t94.5 36.5q59 0 96 -36.5t37 -89.5q0 -52 -37 -89.5t-96 -37.5zM618 2135v156h644v-156h-644z" />
    <glyph glyph-name="uni0231" unicode="&#x231;" horiz-adv-x="1426" 
d="M713 -38q-184 0 -328.5 80.5t-227 221t-82.5 320.5t82.5 320t227 220t328.5 80q185 0 329 -80t226.5 -220t82.5 -320t-82.5 -320.5t-226.5 -221t-329 -80.5zM713 158q120 0 211.5 54t143 150t51.5 222q0 125 -51.5 221t-143 150t-211.5 54t-211.5 -54t-143 -150
t-51.5 -221q0 -126 51.5 -222t143 -150t211.5 -54zM712 1309q-58 0 -94.5 36t-36.5 88q0 53 36.5 89t94.5 36q59 0 95 -36t36 -89q0 -52 -36 -88t-95 -36zM396 1671v148h632v-148h-632z" />
    <glyph glyph-name="uni0232" unicode="&#x232;" horiz-adv-x="1437" 
d="M599 0v646l-593 951h281l444 -735l431 735h259l-579 -952v-645h-243zM372 1764v162h688v-162h-688z" />
    <glyph glyph-name="uni0233" unicode="&#x233;" horiz-adv-x="1240" 
d="M295 -497l211 497l-495 1166h253l368 -914l361 914h235l-700 -1663h-233zM284 1370v162h688v-162h-688z" />
    <glyph glyph-name="uni0237" unicode="&#x237;" horiz-adv-x="544" 
d="M160 -487v1653h225v-1653h-225z" />
    <glyph glyph-name="uni0241" unicode="&#x241;" horiz-adv-x="1106" 
d="M385 0v370q0 108 18.5 196t71 170.5t154.5 172.5q102 95 141 164t39 142q0 101 -66.5 158t-179.5 57q-105 0 -182.5 -55.5t-99.5 -174.5h-250q30 212 176.5 323.5t357.5 111.5q151 0 261.5 -53t171 -146.5t60.5 -217.5q0 -71 -21.5 -137.5t-75 -140t-149.5 -165.5
q-76 -74 -114 -133t-50.5 -122.5t-12.5 -152.5v-367h-250z" />
    <glyph glyph-name="uni0242" unicode="&#x242;" horiz-adv-x="1066" 
d="M360 0v81q0 147 56 250t192 210q107 84 144.5 140t37.5 128q0 92 -68 150.5t-179 58.5q-118 0 -199.5 -64.5t-100.5 -181.5h-232q27 202 171 317t361 115q142 0 248.5 -50t165.5 -139t59 -205q0 -113 -58 -203t-197 -200q-99 -79 -139.5 -153.5t-40.5 -180.5v-73h-221z
" />
    <glyph glyph-name="uni0243" unicode="&#x243;" horiz-adv-x="1555" 
d="M265 0v389h-226v160h226v1048h642q241 0 367 -111.5t126 -300.5q0 -122 -60.5 -209.5t-177.5 -130.5q146 -41 222 -144t76 -251q0 -214 -131.5 -332t-382.5 -118h-681zM510 915h360q143 0 218.5 63.5t75.5 181.5q0 117 -74 180t-218 63h-362v-488zM509 194h405
q150 0 227.5 72t77.5 202q0 134 -80 205t-227 71h-403v-203h461v-144h-461v-203z" />
    <glyph glyph-name="uni0244" unicode="&#x244;" horiz-adv-x="1845" 
d="M8 808v186h255v603h245v-603h828v603h246v-603h255v-186h-255v-199q0 -217 -82 -361t-230 -216t-347 -72q-198 0 -346.5 72t-231 216t-82.5 361v199h-255zM508 599q0 -214 107.5 -323.5t307.5 -109.5t306.5 109.5t106.5 323.5v209h-828v-209z" />
    <glyph glyph-name="uni0245" unicode="&#x245;" horiz-adv-x="1537" 
d="M17 0l591 1597h308l617 -1597h-276l-506 1355l-483 -1355h-251z" />
    <glyph glyph-name="uni024B" unicode="&#x24b;" horiz-adv-x="1489" 
d="M1430 -514q-163 0 -243.5 92t-80.5 262v264q0 33 -20 33q-12 0 -26 -15q-63 -72 -161.5 -115.5t-224.5 -43.5q-172 0 -307 80.5t-213 221t-78 319.5q0 180 78.5 319.5t212.5 219.5t300 80q137 0 237 -47t171 -130q29 -34 47 -34q23 0 30 45q5 29 8 66.5t4 62.5h168v-1304
q0 -194 166 -194q31 0 60 5.5t57 14.5v-163q-35 -18 -86.5 -28.5t-98.5 -10.5zM712 159q119 0 209.5 53.5t141.5 149.5t51 221q0 126 -51 221.5t-141.5 149.5t-209.5 54q-118 0 -209 -54t-142 -150t-51 -221q0 -124 51 -220t142 -150t209 -54z" />
    <glyph glyph-name="uni024C" unicode="&#x24c;" horiz-adv-x="1600" 
d="M264 0v672h-234v185h234v740h683q248 0 382 -112.5t134 -326.5q0 -143 -72.5 -245t-212.5 -141q111 -17 163 -81.5t70 -199.5l43 -330q17 -126 54 -161h-255q-32 24 -44 128l-38 328q-13 121 -65.5 168.5t-186.5 47.5h-409v-672h-246zM914 1399h-403v-542h396
q313 0 313 270q0 272 -306 272z" />
    <glyph glyph-name="uni024D" unicode="&#x24d;" horiz-adv-x="1079" 
d="M213 0v443h-181v150h181v573h166q2 -20 5 -51.5t7 -55.5q10 -45 32 -45q11 0 19.5 6t21.5 25q48 70 119.5 109.5t160.5 39.5q146 0 228.5 -98.5t82.5 -271.5q0 -18 -2 -42h-206q1 7 1.5 15t0.5 17q0 86 -40.5 138t-117.5 52q-137 0 -204 -149q-46 -101 -49 -262h297v-150
h-297v-443h-225z" />
    <glyph glyph-name="uni0251" unicode="&#x251;" horiz-adv-x="1489" 
d="M665 -36q-167 0 -300.5 80.5t-210.5 220.5t-77 319t77 318.5t210.5 220t300.5 80.5q137 0 238 -47t171 -130q31 -34 48 -34q23 0 30 46q5 29 7.5 66t3.5 63h169v-1167h-169q-1 26 -3.5 63.5t-7.5 65.5q-7 46 -30 46q-17 0 -48 -34q-70 -83 -171 -130t-238 -47zM712 159
q121 0 211 53.5t140.5 149.5t50.5 222t-50.5 222t-140.5 149.5t-211 53.5q-118 0 -209 -53.5t-142.5 -149t-51.5 -222.5t51.5 -222.5t142.5 -149t209 -53.5z" />
    <glyph glyph-name="uni0253" unicode="&#x253;" horiz-adv-x="1489" 
d="M822 -37q-136 0 -236.5 47.5t-171.5 130.5q-29 33 -47 33q-23 0 -30 -45q-4 -28 -7 -65.5t-5 -63.5h-168v1281q0 405 401 407q69 0 140 -17t120 -44v-168q-46 20 -98 32t-110 12q-228 0 -228 -233l1 -208q0 -33 20 -33q12 0 26 15q63 73 161.5 116t224.5 43
q172 0 307 -80.5t213 -220.5t78 -320q0 -179 -78.5 -319t-212 -220t-300.5 -80zM777 159q119 0 209.5 54t141.5 150t51 221q0 124 -51 219.5t-141.5 150t-209.5 54.5t-209.5 -54t-141.5 -149.5t-51 -220.5q0 -126 51 -221.5t141.5 -149.5t209.5 -54z" />
    <glyph glyph-name="uni0254" unicode="&#x254;" horiz-adv-x="1357" 
d="M668 -38q-167 0 -295 60t-207.5 168.5t-103.5 254.5h231q25 -133 123.5 -210t249.5 -77q113 0 199.5 54t135 150t48.5 222t-48.5 222t-135 149.5t-199.5 53.5q-151 0 -249.5 -77t-123.5 -210h-231q24 147 103.5 255.5t207.5 168t295 59.5q177 0 315.5 -79.5t217.5 -219.5
t79 -322t-79 -322.5t-217.5 -220t-315.5 -79.5z" />
    <glyph glyph-name="uni0256" unicode="&#x256;" horiz-adv-x="1488" 
d="M1430 -514q-163 0 -243.5 92t-80.5 262v265q0 33 -20 33q-12 0 -26 -15q-63 -72 -161.5 -115.5t-224.5 -43.5q-172 0 -307 80.5t-213 220.5t-78 319t78 318.5t213 220t307 80.5q126 0 224.5 -43t161.5 -116q14 -15 26 -15q20 0 20 33v597h226v-1797q0 -194 166 -194
q31 0 60 5.5t57 14.5v-163q-35 -18 -86.5 -28.5t-98.5 -10.5zM712 159q119 0 209.5 54t141.5 150t51 221t-51 220.5t-141.5 149.5t-209.5 54q-118 0 -209 -54.5t-142 -150t-51 -219.5t51 -220t142 -150.5t209 -54.5z" />
    <glyph glyph-name="uni0257" unicode="&#x257;" horiz-adv-x="1488" 
d="M667 -37q-166 0 -300 80t-212.5 220t-78.5 319q0 180 78 320t213 220.5t307 80.5q126 0 224.5 -43t161.5 -116q14 -15 26 -15q20 0 20 33v271q0 170 80.5 262.5t243.5 92.5q47 0 98.5 -11t86.5 -28v-164q-58 20 -117 20q-166 0 -166 -197v-1308h-168q-1 26 -4 63.5
t-8 65.5q-7 45 -30 45q-18 0 -47 -33q-71 -83 -171 -130.5t-237 -47.5zM712 159q119 0 209.5 54t141.5 149.5t51 221.5q0 125 -51 220.5t-141.5 149.5t-209.5 54q-118 0 -209 -54.5t-142 -150t-51 -219.5q0 -125 51 -221t142 -150t209 -54z" />
    <glyph glyph-name="uni0259" unicode="&#x259;" horiz-adv-x="1348" 
d="M676 -38q-176 0 -311 74.5t-211.5 207t-76.5 304.5q0 24 2 56t5 46h956q-7 167 -106 269t-260 102q-130 0 -219.5 -57.5t-129.5 -153.5h-229q50 179 202.5 286t375.5 107q177 0 311.5 -77.5t210 -217t75.5 -325.5q0 -182 -77 -322t-211 -219.5t-307 -79.5zM676 142
q152 0 249.5 96.5t113.5 254.5h-740q5 -157 109.5 -254t267.5 -97z" />
    <glyph glyph-name="uni025B" unicode="&#x25b;" horiz-adv-x="1106" 
d="M565 -42q-141 0 -251.5 43t-174 123t-63.5 193q0 115 69.5 193.5t191.5 108.5q-97 29 -154 100t-57 165q0 143 116 232.5t315 89.5q200 0 321.5 -92t134.5 -259h-220q-13 83 -69.5 127.5t-157.5 44.5q-99 0 -158.5 -45t-59.5 -124q0 -76 61.5 -123.5t163.5 -47.5h200
v-159h-202q-121 0 -191 -50t-70 -139q0 -97 71.5 -149t191.5 -52q230 0 256 206h233q-18 -181 -147.5 -283.5t-349.5 -102.5z" />
    <glyph glyph-name="uni0260" unicode="&#x260;" horiz-adv-x="1453" 
d="M718 -514q-236 0 -394.5 118.5t-206.5 312.5h231q33 -118 133 -186t237 -68q173 0 266 91t93 260v141q0 33 -21 33q-11 0 -29 -19q-136 -145 -368 -145q-167 0 -298.5 76t-206.5 208.5t-75 301.5q0 171 74.5 305t205 211t296.5 77q115 0 207.5 -38.5t153.5 -106.5
q21 -21 35 -21q20 0 20 33v263q0 170 80.5 262.5t242.5 92.5q47 0 99 -11t87 -28v-164q-60 20 -117 20q-167 0 -167 -194v-1289q0 -165 -69.5 -285t-199 -185.5t-309.5 -65.5zM697 212q114 0 200.5 50.5t135.5 140t49 207.5t-49 207t-135.5 139.5t-200.5 50.5t-200.5 -50.5
t-135.5 -140t-49 -206.5t49 -206.5t135.5 -140.5t200.5 -51z" />
    <glyph glyph-name="uni0263" unicode="&#x263;" horiz-adv-x="1307" 
d="M657 -516q-140 0 -231 78t-91 209q0 83 42 182t145 262l-506 951h262l383 -750l380 750h249l-502 -943q71 -113 113 -193.5t60 -142t18 -116.5q0 -131 -90.5 -209t-231.5 -78zM657 -350q53 0 84 31t31 86q0 56 -27 128t-87 169q-61 -97 -88 -169t-27 -128q0 -55 31 -86
t83 -31z" />
    <glyph glyph-name="uni0265" unicode="&#x265;" horiz-adv-x="1381" 
d="M1224 1166v-1659h-226v624q0 34 -20 34q-9 0 -15.5 -5.5t-21.5 -24.5q-62 -81 -151 -127t-213 -46q-205 0 -320.5 127.5t-115.5 363.5v713h226v-686q0 -153 69 -235.5t195 -82.5q178 0 273 136q94 132 94 379v489h226z" />
    <glyph glyph-name="uni0266" unicode="&#x266;" horiz-adv-x="1382" 
d="M158 0v1281q0 200 101 303.5t300 103.5q70 0 141 -17t119 -44v-168q-46 20 -97.5 32t-110.5 12q-228 0 -227 -233v-235q0 -34 20 -34q9 0 15.5 5.5t21.5 24.5q62 81 151 127t213 46q205 0 320.5 -127.5t115.5 -363.5v-713h-226v686q0 153 -69 235.5t-195 82.5
q-178 0 -273 -136q-94 -132 -94 -379v-489h-226z" />
    <glyph glyph-name="uni0267" unicode="&#x267;" horiz-adv-x="1382" 
d="M839 -514q-70 0 -140.5 16.5t-119.5 43.5v169q47 -20 99 -32t112 -12q113 0 168.5 58.5t55.5 182.5v774q0 153 -68.5 235.5t-194.5 82.5q-176 0 -272 -134t-96 -382v-488h-225v1281q0 200 100.5 303t300.5 103q70 0 141 -16.5t119 -43.5v-169q-46 20 -97.5 32t-110.5 12
q-228 0 -228 -232v-233q0 -34 21 -34q9 0 15.5 5.5t21.5 24.5q62 80 150.5 125.5t212.5 45.5q206 0 321 -127.5t115 -363.5v-821q0 -199 -100.5 -302.5t-300.5 -103.5z" />
    <glyph glyph-name="uni0268" unicode="&#x268;" horiz-adv-x="659" 
d="M329 1367q-65 0 -107.5 40.5t-42.5 101.5t42.5 101t107.5 40q66 0 108.5 -40t42.5 -101t-42.5 -101.5t-108.5 -40.5zM216 0v534h-181v149h181v483h226v-483h181v-149h-181v-534h-226z" />
    <glyph glyph-name="uni0269" unicode="&#x269;" horiz-adv-x="713" 
d="M525 -14q-193 0 -287 95.5t-94 310.5v774h223v-754q0 -129 46.5 -185t160.5 -56q75 0 142 19v-176q-31 -11 -86 -19.5t-105 -8.5z" />
    <glyph glyph-name="uni0272" unicode="&#x272;" horiz-adv-x="1382" 
d="M67 -514q-46 0 -99.5 10.5t-87.5 28.5v163q57 -19 118 -19q87 0 123 48t36 148v1301h168q1 -28 4.5 -67.5t7.5 -62.5q8 -52 34 -52q11 0 18.5 5.5t21.5 23.5q66 91 160 141t226 50q210 0 326.5 -127.5t116.5 -363.5v-713h-226v686q0 153 -68.5 235.5t-194.5 82.5
q-177 0 -273 -134q-95 -133 -95 -382v-648q0 -169 -76.5 -261.5t-239.5 -92.5z" />
    <glyph glyph-name="uni0275" unicode="&#x275;" horiz-adv-x="1426" 
d="M713 -38q-184 0 -328.5 80.5t-227 221t-82.5 320.5t82.5 320t227 220t328.5 80q185 0 329 -80t226.5 -220t82.5 -320t-82.5 -320.5t-226.5 -221t-329 -80.5zM713 1020q-167 0 -279 -100t-134 -262h826q-22 162 -134 262t-279 100zM713 147q167 0 278.5 99.5t134.5 262.5
h-826q23 -163 134.5 -262.5t278.5 -99.5z" />
    <glyph glyph-name="uni027D" unicode="&#x27d;" horiz-adv-x="1022" 
d="M559 -514q-201 0 -301.5 103.5t-100.5 302.5v1274h165q2 -19 5.5 -50.5t7.5 -54.5q8 -46 31 -46q19 0 41 31q48 70 119.5 109t159.5 39q146 0 229 -98.5t83 -271.5q0 -18 -2 -42h-206q1 8 1.5 15.5t0.5 16.5q0 86 -40.5 138t-116.5 52q-137 0 -204 -148q-25 -55 -37 -128
t-12 -159v-655q0 -126 56.5 -184.5t171.5 -58.5q86 0 167 28v-171q-97 -42 -218 -42z" />
    <glyph glyph-name="uni027E" unicode="&#x27e;" horiz-adv-x="732" 
d="M525 1180q50 0 105 -8t86 -19v-177q-71 20 -142 20q-114 0 -160.5 -56.5t-46.5 -185.5v-754h-223v775q0 215 94 310t287 95z" />
    <glyph glyph-name="uni0283" unicode="&#x283;" horiz-adv-x="628" 
d="M244 -516q-61 0 -118.5 12.5t-103.5 37.5v164q43 -19 85 -27.5t81 -8.5q77 0 113.5 40t36.5 103q0 28 -3 55t-8 64l-183 1324q-6 44 -8 75.5t-2 65.5q0 134 82.5 216.5t237.5 82.5q60 0 118 -12.5t104 -37.5v-164q-43 19 -85 27.5t-81 8.5q-77 0 -113.5 -40.5
t-36.5 -102.5q0 -28 3 -55t7 -64l184 -1325q5 -43 7.5 -74.5t2.5 -65.5q0 -133 -82.5 -216t-237.5 -83z" />
    <glyph glyph-name="uni0288" unicode="&#x288;" horiz-adv-x="830" 
d="M663 -514q-199 0 -299.5 103.5t-100.5 302.5v1087h-231v187h132q65 0 96 23t41 73q6 27 12 71.5t11 92t7 83.5h155v-343h327v-187h-327v-1076q0 -232 228 -232q86 0 167 28v-171q-45 -19 -103.5 -30.5t-114.5 -11.5z" />
    <glyph glyph-name="uni0289" unicode="&#x289;" horiz-adv-x="1496" 
d="M24 574v149h181v443h223v-443h632v443h222v-443h181v-149h-181v-574h-167q-1 26 -4 62.5t-7 59.5q-8 53 -34 53q-10 0 -17.5 -5.5t-23.5 -25.5q-64 -87 -155 -134.5t-218 -47.5q-214 0 -332.5 128t-118.5 362v122h-181zM428 481q0 -155 70 -238.5t202 -83.5
q179 0 269 129q75 108 88 286h-629v-93z" />
    <glyph glyph-name="uni028A" unicode="&#x28a;" horiz-adv-x="1456" 
d="M728 -38q-180 0 -318.5 74.5t-217 201t-78.5 283.5q0 153 69 273t174 185h-272v187h560v-169q-130 -53 -219 -164t-89 -281q0 -112 48 -201.5t136 -142t207 -52.5t207 52.5t136.5 142t48.5 201.5q0 170 -89 281t-220 164v169h560v-187h-272q105 -65 174.5 -185t69.5 -273
q0 -157 -78.5 -283.5t-217 -201t-319.5 -74.5z" />
    <glyph glyph-name="uni028B" unicode="&#x28b;" horiz-adv-x="1300" 
d="M661 -39q-245 0 -383.5 138t-138.5 400v667h223v-667q0 -175 79 -262.5t221 -87.5q162 0 244.5 133.5t82.5 390.5q0 173 -49 257.5t-171 84.5q-72 0 -138 -23v169q39 17 92.5 28.5t115.5 10.5q198 -1 287 -132.5t89 -371.5q0 -350 -137 -542.5t-417 -192.5z" />
    <glyph glyph-name="uni028C" unicode="&#x28c;" horiz-adv-x="1259" 
d="M754 1166l496 -1166h-253l-376 936l-367 -936h-240l486 1166h254z" />
    <glyph glyph-name="uni0292" unicode="&#x292;" horiz-adv-x="1173" 
d="M591 -516q-158 0 -284.5 56.5t-205.5 160t-97 243.5h228q23 -127 117.5 -199.5t236.5 -72.5q146 0 237 92.5t91 243.5q0 158 -98.5 250t-273.5 92h-263v4l445 625h-621v187h975v-4l-456 -641q157 -4 273.5 -70t180 -179t63.5 -259q0 -158 -71 -277t-195 -185.5
t-282 -66.5z" />
    <glyph glyph-name="uni0294" unicode="&#x294;" horiz-adv-x="1037" 
d="M360 0v410q0 128 22.5 221t74 172t139.5 163q71 69 110.5 120.5t56 98t16.5 99.5q0 102 -68 163.5t-179 61.5q-120 0 -201 -64.5t-100 -181.5h-232q27 202 171.5 317t364.5 115q142 0 247 -51t163.5 -142.5t58.5 -211.5q0 -72 -20 -137t-72 -138.5t-149 -171.5
q-69 -71 -108 -130.5t-55 -130t-16 -175.5v-407h-224z" />
    <glyph glyph-name="uni0295" unicode="&#x295;" horiz-adv-x="1035" 
d="M450 0v407q0 105 -16 175.5t-55 130t-109 130.5q-96 98 -148.5 171t-72.5 137.5t-20 137.5q0 121 60 212t170.5 142.5t260.5 51.5q223 0 356.5 -115t158.5 -317h-232q-17 117 -89 181.5t-195 64.5q-119 0 -191.5 -62t-72.5 -167q0 -52 16.5 -97.5t56 -96.5t109.5 -120
q88 -84 139.5 -163t74 -172t22.5 -221v-410h-223z" />
    <glyph glyph-name="uni0298" unicode="&#x298;" horiz-adv-x="1866" 
d="M933 -39q-185 0 -340 62t-268.5 175t-175.5 266t-62 335t62 335t175.5 266t268.5 175t340 62q186 0 341 -62t268.5 -175t175.5 -266t62 -335t-62 -335t-175.5 -266t-268.5 -175t-341 -62zM933 157q180 0 317 80.5t214 225t77 336.5t-77 336.5t-214 225t-317 80.5
q-179 0 -316 -80.5t-214 -225t-77 -336.5t77 -336.5t214 -225t316 -80.5zM933 663q-64 0 -102.5 39.5t-38.5 95.5q0 57 38.5 96.5t102.5 39.5q63 0 102 -39.5t39 -96.5q0 -56 -39 -95.5t-102 -39.5z" />
    <glyph glyph-name="uni029D" unicode="&#x29d;" horiz-adv-x="548" 
d="M274 1367q-65 0 -107.5 40.5t-42.5 101.5t42.5 101t107.5 40t107.5 -40t42.5 -101t-42.5 -101.5t-107.5 -40.5zM76 -514q-121 0 -202.5 63.5t-81.5 175.5q0 99 74 161.5t195 62.5h100v1217h226v-1217h209v-133h-210q-18 -330 -310 -330zM58 -376q111 0 111 154v38h-108
q-49 0 -79.5 -26.5t-30.5 -68.5q0 -46 30 -71.5t77 -25.5z" />
    <glyph glyph-name="uni02BB" unicode="&#x2bb;" horiz-adv-x="583" 
d="M456 1597l-119 -649h-239l189 649h169z" />
    <glyph glyph-name="uni02BC" unicode="&#x2bc;" horiz-adv-x="533" 
d="M425 1597l-140 -603h-182l88 603h234z" />
    <glyph glyph-name="uni02BE" unicode="&#x2be;" horiz-adv-x="430" 
d="M32 931q114 5 201.5 54.5t136.5 133.5t49 190q0 107 -49 190.5t-136.5 133.5t-201.5 54v-162q93 -3 152.5 -63.5t59.5 -152.5t-59.5 -152.5t-152.5 -64.5v-161z" />
    <glyph glyph-name="uni02BF" unicode="&#x2bf;" horiz-adv-x="430" 
d="M398 931q-114 5 -201.5 54.5t-136.5 133.5t-49 190q0 107 49 190.5t136.5 133.5t201.5 54v-162q-93 -3 -152.5 -63.5t-59.5 -152.5t59.5 -152.5t152.5 -64.5v-161z" />
    <glyph glyph-name="uni02C0" unicode="&#x2c0;" horiz-adv-x="694" 
d="M229 950v51q0 89 36 153t121 128q64 47 85 77t21 69q0 44 -34.5 72.5t-92.5 28.5q-66 0 -107.5 -35.5t-51.5 -94.5h-186q17 128 108 203t239 75q135 0 220.5 -69t85.5 -181q0 -72 -36 -128t-124 -122q-58 -43 -81.5 -86t-23.5 -96v-45h-179z" />
    <glyph glyph-name="circumflex" unicode="&#x2c6;" horiz-adv-x="872" 
d="M50 1313l297 433h178l297 -433h-165l-179 209q-23 27 -42 27t-42 -27l-179 -209h-165z" />
    <glyph glyph-name="caron" unicode="&#x2c7;" horiz-adv-x="872" 
d="M50 1746l297 -433h178l297 433h-165l-179 -209q-23 -27 -42 -27t-42 27l-179 209h-165z" />
    <glyph glyph-name="uni02C9" unicode="&#x2c9;" horiz-adv-x="600" 
d="M-334 1370v162h688v-162h-688z" />
    <glyph glyph-name="uni02CA" unicode="&#x2ca;" horiz-adv-x="600" 
d="M115 1313l303 433h-260l-232 -433h189z" />
    <glyph glyph-name="uni02CB" unicode="&#x2cb;" horiz-adv-x="600" 
d="M-76 1313l-303 433h260l232 -433h-189z" />
    <glyph glyph-name="uni02D7" unicode="&#x2d7;" horiz-adv-x="1234" 
d="M173 664v189h888v-189h-888z" />
    <glyph glyph-name="breve" unicode="&#x2d8;" horiz-adv-x="852" 
d="M426 1328q-163 0 -263.5 90.5t-112.5 247.5h151q18 -87 76 -136t149 -49q92 0 149.5 49t75.5 136h151q-12 -157 -112 -247.5t-264 -90.5z" />
    <glyph glyph-name="dotaccent" unicode="&#x2d9;" horiz-adv-x="383" 
d="M191 1339q-64 0 -102.5 39.5t-38.5 95.5q0 57 38.5 96.5t102.5 39.5t103 -39.5t39 -96.5q0 -56 -39 -95.5t-103 -39.5z" />
    <glyph glyph-name="ring" unicode="&#x2da;" horiz-adv-x="615" 
d="M308 1303q-113 0 -185.5 68t-72.5 174t72.5 174.5t185.5 68.5t185.5 -68.5t72.5 -174.5t-72.5 -174t-185.5 -68zM308 1425q53 0 86 34t33 86q0 53 -33 86.5t-86 33.5q-52 0 -85.5 -33.5t-33.5 -86.5q0 -52 33.5 -86t85.5 -34z" />
    <glyph glyph-name="ogonek" unicode="&#x2db;" horiz-adv-x="534" 
d="M319 -504q-121 0 -195 59.5t-74 164.5q0 84 56.5 164.5t180.5 174.5l117 -59q-95 -79 -138 -136.5t-43 -113.5q0 -50 35 -76.5t93 -26.5q69 0 132 30l1 -144q-72 -37 -165 -37z" />
    <glyph glyph-name="tilde" unicode="&#x2dc;" horiz-adv-x="932" 
d="M635 1327q-60 0 -107.5 22t-87 51.5t-74.5 51.5t-70 22q-42 0 -68 -33t-37 -89h-141q17 127 80.5 205t166.5 78q60 0 107.5 -22t87 -51.5t74.5 -51.5t70 -22q42 0 68.5 33t36.5 89h141q-17 -127 -81 -205t-166 -78z" />
    <glyph glyph-name="hungarumlaut" unicode="&#x2dd;" horiz-adv-x="997" 
d="M444 1313l260 433h243l-321 -433h-182zM50 1313l234 433h234l-285 -433h-183z" />
    <glyph glyph-name="uni02EE" unicode="&#x2ee;" horiz-adv-x="833" 
d="M774 1597l-161 -587h-172l110 587h223zM406 1597l-128 -587h-174l77 587h225z" />
    <glyph glyph-name="gravecomb" unicode="&#x300;" 
d="M-95 1313l-303 433h260l232 -433h-189z" />
    <glyph glyph-name="acutecomb" unicode="&#x301;" 
d="M95 1313l303 433h-260l-232 -433h189z" />
    <glyph glyph-name="uni0302" unicode="&#x302;" 
d="M-386 1313l297 433h178l297 -433h-165l-179 209q-23 27 -42 27t-42 -27l-179 -209h-165z" />
    <glyph glyph-name="tildecomb" unicode="&#x303;" 
d="M164 1327q-60 0 -107.5 22t-87 51.5t-74.5 51.5t-70 22q-42 0 -68 -33t-37 -89h-141q17 127 80.5 205t166.5 78q60 0 107.5 -22t87 -51.5t74.5 -51.5t70 -22q42 0 68.5 33t36.5 89h141q-17 -127 -81 -205t-166 -78z" />
    <glyph glyph-name="uni0304" unicode="&#x304;" 
d="M-344 1370v162h688v-162h-688z" />
    <glyph glyph-name="uni0306" unicode="&#x306;" 
d="M0 1328q-163 0 -263.5 90.5t-112.5 247.5h151q18 -87 76 -136t149 -49q92 0 149.5 49t75.5 136h151q-12 -157 -112 -247.5t-264 -90.5z" />
    <glyph glyph-name="uni0307" unicode="&#x307;" 
d="M0 1339q-64 0 -102.5 39.5t-38.5 95.5q0 57 38.5 96.5t102.5 39.5t103 -39.5t39 -96.5q0 -56 -39 -95.5t-103 -39.5z" />
    <glyph glyph-name="uni0308" unicode="&#x308;" 
d="M250 1336q-63 0 -101.5 39t-38.5 94q0 56 38.5 94.5t101.5 38.5q62 0 101 -38.5t39 -94.5q0 -55 -39 -94t-101 -39zM-251 1336q-62 0 -100.5 39t-38.5 94q0 56 38.5 94.5t100.5 38.5q64 0 102.5 -38.5t38.5 -94.5q0 -55 -38.5 -94t-102.5 -39z" />
    <glyph glyph-name="hookabovecomb" unicode="&#x309;" 
d="M-70 1311l1 121q177 38 177 144q0 95 -131 95q-100 0 -198 -53v134q44 30 108.5 49.5t129.5 19.5q121 0 191 -59t70 -168q0 -118 -94.5 -192t-253.5 -91z" />
    <glyph glyph-name="uni030A" unicode="&#x30a;" 
d="M0 1303q-113 0 -185.5 68t-72.5 174t72.5 174.5t185.5 68.5t185.5 -68.5t72.5 -174.5t-72.5 -174t-185.5 -68zM0 1425q53 0 86 34t33 86q0 53 -33 86.5t-86 33.5q-52 0 -85.5 -33.5t-33.5 -86.5q0 -52 33.5 -86t85.5 -34z" />
    <glyph glyph-name="uni030B" unicode="&#x30b;" 
d="M77 1313l260 433h243l-321 -433h-182zM-317 1313l234 433h234l-285 -433h-183z" />
    <glyph glyph-name="uni030C" unicode="&#x30c;" 
d="M-386 1746l297 -433h178l297 433h-165l-179 -209q-23 -27 -42 -27t-42 27l-179 209h-165z" />
    <glyph glyph-name="uni030D" unicode="&#x30d;" 
d="M-100 1313v433h192v-433h-192z" />
    <glyph glyph-name="uni0312" unicode="&#x312;" 
d="M196 1771l-95 -458h-210l150 458h155z" />
    <glyph glyph-name="uni031B" unicode="&#x31b;" 
d="M-56 1013v158h113q74 0 101.5 28t27.5 76q0 44 -13.5 90.5t-36.5 95.5h161q29 -56 47 -110.5t18 -115.5q0 -94 -65.5 -158t-187.5 -64h-165z" />
    <glyph glyph-name="dotbelowcomb" unicode="&#x323;" 
d="M0 -452q-64 0 -102.5 39.5t-38.5 95.5q0 57 38.5 96.5t102.5 39.5t103 -39.5t39 -96.5q0 -56 -39 -95.5t-103 -39.5z" />
    <glyph glyph-name="uni0324" unicode="&#x324;" 
d="M252 -437q-63 0 -101.5 40t-38.5 95q0 56 38.5 95t101.5 39q64 0 103 -39t39 -95q0 -55 -39 -95t-103 -40zM-253 -437q-63 0 -102 40t-39 95q0 56 39 95t102 39q64 0 102.5 -39t38.5 -95q0 -55 -38.5 -95t-102.5 -40z" />
    <glyph glyph-name="uni0325" unicode="&#x325;" 
d="M0 -612q-113 0 -185.5 68t-72.5 174t72.5 174.5t185.5 68.5t185.5 -68.5t72.5 -174.5t-72.5 -174t-185.5 -68zM0 -490q53 0 86 34t33 86q0 53 -33 86.5t-86 33.5q-52 0 -85.5 -33.5t-33.5 -86.5q0 -52 33.5 -86t85.5 -34z" />
    <glyph glyph-name="uni0326" unicode="&#x326;" 
d="M-203 -611l95 458h210l-150 -458h-155z" />
    <glyph glyph-name="uni0327" unicode="&#x327;" 
d="M22 -530q-150 0 -234.5 84.5t-92.5 221.5h168q7 -76 48 -119.5t112 -43.5q61 0 95 31.5t34 87.5q0 63 -65.5 133.5t-190.5 134.5h184q107 -46 168 -121t61 -159q0 -110 -75.5 -180t-211.5 -70z" />
    <glyph glyph-name="uni0328" unicode="&#x328;" 
d="M-85 -504q-121 0 -195 59.5t-74 164.5q0 84 56.5 164.5t180.5 174.5l117 -59q-95 -79 -138 -136.5t-43 -113.5q0 -50 35 -76.5t93 -26.5q69 0 132 30l1 -144q-72 -37 -165 -37z" />
    <glyph glyph-name="uni0329" unicode="&#x329;" 
d="M-96 -624v433h192v-433h-192z" />
    <glyph glyph-name="uni032D" unicode="&#x32d;" 
d="M-386 -628l297 433h178l297 -433h-165l-179 209q-23 27 -42 27t-42 -27l-179 -209h-165z" />
    <glyph glyph-name="uni032E" unicode="&#x32e;" 
d="M0 -482q-163 0 -263.5 90.5t-112.5 247.5h151q18 -87 76 -136t149 -49q92 0 149.5 49t75.5 136h151q-12 -157 -112 -247.5t-264 -90.5z" />
    <glyph glyph-name="uni032F" unicode="&#x32f;" 
d="M0 -101q-163 0 -263.5 -90.5t-112.5 -247.5h151q18 87 76 136t149 49q92 0 149.5 -49t75.5 -136h151q-12 157 -112 247.5t-264 90.5z" />
    <glyph glyph-name="uni0330" unicode="&#x330;" 
d="M164 -470q-60 0 -107.5 22t-87 51.5t-74.5 51.5t-70 22q-42 0 -68 -33t-37 -89h-141q17 127 80.5 205t166.5 78q60 0 107.5 -22t87 -51.5t74.5 -51.5t70 -22q42 0 68.5 33t36.5 89h141q-17 -127 -81 -205t-166 -78z" />
    <glyph glyph-name="uni0331" unicode="&#x331;" 
d="M-344 -381v162h688v-162h-688z" />
    <glyph glyph-name="uni0332" unicode="&#x332;" 
d="M-678 -381v162h1356v-162h-1356z" />
    <glyph glyph-name="uni0394" unicode="&#x394;" horiz-adv-x="1612" 
d="M53 0l603 1597h306l597 -1597h-1506zM376 200h846l-421 1182z" />
    <glyph glyph-name="uni03A9" unicode="&#x3a9;" horiz-adv-x="1900" 
d="M97 0v207h395q-106 59 -190.5 157.5t-133.5 226.5t-49 277q0 166 60 306t170.5 244t263 161.5t337.5 57.5t337.5 -57.5t263 -161.5t170.5 -244t60 -306q0 -149 -49 -277t-133.5 -226.5t-190.5 -157.5h395v-207h-759v189q137 41 249 129.5t178 219.5t66 297q0 171 -73 305
t-205 210.5t-309 76.5q-176 0 -308.5 -76.5t-205.5 -210.5t-73 -305q0 -166 66 -297t178 -219.5t249 -129.5v-189h-759z" />
    <glyph glyph-name="uni03BC" unicode="&#x3bc;" horiz-adv-x="1391" 
d="M157 -487v1653h226v-685q0 -154 69.5 -236.5t199.5 -82.5q177 0 265 126q91 128 91 360v518h226v-1166h-167q-1 26 -4 62.5t-7 59.5q-8 53 -34 53q-10 0 -18 -6t-23 -26q-60 -85 -143.5 -130t-194.5 -45q-147 0 -227 82q-28 28 -43 28q-21 0 -21 -35v-530h-195z" />
    <glyph glyph-name="pi" unicode="&#x3c0;" horiz-adv-x="1565" 
d="M1373 -13q-175 0 -256 90t-81 286v616h-570v-979h-223v979h-216v187h1447v-187h-216v-608q0 -106 40.5 -153t133.5 -47q41 0 72 7v-172q-27 -10 -62 -14.5t-69 -4.5z" />
    <glyph glyph-name="uni058F" unicode="&#x58f;" horiz-adv-x="1438" 
d="M373 524v134h585v155h-585v134h585v113q0 185 -76.5 282t-222.5 97q-139 0 -227 -83t-111 -229h-244q38 239 193.5 373t387.5 134q262 0 399.5 -148t137.5 -423v-116h151v-134h-151v-155h151v-134h-151v-524h-237v524h-585z" />
    <glyph glyph-name="uni0E3F" unicode="&#xe3f;" horiz-adv-x="1442" 
d="M149 0v1597h455v141h153v-141h6q239 0 364 -111.5t125 -299.5q0 -124 -60 -213.5t-176 -130.5q140 -39 214.5 -142t74.5 -251q0 -214 -128.5 -331.5t-373.5 -117.5h-46v-141h-153v141h-455zM376 907h228v504h-228v-504zM1025 1160q0 119 -71.5 185t-196.5 66v-504
q126 3 197 68.5t71 184.5zM374 185h230v557h-230v-557zM772 742h-15v-557h19q143 0 219.5 72t76.5 206t-79 206.5t-221 72.5z" />
    <glyph glyph-name="a.sups" unicode="&#x1d43;" horiz-adv-x="1081" 
d="M443 633q-157 0 -257 79.5t-100 214.5q0 263 380 287q91 6 171 14.5t122 20.5v8q0 102 -56 158.5t-157 56.5q-91 0 -151 -42.5t-77 -113.5h-206q29 139 143.5 225t289.5 86q194 0 299.5 -98.5t105.5 -281.5v-585h-146q-1 23 -4 55.5t-7 50.5q-6 27 -21 27q-10 0 -15 -6
t-14 -18q-99 -138 -300 -138zM288 935q0 -73 55 -113.5t143 -40.5q72 0 132.5 27.5t97.5 100.5q20 40 31.5 89t11.5 109v13q-36 -12 -102.5 -20.5t-165.5 -16.5q-106 -9 -154.5 -44t-48.5 -104z" />
    <glyph glyph-name="t.sups" unicode="&#x1d57;" horiz-adv-x="815" 
d="M544 651q-175 0 -245 85t-70 242v456h-187v163h107q53 0 78.5 17.5t35.5 60.5q8 32 15 91.5t11 102.5h134v-272h264v-163h-264v-438q0 -85 31.5 -135.5t133.5 -50.5q56 0 113 15v-153q-25 -9 -70.5 -15t-86.5 -6z" />
    <glyph glyph-name="uni1DC4" unicode="&#x1dc4;" 
d="M374 1658l-167 -311h-513v149h396l133 162h151z" />
    <glyph glyph-name="uni1DC5" unicode="&#x1dc5;" 
d="M-374 1658l167 -311h513v149h-396l-133 162h-151z" />
    <glyph glyph-name="uni1DC6" unicode="&#x1dc6;" 
d="M374 1313l-167 311h-513v-149h396l133 -162h151z" />
    <glyph glyph-name="uni1DC7" unicode="&#x1dc7;" 
d="M-374 1313l167 311h513v-149h-396l-133 -162h-151z" />
    <glyph glyph-name="uni1E00" unicode="&#x1e00;" horiz-adv-x="1538" 
d="M11 0l590 1597h337l589 -1597h-272l-148 409h-686l-148 -409h-262zM477 597h573l-287 812zM766 -588q-115 0 -189 69.5t-74 177.5t74 177.5t189 69.5q116 0 189.5 -69.5t73.5 -177.5t-74 -177.5t-189 -69.5zM766 -457q50 0 82.5 33t32.5 83t-32.5 82.5t-82.5 32.5
t-82.5 -32.5t-32.5 -82.5t32.5 -83t82.5 -33z" />
    <glyph glyph-name="uni1E01" unicode="&#x1e01;" horiz-adv-x="1272" 
d="M525 -36q-201 0 -323 100t-122 267q0 166 114.5 254.5t349.5 106.5q114 9 216 20.5t152 25.5v4q0 134 -69.5 207.5t-201.5 73.5q-118 0 -194 -54t-100 -146h-235q36 171 176.5 276t349.5 105q239 0 366.5 -124t127.5 -351v-729h-170q-1 32 -4.5 69t-8.5 59q-7 34 -25 34
q-15 0 -37 -30q-56 -79 -146 -123.5t-216 -44.5zM310 336q0 -91 68.5 -144t182.5 -53q93 0 171 35.5t125 133.5q24 50 39.5 113t15.5 145v8q-48 -14 -139.5 -26.5t-200.5 -22.5q-141 -13 -201.5 -57t-60.5 -132zM641 -612q-113 0 -185.5 68t-72.5 174t72.5 174.5t185.5 68.5
t185.5 -68.5t72.5 -174.5t-72.5 -174t-185.5 -68zM641 -490q53 0 86 34t33 86q0 53 -33 86.5t-86 33.5q-52 0 -85.5 -33.5t-33.5 -86.5q0 -52 33.5 -86t85.5 -34z" />
    <glyph glyph-name="uni1E04" unicode="&#x1e04;" horiz-adv-x="1481" 
d="M171 0v1597h641q242 0 369 -111.5t127 -301.5q0 -122 -61 -209.5t-179 -129.5q148 -42 225 -144.5t77 -250.5q0 -214 -132.5 -332t-385.5 -118h-681zM415 919h360q143 0 218 62t75 180q0 114 -73.5 178t-217.5 64h-362v-484zM414 194h406q149 0 227 69.5t78 197.5
q0 129 -80.5 198t-226.5 69h-404v-534zM728 -418q-63 0 -101.5 39t-38.5 95t38.5 95t101.5 39q64 0 102.5 -39t38.5 -95t-38.5 -95t-102.5 -39z" />
    <glyph glyph-name="uni1E05" unicode="&#x1e05;" horiz-adv-x="1489" 
d="M822 -37q-136 0 -236.5 47.5t-171.5 130.5q-29 33 -47 33q-23 0 -30 -45q-4 -28 -7 -65.5t-5 -63.5h-168v1659h226v-597q0 -33 20 -33q12 0 26 15q63 73 161.5 116t224.5 43q172 0 307 -80.5t213 -220.5t78 -320q0 -179 -78.5 -319t-212 -220t-300.5 -80zM777 159
q119 0 209.5 54t141.5 150t51 221q0 124 -51 219.5t-141.5 150t-209.5 54.5t-209.5 -54t-141.5 -149.5t-51 -220.5q0 -126 51 -221.5t141.5 -149.5t209.5 -54zM771 -452q-64 0 -102.5 39.5t-38.5 95.5q0 57 38.5 96.5t102.5 39.5t103 -39.5t39 -96.5q0 -56 -39 -95.5
t-103 -39.5z" />
    <glyph glyph-name="uni1E06" unicode="&#x1e06;" horiz-adv-x="1481" 
d="M171 0v1597h641q242 0 369 -111.5t127 -301.5q0 -122 -61 -209.5t-179 -129.5q148 -42 225 -144.5t77 -250.5q0 -214 -132.5 -332t-385.5 -118h-681zM415 919h360q143 0 218 62t75 180q0 114 -73.5 178t-217.5 64h-362v-484zM414 194h406q149 0 227 69.5t78 197.5
q0 129 -80.5 198t-226.5 69h-404v-534zM385 -329v162h688v-162h-688z" />
    <glyph glyph-name="uni1E07" unicode="&#x1e07;" horiz-adv-x="1489" 
d="M822 -37q-136 0 -236.5 47.5t-171.5 130.5q-29 33 -47 33q-23 0 -30 -45q-4 -28 -7 -65.5t-5 -63.5h-168v1659h226v-597q0 -33 20 -33q12 0 26 15q63 73 161.5 116t224.5 43q172 0 307 -80.5t213 -220.5t78 -320q0 -179 -78.5 -319t-212 -220t-300.5 -80zM777 159
q119 0 209.5 54t141.5 150t51 221q0 124 -51 219.5t-141.5 150t-209.5 54.5t-209.5 -54t-141.5 -149.5t-51 -220.5q0 -126 51 -221.5t141.5 -149.5t209.5 -54zM427 -381v162h688v-162h-688z" />
    <glyph glyph-name="uni1E0C" unicode="&#x1e0c;" horiz-adv-x="1721" 
d="M186 0v1597h615q249 0 436 -99.5t291 -279t104 -419.5t-104 -419.5t-291 -279.5t-436 -100h-615zM436 202h350q182 0 313 72t201.5 206t70.5 319q0 184 -70.5 317.5t-201.5 206t-313 72.5h-350v-1193zM809 -418q-63 0 -101.5 39t-38.5 95t38.5 95t101.5 39
q64 0 102.5 -39t38.5 -95t-38.5 -95t-102.5 -39z" />
    <glyph glyph-name="uni1E0D" unicode="&#x1e0d;" horiz-adv-x="1488" 
d="M667 -37q-166 0 -300 80t-212.5 220t-78.5 319q0 180 78 320t213 220.5t307 80.5q126 0 224.5 -43t161.5 -116q14 -15 26 -15q20 0 20 33v597h226v-1659h-168q-1 26 -4 63.5t-8 65.5q-7 45 -30 45q-18 0 -47 -33q-71 -83 -171 -130.5t-237 -47.5zM712 159q119 0 209.5 54
t141.5 149.5t51 221.5q0 125 -51 220.5t-141.5 149.5t-209.5 54q-118 0 -209 -54.5t-142 -150t-51 -219.5q0 -125 51 -221t142 -150t209 -54zM737 -446q-64 0 -102.5 39.5t-38.5 95.5q0 57 38.5 96.5t102.5 39.5t103 -39.5t39 -96.5q0 -56 -39 -95.5t-103 -39.5z" />
    <glyph glyph-name="uni1E0E" unicode="&#x1e0e;" horiz-adv-x="1721" 
d="M186 0v1597h615q249 0 436 -99.5t291 -279t104 -419.5t-104 -419.5t-291 -279.5t-436 -100h-615zM436 202h350q182 0 313 72t201.5 206t70.5 319q0 184 -70.5 317.5t-201.5 206t-313 72.5h-350v-1193zM466 -329v162h688v-162h-688z" />
    <glyph glyph-name="uni1E0F" unicode="&#x1e0f;" horiz-adv-x="1488" 
d="M667 -37q-166 0 -300 80t-212.5 220t-78.5 319q0 180 78 320t213 220.5t307 80.5q126 0 224.5 -43t161.5 -116q14 -15 26 -15q20 0 20 33v597h226v-1659h-168q-1 26 -4 63.5t-8 65.5q-7 45 -30 45q-18 0 -47 -33q-71 -83 -171 -130.5t-237 -47.5zM712 159q119 0 209.5 54
t141.5 149.5t51 221.5q0 125 -51 220.5t-141.5 149.5t-209.5 54q-118 0 -209 -54.5t-142 -150t-51 -219.5q0 -125 51 -221t142 -150t209 -54zM393 -375v162h688v-162h-688z" />
    <glyph glyph-name="uni1E10" unicode="&#x1e10;" horiz-adv-x="1721" 
d="M186 0v1597h615q249 0 436 -99.5t291 -279t104 -419.5t-104 -419.5t-291 -279.5t-436 -100h-615zM436 202h350q182 0 313 72t201.5 206t70.5 319q0 184 -70.5 317.5t-201.5 206t-313 72.5h-350v-1193zM616 -539l86 419h210l-137 -419h-159z" />
    <glyph glyph-name="uni1E11" unicode="&#x1e11;" horiz-adv-x="1488" 
d="M667 -37q-166 0 -300 80t-212.5 220t-78.5 319q0 180 78 320t213 220.5t307 80.5q126 0 224.5 -43t161.5 -116q14 -15 26 -15q20 0 20 33v597h226v-1659h-168q-1 26 -4 63.5t-8 65.5q-7 45 -30 45q-18 0 -47 -33q-71 -83 -171 -130.5t-237 -47.5zM712 159q119 0 209.5 54
t141.5 149.5t51 221.5q0 125 -51 220.5t-141.5 149.5t-209.5 54q-118 0 -209 -54.5t-142 -150t-51 -219.5q0 -125 51 -221t142 -150t209 -54zM537 -605l95 458h210l-150 -458h-155z" />
    <glyph glyph-name="uni1E12" unicode="&#x1e12;" horiz-adv-x="1721" 
d="M186 0v1597h615q249 0 436 -99.5t291 -279t104 -419.5t-104 -419.5t-291 -279.5t-436 -100h-615zM436 202h350q182 0 313 72t201.5 206t70.5 319q0 184 -70.5 317.5t-201.5 206t-313 72.5h-350v-1193zM403 -471l294 351h225l295 -351h-189l-193 186q-13 12 -25 12
t-26 -12l-192 -186h-189z" />
    <glyph glyph-name="uni1E13" unicode="&#x1e13;" horiz-adv-x="1488" 
d="M667 -37q-166 0 -300 80t-212.5 220t-78.5 319q0 180 78 320t213 220.5t307 80.5q126 0 224.5 -43t161.5 -116q14 -15 26 -15q20 0 20 33v597h226v-1659h-168q-1 26 -4 63.5t-8 65.5q-7 45 -30 45q-18 0 -47 -33q-71 -83 -171 -130.5t-237 -47.5zM712 159q119 0 209.5 54
t141.5 149.5t51 221.5q0 125 -51 220.5t-141.5 149.5t-209.5 54q-118 0 -209 -54.5t-142 -150t-51 -219.5q0 -125 51 -221t142 -150t209 -54zM351 -622l297 433h178l297 -433h-165l-179 209q-23 27 -42 27t-42 -27l-179 -209h-165z" />
    <glyph glyph-name="uni1E1A" unicode="&#x1e1a;" horiz-adv-x="1342" 
d="M186 0v1597h1045v-204h-799v-483h695v-200h-695v-506h840v-204h-1086zM937 -444q-60 0 -107.5 22t-87 51.5t-74.5 51.5t-70 22q-42 0 -68 -33t-37 -89h-141q17 127 80.5 205t166.5 78q60 0 107.5 -22t87 -51.5t74.5 -51.5t70 -22q42 0 68.5 33t36.5 89h141
q-17 -127 -81 -205t-166 -78z" />
    <glyph glyph-name="uni1E1B" unicode="&#x1e1b;" horiz-adv-x="1350" 
d="M690 -37q-182 0 -320 77.5t-215.5 217.5t-77.5 326q0 181 80 321t217 219.5t309 79.5q186 0 317.5 -77.5t201.5 -210.5t70 -300q0 -25 -2 -59.5t-4 -50.5h-956q12 -163 114 -262t266 -99q126 0 216 57.5t119 153.5h228q-42 -180 -193 -286.5t-370 -106.5zM688 1025
q-156 0 -258 -94t-119 -251h739q-6 154 -106 249.5t-256 95.5zM846 -470q-60 0 -107.5 22t-87 51.5t-74.5 51.5t-70 22q-42 0 -68 -33t-37 -89h-141q17 127 80.5 205t166.5 78q60 0 107.5 -22t87 -51.5t74.5 -51.5t70 -22q42 0 68.5 33t36.5 89h141q-17 -127 -81 -205
t-166 -78z" />
    <glyph glyph-name="uni1E20" unicode="&#x1e20;" horiz-adv-x="1835" 
d="M895 -37q-173 0 -320 59t-256.5 169t-170 263.5t-60.5 341.5q0 186 63 340.5t177.5 266.5t270 173t340.5 61q207 0 372.5 -71.5t274.5 -205t144 -320.5h-263q-46 182 -182.5 283t-339.5 101q-173 0 -307.5 -76.5t-211 -216t-76.5 -329.5q0 -187 72.5 -328.5t204 -221
t308.5 -79.5q168 0 282.5 68.5t182.5 196.5q36 67 56.5 151.5t28.5 172.5h229v-762h-174q-3 54 -8 111t-10 88q-10 51 -36 51q-12 0 -22 -7t-27 -30q-88 -115 -225.5 -182.5t-316.5 -67.5zM581 1764v162h688v-162h-688z" />
    <glyph glyph-name="uni1E21" unicode="&#x1e21;" horiz-adv-x="1451" 
d="M718 -514q-161 0 -285 55.5t-204 152.5t-112 223h231q33 -119 133.5 -186.5t236.5 -67.5q173 0 266 90.5t93 259.5v141q0 33 -21 33q-10 0 -29 -19q-65 -70 -160 -107.5t-208 -37.5q-168 0 -299 76t-206 208t-75 301q0 176 76.5 310t205.5 209t287 75q128 0 223.5 -44
t169.5 -126q29 -30 46 -30q23 0 30 44q5 29 7.5 64t3.5 56h168v-1145q0 -167 -70.5 -287t-200 -184t-307.5 -64zM697 210q114 0 200.5 50.5t135.5 140t49 207.5t-48.5 208t-135.5 140.5t-201 50.5t-200.5 -51t-135.5 -140.5t-49 -207.5q0 -116 49 -206t135.5 -141t200.5 -51
zM387 1370v162h688v-162h-688z" />
    <glyph glyph-name="uni1E22" unicode="&#x1e22;" horiz-adv-x="1684" 
d="M186 0v1597h250v-687h813v687h249v-1597h-249v707h-813v-707h-250zM842 1747q-63 0 -101.5 39t-38.5 95t38.5 95t101.5 39q64 0 102.5 -39t38.5 -95t-38.5 -95t-102.5 -39z" />
    <glyph glyph-name="uni1E23" unicode="&#x1e23;" horiz-adv-x="1381" 
d="M157 0v1659h226v-624q0 -34 20 -34q9 0 15.5 5.5t21.5 24.5q62 81 151 127t213 46q205 0 320.5 -127.5t115.5 -363.5v-713h-226v686q0 153 -69 235.5t-195 82.5q-178 0 -273 -136q-94 -132 -94 -379v-489h-226zM269 1809q-63 0 -101.5 39t-38.5 95t38.5 95t101.5 39
q64 0 102.5 -39t38.5 -95t-38.5 -95t-102.5 -39z" />
    <glyph glyph-name="uni1E24" unicode="&#x1e24;" horiz-adv-x="1684" 
d="M186 0v1597h250v-687h813v687h249v-1597h-249v707h-813v-707h-250zM842 -418q-63 0 -101.5 39t-38.5 95t38.5 95t101.5 39q64 0 102.5 -39t38.5 -95t-38.5 -95t-102.5 -39z" />
    <glyph glyph-name="uni1E25" unicode="&#x1e25;" horiz-adv-x="1381" 
d="M157 0v1659h226v-624q0 -34 20 -34q9 0 15.5 5.5t21.5 24.5q62 81 151 127t213 46q205 0 320.5 -127.5t115.5 -363.5v-713h-226v686q0 153 -69 235.5t-195 82.5q-178 0 -273 -136q-94 -132 -94 -379v-489h-226zM706 -452q-64 0 -102.5 39.5t-38.5 95.5q0 57 38.5 96.5
t102.5 39.5t103 -39.5t39 -96.5q0 -56 -39 -95.5t-103 -39.5z" />
    <glyph glyph-name="uni1E26" unicode="&#x1e26;" horiz-adv-x="1684" 
d="M186 0v1597h250v-687h813v687h249v-1597h-249v707h-813v-707h-250zM1101 1765q-63 0 -101.5 39t-38.5 95t38.5 95.5t101.5 39.5q64 0 103 -39.5t39 -95.5t-39 -95t-103 -39zM584 1765q-63 0 -102 39t-39 95t39 95.5t102 39.5t102 -39.5t39 -95.5t-39 -95t-102 -39z" />
    <glyph glyph-name="uni1E27" unicode="&#x1e27;" horiz-adv-x="1381" 
d="M157 0v1659h226v-624q0 -34 20 -34q9 0 15.5 5.5t21.5 24.5q62 81 151 127t213 46q205 0 320.5 -127.5t115.5 -363.5v-713h-226v686q0 153 -69 235.5t-195 82.5q-178 0 -273 -136q-94 -132 -94 -379v-489h-226zM528 1827q-63 0 -101.5 39t-38.5 95t38.5 95.5t101.5 39.5
q64 0 103 -39.5t39 -95.5t-39 -95t-103 -39zM11 1827q-63 0 -102 39t-39 95t39 95.5t102 39.5t102 -39.5t39 -95.5t-39 -95t-102 -39z" />
    <glyph glyph-name="uni1E28" unicode="&#x1e28;" horiz-adv-x="1684" 
d="M186 0v1597h250v-687h813v687h249v-1597h-249v707h-813v-707h-250zM346 -532q-154 0 -241 83.5t-96 224.5h181q6 -75 45.5 -116t105.5 -41q60 0 92.5 30.5t32.5 85.5q0 65 -63 133.5t-188 131.5l174 19q115 -47 183 -127.5t68 -175.5q0 -110 -79.5 -179t-214.5 -69z" />
    <glyph glyph-name="uni1E29" unicode="&#x1e29;" horiz-adv-x="1381" 
d="M157 0v1659h226v-624q0 -34 20 -34q9 0 15.5 5.5t21.5 24.5q62 81 151 127t213 46q205 0 320.5 -127.5t115.5 -363.5v-713h-226v686q0 153 -69 235.5t-195 82.5q-178 0 -273 -136q-94 -132 -94 -379v-489h-226zM306 -530q-150 0 -234.5 84.5t-92.5 221.5h168
q7 -76 48 -119.5t112 -43.5q61 0 95 31.5t34 87.5q0 63 -65.5 133.5t-190.5 134.5h184q107 -46 168 -121t61 -159q0 -110 -75.5 -180t-211.5 -70z" />
    <glyph glyph-name="uni1E2A" unicode="&#x1e2a;" horiz-adv-x="1684" 
d="M186 0v1597h250v-687h813v687h249v-1597h-249v707h-813v-707h-250zM843 -440q-163 0 -263 85t-111 233h154q19 -79 73.5 -123t146.5 -44t146.5 44t73.5 123h154q-11 -148 -110.5 -233t-263.5 -85z" />
    <glyph glyph-name="uni1E2B" unicode="&#x1e2b;" horiz-adv-x="1381" 
d="M157 0v1659h226v-624q0 -34 20 -34q9 0 15.5 5.5t21.5 24.5q62 81 151 127t213 46q205 0 320.5 -127.5t115.5 -363.5v-713h-226v686q0 153 -69 235.5t-195 82.5q-178 0 -273 -136q-94 -132 -94 -379v-489h-226zM706 -482q-163 0 -263.5 90.5t-112.5 247.5h151
q18 -87 76 -136t149 -49q92 0 149.5 49t75.5 136h151q-12 -157 -112 -247.5t-264 -90.5z" />
    <glyph glyph-name="uni1E2C" unicode="&#x1e2c;" horiz-adv-x="622" 
d="M186 0v1597h250v-1597h-250zM484 -444q-60 0 -107.5 22t-87 51.5t-74.5 51.5t-70 22q-42 0 -68 -33t-37 -89h-141q17 127 80.5 205t166.5 78q60 0 107.5 -22t87 -51.5t74.5 -51.5t70 -22q42 0 68.5 33t36.5 89h141q-17 -127 -81 -205t-166 -78z" />
    <glyph glyph-name="uni1E2D" unicode="&#x1e2d;" horiz-adv-x="565" 
d="M293 1367q-66 0 -108.5 40.5t-42.5 101.5t42.5 101t108.5 40q65 0 107.5 -40t42.5 -101t-42.5 -101.5t-107.5 -40.5zM180 0v1166h226v-1166h-226zM436 -471q-50 0 -90 20t-72.5 45.5t-61.5 45.5t-58 20q-65 0 -79 -110h-137q8 113 64 190t150 77q50 0 90 -20t72.5 -45.5
t61.5 -45.5t58 -20q65 0 79 110h137q-8 -113 -63.5 -190t-150.5 -77z" />
    <glyph glyph-name="uni1E2E" unicode="&#x1e2e;" horiz-adv-x="622" 
d="M186 0v1597h250v-1597h-250zM541 1752q-58 0 -93.5 36t-35.5 88t35.5 88t93.5 36t94 -36t36 -88t-35.5 -88t-94.5 -36zM82 1752q-58 0 -93.5 36t-35.5 88q0 51 35.5 87.5t93.5 36.5t94 -36.5t36 -87.5q0 -52 -35.5 -88t-94.5 -36zM208 2084l241 322h247l-304 -322h-184z
" />
    <glyph glyph-name="uni1E2F" unicode="&#x1e2f;" horiz-adv-x="544" 
d="M160 0v1166h225v-1166h-225zM494 1309q-56 0 -91 34.5t-35 84.5t35 84.5t91 34.5t91 -34.5t35 -84.5t-35 -84.5t-91 -34.5zM50 1309q-56 0 -90.5 34.5t-34.5 84.5t34.5 84.5t90.5 34.5q57 0 92 -34.5t35 -84.5t-35 -84.5t-92 -34.5zM340 1631l242 342h-211l-178 -342h147
z" />
    <glyph glyph-name="uni1E32" unicode="&#x1e32;" horiz-adv-x="1461" 
d="M186 0v1597h250v-774l723 774h298l-734 -777l763 -820h-326l-724 787v-787h-250zM775 -418q-63 0 -101.5 39t-38.5 95t38.5 95t101.5 39q64 0 102.5 -39t38.5 -95t-38.5 -95t-102.5 -39z" />
    <glyph glyph-name="uni1E33" unicode="&#x1e33;" horiz-adv-x="1200" 
d="M157 0v1659h226v-1058l527 565h285l-544 -570l573 -596h-304l-537 567v-567h-226zM645 -452q-64 0 -102.5 39.5t-38.5 95.5q0 57 38.5 96.5t102.5 39.5t103 -39.5t39 -96.5q0 -56 -39 -95.5t-103 -39.5z" />
    <glyph glyph-name="uni1E34" unicode="&#x1e34;" horiz-adv-x="1461" 
d="M186 0v1597h250v-774l723 774h298l-734 -777l763 -820h-326l-724 787v-787h-250zM432 -329v162h688v-162h-688z" />
    <glyph glyph-name="uni1E35" unicode="&#x1e35;" horiz-adv-x="1200" 
d="M157 0v1659h226v-1058l527 565h285l-544 -570l573 -596h-304l-537 567v-567h-226zM301 -381v162h688v-162h-688z" />
    <glyph glyph-name="uni1E36" unicode="&#x1e36;" horiz-adv-x="1222" 
d="M186 0v1597h250v-1392h758v-205h-1008zM722 -418q-63 0 -101.5 39t-38.5 95t38.5 95t101.5 39q64 0 102.5 -39t38.5 -95t-38.5 -95t-102.5 -39z" />
    <glyph glyph-name="uni1E37" unicode="&#x1e37;" horiz-adv-x="545" 
d="M160 0v1659h226v-1659h-226zM273 -452q-64 0 -102.5 39.5t-38.5 95.5q0 57 38.5 96.5t102.5 39.5t103 -39.5t39 -96.5q0 -56 -39 -95.5t-103 -39.5z" />
    <glyph glyph-name="uni1E3A" unicode="&#x1e3a;" horiz-adv-x="1222" 
d="M186 0v1597h250v-1392h758v-205h-1008zM379 -329v162h688v-162h-688z" />
    <glyph glyph-name="uni1E3B" unicode="&#x1e3b;" horiz-adv-x="545" 
d="M160 0v1659h226v-1659h-226zM22 -381v162h502v-162h-502z" />
    <glyph glyph-name="uni1E3C" unicode="&#x1e3c;" horiz-adv-x="1222" 
d="M186 0v1597h250v-1392h758v-205h-1008zM316 -471l294 351h225l295 -351h-189l-193 186q-13 12 -25 12t-26 -12l-192 -186h-189z" />
    <glyph glyph-name="uni1E3D" unicode="&#x1e3d;" horiz-adv-x="545" 
d="M160 0v1659h226v-1659h-226zM-153 -472l294 351h225l295 -351h-189l-193 186q-13 12 -25 12t-26 -12l-192 -186h-189z" />
    <glyph glyph-name="uni1E3E" unicode="&#x1e3e;" horiz-adv-x="2058" 
d="M186 0v1597h349l499 -1297l496 1297h342v-1597h-237v1326l-502 -1326h-217l-503 1325v-1325h-227zM1151 1719l422 340h-303l-356 -340h237z" />
    <glyph glyph-name="uni1E3F" unicode="&#x1e3f;" horiz-adv-x="2137" 
d="M157 0v1166h167q2 -28 5 -66.5t7 -63.5q5 -31 13 -42.5t21 -11.5q11 0 18 4.5t21 23.5q68 93 155 143.5t205 50.5q128 0 212 -50t136 -152q24 -45 44 -45q12 0 21.5 7.5t25.5 29.5q74 109 164 159.5t208 50.5q196 0 305.5 -127t109.5 -351v-726h-226v690q0 151 -64 233
t-181 82q-80 0 -140 -35.5t-107 -104.5q-88 -130 -88 -372v-493h-226v690q0 151 -64 233t-181 82q-80 0 -140.5 -35.5t-106.5 -104.5q-88 -130 -88 -372v-493h-226zM1180 1313l303 433h-260l-232 -433h189z" />
    <glyph glyph-name="uni1E40" unicode="&#x1e40;" horiz-adv-x="2058" 
d="M186 0v1597h349l499 -1297l496 1297h342v-1597h-237v1326l-502 -1326h-217l-503 1325v-1325h-227zM1028 1747q-63 0 -101.5 39t-38.5 95t38.5 95t101.5 39q64 0 102.5 -39t38.5 -95t-38.5 -95t-102.5 -39z" />
    <glyph glyph-name="uni1E41" unicode="&#x1e41;" horiz-adv-x="2137" 
d="M157 0v1166h167q2 -28 5 -66.5t7 -63.5q5 -31 13 -42.5t21 -11.5q11 0 18 4.5t21 23.5q68 93 155 143.5t205 50.5q128 0 212 -50t136 -152q24 -45 44 -45q12 0 21.5 7.5t25.5 29.5q74 109 164 159.5t208 50.5q196 0 305.5 -127t109.5 -351v-726h-226v690q0 151 -64 233
t-181 82q-80 0 -140 -35.5t-107 -104.5q-88 -130 -88 -372v-493h-226v690q0 151 -64 233t-181 82q-80 0 -140.5 -35.5t-106.5 -104.5q-88 -130 -88 -372v-493h-226zM1084 1339q-64 0 -102.5 39.5t-38.5 95.5q0 57 38.5 96.5t102.5 39.5t103 -39.5t39 -96.5q0 -56 -39 -95.5
t-103 -39.5z" />
    <glyph glyph-name="uni1E42" unicode="&#x1e42;" horiz-adv-x="2058" 
d="M186 0v1597h349l499 -1297l496 1297h342v-1597h-237v1326l-502 -1326h-217l-503 1325v-1325h-227zM1028 -418q-63 0 -101.5 39t-38.5 95t38.5 95t101.5 39q64 0 102.5 -39t38.5 -95t-38.5 -95t-102.5 -39z" />
    <glyph glyph-name="uni1E43" unicode="&#x1e43;" horiz-adv-x="2137" 
d="M157 0v1166h167q2 -28 5 -66.5t7 -63.5q5 -31 13 -42.5t21 -11.5q11 0 18 4.5t21 23.5q68 93 155 143.5t205 50.5q128 0 212 -50t136 -152q24 -45 44 -45q12 0 21.5 7.5t25.5 29.5q74 109 164 159.5t208 50.5q196 0 305.5 -127t109.5 -351v-726h-226v690q0 151 -64 233
t-181 82q-80 0 -140 -35.5t-107 -104.5q-88 -130 -88 -372v-493h-226v690q0 151 -64 233t-181 82q-80 0 -140.5 -35.5t-106.5 -104.5q-88 -130 -88 -372v-493h-226zM1075 -452q-64 0 -102.5 39.5t-38.5 95.5q0 57 38.5 96.5t102.5 39.5t103 -39.5t39 -96.5q0 -56 -39 -95.5
t-103 -39.5z" />
    <glyph glyph-name="uni1E44" unicode="&#x1e44;" horiz-adv-x="1717" 
d="M186 0v1597h280l830 -1268v1268h235v-1597h-280l-830 1267v-1267h-235zM859 1747q-63 0 -101.5 39t-38.5 95t38.5 95t101.5 39q64 0 102.5 -39t38.5 -95t-38.5 -95t-102.5 -39z" />
    <glyph glyph-name="uni1E45" unicode="&#x1e45;" horiz-adv-x="1381" 
d="M157 0v1166h167q2 -28 5 -68t7 -64q8 -52 34 -52q11 0 19 5.5t21 24.5q66 91 160 141.5t227 50.5q210 0 326.5 -127.5t116.5 -362.5v-714h-226v686q0 153 -69 235.5t-195 82.5q-178 0 -273 -136q-94 -132 -94 -379v-489h-226zM697 1339q-64 0 -102.5 39.5t-38.5 95.5
q0 57 38.5 96.5t102.5 39.5t103 -39.5t39 -96.5q0 -56 -39 -95.5t-103 -39.5z" />
    <glyph glyph-name="uni1E46" unicode="&#x1e46;" horiz-adv-x="1717" 
d="M186 0v1597h280l830 -1268v1268h235v-1597h-280l-830 1267v-1267h-235zM859 -418q-63 0 -101.5 39t-38.5 95t38.5 95t101.5 39q64 0 102.5 -39t38.5 -95t-38.5 -95t-102.5 -39z" />
    <glyph glyph-name="uni1E47" unicode="&#x1e47;" horiz-adv-x="1381" 
d="M157 0v1166h167q2 -28 5 -68t7 -64q8 -52 34 -52q11 0 19 5.5t21 24.5q66 91 160 141.5t227 50.5q210 0 326.5 -127.5t116.5 -362.5v-714h-226v686q0 153 -69 235.5t-195 82.5q-178 0 -273 -136q-94 -132 -94 -379v-489h-226zM703 -452q-64 0 -102.5 39.5t-38.5 95.5
q0 57 38.5 96.5t102.5 39.5t103 -39.5t39 -96.5q0 -56 -39 -95.5t-103 -39.5z" />
    <glyph glyph-name="uni1E48" unicode="&#x1e48;" horiz-adv-x="1717" 
d="M186 0v1597h280l830 -1268v1268h235v-1597h-280l-830 1267v-1267h-235zM516 -329v162h688v-162h-688z" />
    <glyph glyph-name="uni1E49" unicode="&#x1e49;" horiz-adv-x="1381" 
d="M157 0v1166h167q2 -28 5 -68t7 -64q8 -52 34 -52q11 0 19 5.5t21 24.5q66 91 160 141.5t227 50.5q210 0 326.5 -127.5t116.5 -362.5v-714h-226v686q0 153 -69 235.5t-195 82.5q-178 0 -273 -136q-94 -132 -94 -379v-489h-226zM359 -381v162h688v-162h-688z" />
    <glyph glyph-name="uni1E4A" unicode="&#x1e4a;" horiz-adv-x="1717" 
d="M186 0v1597h280l830 -1268v1268h235v-1597h-280l-830 1267v-1267h-235zM453 -471l294 351h225l295 -351h-189l-193 186q-13 12 -25 12t-26 -12l-192 -186h-189z" />
    <glyph glyph-name="uni1E4B" unicode="&#x1e4b;" horiz-adv-x="1381" 
d="M157 0v1166h167q2 -28 5 -68t7 -64q8 -52 34 -52q11 0 19 5.5t21 24.5q66 91 160 141.5t227 50.5q210 0 326.5 -127.5t116.5 -362.5v-714h-226v686q0 153 -69 235.5t-195 82.5q-178 0 -273 -136q-94 -132 -94 -379v-489h-226zM317 -628l297 433h178l297 -433h-165
l-179 209q-23 27 -42 27t-42 -27l-179 -209h-165z" />
    <glyph glyph-name="uni1E4C" unicode="&#x1e4c;" horiz-adv-x="1879" 
d="M940 -39q-189 0 -345 62t-270 175t-176 266t-62 335t62 335t176 266t270 175t345 62q188 0 344.5 -62t270.5 -175t176 -266t62 -335t-62 -335t-176 -266t-270.5 -175t-344.5 -62zM940 175q176 0 309 78.5t207.5 219t74.5 326.5q0 187 -74.5 327t-207.5 218.5t-309 78.5
q-175 0 -308.5 -78.5t-208 -218.5t-74.5 -327q0 -186 74.5 -326.5t208 -219t308.5 -78.5zM1086 1732q-51 0 -92 19.5t-75.5 45.5t-65.5 45.5t-63 19.5q-37 0 -60 -29.5t-33 -79.5h-130q15 117 75 188t154 71q51 0 91.5 -19.5t74.5 -45t65 -45t63 -19.5q38 0 61 30t32 79h131
q-16 -116 -74.5 -188t-153.5 -72zM837 2098l241 322h247l-304 -322h-184z" />
    <glyph glyph-name="uni1E4D" unicode="&#x1e4d;" horiz-adv-x="1426" 
d="M713 -38q-184 0 -328.5 80.5t-227 221t-82.5 320.5t82.5 320t227 220t328.5 80q185 0 329 -80t226.5 -220t82.5 -320t-82.5 -320.5t-226.5 -221t-329 -80.5zM713 158q120 0 211.5 54t143 150t51.5 222q0 125 -51.5 221t-143 150t-211.5 54t-211.5 -54t-143 -150
t-51.5 -221q0 -126 51.5 -222t143 -150t211.5 -54zM840 1329q-58 0 -100.5 27.5t-78 54.5t-72.5 27q-69 0 -86 -95h-134q15 110 71.5 177.5t146.5 67.5q59 0 101.5 -27t78 -54.5t71.5 -27.5q69 0 87 94h134q-16 -111 -73 -177.5t-146 -66.5zM781 1692l242 342h-211
l-178 -342h147z" />
    <glyph glyph-name="uni1E4E" unicode="&#x1e4e;" horiz-adv-x="1879" 
d="M940 -39q-189 0 -345 62t-270 175t-176 266t-62 335t62 335t176 266t270 175t345 62q188 0 344.5 -62t270.5 -175t176 -266t62 -335t-62 -335t-176 -266t-270.5 -175t-344.5 -62zM940 175q176 0 309 78.5t207.5 219t74.5 326.5q0 187 -74.5 327t-207.5 218.5t-309 78.5
q-175 0 -308.5 -78.5t-208 -218.5t-74.5 -327q0 -186 74.5 -326.5t208 -219t308.5 -78.5zM1086 1732q-51 0 -92 19.5t-75.5 45.5t-65.5 45.5t-63 19.5q-37 0 -60 -29.5t-33 -79.5h-130q15 117 75 188t154 71q51 0 91.5 -19.5t74.5 -45t65 -45t63 -19.5q38 0 61 30t32 79h131
q-16 -116 -74.5 -188t-153.5 -72zM1170 2128q-58 0 -93.5 36t-35.5 88t35.5 88t93.5 36t94 -36t36 -88t-35.5 -88t-94.5 -36zM711 2128q-58 0 -93.5 36t-35.5 88q0 51 35.5 87.5t93.5 36.5t94 -36.5t36 -87.5q0 -52 -35.5 -88t-94.5 -36z" />
    <glyph glyph-name="uni1E4F" unicode="&#x1e4f;" horiz-adv-x="1426" 
d="M713 -38q-184 0 -328.5 80.5t-227 221t-82.5 320.5t82.5 320t227 220t328.5 80q185 0 329 -80t226.5 -220t82.5 -320t-82.5 -320.5t-226.5 -221t-329 -80.5zM713 158q120 0 211.5 54t143 150t51.5 222q0 125 -51.5 221t-143 150t-211.5 54t-211.5 -54t-143 -150
t-51.5 -221q0 -126 51.5 -222t143 -150t211.5 -54zM840 1329q-58 0 -100.5 27.5t-78 54.5t-72.5 27q-69 0 -86 -95h-134q15 110 71.5 177.5t146.5 67.5q59 0 101.5 -27t78 -54.5t71.5 -27.5q69 0 87 94h134q-16 -111 -73 -177.5t-146 -66.5zM935 1688q-56 0 -91 34.5
t-35 84.5t35 84.5t91 34.5t91 -34.5t35 -84.5t-35 -84.5t-91 -34.5zM491 1688q-56 0 -90.5 34.5t-34.5 84.5t34.5 84.5t90.5 34.5q57 0 92 -34.5t35 -84.5t-35 -84.5t-92 -34.5z" />
    <glyph glyph-name="uni1E50" unicode="&#x1e50;" horiz-adv-x="1879" 
d="M940 -39q-189 0 -345 62t-270 175t-176 266t-62 335t62 335t176 266t270 175t345 62q188 0 344.5 -62t270.5 -175t176 -266t62 -335t-62 -335t-176 -266t-270.5 -175t-344.5 -62zM940 175q176 0 309 78.5t207.5 219t74.5 326.5q0 187 -74.5 327t-207.5 218.5t-309 78.5
q-175 0 -308.5 -78.5t-208 -218.5t-74.5 -327q0 -186 74.5 -326.5t208 -219t308.5 -78.5zM618 1773v156h644v-156h-644zM1027 2044l-241 322h-247l304 -322h184z" />
    <glyph glyph-name="uni1E51" unicode="&#x1e51;" horiz-adv-x="1426" 
d="M713 -38q-184 0 -328.5 80.5t-227 221t-82.5 320.5t82.5 320t227 220t328.5 80q185 0 329 -80t226.5 -220t82.5 -320t-82.5 -320.5t-226.5 -221t-329 -80.5zM713 158q120 0 211.5 54t143 150t51.5 222q0 125 -51.5 221t-143 150t-211.5 54t-211.5 -54t-143 -150
t-51.5 -221q0 -126 51.5 -222t143 -150t211.5 -54zM397 1347v148h632v-148h-632zM645 1619l-242 342h211l178 -342h-147z" />
    <glyph glyph-name="uni1E52" unicode="&#x1e52;" horiz-adv-x="1879" 
d="M940 -39q-189 0 -345 62t-270 175t-176 266t-62 335t62 335t176 266t270 175t345 62q188 0 344.5 -62t270.5 -175t176 -266t62 -335t-62 -335t-176 -266t-270.5 -175t-344.5 -62zM940 175q176 0 309 78.5t207.5 219t74.5 326.5q0 187 -74.5 327t-207.5 218.5t-309 78.5
q-175 0 -308.5 -78.5t-208 -218.5t-74.5 -327q0 -186 74.5 -326.5t208 -219t308.5 -78.5zM618 1773v156h644v-156h-644zM836 2044l241 322h247l-304 -322h-184z" />
    <glyph glyph-name="uni1E53" unicode="&#x1e53;" horiz-adv-x="1426" 
d="M713 -38q-184 0 -328.5 80.5t-227 221t-82.5 320.5t82.5 320t227 220t328.5 80q185 0 329 -80t226.5 -220t82.5 -320t-82.5 -320.5t-226.5 -221t-329 -80.5zM713 158q120 0 211.5 54t143 150t51.5 222q0 125 -51.5 221t-143 150t-211.5 54t-211.5 -54t-143 -150
t-51.5 -221q0 -126 51.5 -222t143 -150t211.5 -54zM397 1347v148h632v-148h-632zM781 1619l242 342h-211l-178 -342h147z" />
    <glyph glyph-name="uni1E58" unicode="&#x1e58;" horiz-adv-x="1522" 
d="M186 0v1597h681q249 0 384 -112t135 -324q0 -140 -72.5 -243t-212.5 -144q111 -16 162.5 -81t69.5 -202l43 -330q8 -61 23.5 -103.5t30.5 -57.5h-255q-32 24 -44 128l-38 328q-13 121 -65.5 168.5t-186.5 47.5h-408v-672h-247zM433 857h396q310 0 310 270q0 273 -302 273
h-404v-543zM751 1747q-63 0 -101.5 39t-38.5 95t38.5 95t101.5 39q64 0 102.5 -39t38.5 -95t-38.5 -95t-102.5 -39z" />
    <glyph glyph-name="uni1E59" unicode="&#x1e59;" horiz-adv-x="1022" 
d="M157 0v1166h165q2 -20 5.5 -51.5t7.5 -55.5q8 -45 31 -45q11 0 19.5 6t21.5 25q48 70 119.5 109.5t160.5 39.5q146 0 229 -98.5t82 -271.5q0 -18 -2 -42h-206q1 7 1.5 15t0.5 17q1 86 -39.5 138t-117.5 52q-137 0 -204 -149q-25 -55 -37 -127t-12 -159v-569h-225z
M530 1339q-64 0 -102.5 39.5t-38.5 95.5q0 57 38.5 96.5t102.5 39.5t103 -39.5t39 -96.5q0 -56 -39 -95.5t-103 -39.5z" />
    <glyph glyph-name="uni1E5A" unicode="&#x1e5a;" horiz-adv-x="1522" 
d="M186 0v1597h681q249 0 384 -112t135 -324q0 -140 -72.5 -243t-212.5 -144q111 -16 162.5 -81t69.5 -202l43 -330q8 -61 23.5 -103.5t30.5 -57.5h-255q-32 24 -44 128l-38 328q-13 121 -65.5 168.5t-186.5 47.5h-408v-672h-247zM433 857h396q310 0 310 270q0 273 -302 273
h-404v-543zM829 -418q-63 0 -101.5 39t-38.5 95t38.5 95t101.5 39q64 0 102.5 -39t38.5 -95t-38.5 -95t-102.5 -39z" />
    </font>
</defs>
</svg>
