<?xml version="1.0" standalone="no"?>
<!DOCTYPE svg PUBLIC "-//W3C//DTD SVG 1.1//EN" "http://www.w3.org/Graphics/SVG/1.1/DTD/svg11.dtd" >
<svg xmlns="http://www.w3.org/2000/svg" xmlns:xlink="http://www.w3.org/1999/xlink" version="1.1">
<metadata>
Created by FontForge 20170731 at Mon Feb 18 22:38:46 2019
 By Aleksey,,,
Copyright (c) 2018 Kilotype GmbH. All rights reserved.
</metadata>
<defs>
<font id="OldschoolGrotesk-ExtraLight" horiz-adv-x="0" >
  <font-face 
    font-family="Oldschool Grotesk Extra Light"
    font-weight="200"
    font-stretch="normal"
    units-per-em="2048"
    panose-1="2 11 3 4 3 2 4 2 8 4"
    ascent="1638"
    descent="-410"
    x-height="1154"
    cap-height="1597"
    bbox="-636 -620 2890 2384"
    underline-thickness="50"
    underline-position="-175"
    unicode-range="U+000D-1F310"
  />
<missing-glyph horiz-adv-x="748" 
d="M68 0v1365h544v-1365h-544zM136 68h408v1229h-408v-1229z" />
    <glyph glyph-name="f_f" unicode="ff" horiz-adv-x="1375" 
d="M267 0v1061h-244v93h244v153q0 191 80.5 280.5t242.5 89.5q80 0 141 -24v-89q-60 20 -124 20q-125 0 -179.5 -68.5t-54.5 -210.5v-151h530v153q0 191 80.5 280.5t242.5 89.5q90 0 161 -27v-90q-32 12 -70 18t-74 6q-125 0 -179.5 -68.5t-54.5 -210.5v-151h354v-93h-354
v-1061h-106v1061h-530v-1061h-106z" />
    <glyph glyph-name="f_i" unicode="fi" horiz-adv-x="1190" 
d="M267 0v1061h-244v93h244v153q0 191 80.5 280.5t242.5 89.5q80 0 141 -24v-89q-60 20 -124 20q-125 0 -179.5 -68.5t-54.5 -210.5v-151h354v-93h-354v-1061h-106zM957 1402q-42 0 -69.5 26.5t-27.5 66.5t27.5 66t69.5 26t70 -26t28 -66t-28 -66.5t-70 -26.5zM904 0v1154
h107v-1154h-107z" />
    <glyph glyph-name="f_l" unicode="fl" horiz-adv-x="1190" 
d="M267 0v1061h-244v93h244v153q0 191 80.5 280.5t242.5 89.5q80 0 141 -24v-89q-60 20 -124 20q-125 0 -179.5 -68.5t-54.5 -210.5v-151h354v-93h-354v-1061h-106zM904 0v1659h107v-1659h-107z" />
    <glyph glyph-name="f_f_i" unicode="ffi" horiz-adv-x="1826" 
d="M267 0v1061h-244v93h244v153q0 191 80.5 280.5t242.5 89.5q80 0 141 -24v-89q-60 20 -124 20q-125 0 -179.5 -68.5t-54.5 -210.5v-151h530v153q0 191 80.5 280.5t242.5 89.5q80 0 141 -24v-89q-60 20 -124 20q-125 0 -179.5 -68.5t-54.5 -210.5v-151h354v-93h-354v-1061
h-106v1061h-530v-1061h-106zM1593 1402q-42 0 -69.5 26.5t-27.5 66.5t27.5 66t69.5 26t70 -26t28 -66t-28 -66.5t-70 -26.5zM1540 0v1154h107v-1154h-107z" />
    <glyph glyph-name="f_f_l" unicode="ffl" horiz-adv-x="1826" 
d="M267 0v1061h-244v93h244v153q0 191 80.5 280.5t242.5 89.5q80 0 141 -24v-89q-60 20 -124 20q-125 0 -179.5 -68.5t-54.5 -210.5v-151h530v153q0 191 80.5 280.5t242.5 89.5q80 0 141 -24v-89q-60 20 -124 20q-125 0 -179.5 -68.5t-54.5 -210.5v-151h354v-93h-354v-1061
h-106v1061h-530v-1061h-106zM1540 0v1659h107v-1659h-107z" />
    <glyph glyph-name=".notdef" horiz-adv-x="748" 
d="M68 0v1365h544v-1365h-544zM136 68h408v1229h-408v-1229z" />
    <glyph glyph-name=".null" 
 />
    <glyph glyph-name="nonmarkingreturn" horiz-adv-x="682" 
 />
    <glyph glyph-name="NULL" 
 />
    <glyph glyph-name="CR" unicode="&#xd;" horiz-adv-x="541" 
 />
    <glyph glyph-name="space" unicode=" " horiz-adv-x="541" 
 />
    <glyph glyph-name="exclam" unicode="!" horiz-adv-x="509" 
d="M209 441l-12 1156h114l-11 -1156h-91zM255 -9q-49 0 -81.5 31t-32.5 78t32.5 78t81.5 31q50 0 82 -31t32 -78t-32 -78t-82 -31z" />
    <glyph glyph-name="quotedbl" unicode="&#x22;" horiz-adv-x="636" 
d="M132 1097l-16 500h123l-16 -500h-91zM385 1097l-16 500h123l-16 -500h-91z" />
    <glyph glyph-name="numbersign" unicode="#" horiz-adv-x="1596" 
d="M282 0l98 458h-308v91h327l106 499h-324v91h343l98 458h107l-98 -458h478l98 458h107l-98 -458h308v-91h-327l-106 -499h324v-91h-343l-98 -458h-107l98 458h-478l-98 -458h-107zM506 549h478l106 499h-478z" />
    <glyph glyph-name="dollar" unicode="$" horiz-adv-x="1211" 
d="M568 -141v144q-207 17 -334 141t-152 322h108q26 -157 121.5 -255t256.5 -115v695q-223 61 -320.5 158t-97.5 263q0 107 52.5 190.5t146.5 134t219 58.5v143h101v-143q178 -15 288 -123t133 -292h-108q-42 297 -313 323v-635q237 -68 346 -171.5t109 -286.5
q0 -118 -58 -207.5t-160.5 -142t-236.5 -59.5v-142h-101zM255 1216q0 -122 71.5 -195.5t241.5 -124.5v608q-144 -12 -228.5 -91t-84.5 -197zM1019 406q0 142 -82 222t-268 135v-670q156 9 253 93t97 220z" />
    <glyph glyph-name="percent" unicode="%" horiz-adv-x="1934" 
d="M444 766q-110 0 -193.5 53.5t-130.5 151.5t-47 230q0 133 47 230.5t130.5 151t193.5 53.5t193.5 -53.5t130.5 -151t47 -230.5q0 -132 -47 -230t-130.5 -151.5t-193.5 -53.5zM330 0l1145 1597h129l-1146 -1597h-128zM444 857q122 0 193.5 90t71.5 254t-71.5 254t-193.5 90
t-193 -90t-71 -254t71 -254t193 -90zM1490 -38q-166 0 -269 118t-103 317t103 317t269 118q110 0 193.5 -53.5t130.5 -151t47 -230.5q0 -132 -47 -230t-130.5 -151.5t-193.5 -53.5zM1490 53q122 0 193 90t71 254t-71 254t-193 90q-123 0 -194 -90t-71 -254t71 -254t194 -90z
" />
    <glyph glyph-name="ampersand" unicode="&#x26;" horiz-adv-x="1516" 
d="M614 -41q-160 0 -279.5 56.5t-185 155.5t-65.5 227q0 167 97.5 281.5t320.5 202.5q-113 122 -161.5 214t-48.5 193q0 99 51 177.5t143.5 124t215.5 45.5q181 0 290 -93.5t109 -242.5q0 -146 -101.5 -253.5t-328.5 -199.5l475 -485q61 94 102.5 221.5t56.5 276.5h108
q-19 -165 -71 -313.5t-127 -255.5l285 -291h-143l-203 209q-213 -250 -540 -250zM399 1285q0 -86 44.5 -167.5t159.5 -201.5q216 81 305 170t89 207q0 113 -81 182.5t-216 69.5q-136 0 -218.5 -74t-82.5 -186zM194 408q0 -106 53.5 -186t149.5 -124.5t222 -44.5
q144 0 262 58.5t204 167.5l-517 530q-204 -79 -289 -173.5t-85 -227.5z" />
    <glyph glyph-name="quotesingle" unicode="'" horiz-adv-x="383" 
d="M146 1097l-16 500h123l-16 -500h-91z" />
    <glyph glyph-name="parenleft" unicode="(" horiz-adv-x="619" 
d="M513 -409q-128 131 -223 309t-146.5 380.5t-51.5 407.5t51.5 407.5t146.5 380.5t223 309h109q-126 -136 -216 -313.5t-138 -377.5t-48 -406q0 -205 48 -405.5t138 -377.5t216 -314h-109z" />
    <glyph glyph-name="parenright" unicode=")" horiz-adv-x="619" 
d="M106 -409q128 131 223 309t146.5 380.5t51.5 407.5t-51.5 407.5t-146.5 380.5t-223 309h-109q126 -136 216 -313.5t138 -377.5t48 -406q0 -205 -48 -405.5t-138 -377.5t-216 -314h109z" />
    <glyph glyph-name="asterisk" unicode="*" horiz-adv-x="864" 
d="M392 897l10 300l-254 -160l-41 68l266 142l-266 141l41 69l254 -161l-10 301h81l-11 -301l255 161l41 -69l-266 -141l266 -142l-41 -68l-255 160l11 -300h-81z" />
    <glyph glyph-name="plus" unicode="+" horiz-adv-x="1342" 
d="M618 200v508h-467v99h467v508h112v-508h461v-99h-461v-508h-112z" />
    <glyph glyph-name="comma" unicode="," horiz-adv-x="415" 
d="M36 -396l130 645h118l-167 -645h-81z" />
    <glyph glyph-name="hyphen" unicode="-" horiz-adv-x="1046" 
d="M129 704v98h788v-98h-788z" />
    <glyph glyph-name="period" unicode="." horiz-adv-x="461" 
d="M231 -9q-50 0 -82 31t-32 78t32 78t82 31t81.5 -31t31.5 -78t-31.5 -78t-81.5 -31z" />
    <glyph glyph-name="slash" unicode="/" horiz-adv-x="959" 
d="M60 -297l721 2044h116l-721 -2044h-116z" />
    <glyph glyph-name="zero" unicode="0" horiz-adv-x="1403" 
d="M702 -38q-178 0 -310 102.5t-204.5 290.5t-72.5 444t72.5 444t204.5 290.5t310 102.5t310 -102.5t204.5 -290.5t72.5 -444t-72.5 -444t-204.5 -290.5t-310 -102.5zM702 59q146 0 252.5 89t165 255t58.5 396q0 231 -58.5 396.5t-165 254.5t-252.5 89t-253 -89
t-165.5 -254.5t-58.5 -396.5q0 -230 58.5 -396t165.5 -255t253 -89z" />
    <glyph glyph-name="one" unicode="1" horiz-adv-x="773" 
d="M457 0v1366q-58 -83 -172 -163.5t-244 -126.5v108q159 61 278 172t163 241h82v-1597h-107z" />
    <glyph glyph-name="two" unicode="2" horiz-adv-x="1209" 
d="M97 0q11 191 68.5 334t175.5 258.5t308 222.5q128 73 201 135t104 129t31 153q0 134 -95 220.5t-255 86.5q-179 0 -287.5 -104t-126.5 -306h-111q17 239 160.5 373.5t367.5 132.5q134 0 237 -52t161 -142.5t58 -208.5q0 -108 -37.5 -191t-125 -159.5t-237.5 -163.5
q-158 -92 -255.5 -183.5t-146.5 -197t-64 -240.5h885v-97h-1016z" />
    <glyph glyph-name="three" unicode="3" horiz-adv-x="1264" 
d="M649 -38q-160 0 -283 59.5t-198.5 168.5t-92.5 255h115q27 -180 149.5 -283t306.5 -103t292 103.5t108 275.5q0 169 -114 267.5t-306 98.5h-205v95h201q164 0 259.5 86.5t95.5 235.5q0 145 -93 231.5t-245 86.5q-160 0 -262 -89t-125 -244h-114q20 122 82.5 219
t168.5 153.5t254 56.5q129 0 229 -51t157.5 -142.5t57.5 -211.5q0 -130 -70.5 -230t-194.5 -144q158 -40 246.5 -156t88.5 -264q0 -141 -64 -248t-178.5 -166.5t-265.5 -59.5z" />
    <glyph glyph-name="four" unicode="4" horiz-adv-x="1236" 
d="M841 0v438h-802v105l787 1054h123v-1062h212v-97h-212v-438h-108zM153 535h688v929z" />
    <glyph glyph-name="five" unicode="5" horiz-adv-x="1291" 
d="M665 -38q-241 0 -397.5 133.5t-193.5 359.5h114q29 -180 156 -288.5t319 -108.5q134 0 231.5 58.5t150.5 162.5t53 240q0 128 -54.5 226.5t-152.5 154.5t-228 56t-232 -56t-163 -159h-125l132 856h816v-97h-719l-101 -644q64 91 173 143t238 52q157 0 275 -67.5t184 -187
t66 -274.5q0 -163 -68 -289.5t-189.5 -198.5t-284.5 -72z" />
    <glyph glyph-name="six" unicode="6" horiz-adv-x="1325" 
d="M689 -38q-274 0 -422.5 195t-148.5 544q0 462 151.5 698t445.5 236q195 0 319 -117t155 -324h-112q-28 162 -122.5 253t-241.5 91q-181 0 -288 -106t-153.5 -295t-46.5 -439v-12q29 115 99.5 192.5t167.5 116t205 38.5q151 0 267.5 -68t183 -188t66.5 -275
q0 -158 -67.5 -280t-186 -191t-271.5 -69zM685 59q123 0 218 55.5t148.5 154.5t53.5 231q0 129 -53.5 227.5t-147.5 154t-217 55.5q-126 0 -222.5 -56t-150.5 -155t-54 -229t54 -228.5t150 -154t221 -55.5z" />
    <glyph glyph-name="seven" unicode="7" horiz-adv-x="1102" 
d="M256 0q57 256 150 520.5t218.5 515t277.5 464.5h-871v97h1053v-3q-290 -399 -455 -797.5t-259 -796.5h-114z" />
    <glyph glyph-name="eight" unicode="8" horiz-adv-x="1306" 
d="M653 -38q-166 0 -289 58t-191 163t-68 245q0 157 96.5 272.5t254.5 155.5q-124 40 -196.5 138t-72.5 235q0 120 59 211.5t164 143t243 51.5q139 0 243.5 -51.5t163.5 -143t59 -211.5q0 -137 -72.5 -235t-196.5 -138q159 -40 255.5 -155.5t96.5 -272.5q0 -140 -68.5 -245
t-191.5 -163t-289 -58zM653 899q162 0 261.5 87.5t98.5 238.5q-1 146 -99 232t-261 86t-261 -86t-99 -232q-1 -151 98.5 -238.5t261.5 -87.5zM653 58q203 0 321 101t118 276q0 170 -120 269.5t-319 99.5t-319 -99.5t-120 -269.5q0 -175 118 -276t321 -101z" />
    <glyph glyph-name="nine" unicode="9" horiz-adv-x="1324" 
d="M657 -38q-213 0 -351 118.5t-170 323.5h112q29 -160 136.5 -252t269.5 -92q237 0 339.5 212t102.5 591q0 25 -1 48q-30 -113 -100 -187t-165 -110t-201 -36q-150 0 -267.5 67.5t-184.5 186t-67 271.5q0 158 68 277.5t187.5 187t273.5 67.5q272 0 418.5 -195t146.5 -550
q0 -294 -55.5 -501.5t-175.5 -317t-316 -109.5zM639 674q126 0 221 55.5t148.5 153t53.5 224.5q0 130 -53.5 227t-148 151t-218.5 54q-123 0 -218.5 -54t-150 -151.5t-54.5 -228.5q0 -127 54 -224t149 -152t217 -55z" />
    <glyph glyph-name="colon" unicode=":" horiz-adv-x="505" 
d="M253 -9q-50 0 -82 31t-32 78t32 78t82 31t81.5 -31t31.5 -78t-31.5 -78t-81.5 -31zM253 936q-50 0 -82 31t-32 78t32 78t82 31t81.5 -31t31.5 -78t-31.5 -78t-81.5 -31z" />
    <glyph glyph-name="semicolon" unicode=";" horiz-adv-x="570" 
d="M88 -396l130 645h118l-167 -645h-81zM327 936q-50 0 -82 31t-32 78t32 78t82 31t81.5 -31t31.5 -78t-31.5 -78t-81.5 -31z" />
    <glyph glyph-name="less" unicode="&#x3c;" horiz-adv-x="1342" 
d="M1095 184l-894 571l894 570v-118l-713 -452l713 -452v-119z" />
    <glyph glyph-name="equal" unicode="=" horiz-adv-x="1342" 
d="M178 947v99h986v-99h-986zM178 474v99h986v-99h-986z" />
    <glyph glyph-name="greater" unicode="&#x3e;" horiz-adv-x="1342" 
d="M265 184l894 571l-894 570v-118l713 -452l-713 -452v-119z" />
    <glyph glyph-name="question" unicode="?" horiz-adv-x="1079" 
d="M451 490v84q0 79 18.5 141t66.5 119t135 119q119 83 164.5 148.5t45.5 158.5q0 130 -86 206.5t-229 76.5q-163 0 -262 -90t-129 -257h-110q36 206 168.5 322.5t334.5 116.5q124 0 218.5 -47t148.5 -130t54 -192q0 -76 -23.5 -136t-79 -118t-151.5 -128q-74 -54 -113 -99
t-53 -94.5t-14 -116.5v-84h-104zM507 -9q-49 0 -81 31t-32 78t32 78t81 31q50 0 82 -31t32 -78t-32 -78t-82 -31z" />
    <glyph glyph-name="at" unicode="@" horiz-adv-x="2115" 
d="M1064 -370q-215 0 -393.5 70t-308.5 198.5t-201 304t-71 386.5q0 203 73.5 376t206 301.5t313.5 200t395 71.5q203 0 374 -66t297 -185.5t196 -279.5t70 -349q0 -166 -44 -295.5t-122.5 -203t-180.5 -73.5q-94 0 -139 43.5t-62 101.5q-9 25 -15.5 33.5t-17.5 8.5
q-7 0 -13.5 -4.5t-21.5 -22.5q-68 -84 -156 -125t-206 -41q-135 0 -242 64t-168.5 175.5t-61.5 252.5q0 142 61.5 253.5t168.5 175.5t242 64q222 0 353 -160q22 -27 35 -27q17 0 22 38q2 22 5.5 59.5t4.5 59.5h78v-695q0 -174 138 -174q76 0 132.5 62.5t88 172.5t31.5 254
q0 173 -63 318.5t-176.5 253.5t-268 167.5t-337.5 59.5q-196 0 -359.5 -65.5t-283 -182.5t-185 -274.5t-65.5 -342.5q0 -193 64 -353.5t181 -278t277.5 -181.5t354.5 -64q89 0 184.5 15.5t183 48t151.5 82.5v-85q-64 -50 -151.5 -81.5t-183 -46.5t-184.5 -15zM1056 170
q112 0 197 51t133 141.5t48 209.5q0 120 -48 210.5t-133 141t-197 50.5q-111 0 -197.5 -51.5t-136 -142t-49.5 -208.5q0 -117 49.5 -208t136 -142.5t197.5 -51.5z" />
    <glyph glyph-name="A" unicode="A" horiz-adv-x="1437" 
d="M19 0l625 1597h153l617 -1597h-125l-182 473h-782l-182 -473h-124zM361 571h710l-354 930z" />
    <glyph glyph-name="B" unicode="B" horiz-adv-x="1417" 
d="M204 0v1597h574q230 0 351.5 -107t121.5 -296q0 -135 -67 -226.5t-197 -128.5q155 -35 237 -140t82 -264q0 -210 -126.5 -322.5t-366.5 -112.5h-609zM322 879h450q176 0 269.5 79.5t93.5 230.5q0 149 -92.5 229.5t-271.5 80.5h-449v-620zM321 98h483q189 0 287 87t98 253
q0 167 -99.5 255t-282.5 88h-486v-683z" />
    <glyph glyph-name="C" unicode="C" horiz-adv-x="1772" 
d="M923 -38q-181 0 -332 62t-262 174.5t-171.5 265.5t-60.5 335t60.5 335t171.5 265.5t262 174.5t332 62q210 0 372.5 -77.5t266.5 -217t137 -327.5h-123q-47 240 -216.5 381t-435.5 141q-209 0 -368.5 -93t-248.5 -259t-89 -385q0 -218 89 -384.5t248.5 -259.5t368.5 -93
q266 0 435.5 141t216.5 381h123q-33 -187 -137 -327t-266.5 -217.5t-372.5 -77.5z" />
    <glyph glyph-name="D" unicode="D" horiz-adv-x="1673" 
d="M204 0v1597h551q248 0 432 -100.5t285.5 -280t101.5 -417.5t-101.5 -418t-285.5 -280.5t-432 -100.5h-551zM321 99h430q216 0 373.5 87t243 244.5t85.5 368.5t-85.5 368t-243 244t-373.5 87h-430v-1399z" />
    <glyph glyph-name="E" unicode="E" horiz-adv-x="1279" 
d="M204 0v1597h972v-99h-855v-636h748v-99h-748v-664h898v-99h-1015z" />
    <glyph glyph-name="F" unicode="F" horiz-adv-x="1190" 
d="M204 0v1597h941v-99h-824v-652h745v-99h-745v-747h-117z" />
    <glyph glyph-name="G" unicode="G" horiz-adv-x="1814" 
d="M909 -38q-173 0 -321 59t-258 169.5t-171.5 264.5t-61.5 343q0 186 62 339.5t174 265.5t264.5 172.5t333.5 60.5q193 0 350 -66.5t263.5 -190.5t149.5 -298h-126q-58 214 -224 334t-411 120q-209 0 -370.5 -92t-253 -257t-91.5 -385q0 -217 87.5 -383.5t246 -261
t370.5 -94.5t355 97.5t217 273.5q34 71 54.5 159.5t27.5 180.5h110v-773h-82q-1 77 -6.5 158t-10.5 112q-4 30 -10 41t-19 11q-10 0 -17.5 -6t-21.5 -28q-92 -149 -243.5 -237.5t-366.5 -88.5z" />
    <glyph glyph-name="H" unicode="H" horiz-adv-x="1603" 
d="M204 0v1597h117v-739h961v739h116v-1597h-116v759h-961v-759h-117z" />
    <glyph glyph-name="I" unicode="I" horiz-adv-x="525" 
d="M204 0v1597h117v-1597h-117z" />
    <glyph glyph-name="J" unicode="J" horiz-adv-x="1356" 
d="M634 -38q-241 0 -400 141t-196 393h116q35 -211 161.5 -323.5t318.5 -112.5q419 0 419 503v1034h116v-1037q0 -288 -138 -443t-397 -155z" />
    <glyph glyph-name="K" unicode="K" horiz-adv-x="1320" 
d="M204 0v1597h117v-782l844 782h145l-846 -783l878 -814h-162l-859 797v-797h-117z" />
    <glyph glyph-name="L" unicode="L" horiz-adv-x="1179" 
d="M204 0v1597h117v-1498h832v-99h-949z" />
    <glyph glyph-name="M" unicode="M" horiz-adv-x="1976" 
d="M204 0v1597h166l620 -1449l619 1449h162v-1597h-114v1453l-618 -1453h-103l-620 1457v-1457h-112z" />
    <glyph glyph-name="N" unicode="N" horiz-adv-x="1645" 
d="M204 0v1597h133l989 -1431v1431h114v-1597h-133l-988 1429v-1429h-115z" />
    <glyph glyph-name="O" unicode="O" horiz-adv-x="1855" 
d="M928 -38q-181 0 -333 61.5t-264 174t-173.5 265.5t-61.5 336t61.5 336t173.5 265.5t264 174t333 61.5q180 0 332 -61.5t264 -174t173.5 -265.5t61.5 -336t-61.5 -336t-173.5 -265.5t-264 -174t-332 -61.5zM928 63q208 0 368 93t251 259t91 384t-91 384t-251 259t-368 93
t-368.5 -93t-251.5 -259t-91 -384t91 -384t251.5 -259t368.5 -93z" />
    <glyph glyph-name="P" unicode="P" horiz-adv-x="1325" 
d="M204 0v1597h564q237 0 365.5 -124t128.5 -348q0 -223 -128.5 -347.5t-365.5 -124.5h-449v-653h-115zM319 752h442q190 0 286.5 96.5t96.5 276.5t-96.5 277t-286.5 97h-442v-747z" />
    <glyph glyph-name="Q" unicode="Q" horiz-adv-x="1863" 
d="M928 -38q-181 0 -333 61.5t-264 174t-173.5 265.5t-61.5 336t61.5 336t173.5 265.5t264 174t333 61.5q180 0 332 -61.5t264 -174t173.5 -265.5t61.5 -336q0 -192 -69 -352.5t-191 -272.5l174 -212h-133l-121 148q-101 -71 -225.5 -109.5t-265.5 -38.5zM928 61
q123 0 230.5 33.5t194.5 95.5l-398 487h134l343 -420q98 98 153 236t55 306q0 219 -91 385t-251.5 259.5t-369.5 93.5t-370 -93.5t-252 -259.5t-91 -385q0 -218 91 -384.5t252 -260t370 -93.5z" />
    <glyph glyph-name="R" unicode="R" horiz-adv-x="1452" 
d="M204 0v1597h606q240 0 367.5 -109t127.5 -313q0 -143 -74.5 -250.5t-232.5 -144.5q123 -14 180 -81.5t75 -212.5l42 -335q16 -119 46 -151h-121q-10 10 -21.5 44.5t-18.5 90.5l-41 335q-12 99 -45 155t-99 79.5t-178 23.5h-496v-728h-117zM321 827h478q200 0 294.5 86.5
t94.5 248.5q0 337 -378 337h-489v-672z" />
    <glyph glyph-name="S" unicode="S" horiz-adv-x="1270" 
d="M667 -38q-169 0 -297.5 61.5t-207 175t-96.5 268.5h116q27 -190 155.5 -298t332.5 -108q116 0 204.5 42t138 116t49.5 171q0 112 -44.5 183.5t-142 119t-256.5 86.5q-250 62 -356.5 165.5t-106.5 279.5q0 121 60.5 213.5t168.5 145t251 52.5q214 0 344 -116.5t154 -322.5
h-113q-22 163 -121 252.5t-265 89.5q-164 0 -263.5 -84t-99.5 -224q0 -132 80 -210t287 -130q187 -46 306 -107.5t176 -154t57 -231.5q0 -128 -65.5 -226t-180.5 -153.5t-265 -55.5z" />
    <glyph glyph-name="T" unicode="T" horiz-adv-x="1273" 
d="M579 0v1498h-555v99h1225v-99h-554v-1498h-116z" />
    <glyph glyph-name="U" unicode="U" horiz-adv-x="1598" 
d="M799 -38q-283 0 -448.5 158t-165.5 471v1006h117v-1005q0 -260 129 -395.5t368 -135.5t368 135.5t129 395.5v1005h117v-1006q0 -313 -165.5 -471t-448.5 -158z" />
    <glyph glyph-name="V" unicode="V" horiz-adv-x="1443" 
d="M658 -9l-645 1606h127l590 -1486l572 1486h119l-627 -1606h-136z" />
    <glyph glyph-name="W" unicode="W" horiz-adv-x="2152" 
d="M521 0l-492 1597h121l440 -1461l422 1461h134l422 -1461l443 1461h114l-495 -1597h-133l-421 1466l-421 -1466h-134z" />
    <glyph glyph-name="X" unicode="X" horiz-adv-x="1294" 
d="M16 0l563 799l-566 798h140l497 -714l493 714h132l-560 -796l569 -801h-141l-499 717l-495 -717h-133z" />
    <glyph glyph-name="Y" unicode="Y" horiz-adv-x="1337" 
d="M613 0v661l-590 936h135l517 -833l504 833h127l-578 -938v-659h-115z" />
    <glyph glyph-name="Z" unicode="Z" horiz-adv-x="1225" 
d="M15 0v3l1003 1495h-947v99h1140v-3l-1003 -1495h947v-99h-1140z" />
    <glyph glyph-name="bracketleft" unicode="[" horiz-adv-x="676" 
d="M198 -409v2194h448v-93h-341v-2008h341v-93h-448z" />
    <glyph glyph-name="backslash" unicode="\" horiz-adv-x="959" 
d="M899 -297l-721 2044h-116l721 -2044h116z" />
    <glyph glyph-name="bracketright" unicode="]" horiz-adv-x="676" 
d="M478 -409v2194h-448v-93h341v-2008h-341v-93h448z" />
    <glyph glyph-name="asciicircum" unicode="^" horiz-adv-x="1342" 
d="M154 809l465 788h102l467 -788h-113l-405 701l-406 -701h-110z" />
    <glyph glyph-name="underscore" unicode="_" horiz-adv-x="1229" 
d="M0 -283v99h1229v-99h-1229z" />
    <glyph glyph-name="grave" unicode="`" horiz-adv-x="499" 
d="M348 1307l-298 427h144l255 -427h-101z" />
    <glyph glyph-name="a" unicode="a" horiz-adv-x="1232" 
d="M522 -37q-129 0 -226.5 44.5t-151.5 125t-54 187.5q0 160 109.5 243t335.5 99q159 11 272 24t161 30v2q0 178 -88 278.5t-266 100.5q-148 0 -248.5 -72.5t-129.5 -196.5h-113q23 112 92 193.5t171.5 125.5t224.5 44q230 0 347 -126t117 -345v-720h-80q-2 55 -5 105t-6 72
q-5 39 -23 39q-8 0 -13.5 -5.5t-15.5 -24.5q-59 -113 -163 -168t-247 -55zM200 321q0 -122 91 -194t239 -72q73 0 145.5 20t133.5 72t99 148q24 57 42 136.5t18 177.5v16q-49 -18 -158 -30.5t-274 -25.5q-178 -14 -257 -72.5t-79 -175.5z" />
    <glyph glyph-name="b" unicode="b" horiz-adv-x="1459" 
d="M782 -37q-148 0 -262 57.5t-191 161.5q-24 33 -40 33q-12 0 -17 -10t-8 -37q-4 -36 -7 -87.5t-3 -80.5h-80v1659h107v-664q0 -38 20 -38q7 0 12.5 3.5t14.5 16.5q74 102 190 158t258 56q174 0 309 -79.5t212 -218.5t77 -316q0 -178 -77.5 -316.5t-211.5 -218t-303 -79.5z
M766 58q146 0 258 67t175.5 184.5t63.5 267.5q0 151 -63.5 268t-175.5 184t-257 67q-144 0 -255 -66t-173.5 -183.5t-62.5 -271.5q0 -152 62.5 -268.5t173.5 -182.5t254 -66z" />
    <glyph glyph-name="c" unicode="c" horiz-adv-x="1323" 
d="M689 -36q-176 0 -312.5 78.5t-214 216.5t-77.5 318q0 181 77.5 319t214 216.5t312.5 78.5q230 0 380 -124t186 -329h-113q-31 163 -150 260.5t-301 97.5q-146 0 -258 -66t-174.5 -183t-62.5 -270q0 -152 62.5 -269.5t174.5 -183.5t258 -66q182 0 301 98t150 261h113
q-36 -205 -186 -329t-380 -124z" />
    <glyph glyph-name="d" unicode="d" horiz-adv-x="1459" 
d="M678 -37q-169 0 -303.5 79.5t-212 218t-77.5 316.5q0 177 77 316t212.5 218.5t308.5 79.5q143 0 258.5 -56t190.5 -158q9 -13 14 -16.5t12 -3.5q20 0 20 38v664h107v-1659h-79q-1 29 -3.5 80.5t-6.5 87.5q-3 27 -8.5 37t-17.5 10q-16 0 -40 -33q-76 -104 -190 -161.5
t-262 -57.5zM693 58q144 0 254.5 66t173 182.5t62.5 268.5q0 154 -62.5 271.5t-173 183.5t-255.5 66q-144 0 -256 -67t-176 -184t-64 -268q0 -150 64 -267.5t176 -184.5t257 -67z" />
    <glyph glyph-name="e" unicode="e" horiz-adv-x="1321" 
d="M679 -36q-178 0 -311 77t-207.5 215.5t-74.5 322.5q0 181 77.5 318.5t210 215.5t298.5 78q171 0 298 -73.5t196.5 -204t69.5 -300.5q0 -13 -1 -34t-2 -29h-1036q3 -147 64 -257.5t168 -172.5t250 -62q163 0 278 79.5t149 209.5h113q-26 -117 -101 -203t-187.5 -133
t-251.5 -47zM674 1097q-132 0 -235.5 -56.5t-166 -158.5t-73.5 -239h931q-2 135 -59.5 237t-159.5 159.5t-237 57.5z" />
    <glyph glyph-name="f" unicode="f" horiz-adv-x="739" 
d="M267 0v1061h-244v93h244v153q0 370 323 370q89 0 162 -27v-90q-33 12 -71 18t-74 6q-125 0 -179.5 -68.5t-54.5 -210.5v-151h354v-93h-354v-1061h-106z" />
    <glyph glyph-name="g" unicode="g" horiz-adv-x="1423" 
d="M701 -514q-149 0 -267.5 52t-196.5 145t-108 215h115q37 -144 160.5 -231.5t295.5 -87.5q223 0 333.5 121t110.5 329v169q0 36 -20 36q-13 0 -31 -25q-73 -96 -183 -147t-243 -51q-168 0 -298.5 76.5t-205.5 210t-75 303.5q0 171 75 304.5t204.5 209.5t293.5 76
q145 0 252.5 -54.5t182.5 -152.5q25 -32 41 -32q20 0 24 46q4 34 6.5 82.5t3.5 73.5h80v-1129q0 -244 -142 -391.5t-408 -147.5zM676 106q140 0 246.5 63t167 175t60.5 259q0 145 -60.5 256t-167 174t-245.5 63t-247 -64t-169.5 -175.5t-61.5 -255.5q0 -143 61.5 -255
t169 -176t246.5 -64z" />
    <glyph glyph-name="h" unicode="h" horiz-adv-x="1346" 
d="M174 0v1659h107v-696q0 -38 19 -38q8 0 14.5 6t20.5 30q62 104 162 167t251 63q207 0 324 -129t117 -364v-698h-107v695q0 192 -90.5 296.5t-248.5 104.5q-120 0 -212 -50.5t-151 -158.5q-48 -82 -73.5 -192t-25.5 -265v-430h-107z" />
    <glyph glyph-name="i" unicode="i" horiz-adv-x="465" 
d="M233 1402q-42 0 -70 26.5t-28 66.5t28 66t70 26t69.5 -26t27.5 -66t-27.5 -66.5t-69.5 -26.5zM179 0v1154h107v-1154h-107z" />
    <glyph glyph-name="j" unicode="j" horiz-adv-x="465" 
d="M233 1402q-42 0 -70 26.5t-28 66.5t28 66t70 26t69.5 -26t27.5 -66t-27.5 -66.5t-69.5 -26.5zM179 -487v1641h107v-1641h-107z" />
    <glyph glyph-name="k" unicode="k" horiz-adv-x="1076" 
d="M174 0v1659h107v-1074l643 569h149l-649 -570l665 -584h-159l-649 571v-571h-107z" />
    <glyph glyph-name="l" unicode="l" horiz-adv-x="465" 
d="M179 0v1659h107v-1659h-107z" />
    <glyph glyph-name="m" unicode="m" horiz-adv-x="2140" 
d="M174 0v1154h80q1 -50 3.5 -103.5t5.5 -81.5q3 -33 8.5 -45t18.5 -12q9 0 15 5t18 27q64 113 158 180t236 67q140 0 230.5 -66t135.5 -181q11 -30 19 -41t19 -11t18.5 7t20.5 32q67 125 166.5 192.5t241.5 67.5q195 0 305 -128.5t110 -352.5v-710h-106v695
q0 192 -84.5 296.5t-232.5 104.5q-110 0 -192.5 -50t-140.5 -159q-47 -81 -71 -190.5t-24 -257.5v-439h-107v695q0 192 -84 296.5t-233 104.5q-106 0 -187.5 -50.5t-140.5 -158.5q-48 -82 -73.5 -192t-25.5 -265v-430h-107z" />
    <glyph glyph-name="n" unicode="n" horiz-adv-x="1346" 
d="M174 0v1154h80q1 -50 3.5 -103.5t5.5 -81.5q3 -33 8.5 -45t18.5 -12q9 0 15 5t18 27q64 113 167.5 180t257.5 67q207 0 324 -129t117 -364v-698h-107v695q0 192 -90.5 296.5t-248.5 104.5q-120 0 -212 -50.5t-151 -158.5q-48 -82 -73.5 -192t-25.5 -265v-430h-107z" />
    <glyph glyph-name="o" unicode="o" horiz-adv-x="1396" 
d="M698 -37q-177 0 -316 80t-218.5 218.5t-79.5 315.5t79.5 316t218.5 218.5t316 79.5t316 -79.5t218.5 -218.5t79.5 -316t-79.5 -315.5t-218.5 -218.5t-316 -80zM698 58q147 0 260.5 67t178 184t64.5 268t-64.5 268t-178 184t-260.5 67t-260.5 -67t-178 -184t-64.5 -268
t64.5 -268t178 -184t260.5 -67z" />
    <glyph glyph-name="p" unicode="p" horiz-adv-x="1459" 
d="M782 1191q169 0 303 -79.5t211.5 -218t77.5 -316.5q0 -177 -77 -315.5t-212 -218.5t-309 -80q-142 0 -258 56t-190 158q-9 14 -14.5 17t-12.5 3q-20 0 -20 -38v-653h-107v1648h80q0 -29 3 -80.5t7 -87.5q3 -27 8 -37t17 -10q16 0 40 33q77 104 191 161.5t262 57.5z
M766 1096q-143 0 -254 -66t-173.5 -182.5t-62.5 -268.5q0 -154 62.5 -271.5t173.5 -183.5t255 -66q145 0 257 67t175.5 184.5t63.5 267.5q0 151 -63.5 268t-175.5 184t-258 67z" />
    <glyph glyph-name="q" unicode="q" horiz-adv-x="1459" 
d="M678 1191q148 0 262 -57.5t190 -161.5q24 -33 40 -33q12 0 17.5 10t8.5 37q4 36 6.5 87.5t3.5 80.5h79v-1648h-107v653q0 38 -20 38q-7 0 -12 -3t-14 -17q-75 -102 -190.5 -158t-258.5 -56q-173 0 -308.5 80t-212.5 218.5t-77 315.5q0 178 77.5 316.5t212 218t303.5 79.5
zM693 1096q-145 0 -257 -67t-176 -184t-64 -268q0 -150 64 -267.5t176 -184.5t256 -67q145 0 255.5 66t173 183.5t62.5 271.5q0 152 -62.5 268.5t-173 182.5t-254.5 66z" />
    <glyph glyph-name="r" unicode="r" horiz-adv-x="955" 
d="M174 0v1154h79q1 -29 3.5 -76t6.5 -79q3 -28 8.5 -39t15.5 -11q9 0 15 5.5t15 24.5q44 95 125.5 149t182.5 54q142 0 221.5 -90.5t79.5 -245.5q0 -17 -2 -35h-101q1 8 1.5 16t0.5 17q1 112 -53 179.5t-156 67.5q-96 0 -165 -55.5t-110 -158.5q-31 -79 -46 -171.5
t-15 -214.5v-491h-106z" />
    <glyph glyph-name="s" unicode="s" horiz-adv-x="1074" 
d="M559 -37q-205 0 -335.5 96t-158.5 269h113q21 -127 121 -199t262 -72q147 0 233.5 65.5t86.5 164.5q0 76 -31.5 124t-109 79t-215.5 55q-214 38 -303.5 115t-89.5 214t108 227t291 90q184 0 295 -89t131 -254h-109q-44 249 -315 249q-139 0 -216.5 -60.5t-77.5 -156.5
t68 -150t232 -83q171 -30 269 -72.5t139 -109.5t41 -173q0 -92 -54 -166.5t-150.5 -118.5t-224.5 -44z" />
    <glyph glyph-name="t" unicode="t" horiz-adv-x="774" 
d="M583 -11q-169 0 -244 92.5t-75 291.5v688h-243v93h151q53 0 75.5 19t29.5 68q4 27 7.5 77.5t7 103.5t3.5 85h76v-353h351v-93h-351v-681q0 -158 49 -228t182 -70q37 0 73.5 5.5t67.5 13.5v-90q-26 -8 -71 -15t-89 -7z" />
    <glyph glyph-name="u" unicode="u" horiz-adv-x="1338" 
d="M608 -37q-215 0 -333.5 129.5t-118.5 364.5v697h107v-694q0 -191 91 -296.5t255 -105.5q244 0 350 192q98 165 98 440v464h107v-1154h-80q-1 46 -3.5 93.5t-5.5 75.5q-3 33 -9 45t-18 12q-8 0 -15 -5t-19 -28q-62 -110 -162 -170t-244 -60z" />
    <glyph glyph-name="v" unicode="v" horiz-adv-x="1170" 
d="M531 0l-511 1154h122l447 -1030l441 1030h116l-503 -1154h-112z" />
    <glyph glyph-name="w" unicode="w" horiz-adv-x="1720" 
d="M429 0l-399 1154h118l346 -1017l311 1017h119l311 -1017l346 1017h110l-401 -1154h-115l-314 1024l-313 -1024h-119z" />
    <glyph glyph-name="x" unicode="x" horiz-adv-x="1067" 
d="M19 0l447 578l-446 576h134l384 -501l384 501h123l-443 -574l447 -580h-133l-385 504l-386 -504h-126z" />
    <glyph glyph-name="y" unicode="y" horiz-adv-x="1166" 
d="M314 -494l218 494l-510 1154h121l448 -1030l440 1030h113l-721 -1648h-109z" />
    <glyph glyph-name="z" unicode="z" horiz-adv-x="1060" 
d="M36 0v3l799 1058h-775v93h965v-3l-798 -1058h774v-93h-965z" />
    <glyph glyph-name="braceleft" unicode="{" horiz-adv-x="652" 
d="M613 -415q-193 15 -300.5 102t-107.5 244q0 85 21.5 182t42.5 188t21 157q0 139 -108 174q-26 9 -59 12.5t-71 3.5v84q38 1 71 4.5t59 12.5q108 35 108 174q0 67 -21 157.5t-42.5 187.5t-21.5 182q0 157 107.5 244t300.5 101v-86q-300 -30 -300 -261q0 -82 21.5 -181.5
t42.5 -193t21 -158.5q0 -86 -42 -144.5t-121 -80.5q79 -21 121 -79.5t42 -144.5q0 -65 -21 -158.5t-42.5 -192.5t-21.5 -182q0 -231 300 -261v-87z" />
    <glyph glyph-name="bar" unicode="|" horiz-adv-x="505" 
d="M198 -369v2116h109v-2116h-109z" />
    <glyph glyph-name="braceright" unicode="}" horiz-adv-x="652" 
d="M39 -415q193 15 300.5 102t107.5 244q0 85 -21.5 182t-42.5 188t-21 157q0 139 108 174q26 9 59 12.5t71 3.5v84q-38 1 -71 4.5t-59 12.5q-108 35 -108 174q0 67 21 157.5t42.5 187.5t21.5 182q0 157 -107.5 244t-300.5 101v-86q300 -30 300 -261q0 -82 -21.5 -181.5
t-42.5 -193t-21 -158.5q0 -86 42 -144.5t121 -80.5q-79 -21 -121 -79.5t-42 -144.5q0 -65 21 -158.5t42.5 -192.5t21.5 -182q0 -231 -300 -261v-87z" />
    <glyph glyph-name="asciitilde" unicode="~" horiz-adv-x="1342" 
d="M899 656q-70 0 -129 31t-112.5 72t-106 72t-109.5 31q-134 0 -166 -176h-87q19 124 88 197.5t174 73.5q70 0 129 -31t112.5 -72t106 -72t110.5 -31q133 0 165 176h87q-19 -124 -88.5 -197.5t-173.5 -73.5z" />
    <glyph glyph-name="uni00A0" unicode="&#xa0;" horiz-adv-x="541" 
 />
    <glyph glyph-name="exclamdown" unicode="&#xa1;" horiz-adv-x="479" 
d="M194 743l-12 -1156h114l-11 1156h-91zM240 1193q-49 0 -81.5 -31t-32.5 -78t32.5 -78t81.5 -31q50 0 82 31t32 78t-32 78t-82 31z" />
    <glyph glyph-name="cent" unicode="&#xa2;" horiz-adv-x="1344" 
d="M633 0v188q-161 13 -283.5 94t-191.5 214t-69 303t69 303t191.5 214t283.5 94v187h104v-185q212 -13 350 -135t172 -318h-110q-30 155 -138 251.5t-274 108.5v-1039q166 12 274 108t138 251h110q-34 -195 -172 -317.5t-350 -135.5v-186h-104zM198 799q0 -142 54.5 -254
t152.5 -180.5t228 -82.5v1035q-130 -14 -228 -83t-152.5 -181t-54.5 -254z" />
    <glyph glyph-name="sterling" unicode="&#xa3;" horiz-adv-x="1255" 
d="M84 0v3q128 134 182 263.5t54 250.5q0 54 -6.5 105.5t-16.5 100.5h-195v94h173q-24 96 -47 189t-23 189q0 132 59.5 231t165.5 154t245 55q214 0 340.5 -119.5t145.5 -333.5h-112q-17 173 -112 265.5t-258 92.5t-263 -96t-100 -251q0 -94 23.5 -186t47.5 -190h584v-94
h-562q10 -49 16 -100.5t6 -106.5q0 -90 -39 -201.5t-129 -220.5h896l-2 -94h-1073z" />
    <glyph glyph-name="currency" unicode="&#xa4;" horiz-adv-x="1413" 
d="M196 218l-74 70l190 193q-59 67 -91.5 155t-32.5 191t32.5 191.5t91.5 155.5l-190 193l74 70l189 -195q65 49 146.5 76t174.5 27q94 0 175.5 -27t146.5 -76l189 195l74 -70l-190 -193q59 -67 91.5 -155.5t32.5 -191.5t-32.5 -191t-91.5 -155l190 -193l-74 -70l-189 195
q-65 -49 -146.5 -76t-175.5 -27q-93 0 -174.5 27t-146.5 76zM706 404q121 0 213.5 55t145 150.5t52.5 217.5q0 123 -52.5 218.5t-145 150t-213.5 54.5q-120 0 -212.5 -54.5t-145 -150t-52.5 -218.5q0 -122 52.5 -217.5t145 -150.5t212.5 -55z" />
    <glyph glyph-name="yen" unicode="&#xa5;" horiz-adv-x="1348" 
d="M186 366v84h439v195h-439v84h399l-520 868h129l490 -833l477 833h122l-508 -868h398v-84h-436v-195h436v-84h-436v-366h-112v366h-439z" />
    <glyph glyph-name="brokenbar" unicode="&#xa6;" horiz-adv-x="505" 
d="M198 894v853h109v-853h-109zM198 -369v853h109v-853h-109z" />
    <glyph glyph-name="section" unicode="&#xa7;" horiz-adv-x="1139" 
d="M582 -253q-199 0 -324.5 100t-153.5 279h113q20 -133 117 -209.5t252 -76.5q137 0 217.5 66.5t80.5 166.5q0 75 -29 122.5t-101 79t-203 57.5q-238 50 -341 137t-103 239q0 113 69.5 198t191.5 122q-108 46 -153.5 115t-45.5 172q0 143 105.5 233t282.5 90
q176 0 282.5 -90t128.5 -257h-110q-42 255 -301 255q-133 0 -206.5 -62t-73.5 -163q0 -70 28 -118t96.5 -80.5t189.5 -57.5q248 -49 351.5 -135t103.5 -232q0 -113 -70.5 -199t-197.5 -126q120 -46 167.5 -114.5t47.5 -179.5q0 -94 -51.5 -169t-144 -119t-215.5 -44z
M566 431q36 -8 68 -15q144 17 223.5 89.5t79.5 182.5q0 112 -84.5 177t-284.5 105q-34 7 -64 14q-134 -15 -211.5 -85.5t-77.5 -181.5q0 -115 82.5 -181.5t268.5 -104.5z" />
    <glyph glyph-name="dieresis" unicode="&#xa8;" horiz-adv-x="754" 
d="M607 1361q-44 0 -70.5 27.5t-26.5 64.5q0 38 26.5 65t70.5 27t70.5 -27t26.5 -65q0 -37 -26.5 -64.5t-70.5 -27.5zM147 1361q-44 0 -70.5 27.5t-26.5 64.5q0 38 26.5 65t70.5 27t70.5 -27t26.5 -65q0 -37 -26.5 -64.5t-70.5 -27.5z" />
    <glyph glyph-name="copyright" unicode="&#xa9;" horiz-adv-x="1875" 
d="M937 -35q-178 0 -331 63t-267.5 176t-178 265.5t-63.5 330.5q0 179 63.5 331t178 265t267.5 176t331 63q179 0 332 -63t267.5 -176t178 -265t63.5 -331q0 -178 -63.5 -330.5t-178 -265.5t-267.5 -176t-332 -63zM937 55q157 0 291 56t234 157.5t156 237t56 294.5
t-56 294.5t-156 237t-234 157.5t-291 56q-156 0 -290 -56t-234 -157.5t-156 -237t-56 -294.5t56 -294.5t156 -237t234 -157.5t290 -56zM949 326q-137 0 -243 60.5t-166.5 167.5t-60.5 246t60.5 245.5t166.5 167.5t243 61q179 0 297 -96.5t146 -260.5h-111q-22 119 -109 191
t-221 72q-107 0 -188.5 -48.5t-127.5 -134t-46 -197.5t46 -198t127.5 -134.5t188.5 -48.5q134 0 221 72t109 192h111q-28 -161 -144.5 -259t-298.5 -98z" />
    <glyph glyph-name="ordfeminine" unicode="&#xaa;" horiz-adv-x="1093" 
d="M474 641q-157 0 -253.5 79t-96.5 209q0 129 89 196t272 80q113 7 203.5 17t134.5 25v3q0 132 -67 207.5t-201 75.5q-111 0 -188 -54t-98 -148h-119q28 135 138 215.5t266 80.5q187 0 283.5 -101.5t96.5 -277.5v-577h-83q-1 39 -4 79.5t-6 60.5q-4 27 -19 27
q-10 0 -24 -23q-49 -94 -135 -134t-189 -40zM239 932q0 -92 69.5 -146t181.5 -54q84 0 164 36t123 142q20 46 33 106t13 130v17q-41 -15 -123 -24.5t-206 -19.5q-133 -11 -194 -54.5t-61 -132.5zM172 411v90h762v-90h-762z" />
    <glyph glyph-name="guillemotleft" unicode="&#xab;" horiz-adv-x="1089" 
d="M939 150h114l-376 456l376 456h-114l-400 -456zM553 150h114l-376 456l376 456h-114l-400 -456z" />
    <glyph glyph-name="logicalnot" unicode="&#xac;" horiz-adv-x="1342" 
d="M148 1046h1017v-534h-102v435h-915v99z" />
    <glyph glyph-name="uni00AD" unicode="&#xad;" horiz-adv-x="1046" 
d="M129 704v98h788v-98h-788z" />
    <glyph glyph-name="registered" unicode="&#xae;" horiz-adv-x="1148" 
d="M574 680q-136 0 -245 62.5t-172.5 171t-63.5 245.5t63.5 245.5t172.5 171t245 62.5q137 0 245.5 -62.5t172 -171t63.5 -245.5t-63.5 -245.5t-172 -171t-245.5 -62.5zM574 748q115 0 206 54t144 147t53 210q0 118 -53 210.5t-144 146.5t-206 54t-206.5 -54t-144.5 -146.5
t-53 -210.5q0 -117 53 -210t144.5 -147t206.5 -54zM393 912v495h226q78 0 120.5 -34.5t42.5 -99.5q0 -44 -23.5 -77t-73.5 -45q38 -6 56 -27.5t25 -67.5l13 -84q5 -33 10.5 -44t9.5 -16h-95q-13 11 -17 50l-10 77q-5 41 -22.5 55.5t-63.5 14.5h-108v-197h-90zM483 1180h112
q93 0 93 77q0 78 -92 78h-113v-155z" />
    <glyph glyph-name="macron" unicode="&#xaf;" horiz-adv-x="736" 
d="M50 1393v93h636v-93h-636z" />
    <glyph glyph-name="degree" unicode="&#xb0;" horiz-adv-x="828" 
d="M414 1000q-93 0 -166.5 41t-115.5 113t-42 163q0 92 42 163.5t115.5 112.5t166.5 41q94 0 167 -41t115.5 -112.5t42.5 -163.5q0 -91 -42.5 -163t-115.5 -113t-167 -41zM414 1086q101 0 165.5 65t64.5 166t-64.5 166t-165.5 65q-100 0 -164.5 -65t-64.5 -166t64.5 -166
t164.5 -65z" />
    <glyph glyph-name="plusminus" unicode="&#xb1;" horiz-adv-x="1342" 
d="M618 226v490h-467v98h467v509h112v-509h461v-98h-461v-490h-112zM151 0v99h1042v-99h-1042z" />
    <glyph glyph-name="uni00B2" unicode="&#xb2;" horiz-adv-x="783" 
d="M91 1014q7 96 36 171.5t95.5 141.5t184.5 132q96 55 133 96.5t37 97.5q0 64 -46 101.5t-123 37.5q-87 0 -141.5 -47.5t-62.5 -145.5h-106q11 134 95.5 208t212.5 74t201 -63.5t73 -165.5q0 -80 -49.5 -142t-174.5 -133q-120 -70 -171 -131t-63 -141h465v-91h-596z" />
    <glyph glyph-name="uni00B3" unicode="&#xb3;" horiz-adv-x="812" 
d="M416 993q-141 0 -229 70t-104 194h107q14 -84 73 -129.5t153 -45.5q91 0 145 45t54 121q0 77 -56.5 121t-153.5 44h-116v89h111q86 0 133.5 39.5t47.5 110.5q0 64 -45.5 102t-121.5 38q-86 0 -134 -42.5t-59 -111.5h-106q17 108 91 175.5t210 67.5q118 0 192.5 -61
t74.5 -160q0 -71 -40.5 -123t-111.5 -75q88 -19 138 -77t50 -140q0 -112 -83 -182t-220 -70z" />
    <glyph glyph-name="acute" unicode="&#xb4;" horiz-adv-x="499" 
d="M151 1307l298 427h-144l-255 -427h101z" />
    <glyph glyph-name="mu" unicode="&#xb5;" horiz-adv-x="1356" 
d="M174 -487v1641h107v-694q0 -191 90.5 -296.5t255.5 -105.5q244 0 350 192q98 165 98 440v464h107v-1154h-81q0 46 -3 93.5t-5 75.5q-3 33 -9 45t-19 12q-8 0 -14.5 -5t-18.5 -28q-62 -110 -161.5 -170t-242.5 -60q-198 0 -295 127q-15 18 -22 23t-15 5q-20 0 -20 -36
v-569h-102z" />
    <glyph glyph-name="paragraph" unicode="&#xb6;" horiz-adv-x="1423" 
d="M727 -300v1015h-195q-220 0 -343 116.5t-123 324.5q0 209 122.5 325t343.5 116h299v-1897h-104zM1099 -300v1897h104v-1897h-104z" />
    <glyph glyph-name="periodcentered" unicode="&#xb7;" horiz-adv-x="505" 
d="M253 468q-50 0 -82 31t-32 78t32 78t82 31t81.5 -31t31.5 -78t-31.5 -78t-81.5 -31z" />
    <glyph glyph-name="cedilla" unicode="&#xb8;" horiz-adv-x="658" 
d="M350 -522q-133 0 -212.5 78.5t-87.5 210.5h94q9 -97 63 -152t144 -55q80 0 124 41t44 114q0 76 -70.5 152t-197.5 133l106 2q115 -44 182.5 -124t67.5 -169q0 -105 -68 -168t-189 -63z" />
    <glyph glyph-name="uni00B9" unicode="&#xb9;" horiz-adv-x="547" 
d="M294 1014v661q-36 -40 -98 -74t-130 -50v103q94 24 163.5 79.5t93.5 126.5h82v-846h-111z" />
    <glyph glyph-name="ordmasculine" unicode="&#xba;" horiz-adv-x="1218" 
d="M609 641q-145 0 -258 64t-178 175.5t-65 253.5t65 253.5t178 175.5t258 64t258 -64t178 -175.5t65 -253.5t-65 -253.5t-178 -175.5t-258 -64zM609 739q113 0 199.5 51t136 140t49.5 204t-49.5 204t-136 139.5t-199.5 50.5q-112 0 -199 -50.5t-136.5 -139.5t-49.5 -204
t49.5 -204t136.5 -140t199 -51zM202 411v90h814v-90h-814z" />
    <glyph glyph-name="guillemotright" unicode="&#xbb;" horiz-adv-x="1089" 
d="M150 150h-114l376 456l-376 456h114l400 -456zM536 150h-114l376 456l-376 456h114l400 -456z" />
    <glyph glyph-name="onequarter" unicode="&#xbc;" horiz-adv-x="1564" 
d="M294 754v661q-36 -40 -98 -74t-130 -50v103q94 24 163.5 79.5t93.5 126.5h82v-846h-111zM239 0l911 1597h123l-911 -1597h-123zM1274 0v216h-447v98l437 532h111v-539h115v-91h-115v-216h-101zM930 307h344v422z" />
    <glyph glyph-name="onehalf" unicode="&#xbd;" horiz-adv-x="1584" 
d="M294 754v661q-36 -40 -98 -74t-130 -50v103q94 24 163.5 79.5t93.5 126.5h82v-846h-111zM156 0l911 1597h123l-911 -1597h-123zM892 0q7 96 36 171.5t95.5 141.5t184.5 132q96 55 133 96.5t37 97.5q0 64 -46 101.5t-123 37.5q-87 0 -141.5 -47.5t-62.5 -145.5h-106
q11 134 95.5 208t212.5 74t201 -63.5t73 -165.5q0 -80 -49.5 -142t-174.5 -133q-120 -70 -171 -131t-63 -141h465v-91h-596z" />
    <glyph glyph-name="threequarters" unicode="&#xbe;" horiz-adv-x="1806" 
d="M416 733q-141 0 -229 70t-104 194h107q14 -84 73 -129.5t153 -45.5q91 0 145 45t54 121q0 77 -56.5 121t-153.5 44h-116v89h111q86 0 133.5 39.5t47.5 110.5q0 64 -45.5 102t-121.5 38q-86 0 -134 -42.5t-59 -111.5h-106q17 108 91 175.5t210 67.5q118 0 192.5 -61
t74.5 -160q0 -71 -40.5 -123t-111.5 -75q88 -19 138 -77t50 -140q0 -112 -83 -182t-220 -70zM428 0l911 1597h123l-911 -1597h-123zM1520 0v216h-447v98l437 532h111v-539h115v-91h-115v-216h-101zM1176 307h344v422z" />
    <glyph glyph-name="questiondown" unicode="&#xbf;" horiz-adv-x="1061" 
d="M616 694v-84q0 -79 -18.5 -141t-66.5 -119t-135 -119q-119 -83 -164.5 -148.5t-45.5 -158.5q0 -130 86 -206.5t229 -76.5q163 0 262 90t129 257h110q-36 -206 -168.5 -322.5t-334.5 -116.5q-124 0 -218.5 47t-148.5 130t-54 192q0 76 23.5 136t79 118t151.5 128
q74 54 113 99t53 94.5t14 116.5v84h104zM560 1193q49 0 81 -31t32 -78t-32 -78t-81 -31q-50 0 -82 31t-32 78t32 78t82 31z" />
    <glyph glyph-name="Agrave" unicode="&#xc0;" horiz-adv-x="1437" 
d="M19 0l625 1597h153l617 -1597h-125l-182 473h-782l-182 -473h-124zM361 571h710l-354 930zM653 1716l-421 341h173l377 -341h-129z" />
    <glyph glyph-name="Aacute" unicode="&#xc1;" horiz-adv-x="1437" 
d="M19 0l625 1597h153l617 -1597h-125l-182 473h-782l-182 -473h-124zM361 571h710l-354 930zM783 1716l421 341h-173l-377 -341h129z" />
    <glyph glyph-name="Acircumflex" unicode="&#xc2;" horiz-adv-x="1437" 
d="M19 0l625 1597h153l617 -1597h-125l-182 473h-782l-182 -473h-124zM361 571h710l-354 930zM369 1716l294 351h111l294 -351h-104l-224 238q-10 10 -21 10t-21 -10l-225 -238h-104z" />
    <glyph glyph-name="Atilde" unicode="&#xc3;" horiz-adv-x="1437" 
d="M19 0l625 1597h153l617 -1597h-125l-182 473h-782l-182 -473h-124zM361 571h710l-354 930zM885 1750q-57 0 -101.5 25.5t-82.5 59.5t-75 59.5t-78 25.5q-47 0 -79 -36.5t-44 -102.5h-80q16 103 67 165t139 62q57 0 101.5 -25.5t82.5 -59.5t74.5 -59.5t77.5 -25.5
q48 0 80 36.5t44 102.5h79q-15 -103 -66.5 -165t-138.5 -62z" />
    <glyph glyph-name="Adieresis" unicode="&#xc4;" horiz-adv-x="1437" 
d="M19 0l625 1597h153l617 -1597h-125l-182 473h-782l-182 -473h-124zM361 571h710l-354 930zM963 1793q-44 0 -70.5 27.5t-26.5 64.5q0 38 26.5 65t70.5 27t70.5 -27t26.5 -65q0 -37 -26.5 -64.5t-70.5 -27.5zM473 1793q-44 0 -70.5 27.5t-26.5 64.5q0 38 26.5 65t70.5 27
t70.5 -27t26.5 -65q0 -37 -26.5 -64.5t-70.5 -27.5z" />
    <glyph glyph-name="Aring" unicode="&#xc5;" horiz-adv-x="1437" 
d="M19 0l625 1597h153l617 -1597h-125l-182 473h-782l-182 -473h-124zM361 571h710l-354 930zM718 1694q-100 0 -164.5 62t-64.5 157t64.5 157.5t164.5 62.5t164.5 -62.5t64.5 -157.5t-64.5 -157t-164.5 -62zM718 1774q60 0 99 39.5t39 99.5t-39 100t-99 40q-61 0 -99.5 -40
t-38.5 -100t39 -99.5t99 -39.5z" />
    <glyph glyph-name="AE" unicode="&#xc6;" horiz-adv-x="2073" 
d="M-55 0l1028 1597h998v-99h-816v-636h708v-99h-708v-664h858v-99h-973v584h-580l-376 -584h-139zM519 683h521v811z" />
    <glyph glyph-name="Ccedilla" unicode="&#xc7;" horiz-adv-x="1772" 
d="M923 -38q-181 0 -332 62t-262 174.5t-171.5 265.5t-60.5 335t60.5 335t171.5 265.5t262 174.5t332 62q210 0 372.5 -77.5t266.5 -217t137 -327.5h-123q-47 240 -216.5 381t-435.5 141q-209 0 -368.5 -93t-248.5 -259t-89 -385q0 -218 89 -384.5t248.5 -259.5t368.5 -93
q266 0 435.5 141t216.5 381h123q-33 -187 -137 -327t-266.5 -217.5t-372.5 -77.5zM932 -532q-137 0 -217.5 79.5t-88.5 211.5h104q8 -94 60 -148t138 -54q77 0 118.5 40.5t41.5 110.5q0 75 -67.5 151t-191.5 133l112 16q110 -46 179 -130t69 -176q0 -104 -69 -169t-188 -65z
" />
    <glyph glyph-name="Egrave" unicode="&#xc8;" horiz-adv-x="1279" 
d="M204 0v1597h972v-99h-855v-636h748v-99h-748v-664h898v-99h-1015zM633 1716l-421 341h173l377 -341h-129z" />
    <glyph glyph-name="Eacute" unicode="&#xc9;" horiz-adv-x="1279" 
d="M204 0v1597h972v-99h-855v-636h748v-99h-748v-664h898v-99h-1015zM763 1716l421 341h-173l-377 -341h129z" />
    <glyph glyph-name="Ecircumflex" unicode="&#xca;" horiz-adv-x="1279" 
d="M204 0v1597h972v-99h-855v-636h748v-99h-748v-664h898v-99h-1015zM349 1716l294 351h111l294 -351h-104l-224 238q-10 10 -21 10t-21 -10l-225 -238h-104z" />
    <glyph glyph-name="Edieresis" unicode="&#xcb;" horiz-adv-x="1279" 
d="M204 0v1597h972v-99h-855v-636h748v-99h-748v-664h898v-99h-1015zM943 1793q-44 0 -70.5 27.5t-26.5 64.5q0 38 26.5 65t70.5 27t70.5 -27t26.5 -65q0 -37 -26.5 -64.5t-70.5 -27.5zM453 1793q-44 0 -70.5 27.5t-26.5 64.5q0 38 26.5 65t70.5 27t70.5 -27t26.5 -65
q0 -37 -26.5 -64.5t-70.5 -27.5z" />
    <glyph glyph-name="Igrave" unicode="&#xcc;" horiz-adv-x="525" 
d="M204 0v1597h117v-1597h-117zM198 1716l-421 341h173l377 -341h-129z" />
    <glyph glyph-name="Iacute" unicode="&#xcd;" horiz-adv-x="525" 
d="M204 0v1597h117v-1597h-117zM328 1716l421 341h-173l-377 -341h129z" />
    <glyph glyph-name="Icircumflex" unicode="&#xce;" horiz-adv-x="525" 
d="M204 0v1597h117v-1597h-117zM-86 1716l294 351h111l294 -351h-104l-224 238q-10 10 -21 10t-21 -10l-225 -238h-104z" />
    <glyph glyph-name="Idieresis" unicode="&#xcf;" horiz-adv-x="525" 
d="M204 0v1597h117v-1597h-117zM508 1793q-44 0 -70.5 27.5t-26.5 64.5q0 38 26.5 65t70.5 27t70.5 -27t26.5 -65q0 -37 -26.5 -64.5t-70.5 -27.5zM18 1793q-44 0 -70.5 27.5t-26.5 64.5q0 38 26.5 65t70.5 27t70.5 -27t26.5 -65q0 -37 -26.5 -64.5t-70.5 -27.5z" />
    <glyph glyph-name="Eth" unicode="&#xd0;" horiz-adv-x="1734" 
d="M266 0v752h-265v96h265v749h550q248 0 432 -100.5t285.5 -280t101.5 -417.5t-101.5 -418t-285.5 -280.5t-432 -100.5h-550zM382 99h430q216 0 373.5 87t243 244.5t85.5 368.5t-85.5 368t-243 244t-373.5 87h-430v-650h535v-96h-535v-653z" />
    <glyph glyph-name="Ntilde" unicode="&#xd1;" horiz-adv-x="1645" 
d="M204 0v1597h133l989 -1431v1431h114v-1597h-133l-988 1429v-1429h-115zM990 1750q-57 0 -101.5 25.5t-82.5 59.5t-75 59.5t-78 25.5q-47 0 -79 -36.5t-44 -102.5h-80q16 103 67 165t139 62q57 0 101.5 -25.5t82.5 -59.5t74.5 -59.5t77.5 -25.5q48 0 80 36.5t44 102.5h79
q-15 -103 -66.5 -165t-138.5 -62z" />
    <glyph glyph-name="Ograve" unicode="&#xd2;" horiz-adv-x="1855" 
d="M928 -38q-181 0 -333 61.5t-264 174t-173.5 265.5t-61.5 336t61.5 336t173.5 265.5t264 174t333 61.5q180 0 332 -61.5t264 -174t173.5 -265.5t61.5 -336t-61.5 -336t-173.5 -265.5t-264 -174t-332 -61.5zM928 63q208 0 368 93t251 259t91 384t-91 384t-251 259t-368 93
t-368.5 -93t-251.5 -259t-91 -384t91 -384t251.5 -259t368.5 -93zM863 1716l-421 341h173l377 -341h-129z" />
    <glyph glyph-name="Oacute" unicode="&#xd3;" horiz-adv-x="1855" 
d="M928 -38q-181 0 -333 61.5t-264 174t-173.5 265.5t-61.5 336t61.5 336t173.5 265.5t264 174t333 61.5q180 0 332 -61.5t264 -174t173.5 -265.5t61.5 -336t-61.5 -336t-173.5 -265.5t-264 -174t-332 -61.5zM928 63q208 0 368 93t251 259t91 384t-91 384t-251 259t-368 93
t-368.5 -93t-251.5 -259t-91 -384t91 -384t251.5 -259t368.5 -93zM993 1716l421 341h-173l-377 -341h129z" />
    <glyph glyph-name="Ocircumflex" unicode="&#xd4;" horiz-adv-x="1855" 
d="M928 -38q-181 0 -333 61.5t-264 174t-173.5 265.5t-61.5 336t61.5 336t173.5 265.5t264 174t333 61.5q180 0 332 -61.5t264 -174t173.5 -265.5t61.5 -336t-61.5 -336t-173.5 -265.5t-264 -174t-332 -61.5zM928 63q208 0 368 93t251 259t91 384t-91 384t-251 259t-368 93
t-368.5 -93t-251.5 -259t-91 -384t91 -384t251.5 -259t368.5 -93zM579 1716l294 351h111l294 -351h-104l-224 238q-10 10 -21 10t-21 -10l-225 -238h-104z" />
    <glyph glyph-name="Otilde" unicode="&#xd5;" horiz-adv-x="1855" 
d="M928 -38q-181 0 -333 61.5t-264 174t-173.5 265.5t-61.5 336t61.5 336t173.5 265.5t264 174t333 61.5q180 0 332 -61.5t264 -174t173.5 -265.5t61.5 -336t-61.5 -336t-173.5 -265.5t-264 -174t-332 -61.5zM928 63q208 0 368 93t251 259t91 384t-91 384t-251 259t-368 93
t-368.5 -93t-251.5 -259t-91 -384t91 -384t251.5 -259t368.5 -93zM1095 1750q-57 0 -101.5 25.5t-82.5 59.5t-75 59.5t-78 25.5q-47 0 -79 -36.5t-44 -102.5h-80q16 103 67 165t139 62q57 0 101.5 -25.5t82.5 -59.5t74.5 -59.5t77.5 -25.5q48 0 80 36.5t44 102.5h79
q-15 -103 -66.5 -165t-138.5 -62z" />
    <glyph glyph-name="Odieresis" unicode="&#xd6;" horiz-adv-x="1855" 
d="M928 -38q-181 0 -333 61.5t-264 174t-173.5 265.5t-61.5 336t61.5 336t173.5 265.5t264 174t333 61.5q180 0 332 -61.5t264 -174t173.5 -265.5t61.5 -336t-61.5 -336t-173.5 -265.5t-264 -174t-332 -61.5zM928 63q208 0 368 93t251 259t91 384t-91 384t-251 259t-368 93
t-368.5 -93t-251.5 -259t-91 -384t91 -384t251.5 -259t368.5 -93zM1173 1793q-44 0 -70.5 27.5t-26.5 64.5q0 38 26.5 65t70.5 27t70.5 -27t26.5 -65q0 -37 -26.5 -64.5t-70.5 -27.5zM683 1793q-44 0 -70.5 27.5t-26.5 64.5q0 38 26.5 65t70.5 27t70.5 -27t26.5 -65
q0 -37 -26.5 -64.5t-70.5 -27.5z" />
    <glyph glyph-name="multiply" unicode="&#xd7;" horiz-adv-x="1342" 
d="M235 266l-69 67l438 454l-438 454l69 67l436 -452l437 452l68 -67l-438 -454l438 -454l-69 -67l-436 452z" />
    <glyph glyph-name="Oslash" unicode="&#xd8;" horiz-adv-x="1855" 
d="M169 -100l201 262q-128 112 -201 275.5t-73 361.5q0 183 61.5 336t173.5 265.5t264 174t333 61.5q135 0 255 -35.5t218 -100.5l152 198h136l-202 -263q127 -112 199.5 -275t72.5 -361q0 -183 -61.5 -336t-173.5 -265.5t-264 -174t-332 -61.5q-135 0 -255 35.5t-219 100.5
l-152 -198h-133zM214 799q0 -173 59 -315t164 -240l903 1173q-85 58 -189 89t-223 31q-209 0 -370 -93.5t-252.5 -259.5t-91.5 -385zM928 61q209 0 370 93.5t252 260t91 384.5q0 173 -58.5 314.5t-162.5 239.5l-904 -1172q85 -58 189.5 -89t222.5 -31z" />
    <glyph glyph-name="Ugrave" unicode="&#xd9;" horiz-adv-x="1598" 
d="M799 -38q-283 0 -448.5 158t-165.5 471v1006h117v-1005q0 -260 129 -395.5t368 -135.5t368 135.5t129 395.5v1005h117v-1006q0 -313 -165.5 -471t-448.5 -158zM734 1716l-421 341h173l377 -341h-129z" />
    <glyph glyph-name="Uacute" unicode="&#xda;" horiz-adv-x="1598" 
d="M799 -38q-283 0 -448.5 158t-165.5 471v1006h117v-1005q0 -260 129 -395.5t368 -135.5t368 135.5t129 395.5v1005h117v-1006q0 -313 -165.5 -471t-448.5 -158zM864 1716l421 341h-173l-377 -341h129z" />
    <glyph glyph-name="Ucircumflex" unicode="&#xdb;" horiz-adv-x="1598" 
d="M799 -38q-283 0 -448.5 158t-165.5 471v1006h117v-1005q0 -260 129 -395.5t368 -135.5t368 135.5t129 395.5v1005h117v-1006q0 -313 -165.5 -471t-448.5 -158zM450 1716l294 351h111l294 -351h-104l-224 238q-10 10 -21 10t-21 -10l-225 -238h-104z" />
    <glyph glyph-name="Udieresis" unicode="&#xdc;" horiz-adv-x="1598" 
d="M799 -38q-283 0 -448.5 158t-165.5 471v1006h117v-1005q0 -260 129 -395.5t368 -135.5t368 135.5t129 395.5v1005h117v-1006q0 -313 -165.5 -471t-448.5 -158zM1044 1793q-44 0 -70.5 27.5t-26.5 64.5q0 38 26.5 65t70.5 27t70.5 -27t26.5 -65q0 -37 -26.5 -64.5
t-70.5 -27.5zM554 1793q-44 0 -70.5 27.5t-26.5 64.5q0 38 26.5 65t70.5 27t70.5 -27t26.5 -65q0 -37 -26.5 -64.5t-70.5 -27.5z" />
    <glyph glyph-name="Yacute" unicode="&#xdd;" horiz-adv-x="1337" 
d="M613 0v661l-590 936h135l517 -833l504 833h127l-578 -938v-659h-115zM729 1716l421 341h-173l-377 -341h129z" />
    <glyph glyph-name="Thorn" unicode="&#xde;" horiz-adv-x="1348" 
d="M204 0v1597h115v-326h449q236 0 364.5 -124.5t128.5 -347.5t-128.5 -347.5t-364.5 -124.5h-449v-327h-115zM319 426h441q191 0 287.5 96.5t96.5 276.5t-96.5 276.5t-287.5 96.5h-441v-746z" />
    <glyph glyph-name="germandbls" unicode="&#xdf;" horiz-adv-x="1291" 
d="M768 -31q-80 0 -171.5 24t-153.5 67v95q148 -93 316 -93q144 -1 241.5 91t97.5 267q0 195 -135.5 303.5t-395.5 113.5v87q164 14 269 105t105 239q0 146 -85.5 235t-227.5 89q-166 0 -256.5 -99.5t-90.5 -287.5v-1205h-107l1 1199q0 233 121 359t335 126
q124 0 218.5 -50.5t148 -141t53.5 -212.5q0 -135 -78.5 -234.5t-213.5 -143.5q213 -34 332 -162t119 -325q0 -132 -56.5 -232.5t-156 -157t-229.5 -56.5z" />
    <glyph glyph-name="agrave" unicode="&#xe0;" horiz-adv-x="1232" 
d="M522 -37q-129 0 -226.5 44.5t-151.5 125t-54 187.5q0 160 109.5 243t335.5 99q159 11 272 24t161 30v2q0 178 -88 278.5t-266 100.5q-148 0 -248.5 -72.5t-129.5 -196.5h-113q23 112 92 193.5t171.5 125.5t224.5 44q230 0 347 -126t117 -345v-720h-80q-2 55 -5 105t-6 72
q-5 39 -23 39q-8 0 -13.5 -5.5t-15.5 -24.5q-59 -113 -163 -168t-247 -55zM200 321q0 -122 91 -194t239 -72q73 0 145.5 20t133.5 72t99 148q24 57 42 136.5t18 177.5v16q-49 -18 -158 -30.5t-274 -25.5q-178 -14 -257 -72.5t-79 -175.5zM561 1307l-298 427h144l255 -427
h-101z" />
    <glyph glyph-name="aacute" unicode="&#xe1;" horiz-adv-x="1232" 
d="M522 -37q-129 0 -226.5 44.5t-151.5 125t-54 187.5q0 160 109.5 243t335.5 99q159 11 272 24t161 30v2q0 178 -88 278.5t-266 100.5q-148 0 -248.5 -72.5t-129.5 -196.5h-113q23 112 92 193.5t171.5 125.5t224.5 44q230 0 347 -126t117 -345v-720h-80q-2 55 -5 105t-6 72
q-5 39 -23 39q-8 0 -13.5 -5.5t-15.5 -24.5q-59 -113 -163 -168t-247 -55zM200 321q0 -122 91 -194t239 -72q73 0 145.5 20t133.5 72t99 148q24 57 42 136.5t18 177.5v16q-49 -18 -158 -30.5t-274 -25.5q-178 -14 -257 -72.5t-79 -175.5zM661 1307l298 427h-144l-255 -427
h101z" />
    <glyph glyph-name="acircumflex" unicode="&#xe2;" horiz-adv-x="1232" 
d="M522 -37q-129 0 -226.5 44.5t-151.5 125t-54 187.5q0 160 109.5 243t335.5 99q159 11 272 24t161 30v2q0 178 -88 278.5t-266 100.5q-148 0 -248.5 -72.5t-129.5 -196.5h-113q23 112 92 193.5t171.5 125.5t224.5 44q230 0 347 -126t117 -345v-720h-80q-2 55 -5 105t-6 72
q-5 39 -23 39q-8 0 -13.5 -5.5t-15.5 -24.5q-59 -113 -163 -168t-247 -55zM200 321q0 -122 91 -194t239 -72q73 0 145.5 20t133.5 72t99 148q24 57 42 136.5t18 177.5v16q-49 -18 -158 -30.5t-274 -25.5q-178 -14 -257 -72.5t-79 -175.5zM270 1307l296 427h90l296 -427h-91
l-214 270q-21 25 -36 25t-36 -25l-214 -270h-91z" />
    <glyph glyph-name="atilde" unicode="&#xe3;" horiz-adv-x="1232" 
d="M522 -37q-129 0 -226.5 44.5t-151.5 125t-54 187.5q0 160 109.5 243t335.5 99q159 11 272 24t161 30v2q0 178 -88 278.5t-266 100.5q-148 0 -248.5 -72.5t-129.5 -196.5h-113q23 112 92 193.5t171.5 125.5t224.5 44q230 0 347 -126t117 -345v-720h-80q-2 55 -5 105t-6 72
q-5 39 -23 39q-8 0 -13.5 -5.5t-15.5 -24.5q-59 -113 -163 -168t-247 -55zM200 321q0 -122 91 -194t239 -72q73 0 145.5 20t133.5 72t99 148q24 57 42 136.5t18 177.5v16q-49 -18 -158 -30.5t-274 -25.5q-178 -14 -257 -72.5t-79 -175.5zM775 1331q-57 0 -101.5 25.5
t-82.5 59.5t-75 59.5t-78 25.5q-47 0 -79 -36.5t-44 -102.5h-80q16 103 67 165t139 62q57 0 101.5 -25.5t82.5 -59.5t74.5 -59.5t77.5 -25.5q48 0 80 36.5t44 102.5h79q-15 -103 -66.5 -165t-138.5 -62z" />
    <glyph glyph-name="adieresis" unicode="&#xe4;" horiz-adv-x="1232" 
d="M522 -37q-129 0 -226.5 44.5t-151.5 125t-54 187.5q0 160 109.5 243t335.5 99q159 11 272 24t161 30v2q0 178 -88 278.5t-266 100.5q-148 0 -248.5 -72.5t-129.5 -196.5h-113q23 112 92 193.5t171.5 125.5t224.5 44q230 0 347 -126t117 -345v-720h-80q-2 55 -5 105t-6 72
q-5 39 -23 39q-8 0 -13.5 -5.5t-15.5 -24.5q-59 -113 -163 -168t-247 -55zM200 321q0 -122 91 -194t239 -72q73 0 145.5 20t133.5 72t99 148q24 57 42 136.5t18 177.5v16q-49 -18 -158 -30.5t-274 -25.5q-178 -14 -257 -72.5t-79 -175.5zM841 1361q-44 0 -70.5 27.5
t-26.5 64.5q0 38 26.5 65t70.5 27t70.5 -27t26.5 -65q0 -37 -26.5 -64.5t-70.5 -27.5zM381 1361q-44 0 -70.5 27.5t-26.5 64.5q0 38 26.5 65t70.5 27t70.5 -27t26.5 -65q0 -37 -26.5 -64.5t-70.5 -27.5z" />
    <glyph glyph-name="aring" unicode="&#xe5;" horiz-adv-x="1232" 
d="M522 -37q-129 0 -226.5 44.5t-151.5 125t-54 187.5q0 160 109.5 243t335.5 99q159 11 272 24t161 30v2q0 178 -88 278.5t-266 100.5q-148 0 -248.5 -72.5t-129.5 -196.5h-113q23 112 92 193.5t171.5 125.5t224.5 44q230 0 347 -126t117 -345v-720h-80q-2 55 -5 105t-6 72
q-5 39 -23 39q-8 0 -13.5 -5.5t-15.5 -24.5q-59 -113 -163 -168t-247 -55zM200 321q0 -122 91 -194t239 -72q73 0 145.5 20t133.5 72t99 148q24 57 42 136.5t18 177.5v16q-49 -18 -158 -30.5t-274 -25.5q-178 -14 -257 -72.5t-79 -175.5zM610 1300q-99 0 -162.5 61.5
t-63.5 155.5q0 95 63.5 156.5t162.5 61.5t162.5 -61.5t63.5 -156.5q0 -94 -63.5 -155.5t-162.5 -61.5zM610 1375q62 0 101.5 40.5t39.5 101.5q0 62 -39.5 102t-101.5 40q-61 0 -101 -40t-40 -102q0 -61 40 -101.5t101 -40.5z" />
    <glyph glyph-name="ae" unicode="&#xe6;" horiz-adv-x="2165" 
d="M549 -36q-206 1 -333 96.5t-127 264.5q0 152 108 236t300 84h467v9q0 218 -92 330.5t-271 112.5q-137 0 -234.5 -72t-126.5 -197h-114q23 112 90 193t167.5 125.5t221.5 43.5q169 0 281 -84t153 -235q65 151 196 235.5t302 84.5q164 0 285.5 -73.5t189 -203.5t67.5 -300
q0 -13 -0.5 -32.5t-2.5 -28.5h-995q3 -149 59 -260.5t159 -173t245 -61.5q153 0 263 79.5t143 209.5h113q-39 -176 -180 -279.5t-339 -103.5q-196 0 -332.5 99t-188.5 270q-37 -175 -162.5 -272.5t-311.5 -96.5zM1538 1098q-196 0 -317.5 -124.5t-137.5 -328.5l890 -1
q-2 135 -57.5 237t-153 159.5t-224.5 57.5zM547 56q199 -1 300 119t115 378h-445q-153 0 -235.5 -56t-82.5 -176q0 -124 97 -194t251 -71z" />
    <glyph glyph-name="ccedilla" unicode="&#xe7;" horiz-adv-x="1323" 
d="M689 -36q-176 0 -312.5 78.5t-214 216.5t-77.5 318q0 181 77.5 319t214 216.5t312.5 78.5q230 0 380 -124t186 -329h-113q-31 163 -150 260.5t-301 97.5q-146 0 -258 -66t-174.5 -183t-62.5 -270q0 -152 62.5 -269.5t174.5 -183.5t258 -66q182 0 301 98t150 261h113
q-36 -205 -186 -329t-380 -124zM702 -530q-133 0 -212.5 78.5t-87.5 210.5h94q9 -97 63 -152t144 -55q80 0 124 41t44 114q0 76 -70.5 152t-197.5 133l106 2q115 -44 182.5 -124t67.5 -169q0 -105 -68 -168t-189 -63z" />
    <glyph glyph-name="egrave" unicode="&#xe8;" horiz-adv-x="1321" 
d="M679 -36q-178 0 -311 77t-207.5 215.5t-74.5 322.5q0 181 77.5 318.5t210 215.5t298.5 78q171 0 298 -73.5t196.5 -204t69.5 -300.5q0 -13 -1 -34t-2 -29h-1036q3 -147 64 -257.5t168 -172.5t250 -62q163 0 278 79.5t149 209.5h113q-26 -117 -101 -203t-187.5 -133
t-251.5 -47zM674 1097q-132 0 -235.5 -56.5t-166 -158.5t-73.5 -239h931q-2 135 -59.5 237t-159.5 159.5t-237 57.5zM623 1307l-298 427h144l255 -427h-101z" />
    <glyph glyph-name="eacute" unicode="&#xe9;" horiz-adv-x="1321" 
d="M679 -36q-178 0 -311 77t-207.5 215.5t-74.5 322.5q0 181 77.5 318.5t210 215.5t298.5 78q171 0 298 -73.5t196.5 -204t69.5 -300.5q0 -13 -1 -34t-2 -29h-1036q3 -147 64 -257.5t168 -172.5t250 -62q163 0 278 79.5t149 209.5h113q-26 -117 -101 -203t-187.5 -133
t-251.5 -47zM674 1097q-132 0 -235.5 -56.5t-166 -158.5t-73.5 -239h931q-2 135 -59.5 237t-159.5 159.5t-237 57.5zM723 1307l298 427h-144l-255 -427h101z" />
    <glyph glyph-name="ecircumflex" unicode="&#xea;" horiz-adv-x="1321" 
d="M679 -36q-178 0 -311 77t-207.5 215.5t-74.5 322.5q0 181 77.5 318.5t210 215.5t298.5 78q171 0 298 -73.5t196.5 -204t69.5 -300.5q0 -13 -1 -34t-2 -29h-1036q3 -147 64 -257.5t168 -172.5t250 -62q163 0 278 79.5t149 209.5h113q-26 -117 -101 -203t-187.5 -133
t-251.5 -47zM674 1097q-132 0 -235.5 -56.5t-166 -158.5t-73.5 -239h931q-2 135 -59.5 237t-159.5 159.5t-237 57.5zM332 1307l296 427h90l296 -427h-91l-214 270q-21 25 -36 25t-36 -25l-214 -270h-91z" />
    <glyph glyph-name="edieresis" unicode="&#xeb;" horiz-adv-x="1321" 
d="M679 -36q-178 0 -311 77t-207.5 215.5t-74.5 322.5q0 181 77.5 318.5t210 215.5t298.5 78q171 0 298 -73.5t196.5 -204t69.5 -300.5q0 -13 -1 -34t-2 -29h-1036q3 -147 64 -257.5t168 -172.5t250 -62q163 0 278 79.5t149 209.5h113q-26 -117 -101 -203t-187.5 -133
t-251.5 -47zM674 1097q-132 0 -235.5 -56.5t-166 -158.5t-73.5 -239h931q-2 135 -59.5 237t-159.5 159.5t-237 57.5zM903 1361q-44 0 -70.5 27.5t-26.5 64.5q0 38 26.5 65t70.5 27t70.5 -27t26.5 -65q0 -37 -26.5 -64.5t-70.5 -27.5zM443 1361q-44 0 -70.5 27.5t-26.5 64.5
q0 38 26.5 65t70.5 27t70.5 -27t26.5 -65q0 -37 -26.5 -64.5t-70.5 -27.5z" />
    <glyph glyph-name="igrave" unicode="&#xec;" horiz-adv-x="495" 
d="M209 0v1154h106v-1154h-106zM214 1307l-218 427h129l177 -427h-88z" />
    <glyph glyph-name="iacute" unicode="&#xed;" horiz-adv-x="465" 
d="M179 0v1154h106v-1154h-106zM280 1307l218 427h-129l-177 -427h88z" />
    <glyph glyph-name="icircumflex" unicode="&#xee;" horiz-adv-x="495" 
d="M209 0v1154h106v-1154h-106zM216 1734l-245 -427h84l172 266q20 28 35 28t35 -28l172 -266h84l-245 427h-92z" />
    <glyph glyph-name="idieresis" unicode="&#xef;" horiz-adv-x="465" 
d="M179 0v1154h106v-1154h-106zM395 1364q-44 0 -70.5 27.5t-26.5 64.5q0 38 26.5 65t70.5 27t70.5 -27t26.5 -65q0 -37 -26.5 -64.5t-70.5 -27.5zM69 1364q-44 0 -70.5 27.5t-26.5 64.5q0 38 26.5 65t70.5 27t70.5 -27t26.5 -65q0 -37 -26.5 -64.5t-70.5 -27.5z" />
    <glyph glyph-name="eth" unicode="&#xf0;" horiz-adv-x="1356" 
d="M664 -37q-167 0 -297.5 74.5t-205.5 204t-75 294.5q0 166 73.5 294.5t201.5 202.5t292 74q119 0 220 -43.5t164 -111.5q30 -31 42 -31q19 0 19 25q0 23 -13 64t-33 88q-70 175 -204 303l-369 -158l-1 88l301 129q-138 107 -317 157l96 54q176 -55 316 -170l306 131v-89
l-240 -103q144 -146 226 -357.5t83 -472.5q1 -194 -72 -339.5t-205 -226.5t-308 -81zM664 58q139 0 244.5 63.5t165 174.5t59.5 253q0 129 -60.5 234t-166 167t-239.5 62q-138 0 -244 -61.5t-166 -169.5t-60 -246t60 -246t165.5 -169.5t241.5 -61.5z" />
    <glyph glyph-name="ntilde" unicode="&#xf1;" horiz-adv-x="1346" 
d="M174 0v1154h80q1 -50 3.5 -103.5t5.5 -81.5q3 -33 8.5 -45t18.5 -12q9 0 15 5t18 27q64 113 167.5 180t257.5 67q207 0 324 -129t117 -364v-698h-107v695q0 192 -90.5 296.5t-248.5 104.5q-120 0 -212 -50.5t-151 -158.5q-48 -82 -73.5 -192t-25.5 -265v-430h-107z
M845 1331q-57 0 -101.5 25.5t-82.5 59.5t-75 59.5t-78 25.5q-47 0 -79 -36.5t-44 -102.5h-80q16 103 67 165t139 62q57 0 101.5 -25.5t82.5 -59.5t74.5 -59.5t77.5 -25.5q48 0 80 36.5t44 102.5h79q-15 -103 -66.5 -165t-138.5 -62z" />
    <glyph glyph-name="ograve" unicode="&#xf2;" horiz-adv-x="1396" 
d="M698 -37q-177 0 -316 80t-218.5 218.5t-79.5 315.5t79.5 316t218.5 218.5t316 79.5t316 -79.5t218.5 -218.5t79.5 -316t-79.5 -315.5t-218.5 -218.5t-316 -80zM698 58q147 0 260.5 67t178 184t64.5 268t-64.5 268t-178 184t-260.5 67t-260.5 -67t-178 -184t-64.5 -268
t64.5 -268t178 -184t260.5 -67zM648 1307l-298 427h144l255 -427h-101z" />
    <glyph glyph-name="oacute" unicode="&#xf3;" horiz-adv-x="1396" 
d="M698 -37q-177 0 -316 80t-218.5 218.5t-79.5 315.5t79.5 316t218.5 218.5t316 79.5t316 -79.5t218.5 -218.5t79.5 -316t-79.5 -315.5t-218.5 -218.5t-316 -80zM698 58q147 0 260.5 67t178 184t64.5 268t-64.5 268t-178 184t-260.5 67t-260.5 -67t-178 -184t-64.5 -268
t64.5 -268t178 -184t260.5 -67zM748 1307l298 427h-144l-255 -427h101z" />
    <glyph glyph-name="ocircumflex" unicode="&#xf4;" horiz-adv-x="1396" 
d="M698 -37q-177 0 -316 80t-218.5 218.5t-79.5 315.5t79.5 316t218.5 218.5t316 79.5t316 -79.5t218.5 -218.5t79.5 -316t-79.5 -315.5t-218.5 -218.5t-316 -80zM698 58q147 0 260.5 67t178 184t64.5 268t-64.5 268t-178 184t-260.5 67t-260.5 -67t-178 -184t-64.5 -268
t64.5 -268t178 -184t260.5 -67zM357 1307l296 427h90l296 -427h-91l-214 270q-21 25 -36 25t-36 -25l-214 -270h-91z" />
    <glyph glyph-name="otilde" unicode="&#xf5;" horiz-adv-x="1396" 
d="M698 -37q-177 0 -316 80t-218.5 218.5t-79.5 315.5t79.5 316t218.5 218.5t316 79.5t316 -79.5t218.5 -218.5t79.5 -316t-79.5 -315.5t-218.5 -218.5t-316 -80zM698 58q147 0 260.5 67t178 184t64.5 268t-64.5 268t-178 184t-260.5 67t-260.5 -67t-178 -184t-64.5 -268
t64.5 -268t178 -184t260.5 -67zM862 1331q-57 0 -101.5 25.5t-82.5 59.5t-75 59.5t-78 25.5q-47 0 -79 -36.5t-44 -102.5h-80q16 103 67 165t139 62q57 0 101.5 -25.5t82.5 -59.5t74.5 -59.5t77.5 -25.5q48 0 80 36.5t44 102.5h79q-15 -103 -66.5 -165t-138.5 -62z" />
    <glyph glyph-name="odieresis" unicode="&#xf6;" horiz-adv-x="1396" 
d="M698 -37q-177 0 -316 80t-218.5 218.5t-79.5 315.5t79.5 316t218.5 218.5t316 79.5t316 -79.5t218.5 -218.5t79.5 -316t-79.5 -315.5t-218.5 -218.5t-316 -80zM698 58q147 0 260.5 67t178 184t64.5 268t-64.5 268t-178 184t-260.5 67t-260.5 -67t-178 -184t-64.5 -268
t64.5 -268t178 -184t260.5 -67zM928 1361q-44 0 -70.5 27.5t-26.5 64.5q0 38 26.5 65t70.5 27t70.5 -27t26.5 -65q0 -37 -26.5 -64.5t-70.5 -27.5zM468 1361q-44 0 -70.5 27.5t-26.5 64.5q0 38 26.5 65t70.5 27t70.5 -27t26.5 -65q0 -37 -26.5 -64.5t-70.5 -27.5z" />
    <glyph glyph-name="divide" unicode="&#xf7;" horiz-adv-x="1342" 
d="M671 1074q-39 0 -62.5 24.5t-23.5 57.5q0 32 23.5 56.5t62.5 24.5t63 -24.5t24 -56.5q0 -33 -23 -57.5t-64 -24.5zM157 708v99h1028v-99h-1028zM671 277q-39 0 -62.5 25t-23.5 56q0 33 23.5 57.5t62.5 24.5q41 0 64 -24.5t23 -57.5q0 -31 -24 -56t-63 -25z" />
    <glyph glyph-name="oslash" unicode="&#xf8;" horiz-adv-x="1396" 
d="M150 -100l146 203q-99 83 -155.5 205t-56.5 269q0 177 79.5 316t218.5 218.5t316 79.5q90 0 170.5 -21.5t149.5 -61.5l106 147h123l-147 -204q99 -82 155.5 -204.5t56.5 -269.5q0 -177 -79.5 -316t-218.5 -218.5t-316 -79.5q-90 0 -171 21.5t-149 61.5l-105 -146h-123z
M194 577q0 -122 43 -223t119 -171l607 845q-117 70 -265 70q-147 0 -261 -67t-178.5 -184.5t-64.5 -269.5zM698 56q148 0 261.5 67t178 185t64.5 269q0 122 -43 223t-119 171l-608 -845q118 -70 266 -70z" />
    <glyph glyph-name="ugrave" unicode="&#xf9;" horiz-adv-x="1338" 
d="M608 -37q-215 0 -333.5 129.5t-118.5 364.5v697h107v-694q0 -191 91 -296.5t255 -105.5q244 0 350 192q98 165 98 440v464h107v-1154h-80q-1 46 -3.5 93.5t-5.5 75.5q-3 33 -9 45t-18 12q-8 0 -15 -5t-19 -28q-62 -110 -162 -170t-244 -60zM611 1307l-298 427h144
l255 -427h-101z" />
    <glyph glyph-name="uacute" unicode="&#xfa;" horiz-adv-x="1338" 
d="M608 -37q-215 0 -333.5 129.5t-118.5 364.5v697h107v-694q0 -191 91 -296.5t255 -105.5q244 0 350 192q98 165 98 440v464h107v-1154h-80q-1 46 -3.5 93.5t-5.5 75.5q-3 33 -9 45t-18 12q-8 0 -15 -5t-19 -28q-62 -110 -162 -170t-244 -60zM711 1307l298 427h-144
l-255 -427h101z" />
    <glyph glyph-name="ucircumflex" unicode="&#xfb;" horiz-adv-x="1338" 
d="M608 -37q-215 0 -333.5 129.5t-118.5 364.5v697h107v-694q0 -191 91 -296.5t255 -105.5q244 0 350 192q98 165 98 440v464h107v-1154h-80q-1 46 -3.5 93.5t-5.5 75.5q-3 33 -9 45t-18 12q-8 0 -15 -5t-19 -28q-62 -110 -162 -170t-244 -60zM320 1307l296 427h90l296 -427
h-91l-214 270q-21 25 -36 25t-36 -25l-214 -270h-91z" />
    <glyph glyph-name="udieresis" unicode="&#xfc;" horiz-adv-x="1338" 
d="M608 -37q-215 0 -333.5 129.5t-118.5 364.5v697h107v-694q0 -191 91 -296.5t255 -105.5q244 0 350 192q98 165 98 440v464h107v-1154h-80q-1 46 -3.5 93.5t-5.5 75.5q-3 33 -9 45t-18 12q-8 0 -15 -5t-19 -28q-62 -110 -162 -170t-244 -60zM891 1361q-44 0 -70.5 27.5
t-26.5 64.5q0 38 26.5 65t70.5 27t70.5 -27t26.5 -65q0 -37 -26.5 -64.5t-70.5 -27.5zM431 1361q-44 0 -70.5 27.5t-26.5 64.5q0 38 26.5 65t70.5 27t70.5 -27t26.5 -65q0 -37 -26.5 -64.5t-70.5 -27.5z" />
    <glyph glyph-name="yacute" unicode="&#xfd;" horiz-adv-x="1166" 
d="M314 -494l218 494l-510 1154h121l448 -1030l440 1030h113l-721 -1648h-109zM637 1307l298 427h-144l-255 -427h101z" />
    <glyph glyph-name="thorn" unicode="&#xfe;" horiz-adv-x="1459" 
d="M174 -494v2153h107v-644q0 -50 26 -50q13 0 41 33q74 95 186 144t248 49q169 0 303 -79.5t211.5 -218t77.5 -316.5t-77.5 -316.5t-211.5 -218t-303 -79.5q-281 0 -434 193q-27 33 -41 33q-26 0 -26 -50v-633h-107zM766 58q146 0 258 67t175.5 184.5t63.5 267.5
q0 151 -63.5 268.5t-175.5 184.5t-258 67q-143 0 -254 -66t-174 -183t-63 -271q0 -153 63 -270t174 -183t254 -66z" />
    <glyph glyph-name="ydieresis" unicode="&#xff;" horiz-adv-x="1166" 
d="M314 -494l218 494l-510 1154h121l448 -1030l440 1030h113l-721 -1648h-109zM817 1361q-44 0 -70.5 27.5t-26.5 64.5q0 38 26.5 65t70.5 27t70.5 -27t26.5 -65q0 -37 -26.5 -64.5t-70.5 -27.5zM357 1361q-44 0 -70.5 27.5t-26.5 64.5q0 38 26.5 65t70.5 27t70.5 -27
t26.5 -65q0 -37 -26.5 -64.5t-70.5 -27.5z" />
    <glyph glyph-name="Amacron" unicode="&#x100;" horiz-adv-x="1437" 
d="M19 0l625 1597h153l617 -1597h-125l-182 473h-782l-182 -473h-124zM361 571h710l-354 930zM400 1789v93h636v-93h-636z" />
    <glyph glyph-name="amacron" unicode="&#x101;" horiz-adv-x="1232" 
d="M522 -37q-129 0 -226.5 44.5t-151.5 125t-54 187.5q0 160 109.5 243t335.5 99q159 11 272 24t161 30v2q0 178 -88 278.5t-266 100.5q-148 0 -248.5 -72.5t-129.5 -196.5h-113q23 112 92 193.5t171.5 125.5t224.5 44q230 0 347 -126t117 -345v-720h-80q-2 55 -5 105t-6 72
q-5 39 -23 39q-8 0 -13.5 -5.5t-15.5 -24.5q-59 -113 -163 -168t-247 -55zM200 321q0 -122 91 -194t239 -72q73 0 145.5 20t133.5 72t99 148q24 57 42 136.5t18 177.5v16q-49 -18 -158 -30.5t-274 -25.5q-178 -14 -257 -72.5t-79 -175.5zM293 1393v93h636v-93h-636z" />
    <glyph glyph-name="Abreve" unicode="&#x102;" horiz-adv-x="1437" 
d="M19 0l625 1597h153l617 -1597h-125l-182 473h-782l-182 -473h-124zM361 571h710l-354 930zM718 1731q-142 0 -233 77t-108 210h82q51 -197 259 -197t259 197h82q-16 -133 -107.5 -210t-233.5 -77z" />
    <glyph glyph-name="abreve" unicode="&#x103;" horiz-adv-x="1232" 
d="M522 -37q-129 0 -226.5 44.5t-151.5 125t-54 187.5q0 160 109.5 243t335.5 99q159 11 272 24t161 30v2q0 178 -88 278.5t-266 100.5q-148 0 -248.5 -72.5t-129.5 -196.5h-113q23 112 92 193.5t171.5 125.5t224.5 44q230 0 347 -126t117 -345v-720h-80q-2 55 -5 105t-6 72
q-5 39 -23 39q-8 0 -13.5 -5.5t-15.5 -24.5q-59 -113 -163 -168t-247 -55zM200 321q0 -122 91 -194t239 -72q73 0 145.5 20t133.5 72t99 148q24 57 42 136.5t18 177.5v16q-49 -18 -158 -30.5t-274 -25.5q-178 -14 -257 -72.5t-79 -175.5zM611 1328q-144 0 -237 81t-110 220
h80q25 -100 94.5 -156t172.5 -56t172.5 56t94.5 156h80q-16 -139 -109.5 -220t-237.5 -81z" />
    <glyph glyph-name="Aogonek" unicode="&#x104;" horiz-adv-x="1437" 
d="M19 0l625 1597h153l617 -1597h-125l-182 473h-782l-182 -473h-124zM361 571h710l-354 930zM1347 -483q-100 0 -166.5 50.5t-66.5 144.5q0 78 56 157t183 165l61 -34q-106 -93 -148.5 -154t-42.5 -122q0 -55 37 -84.5t98 -29.5q67 0 129 28v-92q-68 -29 -140 -29z" />
    <glyph glyph-name="aogonek" unicode="&#x105;" horiz-adv-x="1232" 
d="M522 -37q-129 0 -226.5 44.5t-151.5 125t-54 187.5q0 160 109.5 243t335.5 99q159 11 272 24t161 30v2q0 178 -88 278.5t-266 100.5q-148 0 -248.5 -72.5t-129.5 -196.5h-113q23 112 92 193.5t171.5 125.5t224.5 44q230 0 347 -126t117 -345v-720h-80q-2 55 -5 105t-6 72
q-5 39 -23 39q-8 0 -13.5 -5.5t-15.5 -24.5q-59 -113 -163 -168t-247 -55zM200 321q0 -122 91 -194t239 -72q73 0 145.5 20t133.5 72t99 148q24 57 42 136.5t18 177.5v16q-49 -18 -158 -30.5t-274 -25.5q-178 -14 -257 -72.5t-79 -175.5zM1009 -478q-98 0 -159.5 50.5
t-61.5 140.5q0 76 51.5 150t169.5 171l66 -34q-107 -94 -150.5 -155.5t-43.5 -122.5q0 -55 36.5 -86t100.5 -31q77 0 151 44l1 -81q-74 -46 -161 -46z" />
    <glyph glyph-name="Cacute" unicode="&#x106;" horiz-adv-x="1772" 
d="M923 -38q-181 0 -332 62t-262 174.5t-171.5 265.5t-60.5 335t60.5 335t171.5 265.5t262 174.5t332 62q210 0 372.5 -77.5t266.5 -217t137 -327.5h-123q-47 240 -216.5 381t-435.5 141q-209 0 -368.5 -93t-248.5 -259t-89 -385q0 -218 89 -384.5t248.5 -259.5t368.5 -93
q266 0 435.5 141t216.5 381h123q-33 -187 -137 -327t-266.5 -217.5t-372.5 -77.5zM972 1716l421 341h-173l-377 -341h129z" />
    <glyph glyph-name="cacute" unicode="&#x107;" horiz-adv-x="1323" 
d="M689 -36q-176 0 -312.5 78.5t-214 216.5t-77.5 318q0 181 77.5 319t214 216.5t312.5 78.5q230 0 380 -124t186 -329h-113q-31 163 -150 260.5t-301 97.5q-146 0 -258 -66t-174.5 -183t-62.5 -270q0 -152 62.5 -269.5t174.5 -183.5t258 -66q182 0 301 98t150 261h113
q-36 -205 -186 -329t-380 -124zM739 1307l298 427h-144l-255 -427h101z" />
    <glyph glyph-name="Ccircumflex" unicode="&#x108;" horiz-adv-x="1772" 
d="M923 -38q-181 0 -332 62t-262 174.5t-171.5 265.5t-60.5 335t60.5 335t171.5 265.5t262 174.5t332 62q210 0 372.5 -77.5t266.5 -217t137 -327.5h-123q-47 240 -216.5 381t-435.5 141q-209 0 -368.5 -93t-248.5 -259t-89 -385q0 -218 89 -384.5t248.5 -259.5t368.5 -93
q266 0 435.5 141t216.5 381h123q-33 -187 -137 -327t-266.5 -217.5t-372.5 -77.5zM558 1716l294 351h111l294 -351h-104l-224 238q-10 10 -21 10t-21 -10l-225 -238h-104z" />
    <glyph glyph-name="ccircumflex" unicode="&#x109;" horiz-adv-x="1323" 
d="M689 -36q-176 0 -312.5 78.5t-214 216.5t-77.5 318q0 181 77.5 319t214 216.5t312.5 78.5q230 0 380 -124t186 -329h-113q-31 163 -150 260.5t-301 97.5q-146 0 -258 -66t-174.5 -183t-62.5 -270q0 -152 62.5 -269.5t174.5 -183.5t258 -66q182 0 301 98t150 261h113
q-36 -205 -186 -329t-380 -124zM348 1307l296 427h90l296 -427h-91l-214 270q-21 25 -36 25t-36 -25l-214 -270h-91z" />
    <glyph glyph-name="Cdotaccent" unicode="&#x10a;" horiz-adv-x="1772" 
d="M923 -38q-181 0 -332 62t-262 174.5t-171.5 265.5t-60.5 335t60.5 335t171.5 265.5t262 174.5t332 62q210 0 372.5 -77.5t266.5 -217t137 -327.5h-123q-47 240 -216.5 381t-435.5 141q-209 0 -368.5 -93t-248.5 -259t-89 -385q0 -218 89 -384.5t248.5 -259.5t368.5 -93
q266 0 435.5 141t216.5 381h123q-33 -187 -137 -327t-266.5 -217.5t-372.5 -77.5zM907 1775q-44 0 -70.5 27.5t-26.5 64.5t26.5 64.5t70.5 27.5t70.5 -27.5t26.5 -64.5t-26.5 -64.5t-70.5 -27.5z" />
    <glyph glyph-name="cdotaccent" unicode="&#x10b;" horiz-adv-x="1323" 
d="M689 -36q-176 0 -312.5 78.5t-214 216.5t-77.5 318q0 181 77.5 319t214 216.5t312.5 78.5q230 0 380 -124t186 -329h-113q-31 163 -150 260.5t-301 97.5q-146 0 -258 -66t-174.5 -183t-62.5 -270q0 -152 62.5 -269.5t174.5 -183.5t258 -66q182 0 301 98t150 261h113
q-36 -205 -186 -329t-380 -124zM688 1365q-46 0 -72.5 28t-26.5 65q0 38 26.5 66.5t72.5 28.5t72.5 -28.5t26.5 -66.5q0 -37 -26.5 -65t-72.5 -28z" />
    <glyph glyph-name="Ccaron" unicode="&#x10c;" horiz-adv-x="1772" 
d="M923 -38q-181 0 -332 62t-262 174.5t-171.5 265.5t-60.5 335t60.5 335t171.5 265.5t262 174.5t332 62q210 0 372.5 -77.5t266.5 -217t137 -327.5h-123q-47 240 -216.5 381t-435.5 141q-209 0 -368.5 -93t-248.5 -259t-89 -385q0 -218 89 -384.5t248.5 -259.5t368.5 -93
q266 0 435.5 141t216.5 381h123q-33 -187 -137 -327t-266.5 -217.5t-372.5 -77.5zM557 2067l294 -351h111l294 351h-104l-224 -238q-10 -10 -21 -10t-21 10l-225 238h-104z" />
    <glyph glyph-name="ccaron" unicode="&#x10d;" horiz-adv-x="1323" 
d="M689 -36q-176 0 -312.5 78.5t-214 216.5t-77.5 318q0 181 77.5 319t214 216.5t312.5 78.5q230 0 380 -124t186 -329h-113q-31 163 -150 260.5t-301 97.5q-146 0 -258 -66t-174.5 -183t-62.5 -270q0 -152 62.5 -269.5t174.5 -183.5t258 -66q182 0 301 98t150 261h113
q-36 -205 -186 -329t-380 -124zM348 1734l296 -427h90l296 427h-91l-214 -270q-21 -25 -36 -25t-36 25l-214 270h-91z" />
    <glyph glyph-name="Dcaron" unicode="&#x10e;" horiz-adv-x="1673" 
d="M204 0v1597h551q248 0 432 -100.5t285.5 -280t101.5 -417.5t-101.5 -418t-285.5 -280.5t-432 -100.5h-551zM321 99h430q216 0 373.5 87t243 244.5t85.5 368.5t-85.5 368t-243 244t-373.5 87h-430v-1399zM434 2067l294 -351h111l294 351h-104l-224 -238q-10 -10 -21 -10
t-21 10l-225 238h-104z" />
    <glyph glyph-name="dcaron" unicode="&#x10f;" horiz-adv-x="1516" 
d="M678 -37q-169 0 -303.5 79.5t-212 218t-77.5 316.5q0 177 77 316t212.5 218.5t308.5 79.5q143 0 258.5 -56t190.5 -158q9 -13 14 -16.5t12 -3.5q20 0 20 38v664h107v-1659h-79q-1 29 -3.5 80.5t-6.5 87.5q-3 27 -8.5 37t-17.5 10q-16 0 -40 -33q-76 -104 -190 -161.5
t-262 -57.5zM693 58q144 0 254.5 66t173 182.5t62.5 268.5q0 154 -62.5 271.5t-173 183.5t-255.5 66q-144 0 -256 -67t-176 -184t-64 -268q0 -150 64 -267.5t176 -184.5t257 -67zM1419 1124l47 535h120l-83 -535h-84z" />
    <glyph glyph-name="Dcroat" unicode="&#x110;" horiz-adv-x="1734" 
d="M266 0v752h-265v96h265v749h550q248 0 432 -100.5t285.5 -280t101.5 -417.5t-101.5 -418t-285.5 -280.5t-432 -100.5h-550zM382 99h430q216 0 373.5 87t243 244.5t85.5 368.5t-85.5 368t-243 244t-373.5 87h-430v-650h535v-96h-535v-653z" />
    <glyph glyph-name="dcroat" unicode="&#x111;" horiz-adv-x="1459" 
d="M678 -37q-169 0 -303.5 79.5t-212 218t-77.5 316.5q0 177 77 316t212.5 218.5t308.5 79.5q143 0 258.5 -56t190.5 -158q9 -13 14 -16.5t12 -3.5q20 0 20 38v365h-446v93h446v206h107v-206h175v-93h-175v-1360h-79q-1 29 -3.5 80.5t-6.5 87.5q-3 27 -8.5 37t-17.5 10
q-16 0 -40 -33q-76 -104 -190 -161.5t-262 -57.5zM693 58q144 0 254.5 66t173 182.5t62.5 268.5q0 154 -62.5 271.5t-173 183.5t-255.5 66q-144 0 -256 -67t-176 -184t-64 -268q0 -150 64 -267.5t176 -184.5t257 -67z" />
    <glyph glyph-name="Emacron" unicode="&#x112;" horiz-adv-x="1279" 
d="M204 0v1597h972v-99h-855v-636h748v-99h-748v-664h898v-99h-1015zM380 1789v93h636v-93h-636z" />
    <glyph glyph-name="emacron" unicode="&#x113;" horiz-adv-x="1321" 
d="M679 -36q-178 0 -311 77t-207.5 215.5t-74.5 322.5q0 181 77.5 318.5t210 215.5t298.5 78q171 0 298 -73.5t196.5 -204t69.5 -300.5q0 -13 -1 -34t-2 -29h-1036q3 -147 64 -257.5t168 -172.5t250 -62q163 0 278 79.5t149 209.5h113q-26 -117 -101 -203t-187.5 -133
t-251.5 -47zM674 1097q-132 0 -235.5 -56.5t-166 -158.5t-73.5 -239h931q-2 135 -59.5 237t-159.5 159.5t-237 57.5zM355 1393v93h636v-93h-636z" />
    <glyph glyph-name="Ebreve" unicode="&#x114;" horiz-adv-x="1279" 
d="M204 0v1597h972v-99h-855v-636h748v-99h-748v-664h898v-99h-1015zM698 1731q-142 0 -233 77t-108 210h82q51 -197 259 -197t259 197h82q-16 -133 -107.5 -210t-233.5 -77z" />
    <glyph glyph-name="ebreve" unicode="&#x115;" horiz-adv-x="1321" 
d="M679 -36q-178 0 -311 77t-207.5 215.5t-74.5 322.5q0 181 77.5 318.5t210 215.5t298.5 78q171 0 298 -73.5t196.5 -204t69.5 -300.5q0 -13 -1 -34t-2 -29h-1036q3 -147 64 -257.5t168 -172.5t250 -62q163 0 278 79.5t149 209.5h113q-26 -117 -101 -203t-187.5 -133
t-251.5 -47zM674 1097q-132 0 -235.5 -56.5t-166 -158.5t-73.5 -239h931q-2 135 -59.5 237t-159.5 159.5t-237 57.5zM673 1328q-144 0 -237 81t-110 220h80q25 -100 94.5 -156t172.5 -56t172.5 56t94.5 156h80q-16 -139 -109.5 -220t-237.5 -81z" />
    <glyph glyph-name="Edotaccent" unicode="&#x116;" horiz-adv-x="1279" 
d="M204 0v1597h972v-99h-855v-636h748v-99h-748v-664h898v-99h-1015zM698 1775q-44 0 -70.5 27.5t-26.5 64.5t26.5 64.5t70.5 27.5t70.5 -27.5t26.5 -64.5t-26.5 -64.5t-70.5 -27.5z" />
    <glyph glyph-name="edotaccent" unicode="&#x117;" horiz-adv-x="1321" 
d="M679 -36q-178 0 -311 77t-207.5 215.5t-74.5 322.5q0 181 77.5 318.5t210 215.5t298.5 78q171 0 298 -73.5t196.5 -204t69.5 -300.5q0 -13 -1 -34t-2 -29h-1036q3 -147 64 -257.5t168 -172.5t250 -62q163 0 278 79.5t149 209.5h113q-26 -117 -101 -203t-187.5 -133
t-251.5 -47zM674 1097q-132 0 -235.5 -56.5t-166 -158.5t-73.5 -239h931q-2 135 -59.5 237t-159.5 159.5t-237 57.5zM672 1365q-46 0 -72.5 28t-26.5 65q0 38 26.5 66.5t72.5 28.5t72.5 -28.5t26.5 -66.5q0 -37 -26.5 -65t-72.5 -28z" />
    <glyph glyph-name="Eogonek" unicode="&#x118;" horiz-adv-x="1279" 
d="M204 0v1597h972v-99h-855v-636h748v-99h-748v-664h898v-99h-1015zM1152 -483q-100 0 -166.5 50.5t-66.5 144.5q0 78 56 157t183 165l61 -34q-106 -93 -148.5 -154t-42.5 -122q0 -55 37 -84.5t98 -29.5q67 0 129 28v-92q-68 -29 -140 -29z" />
    <glyph glyph-name="eogonek" unicode="&#x119;" horiz-adv-x="1321" 
d="M679 -36q-178 0 -311 77t-207.5 215.5t-74.5 322.5q0 181 77.5 318.5t210 215.5t298.5 78q171 0 298 -73.5t196.5 -204t69.5 -300.5q0 -13 -1 -34t-2 -29h-1036q3 -147 64 -257.5t168 -172.5t250 -62q163 0 278 79.5t149 209.5h113q-26 -117 -101 -203t-187.5 -133
t-251.5 -47zM674 1097q-132 0 -235.5 -56.5t-166 -158.5t-73.5 -239h931q-2 135 -59.5 237t-159.5 159.5t-237 57.5zM919 -468q-100 0 -162.5 52t-62.5 146q0 95 66.5 182t216.5 186l49 -36q-235 -162 -235 -316q0 -62 37 -94.5t100 -32.5q77 0 149 33l1 -82
q-74 -38 -159 -38z" />
    <glyph glyph-name="Ecaron" unicode="&#x11a;" horiz-adv-x="1279" 
d="M204 0v1597h972v-99h-855v-636h748v-99h-748v-664h898v-99h-1015zM348 2067l294 -351h111l294 351h-104l-224 -238q-10 -10 -21 -10t-21 10l-225 238h-104z" />
    <glyph glyph-name="ecaron" unicode="&#x11b;" horiz-adv-x="1321" 
d="M679 -36q-178 0 -311 77t-207.5 215.5t-74.5 322.5q0 181 77.5 318.5t210 215.5t298.5 78q171 0 298 -73.5t196.5 -204t69.5 -300.5q0 -13 -1 -34t-2 -29h-1036q3 -147 64 -257.5t168 -172.5t250 -62q163 0 278 79.5t149 209.5h113q-26 -117 -101 -203t-187.5 -133
t-251.5 -47zM674 1097q-132 0 -235.5 -56.5t-166 -158.5t-73.5 -239h931q-2 135 -59.5 237t-159.5 159.5t-237 57.5zM332 1734l296 -427h90l296 427h-91l-214 -270q-21 -25 -36 -25t-36 25l-214 270h-91z" />
    <glyph glyph-name="Gcircumflex" unicode="&#x11c;" horiz-adv-x="1814" 
d="M909 -38q-173 0 -321 59t-258 169.5t-171.5 264.5t-61.5 343q0 186 62 339.5t174 265.5t264.5 172.5t333.5 60.5q193 0 350 -66.5t263.5 -190.5t149.5 -298h-126q-58 214 -224 334t-411 120q-209 0 -370.5 -92t-253 -257t-91.5 -385q0 -217 87.5 -383.5t246 -261
t370.5 -94.5t355 97.5t217 273.5q34 71 54.5 159.5t27.5 180.5h110v-773h-82q-1 77 -6.5 158t-10.5 112q-4 30 -10 41t-19 11q-10 0 -17.5 -6t-21.5 -28q-92 -149 -243.5 -237.5t-366.5 -88.5zM568 1716l294 351h111l294 -351h-104l-224 238q-10 10 -21 10t-21 -10
l-225 -238h-104z" />
    <glyph glyph-name="gcircumflex" unicode="&#x11d;" horiz-adv-x="1423" 
d="M701 -514q-149 0 -267.5 52t-196.5 145t-108 215h115q37 -144 160.5 -231.5t295.5 -87.5q223 0 333.5 121t110.5 329v169q0 36 -20 36q-13 0 -31 -25q-73 -96 -183 -147t-243 -51q-168 0 -298.5 76.5t-205.5 210t-75 303.5q0 171 75 304.5t204.5 209.5t293.5 76
q145 0 252.5 -54.5t182.5 -152.5q25 -32 41 -32q20 0 24 46q4 34 6.5 82.5t3.5 73.5h80v-1129q0 -244 -142 -391.5t-408 -147.5zM676 106q140 0 246.5 63t167 175t60.5 259q0 145 -60.5 256t-167 174t-245.5 63t-247 -64t-169.5 -175.5t-61.5 -255.5q0 -143 61.5 -255
t169 -176t246.5 -64zM367 1307l296 427h90l296 -427h-91l-214 270q-21 25 -36 25t-36 -25l-214 -270h-91z" />
    <glyph glyph-name="Gbreve" unicode="&#x11e;" horiz-adv-x="1814" 
d="M909 -38q-173 0 -321 59t-258 169.5t-171.5 264.5t-61.5 343q0 186 62 339.5t174 265.5t264.5 172.5t333.5 60.5q193 0 350 -66.5t263.5 -190.5t149.5 -298h-126q-58 214 -224 334t-411 120q-209 0 -370.5 -92t-253 -257t-91.5 -385q0 -217 87.5 -383.5t246 -261
t370.5 -94.5t355 97.5t217 273.5q34 71 54.5 159.5t27.5 180.5h110v-773h-82q-1 77 -6.5 158t-10.5 112q-4 30 -10 41t-19 11q-10 0 -17.5 -6t-21.5 -28q-92 -149 -243.5 -237.5t-366.5 -88.5zM917 1731q-142 0 -233 77t-108 210h82q51 -197 259 -197t259 197h82
q-16 -133 -107.5 -210t-233.5 -77z" />
    <glyph glyph-name="gbreve" unicode="&#x11f;" horiz-adv-x="1423" 
d="M701 -514q-149 0 -267.5 52t-196.5 145t-108 215h115q37 -144 160.5 -231.5t295.5 -87.5q223 0 333.5 121t110.5 329v169q0 36 -20 36q-13 0 -31 -25q-73 -96 -183 -147t-243 -51q-168 0 -298.5 76.5t-205.5 210t-75 303.5q0 171 75 304.5t204.5 209.5t293.5 76
q145 0 252.5 -54.5t182.5 -152.5q25 -32 41 -32q20 0 24 46q4 34 6.5 82.5t3.5 73.5h80v-1129q0 -244 -142 -391.5t-408 -147.5zM676 106q140 0 246.5 63t167 175t60.5 259q0 145 -60.5 256t-167 174t-245.5 63t-247 -64t-169.5 -175.5t-61.5 -255.5q0 -143 61.5 -255
t169 -176t246.5 -64zM708 1328q-144 0 -237 81t-110 220h80q25 -100 94.5 -156t172.5 -56t172.5 56t94.5 156h80q-16 -139 -109.5 -220t-237.5 -81z" />
    <glyph glyph-name="Gdotaccent" unicode="&#x120;" horiz-adv-x="1814" 
d="M909 -38q-173 0 -321 59t-258 169.5t-171.5 264.5t-61.5 343q0 186 62 339.5t174 265.5t264.5 172.5t333.5 60.5q193 0 350 -66.5t263.5 -190.5t149.5 -298h-126q-58 214 -224 334t-411 120q-209 0 -370.5 -92t-253 -257t-91.5 -385q0 -217 87.5 -383.5t246 -261
t370.5 -94.5t355 97.5t217 273.5q34 71 54.5 159.5t27.5 180.5h110v-773h-82q-1 77 -6.5 158t-10.5 112q-4 30 -10 41t-19 11q-10 0 -17.5 -6t-21.5 -28q-92 -149 -243.5 -237.5t-366.5 -88.5zM917 1775q-44 0 -70.5 27.5t-26.5 64.5t26.5 64.5t70.5 27.5t70.5 -27.5
t26.5 -64.5t-26.5 -64.5t-70.5 -27.5z" />
    <glyph glyph-name="gdotaccent" unicode="&#x121;" horiz-adv-x="1423" 
d="M701 -514q-149 0 -267.5 52t-196.5 145t-108 215h115q37 -144 160.5 -231.5t295.5 -87.5q223 0 333.5 121t110.5 329v169q0 36 -20 36q-13 0 -31 -25q-73 -96 -183 -147t-243 -51q-168 0 -298.5 76.5t-205.5 210t-75 303.5q0 171 75 304.5t204.5 209.5t293.5 76
q145 0 252.5 -54.5t182.5 -152.5q25 -32 41 -32q20 0 24 46q4 34 6.5 82.5t3.5 73.5h80v-1129q0 -244 -142 -391.5t-408 -147.5zM676 106q140 0 246.5 63t167 175t60.5 259q0 145 -60.5 256t-167 174t-245.5 63t-247 -64t-169.5 -175.5t-61.5 -255.5q0 -143 61.5 -255
t169 -176t246.5 -64zM707 1365q-46 0 -72.5 28t-26.5 65q0 38 26.5 66.5t72.5 28.5t72.5 -28.5t26.5 -66.5q0 -37 -26.5 -65t-72.5 -28z" />
    <glyph glyph-name="uni0122" unicode="&#x122;" horiz-adv-x="1814" 
d="M909 -38q-173 0 -321 59t-258 169.5t-171.5 264.5t-61.5 343q0 186 62 339.5t174 265.5t264.5 172.5t333.5 60.5q193 0 350 -66.5t263.5 -190.5t149.5 -298h-126q-58 214 -224 334t-411 120q-209 0 -370.5 -92t-253 -257t-91.5 -385q0 -217 87.5 -383.5t246 -261
t370.5 -94.5t355 97.5t217 273.5q34 71 54.5 159.5t27.5 180.5h110v-773h-82q-1 77 -6.5 158t-10.5 112q-4 30 -10 41t-19 11q-10 0 -17.5 -6t-21.5 -28q-92 -149 -243.5 -237.5t-366.5 -88.5zM865 -532l95 409h118l-127 -409h-86z" />
    <glyph glyph-name="uni0123" unicode="&#x123;" horiz-adv-x="1423" 
d="M701 -514q-149 0 -267.5 52t-196.5 145t-108 215h115q37 -144 160.5 -231.5t295.5 -87.5q223 0 333.5 121t110.5 329v169q0 36 -20 36q-13 0 -31 -25q-73 -96 -183 -147t-243 -51q-168 0 -298.5 76.5t-205.5 210t-75 303.5q0 171 75 304.5t204.5 209.5t293.5 76
q145 0 252.5 -54.5t182.5 -152.5q25 -32 41 -32q20 0 24 46q4 34 6.5 82.5t3.5 73.5h80v-1129q0 -244 -142 -391.5t-408 -147.5zM676 106q140 0 246.5 63t167 175t60.5 259q0 145 -60.5 256t-167 174t-245.5 63t-247 -64t-169.5 -175.5t-61.5 -255.5q0 -143 61.5 -255
t169 -176t246.5 -64zM870 1756l-105 -449h-118l140 449h83z" />
    <glyph glyph-name="Hcircumflex" unicode="&#x124;" horiz-adv-x="1603" 
d="M204 0v1597h117v-739h961v739h116v-1597h-116v759h-961v-759h-117zM453 1716l294 351h111l294 -351h-104l-224 238q-10 10 -21 10t-21 -10l-225 -238h-104z" />
    <glyph glyph-name="hcircumflex" unicode="&#x125;" horiz-adv-x="1346" 
d="M174 0v1659h107v-696q0 -38 19 -38q8 0 14.5 6t20.5 30q62 104 162 167t251 63q207 0 324 -129t117 -364v-698h-107v695q0 192 -90.5 296.5t-248.5 104.5q-120 0 -212 -50.5t-151 -158.5q-48 -82 -73.5 -192t-25.5 -265v-430h-107zM-121 1778l294 351h111l294 -351h-104
l-224 238q-10 10 -21 10t-21 -10l-225 -238h-104z" />
    <glyph glyph-name="Hbar" unicode="&#x126;" horiz-adv-x="1684" 
d="M245 0v1179h-234v97h234v321h116v-321h962v321h116v-321h234v-97h-234v-1179h-116v759h-962v-759h-116zM361 858h962v321h-962v-321z" />
    <glyph glyph-name="hbar" unicode="&#x127;" horiz-adv-x="1346" 
d="M174 0v1360h-200v93h200v206h107v-206h420v-93h-420v-397q0 -38 19 -38q8 0 14.5 6t20.5 30q62 104 162 167t251 63q207 0 324 -129t117 -364v-698h-107v695q0 192 -90.5 296.5t-248.5 104.5q-120 0 -212 -50.5t-151 -158.5q-48 -82 -73.5 -192t-25.5 -265v-430h-107z
" />
    <glyph glyph-name="Itilde" unicode="&#x128;" horiz-adv-x="525" 
d="M204 0v1597h117v-1597h-117zM430 1750q-57 0 -101.5 25.5t-82.5 59.5t-75 59.5t-78 25.5q-47 0 -79 -36.5t-44 -102.5h-80q16 103 67 165t139 62q57 0 101.5 -25.5t82.5 -59.5t74.5 -59.5t77.5 -25.5q48 0 80 36.5t44 102.5h79q-15 -103 -66.5 -165t-138.5 -62z" />
    <glyph glyph-name="itilde" unicode="&#x129;" horiz-adv-x="495" 
d="M209 0v1154h106v-1154h-106zM401 1368q-49 0 -86.5 22.5t-68.5 52.5t-60 52.5t-62 22.5q-77 0 -93 -125h-81q8 93 53 153t121 60q50 0 87 -22.5t67.5 -52.5t59.5 -52.5t62 -22.5q38 0 62 33t32 91h81q-9 -92 -54 -152t-120 -60z" />
    <glyph glyph-name="Imacron" unicode="&#x12a;" horiz-adv-x="525" 
d="M204 0v1597h117v-1597h-117zM-55 1789v93h636v-93h-636z" />
    <glyph glyph-name="imacron" unicode="&#x12b;" horiz-adv-x="465" 
d="M179 0v1154h106v-1154h-106zM20 1393v93h424v-93h-424z" />
    <glyph glyph-name="Ibreve" unicode="&#x12c;" horiz-adv-x="525" 
d="M204 0v1597h117v-1597h-117zM263 1731q-142 0 -233 77t-108 210h82q51 -197 259 -197t259 197h82q-16 -133 -107.5 -210t-233.5 -77z" />
    <glyph glyph-name="ibreve" unicode="&#x12d;" horiz-adv-x="495" 
d="M209 0v1154h106v-1154h-106zM261 1328q-130 0 -201 83.5t-73 217.5h73q9 -99 58.5 -157t142.5 -58t142.5 58t58.5 157h73q-1 -134 -72.5 -217.5t-201.5 -83.5z" />
    <glyph glyph-name="Iogonek" unicode="&#x12e;" horiz-adv-x="525" 
d="M204 0v1597h117v-1597h-117zM254 -483q-100 0 -166.5 50.5t-66.5 144.5q0 78 56 157t183 165l61 -34q-106 -93 -148.5 -154t-42.5 -122q0 -55 37 -84.5t98 -29.5q67 0 129 28v-92q-68 -29 -140 -29z" />
    <glyph glyph-name="iogonek" unicode="&#x12f;" horiz-adv-x="465" 
d="M179 0v1154h106v-1154h-106zM231 1365q-46 0 -72.5 28t-26.5 65q0 38 26.5 66.5t72.5 28.5t72.5 -28.5t26.5 -66.5q0 -37 -26.5 -65t-72.5 -28zM219 -478q-98 0 -159.5 50.5t-61.5 140.5q0 76 51.5 150t169.5 171l66 -34q-107 -94 -150.5 -155.5t-43.5 -122.5
q0 -55 36.5 -86t100.5 -31q77 0 151 44l1 -81q-74 -46 -161 -46z" />
    <glyph glyph-name="Idotaccent" unicode="&#x130;" horiz-adv-x="525" 
d="M204 0v1597h117v-1597h-117zM263 1775q-44 0 -70.5 27.5t-26.5 64.5t26.5 64.5t70.5 27.5t70.5 -27.5t26.5 -64.5t-26.5 -64.5t-70.5 -27.5z" />
    <glyph glyph-name="dotlessi" unicode="&#x131;" horiz-adv-x="465" 
d="M179 0v1154h106v-1154h-106z" />
    <glyph glyph-name="IJ" unicode="&#x132;" horiz-adv-x="1503" 
d="M186 673v924h116v-924h-116zM781 -38q-241 0 -400 141t-196 393h117q35 -211 161.5 -323.5t317.5 -112.5q419 0 419 503v1034h117v-1037q0 -288 -138.5 -443t-397.5 -155z" />
    <glyph glyph-name="ij" unicode="&#x133;" horiz-adv-x="930" 
d="M233 1402q-42 0 -70 26.5t-28 66.5t28 66t70 26t69.5 -26t27.5 -66t-27.5 -66.5t-69.5 -26.5zM179 0v1154h107v-1154h-107zM698 1402q-42 0 -70 26.5t-28 66.5t28 66t70 26t69.5 -26t27.5 -66t-27.5 -66.5t-69.5 -26.5zM644 -487v1641h107v-1641h-107z" />
    <glyph glyph-name="Jcircumflex" unicode="&#x134;" horiz-adv-x="1356" 
d="M634 -38q-241 0 -400 141t-196 393h116q35 -211 161.5 -323.5t318.5 -112.5q419 0 419 503v1034h116v-1037q0 -288 -138 -443t-397 -155zM761 1716l294 351h111l294 -351h-104l-224 238q-10 10 -21 10t-21 -10l-225 -238h-104z" />
    <glyph glyph-name="jcircumflex" unicode="&#x135;" horiz-adv-x="495" 
d="M209 -487v1641h107v-1641h-107zM216 1734l-245 -427h84l172 266q20 28 35 28t35 -28l172 -266h84l-245 427h-92z" />
    <glyph glyph-name="uni0136" unicode="&#x136;" horiz-adv-x="1320" 
d="M204 0v1597h117v-782l844 782h145l-846 -783l878 -814h-162l-859 797v-797h-117zM567 -532l95 409h118l-127 -409h-86z" />
    <glyph glyph-name="uni0137" unicode="&#x137;" horiz-adv-x="1076" 
d="M174 0v1659h107v-1074l643 569h149l-649 -570l665 -584h-159l-649 571v-571h-107zM427 -602l105 449h118l-140 -449h-83z" />
    <glyph glyph-name="Lacute" unicode="&#x139;" horiz-adv-x="1179" 
d="M204 0v1597h117v-1498h832v-99h-949zM328 1716l421 341h-173l-377 -341h129z" />
    <glyph glyph-name="lacute" unicode="&#x13a;" horiz-adv-x="465" 
d="M179 0v1659h107v-1659h-107zM181 1778l258 341h141l-290 -341h-109z" />
    <glyph glyph-name="uni013B" unicode="&#x13b;" horiz-adv-x="1179" 
d="M204 0v1597h117v-1498h832v-99h-949zM559 -532l95 409h118l-127 -409h-86z" />
    <glyph glyph-name="uni013C" unicode="&#x13c;" horiz-adv-x="465" 
d="M179 0v1659h107v-1659h-107zM70 -602l105 449h118l-140 -449h-83z" />
    <glyph glyph-name="Lcaron" unicode="&#x13d;" horiz-adv-x="1179" 
d="M204 0v1597h117v-1498h832v-99h-949zM637 1062l47 535h120l-83 -535h-84z" />
    <glyph glyph-name="lcaron" unicode="&#x13e;" horiz-adv-x="487" 
d="M179 0v1659h107v-1659h-107zM420 1124l47 535h120l-83 -535h-84z" />
    <glyph glyph-name="Ldot" unicode="&#x13f;" horiz-adv-x="1182" 
d="M204 0v1597h117v-1498h832v-99h-949zM806 728q-49 0 -77 29.5t-28 69.5t28 70.5t77 30.5t77 -30.5t28 -70.5t-28 -69.5t-77 -29.5z" />
    <glyph glyph-name="ldot" unicode="&#x140;" horiz-adv-x="628" 
d="M179 0v1659h107v-1659h-107zM534 731q-49 0 -77 29.5t-28 69.5t28 70t77 30t77 -30t28 -70t-28 -69.5t-77 -29.5z" />
    <glyph glyph-name="Lslash" unicode="&#x141;" horiz-adv-x="1276" 
d="M300 0v541l-239 -138v113l239 138v943h116v-876l517 298v-114l-517 -298v-508h833v-99h-949z" />
    <glyph glyph-name="lslash" unicode="&#x142;" horiz-adv-x="762" 
d="M345 0v769l-296 -177v107l296 176v784h107v-720l297 177v-106l-297 -177v-833h-107z" />
    <glyph glyph-name="Nacute" unicode="&#x143;" horiz-adv-x="1645" 
d="M204 0v1597h133l989 -1431v1431h114v-1597h-133l-988 1429v-1429h-115zM888 1716l421 341h-173l-377 -341h129z" />
    <glyph glyph-name="nacute" unicode="&#x144;" horiz-adv-x="1346" 
d="M174 0v1154h80q1 -50 3.5 -103.5t5.5 -81.5q3 -33 8.5 -45t18.5 -12q9 0 15 5t18 27q64 113 167.5 180t257.5 67q207 0 324 -129t117 -364v-698h-107v695q0 192 -90.5 296.5t-248.5 104.5q-120 0 -212 -50.5t-151 -158.5q-48 -82 -73.5 -192t-25.5 -265v-430h-107z
M731 1307l298 427h-144l-255 -427h101z" />
    <glyph glyph-name="uni0145" unicode="&#x145;" horiz-adv-x="1645" 
d="M204 0v1597h133l989 -1431v1431h114v-1597h-133l-988 1429v-1429h-115zM667 -532l95 409h118l-127 -409h-86z" />
    <glyph glyph-name="uni0146" unicode="&#x146;" horiz-adv-x="1346" 
d="M174 0v1154h80q1 -50 3.5 -103.5t5.5 -81.5q3 -33 8.5 -45t18.5 -12q9 0 15 5t18 27q64 113 167.5 180t257.5 67q207 0 324 -129t117 -364v-698h-107v695q0 192 -90.5 296.5t-248.5 104.5q-120 0 -212 -50.5t-151 -158.5q-48 -82 -73.5 -192t-25.5 -265v-430h-107z
M528 -602l105 449h118l-140 -449h-83z" />
    <glyph glyph-name="Ncaron" unicode="&#x147;" horiz-adv-x="1645" 
d="M204 0v1597h133l989 -1431v1431h114v-1597h-133l-988 1429v-1429h-115zM473 2067l294 -351h111l294 351h-104l-224 -238q-10 -10 -21 -10t-21 10l-225 238h-104z" />
    <glyph glyph-name="ncaron" unicode="&#x148;" horiz-adv-x="1346" 
d="M174 0v1154h80q1 -50 3.5 -103.5t5.5 -81.5q3 -33 8.5 -45t18.5 -12q9 0 15 5t18 27q64 113 167.5 180t257.5 67q207 0 324 -129t117 -364v-698h-107v695q0 192 -90.5 296.5t-248.5 104.5q-120 0 -212 -50.5t-151 -158.5q-48 -82 -73.5 -192t-25.5 -265v-430h-107z
M340 1734l296 -427h90l296 427h-91l-214 -270q-21 -25 -36 -25t-36 25l-214 270h-91z" />
    <glyph glyph-name="Eng" unicode="&#x14a;" horiz-adv-x="1683" 
d="M1131 -514q-78 0 -162.5 19.5t-153.5 52.5v100q66 -30 145 -49.5t165 -19.5q138 0 198.5 82.5t60.5 255.5v1049q0 263 -120 412t-332 149q-316 0 -475 -290q-66 -115 -102 -270t-36 -352v-625h-115v1597h88q0 -47 2 -102.5t4.5 -104t4.5 -73.5q3 -43 11 -60t25 -17
q12 0 20 8t25 42q86 164 223 255.5t331 91.5q175 0 300.5 -78t193 -224t67.5 -350v-1049q0 -229 -87 -339.5t-281 -110.5z" />
    <glyph glyph-name="eng" unicode="&#x14b;" horiz-adv-x="1346" 
d="M833 -514q-61 0 -127 15.5t-114 41.5v85q47 -22 103.5 -35.5t121.5 -13.5q136 0 200.5 70t64.5 223v823q0 192 -90.5 296.5t-248.5 104.5q-120 0 -212 -50.5t-151 -158.5q-48 -82 -73.5 -192t-25.5 -265v-430h-107v1154h80q1 -50 3.5 -103.5t5.5 -81.5q3 -33 8.5 -45
t18.5 -12q9 0 15 5t18 27q64 113 167.5 180t257.5 67q207 0 324 -129t117 -364v-830q0 -382 -356 -382z" />
    <glyph glyph-name="Omacron" unicode="&#x14c;" horiz-adv-x="1855" 
d="M928 -38q-181 0 -333 61.5t-264 174t-173.5 265.5t-61.5 336t61.5 336t173.5 265.5t264 174t333 61.5q180 0 332 -61.5t264 -174t173.5 -265.5t61.5 -336t-61.5 -336t-173.5 -265.5t-264 -174t-332 -61.5zM928 63q208 0 368 93t251 259t91 384t-91 384t-251 259t-368 93
t-368.5 -93t-251.5 -259t-91 -384t91 -384t251.5 -259t368.5 -93zM610 1789v93h636v-93h-636z" />
    <glyph glyph-name="omacron" unicode="&#x14d;" horiz-adv-x="1396" 
d="M698 -37q-177 0 -316 80t-218.5 218.5t-79.5 315.5t79.5 316t218.5 218.5t316 79.5t316 -79.5t218.5 -218.5t79.5 -316t-79.5 -315.5t-218.5 -218.5t-316 -80zM698 58q147 0 260.5 67t178 184t64.5 268t-64.5 268t-178 184t-260.5 67t-260.5 -67t-178 -184t-64.5 -268
t64.5 -268t178 -184t260.5 -67zM380 1393v93h636v-93h-636z" />
    <glyph glyph-name="Obreve" unicode="&#x14e;" horiz-adv-x="1855" 
d="M928 -38q-181 0 -333 61.5t-264 174t-173.5 265.5t-61.5 336t61.5 336t173.5 265.5t264 174t333 61.5q180 0 332 -61.5t264 -174t173.5 -265.5t61.5 -336t-61.5 -336t-173.5 -265.5t-264 -174t-332 -61.5zM928 63q208 0 368 93t251 259t91 384t-91 384t-251 259t-368 93
t-368.5 -93t-251.5 -259t-91 -384t91 -384t251.5 -259t368.5 -93zM928 1731q-142 0 -233 77t-108 210h82q51 -197 259 -197t259 197h82q-16 -133 -107.5 -210t-233.5 -77z" />
    <glyph glyph-name="obreve" unicode="&#x14f;" horiz-adv-x="1396" 
d="M698 -37q-177 0 -316 80t-218.5 218.5t-79.5 315.5t79.5 316t218.5 218.5t316 79.5t316 -79.5t218.5 -218.5t79.5 -316t-79.5 -315.5t-218.5 -218.5t-316 -80zM698 58q147 0 260.5 67t178 184t64.5 268t-64.5 268t-178 184t-260.5 67t-260.5 -67t-178 -184t-64.5 -268
t64.5 -268t178 -184t260.5 -67zM698 1328q-144 0 -237 81t-110 220h80q25 -100 94.5 -156t172.5 -56t172.5 56t94.5 156h80q-16 -139 -109.5 -220t-237.5 -81z" />
    <glyph glyph-name="Ohungarumlaut" unicode="&#x150;" horiz-adv-x="1855" 
d="M928 -38q-181 0 -333 61.5t-264 174t-173.5 265.5t-61.5 336t61.5 336t173.5 265.5t264 174t333 61.5q180 0 332 -61.5t264 -174t173.5 -265.5t61.5 -336t-61.5 -336t-173.5 -265.5t-264 -174t-332 -61.5zM928 63q208 0 368 93t251 259t91 384t-91 384t-251 259t-368 93
t-368.5 -93t-251.5 -259t-91 -384t91 -384t251.5 -259t368.5 -93zM1054 1716l386 341h174l-431 -341h-129zM618 1716l386 341h174l-431 -341h-129z" />
    <glyph glyph-name="ohungarumlaut" unicode="&#x151;" horiz-adv-x="1396" 
d="M698 -37q-177 0 -316 80t-218.5 218.5t-79.5 315.5t79.5 316t218.5 218.5t316 79.5t316 -79.5t218.5 -218.5t79.5 -316t-79.5 -315.5t-218.5 -218.5t-316 -80zM698 58q147 0 260.5 67t178 184t64.5 268t-64.5 268t-178 184t-260.5 67t-260.5 -67t-178 -184t-64.5 -268
t64.5 -268t178 -184t260.5 -67zM798 1307l274 427h135l-308 -427h-101zM453 1307l260 427h131l-292 -427h-99z" />
    <glyph glyph-name="OE" unicode="&#x152;" horiz-adv-x="2714" 
d="M928 -38q-181 0 -333 61.5t-264 174t-173.5 265.5t-61.5 336t61.5 336t173.5 265.5t264 174t333 61.5q239 0 427.5 -110.5t284.5 -301.5v373h972v-99h-856v-636h748v-99h-748v-664h898v-99h-1014v374q-96 -191 -284.5 -301.5t-427.5 -110.5zM928 63q208 0 368 93t251 259
t91 384t-91 384t-251 259t-368 93t-368.5 -93t-251.5 -259t-91 -384t91 -384t251.5 -259t368.5 -93z" />
    <glyph glyph-name="oe" unicode="&#x153;" horiz-adv-x="2389" 
d="M687 -37q-174 0 -310 80t-214 218.5t-78 315.5t78 316t214 218.5t310 79.5q196 0 340.5 -98t203.5 -257q62 165 201.5 260t321.5 95q166 0 289.5 -73.5t192 -203.5t68.5 -300q0 -13 -1 -33.5t-2 -28.5h-1013q3 -147 61.5 -258.5t163.5 -173.5t247 -62q156 0 268.5 79.5
t145.5 209.5h113q-25 -117 -99 -203t-183.5 -133t-242.5 -47q-198 0 -335.5 96t-195.5 262q-59 -160 -203.5 -259.5t-340.5 -99.5zM1754 1098q-131 0 -231 -56.5t-161 -158t-72 -238.5l907 -1q-2 135 -58.5 237t-155.5 159.5t-229 57.5zM690 58q145 0 255.5 67t173 184
t62.5 268t-62.5 268t-173 184t-255.5 67q-144 0 -255.5 -67t-175 -184t-63.5 -268t63.5 -268t175 -184t255.5 -67z" />
    <glyph glyph-name="Racute" unicode="&#x154;" horiz-adv-x="1452" 
d="M204 0v1597h606q240 0 367.5 -109t127.5 -313q0 -143 -74.5 -250.5t-232.5 -144.5q123 -14 180 -81.5t75 -212.5l42 -335q16 -119 46 -151h-121q-10 10 -21.5 44.5t-18.5 90.5l-41 335q-12 99 -45 155t-99 79.5t-178 23.5h-496v-728h-117zM321 827h478q200 0 294.5 86.5
t94.5 248.5q0 337 -378 337h-489v-672zM786 1716l421 341h-173l-377 -341h129z" />
    <glyph glyph-name="racute" unicode="&#x155;" horiz-adv-x="955" 
d="M174 0v1154h79q1 -29 3.5 -76t6.5 -79q3 -28 8.5 -39t15.5 -11q9 0 15 5.5t15 24.5q44 95 125.5 149t182.5 54q142 0 221.5 -90.5t79.5 -245.5q0 -17 -2 -35h-101q1 8 1.5 16t0.5 17q1 112 -53 179.5t-156 67.5q-96 0 -165 -55.5t-110 -158.5q-31 -79 -46 -171.5
t-15 -214.5v-491h-106zM572 1307l298 427h-144l-255 -427h101z" />
    <glyph glyph-name="uni0156" unicode="&#x156;" horiz-adv-x="1452" 
d="M204 0v1597h606q240 0 367.5 -109t127.5 -313q0 -143 -74.5 -250.5t-232.5 -144.5q123 -14 180 -81.5t75 -212.5l42 -335q16 -119 46 -151h-121q-10 10 -21.5 44.5t-18.5 90.5l-41 335q-12 99 -45 155t-99 79.5t-178 23.5h-496v-728h-117zM321 827h478q200 0 294.5 86.5
t94.5 248.5q0 337 -378 337h-489v-672zM645 -532l95 409h118l-127 -409h-86z" />
    <glyph glyph-name="uni0157" unicode="&#x157;" horiz-adv-x="955" 
d="M174 0v1154h79q1 -29 3.5 -76t6.5 -79q3 -28 8.5 -39t15.5 -11q9 0 15 5.5t15 24.5q44 95 125.5 149t182.5 54q142 0 221.5 -90.5t79.5 -245.5q0 -17 -2 -35h-101q1 8 1.5 16t0.5 17q1 112 -53 179.5t-156 67.5q-96 0 -165 -55.5t-110 -158.5q-31 -79 -46 -171.5
t-15 -214.5v-491h-106zM71 -602l105 449h118l-140 -449h-83z" />
    <glyph glyph-name="Rcaron" unicode="&#x158;" horiz-adv-x="1452" 
d="M204 0v1597h606q240 0 367.5 -109t127.5 -313q0 -143 -74.5 -250.5t-232.5 -144.5q123 -14 180 -81.5t75 -212.5l42 -335q16 -119 46 -151h-121q-10 10 -21.5 44.5t-18.5 90.5l-41 335q-12 99 -45 155t-99 79.5t-178 23.5h-496v-728h-117zM321 827h478q200 0 294.5 86.5
t94.5 248.5q0 337 -378 337h-489v-672zM371 2067l294 -351h111l294 351h-104l-224 -238q-10 -10 -21 -10t-21 10l-225 238h-104z" />
    <glyph glyph-name="rcaron" unicode="&#x159;" horiz-adv-x="955" 
d="M174 0v1154h79q1 -29 3.5 -76t6.5 -79q3 -28 8.5 -39t15.5 -11q9 0 15 5.5t15 24.5q44 95 125.5 149t182.5 54q142 0 221.5 -90.5t79.5 -245.5q0 -17 -2 -35h-101q1 8 1.5 16t0.5 17q1 112 -53 179.5t-156 67.5q-96 0 -165 -55.5t-110 -158.5q-31 -79 -46 -171.5
t-15 -214.5v-491h-106zM181 1734l296 -427h90l296 427h-91l-214 -270q-21 -25 -36 -25t-36 25l-214 270h-91z" />
    <glyph glyph-name="Sacute" unicode="&#x15a;" horiz-adv-x="1270" 
d="M667 -38q-169 0 -297.5 61.5t-207 175t-96.5 268.5h116q27 -190 155.5 -298t332.5 -108q116 0 204.5 42t138 116t49.5 171q0 112 -44.5 183.5t-142 119t-256.5 86.5q-250 62 -356.5 165.5t-106.5 279.5q0 121 60.5 213.5t168.5 145t251 52.5q214 0 344 -116.5t154 -322.5
h-113q-22 163 -121 252.5t-265 89.5q-164 0 -263.5 -84t-99.5 -224q0 -132 80 -210t287 -130q187 -46 306 -107.5t176 -154t57 -231.5q0 -128 -65.5 -226t-180.5 -153.5t-265 -55.5zM694 1716l421 341h-173l-377 -341h129z" />
    <glyph glyph-name="sacute" unicode="&#x15b;" horiz-adv-x="1074" 
d="M559 -37q-205 0 -335.5 96t-158.5 269h113q21 -127 121 -199t262 -72q147 0 233.5 65.5t86.5 164.5q0 76 -31.5 124t-109 79t-215.5 55q-214 38 -303.5 115t-89.5 214t108 227t291 90q184 0 295 -89t131 -254h-109q-44 249 -315 249q-139 0 -216.5 -60.5t-77.5 -156.5
t68 -150t232 -83q171 -30 269 -72.5t139 -109.5t41 -173q0 -92 -54 -166.5t-150.5 -118.5t-224.5 -44zM593 1307l298 427h-144l-255 -427h101z" />
    <glyph glyph-name="Scircumflex" unicode="&#x15c;" horiz-adv-x="1270" 
d="M667 -38q-169 0 -297.5 61.5t-207 175t-96.5 268.5h116q27 -190 155.5 -298t332.5 -108q116 0 204.5 42t138 116t49.5 171q0 112 -44.5 183.5t-142 119t-256.5 86.5q-250 62 -356.5 165.5t-106.5 279.5q0 121 60.5 213.5t168.5 145t251 52.5q214 0 344 -116.5t154 -322.5
h-113q-22 163 -121 252.5t-265 89.5q-164 0 -263.5 -84t-99.5 -224q0 -132 80 -210t287 -130q187 -46 306 -107.5t176 -154t57 -231.5q0 -128 -65.5 -226t-180.5 -153.5t-265 -55.5zM280 1716l294 351h111l294 -351h-104l-224 238q-10 10 -21 10t-21 -10l-225 -238h-104z
" />
    <glyph glyph-name="scircumflex" unicode="&#x15d;" horiz-adv-x="1074" 
d="M559 -37q-205 0 -335.5 96t-158.5 269h113q21 -127 121 -199t262 -72q147 0 233.5 65.5t86.5 164.5q0 76 -31.5 124t-109 79t-215.5 55q-214 38 -303.5 115t-89.5 214t108 227t291 90q184 0 295 -89t131 -254h-109q-44 249 -315 249q-139 0 -216.5 -60.5t-77.5 -156.5
t68 -150t232 -83q171 -30 269 -72.5t139 -109.5t41 -173q0 -92 -54 -166.5t-150.5 -118.5t-224.5 -44zM202 1307l296 427h90l296 -427h-91l-214 270q-21 25 -36 25t-36 -25l-214 -270h-91z" />
    <glyph glyph-name="Scedilla" unicode="&#x15e;" horiz-adv-x="1270" 
d="M667 -38q-169 0 -297.5 61.5t-207 175t-96.5 268.5h116q27 -190 155.5 -298t332.5 -108q116 0 204.5 42t138 116t49.5 171q0 112 -44.5 183.5t-142 119t-256.5 86.5q-250 62 -356.5 165.5t-106.5 279.5q0 121 60.5 213.5t168.5 145t251 52.5q214 0 344 -116.5t154 -322.5
h-113q-22 163 -121 252.5t-265 89.5q-164 0 -263.5 -84t-99.5 -224q0 -132 80 -210t287 -130q187 -46 306 -107.5t176 -154t57 -231.5q0 -128 -65.5 -226t-180.5 -153.5t-265 -55.5zM696 -532q-137 0 -217.5 79.5t-88.5 211.5h104q8 -94 60 -148t138 -54q77 0 118.5 40.5
t41.5 110.5q0 75 -67.5 151t-191.5 133l112 16q110 -46 179 -130t69 -176q0 -104 -69 -169t-188 -65z" />
    <glyph glyph-name="scedilla" unicode="&#x15f;" horiz-adv-x="1074" 
d="M559 -37q-205 0 -335.5 96t-158.5 269h113q21 -127 121 -199t262 -72q147 0 233.5 65.5t86.5 164.5q0 76 -31.5 124t-109 79t-215.5 55q-214 38 -303.5 115t-89.5 214t108 227t291 90q184 0 295 -89t131 -254h-109q-44 249 -315 249q-139 0 -216.5 -60.5t-77.5 -156.5
t68 -150t232 -83q171 -30 269 -72.5t139 -109.5t41 -173q0 -92 -54 -166.5t-150.5 -118.5t-224.5 -44zM565 -530q-133 0 -212.5 78.5t-87.5 210.5h94q9 -97 63 -152t144 -55q80 0 124 41t44 114q0 76 -70.5 152t-197.5 133l106 2q115 -44 182.5 -124t67.5 -169
q0 -105 -68 -168t-189 -63z" />
    <glyph glyph-name="Scaron" unicode="&#x160;" horiz-adv-x="1270" 
d="M667 -38q-169 0 -297.5 61.5t-207 175t-96.5 268.5h116q27 -190 155.5 -298t332.5 -108q116 0 204.5 42t138 116t49.5 171q0 112 -44.5 183.5t-142 119t-256.5 86.5q-250 62 -356.5 165.5t-106.5 279.5q0 121 60.5 213.5t168.5 145t251 52.5q214 0 344 -116.5t154 -322.5
h-113q-22 163 -121 252.5t-265 89.5q-164 0 -263.5 -84t-99.5 -224q0 -132 80 -210t287 -130q187 -46 306 -107.5t176 -154t57 -231.5q0 -128 -65.5 -226t-180.5 -153.5t-265 -55.5zM279 2067l294 -351h111l294 351h-104l-224 -238q-10 -10 -21 -10t-21 10l-225 238h-104z
" />
    <glyph glyph-name="scaron" unicode="&#x161;" horiz-adv-x="1074" 
d="M559 -37q-205 0 -335.5 96t-158.5 269h113q21 -127 121 -199t262 -72q147 0 233.5 65.5t86.5 164.5q0 76 -31.5 124t-109 79t-215.5 55q-214 38 -303.5 115t-89.5 214t108 227t291 90q184 0 295 -89t131 -254h-109q-44 249 -315 249q-139 0 -216.5 -60.5t-77.5 -156.5
t68 -150t232 -83q171 -30 269 -72.5t139 -109.5t41 -173q0 -92 -54 -166.5t-150.5 -118.5t-224.5 -44zM202 1734l296 -427h90l296 427h-91l-214 -270q-21 -25 -36 -25t-36 25l-214 270h-91z" />
    <glyph glyph-name="uni0162" unicode="&#x162;" horiz-adv-x="1273" 
d="M579 0v1498h-555v99h1225v-99h-554v-1498h-116zM681 -524q-137 0 -217.5 79.5t-88.5 211.5h104q8 -94 60 -148t138 -54q77 0 118.5 40.5t41.5 110.5q0 75 -67.5 151t-191.5 133l112 16q110 -46 179 -130t69 -176q0 -104 -69 -169t-188 -65z" />
    <glyph glyph-name="uni0163" unicode="&#x163;" horiz-adv-x="774" 
d="M583 -11q-169 0 -244 92.5t-75 291.5v688h-243v93h151q53 0 75.5 19t29.5 68q4 27 7.5 77.5t7 103.5t3.5 85h76v-353h351v-93h-351v-681q0 -158 49 -228t182 -70q37 0 73.5 5.5t67.5 13.5v-90q-26 -8 -71 -15t-89 -7zM521 -500q-133 0 -212.5 78.5t-87.5 210.5h94
q9 -97 63 -152t144 -55q80 0 124 41t44 114q0 76 -70.5 152t-197.5 133l106 2q115 -44 182.5 -124t67.5 -169q0 -105 -68 -168t-189 -63z" />
    <glyph glyph-name="Tcaron" unicode="&#x164;" horiz-adv-x="1273" 
d="M579 0v1498h-555v99h1225v-99h-554v-1498h-116zM287 2067l294 -351h111l294 351h-104l-224 -238q-10 -10 -21 -10t-21 10l-225 238h-104z" />
    <glyph glyph-name="tcaron" unicode="&#x165;" horiz-adv-x="774" 
d="M583 -11q-169 0 -244 92.5t-75 291.5v688h-243v93h151q53 0 75.5 19t29.5 68q4 27 7.5 77.5t7 103.5t3.5 85h76v-353h351v-93h-351v-681q0 -158 49 -228t182 -70q37 0 73.5 5.5t67.5 13.5v-90q-26 -8 -71 -15t-89 -7zM520 1286l43 385h112l-73 -385h-82z" />
    <glyph glyph-name="Tbar" unicode="&#x166;" horiz-adv-x="1295" 
d="M589 0v839h-302v93h302v566h-554v99h1224v-99h-554v-566h304v-93h-304v-839h-116z" />
    <glyph glyph-name="tbar" unicode="&#x167;" horiz-adv-x="818" 
d="M614 -11q-169 0 -244.5 92.5t-75.5 291.5v240h-243v93h243v355h-243v93h151q53 0 75.5 19t29.5 68q4 27 8 77.5t7 103.5t4 85h75v-353h351v-93h-351v-355h351v-93h-351v-233q0 -158 49.5 -228t182.5 -70q36 0 73 5.5t67 13.5v-90q-26 -8 -70.5 -15t-88.5 -7z" />
    <glyph glyph-name="Utilde" unicode="&#x168;" horiz-adv-x="1598" 
d="M799 -38q-283 0 -448.5 158t-165.5 471v1006h117v-1005q0 -260 129 -395.5t368 -135.5t368 135.5t129 395.5v1005h117v-1006q0 -313 -165.5 -471t-448.5 -158zM966 1750q-57 0 -101.5 25.5t-82.5 59.5t-75 59.5t-78 25.5q-47 0 -79 -36.5t-44 -102.5h-80q16 103 67 165
t139 62q57 0 101.5 -25.5t82.5 -59.5t74.5 -59.5t77.5 -25.5q48 0 80 36.5t44 102.5h79q-15 -103 -66.5 -165t-138.5 -62z" />
    <glyph glyph-name="utilde" unicode="&#x169;" horiz-adv-x="1338" 
d="M608 -37q-215 0 -333.5 129.5t-118.5 364.5v697h107v-694q0 -191 91 -296.5t255 -105.5q244 0 350 192q98 165 98 440v464h107v-1154h-80q-1 46 -3.5 93.5t-5.5 75.5q-3 33 -9 45t-18 12q-8 0 -15 -5t-19 -28q-62 -110 -162 -170t-244 -60zM825 1331q-57 0 -101.5 25.5
t-82.5 59.5t-75 59.5t-78 25.5q-47 0 -79 -36.5t-44 -102.5h-80q16 103 67 165t139 62q57 0 101.5 -25.5t82.5 -59.5t74.5 -59.5t77.5 -25.5q48 0 80 36.5t44 102.5h79q-15 -103 -66.5 -165t-138.5 -62z" />
    <glyph glyph-name="Umacron" unicode="&#x16a;" horiz-adv-x="1598" 
d="M799 -38q-283 0 -448.5 158t-165.5 471v1006h117v-1005q0 -260 129 -395.5t368 -135.5t368 135.5t129 395.5v1005h117v-1006q0 -313 -165.5 -471t-448.5 -158zM481 1789v93h636v-93h-636z" />
    <glyph glyph-name="umacron" unicode="&#x16b;" horiz-adv-x="1338" 
d="M608 -37q-215 0 -333.5 129.5t-118.5 364.5v697h107v-694q0 -191 91 -296.5t255 -105.5q244 0 350 192q98 165 98 440v464h107v-1154h-80q-1 46 -3.5 93.5t-5.5 75.5q-3 33 -9 45t-18 12q-8 0 -15 -5t-19 -28q-62 -110 -162 -170t-244 -60zM343 1393v93h636v-93h-636z
" />
    <glyph glyph-name="Ubreve" unicode="&#x16c;" horiz-adv-x="1598" 
d="M799 -38q-283 0 -448.5 158t-165.5 471v1006h117v-1005q0 -260 129 -395.5t368 -135.5t368 135.5t129 395.5v1005h117v-1006q0 -313 -165.5 -471t-448.5 -158zM799 1731q-142 0 -233 77t-108 210h82q51 -197 259 -197t259 197h82q-16 -133 -107.5 -210t-233.5 -77z" />
    <glyph glyph-name="ubreve" unicode="&#x16d;" horiz-adv-x="1338" 
d="M608 -37q-215 0 -333.5 129.5t-118.5 364.5v697h107v-694q0 -191 91 -296.5t255 -105.5q244 0 350 192q98 165 98 440v464h107v-1154h-80q-1 46 -3.5 93.5t-5.5 75.5q-3 33 -9 45t-18 12q-8 0 -15 -5t-19 -28q-62 -110 -162 -170t-244 -60zM661 1328q-144 0 -237 81
t-110 220h80q25 -100 94.5 -156t172.5 -56t172.5 56t94.5 156h80q-16 -139 -109.5 -220t-237.5 -81z" />
    <glyph glyph-name="Uring" unicode="&#x16e;" horiz-adv-x="1598" 
d="M799 -38q-283 0 -448.5 158t-165.5 471v1006h117v-1005q0 -260 129 -395.5t368 -135.5t368 135.5t129 395.5v1005h117v-1006q0 -313 -165.5 -471t-448.5 -158zM799 1694q-100 0 -164.5 62t-64.5 157t64.5 157.5t164.5 62.5t164.5 -62.5t64.5 -157.5t-64.5 -157
t-164.5 -62zM799 1774q60 0 99 39.5t39 99.5t-39 100t-99 40q-61 0 -99.5 -40t-38.5 -100t39 -99.5t99 -39.5z" />
    <glyph glyph-name="uring" unicode="&#x16f;" horiz-adv-x="1338" 
d="M608 -37q-215 0 -333.5 129.5t-118.5 364.5v697h107v-694q0 -191 91 -296.5t255 -105.5q244 0 350 192q98 165 98 440v464h107v-1154h-80q-1 46 -3.5 93.5t-5.5 75.5q-3 33 -9 45t-18 12q-8 0 -15 -5t-19 -28q-62 -110 -162 -170t-244 -60zM660 1300q-99 0 -162.5 61.5
t-63.5 155.5q0 95 63.5 156.5t162.5 61.5t162.5 -61.5t63.5 -156.5q0 -94 -63.5 -155.5t-162.5 -61.5zM660 1375q62 0 101.5 40.5t39.5 101.5q0 62 -39.5 102t-101.5 40q-61 0 -101 -40t-40 -102q0 -61 40 -101.5t101 -40.5z" />
    <glyph glyph-name="Uhungarumlaut" unicode="&#x170;" horiz-adv-x="1598" 
d="M799 -38q-283 0 -448.5 158t-165.5 471v1006h117v-1005q0 -260 129 -395.5t368 -135.5t368 135.5t129 395.5v1005h117v-1006q0 -313 -165.5 -471t-448.5 -158zM925 1716l386 341h174l-431 -341h-129zM489 1716l386 341h174l-431 -341h-129z" />
    <glyph glyph-name="uhungarumlaut" unicode="&#x171;" horiz-adv-x="1338" 
d="M608 -37q-215 0 -333.5 129.5t-118.5 364.5v697h107v-694q0 -191 91 -296.5t255 -105.5q244 0 350 192q98 165 98 440v464h107v-1154h-80q-1 46 -3.5 93.5t-5.5 75.5q-3 33 -9 45t-18 12q-8 0 -15 -5t-19 -28q-62 -110 -162 -170t-244 -60zM761 1307l274 427h135
l-308 -427h-101zM416 1307l260 427h131l-292 -427h-99z" />
    <glyph glyph-name="Uogonek" unicode="&#x172;" horiz-adv-x="1598" 
d="M799 -38q-283 0 -448.5 158t-165.5 471v1006h117v-1005q0 -260 129 -395.5t368 -135.5t368 135.5t129 395.5v1005h117v-1006q0 -313 -165.5 -471t-448.5 -158zM1076 -467q-104 0 -168 51t-63 144q0 95 67.5 183t215.5 185l49 -34q-227 -159 -227 -313q-1 -61 34.5 -92.5
t99.5 -31.5q83 0 171 37l1 -87q-86 -42 -180 -42z" />
    <glyph glyph-name="uogonek" unicode="&#x173;" horiz-adv-x="1338" 
d="M608 -37q-215 0 -333.5 129.5t-118.5 364.5v697h107v-694q0 -191 91 -296.5t255 -105.5q244 0 350 192q98 165 98 440v464h107v-1154h-80q-1 46 -3.5 93.5t-5.5 75.5q-3 33 -9 45t-18 12q-8 0 -15 -5t-19 -28q-62 -110 -162 -170t-244 -60zM1097 -478q-98 0 -159.5 50.5
t-61.5 140.5q0 76 51.5 150t169.5 171l66 -34q-107 -94 -150.5 -155.5t-43.5 -122.5q0 -55 36.5 -86t100.5 -31q77 0 151 44l1 -81q-74 -46 -161 -46z" />
    <glyph glyph-name="Wcircumflex" unicode="&#x174;" horiz-adv-x="2152" 
d="M521 0l-492 1597h121l440 -1461l422 1461h134l422 -1461l443 1461h114l-495 -1597h-133l-421 1466l-421 -1466h-134zM728 1716l294 351h111l294 -351h-104l-224 238q-10 10 -21 10t-21 -10l-225 -238h-104z" />
    <glyph glyph-name="wcircumflex" unicode="&#x175;" horiz-adv-x="1720" 
d="M429 0l-399 1154h118l346 -1017l311 1017h119l311 -1017l346 1017h110l-401 -1154h-115l-314 1024l-313 -1024h-119zM519 1307l296 427h90l296 -427h-91l-214 270q-21 25 -36 25t-36 -25l-214 -270h-91z" />
    <glyph glyph-name="Ycircumflex" unicode="&#x176;" horiz-adv-x="1337" 
d="M613 0v661l-590 936h135l517 -833l504 833h127l-578 -938v-659h-115zM315 1716l294 351h111l294 -351h-104l-224 238q-10 10 -21 10t-21 -10l-225 -238h-104z" />
    <glyph glyph-name="ycircumflex" unicode="&#x177;" horiz-adv-x="1166" 
d="M314 -494l218 494l-510 1154h121l448 -1030l440 1030h113l-721 -1648h-109zM246 1307l296 427h90l296 -427h-91l-214 270q-21 25 -36 25t-36 -25l-214 -270h-91z" />
    <glyph glyph-name="Ydieresis" unicode="&#x178;" horiz-adv-x="1337" 
d="M613 0v661l-590 936h135l517 -833l504 833h127l-578 -938v-659h-115zM909 1793q-44 0 -70.5 27.5t-26.5 64.5q0 38 26.5 65t70.5 27t70.5 -27t26.5 -65q0 -37 -26.5 -64.5t-70.5 -27.5zM419 1793q-44 0 -70.5 27.5t-26.5 64.5q0 38 26.5 65t70.5 27t70.5 -27t26.5 -65
q0 -37 -26.5 -64.5t-70.5 -27.5z" />
    <glyph glyph-name="Zacute" unicode="&#x179;" horiz-adv-x="1225" 
d="M15 0v3l1003 1495h-947v99h1140v-3l-1003 -1495h947v-99h-1140zM678 1716l421 341h-173l-377 -341h129z" />
    <glyph glyph-name="zacute" unicode="&#x17a;" horiz-adv-x="1060" 
d="M36 0v3l799 1058h-775v93h965v-3l-798 -1058h774v-93h-965zM581 1307l298 427h-144l-255 -427h101z" />
    <glyph glyph-name="Zdotaccent" unicode="&#x17b;" horiz-adv-x="1225" 
d="M15 0v3l1003 1495h-947v99h1140v-3l-1003 -1495h947v-99h-1140zM613 1775q-44 0 -70.5 27.5t-26.5 64.5t26.5 64.5t70.5 27.5t70.5 -27.5t26.5 -64.5t-26.5 -64.5t-70.5 -27.5z" />
    <glyph glyph-name="zdotaccent" unicode="&#x17c;" horiz-adv-x="1060" 
d="M36 0v3l799 1058h-775v93h965v-3l-798 -1058h774v-93h-965zM530 1365q-46 0 -72.5 28t-26.5 65q0 38 26.5 66.5t72.5 28.5t72.5 -28.5t26.5 -66.5q0 -37 -26.5 -65t-72.5 -28z" />
    <glyph glyph-name="Zcaron" unicode="&#x17d;" horiz-adv-x="1225" 
d="M15 0v3l1003 1495h-947v99h1140v-3l-1003 -1495h947v-99h-1140zM263 2067l294 -351h111l294 351h-104l-224 -238q-10 -10 -21 -10t-21 10l-225 238h-104z" />
    <glyph glyph-name="zcaron" unicode="&#x17e;" horiz-adv-x="1060" 
d="M36 0v3l799 1058h-775v93h965v-3l-798 -1058h774v-93h-965zM190 1734l296 -427h90l296 427h-91l-214 -270q-21 -25 -36 -25t-36 25l-214 270h-91z" />
    <glyph glyph-name="uni0180" unicode="&#x180;" horiz-adv-x="1459" 
d="M782 -37q-148 0 -262 57.5t-191 161.5q-24 33 -40 33q-12 0 -17 -10t-8 -37q-4 -36 -7 -87.5t-3 -80.5h-80v1360h-175v93h175v206h107v-206h447v-93h-447v-365q0 -38 20 -38q7 0 12.5 3.5t14.5 16.5q74 102 190 158t258 56q174 0 309 -79.5t212 -218.5t77 -316
q0 -178 -77.5 -316.5t-211.5 -218t-303 -79.5zM766 58q146 0 258 67t175.5 184.5t63.5 267.5q0 151 -63.5 268t-175.5 184t-257 67q-144 0 -255 -66t-173.5 -183.5t-62.5 -271.5q0 -152 62.5 -268.5t173.5 -182.5t254 -66z" />
    <glyph glyph-name="uni0181" unicode="&#x181;" horiz-adv-x="1704" 
d="M496 0v1499h-98q-121 0 -184 -57t-63 -164q0 -63 16.5 -130t53.5 -150h-103q-36 69 -56.5 145t-20.5 148q0 147 93 226.5t268 79.5h672q227 0 347 -106.5t120 -298.5q0 -280 -263 -355q153 -34 234.5 -138t81.5 -264q0 -210 -125.5 -322.5t-363.5 -112.5h-609zM614 879
h452q176 0 269.5 79.5t93.5 230.5q0 149 -92.5 229.5t-271.5 80.5h-451v-620zM612 98h484q189 0 287 87t98 253q0 167 -100 255t-282 88h-487v-683z" />
    <glyph glyph-name="uni0186" unicode="&#x186;" horiz-adv-x="1773" 
d="M867 -38q-215 0 -381.5 77.5t-272.5 217.5t-141 327h123q48 -240 222 -381t445 -141q203 0 359.5 93t245.5 259.5t89 384.5q0 219 -89 385t-245.5 259t-359.5 93q-271 0 -445 -141t-222 -381h-123q35 188 141 327.5t272.5 217t381.5 77.5q175 0 322.5 -62t256.5 -174.5
t169.5 -265.5t60.5 -335t-60.5 -335t-169.5 -265.5t-256.5 -174.5t-322.5 -62z" />
    <glyph glyph-name="uni0187" unicode="&#x187;" horiz-adv-x="1743" 
d="M925 -38q-181 0 -332.5 62t-262.5 174.5t-171.5 265.5t-60.5 335t60.5 335t171.5 265.5t262.5 174.5t332.5 62q132 0 245.5 -31t205.5 -90q-68 119 -68 230q0 119 85.5 196.5t227.5 77.5q124 0 218 -60v-94q-91 57 -208 57q-99 0 -160 -56t-61 -156q0 -81 36.5 -162.5
t124.5 -207.5q99 -142 129 -326h-123q-46 240 -216 381t-436 141q-209 0 -368 -93t-248.5 -259t-89.5 -385q0 -218 89.5 -384.5t248.5 -259.5t368 -93q266 0 436 141t216 381h123q-33 -187 -136.5 -327t-266 -217.5t-372.5 -77.5z" />
    <glyph glyph-name="uni0188" unicode="&#x188;" horiz-adv-x="1335" 
d="M691 -36q-176 0 -312 78.5t-213.5 216.5t-77.5 318q0 181 77.5 319t213.5 216.5t312 78.5q91 0 169 -21t142 -60q-32 59 -46 112t-14 111q0 122 73.5 190t194.5 68q38 0 81 -9.5t68 -23.5v-84q-59 24 -128 24q-89 0 -139 -49.5t-50 -133.5q0 -82 28.5 -162.5t99.5 -193.5
q30 -49 54 -104t34 -117h-114q-31 163 -150 260.5t-301 97.5q-146 0 -257.5 -66t-174 -183t-62.5 -270q0 -152 62.5 -269.5t174 -183.5t257.5 -66q182 0 301 98t150 261h114q-37 -205 -186.5 -329t-380.5 -124z" />
    <glyph glyph-name="uni0189" unicode="&#x189;" horiz-adv-x="1734" 
d="M266 0v752h-265v96h265v749h550q248 0 432 -100.5t285.5 -280t101.5 -417.5t-101.5 -418t-285.5 -280.5t-432 -100.5h-550zM382 99h430q216 0 373.5 87t243 244.5t85.5 368.5t-85.5 368t-243 244t-373.5 87h-430v-650h535v-96h-535v-653z" />
    <glyph glyph-name="uni018A" unicode="&#x18a;" horiz-adv-x="1965" 
d="M496 0v1499h-98q-121 0 -184 -57t-63 -164q0 -63 16.5 -130t53.5 -150h-103q-36 69 -56.5 145t-20.5 148q0 147 93 226.5t268 79.5h645q248 0 432 -100.5t285.5 -280t101.5 -417.5t-101.5 -418t-285.5 -280.5t-432 -100.5h-551zM613 99h430q216 0 373.5 87t243 244.5
t85.5 368.5t-85.5 368t-243 244t-373.5 87h-430v-1399z" />
    <glyph glyph-name="uni018E" unicode="&#x18e;" horiz-adv-x="1279" 
d="M1074 0h-1014v99h898v664h-748v99h748v636h-856v99h972v-1597z" />
    <glyph glyph-name="uni018F" unicode="&#x18f;" horiz-adv-x="1755" 
d="M883 -38q-239 0 -416.5 100t-275 278t-97.5 412q0 14 1 34.5t2 29.5h1439q-1 215 -83.5 376.5t-231.5 251.5t-350 90q-161 0 -291 -53t-217.5 -149t-124.5 -224h-121q41 162 146 280.5t260.5 183t345.5 64.5q238 0 414.5 -105t274 -294t97.5 -441q0 -184 -57.5 -337
t-161.5 -264.5t-245 -172t-308 -60.5zM882 62q182 0 324.5 82t228.5 230t99 346h-1324q2 -197 85.5 -345t234 -230.5t352.5 -82.5z" />
    <glyph glyph-name="uni0190" unicode="&#x190;" horiz-adv-x="1295" 
d="M666 -38q-172 0 -300.5 60t-200 167t-71.5 250q0 165 100 276.5t272 145.5q-131 34 -211 134.5t-80 234.5q0 120 58.5 211.5t166.5 142.5t254 51q217 0 352 -112.5t158 -306.5h-112q-22 153 -123 238t-273 85q-167 0 -267.5 -86t-100.5 -229q0 -142 104 -232t273 -90h252
v-96h-254q-211 0 -333 -96t-122 -262q0 -183 126.5 -286.5t334.5 -103.5q202 0 316 102.5t134 295.5h113q-18 -234 -170.5 -364t-395.5 -130z" />
    <glyph glyph-name="uni0191" unicode="&#x191;" horiz-adv-x="1190" 
d="M33 -514q-50 0 -109 13.5t-94 32.5v97q41 -17 93.5 -28.5t95.5 -11.5q102 0 143.5 60.5t41.5 206.5v1741h941v-99h-824v-652h745v-99h-745v-890q0 -196 -67 -283.5t-221 -87.5z" />
    <glyph glyph-name="florin" unicode="&#x192;" horiz-adv-x="708" 
d="M102 -514q-34 0 -75.5 8t-67.5 21v84q55 -20 119 -20q92 0 132.5 55.5t40.5 175.5v1251h-243v93h243v153q0 191 81 280.5t243 89.5q88 0 161 -27v-90q-32 12 -70.5 18t-74.5 6q-125 0 -179 -68.5t-54 -210.5v-151h354v-93h-354v-1256q0 -155 -61 -237t-195 -82z" />
    <glyph glyph-name="uni0193" unicode="&#x193;" horiz-adv-x="1779" 
d="M910 -38q-173 0 -321 59t-258 169.5t-171.5 264.5t-61.5 343q0 186 62 339.5t174 265.5t264 172.5t333 60.5q264 0 454 -120q-67 117 -67 229q0 119 84 196.5t223 77.5q64 0 120.5 -17t102.5 -47v-94q-94 59 -212 59q-95 0 -156 -55.5t-61 -154.5q0 -81 35 -163t122 -207
q83 -121 118 -259h-125q-58 212 -223.5 333t-412.5 121q-208 0 -369.5 -92t-253 -257t-91.5 -385q0 -217 87.5 -383.5t246 -261t370.5 -94.5t355 97.5t217 273.5q34 71 54 159.5t28 180.5h110v-773h-83q-1 77 -6 158.5t-10 113.5q-5 50 -29 50q-10 0 -17.5 -6t-21.5 -28
q-93 -149 -244.5 -237.5t-365.5 -88.5z" />
    <glyph glyph-name="uni0194" unicode="&#x194;" horiz-adv-x="1297" 
d="M651 -39q-130 0 -210.5 73t-80.5 180q0 56 19 113.5t67.5 135.5t136.5 197l-577 937h131l515 -833l514 833h125l-574 -934q88 -120 137 -199t68 -136.5t19 -113.5q0 -107 -80.5 -180t-209.5 -73zM651 51q80 0 129.5 47t49.5 116t-39 149.5t-140 214.5
q-102 -134 -141 -214.5t-39 -149.5t50 -116t130 -47z" />
    <glyph glyph-name="uni0196" unicode="&#x196;" horiz-adv-x="733" 
d="M500 -18q-154 0 -231 88.5t-77 282.5v1244h116v-1245q0 -145 51.5 -206t155.5 -61q56 0 108.5 11.5t98.5 29.5v-97q-38 -19 -98.5 -33t-123.5 -14z" />
    <glyph glyph-name="uni0197" unicode="&#x197;" horiz-adv-x="610" 
d="M247 0v762h-234v96h234v739h116v-739h234v-96h-234v-762h-116z" />
    <glyph glyph-name="uni0198" unicode="&#x198;" horiz-adv-x="1473" 
d="M204 0v1597h117v-781l710 697q68 66 120.5 91.5t116.5 25.5q54 0 108.5 -24.5t103.5 -68.5v-103q-45 38 -97 67t-108 29q-46 0 -83 -21t-98 -80l-632 -613l880 -816h-162l-859 797v-797h-117z" />
    <glyph glyph-name="uni0199" unicode="&#x199;" horiz-adv-x="1076" 
d="M174 0v1295q0 382 356 382q62 0 127.5 -15t113.5 -42v-85q-47 23 -103.5 36t-121.5 13q-136 0 -200.5 -70t-64.5 -223v-706l643 569h149l-649 -570l665 -584h-159l-649 571v-571h-107z" />
    <glyph glyph-name="uni019D" unicode="&#x19d;" horiz-adv-x="1645" 
d="M32 -514q-50 0 -109.5 13.5t-94.5 32.5v97q42 -17 94 -28.5t95 -11.5q103 0 145 60.5t42 206.5v1741h133l989 -1431v1431h114v-1597h-133l-988 1429v-1572q0 -196 -66.5 -283.5t-220.5 -87.5z" />
    <glyph glyph-name="uni019F" unicode="&#x19f;" horiz-adv-x="1855" 
d="M928 -38q-181 0 -333 61.5t-264 174t-173.5 265.5t-61.5 336t61.5 336t173.5 265.5t264 174t333 61.5q180 0 332 -61.5t264 -174t173.5 -265.5t61.5 -336t-61.5 -336t-173.5 -265.5t-264 -174t-332 -61.5zM928 1537q-201 0 -358 -86.5t-250.5 -241.5t-104.5 -360h1425
q-11 205 -104.5 360t-250 241.5t-357.5 86.5zM928 61q201 0 357.5 86.5t250 241.5t104.5 360h-1425q11 -205 104.5 -360t250.5 -241.5t358 -86.5z" />
    <glyph glyph-name="Ohorn" unicode="&#x1a0;" horiz-adv-x="1881" 
d="M928 -38q-181 0 -333 61.5t-264 174t-173.5 265.5t-61.5 336t61.5 336t173.5 265.5t264 174t333 61.5q180 0 332 -61.5t264 -174t173.5 -265.5t61.5 -336t-61.5 -336t-173.5 -265.5t-264 -174t-332 -61.5zM928 63q208 0 368 93t251 259t91 384t-91 384t-251 259t-368 93
t-368.5 -93t-251.5 -259t-91 -384t91 -384t251.5 -259t368.5 -93zM1580 1387q-94 0 -177 59v53q62 -31 133 -31q132 0 132 137q0 91 -59 213h94q32 -61 50 -118.5t18 -109.5q0 -92 -50 -147.5t-141 -55.5z" />
    <glyph glyph-name="ohorn" unicode="&#x1a1;" horiz-adv-x="1430" 
d="M698 -37q-177 0 -316 80t-218.5 218.5t-79.5 315.5t79.5 316t218.5 218.5t316 79.5t316 -79.5t218.5 -218.5t79.5 -316t-79.5 -315.5t-218.5 -218.5t-316 -80zM698 58q147 0 260.5 67t178 184t64.5 268t-64.5 268t-178 184t-260.5 67t-260.5 -67t-178 -184t-64.5 -268
t64.5 -268t178 -184t260.5 -67zM1154 1012q-83 0 -169 54v60q62 -31 133 -31q134 0 134 138q0 97 -72 234h87q80 -140 80 -247q0 -96 -52 -152t-141 -56z" />
    <glyph glyph-name="uni01A4" unicode="&#x1a4;" horiz-adv-x="1630" 
d="M509 0v1499h-98q-121 0 -184 -57t-63 -164q0 -63 17 -130t54 -150h-104q-36 69 -56 145t-20 148q0 147 92.5 226.5t267.5 79.5h658q237 0 365.5 -124t128.5 -348q0 -223 -128.5 -347.5t-365.5 -124.5h-449v-653h-115zM624 752h442q190 0 286.5 96.5t96.5 276.5t-96.5 277
t-286.5 97h-442v-747z" />
    <glyph glyph-name="uni01A5" unicode="&#x1a5;" horiz-adv-x="1459" 
d="M174 -499v1794q0 382 356 382q62 0 127.5 -15t113.5 -42v-85q-47 23 -103.5 36t-121.5 13q-136 0 -200.5 -70t-64.5 -223v-296q0 -38 20 -38q13 0 27 20q74 103 190 159t258 56q174 0 309 -80t212 -219t77 -316t-77 -315.5t-212 -218.5t-309 -80q-142 0 -258 56t-190 158
q-9 14 -14.5 17t-12.5 3q-20 0 -20 -38v-658h-107zM766 58q146 0 258 67.5t175.5 184.5t63.5 267q0 151 -63.5 268.5t-175.5 185t-257 67.5q-144 0 -255 -66.5t-173.5 -184.5t-62.5 -272q0 -151 62.5 -268t173.5 -183t254 -66z" />
    <glyph glyph-name="uni01A9" unicode="&#x1a9;" horiz-adv-x="1073" 
d="M18 0v3l629 808l-622 783v3h989v-99h-781l546 -688l-553 -711h788v-99h-996z" />
    <glyph glyph-name="uni01AC" unicode="&#x1ac;" horiz-adv-x="1414" 
d="M719 0v1498l-323 1q-121 0 -184 -57t-63 -164q0 -121 71 -280h-103q-77 145 -77 293q0 147 92.5 226.5t268.5 79.5h988v-99h-554v-1498h-116z" />
    <glyph glyph-name="uni01AD" unicode="&#x1ad;" horiz-adv-x="774" 
d="M583 -11q-169 0 -244 92.5t-75 291.5v688h-243v93h243v198q0 153 65 239t206 86q33 0 71 -7.5t63 -19.5v-84q-54 18 -110 18q-100 0 -144 -60t-44 -177v-193h351v-93h-351v-681q0 -158 49 -228t182 -70q37 0 73.5 5.5t67.5 13.5v-90q-26 -8 -71 -15t-89 -7z" />
    <glyph glyph-name="uni01AE" unicode="&#x1ae;" horiz-adv-x="1273" 
d="M894 -514q-157 0 -236 88.5t-79 282.5v1641h-555v99h1225v-99h-554l-1 -1642q0 -145 54.5 -206t160.5 -61q55 0 104.5 10t97.5 26v-97q-40 -17 -97.5 -29.5t-119.5 -12.5z" />
    <glyph glyph-name="Uhorn" unicode="&#x1af;" horiz-adv-x="1625" 
d="M799 -38q-283 0 -448.5 158t-165.5 471v1006h117v-1005q0 -260 129 -395.5t368 -135.5t368 135.5t129 395.5v1005h152q69 0 97.5 25t28.5 75q0 66 -49 158h93q29 -46 43 -93.5t14 -89.5q0 -168 -223 -168h-39v-913q0 -313 -165.5 -471t-448.5 -158z" />
    <glyph glyph-name="uhorn" unicode="&#x1b0;" horiz-adv-x="1340" 
d="M608 -37q-215 0 -333.5 129.5t-118.5 364.5v697h107v-694q0 -191 91 -296.5t255 -105.5q244 0 350 192q98 165 98 440v464h107v-1154h-80q-1 46 -3.5 93.5t-5.5 75.5q-3 33 -9 45t-18 12q-8 0 -15 -5t-19 -28q-62 -110 -162 -170t-244 -60zM1072 1068v86h99
q71 0 104 30.5t33 82.5q0 45 -15 93t-41 103h87q32 -61 48 -111.5t16 -102.5q0 -80 -54.5 -130.5t-154.5 -50.5h-122z" />
    <glyph glyph-name="uni01B1" unicode="&#x1b1;" horiz-adv-x="1875" 
d="M107 1597v-102h474q-132 -64 -238 -172t-168 -253.5t-62 -321.5q0 -168 60 -311.5t169.5 -250t261 -166t334.5 -59.5t334 59.5t260.5 166t169.5 250t60 311.5q0 176 -62 321.5t-168 253.5t-238 172h474v102h-721v-88q162 -45 297.5 -147t216.5 -254.5t81 -349.5
q0 -200 -89 -357.5t-247.5 -248.5t-367.5 -91t-368 91t-248 248.5t-89 357.5q0 197 81.5 349.5t216.5 254.5t297 147v88h-721z" />
    <glyph glyph-name="uni01B2" unicode="&#x1b2;" horiz-adv-x="1649" 
d="M836 -38q-302 0 -478 186.5t-176 553.5v895h116v-895q0 -319 145 -479t393 -160q284 0 429.5 221t145.5 646q0 308 -91 455t-288 147q-61 0 -116.5 -11.5t-114.5 -34.5v93q54 24 120 39t136 14q248 -1 360.5 -180.5t112.5 -512.5q0 -477 -175.5 -727t-518.5 -250z" />
    <glyph glyph-name="uni01B3" unicode="&#x1b3;" horiz-adv-x="1486" 
d="M619 0v661l-590 936h135l516 -832l444 740q42 68 92 96t112 28q52 0 99 -21t81 -52v-100q-87 67 -165 67q-45 0 -78.5 -21t-68.5 -77l-462 -765v-660h-115z" />
    <glyph glyph-name="uni01B4" unicode="&#x1b4;" horiz-adv-x="1162" 
d="M313 -499l219 498l-510 1155h121l448 -1030l495 1168q50 117 102.5 165.5t136.5 48.5q83 0 141 -43v-84q-66 36 -120 36q-56 0 -87 -29t-65 -106l-772 -1779h-109z" />
    <glyph glyph-name="uni01B7" unicode="&#x1b7;" horiz-adv-x="1190" 
d="M590 -38q-149 0 -267.5 57t-193.5 161t-94 245h116q26 -165 143 -264.5t295 -99.5q122 0 212 50.5t139.5 139.5t49.5 203q0 187 -119.5 293.5t-321.5 106.5h-198v3l485 641h-701v99h898v-3l-487 -643h10q169 0 292 -61.5t190.5 -173t67.5 -263.5q0 -141 -65 -252
t-181 -175t-270 -64z" />
    <glyph glyph-name="uni01C0" unicode="&#x1c0;" horiz-adv-x="455" 
d="M174 -550v2209h107v-2209h-107z" />
    <glyph glyph-name="uni01C1" unicode="&#x1c1;" horiz-adv-x="747" 
d="M466 -550v2209h107v-2209h-107zM174 -550v2209h107v-2209h-107z" />
    <glyph glyph-name="uni01C2" unicode="&#x1c2;" horiz-adv-x="1008" 
d="M85 273v93h365v377h-365v93h365v823h107v-823h365v-93h-365v-377h365v-93h-365v-823h-107v823h-365z" />
    <glyph glyph-name="uni01C3" unicode="&#x1c3;" horiz-adv-x="384" 
d="M147 441l-12 1218h114l-12 -1218h-90zM193 -9q-50 0 -82 31t-32 78t32 78t82 31t81.5 -31t31.5 -78t-31.5 -78t-81.5 -31z" />
    <glyph glyph-name="uni01CD" unicode="&#x1cd;" horiz-adv-x="1437" 
d="M19 0l625 1597h153l617 -1597h-125l-182 473h-782l-182 -473h-124zM361 571h710l-354 930zM368 2067l294 -351h111l294 351h-104l-224 -238q-10 -10 -21 -10t-21 10l-225 238h-104z" />
    <glyph glyph-name="uni01CE" unicode="&#x1ce;" horiz-adv-x="1232" 
d="M522 -37q-129 0 -226.5 44.5t-151.5 125t-54 187.5q0 160 109.5 243t335.5 99q159 11 272 24t161 30v2q0 178 -88 278.5t-266 100.5q-148 0 -248.5 -72.5t-129.5 -196.5h-113q23 112 92 193.5t171.5 125.5t224.5 44q230 0 347 -126t117 -345v-720h-80q-2 55 -5 105t-6 72
q-5 39 -23 39q-8 0 -13.5 -5.5t-15.5 -24.5q-59 -113 -163 -168t-247 -55zM200 321q0 -122 91 -194t239 -72q73 0 145.5 20t133.5 72t99 148q24 57 42 136.5t18 177.5v16q-49 -18 -158 -30.5t-274 -25.5q-178 -14 -257 -72.5t-79 -175.5zM270 1734l296 -427h90l296 427h-91
l-214 -270q-21 -25 -36 -25t-36 25l-214 270h-91z" />
    <glyph glyph-name="uni01CF" unicode="&#x1cf;" horiz-adv-x="525" 
d="M204 0v1597h117v-1597h-117zM-87 2067l294 -351h111l294 351h-104l-224 -238q-10 -10 -21 -10t-21 10l-225 238h-104z" />
    <glyph glyph-name="uni01D0" unicode="&#x1d0;" horiz-adv-x="465" 
d="M179 0v1154h106v-1154h-106zM186 1308l-245 427h84l172 -266q20 -28 35 -28t35 28l172 266h84l-245 -427h-92z" />
    <glyph glyph-name="uni01D1" unicode="&#x1d1;" horiz-adv-x="1855" 
d="M928 -38q-181 0 -333 61.5t-264 174t-173.5 265.5t-61.5 336t61.5 336t173.5 265.5t264 174t333 61.5q180 0 332 -61.5t264 -174t173.5 -265.5t61.5 -336t-61.5 -336t-173.5 -265.5t-264 -174t-332 -61.5zM928 63q208 0 368 93t251 259t91 384t-91 384t-251 259t-368 93
t-368.5 -93t-251.5 -259t-91 -384t91 -384t251.5 -259t368.5 -93zM578 2067l294 -351h111l294 351h-104l-224 -238q-10 -10 -21 -10t-21 10l-225 238h-104z" />
    <glyph glyph-name="uni01D2" unicode="&#x1d2;" horiz-adv-x="1396" 
d="M698 -37q-177 0 -316 80t-218.5 218.5t-79.5 315.5t79.5 316t218.5 218.5t316 79.5t316 -79.5t218.5 -218.5t79.5 -316t-79.5 -315.5t-218.5 -218.5t-316 -80zM698 58q147 0 260.5 67t178 184t64.5 268t-64.5 268t-178 184t-260.5 67t-260.5 -67t-178 -184t-64.5 -268
t64.5 -268t178 -184t260.5 -67zM357 1734l296 -427h90l296 427h-91l-214 -270q-21 -25 -36 -25t-36 25l-214 270h-91z" />
    <glyph glyph-name="uni01D3" unicode="&#x1d3;" horiz-adv-x="1598" 
d="M799 -38q-283 0 -448.5 158t-165.5 471v1006h117v-1005q0 -260 129 -395.5t368 -135.5t368 135.5t129 395.5v1005h117v-1006q0 -313 -165.5 -471t-448.5 -158zM449 2067l294 -351h111l294 351h-104l-224 -238q-10 -10 -21 -10t-21 10l-225 238h-104z" />
    <glyph glyph-name="uni01D4" unicode="&#x1d4;" horiz-adv-x="1338" 
d="M608 -37q-215 0 -333.5 129.5t-118.5 364.5v697h107v-694q0 -191 91 -296.5t255 -105.5q244 0 350 192q98 165 98 440v464h107v-1154h-80q-1 46 -3.5 93.5t-5.5 75.5q-3 33 -9 45t-18 12q-8 0 -15 -5t-19 -28q-62 -110 -162 -170t-244 -60zM320 1734l296 -427h90l296 427
h-91l-214 -270q-21 -25 -36 -25t-36 25l-214 270h-91z" />
    <glyph glyph-name="uni01D5" unicode="&#x1d5;" horiz-adv-x="1598" 
d="M799 -38q-283 0 -448.5 158t-165.5 471v1006h117v-1005q0 -260 129 -395.5t368 -135.5t368 135.5t129 395.5v1005h117v-1006q0 -313 -165.5 -471t-448.5 -158zM1021 1771q-40 0 -65 25t-25 61q0 35 25 61t65 26q41 0 66.5 -26t25.5 -61t-25 -60.5t-67 -25.5zM576 1771
q-41 0 -66 25.5t-25 60.5t25 61t66 26t66 -26t25 -61t-25 -60.5t-66 -25.5zM498 2110v89h602v-89h-602z" />
    <glyph glyph-name="uni01D6" unicode="&#x1d6;" horiz-adv-x="1338" 
d="M608 -37q-215 0 -333.5 129.5t-118.5 364.5v697h107v-694q0 -191 91 -296.5t255 -105.5q244 0 350 192q98 165 98 440v464h107v-1154h-80q-1 46 -3.5 93.5t-5.5 75.5q-3 33 -9 45t-18 12q-8 0 -15 -5t-19 -28q-62 -110 -162 -170t-244 -60zM865 1322q-40 0 -64.5 24.5
t-24.5 58.5q0 35 24.5 59.5t64.5 24.5q41 0 65.5 -24.5t24.5 -59.5q0 -34 -24.5 -58.5t-65.5 -24.5zM457 1322q-40 0 -64.5 24.5t-24.5 58.5q0 35 24.5 59.5t64.5 24.5q41 0 65 -24.5t24 -59.5q0 -34 -24 -58.5t-65 -24.5zM376 1631v87h570v-87h-570z" />
    <glyph glyph-name="uni01D7" unicode="&#x1d7;" horiz-adv-x="1598" 
d="M799 -38q-283 0 -448.5 158t-165.5 471v1006h117v-1005q0 -260 129 -395.5t368 -135.5t368 135.5t129 395.5v1005h117v-1006q0 -313 -165.5 -471t-448.5 -158zM1021 1771q-40 0 -65 25t-25 61q0 35 25 61t65 26q41 0 66.5 -26t25.5 -61t-25 -60.5t-67 -25.5zM576 1771
q-41 0 -66 25.5t-25 60.5t25 61t66 26t66 -26t25 -61t-25 -60.5t-66 -25.5zM740 2043l258 322h138l-298 -322h-98z" />
    <glyph glyph-name="uni01D8" unicode="&#x1d8;" horiz-adv-x="1338" 
d="M608 -37q-215 0 -333.5 129.5t-118.5 364.5v697h107v-694q0 -191 91 -296.5t255 -105.5q244 0 350 192q98 165 98 440v464h107v-1154h-80q-1 46 -3.5 93.5t-5.5 75.5q-3 33 -9 45t-18 12q-8 0 -15 -5t-19 -28q-62 -110 -162 -170t-244 -60zM865 1322q-40 0 -64.5 24.5
t-24.5 58.5q0 35 24.5 59.5t64.5 24.5q41 0 65.5 -24.5t24.5 -59.5q0 -34 -24.5 -58.5t-65.5 -24.5zM457 1322q-40 0 -64.5 24.5t-24.5 58.5q0 35 24.5 59.5t64.5 24.5q41 0 65 -24.5t24 -59.5q0 -34 -24 -58.5t-65 -24.5zM696 1586l227 337h-123l-192 -337h88z" />
    <glyph glyph-name="uni01D9" unicode="&#x1d9;" horiz-adv-x="1598" 
d="M799 -38q-283 0 -448.5 158t-165.5 471v1006h117v-1005q0 -260 129 -395.5t368 -135.5t368 135.5t129 395.5v1005h117v-1006q0 -313 -165.5 -471t-448.5 -158zM1021 1771q-40 0 -65 25t-25 61q0 35 25 61t65 26q41 0 66.5 -26t25.5 -61t-25 -60.5t-67 -25.5zM576 1771
q-41 0 -66 25.5t-25 60.5t25 61t66 26t66 -26t25 -61t-25 -60.5t-66 -25.5zM480 2353l265 -316h109l265 316h-101l-199 -209q-9 -10 -20 -10q-9 0 -19 10l-199 209h-101z" />
    <glyph glyph-name="uni01DA" unicode="&#x1da;" horiz-adv-x="1338" 
d="M608 -37q-215 0 -333.5 129.5t-118.5 364.5v697h107v-694q0 -191 91 -296.5t255 -105.5q244 0 350 192q98 165 98 440v464h107v-1154h-80q-1 46 -3.5 93.5t-5.5 75.5q-3 33 -9 45t-18 12q-8 0 -15 -5t-19 -28q-62 -110 -162 -170t-244 -60zM865 1322q-40 0 -64.5 24.5
t-24.5 58.5q0 35 24.5 59.5t64.5 24.5q41 0 65.5 -24.5t24.5 -59.5q0 -34 -24.5 -58.5t-65.5 -24.5zM457 1322q-40 0 -64.5 24.5t-24.5 58.5q0 35 24.5 59.5t64.5 24.5q41 0 65 -24.5t24 -59.5q0 -34 -24 -58.5t-65 -24.5zM357 1954l262 -368h85l261 368h-87l-186 -227
q-17 -21 -31 -21q-13 0 -31 21l-186 227h-87z" />
    <glyph glyph-name="uni01DB" unicode="&#x1db;" horiz-adv-x="1598" 
d="M799 -38q-283 0 -448.5 158t-165.5 471v1006h117v-1005q0 -260 129 -395.5t368 -135.5t368 135.5t129 395.5v1005h117v-1006q0 -313 -165.5 -471t-448.5 -158zM1021 1771q-40 0 -65 25t-25 61q0 35 25 61t65 26q41 0 66.5 -26t25.5 -61t-25 -60.5t-67 -25.5zM576 1771
q-41 0 -66 25.5t-25 60.5t25 61t66 26t66 -26t25 -61t-25 -60.5t-66 -25.5zM840 2043l-258 322h-138l298 -322h98z" />
    <glyph glyph-name="uni01DC" unicode="&#x1dc;" horiz-adv-x="1338" 
d="M608 -37q-215 0 -333.5 129.5t-118.5 364.5v697h107v-694q0 -191 91 -296.5t255 -105.5q244 0 350 192q98 165 98 440v464h107v-1154h-80q-1 46 -3.5 93.5t-5.5 75.5q-3 33 -9 45t-18 12q-8 0 -15 -5t-19 -28q-62 -110 -162 -170t-244 -60zM865 1322q-40 0 -64.5 24.5
t-24.5 58.5q0 35 24.5 59.5t64.5 24.5q41 0 65.5 -24.5t24.5 -59.5q0 -34 -24.5 -58.5t-65.5 -24.5zM457 1322q-40 0 -64.5 24.5t-24.5 58.5q0 35 24.5 59.5t64.5 24.5q41 0 65 -24.5t24 -59.5q0 -34 -24 -58.5t-65 -24.5zM626 1586l-227 337h123l192 -337h-88z" />
    <glyph glyph-name="uni01DD" unicode="&#x1dd;" horiz-adv-x="1321" 
d="M665 -37q-174 0 -304.5 73.5t-203 204t-72.5 300.5q0 14 1 34.5t2 28.5h1036q-4 147 -62 258t-161.5 172.5t-242.5 61.5q-168 0 -285 -79t-159 -210h-112q47 175 195.5 279t359.5 104q174 0 303.5 -77t201.5 -215t72 -323q0 -180 -74.5 -318t-203 -216t-291.5 -78z
M663 57q127 0 226.5 56.5t160.5 158.5t72 239h-931q2 -135 61.5 -237t165 -159.5t245.5 -57.5z" />
    <glyph glyph-name="uni01DE" unicode="&#x1de;" horiz-adv-x="1437" 
d="M19 0l625 1597h153l617 -1597h-125l-182 473h-782l-182 -473h-124zM361 571h710l-354 930zM940 1771q-40 0 -65 25t-25 61q0 35 25 61t65 26q41 0 66.5 -26t25.5 -61t-25 -60.5t-67 -25.5zM495 1771q-41 0 -66 25.5t-25 60.5t25 61t66 26t66 -26t25 -61t-25 -60.5
t-66 -25.5zM417 2110v89h602v-89h-602z" />
    <glyph glyph-name="uni01DF" unicode="&#x1df;" horiz-adv-x="1232" 
d="M522 -37q-129 0 -226.5 44.5t-151.5 125t-54 187.5q0 160 109.5 243t335.5 99q159 11 272 24t161 30v2q0 178 -88 278.5t-266 100.5q-148 0 -248.5 -72.5t-129.5 -196.5h-113q23 112 92 193.5t171.5 125.5t224.5 44q230 0 347 -126t117 -345v-720h-80q-2 55 -5 105t-6 72
q-5 39 -23 39q-8 0 -13.5 -5.5t-15.5 -24.5q-59 -113 -163 -168t-247 -55zM200 321q0 -122 91 -194t239 -72q73 0 145.5 20t133.5 72t99 148q24 57 42 136.5t18 177.5v16q-49 -18 -158 -30.5t-274 -25.5q-178 -14 -257 -72.5t-79 -175.5zM815 1322q-40 0 -64.5 24.5
t-24.5 58.5q0 35 24.5 59.5t64.5 24.5q41 0 65.5 -24.5t24.5 -59.5q0 -34 -24.5 -58.5t-65.5 -24.5zM407 1322q-40 0 -64.5 24.5t-24.5 58.5q0 35 24.5 59.5t64.5 24.5q41 0 65 -24.5t24 -59.5q0 -34 -24 -58.5t-65 -24.5zM326 1631v87h570v-87h-570z" />
    <glyph glyph-name="uni01E4" unicode="&#x1e4;" horiz-adv-x="1972" 
d="M909 -38q-173 0 -321 59t-258 169.5t-171.5 264.5t-61.5 343q0 186 62 339.5t174 265.5t264.5 172.5t333.5 60.5q193 0 350 -66.5t263.5 -190.5t149.5 -298h-126q-58 214 -224 334t-411 120q-209 0 -370.5 -92t-253 -257t-91.5 -385q0 -217 87.5 -383.5t246 -261
t370.5 -94.5t355 97.5t217 273.5q8 17 16 36h-426v96h457q26 97 35 208h110v-208h266v-96h-266v-469h-82q-1 77 -6.5 158.5t-9.5 113.5q-7 50 -30 50q-10 0 -17.5 -6t-21.5 -28q-92 -149 -243.5 -237.5t-366.5 -88.5z" />
    <glyph glyph-name="uni01E5" unicode="&#x1e5;" horiz-adv-x="1608" 
d="M53 556v93h185q11 158 87.5 280.5t202 192t281.5 69.5q145 0 252.5 -54.5t182.5 -152.5q25 -32 41 -32q20 0 24 46q4 34 6.5 82.5t3.5 73.5h80v-505h193v-93h-193v-534q0 -245 -142 -392t-408 -147q-149 0 -267.5 52t-196.5 145t-108 215h115q37 -144 160.5 -231.5
t295.5 -87.5q223 0 333.5 120.5t110.5 329.5v172q0 36 -20 36q-13 0 -31 -25q-73 -96 -183 -147t-243 -51q-160 0 -287 70t-203.5 193.5t-87.5 281.5h-184zM825 1096q-132 0 -235.5 -57t-167 -158t-73.5 -232h947q-10 132 -72 233t-165 157.5t-234 56.5zM824 106
q132 0 235 56.5t165 158t72 235.5h-947q10 -132 73 -233.5t166.5 -159t235.5 -57.5z" />
    <glyph glyph-name="Gcaron" unicode="&#x1e6;" horiz-adv-x="1814" 
d="M909 -38q-173 0 -321 59t-258 169.5t-171.5 264.5t-61.5 343q0 186 62 339.5t174 265.5t264.5 172.5t333.5 60.5q193 0 350 -66.5t263.5 -190.5t149.5 -298h-126q-58 214 -224 334t-411 120q-209 0 -370.5 -92t-253 -257t-91.5 -385q0 -217 87.5 -383.5t246 -261
t370.5 -94.5t355 97.5t217 273.5q34 71 54.5 159.5t27.5 180.5h110v-773h-82q-1 77 -6.5 158t-10.5 112q-4 30 -10 41t-19 11q-10 0 -17.5 -6t-21.5 -28q-92 -149 -243.5 -237.5t-366.5 -88.5zM567 2067l294 -351h111l294 351h-104l-224 -238q-10 -10 -21 -10t-21 10
l-225 238h-104z" />
    <glyph glyph-name="gcaron" unicode="&#x1e7;" horiz-adv-x="1423" 
d="M701 -514q-149 0 -267.5 52t-196.5 145t-108 215h115q37 -144 160.5 -231.5t295.5 -87.5q223 0 333.5 121t110.5 329v169q0 36 -20 36q-13 0 -31 -25q-73 -96 -183 -147t-243 -51q-168 0 -298.5 76.5t-205.5 210t-75 303.5q0 171 75 304.5t204.5 209.5t293.5 76
q145 0 252.5 -54.5t182.5 -152.5q25 -32 41 -32q20 0 24 46q4 34 6.5 82.5t3.5 73.5h80v-1129q0 -244 -142 -391.5t-408 -147.5zM676 106q140 0 246.5 63t167 175t60.5 259q0 145 -60.5 256t-167 174t-245.5 63t-247 -64t-169.5 -175.5t-61.5 -255.5q0 -143 61.5 -255
t169 -176t246.5 -64zM367 1734l296 -427h90l296 427h-91l-214 -270q-21 -25 -36 -25t-36 25l-214 270h-91z" />
    <glyph glyph-name="uni01E8" unicode="&#x1e8;" horiz-adv-x="1320" 
d="M204 0v1597h117v-782l844 782h145l-846 -783l878 -814h-162l-859 797v-797h-117zM349 2067l294 -351h111l294 351h-104l-224 -238q-10 -10 -21 -10t-21 10l-225 238h-104z" />
    <glyph glyph-name="uni01E9" unicode="&#x1e9;" horiz-adv-x="1076" 
d="M174 0v1659h107v-1074l643 569h149l-649 -570l665 -584h-159l-649 571v-571h-107zM-123 2129l294 -351h111l294 351h-104l-224 -238q-10 -10 -21 -10t-21 10l-225 238h-104z" />
    <glyph glyph-name="uni01EA" unicode="&#x1ea;" horiz-adv-x="1855" 
d="M928 -38q-181 0 -333 61.5t-264 174t-173.5 265.5t-61.5 336t61.5 336t173.5 265.5t264 174t333 61.5q180 0 332 -61.5t264 -174t173.5 -265.5t61.5 -336t-61.5 -336t-173.5 -265.5t-264 -174t-332 -61.5zM928 63q208 0 368 93t251 259t91 384t-91 384t-251 259t-368 93
t-368.5 -93t-251.5 -259t-91 -384t91 -384t251.5 -259t368.5 -93zM1241 -467q-104 0 -168 51t-63 144q0 95 67.5 183t215.5 185l49 -34q-227 -159 -227 -313q-1 -61 34.5 -92.5t99.5 -31.5q83 0 171 37l1 -87q-86 -42 -180 -42z" />
    <glyph glyph-name="uni01EB" unicode="&#x1eb;" horiz-adv-x="1396" 
d="M698 -37q-177 0 -316 80t-218.5 218.5t-79.5 315.5t79.5 316t218.5 218.5t316 79.5t316 -79.5t218.5 -218.5t79.5 -316t-79.5 -315.5t-218.5 -218.5t-316 -80zM698 58q147 0 260.5 67t178 184t64.5 268t-64.5 268t-178 184t-260.5 67t-260.5 -67t-178 -184t-64.5 -268
t64.5 -268t178 -184t260.5 -67zM938 -468q-100 0 -162.5 52t-62.5 146q0 95 66.5 182t216.5 186l49 -36q-235 -162 -235 -316q0 -62 37 -94.5t100 -32.5q77 0 149 33l1 -82q-74 -38 -159 -38z" />
    <glyph glyph-name="uni01EC" unicode="&#x1ec;" horiz-adv-x="1855" 
d="M928 -38q-181 0 -333 61.5t-264 174t-173.5 265.5t-61.5 336t61.5 336t173.5 265.5t264 174t333 61.5q180 0 332 -61.5t264 -174t173.5 -265.5t61.5 -336t-61.5 -336t-173.5 -265.5t-264 -174t-332 -61.5zM928 63q208 0 368 93t251 259t91 384t-91 384t-251 259t-368 93
t-368.5 -93t-251.5 -259t-91 -384t91 -384t251.5 -259t368.5 -93zM610 1789v93h636v-93h-636zM1241 -467q-104 0 -168 51t-63 144q0 95 67.5 183t215.5 185l49 -34q-227 -159 -227 -313q-1 -61 34.5 -92.5t99.5 -31.5q83 0 171 37l1 -87q-86 -42 -180 -42z" />
    <glyph glyph-name="uni01ED" unicode="&#x1ed;" horiz-adv-x="1396" 
d="M698 -37q-177 0 -316 80t-218.5 218.5t-79.5 315.5t79.5 316t218.5 218.5t316 79.5t316 -79.5t218.5 -218.5t79.5 -316t-79.5 -315.5t-218.5 -218.5t-316 -80zM698 58q147 0 260.5 67t178 184t64.5 268t-64.5 268t-178 184t-260.5 67t-260.5 -67t-178 -184t-64.5 -268
t64.5 -268t178 -184t260.5 -67zM938 -468q-100 0 -162.5 52t-62.5 146q0 95 66.5 182t216.5 186l49 -36q-235 -162 -235 -316q0 -62 37 -94.5t100 -32.5q77 0 149 33l1 -82q-74 -38 -159 -38zM380 1393v93h636v-93h-636z" />
    <glyph glyph-name="uni01EE" unicode="&#x1ee;" horiz-adv-x="1190" 
d="M590 -38q-149 0 -267.5 57t-193.5 161t-94 245h116q26 -165 143 -264.5t295 -99.5q122 0 212 50.5t139.5 139.5t49.5 203q0 187 -119.5 293.5t-321.5 106.5h-198v3l485 641h-701v99h898v-3l-487 -643h10q169 0 292 -61.5t190.5 -173t67.5 -263.5q0 -141 -65 -252
t-181 -175t-270 -64zM229 2067l294 -351h111l294 351h-104l-224 -238q-10 -10 -21 -10t-21 10l-225 238h-104z" />
    <glyph glyph-name="uni01EF" unicode="&#x1ef;" horiz-adv-x="1106" 
d="M548 -517q-147 0 -264 52t-190.5 146t-92.5 221h112q26 -148 142 -236.5t291 -88.5q122 0 214.5 52.5t144.5 146t52 215.5q0 191 -120 302t-323 111h-191v3l494 654h-718v93h903v-3l-497 -657h20q165 0 287 -62.5t189 -175.5t67 -264q0 -149 -66.5 -264t-183.5 -180
t-270 -65zM187 1734l296 -427h90l296 427h-91l-214 -270q-21 -25 -36 -25t-36 25l-214 270h-91z" />
    <glyph glyph-name="uni01F0" unicode="&#x1f0;" horiz-adv-x="465" 
d="M179 -487v1641h107v-1641h-107zM186 1308l-245 427h84l172 -266q20 -28 35 -28t35 28l172 266h84l-245 -427h-92z" />
    <glyph glyph-name="uni01F8" unicode="&#x1f8;" horiz-adv-x="1645" 
d="M204 0v1597h133l989 -1431v1431h114v-1597h-133l-988 1429v-1429h-115zM758 1716l-421 341h173l377 -341h-129z" />
    <glyph glyph-name="uni01F9" unicode="&#x1f9;" horiz-adv-x="1346" 
d="M174 0v1154h80q1 -50 3.5 -103.5t5.5 -81.5q3 -33 8.5 -45t18.5 -12q9 0 15 5t18 27q64 113 167.5 180t257.5 67q207 0 324 -129t117 -364v-698h-107v695q0 192 -90.5 296.5t-248.5 104.5q-120 0 -212 -50.5t-151 -158.5q-48 -82 -73.5 -192t-25.5 -265v-430h-107z
M631 1307l-298 427h144l255 -427h-101z" />
    <glyph glyph-name="Aringacute" unicode="&#x1fa;" horiz-adv-x="1437" 
d="M19 0l625 1597h153l617 -1597h-125l-182 473h-782l-182 -473h-124zM361 571h710l-354 930zM718 1700q-91 0 -150 56.5t-59 143.5q0 86 59 142.5t150 56.5q90 0 149 -56.5t59 -142.5q0 -87 -58.5 -143.5t-149.5 -56.5zM718 1775q53 0 88 36t35 89t-35 88.5t-88 35.5
q-54 0 -88.5 -35.5t-34.5 -88.5t34.5 -89t88.5 -36zM658 2047l258 322h138l-298 -322h-98z" />
    <glyph glyph-name="aringacute" unicode="&#x1fb;" horiz-adv-x="1232" 
d="M522 -37q-129 0 -226.5 44.5t-151.5 125t-54 187.5q0 160 109.5 243t335.5 99q159 11 272 24t161 30v2q0 178 -88 278.5t-266 100.5q-148 0 -248.5 -72.5t-129.5 -196.5h-113q23 112 92 193.5t171.5 125.5t224.5 44q230 0 347 -126t117 -345v-720h-80q-2 55 -5 105t-6 72
q-5 39 -23 39q-8 0 -13.5 -5.5t-15.5 -24.5q-59 -113 -163 -168t-247 -55zM200 321q0 -122 91 -194t239 -72q73 0 145.5 20t133.5 72t99 148q24 57 42 136.5t18 177.5v16q-49 -18 -158 -30.5t-274 -25.5q-178 -14 -257 -72.5t-79 -175.5zM610 1285q-89 0 -146.5 54.5
t-57.5 136.5q0 83 58 137.5t146 54.5q89 0 146.5 -54.5t57.5 -137.5t-57.5 -137t-146.5 -54zM610 1354q55 0 90 35t35 87q0 53 -35 88t-90 35q-54 0 -89 -35t-35 -88q0 -52 35 -87t89 -35zM645 1612l227 337h-123l-192 -337h88z" />
    <glyph glyph-name="AEacute" unicode="&#x1fc;" horiz-adv-x="2073" 
d="M-55 0l1028 1597h998v-99h-816v-636h708v-99h-708v-664h858v-99h-973v584h-580l-376 -584h-139zM519 683h521v811zM1446 1716l421 341h-173l-377 -341h129z" />
    <glyph glyph-name="aeacute" unicode="&#x1fd;" horiz-adv-x="2165" 
d="M549 -36q-206 1 -333 96.5t-127 264.5q0 152 108 236t300 84h467v9q0 218 -92 330.5t-271 112.5q-137 0 -234.5 -72t-126.5 -197h-114q23 112 90 193t167.5 125.5t221.5 43.5q169 0 281 -84t153 -235q65 151 196 235.5t302 84.5q164 0 285.5 -73.5t189 -203.5t67.5 -300
q0 -13 -0.5 -32.5t-2.5 -28.5h-995q3 -149 59 -260.5t159 -173t245 -61.5q153 0 263 79.5t143 209.5h113q-39 -176 -180 -279.5t-339 -103.5q-196 0 -332.5 99t-188.5 270q-37 -175 -162.5 -272.5t-311.5 -96.5zM1538 1098q-196 0 -317.5 -124.5t-137.5 -328.5l890 -1
q-2 135 -57.5 237t-153 159.5t-224.5 57.5zM547 56q199 -1 300 119t115 378h-445q-153 0 -235.5 -56t-82.5 -176q0 -124 97 -194t251 -71zM1117 1308l298 427h-144l-255 -427h101z" />
    <glyph glyph-name="Oslashacute" unicode="&#x1fe;" horiz-adv-x="1855" 
d="M169 -100l201 262q-128 112 -201 275.5t-73 361.5q0 183 61.5 336t173.5 265.5t264 174t333 61.5q135 0 255 -35.5t218 -100.5l152 198h136l-202 -263q127 -112 199.5 -275t72.5 -361q0 -183 -61.5 -336t-173.5 -265.5t-264 -174t-332 -61.5q-135 0 -255 35.5t-219 100.5
l-152 -198h-133zM214 799q0 -173 59 -315t164 -240l903 1173q-85 58 -189 89t-223 31q-209 0 -370 -93.5t-252.5 -259.5t-91.5 -385zM928 61q209 0 370 93.5t252 260t91 384.5q0 173 -58.5 314.5t-162.5 239.5l-904 -1172q85 -58 189.5 -89t222.5 -31zM993 1716l421 341
h-173l-377 -341h129z" />
    <glyph glyph-name="oslashacute" unicode="&#x1ff;" horiz-adv-x="1396" 
d="M150 -100l146 203q-99 83 -155.5 205t-56.5 269q0 177 79.5 316t218.5 218.5t316 79.5q90 0 170.5 -21.5t149.5 -61.5l106 147h123l-147 -204q99 -82 155.5 -204.5t56.5 -269.5q0 -177 -79.5 -316t-218.5 -218.5t-316 -79.5q-90 0 -171 21.5t-149 61.5l-105 -146h-123z
M194 577q0 -122 43 -223t119 -171l607 845q-117 70 -265 70q-147 0 -261 -67t-178.5 -184.5t-64.5 -269.5zM698 56q148 0 261.5 67t178 185t64.5 269q0 122 -43 223t-119 171l-608 -845q118 -70 266 -70zM748 1307l298 427h-144l-255 -427h101z" />
    <glyph glyph-name="uni0218" unicode="&#x218;" horiz-adv-x="1270" 
d="M667 -38q-169 0 -297.5 61.5t-207 175t-96.5 268.5h116q27 -190 155.5 -298t332.5 -108q116 0 204.5 42t138 116t49.5 171q0 112 -44.5 183.5t-142 119t-256.5 86.5q-250 62 -356.5 165.5t-106.5 279.5q0 121 60.5 213.5t168.5 145t251 52.5q214 0 344 -116.5t154 -322.5
h-113q-22 163 -121 252.5t-265 89.5q-164 0 -263.5 -84t-99.5 -224q0 -132 80 -210t287 -130q187 -46 306 -107.5t176 -154t57 -231.5q0 -128 -65.5 -226t-180.5 -153.5t-265 -55.5zM529 -532l95 409h118l-127 -409h-86z" />
    <glyph glyph-name="uni0219" unicode="&#x219;" horiz-adv-x="1074" 
d="M559 -37q-205 0 -335.5 96t-158.5 269h113q21 -127 121 -199t262 -72q147 0 233.5 65.5t86.5 164.5q0 76 -31.5 124t-109 79t-215.5 55q-214 38 -303.5 115t-89.5 214t108 227t291 90q184 0 295 -89t131 -254h-109q-44 249 -315 249q-139 0 -216.5 -60.5t-77.5 -156.5
t68 -150t232 -83q171 -30 269 -72.5t139 -109.5t41 -173q0 -92 -54 -166.5t-150.5 -118.5t-224.5 -44zM425 -602l105 449h118l-140 -449h-83z" />
    <glyph glyph-name="uni021A" unicode="&#x21a;" horiz-adv-x="1273" 
d="M579 0v1498h-555v99h1225v-99h-554v-1498h-116zM481 -532l95 409h118l-127 -409h-86z" />
    <glyph glyph-name="uni021B" unicode="&#x21b;" horiz-adv-x="774" 
d="M583 -11q-169 0 -244 92.5t-75 291.5v688h-243v93h151q53 0 75.5 19t29.5 68q4 27 7.5 77.5t7 103.5t3.5 85h76v-353h351v-93h-351v-681q0 -158 49 -228t182 -70q37 0 73.5 5.5t67.5 13.5v-90q-26 -8 -71 -15t-89 -7zM351 -602l105 449h118l-140 -449h-83z" />
    <glyph glyph-name="uni021E" unicode="&#x21e;" horiz-adv-x="1603" 
d="M204 0v1597h117v-739h961v739h116v-1597h-116v759h-961v-759h-117zM452 2067l294 -351h111l294 351h-104l-224 -238q-10 -10 -21 -10t-21 10l-225 238h-104z" />
    <glyph glyph-name="uni021F" unicode="&#x21f;" horiz-adv-x="1346" 
d="M174 0v1659h107v-696q0 -38 19 -38q8 0 14.5 6t20.5 30q62 104 162 167t251 63q207 0 324 -129t117 -364v-698h-107v695q0 192 -90.5 296.5t-248.5 104.5q-120 0 -212 -50.5t-151 -158.5q-48 -82 -73.5 -192t-25.5 -265v-430h-107zM-122 2129l294 -351h111l294 351h-104
l-224 -238q-10 -10 -21 -10t-21 10l-225 238h-104z" />
    <glyph glyph-name="uni0226" unicode="&#x226;" horiz-adv-x="1437" 
d="M19 0l625 1597h153l617 -1597h-125l-182 473h-782l-182 -473h-124zM361 571h710l-354 930zM718 1775q-44 0 -70.5 27.5t-26.5 64.5t26.5 64.5t70.5 27.5t70.5 -27.5t26.5 -64.5t-26.5 -64.5t-70.5 -27.5z" />
    <glyph glyph-name="uni0227" unicode="&#x227;" horiz-adv-x="1232" 
d="M522 -37q-129 0 -226.5 44.5t-151.5 125t-54 187.5q0 160 109.5 243t335.5 99q159 11 272 24t161 30v2q0 178 -88 278.5t-266 100.5q-148 0 -248.5 -72.5t-129.5 -196.5h-113q23 112 92 193.5t171.5 125.5t224.5 44q230 0 347 -126t117 -345v-720h-80q-2 55 -5 105t-6 72
q-5 39 -23 39q-8 0 -13.5 -5.5t-15.5 -24.5q-59 -113 -163 -168t-247 -55zM200 321q0 -122 91 -194t239 -72q73 0 145.5 20t133.5 72t99 148q24 57 42 136.5t18 177.5v16q-49 -18 -158 -30.5t-274 -25.5q-178 -14 -257 -72.5t-79 -175.5zM610 1365q-46 0 -72.5 28t-26.5 65
q0 38 26.5 66.5t72.5 28.5t72.5 -28.5t26.5 -66.5q0 -37 -26.5 -65t-72.5 -28z" />
    <glyph glyph-name="uni0228" unicode="&#x228;" horiz-adv-x="1279" 
d="M204 0v1597h972v-99h-855v-636h748v-99h-748v-664h898v-99h-1015zM776 -523q-137 0 -217.5 79.5t-88.5 211.5h104q8 -94 60 -148t138 -54q77 0 118.5 40.5t41.5 110.5q0 75 -67.5 151t-191.5 133l112 16q110 -46 179 -130t69 -176q0 -104 -69 -169t-188 -65z" />
    <glyph glyph-name="uni0229" unicode="&#x229;" horiz-adv-x="1321" 
d="M679 -36q-178 0 -311 77t-207.5 215.5t-74.5 322.5q0 181 77.5 318.5t210 215.5t298.5 78q171 0 298 -73.5t196.5 -204t69.5 -300.5q0 -13 -1 -34t-2 -29h-1036q3 -147 64 -257.5t168 -172.5t250 -62q163 0 278 79.5t149 209.5h113q-26 -117 -101 -203t-187.5 -133
t-251.5 -47zM674 1097q-132 0 -235.5 -56.5t-166 -158.5t-73.5 -239h931q-2 135 -59.5 237t-159.5 159.5t-237 57.5zM704 -530q-133 0 -212.5 78.5t-87.5 210.5h94q9 -97 63 -152t144 -55q80 0 124 41t44 114q0 76 -70.5 152t-197.5 133l106 2q115 -44 182.5 -124t67.5 -169
q0 -105 -68 -168t-189 -63z" />
    <glyph glyph-name="uni022A" unicode="&#x22a;" horiz-adv-x="1855" 
d="M928 -38q-181 0 -333 61.5t-264 174t-173.5 265.5t-61.5 336t61.5 336t173.5 265.5t264 174t333 61.5q180 0 332 -61.5t264 -174t173.5 -265.5t61.5 -336t-61.5 -336t-173.5 -265.5t-264 -174t-332 -61.5zM928 63q208 0 368 93t251 259t91 384t-91 384t-251 259t-368 93
t-368.5 -93t-251.5 -259t-91 -384t91 -384t251.5 -259t368.5 -93zM1150 1771q-40 0 -65 25t-25 61q0 35 25 61t65 26q41 0 66.5 -26t25.5 -61t-25 -60.5t-67 -25.5zM705 1771q-41 0 -66 25.5t-25 60.5t25 61t66 26t66 -26t25 -61t-25 -60.5t-66 -25.5zM627 2110v89h602v-89
h-602z" />
    <glyph glyph-name="uni022B" unicode="&#x22b;" horiz-adv-x="1396" 
d="M698 -37q-177 0 -316 80t-218.5 218.5t-79.5 315.5t79.5 316t218.5 218.5t316 79.5t316 -79.5t218.5 -218.5t79.5 -316t-79.5 -315.5t-218.5 -218.5t-316 -80zM698 58q147 0 260.5 67t178 184t64.5 268t-64.5 268t-178 184t-260.5 67t-260.5 -67t-178 -184t-64.5 -268
t64.5 -268t178 -184t260.5 -67zM902 1322q-40 0 -64.5 24.5t-24.5 58.5q0 35 24.5 59.5t64.5 24.5q41 0 65.5 -24.5t24.5 -59.5q0 -34 -24.5 -58.5t-65.5 -24.5zM494 1322q-40 0 -64.5 24.5t-24.5 58.5q0 35 24.5 59.5t64.5 24.5q41 0 65 -24.5t24 -59.5q0 -34 -24 -58.5
t-65 -24.5zM413 1631v87h570v-87h-570z" />
    <glyph glyph-name="uni022C" unicode="&#x22c;" horiz-adv-x="1855" 
d="M928 -38q-181 0 -333 61.5t-264 174t-173.5 265.5t-61.5 336t61.5 336t173.5 265.5t264 174t333 61.5q180 0 332 -61.5t264 -174t173.5 -265.5t61.5 -336t-61.5 -336t-173.5 -265.5t-264 -174t-332 -61.5zM928 63q208 0 368 93t251 259t91 384t-91 384t-251 259t-368 93
t-368.5 -93t-251.5 -259t-91 -384t91 -384t251.5 -259t368.5 -93zM1079 1740q-52 0 -92.5 23t-74.5 52.5t-67 52.5t-69 23q-87 0 -111 -125h-76q14 95 62 152t127 57q51 0 91.5 -23t74.5 -52.5t67 -52.5t69 -23q43 0 71.5 33.5t39.5 91.5h76q-14 -96 -62 -152.5t-126 -56.5z
M628 2129v89h602v-89h-602z" />
    <glyph glyph-name="uni022D" unicode="&#x22d;" horiz-adv-x="1396" 
d="M698 -37q-177 0 -316 80t-218.5 218.5t-79.5 315.5t79.5 316t218.5 218.5t316 79.5t316 -79.5t218.5 -218.5t79.5 -316t-79.5 -315.5t-218.5 -218.5t-316 -80zM698 58q147 0 260.5 67t178 184t64.5 268t-64.5 268t-178 184t-260.5 67t-260.5 -67t-178 -184t-64.5 -268
t64.5 -268t178 -184t260.5 -67zM824 1328q-45 0 -78 18.5t-60.5 43t-54.5 43t-59 18.5q-79 0 -101 -108h-78q14 88 60 140.5t120 52.5q45 0 78 -18.5t60.5 -43t54.5 -43t59 -18.5q80 0 101 109h79q-14 -90 -60.5 -142t-120.5 -52zM413 1677v87h570v-87h-570z" />
    <glyph glyph-name="uni022E" unicode="&#x22e;" horiz-adv-x="1855" 
d="M928 -38q-181 0 -333 61.5t-264 174t-173.5 265.5t-61.5 336t61.5 336t173.5 265.5t264 174t333 61.5q180 0 332 -61.5t264 -174t173.5 -265.5t61.5 -336t-61.5 -336t-173.5 -265.5t-264 -174t-332 -61.5zM928 63q208 0 368 93t251 259t91 384t-91 384t-251 259t-368 93
t-368.5 -93t-251.5 -259t-91 -384t91 -384t251.5 -259t368.5 -93zM928 1775q-44 0 -70.5 27.5t-26.5 64.5t26.5 64.5t70.5 27.5t70.5 -27.5t26.5 -64.5t-26.5 -64.5t-70.5 -27.5z" />
    <glyph glyph-name="uni022F" unicode="&#x22f;" horiz-adv-x="1396" 
d="M698 -37q-177 0 -316 80t-218.5 218.5t-79.5 315.5t79.5 316t218.5 218.5t316 79.5t316 -79.5t218.5 -218.5t79.5 -316t-79.5 -315.5t-218.5 -218.5t-316 -80zM698 58q147 0 260.5 67t178 184t64.5 268t-64.5 268t-178 184t-260.5 67t-260.5 -67t-178 -184t-64.5 -268
t64.5 -268t178 -184t260.5 -67zM697 1365q-46 0 -72.5 28t-26.5 65q0 38 26.5 66.5t72.5 28.5t72.5 -28.5t26.5 -66.5q0 -37 -26.5 -65t-72.5 -28z" />
    <glyph glyph-name="uni0230" unicode="&#x230;" horiz-adv-x="1855" 
d="M928 -38q-181 0 -333 61.5t-264 174t-173.5 265.5t-61.5 336t61.5 336t173.5 265.5t264 174t333 61.5q180 0 332 -61.5t264 -174t173.5 -265.5t61.5 -336t-61.5 -336t-173.5 -265.5t-264 -174t-332 -61.5zM928 63q208 0 368 93t251 259t91 384t-91 384t-251 259t-368 93
t-368.5 -93t-251.5 -259t-91 -384t91 -384t251.5 -259t368.5 -93zM928 1771q-41 0 -66 25.5t-25 61.5t25 62t66 26q42 0 67.5 -26t25.5 -62q0 -35 -25.5 -61t-67.5 -26zM627 2110v89h602v-89h-602z" />
    <glyph glyph-name="uni0231" unicode="&#x231;" horiz-adv-x="1396" 
d="M698 -37q-177 0 -316 80t-218.5 218.5t-79.5 315.5t79.5 316t218.5 218.5t316 79.5t316 -79.5t218.5 -218.5t79.5 -316t-79.5 -315.5t-218.5 -218.5t-316 -80zM698 58q147 0 260.5 67t178 184t64.5 268t-64.5 268t-178 184t-260.5 67t-260.5 -67t-178 -184t-64.5 -268
t64.5 -268t178 -184t260.5 -67zM697 1322q-42 0 -66.5 26t-24.5 60q0 35 24.5 60.5t66.5 25.5q43 0 67 -25.5t24 -60.5q0 -34 -24 -60t-67 -26zM412 1631v87h570v-87h-570z" />
    <glyph glyph-name="uni0232" unicode="&#x232;" horiz-adv-x="1337" 
d="M613 0v661l-590 936h135l517 -833l504 833h127l-578 -938v-659h-115zM346 1789v93h636v-93h-636z" />
    <glyph glyph-name="uni0233" unicode="&#x233;" horiz-adv-x="1166" 
d="M314 -494l218 494l-510 1154h121l448 -1030l440 1030h113l-721 -1648h-109zM269 1393v93h636v-93h-636z" />
    <glyph glyph-name="uni0237" unicode="&#x237;" horiz-adv-x="465" 
d="M179 -487v1641h107v-1641h-107z" />
    <glyph glyph-name="uni0241" unicode="&#x241;" horiz-adv-x="1000" 
d="M402 0v361q0 114 16 199.5t64.5 162t143.5 163.5q118 109 162.5 191.5t44.5 176.5q0 125 -84.5 204t-234.5 79q-134 0 -236 -73.5t-125 -228.5h-111q17 133 84 221.5t168 133t221 44.5q134 0 231 -50t150 -136.5t53 -195.5q0 -69 -21.5 -134t-74.5 -136.5t-148 -160.5
q-81 -79 -121 -144t-53 -138.5t-13 -179.5v-359h-116z" />
    <glyph glyph-name="uni0242" unicode="&#x242;" horiz-adv-x="964" 
d="M375 0v75q0 95 22.5 169t74.5 141t141 140q109 91 151 157t42 151q0 114 -84.5 190.5t-227.5 76.5q-141 0 -242 -75.5t-124 -217.5h-111q27 183 158 284t320 101q127 0 221 -46.5t145.5 -127.5t51.5 -183q0 -105 -52 -187.5t-180 -189.5q-76 -63 -120 -120.5
t-62.5 -120.5t-18.5 -145v-72h-105z" />
    <glyph glyph-name="uni0243" unicode="&#x243;" horiz-adv-x="1467" 
d="M259 0v391h-234v96h234v1110h578q227 0 347 -106.5t120 -298.5q0 -280 -263 -355q153 -34 234.5 -138t81.5 -264q0 -210 -125.5 -322.5t-363.5 -112.5h-609zM377 879h452q175 0 268.5 79.5t93.5 230.5q0 149 -92 229.5t-271 80.5h-451v-620zM375 98h484q189 0 287 87
t98 253q0 167 -100 255t-282 88h-487v-294h550v-96h-550v-293z" />
    <glyph glyph-name="uni0244" unicode="&#x244;" horiz-adv-x="1734" 
d="M-12 808v96h265v693h117v-693h994v693h117v-693h265v-96h-265v-217q0 -313 -165.5 -471t-448.5 -158t-448.5 158t-165.5 471v217h-265zM370 592q0 -260 129 -395.5t368 -135.5t368 135.5t129 395.5v216h-994v-216z" />
    <glyph glyph-name="uni0245" unicode="&#x245;" horiz-adv-x="1447" 
d="M24 0l624 1597h142l642 -1597h-127l-590 1486l-572 -1486h-119z" />
    <glyph glyph-name="uni024B" unicode="&#x24b;" horiz-adv-x="1459" 
d="M1450 -514q-142 0 -207 86t-65 240v347q0 38 -20 38q-7 0 -12 -3t-14 -17q-75 -102 -190.5 -158t-258.5 -56q-173 0 -308.5 80t-212.5 218.5t-77 315.5q0 178 77.5 316.5t212 218t303.5 79.5q148 0 262 -57.5t190 -161.5q24 -33 40 -33q12 0 17.5 10t8.5 37
q4 36 6.5 87.5t3.5 80.5h79v-1338q0 -116 44 -176.5t144 -60.5q29 0 56.5 5t54.5 13v-84q-59 -27 -134 -27zM692 58q145 0 255.5 66t173 183.5t62.5 271.5q0 152 -62.5 268.5t-173 182.5t-254.5 66q-145 0 -257 -67t-176 -184t-64 -268q0 -150 64 -267.5t176 -184.5t256 -67
z" />
    <glyph glyph-name="uni024C" unicode="&#x24c;" horiz-adv-x="1495" 
d="M248 0v727h-234v100h234v770h608q238 0 364.5 -109.5t126.5 -315.5q0 -145 -73.5 -251t-229.5 -143q121 -15 177.5 -82t74.5 -210l42 -335q16 -119 46 -151h-121q-10 10 -21.5 44.5t-18.5 90.5l-41 335q-12 98 -45 154t-99 79.5t-178 23.5h-496v-727h-116zM853 1498h-489
v-671h478q203 0 297.5 86.5t94.5 248.5q0 336 -381 336z" />
    <glyph glyph-name="uni024D" unicode="&#x24d;" horiz-adv-x="993" 
d="M212 0v495h-194v94h194v565h79q0 -29 3 -76t7 -79q3 -28 8.5 -39t15.5 -11q8 0 14.5 5.5t14.5 24.5q45 95 126.5 149t182.5 54q141 0 221 -90.5t80 -245.5q0 -17 -2 -35h-101q1 8 1.5 16t0.5 17q1 112 -53 179.5t-156 67.5q-96 0 -165.5 -55.5t-110.5 -158.5
q-48 -121 -57 -288h326v-94h-329v-4v-491h-106z" />
    <glyph glyph-name="uni0251" unicode="&#x251;" horiz-adv-x="1460" 
d="M676 -37q-170 0 -303.5 79.5t-210 218.5t-76.5 316q0 178 76.5 317t210 218.5t303.5 79.5q149 0 264 -57.5t191 -161.5q14 -20 22 -27t18 -7q12 0 17 10t8 38q5 36 7.5 87.5t2.5 80.5h80v-1155h-80q0 29 -2.5 80.5t-7.5 87.5q-3 27 -8 37t-17 10q-16 0 -40 -33
q-76 -104 -191 -161.5t-264 -57.5zM694 58q146 0 256.5 65.5t172.5 182.5t62 271t-62 271t-172.5 183t-256.5 66q-144 0 -256.5 -66.5t-176.5 -183.5t-64 -270q0 -152 64 -269.5t176.5 -183.5t256.5 -66z" />
    <glyph glyph-name="uni0253" unicode="&#x253;" horiz-adv-x="1459" 
d="M782 -37q-148 0 -262 57.5t-191 161.5q-24 33 -40 33q-12 0 -17 -10t-8 -37q-4 -36 -7 -87.5t-3 -80.5h-80v1295q0 382 356 382q62 0 127.5 -15t113.5 -42v-85q-47 23 -103.5 36t-121.5 13q-136 0 -200.5 -70t-64.5 -223v-296q0 -38 20 -38q7 0 12.5 3.5t14.5 16.5
q74 102 190 158t258 56q174 0 309 -79.5t212 -218.5t77 -316q0 -178 -77.5 -316.5t-211.5 -218t-303 -79.5zM766 58q146 0 258 67t175.5 184.5t63.5 267.5q0 151 -63.5 268t-175.5 184t-257 67q-144 0 -255 -66t-173.5 -183.5t-62.5 -271.5q0 -152 62.5 -268.5t173.5 -182.5
t254 -66z" />
    <glyph glyph-name="uni0254" unicode="&#x254;" horiz-adv-x="1324" 
d="M649 -36q-156 0 -278.5 56.5t-200.5 158.5t-102 238h113q32 -163 155.5 -261t313.5 -98q139 0 246.5 66t169 183.5t61.5 269.5q0 153 -61.5 270t-169 183t-246.5 66q-190 0 -313.5 -97.5t-155.5 -260.5h-113q24 137 102 238.5t200.5 158t278.5 56.5q171 0 304 -78.5
t209 -217t76 -318.5t-76 -318t-209 -216.5t-304 -78.5z" />
    <glyph glyph-name="uni0256" unicode="&#x256;" horiz-adv-x="1459" 
d="M1450 -514q-142 0 -207 86t-65 240v348q0 38 -20 38q-12 0 -26 -20q-74 -100 -189 -157t-259 -57q-174 0 -309 79.5t-212.5 218t-77.5 315.5t77 316t212.5 218.5t308.5 79.5q143 0 258.5 -56t190.5 -158q9 -13 14 -16.5t12 -3.5q20 0 20 38v664h107v-1843
q0 -116 44 -176.5t144 -60.5q29 0 56.5 5t54.5 13v-84q-59 -27 -134 -27zM693 58q144 0 254.5 66t173 183t62.5 268q0 154 -62.5 271.5t-173 183.5t-255.5 66q-144 0 -256 -67t-176 -184t-64 -268q0 -150 64 -267t176 -184.5t257 -67.5z" />
    <glyph glyph-name="uni0257" unicode="&#x257;" horiz-adv-x="1459" 
d="M678 -37q-169 0 -303.5 79.5t-212 218t-77.5 316.5q0 177 77 316t212.5 218.5t308.5 79.5q143 0 258.5 -56t190.5 -158q9 -13 14 -16.5t12 -3.5q20 0 20 38v356q0 154 65 240t207 86q75 0 134 -27v-84q-27 8 -54.5 13t-56.5 5q-100 0 -144 -60.5t-44 -176.5v-1347h-79
q-1 29 -3.5 80.5t-6.5 87.5q-3 27 -8.5 37t-17.5 10q-16 0 -40 -33q-76 -104 -190 -161.5t-262 -57.5zM693 58q144 0 254.5 66t173 182.5t62.5 268.5q0 154 -62.5 271.5t-173 183.5t-255.5 66q-144 0 -256 -67t-176 -184t-64 -268q0 -150 64 -267.5t176 -184.5t257 -67z" />
    <glyph glyph-name="uni0259" unicode="&#x259;" horiz-adv-x="1321" 
d="M665 -37q-174 0 -304.5 73.5t-203 204t-72.5 300.5q0 14 1 34.5t2 28.5h1036q-4 147 -62 258t-161.5 172.5t-242.5 61.5q-168 0 -285 -79t-159 -210h-112q47 175 195.5 279t359.5 104q174 0 303.5 -77t201.5 -215t72 -323q0 -180 -74.5 -318t-203 -216t-291.5 -78z
M663 57q127 0 226.5 56.5t160.5 158.5t72 239h-931q2 -135 61.5 -237t165 -159.5t245.5 -57.5z" />
    <glyph glyph-name="uni025B" unicode="&#x25b;" horiz-adv-x="1045" 
d="M537 -41q-136 0 -238 44.5t-158 123.5t-56 183q0 120 74 201.5t203 108.5q-101 26 -161.5 99.5t-60.5 168.5q0 135 105 220t284 85q177 0 285 -84.5t125 -230.5h-109q-16 105 -92 163.5t-207 58.5q-130 0 -206.5 -60t-76.5 -160q0 -97 79.5 -158.5t210.5 -61.5h197v-93
h-199q-159 0 -250.5 -65.5t-91.5 -181.5q0 -128 95 -197.5t252 -69.5q305 0 337 273h115q-16 -172 -135 -269.5t-321 -97.5z" />
    <glyph glyph-name="uni0260" unicode="&#x260;" horiz-adv-x="1425" 
d="M701 -514q-149 0 -267.5 52t-196.5 145t-108 215h115q37 -144 160.5 -231.5t295.5 -87.5q223 0 333.5 121.5t110.5 330.5v169q0 35 -20 35q-12 0 -31 -24q-73 -96 -183 -147t-243 -51q-168 0 -298.5 76.5t-205.5 209.5t-75 303t75 303.5t205.5 210t298.5 76.5
q133 0 243 -51t183 -146q18 -25 31 -25q20 0 20 36v346q0 153 65 239t206 86q33 0 71 -7.5t63 -19.5v-84q-54 18 -110 18q-100 0 -144 -60t-44 -177v-1321q0 -244 -142 -392t-408 -148zM676 107q140 0 246.5 63t167 175.5t60.5 258.5q0 145 -60.5 256t-167 174t-245.5 63
t-247 -64t-169.5 -176t-61.5 -255t61.5 -255t169 -176t246.5 -64z" />
    <glyph glyph-name="uni0263" unicode="&#x263;" horiz-adv-x="1188" 
d="M597 -517q-117 0 -190 68t-73 178q0 54 16.5 113t59.5 143t122 214l-504 955h124l445 -852l444 852h119l-502 -950q81 -133 125 -218t60.5 -144t16.5 -113q0 -110 -73 -178t-190 -68zM597 -426q71 0 113 42t42 113q0 67 -33 156t-123 234q-89 -145 -122 -234t-33 -156
q0 -70 43 -112.5t113 -42.5z" />
    <glyph glyph-name="uni0265" unicode="&#x265;" horiz-adv-x="1346" 
d="M1172 1154v-1659h-107v696q0 38 -19 38q-8 0 -14.5 -6t-20.5 -30q-62 -104 -162 -167t-251 -63q-207 0 -324 129t-117 364v698h107v-695q0 -192 90.5 -296.5t248.5 -104.5q120 0 212 50.5t151 158.5q48 82 73.5 192t25.5 265v430h107z" />
    <glyph glyph-name="uni0266" unicode="&#x266;" horiz-adv-x="1347" 
d="M175 0v1295q0 382 356 382q62 0 127.5 -15t113.5 -42v-85q-47 23 -103.5 36t-121.5 13q-136 0 -200.5 -70t-64.5 -223v-328q0 -38 19 -38q8 0 14.5 6t20.5 30q62 104 162 167t251 63q207 0 324 -129t117 -364v-698h-107v695q0 192 -90.5 296.5t-248.5 104.5
q-120 0 -212 -50.5t-151 -158.5q-48 -82 -73.5 -192t-25.5 -265v-430h-107z" />
    <glyph glyph-name="uni0267" unicode="&#x267;" horiz-adv-x="1347" 
d="M834 -514q-61 0 -127 15.5t-114 41.5v85q47 -22 103.5 -35.5t121.5 -13.5q136 0 200.5 70t64.5 223v823q0 192 -90.5 296.5t-248.5 104.5q-120 0 -212 -50.5t-151 -158.5q-48 -82 -73.5 -192t-25.5 -265v-430h-107v1295q0 382 356 382q62 0 127.5 -15t113.5 -42v-85
q-47 23 -103.5 36t-121.5 13q-136 0 -200.5 -70t-64.5 -223v-328q0 -38 19 -38q8 0 14.5 6t20.5 30q62 104 162 167t251 63q207 0 324 -129t117 -364v-830q0 -382 -356 -382z" />
    <glyph glyph-name="uni0268" unicode="&#x268;" horiz-adv-x="541" 
d="M270 1402q-42 0 -69.5 26.5t-27.5 66.5t27.5 66t69.5 26t70 -26t28 -66t-28 -66.5t-70 -26.5zM217 0v555h-193v94h193v505h107v-505h193v-94h-193v-555h-107z" />
    <glyph glyph-name="uni0269" unicode="&#x269;" horiz-adv-x="624" 
d="M480 -11q-165 0 -242.5 91.5t-77.5 286.5v787h107v-780q0 -154 51 -223t181 -69q73 0 141 20v-90q-27 -9 -71.5 -16t-88.5 -7z" />
    <glyph glyph-name="uni0272" unicode="&#x272;" horiz-adv-x="1346" 
d="M25 -514q-33 0 -75 8t-68 21v84q55 -20 120 -20q92 0 132 55.5t40 175.5v1344h80q1 -50 3.5 -103.5t5.5 -81.5q3 -33 8.5 -45t18.5 -12q9 0 15 5t18 27q64 113 167.5 180t257.5 67q207 0 324 -129t117 -364v-698h-107v695q0 192 -90.5 296.5t-248.5 104.5
q-120 0 -212 -50.5t-151 -158.5q-48 -82 -73.5 -192t-25.5 -265v-625q0 -155 -61 -237t-195 -82z" />
    <glyph glyph-name="uni0275" unicode="&#x275;" horiz-adv-x="1396" 
d="M698 -37q-177 0 -316 80t-218.5 218.5t-79.5 315.5t79.5 316t218.5 218.5t316 79.5t316 -79.5t218.5 -218.5t79.5 -316t-79.5 -315.5t-218.5 -218.5t-316 -80zM698 1098q-140 0 -249.5 -60.5t-176 -167.5t-76.5 -246h1004q-10 139 -76.5 246t-176 167.5t-249.5 60.5z
M698 56q140 0 249.5 60.5t176 168t76.5 246.5h-1004q10 -139 76.5 -246.5t176 -168t249.5 -60.5z" />
    <glyph glyph-name="uni027D" unicode="&#x27d;" horiz-adv-x="955" 
d="M531 -514q-357 0 -357 382v1286h79q1 -29 3.5 -76t6.5 -79q3 -28 8.5 -39t15.5 -11q9 0 15 5.5t15 24.5q44 95 125.5 149t182.5 54q142 0 221.5 -90.5t79.5 -245.5q0 -17 -2 -35h-101q1 8 1.5 16t0.5 17q1 112 -53 179.5t-156 67.5q-96 0 -165 -55.5t-110 -158.5
q-31 -79 -46 -171.5t-15 -214.5l1 -619q0 -152 65 -222.5t201 -70.5q90 0 165 26v-88q-87 -31 -181 -31z" />
    <glyph glyph-name="uni027E" unicode="&#x27e;" horiz-adv-x="646" 
d="M480 1165q44 0 88.5 -7t71.5 -16v-90q-68 20 -141 20q-130 0 -181 -69t-51 -223v-780h-107v787q0 195 77.5 286.5t242.5 91.5z" />
    <glyph glyph-name="uni0283" unicode="&#x283;" horiz-adv-x="468" 
d="M166 -518q-49 0 -98 10.5t-97 34.5v86q49 -22 94 -32t88 -10q90 0 130 48t40 120q0 28 -3 56.5t-8 68.5l-197 1429q-6 42 -8 71t-2 59q0 108 66.5 181t196.5 73q49 0 98 -10.5t97 -33.5v-86q-49 23 -94 32.5t-87 9.5q-90 0 -130.5 -48.5t-40.5 -119.5q0 -28 3 -56.5
t9 -68.5l197 -1429q5 -42 7 -71t2 -60q0 -107 -66.5 -180.5t-196.5 -73.5z" />
    <glyph glyph-name="uni0288" unicode="&#x288;" horiz-adv-x="737" 
d="M624 -514q-357 0 -357 382v1193h-244v93h151q53 0 76 19t30 68q4 27 7.5 77.5t7 103.5t3.5 85h75v-353h352v-93h-352v-1189q0 -153 65 -223t201 -70q90 0 166 26v-88q-88 -31 -181 -31z" />
    <glyph glyph-name="uni0289" unicode="&#x289;" horiz-adv-x="1420" 
d="M8 566v93h193v495h107v-495h794v31v464h106v-495h193v-93h-193v-566h-80q-1 46 -3.5 93.5t-4.5 75.5q-3 33 -9 45t-19 12q-8 0 -15 -5t-19 -28q-62 -110 -161.5 -170t-244.5 -60q-215 0 -333 129.5t-118 364.5v109h-193zM308 460q0 -191 90.5 -296.5t255.5 -105.5
q242 0 350 192q74 127 92 316h-788v-106z" />
    <glyph glyph-name="uni028A" unicode="&#x28a;" horiz-adv-x="1419" 
d="M709 -37q-174 0 -309 77t-212 208t-77 292q0 179 89 316t219 205h-331v93h528v-80q-109 -36 -199 -107.5t-144 -177.5t-54 -246q0 -136 61.5 -246t172 -175t256.5 -65q147 0 257.5 65t171.5 175t61 246q0 140 -54 246t-143.5 177.5t-198.5 107.5v80h527v-93h-330
q130 -68 218.5 -205t88.5 -316q0 -161 -76.5 -292t-211.5 -208t-310 -77z" />
    <glyph glyph-name="uni028B" unicode="&#x28b;" horiz-adv-x="1250" 
d="M641 -37q-226 0 -356 136.5t-130 404.5v650h107v-650q0 -223 101.5 -334.5t276.5 -111.5q200 0 302.5 156t102.5 459q0 215 -62.5 319t-200.5 104q-88 0 -168 -33v86q38 18 86 29.5t103 10.5q191 -1 271.5 -137t80.5 -370q0 -352 -130 -535.5t-384 -183.5z" />
    <glyph glyph-name="uni028C" unicode="&#x28c;" horiz-adv-x="1170" 
d="M639 1154l511 -1154h-122l-447 1030l-441 -1030h-116l503 1154h112z" />
    <glyph glyph-name="uni0292" unicode="&#x292;" horiz-adv-x="1106" 
d="M548 -517q-147 0 -264 52t-190.5 146t-92.5 221h112q26 -148 142 -236.5t291 -88.5q122 0 214.5 52.5t144.5 146t52 215.5q0 191 -120 302t-323 111h-191v3l494 654h-718v93h903v-3l-497 -657h20q165 0 287 -62.5t189 -175.5t67 -264q0 -149 -66.5 -264t-183.5 -180
t-270 -65z" />
    <glyph glyph-name="uni0294" unicode="&#x294;" horiz-adv-x="952" 
d="M370 0v399q0 132 19.5 222.5t66.5 164t131 154.5q79 77 124 136.5t64 115t19 118.5q0 125 -84 204t-228 79q-142 0 -242.5 -75.5t-123.5 -217.5h-111q27 183 158 284t320 101q128 0 222 -48t145.5 -132.5t51.5 -194.5q0 -72 -21 -135.5t-72.5 -134t-144.5 -162.5
q-75 -76 -115.5 -140t-56.5 -142.5t-16 -198.5v-397h-106z" />
    <glyph glyph-name="uni0295" unicode="&#x295;" horiz-adv-x="950" 
d="M472 0v397q0 120 -15.5 198.5t-56.5 142.5t-116 140q-92 92 -144 162t-73 134t-21 137q0 109 53.5 193.5t152.5 132.5t233 48q192 0 313 -101t146 -284h-111q-22 142 -112 217.5t-238 75.5q-151 0 -240 -79.5t-89 -207.5q0 -62 19.5 -116.5t64.5 -113.5t123 -136
q85 -81 132 -154.5t66.5 -164t19.5 -222.5v-399h-107z" />
    <glyph glyph-name="uni0298" unicode="&#x298;" horiz-adv-x="1848" 
d="M924 -38q-180 0 -331 61.5t-262.5 174t-173 265.5t-61.5 336t61.5 336t173 265.5t262.5 174t331 61.5t331 -61.5t262.5 -174t173 -265.5t61.5 -336t-61.5 -336t-173 -265.5t-262.5 -174t-331 -61.5zM924 58q209 0 370.5 94t253 261t91.5 386q0 220 -91.5 386.5
t-253 260.5t-370.5 94t-370 -94t-252.5 -260.5t-91.5 -386.5q0 -219 91.5 -386t252.5 -261t370 -94zM924 705q-46 0 -72.5 28t-26.5 65q0 38 26.5 66t72.5 28q47 0 73 -28t26 -66q0 -37 -26 -65t-73 -28z" />
    <glyph glyph-name="uni029D" unicode="&#x29d;" horiz-adv-x="464" 
d="M232 1402q-43 0 -70.5 26.5t-27.5 66.5t27.5 66t70.5 26q42 0 69.5 -26t27.5 -66t-27.5 -66.5t-69.5 -26.5zM40 -514q-100 0 -168.5 57t-68.5 155q0 91 69 149.5t181 58.5h125v1248h107v-1248h226v-90h-226v-19q1 -311 -245 -311zM37 -426q68 0 104.5 46.5t36.5 149.5v46
h-129q-62 0 -103 -33t-41 -88q0 -56 37 -88.5t95 -32.5z" />
    <glyph glyph-name="uni02BB" unicode="&#x2bb;" horiz-adv-x="491" 
d="M363 1597l-130 -645h-119l167 645h82z" />
    <glyph glyph-name="uni02BC" unicode="&#x2bc;" horiz-adv-x="466" 
d="M330 1597l-121 -579h-94l89 579h126z" />
    <glyph glyph-name="uni02BE" unicode="&#x2be;" horiz-adv-x="386" 
d="M29 952q103 5 182.5 52t124.5 126t45 179q0 101 -45 179.5t-124.5 125.5t-182.5 52v-90q110 -5 182 -80t72 -187t-72 -187t-182 -80v-90z" />
    <glyph glyph-name="uni02BF" unicode="&#x2bf;" horiz-adv-x="386" 
d="M357 952q-103 5 -182.5 52t-124.5 126t-45 179q0 101 45 179.5t124.5 125.5t182.5 52v-90q-110 -5 -182 -80t-72 -187t72 -187t182 -80v-90z" />
    <glyph glyph-name="uni02C0" unicode="&#x2c0;" horiz-adv-x="633" 
d="M240 950v47q0 86 34 148t116 126q65 52 89 88t24 85q0 59 -45 99t-123 40q-80 0 -135.5 -43t-67.5 -118h-107q17 116 100.5 182t210.5 66q122 0 197 -64t75 -162q0 -67 -33 -118.5t-114 -116.5q-67 -53 -92.5 -101.5t-25.5 -113.5v-44h-103z" />
    <glyph glyph-name="circumflex" unicode="&#x2c6;" horiz-adv-x="782" 
d="M50 1307l296 427h90l296 -427h-91l-214 270q-21 25 -36 25t-36 -25l-214 -270h-91z" />
    <glyph glyph-name="caron" unicode="&#x2c7;" horiz-adv-x="782" 
d="M50 1734l296 -427h90l296 427h-91l-214 -270q-21 -25 -36 -25t-36 25l-214 270h-91z" />
    <glyph glyph-name="uni02C9" unicode="&#x2c9;" horiz-adv-x="600" 
d="M-308 1393v93h636v-93h-636z" />
    <glyph glyph-name="uni02CA" unicode="&#x2ca;" horiz-adv-x="600" 
d="M70 1307l298 427h-144l-255 -427h101z" />
    <glyph glyph-name="uni02CB" unicode="&#x2cb;" horiz-adv-x="600" 
d="M-31 1307l-298 427h144l255 -427h-101z" />
    <glyph glyph-name="uni02D7" unicode="&#x2d7;" horiz-adv-x="1264" 
d="M188 708v99h888v-99h-888z" />
    <glyph glyph-name="breve" unicode="&#x2d8;" horiz-adv-x="795" 
d="M397 1328q-144 0 -237 81t-110 220h80q25 -100 94.5 -156t172.5 -56t172.5 56t94.5 156h80q-16 -139 -109.5 -220t-237.5 -81z" />
    <glyph glyph-name="dotaccent" unicode="&#x2d9;" horiz-adv-x="298" 
d="M149 1365q-46 0 -72.5 28t-26.5 65q0 38 26.5 66.5t72.5 28.5t72.5 -28.5t26.5 -66.5q0 -37 -26.5 -65t-72.5 -28z" />
    <glyph glyph-name="ring" unicode="&#x2da;" horiz-adv-x="552" 
d="M276 1300q-99 0 -162.5 61.5t-63.5 155.5q0 95 63.5 156.5t162.5 61.5t162.5 -61.5t63.5 -156.5q0 -94 -63.5 -155.5t-162.5 -61.5zM276 1375q62 0 101.5 40.5t39.5 101.5q0 62 -39.5 102t-101.5 40q-61 0 -101 -40t-40 -102q0 -61 40 -101.5t101 -40.5z" />
    <glyph glyph-name="ogonek" unicode="&#x2db;" horiz-adv-x="482" 
d="M270 -478q-98 0 -159.5 50.5t-61.5 140.5q0 76 51.5 150t169.5 171l66 -34q-107 -94 -150.5 -155.5t-43.5 -122.5q0 -55 36.5 -86t100.5 -31q77 0 151 44l1 -81q-74 -46 -161 -46z" />
    <glyph glyph-name="tilde" unicode="&#x2dc;" horiz-adv-x="845" 
d="M590 1331q-57 0 -101.5 25.5t-82.5 59.5t-75 59.5t-78 25.5q-47 0 -79 -36.5t-44 -102.5h-80q16 103 67 165t139 62q57 0 101.5 -25.5t82.5 -59.5t74.5 -59.5t77.5 -25.5q48 0 80 36.5t44 102.5h79q-15 -103 -66.5 -165t-138.5 -62z" />
    <glyph glyph-name="hungarumlaut" unicode="&#x2dd;" horiz-adv-x="854" 
d="M395 1307l274 427h135l-308 -427h-101zM50 1307l260 427h131l-292 -427h-99z" />
    <glyph glyph-name="uni02EE" unicode="&#x2ee;" horiz-adv-x="680" 
d="M604 1597l-136 -563h-92l106 563h122zM318 1597l-111 -563h-91l81 563h121z" />
    <glyph glyph-name="gravecomb" unicode="&#x300;" 
d="M-50 1307l-298 427h144l255 -427h-101z" />
    <glyph glyph-name="acutecomb" unicode="&#x301;" 
d="M50 1307l298 427h-144l-255 -427h101z" />
    <glyph glyph-name="uni0302" unicode="&#x302;" 
d="M-341 1307l296 427h90l296 -427h-91l-214 270q-21 25 -36 25t-36 -25l-214 -270h-91z" />
    <glyph glyph-name="tildecomb" unicode="&#x303;" 
d="M164 1331q-57 0 -101.5 25.5t-82.5 59.5t-75 59.5t-78 25.5q-47 0 -79 -36.5t-44 -102.5h-80q16 103 67 165t139 62q57 0 101.5 -25.5t82.5 -59.5t74.5 -59.5t77.5 -25.5q48 0 80 36.5t44 102.5h79q-15 -103 -66.5 -165t-138.5 -62z" />
    <glyph glyph-name="uni0304" unicode="&#x304;" 
d="M-318 1393v93h636v-93h-636z" />
    <glyph glyph-name="uni0306" unicode="&#x306;" 
d="M0 1328q-144 0 -237 81t-110 220h80q25 -100 94.5 -156t172.5 -56t172.5 56t94.5 156h80q-16 -139 -109.5 -220t-237.5 -81z" />
    <glyph glyph-name="uni0307" unicode="&#x307;" 
d="M0 1365q-46 0 -72.5 28t-26.5 65q0 38 26.5 66.5t72.5 28.5t72.5 -28.5t26.5 -66.5q0 -37 -26.5 -65t-72.5 -28z" />
    <glyph glyph-name="uni0308" unicode="&#x308;" 
d="M230 1361q-44 0 -70.5 27.5t-26.5 64.5q0 38 26.5 65t70.5 27t70.5 -27t26.5 -65q0 -37 -26.5 -64.5t-70.5 -27.5zM-230 1361q-44 0 -70.5 27.5t-26.5 64.5q0 38 26.5 65t70.5 27t70.5 -27t26.5 -65q0 -37 -26.5 -64.5t-70.5 -27.5z" />
    <glyph glyph-name="hookabovecomb" unicode="&#x309;" 
d="M-53 1309v77q200 62 200 190q0 55 -38.5 85t-108.5 30q-46 0 -98 -14.5t-101 -43.5v80q41 29 101.5 47.5t118.5 18.5q104 0 165 -50.5t61 -145.5q0 -100 -82 -173.5t-218 -100.5z" />
    <glyph glyph-name="uni030A" unicode="&#x30a;" 
d="M-1 1300q-99 0 -162.5 61.5t-63.5 155.5q0 95 63.5 156.5t162.5 61.5t162.5 -61.5t63.5 -156.5q0 -94 -63.5 -155.5t-162.5 -61.5zM-1 1375q62 0 101.5 40.5t39.5 101.5q0 62 -39.5 102t-101.5 40q-61 0 -101 -40t-40 -102q0 -61 40 -101.5t101 -40.5z" />
    <glyph glyph-name="uni030B" unicode="&#x30b;" 
d="M100 1307l274 427h135l-308 -427h-101zM-245 1307l260 427h131l-292 -427h-99z" />
    <glyph glyph-name="uni030C" unicode="&#x30c;" 
d="M-341 1734l296 -427h90l296 427h-91l-214 -270q-21 -25 -36 -25t-36 25l-214 270h-91z" />
    <glyph glyph-name="uni030D" unicode="&#x30d;" 
d="M-53 1307v427h106v-427h-106z" />
    <glyph glyph-name="uni0312" unicode="&#x312;" 
d="M162 1756l-105 -449h-118l140 449h83z" />
    <glyph glyph-name="uni031B" unicode="&#x31b;" 
d="M-33 1072v86h99q71 0 104 30.5t33 82.5q0 45 -15 93t-41 103h87q32 -61 48 -111.5t16 -102.5q0 -80 -54.5 -130.5t-154.5 -50.5h-122z" />
    <glyph glyph-name="dotbelowcomb" unicode="&#x323;" 
d="M0 -406q-46 0 -72.5 28t-26.5 65q0 38 26.5 66.5t72.5 28.5t72.5 -28.5t26.5 -66.5q0 -37 -26.5 -65t-72.5 -28z" />
    <glyph glyph-name="uni0324" unicode="&#x324;" 
d="M233 -394q-44 0 -70.5 27.5t-26.5 64.5q0 38 26.5 65t70.5 27t70.5 -27t26.5 -65q0 -37 -26.5 -64.5t-70.5 -27.5zM-233 -394q-44 0 -70.5 27.5t-26.5 64.5q0 38 26.5 65t70.5 27t70.5 -27t26.5 -65q0 -37 -26.5 -64.5t-70.5 -27.5z" />
    <glyph glyph-name="uni0325" unicode="&#x325;" 
d="M-1 -597q-99 0 -162.5 61.5t-63.5 155.5q0 95 63.5 156.5t162.5 61.5t162.5 -61.5t63.5 -156.5q0 -94 -63.5 -155.5t-162.5 -61.5zM-1 -522q62 0 101.5 40.5t39.5 101.5q0 62 -39.5 102t-101.5 40q-61 0 -101 -40t-40 -102q0 -61 40 -101.5t101 -40.5z" />
    <glyph glyph-name="uni0326" unicode="&#x326;" 
d="M-166 -602l105 449h118l-140 -449h-83z" />
    <glyph glyph-name="uni0327" unicode="&#x327;" 
d="M23 -522q-133 0 -212.5 78.5t-87.5 210.5h94q9 -97 63 -152t144 -55q80 0 124 41t44 114q0 76 -70.5 152t-197.5 133l106 2q115 -44 182.5 -124t67.5 -169q0 -105 -68 -168t-189 -63z" />
    <glyph glyph-name="uni0328" unicode="&#x328;" 
d="M-66 -478q-98 0 -159.5 50.5t-61.5 140.5q0 76 51.5 150t169.5 171l66 -34q-107 -94 -150.5 -155.5t-43.5 -122.5q0 -55 36.5 -86t100.5 -31q77 0 151 44l1 -81q-74 -46 -161 -46z" />
    <glyph glyph-name="uni0329" unicode="&#x329;" 
d="M-53 -620v427h106v-427h-106z" />
    <glyph glyph-name="uni032D" unicode="&#x32d;" 
d="M-341 -616l296 427h90l296 -427h-91l-214 270q-21 25 -36 25t-36 -25l-214 -270h-91z" />
    <glyph glyph-name="uni032E" unicode="&#x32e;" 
d="M0 -455q-144 0 -237 81t-110 220h80q25 -100 94.5 -156t172.5 -56t172.5 56t94.5 156h80q-16 -139 -109.5 -220t-237.5 -81z" />
    <glyph glyph-name="uni032F" unicode="&#x32f;" 
d="M0 -108q-144 0 -237 -81t-110 -220h80q25 100 94.5 156t172.5 56t172.5 -56t94.5 -156h80q-16 139 -109.5 220t-237.5 81z" />
    <glyph glyph-name="uni0330" unicode="&#x330;" 
d="M164 -441q-57 0 -101.5 25.5t-82.5 59.5t-75 59.5t-78 25.5q-47 0 -79 -36.5t-44 -102.5h-80q16 103 67 165t139 62q57 0 101.5 -25.5t82.5 -59.5t74.5 -59.5t77.5 -25.5q48 0 80 36.5t44 102.5h79q-15 -103 -66.5 -165t-138.5 -62z" />
    <glyph glyph-name="uni0331" unicode="&#x331;" 
d="M-318 -358v93h636v-93h-636z" />
    <glyph glyph-name="uni0332" unicode="&#x332;" 
d="M-636 -358v93h1272v-93h-1272z" />
    <glyph glyph-name="uni0394" unicode="&#x394;" horiz-adv-x="1509" 
d="M58 0l627 1597h144l622 -1597h-1393zM220 102h1065l-531 1387z" />
    <glyph glyph-name="uni03A9" unicode="&#x3a9;" horiz-adv-x="1875" 
d="M107 0v102h474q-132 64 -238 172t-168 253.5t-62 321.5q0 168 60 311.5t169.5 250t261 166t334.5 59.5t334 -59.5t260.5 -166t169.5 -250t60 -311.5q0 -176 -62 -321.5t-168 -253.5t-238 -172h474v-102h-721v88q162 45 297.5 147t216.5 254.5t81 349.5q0 200 -89 357.5
t-247.5 248.5t-367.5 91t-368 -91t-248 -248.5t-89 -357.5q0 -197 81.5 -349.5t216.5 -254.5t297 -147v-88h-721z" />
    <glyph glyph-name="uni03BC" unicode="&#x3bc;" horiz-adv-x="1356" 
d="M174 -487v1641h107v-694q0 -191 90.5 -296.5t255.5 -105.5q244 0 350 192q98 165 98 440v464h107v-1154h-81q0 46 -3 93.5t-5 75.5q-3 33 -9 45t-19 12q-8 0 -14.5 -5t-18.5 -28q-62 -110 -161.5 -170t-242.5 -60q-198 0 -295 127q-15 18 -22 23t-15 5q-20 0 -20 -36
v-569h-102z" />
    <glyph glyph-name="pi" unicode="&#x3c0;" horiz-adv-x="1496" 
d="M1346 -10q-146 0 -211 79t-65 256v736h-720v-1061h-107v1061h-233v93h1401v-93h-234v-738q0 -129 44 -185t147 -56q48 0 84 10v-87q-24 -7 -53 -11t-53 -4z" />
    <glyph glyph-name="uni058F" unicode="&#x58f;" horiz-adv-x="1380" 
d="M395 559v87h622v205h-622v87h622v112q0 239 -99.5 365t-287.5 126q-181 0 -295.5 -109.5t-144.5 -299.5h-110q38 235 183 368t365 133q243 0 372 -151t129 -430v-114h158v-87h-158v-205h158v-87h-158v-559h-112v559h-622z" />
    <glyph glyph-name="uni0E3F" unicode="&#xe3f;" horiz-adv-x="1383" 
d="M161 0v1597h435v141h102v-141h18q227 0 346.5 -106t119.5 -297q0 -281 -258 -357q151 -34 231 -138t80 -264q0 -210 -123.5 -322.5t-356.5 -112.5h-57v-141h-102v141h-435zM275 879h321v620h-321v-620zM720 1499h-22v-620h16q171 0 263 79.5t92 230.5q0 149 -89.5 229.5
t-259.5 80.5zM273 97h323v684h-323v-684zM745 781h-47v-684h45q184 0 280 87.5t96 253.5q0 167 -97.5 255t-276.5 88z" />
    <glyph glyph-name="a.sups" unicode="&#x1d43;" horiz-adv-x="1049" 
d="M447 641q-157 0 -253.5 79t-96.5 209q0 129 89 196t272 80q113 7 203.5 17t134.5 25v3q0 132 -67 207.5t-201 75.5q-111 0 -188 -54t-98 -148h-119q28 135 138 215.5t266 80.5q187 0 283.5 -101.5t96.5 -277.5v-577h-83q-1 39 -4 79.5t-6 60.5q-4 27 -19 27
q-10 0 -24 -23q-49 -94 -135 -134t-189 -40zM212 932q0 -92 69.5 -146t181.5 -54q84 0 164 36t123 142q20 46 33 106t13 130v17q-41 -15 -123 -24.5t-206 -19.5q-133 -11 -194 -54.5t-61 -132.5z" />
    <glyph glyph-name="t.sups" unicode="&#x1d57;" horiz-adv-x="752" 
d="M500 661q-155 0 -212.5 83t-57.5 229v528h-194v96h121q44 0 63 15.5t26 55.5q4 22 7.5 61.5t6.5 80t4 66.5h77v-279h279v-96h-279v-519q0 -103 33 -164.5t148 -61.5q32 0 60 4t53 11v-91q-23 -7 -61 -13t-74 -6z" />
    <glyph glyph-name="uni1DC4" unicode="&#x1dc4;" 
d="M352 1631l-163 -267h-465v84h401l143 183h84z" />
    <glyph glyph-name="uni1DC5" unicode="&#x1dc5;" 
d="M-352 1631l163 -267h465v84h-401l-143 183h-84z" />
    <glyph glyph-name="uni1DC6" unicode="&#x1dc6;" 
d="M352 1307l-163 267h-465v-84h401l143 -183h84z" />
    <glyph glyph-name="uni1DC7" unicode="&#x1dc7;" 
d="M-352 1307l163 267h465v-84h-401l-143 -183h-84z" />
    <glyph glyph-name="uni1E00" unicode="&#x1e00;" horiz-adv-x="1437" 
d="M19 0l625 1597h153l617 -1597h-125l-182 473h-782l-182 -473h-124zM361 571h710l-354 930zM719 -537q-100 0 -164.5 62t-64.5 157t64.5 157.5t164.5 62.5t164.5 -62.5t64.5 -157.5t-64.5 -157t-164.5 -62zM719 -457q60 0 99 39.5t39 99.5t-39 100t-99 40q-61 0 -99.5 -40
t-38.5 -100t39 -99.5t99 -39.5z" />
    <glyph glyph-name="uni1E01" unicode="&#x1e01;" horiz-adv-x="1232" 
d="M522 -37q-129 0 -226.5 44.5t-151.5 125t-54 187.5q0 160 109.5 243t335.5 99q159 11 272 24t161 30v2q0 178 -88 278.5t-266 100.5q-148 0 -248.5 -72.5t-129.5 -196.5h-113q23 112 92 193.5t171.5 125.5t224.5 44q230 0 347 -126t117 -345v-720h-80q-2 55 -5 105t-6 72
q-5 39 -23 39q-8 0 -13.5 -5.5t-15.5 -24.5q-59 -113 -163 -168t-247 -55zM200 321q0 -122 91 -194t239 -72q73 0 145.5 20t133.5 72t99 148q24 57 42 136.5t18 177.5v16q-49 -18 -158 -30.5t-274 -25.5q-178 -14 -257 -72.5t-79 -175.5zM627 -597q-99 0 -162.5 61.5
t-63.5 155.5q0 95 63.5 156.5t162.5 61.5t162.5 -61.5t63.5 -156.5q0 -94 -63.5 -155.5t-162.5 -61.5zM627 -522q62 0 101.5 40.5t39.5 101.5q0 62 -39.5 102t-101.5 40q-61 0 -101 -40t-40 -102q0 -61 40 -101.5t101 -40.5z" />
    <glyph glyph-name="uni1E04" unicode="&#x1e04;" horiz-adv-x="1417" 
d="M204 0v1597h574q230 0 351.5 -107t121.5 -296q0 -135 -67 -226.5t-197 -128.5q155 -35 237 -140t82 -264q0 -210 -126.5 -322.5t-366.5 -112.5h-609zM322 879h450q176 0 269.5 79.5t93.5 230.5q0 149 -92.5 229.5t-271.5 80.5h-449v-620zM321 98h483q189 0 287 87t98 253
q0 167 -99.5 255t-282.5 88h-486v-683zM703 -362q-44 0 -70.5 27.5t-26.5 64.5t26.5 64.5t70.5 27.5t70.5 -27.5t26.5 -64.5t-26.5 -64.5t-70.5 -27.5z" />
    <glyph glyph-name="uni1E05" unicode="&#x1e05;" horiz-adv-x="1459" 
d="M782 -37q-148 0 -262 57.5t-191 161.5q-24 33 -40 33q-12 0 -17 -10t-8 -37q-4 -36 -7 -87.5t-3 -80.5h-80v1659h107v-664q0 -38 20 -38q7 0 12.5 3.5t14.5 16.5q74 102 190 158t258 56q174 0 309 -79.5t212 -218.5t77 -316q0 -178 -77.5 -316.5t-211.5 -218t-303 -79.5z
M766 58q146 0 258 67t175.5 184.5t63.5 267.5q0 151 -63.5 268t-175.5 184t-257 67q-144 0 -255 -66t-173.5 -183.5t-62.5 -271.5q0 -152 62.5 -268.5t173.5 -182.5t254 -66zM769 -406q-46 0 -72.5 28t-26.5 65q0 38 26.5 66.5t72.5 28.5t72.5 -28.5t26.5 -66.5
q0 -37 -26.5 -65t-72.5 -28z" />
    <glyph glyph-name="uni1E06" unicode="&#x1e06;" horiz-adv-x="1417" 
d="M204 0v1597h574q230 0 351.5 -107t121.5 -296q0 -135 -67 -226.5t-197 -128.5q155 -35 237 -140t82 -264q0 -210 -126.5 -322.5t-366.5 -112.5h-609zM322 879h450q176 0 269.5 79.5t93.5 230.5q0 149 -92.5 229.5t-271.5 80.5h-449v-620zM321 98h483q189 0 287 87t98 253
q0 167 -99.5 255t-282.5 88h-486v-683zM384 -284v93h636v-93h-636z" />
    <glyph glyph-name="uni1E07" unicode="&#x1e07;" horiz-adv-x="1459" 
d="M782 -37q-148 0 -262 57.5t-191 161.5q-24 33 -40 33q-12 0 -17 -10t-8 -37q-4 -36 -7 -87.5t-3 -80.5h-80v1659h107v-664q0 -38 20 -38q7 0 12.5 3.5t14.5 16.5q74 102 190 158t258 56q174 0 309 -79.5t212 -218.5t77 -316q0 -178 -77.5 -316.5t-211.5 -218t-303 -79.5z
M766 58q146 0 258 67t175.5 184.5t63.5 267.5q0 151 -63.5 268t-175.5 184t-257 67q-144 0 -255 -66t-173.5 -183.5t-62.5 -271.5q0 -152 62.5 -268.5t173.5 -182.5t254 -66zM451 -358v93h636v-93h-636z" />
    <glyph glyph-name="uni1E0C" unicode="&#x1e0c;" horiz-adv-x="1673" 
d="M204 0v1597h551q248 0 432 -100.5t285.5 -280t101.5 -417.5t-101.5 -418t-285.5 -280.5t-432 -100.5h-551zM321 99h430q216 0 373.5 87t243 244.5t85.5 368.5t-85.5 368t-243 244t-373.5 87h-430v-1399zM785 -362q-44 0 -70.5 27.5t-26.5 64.5t26.5 64.5t70.5 27.5
t70.5 -27.5t26.5 -64.5t-26.5 -64.5t-70.5 -27.5z" />
    <glyph glyph-name="uni1E0D" unicode="&#x1e0d;" horiz-adv-x="1459" 
d="M678 -37q-169 0 -303.5 79.5t-212 218t-77.5 316.5q0 177 77 316t212.5 218.5t308.5 79.5q143 0 258.5 -56t190.5 -158q9 -13 14 -16.5t12 -3.5q20 0 20 38v664h107v-1659h-79q-1 29 -3.5 80.5t-6.5 87.5q-3 27 -8.5 37t-17.5 10q-16 0 -40 -33q-76 -104 -190 -161.5
t-262 -57.5zM693 58q144 0 254.5 66t173 182.5t62.5 268.5q0 154 -62.5 271.5t-173 183.5t-255.5 66q-144 0 -256 -67t-176 -184t-64 -268q0 -150 64 -267.5t176 -184.5t257 -67zM718 -406q-46 0 -72.5 28t-26.5 65q0 38 26.5 66.5t72.5 28.5t72.5 -28.5t26.5 -66.5
q0 -37 -26.5 -65t-72.5 -28z" />
    <glyph glyph-name="uni1E0E" unicode="&#x1e0e;" horiz-adv-x="1673" 
d="M204 0v1597h551q248 0 432 -100.5t285.5 -280t101.5 -417.5t-101.5 -418t-285.5 -280.5t-432 -100.5h-551zM321 99h430q216 0 373.5 87t243 244.5t85.5 368.5t-85.5 368t-243 244t-373.5 87h-430v-1399zM466 -284v93h636v-93h-636z" />
    <glyph glyph-name="uni1E0F" unicode="&#x1e0f;" horiz-adv-x="1459" 
d="M678 -37q-169 0 -303.5 79.5t-212 218t-77.5 316.5q0 177 77 316t212.5 218.5t308.5 79.5q143 0 258.5 -56t190.5 -158q9 -13 14 -16.5t12 -3.5q20 0 20 38v664h107v-1659h-79q-1 29 -3.5 80.5t-6.5 87.5q-3 27 -8.5 37t-17.5 10q-16 0 -40 -33q-76 -104 -190 -161.5
t-262 -57.5zM693 58q144 0 254.5 66t173 182.5t62.5 268.5q0 154 -62.5 271.5t-173 183.5t-255.5 66q-144 0 -256 -67t-176 -184t-64 -268q0 -150 64 -267.5t176 -184.5t257 -67zM400 -358v93h636v-93h-636z" />
    <glyph glyph-name="uni1E10" unicode="&#x1e10;" horiz-adv-x="1673" 
d="M204 0v1597h551q248 0 432 -100.5t285.5 -280t101.5 -417.5t-101.5 -418t-285.5 -280.5t-432 -100.5h-551zM321 99h430q216 0 373.5 87t243 244.5t85.5 368.5t-85.5 368t-243 244t-373.5 87h-430v-1399zM628 -532l95 409h118l-127 -409h-86z" />
    <glyph glyph-name="uni1E11" unicode="&#x1e11;" horiz-adv-x="1459" 
d="M678 -37q-169 0 -303.5 79.5t-212 218t-77.5 316.5q0 177 77 316t212.5 218.5t308.5 79.5q143 0 258.5 -56t190.5 -158q9 -13 14 -16.5t12 -3.5q20 0 20 38v664h107v-1659h-79q-1 29 -3.5 80.5t-6.5 87.5q-3 27 -8.5 37t-17.5 10q-16 0 -40 -33q-76 -104 -190 -161.5
t-262 -57.5zM693 58q144 0 254.5 66t173 182.5t62.5 268.5q0 154 -62.5 271.5t-173 183.5t-255.5 66q-144 0 -256 -67t-176 -184t-64 -268q0 -150 64 -267.5t176 -184.5t257 -67zM555 -602l105 449h118l-140 -449h-83z" />
    <glyph glyph-name="uni1E12" unicode="&#x1e12;" horiz-adv-x="1673" 
d="M204 0v1597h551q248 0 432 -100.5t285.5 -280t101.5 -417.5t-101.5 -418t-285.5 -280.5t-432 -100.5h-551zM321 99h430q216 0 373.5 87t243 244.5t85.5 368.5t-85.5 368t-243 244t-373.5 87h-430v-1399zM434 -474l294 351h111l294 -351h-104l-224 238q-10 10 -21 10
t-21 -10l-225 -238h-104z" />
    <glyph glyph-name="uni1E13" unicode="&#x1e13;" horiz-adv-x="1459" 
d="M678 -37q-169 0 -303.5 79.5t-212 218t-77.5 316.5q0 177 77 316t212.5 218.5t308.5 79.5q143 0 258.5 -56t190.5 -158q9 -13 14 -16.5t12 -3.5q20 0 20 38v664h107v-1659h-79q-1 29 -3.5 80.5t-6.5 87.5q-3 27 -8.5 37t-17.5 10q-16 0 -40 -33q-76 -104 -190 -161.5
t-262 -57.5zM693 58q144 0 254.5 66t173 182.5t62.5 268.5q0 154 -62.5 271.5t-173 183.5t-255.5 66q-144 0 -256 -67t-176 -184t-64 -268q0 -150 64 -267.5t176 -184.5t257 -67zM377 -616l296 427h90l296 -427h-91l-214 270q-21 25 -36 25t-36 -25l-214 -270h-91z" />
    <glyph glyph-name="uni1E1A" unicode="&#x1e1a;" horiz-adv-x="1279" 
d="M204 0v1597h972v-99h-855v-636h748v-99h-748v-664h898v-99h-1015zM920 -409q-57 0 -101.5 25.5t-82.5 59.5t-75 59.5t-78 25.5q-47 0 -79 -36.5t-44 -102.5h-80q16 103 67 165t139 62q57 0 101.5 -25.5t82.5 -59.5t74.5 -59.5t77.5 -25.5q48 0 80 36.5t44 102.5h79
q-15 -103 -66.5 -165t-138.5 -62z" />
    <glyph glyph-name="uni1E1B" unicode="&#x1e1b;" horiz-adv-x="1321" 
d="M679 -36q-178 0 -311 77t-207.5 215.5t-74.5 322.5q0 181 77.5 318.5t210 215.5t298.5 78q171 0 298 -73.5t196.5 -204t69.5 -300.5q0 -13 -1 -34t-2 -29h-1036q3 -147 64 -257.5t168 -172.5t250 -62q163 0 278 79.5t149 209.5h113q-26 -117 -101 -203t-187.5 -133
t-251.5 -47zM674 1097q-132 0 -235.5 -56.5t-166 -158.5t-73.5 -239h931q-2 135 -59.5 237t-159.5 159.5t-237 57.5zM865 -441q-57 0 -101.5 25.5t-82.5 59.5t-75 59.5t-78 25.5q-47 0 -79 -36.5t-44 -102.5h-80q16 103 67 165t139 62q57 0 101.5 -25.5t82.5 -59.5
t74.5 -59.5t77.5 -25.5q48 0 80 36.5t44 102.5h79q-15 -103 -66.5 -165t-138.5 -62z" />
    <glyph glyph-name="uni1E20" unicode="&#x1e20;" horiz-adv-x="1814" 
d="M909 -38q-173 0 -321 59t-258 169.5t-171.5 264.5t-61.5 343q0 186 62 339.5t174 265.5t264.5 172.5t333.5 60.5q193 0 350 -66.5t263.5 -190.5t149.5 -298h-126q-58 214 -224 334t-411 120q-209 0 -370.5 -92t-253 -257t-91.5 -385q0 -217 87.5 -383.5t246 -261
t370.5 -94.5t355 97.5t217 273.5q34 71 54.5 159.5t27.5 180.5h110v-773h-82q-1 77 -6.5 158t-10.5 112q-4 30 -10 41t-19 11q-10 0 -17.5 -6t-21.5 -28q-92 -149 -243.5 -237.5t-366.5 -88.5zM599 1789v93h636v-93h-636z" />
    <glyph glyph-name="uni1E21" unicode="&#x1e21;" horiz-adv-x="1423" 
d="M701 -514q-149 0 -267.5 52t-196.5 145t-108 215h115q37 -144 160.5 -231.5t295.5 -87.5q223 0 333.5 121t110.5 329v169q0 36 -20 36q-13 0 -31 -25q-73 -96 -183 -147t-243 -51q-168 0 -298.5 76.5t-205.5 210t-75 303.5q0 171 75 304.5t204.5 209.5t293.5 76
q145 0 252.5 -54.5t182.5 -152.5q25 -32 41 -32q20 0 24 46q4 34 6.5 82.5t3.5 73.5h80v-1129q0 -244 -142 -391.5t-408 -147.5zM676 106q140 0 246.5 63t167 175t60.5 259q0 145 -60.5 256t-167 174t-245.5 63t-247 -64t-169.5 -175.5t-61.5 -255.5q0 -143 61.5 -255
t169 -176t246.5 -64zM390 1393v93h636v-93h-636z" />
    <glyph glyph-name="uni1E22" unicode="&#x1e22;" horiz-adv-x="1603" 
d="M204 0v1597h117v-739h961v739h116v-1597h-116v759h-961v-759h-117zM802 1775q-44 0 -70.5 27.5t-26.5 64.5t26.5 64.5t70.5 27.5t70.5 -27.5t26.5 -64.5t-26.5 -64.5t-70.5 -27.5z" />
    <glyph glyph-name="uni1E23" unicode="&#x1e23;" horiz-adv-x="1346" 
d="M174 0v1659h107v-696q0 -38 19 -38q8 0 14.5 6t20.5 30q62 104 162 167t251 63q207 0 324 -129t117 -364v-698h-107v695q0 192 -90.5 296.5t-248.5 104.5q-120 0 -212 -50.5t-151 -158.5q-48 -82 -73.5 -192t-25.5 -265v-430h-107zM228 1837q-44 0 -70.5 27.5t-26.5 64.5
t26.5 64.5t70.5 27.5t70.5 -27.5t26.5 -64.5t-26.5 -64.5t-70.5 -27.5z" />
    <glyph glyph-name="uni1E24" unicode="&#x1e24;" horiz-adv-x="1603" 
d="M204 0v1597h117v-739h961v739h116v-1597h-116v759h-961v-759h-117zM803 -362q-44 0 -70.5 27.5t-26.5 64.5t26.5 64.5t70.5 27.5t70.5 -27.5t26.5 -64.5t-26.5 -64.5t-70.5 -27.5z" />
    <glyph glyph-name="uni1E25" unicode="&#x1e25;" horiz-adv-x="1346" 
d="M174 0v1659h107v-696q0 -38 19 -38q8 0 14.5 6t20.5 30q62 104 162 167t251 63q207 0 324 -129t117 -364v-698h-107v695q0 192 -90.5 296.5t-248.5 104.5q-120 0 -212 -50.5t-151 -158.5q-48 -82 -73.5 -192t-25.5 -265v-430h-107zM692 -406q-46 0 -72.5 28t-26.5 65
q0 38 26.5 66.5t72.5 28.5t72.5 -28.5t26.5 -66.5q0 -37 -26.5 -65t-72.5 -28z" />
    <glyph glyph-name="uni1E26" unicode="&#x1e26;" horiz-adv-x="1603" 
d="M204 0v1597h117v-739h961v739h116v-1597h-116v759h-961v-759h-117zM1047 1793q-44 0 -70.5 27.5t-26.5 64.5q0 38 26.5 65t70.5 27t70.5 -27t26.5 -65q0 -37 -26.5 -64.5t-70.5 -27.5zM557 1793q-44 0 -70.5 27.5t-26.5 64.5q0 38 26.5 65t70.5 27t70.5 -27t26.5 -65
q0 -37 -26.5 -64.5t-70.5 -27.5z" />
    <glyph glyph-name="uni1E27" unicode="&#x1e27;" horiz-adv-x="1346" 
d="M174 0v1659h107v-696q0 -38 19 -38q8 0 14.5 6t20.5 30q62 104 162 167t251 63q207 0 324 -129t117 -364v-698h-107v695q0 192 -90.5 296.5t-248.5 104.5q-120 0 -212 -50.5t-151 -158.5q-48 -82 -73.5 -192t-25.5 -265v-430h-107zM473 1855q-44 0 -70.5 27.5t-26.5 64.5
q0 38 26.5 65t70.5 27t70.5 -27t26.5 -65q0 -37 -26.5 -64.5t-70.5 -27.5zM-17 1855q-44 0 -70.5 27.5t-26.5 64.5q0 38 26.5 65t70.5 27t70.5 -27t26.5 -65q0 -37 -26.5 -64.5t-70.5 -27.5z" />
    <glyph glyph-name="uni1E28" unicode="&#x1e28;" horiz-adv-x="1603" 
d="M204 0v1597h117v-739h961v739h116v-1597h-116v759h-961v-759h-117zM308 -524q-137 0 -217.5 79.5t-88.5 211.5h104q8 -94 60 -148t138 -54q77 0 118.5 40.5t41.5 110.5q0 75 -67.5 151t-191.5 133l112 16q110 -46 179 -130t69 -176q0 -104 -69 -169t-188 -65z" />
    <glyph glyph-name="uni1E29" unicode="&#x1e29;" horiz-adv-x="1346" 
d="M174 0v1659h107v-696q0 -38 19 -38q8 0 14.5 6t20.5 30q62 104 162 167t251 63q207 0 324 -129t117 -364v-698h-107v695q0 192 -90.5 296.5t-248.5 104.5q-120 0 -212 -50.5t-151 -158.5q-48 -82 -73.5 -192t-25.5 -265v-430h-107zM273 -522q-133 0 -212.5 78.5
t-87.5 210.5h94q9 -97 63 -152t144 -55q80 0 124 41t44 114q0 76 -70.5 152t-197.5 133l106 2q115 -44 182.5 -124t67.5 -169q0 -105 -68 -168t-189 -63z" />
    <glyph glyph-name="uni1E2A" unicode="&#x1e2a;" horiz-adv-x="1603" 
d="M204 0v1597h117v-739h961v739h116v-1597h-116v759h-961v-759h-117zM802 -410q-142 0 -233 77t-108 210h82q51 -197 259 -197t259 197h82q-16 -133 -107.5 -210t-233.5 -77z" />
    <glyph glyph-name="uni1E2B" unicode="&#x1e2b;" horiz-adv-x="1346" 
d="M174 0v1659h107v-696q0 -38 19 -38q8 0 14.5 6t20.5 30q62 104 162 167t251 63q207 0 324 -129t117 -364v-698h-107v695q0 192 -90.5 296.5t-248.5 104.5q-120 0 -212 -50.5t-151 -158.5q-48 -82 -73.5 -192t-25.5 -265v-430h-107zM692 -455q-144 0 -237 81t-110 220h80
q25 -100 94.5 -156t172.5 -56t172.5 56t94.5 156h80q-16 -139 -109.5 -220t-237.5 -81z" />
    <glyph glyph-name="uni1E2C" unicode="&#x1e2c;" horiz-adv-x="525" 
d="M204 0v1597h117v-1597h-117zM433 -409q-57 0 -101.5 25.5t-82.5 59.5t-75 59.5t-78 25.5q-47 0 -79 -36.5t-44 -102.5h-80q16 103 67 165t139 62q57 0 101.5 -25.5t82.5 -59.5t74.5 -59.5t77.5 -25.5q48 0 80 36.5t44 102.5h79q-15 -103 -66.5 -165t-138.5 -62z" />
    <glyph glyph-name="uni1E2D" unicode="&#x1e2d;" horiz-adv-x="496" 
d="M263 1402q-42 0 -70 26.5t-28 66.5t28 66t70 26t69.5 -26t27.5 -66t-27.5 -66.5t-69.5 -26.5zM209 0v1154h107v-1154h-107zM403 -452q-49 0 -86.5 22.5t-68.5 52.5t-60 52.5t-62 22.5q-77 0 -93 -125h-81q8 93 53 153t121 60q50 0 87 -22.5t67.5 -52.5t59.5 -52.5
t62 -22.5q38 0 62 33t32 91h81q-9 -92 -54 -152t-120 -60z" />
    <glyph glyph-name="uni1E2E" unicode="&#x1e2e;" horiz-adv-x="525" 
d="M204 0v1597h117v-1597h-117zM485 1771q-40 0 -65 25t-25 61q0 35 25 61t65 26q41 0 66.5 -26t25.5 -61t-25 -60.5t-67 -25.5zM40 1771q-41 0 -66 25.5t-25 60.5t25 61t66 26t66 -26t25 -61t-25 -60.5t-66 -25.5zM204 2043l258 322h138l-298 -322h-98z" />
    <glyph glyph-name="uni1E2F" unicode="&#x1e2f;" horiz-adv-x="465" 
d="M179 0v1154h106v-1154h-106zM436 1322q-40 0 -64.5 24.5t-24.5 58.5q0 35 24.5 59.5t64.5 24.5q41 0 65.5 -24.5t24.5 -59.5q0 -34 -24.5 -58.5t-65.5 -24.5zM28 1322q-40 0 -64.5 24.5t-24.5 58.5q0 35 24.5 59.5t64.5 24.5q41 0 65 -24.5t24 -59.5q0 -34 -24 -58.5
t-65 -24.5zM267 1586l227 337h-123l-192 -337h88z" />
    <glyph glyph-name="uni1E32" unicode="&#x1e32;" horiz-adv-x="1320" 
d="M204 0v1597h117v-782l844 782h145l-846 -783l878 -814h-162l-859 797v-797h-117zM724 -362q-44 0 -70.5 27.5t-26.5 64.5t26.5 64.5t70.5 27.5t70.5 -27.5t26.5 -64.5t-26.5 -64.5t-70.5 -27.5z" />
    <glyph glyph-name="uni1E33" unicode="&#x1e33;" horiz-adv-x="1076" 
d="M174 0v1659h107v-1074l643 569h149l-649 -570l665 -584h-159l-649 571v-571h-107zM590 -406q-46 0 -72.5 28t-26.5 65q0 38 26.5 66.5t72.5 28.5t72.5 -28.5t26.5 -66.5q0 -37 -26.5 -65t-72.5 -28z" />
    <glyph glyph-name="uni1E34" unicode="&#x1e34;" horiz-adv-x="1320" 
d="M204 0v1597h117v-782l844 782h145l-846 -783l878 -814h-162l-859 797v-797h-117zM405 -284v93h636v-93h-636z" />
    <glyph glyph-name="uni1E35" unicode="&#x1e35;" horiz-adv-x="1076" 
d="M174 0v1659h107v-1074l643 569h149l-649 -570l665 -584h-159l-649 571v-571h-107zM272 -358v93h636v-93h-636z" />
    <glyph glyph-name="uni1E36" unicode="&#x1e36;" horiz-adv-x="1179" 
d="M204 0v1597h117v-1498h832v-99h-949zM716 -362q-44 0 -70.5 27.5t-26.5 64.5t26.5 64.5t70.5 27.5t70.5 -27.5t26.5 -64.5t-26.5 -64.5t-70.5 -27.5z" />
    <glyph glyph-name="uni1E37" unicode="&#x1e37;" horiz-adv-x="465" 
d="M179 0v1659h107v-1659h-107zM233 -406q-46 0 -72.5 28t-26.5 65q0 38 26.5 66.5t72.5 28.5t72.5 -28.5t26.5 -66.5q0 -37 -26.5 -65t-72.5 -28z" />
    <glyph glyph-name="uni1E3A" unicode="&#x1e3a;" horiz-adv-x="1179" 
d="M204 0v1597h117v-1498h832v-99h-949zM397 -284v93h636v-93h-636z" />
    <glyph glyph-name="uni1E3B" unicode="&#x1e3b;" horiz-adv-x="465" 
d="M179 0v1659h107v-1659h-107zM21 -358v93h424v-93h-424z" />
    <glyph glyph-name="uni1E3C" unicode="&#x1e3c;" horiz-adv-x="1179" 
d="M204 0v1597h117v-1498h832v-99h-949zM365 -474l294 351h111l294 -351h-104l-224 238q-10 10 -21 10t-21 -10l-225 -238h-104z" />
    <glyph glyph-name="uni1E3D" unicode="&#x1e3d;" horiz-adv-x="465" 
d="M179 0v1659h107v-1659h-107zM-148 -470l294 351h111l294 -351h-104l-224 238q-10 10 -21 10t-21 -10l-225 -238h-104z" />
    <glyph glyph-name="uni1E3E" unicode="&#x1e3e;" horiz-adv-x="1976" 
d="M204 0v1597h166l620 -1449l619 1449h162v-1597h-114v1453l-618 -1453h-103l-620 1457v-1457h-112zM1053 1716l421 341h-173l-377 -341h129z" />
    <glyph glyph-name="uni1E3F" unicode="&#x1e3f;" horiz-adv-x="2140" 
d="M174 0v1154h80q1 -50 3.5 -103.5t5.5 -81.5q3 -33 8.5 -45t18.5 -12q9 0 15 5t18 27q64 113 158 180t236 67q140 0 230.5 -66t135.5 -181q11 -30 19 -41t19 -11t18.5 7t20.5 32q67 125 166.5 192.5t241.5 67.5q195 0 305 -128.5t110 -352.5v-710h-106v695
q0 192 -84.5 296.5t-232.5 104.5q-110 0 -192.5 -50t-140.5 -159q-47 -81 -71 -190.5t-24 -257.5v-439h-107v695q0 192 -84 296.5t-233 104.5q-106 0 -187.5 -50.5t-140.5 -158.5q-48 -82 -73.5 -192t-25.5 -265v-430h-107zM1142 1307l298 427h-144l-255 -427h101z" />
    <glyph glyph-name="uni1E40" unicode="&#x1e40;" horiz-adv-x="1976" 
d="M204 0v1597h166l620 -1449l619 1449h162v-1597h-114v1453l-618 -1453h-103l-620 1457v-1457h-112zM988 1775q-44 0 -70.5 27.5t-26.5 64.5t26.5 64.5t70.5 27.5t70.5 -27.5t26.5 -64.5t-26.5 -64.5t-70.5 -27.5z" />
    <glyph glyph-name="uni1E41" unicode="&#x1e41;" horiz-adv-x="2140" 
d="M174 0v1154h80q1 -50 3.5 -103.5t5.5 -81.5q3 -33 8.5 -45t18.5 -12q9 0 15 5t18 27q64 113 158 180t236 67q140 0 230.5 -66t135.5 -181q11 -30 19 -41t19 -11t18.5 7t20.5 32q67 125 166.5 192.5t241.5 67.5q195 0 305 -128.5t110 -352.5v-710h-106v695
q0 192 -84.5 296.5t-232.5 104.5q-110 0 -192.5 -50t-140.5 -159q-47 -81 -71 -190.5t-24 -257.5v-439h-107v695q0 192 -84 296.5t-233 104.5q-106 0 -187.5 -50.5t-140.5 -158.5q-48 -82 -73.5 -192t-25.5 -265v-430h-107zM1091 1365q-46 0 -72.5 28t-26.5 65
q0 38 26.5 66.5t72.5 28.5t72.5 -28.5t26.5 -66.5q0 -37 -26.5 -65t-72.5 -28z" />
    <glyph glyph-name="uni1E42" unicode="&#x1e42;" horiz-adv-x="1976" 
d="M204 0v1597h166l620 -1449l619 1449h162v-1597h-114v1453l-618 -1453h-103l-620 1457v-1457h-112zM989 -362q-44 0 -70.5 27.5t-26.5 64.5t26.5 64.5t70.5 27.5t70.5 -27.5t26.5 -64.5t-26.5 -64.5t-70.5 -27.5z" />
    <glyph glyph-name="uni1E43" unicode="&#x1e43;" horiz-adv-x="2140" 
d="M174 0v1154h80q1 -50 3.5 -103.5t5.5 -81.5q3 -33 8.5 -45t18.5 -12q9 0 15 5t18 27q64 113 158 180t236 67q140 0 230.5 -66t135.5 -181q11 -30 19 -41t19 -11t18.5 7t20.5 32q67 125 166.5 192.5t241.5 67.5q195 0 305 -128.5t110 -352.5v-710h-106v695
q0 192 -84.5 296.5t-232.5 104.5q-110 0 -192.5 -50t-140.5 -159q-47 -81 -71 -190.5t-24 -257.5v-439h-107v695q0 192 -84 296.5t-233 104.5q-106 0 -187.5 -50.5t-140.5 -158.5q-48 -82 -73.5 -192t-25.5 -265v-430h-107zM1079 -406q-46 0 -72.5 28t-26.5 65
q0 38 26.5 66.5t72.5 28.5t72.5 -28.5t26.5 -66.5q0 -37 -26.5 -65t-72.5 -28z" />
    <glyph glyph-name="uni1E44" unicode="&#x1e44;" horiz-adv-x="1645" 
d="M204 0v1597h133l989 -1431v1431h114v-1597h-133l-988 1429v-1429h-115zM823 1775q-44 0 -70.5 27.5t-26.5 64.5t26.5 64.5t70.5 27.5t70.5 -27.5t26.5 -64.5t-26.5 -64.5t-70.5 -27.5z" />
    <glyph glyph-name="uni1E45" unicode="&#x1e45;" horiz-adv-x="1346" 
d="M174 0v1154h80q1 -50 3.5 -103.5t5.5 -81.5q3 -33 8.5 -45t18.5 -12q9 0 15 5t18 27q64 113 167.5 180t257.5 67q207 0 324 -129t117 -364v-698h-107v695q0 192 -90.5 296.5t-248.5 104.5q-120 0 -212 -50.5t-151 -158.5q-48 -82 -73.5 -192t-25.5 -265v-430h-107z
M680 1365q-46 0 -72.5 28t-26.5 65q0 38 26.5 66.5t72.5 28.5t72.5 -28.5t26.5 -66.5q0 -37 -26.5 -65t-72.5 -28z" />
    <glyph glyph-name="uni1E46" unicode="&#x1e46;" horiz-adv-x="1645" 
d="M204 0v1597h133l989 -1431v1431h114v-1597h-133l-988 1429v-1429h-115zM824 -362q-44 0 -70.5 27.5t-26.5 64.5t26.5 64.5t70.5 27.5t70.5 -27.5t26.5 -64.5t-26.5 -64.5t-70.5 -27.5z" />
    <glyph glyph-name="uni1E47" unicode="&#x1e47;" horiz-adv-x="1346" 
d="M174 0v1154h80q1 -50 3.5 -103.5t5.5 -81.5q3 -33 8.5 -45t18.5 -12q9 0 15 5t18 27q64 113 167.5 180t257.5 67q207 0 324 -129t117 -364v-698h-107v695q0 192 -90.5 296.5t-248.5 104.5q-120 0 -212 -50.5t-151 -158.5q-48 -82 -73.5 -192t-25.5 -265v-430h-107z
M691 -406q-46 0 -72.5 28t-26.5 65q0 38 26.5 66.5t72.5 28.5t72.5 -28.5t26.5 -66.5q0 -37 -26.5 -65t-72.5 -28z" />
    <glyph glyph-name="uni1E48" unicode="&#x1e48;" horiz-adv-x="1645" 
d="M204 0v1597h133l989 -1431v1431h114v-1597h-133l-988 1429v-1429h-115zM505 -284v93h636v-93h-636z" />
    <glyph glyph-name="uni1E49" unicode="&#x1e49;" horiz-adv-x="1346" 
d="M174 0v1154h80q1 -50 3.5 -103.5t5.5 -81.5q3 -33 8.5 -45t18.5 -12q9 0 15 5t18 27q64 113 167.5 180t257.5 67q207 0 324 -129t117 -364v-698h-107v695q0 192 -90.5 296.5t-248.5 104.5q-120 0 -212 -50.5t-151 -158.5q-48 -82 -73.5 -192t-25.5 -265v-430h-107z
M373 -358v93h636v-93h-636z" />
    <glyph glyph-name="uni1E4A" unicode="&#x1e4a;" horiz-adv-x="1645" 
d="M204 0v1597h133l989 -1431v1431h114v-1597h-133l-988 1429v-1429h-115zM473 -474l294 351h111l294 -351h-104l-224 238q-10 10 -21 10t-21 -10l-225 -238h-104z" />
    <glyph glyph-name="uni1E4B" unicode="&#x1e4b;" horiz-adv-x="1346" 
d="M174 0v1154h80q1 -50 3.5 -103.5t5.5 -81.5q3 -33 8.5 -45t18.5 -12q9 0 15 5t18 27q64 113 167.5 180t257.5 67q207 0 324 -129t117 -364v-698h-107v695q0 192 -90.5 296.5t-248.5 104.5q-120 0 -212 -50.5t-151 -158.5q-48 -82 -73.5 -192t-25.5 -265v-430h-107z
M350 -616l296 427h90l296 -427h-91l-214 270q-21 25 -36 25t-36 -25l-214 -270h-91z" />
    <glyph glyph-name="uni1E4C" unicode="&#x1e4c;" horiz-adv-x="1855" 
d="M928 -38q-181 0 -333 61.5t-264 174t-173.5 265.5t-61.5 336t61.5 336t173.5 265.5t264 174t333 61.5q180 0 332 -61.5t264 -174t173.5 -265.5t61.5 -336t-61.5 -336t-173.5 -265.5t-264 -174t-332 -61.5zM928 63q208 0 368 93t251 259t91 384t-91 384t-251 259t-368 93
t-368.5 -93t-251.5 -259t-91 -384t91 -384t251.5 -259t368.5 -93zM1079 1740q-52 0 -92.5 23t-74.5 52.5t-67 52.5t-69 23q-87 0 -111 -125h-76q14 95 62 152t127 57q51 0 91.5 -23t74.5 -52.5t67 -52.5t69 -23q43 0 71.5 33.5t39.5 91.5h76q-14 -96 -62 -152.5t-126 -56.5z
M870 2062l258 322h138l-298 -322h-98z" />
    <glyph glyph-name="uni1E4D" unicode="&#x1e4d;" horiz-adv-x="1396" 
d="M698 -37q-177 0 -316 80t-218.5 218.5t-79.5 315.5t79.5 316t218.5 218.5t316 79.5t316 -79.5t218.5 -218.5t79.5 -316t-79.5 -315.5t-218.5 -218.5t-316 -80zM698 58q147 0 260.5 67t178 184t64.5 268t-64.5 268t-178 184t-260.5 67t-260.5 -67t-178 -184t-64.5 -268
t64.5 -268t178 -184t260.5 -67zM824 1328q-45 0 -78 18.5t-60.5 43t-54.5 43t-59 18.5q-79 0 -101 -108h-78q14 88 60 140.5t120 52.5q45 0 78 -18.5t60.5 -43t54.5 -43t59 -18.5q80 0 101 109h79q-14 -90 -60.5 -142t-120.5 -52zM733 1632l227 337h-123l-192 -337h88z" />
    <glyph glyph-name="uni1E4E" unicode="&#x1e4e;" horiz-adv-x="1855" 
d="M928 -38q-181 0 -333 61.5t-264 174t-173.5 265.5t-61.5 336t61.5 336t173.5 265.5t264 174t333 61.5q180 0 332 -61.5t264 -174t173.5 -265.5t61.5 -336t-61.5 -336t-173.5 -265.5t-264 -174t-332 -61.5zM928 63q208 0 368 93t251 259t91 384t-91 384t-251 259t-368 93
t-368.5 -93t-251.5 -259t-91 -384t91 -384t251.5 -259t368.5 -93zM1079 1740q-52 0 -92.5 23t-74.5 52.5t-67 52.5t-69 23q-87 0 -111 -125h-76q14 95 62 152t127 57q51 0 91.5 -23t74.5 -52.5t67 -52.5t69 -23q43 0 71.5 33.5t39.5 91.5h76q-14 -96 -62 -152.5t-126 -56.5z
M1151 2111q-40 0 -65 25t-25 61q0 35 25 61t65 26q41 0 66.5 -26t25.5 -61t-25 -60.5t-67 -25.5zM706 2111q-41 0 -66 25.5t-25 60.5t25 61t66 26t66 -26t25 -61t-25 -60.5t-66 -25.5z" />
    <glyph glyph-name="uni1E4F" unicode="&#x1e4f;" horiz-adv-x="1396" 
d="M698 -37q-177 0 -316 80t-218.5 218.5t-79.5 315.5t79.5 316t218.5 218.5t316 79.5t316 -79.5t218.5 -218.5t79.5 -316t-79.5 -315.5t-218.5 -218.5t-316 -80zM698 58q147 0 260.5 67t178 184t64.5 268t-64.5 268t-178 184t-260.5 67t-260.5 -67t-178 -184t-64.5 -268
t64.5 -268t178 -184t260.5 -67zM824 1328q-45 0 -78 18.5t-60.5 43t-54.5 43t-59 18.5q-79 0 -101 -108h-78q14 88 60 140.5t120 52.5q45 0 78 -18.5t60.5 -43t54.5 -43t59 -18.5q80 0 101 109h79q-14 -90 -60.5 -142t-120.5 -52zM902 1647q-40 0 -64.5 24.5t-24.5 58.5
q0 35 24.5 59.5t64.5 24.5q41 0 65.5 -24.5t24.5 -59.5q0 -34 -24.5 -58.5t-65.5 -24.5zM494 1647q-40 0 -64.5 24.5t-24.5 58.5q0 35 24.5 59.5t64.5 24.5q41 0 65 -24.5t24 -59.5q0 -34 -24 -58.5t-65 -24.5z" />
    <glyph glyph-name="uni1E50" unicode="&#x1e50;" horiz-adv-x="1855" 
d="M928 -38q-181 0 -333 61.5t-264 174t-173.5 265.5t-61.5 336t61.5 336t173.5 265.5t264 174t333 61.5q180 0 332 -61.5t264 -174t173.5 -265.5t61.5 -336t-61.5 -336t-173.5 -265.5t-264 -174t-332 -61.5zM928 63q208 0 368 93t251 259t91 384t-91 384t-251 259t-368 93
t-368.5 -93t-251.5 -259t-91 -384t91 -384t251.5 -259t368.5 -93zM627 1789v89h602v-89h-602zM969 2010l-258 322h-138l298 -322h98z" />
    <glyph glyph-name="uni1E51" unicode="&#x1e51;" horiz-adv-x="1396" 
d="M698 -37q-177 0 -316 80t-218.5 218.5t-79.5 315.5t79.5 316t218.5 218.5t316 79.5t316 -79.5t218.5 -218.5t79.5 -316t-79.5 -315.5t-218.5 -218.5t-316 -80zM698 58q147 0 260.5 67t178 184t64.5 268t-64.5 268t-178 184t-260.5 67t-260.5 -67t-178 -184t-64.5 -268
t64.5 -268t178 -184t260.5 -67zM413 1352v87h570v-87h-570zM663 1567l-227 337h123l192 -337h-88z" />
    <glyph glyph-name="uni1E52" unicode="&#x1e52;" horiz-adv-x="1855" 
d="M928 -38q-181 0 -333 61.5t-264 174t-173.5 265.5t-61.5 336t61.5 336t173.5 265.5t264 174t333 61.5q180 0 332 -61.5t264 -174t173.5 -265.5t61.5 -336t-61.5 -336t-173.5 -265.5t-264 -174t-332 -61.5zM928 63q208 0 368 93t251 259t91 384t-91 384t-251 259t-368 93
t-368.5 -93t-251.5 -259t-91 -384t91 -384t251.5 -259t368.5 -93zM627 1789v89h602v-89h-602zM869 2010l258 322h138l-298 -322h-98z" />
    </font>
</defs>
</svg>
