<?xml version="1.0" standalone="no"?>
<!DOCTYPE svg PUBLIC "-//W3C//DTD SVG 1.1//EN" "http://www.w3.org/Graphics/SVG/1.1/DTD/svg11.dtd" >
<svg xmlns="http://www.w3.org/2000/svg" xmlns:xlink="http://www.w3.org/1999/xlink" version="1.1">
<metadata>
Created by FontForge 20170731 at Mon Feb 18 22:38:36 2019
 By Aleksey,,,
Copyright (c) 2018 Kilotype GmbH. All rights reserved.
</metadata>
<defs>
<font id="OldschoolGrotesk-Air" horiz-adv-x="0" >
  <font-face 
    font-family="Oldschool Grotesk Air"
    font-weight="100"
    font-stretch="normal"
    units-per-em="2048"
    panose-1="2 11 2 4 3 2 4 2 8 4"
    ascent="1638"
    descent="-410"
    x-height="1147"
    cap-height="1597"
    bbox="-580 -620 2726 2371"
    underline-thickness="50"
    underline-position="-175"
    unicode-range="U+000D-1F310"
  />
<missing-glyph horiz-adv-x="748" 
d="M68 0v1365h544v-1365h-544zM136 68h408v1229h-408v-1229z" />
    <glyph glyph-name="f_f" unicode="ff" horiz-adv-x="1213" 
d="M256 0v1124h-248v23h248v181q0 182 66.5 265.5t205.5 83.5q36 0 68.5 -6t59.5 -16v-22q-58 22 -127 22q-130 0 -189.5 -78.5t-59.5 -249.5v-180h539v181q0 182 66.5 265.5t205.5 83.5q40 0 76 -7t64 -18v-22q-65 25 -139 25q-130 0 -189.5 -78.5t-59.5 -249.5v-180h373
v-23h-373v-1124h-24v1124h-539v-1124h-24z" />
    <glyph glyph-name="f_i" unicode="fi" horiz-adv-x="1021" 
d="M256 0v1124h-248v23h248v181q0 182 66.5 265.5t205.5 83.5q36 0 68.5 -6t59.5 -16v-22q-58 22 -127 22q-130 0 -189.5 -78.5t-59.5 -249.5v-180h373v-23h-373v-1124h-24zM836 1431q-26 0 -43.5 16.5t-17.5 41.5t17.5 41.5t43.5 16.5t43.5 -16.5t17.5 -41.5t-17.5 -41.5
t-43.5 -16.5zM824 0v1147h24v-1147h-24z" />
    <glyph glyph-name="f_l" unicode="fl" horiz-adv-x="1021" 
d="M256 0v1124h-248v23h248v181q0 182 66.5 265.5t205.5 83.5q36 0 68.5 -6t59.5 -16v-22q-58 22 -127 22q-130 0 -189.5 -78.5t-59.5 -249.5v-180h373v-23h-373v-1124h-24zM824 0v1659h24v-1659h-24z" />
    <glyph glyph-name="f_f_i" unicode="ffi" horiz-adv-x="1584" 
d="M256 0v1124h-248v23h248v181q0 182 66.5 265.5t205.5 83.5q36 0 68.5 -6t59.5 -16v-22q-58 22 -127 22q-130 0 -189.5 -78.5t-59.5 -249.5v-180h539v181q0 182 66.5 265.5t205.5 83.5q36 0 68.5 -6t59.5 -16v-22q-58 22 -127 22q-130 0 -189.5 -78.5t-59.5 -249.5v-180
h373v-23h-373v-1124h-24v1124h-539v-1124h-24zM1399 1431q-26 0 -43.5 16.5t-17.5 41.5t17.5 41.5t43.5 16.5t43.5 -16.5t17.5 -41.5t-17.5 -41.5t-43.5 -16.5zM1387 0v1147h24v-1147h-24z" />
    <glyph glyph-name="f_f_l" unicode="ffl" horiz-adv-x="1584" 
d="M256 0v1124h-248v23h248v181q0 182 66.5 265.5t205.5 83.5q36 0 68.5 -6t59.5 -16v-22q-58 22 -127 22q-130 0 -189.5 -78.5t-59.5 -249.5v-180h539v181q0 182 66.5 265.5t205.5 83.5q36 0 68.5 -6t59.5 -16v-22q-58 22 -127 22q-130 0 -189.5 -78.5t-59.5 -249.5v-180
h373v-23h-373v-1124h-24v1124h-539v-1124h-24zM1387 0v1659h24v-1659h-24z" />
    <glyph glyph-name=".notdef" horiz-adv-x="748" 
d="M68 0v1365h544v-1365h-544zM136 68h408v1229h-408v-1229z" />
    <glyph glyph-name=".null" 
 />
    <glyph glyph-name="nonmarkingreturn" horiz-adv-x="682" 
 />
    <glyph glyph-name="NULL" 
 />
    <glyph glyph-name="CR" unicode="&#xd;" horiz-adv-x="519" 
 />
    <glyph glyph-name="space" unicode=" " horiz-adv-x="519" 
 />
    <glyph glyph-name="exclam" unicode="!" horiz-adv-x="407" 
d="M193 369l-4 1228h29l-4 -1228h-21zM203 -6q-32 0 -50.5 20.5t-18.5 45.5t18.5 45.5t50.5 20.5t50.5 -20.5t18.5 -45.5t-18.5 -45.5t-50.5 -20.5z" />
    <glyph glyph-name="quotedbl" unicode="&#x22;" horiz-adv-x="498" 
d="M115 1126l-4 471h29l-4 -471h-21zM332 1126l-4 471h29l-4 -471h-21z" />
    <glyph glyph-name="numbersign" unicode="#" horiz-adv-x="1600" 
d="M315 0l107 502h-354v23h359l116 547h-375v23h380l107 502h24l-107 -502h582l107 502h24l-107 -502h354v-23h-359l-116 -547h375v-23h-380l-107 -502h-24l107 502h-582l-107 -502h-24zM451 525h582l116 547h-582z" />
    <glyph glyph-name="dollar" unicode="$" horiz-adv-x="1159" 
d="M578 -141v142q-207 8 -338 125t-166 318h26q32 -188 156.5 -300t321.5 -120v800q-226 58 -324 149t-98 254q0 107 53.5 189.5t148.5 130.5t220 50v141h26v-141q182 -5 294.5 -108.5t136.5 -286.5h-26q-24 175 -129.5 271t-275.5 101v-731q165 -43 270.5 -96t155.5 -135
t50 -211q0 -118 -61.5 -208.5t-168.5 -141.5t-242 -51h-4v-141h-26zM181 1227q0 -151 90.5 -236t306.5 -141v724q-118 -2 -207.5 -46.5t-139.5 -122.5t-50 -178zM1055 401q0 122 -46.5 198.5t-146 126.5t-258.5 92v-795h4q130 0 231 48t158.5 133t57.5 197z" />
    <glyph glyph-name="percent" unicode="%" horiz-adv-x="1893" 
d="M416 772q-155 0 -250.5 117t-95.5 315q0 199 95.5 315.5t250.5 116.5t250.5 -116.5t95.5 -315.5q0 -198 -95.5 -315t-250.5 -117zM416 795q146 0 234 110t88 299t-88 299.5t-234 110.5t-234 -110.5t-88 -299.5t88 -299t234 -110zM350 -1l1161 1598h31l-1161 -1598h-31z
M1477 -38q-155 0 -250.5 116.5t-95.5 315.5q0 198 95.5 315t250.5 117t250.5 -117t95.5 -315q0 -199 -95.5 -315.5t-250.5 -116.5zM1477 -16q146 0 234 110.5t88 299.5t-88 299t-234 110t-234 -110t-88 -299t88 -299.5t234 -110.5z" />
    <glyph glyph-name="ampersand" unicode="&#x26;" horiz-adv-x="1423" 
d="M582 -41q-150 0 -265 55t-179.5 153t-64.5 226q0 160 103 273t352 208q-130 136 -185.5 236t-55.5 202q0 93 48 166t134.5 115t200.5 42q110 0 192 -41t128 -111t46 -158q0 -98 -45 -176.5t-148 -147t-276 -135.5l562 -587q75 111 123.5 259t65.5 330h23
q-18 -186 -68 -339t-128 -266l252 -263h-31l-234 244q-103 -139 -244 -212t-306 -73zM311 1312q0 -93 52 -190t187 -239q173 67 274 132.5t144.5 140.5t43.5 169q0 123 -93.5 205t-248.5 82q-107 0 -188 -39t-126 -107t-45 -154zM97 393q0 -122 61.5 -214.5t171 -144.5
t253.5 -52q162 0 299 72t234 207l-572 596q-164 -64 -262 -132.5t-141.5 -149t-43.5 -182.5z" />
    <glyph glyph-name="quotesingle" unicode="'" horiz-adv-x="281" 
d="M130 1126l-4 471h29l-4 -471h-21z" />
    <glyph glyph-name="parenleft" unicode="(" horiz-adv-x="515" 
d="M504 -409q-132 132 -225 307.5t-142 377t-49 412.5t49 412.5t142 377t225 307.5h23q-130 -131 -221.5 -307.5t-139.5 -378.5t-48 -411q0 -208 48 -410.5t139.5 -379t221.5 -307.5h-23z" />
    <glyph glyph-name="parenright" unicode=")" horiz-adv-x="515" 
d="M11 -409q132 132 225 307.5t142 377t49 412.5t-49 412.5t-142 377t-225 307.5h-23q130 -131 221.5 -307.5t139.5 -378.5t48 -411q0 -208 -48 -410.5t-139.5 -379t-221.5 -307.5h23z" />
    <glyph glyph-name="asterisk" unicode="*" horiz-adv-x="825" 
d="M400 911l9 334l-293 -178l-13 23l301 163l-301 164l13 23l293 -179l-9 336h25l-8 -336l293 179l12 -23l-300 -164l300 -163l-12 -23l-293 178l8 -334h-25z" />
    <glyph glyph-name="plus" unicode="+" horiz-adv-x="1300" 
d="M638 199v546h-500v23h500v547h25v-547h499v-23h-499v-546h-25z" />
    <glyph glyph-name="comma" unicode="," horiz-adv-x="310" 
d="M15 -421l140 646h31l-150 -646h-21z" />
    <glyph glyph-name="hyphen" unicode="-" horiz-adv-x="978" 
d="M99 745v23h780v-23h-780z" />
    <glyph glyph-name="period" unicode="." horiz-adv-x="360" 
d="M180 -6q-32 0 -50.5 20.5t-18.5 45.5t18.5 45.5t50.5 20.5t50.5 -20.5t18.5 -45.5t-18.5 -45.5t-50.5 -20.5z" />
    <glyph glyph-name="slash" unicode="/" horiz-adv-x="875" 
d="M63 -297l721 2044h27l-721 -2044h-27z" />
    <glyph glyph-name="zero" unicode="0" horiz-adv-x="1350" 
d="M675 -38q-172 0 -298.5 102.5t-195.5 290.5t-69 444q0 257 69 444.5t195.5 290t298.5 102.5t298.5 -102.5t195.5 -290t69 -444.5q0 -256 -69 -444t-195.5 -290.5t-298.5 -102.5zM675 -15q166 0 286.5 100t186 283t65.5 431q0 249 -65.5 431.5t-186 282.5t-286.5 100
t-286.5 -100t-186 -282.5t-65.5 -431.5q0 -248 65.5 -431t186 -283t286.5 -100z" />
    <glyph glyph-name="one" unicode="1" horiz-adv-x="715" 
d="M487 0v1530q-64 -115 -188 -224.5t-272 -182.5v27q154 78 280.5 196t187.5 251h16v-1597h-24z" />
    <glyph glyph-name="two" unicode="2" horiz-adv-x="1139" 
d="M91 0q14 181 71 313.5t172.5 242t303.5 219.5q141 83 222.5 153t116 143.5t34.5 165.5q0 109 -50.5 193.5t-142 132.5t-215.5 48q-197 0 -325.5 -113.5t-150.5 -355.5h-25q20 249 157 370.5t345 121.5q130 0 227 -51t151 -140.5t54 -205.5q0 -96 -37.5 -174t-122.5 -152
t-227 -158q-181 -107 -292 -210.5t-167 -227.5t-71 -292h940v-23h-968z" />
    <glyph glyph-name="three" unicode="3" horiz-adv-x="1207" 
d="M622 -37q-228 0 -374.5 130t-178.5 347h25q32 -210 171.5 -332t356.5 -122q137 0 239.5 55t160 155.5t57.5 235.5q0 130 -60 223t-167.5 143t-250.5 50h-207v22h204q124 0 216 46.5t143 130t51 192.5q0 172 -110 272.5t-289 100.5q-183 0 -301 -99t-151 -278h-25
q34 186 159.5 292.5t317.5 106.5q121 0 217 -47.5t151.5 -136t55.5 -211.5q0 -146 -91 -251.5t-239 -127.5q182 -21 291.5 -137.5t109.5 -290.5q0 -140 -61 -246t-169.5 -164.5t-251.5 -58.5z" />
    <glyph glyph-name="four" unicode="4" horiz-adv-x="1144" 
d="M840 0v465h-816v22l814 1110h27v-1110h227v-22h-227v-465h-25zM53 487h787v1076z" />
    <glyph glyph-name="five" unicode="5" horiz-adv-x="1226" 
d="M626 -37q-145 0 -262.5 57t-194 164t-99.5 256h24q21 -140 94.5 -242t186 -157t251.5 -55q158 0 269 68.5t169.5 187.5t58.5 269q0 140 -60 251t-168.5 175.5t-256.5 64.5q-166 0 -286 -70t-189 -197h-27l141 862h768v-23h-746l-130 -786q72 111 194 173.5t275 62.5
t267.5 -66.5t178.5 -182t64 -264.5q0 -156 -62 -280t-179 -196t-281 -72z" />
    <glyph glyph-name="six" unicode="6" horiz-adv-x="1262" 
d="M665 -37q-274 0 -412 195t-138 547q0 929 571 929q186 0 301 -116.5t144 -323.5h-25q-31 196 -137.5 306.5t-282.5 110.5q-153 0 -257.5 -68t-168 -190t-92 -287t-28.5 -359q0 -108 12 -220q2 150 49.5 251t123 161.5t164.5 86.5t175 26q145 0 256.5 -66.5t174.5 -183
t63 -268.5q0 -157 -64.5 -276.5t-175.5 -187t-253 -67.5zM663 -14q135 0 241.5 63t167.5 177.5t61 267.5q0 147 -59 258.5t-164.5 174t-245.5 62.5q-149 0 -259 -62.5t-170 -175t-60 -262.5t62 -263.5t172 -176.5t254 -63z" />
    <glyph glyph-name="seven" unicode="7" horiz-adv-x="1038" 
d="M254 0q58 262 149 524.5t230.5 525t343.5 524.5h-962v23h1007v-2q-210 -266 -353.5 -532t-236.5 -531.5t-153 -531.5h-25z" />
    <glyph glyph-name="eight" unicode="8" horiz-adv-x="1265" 
d="M632 -37q-160 0 -279.5 56.5t-185 160.5t-65.5 244q0 183 114.5 299t302.5 137q-153 22 -246 125.5t-93 261.5q0 118 57.5 205t159.5 134.5t235 47.5t235 -47.5t160 -134.5t58 -205q0 -158 -93.5 -261.5t-246.5 -125.5q189 -21 303.5 -137t114.5 -299q0 -140 -65.5 -244
t-185 -160.5t-280.5 -56.5zM632 870q197 0 312.5 99.5t115.5 277.5q0 164 -115 264.5t-313 100.5t-313 -100.5t-115 -264.5q0 -178 116 -277.5t312 -99.5zM632 -14q154 0 267.5 53.5t176 152t62.5 232.5q0 201 -138 312.5t-368 111.5t-368 -111.5t-138 -312.5
q0 -134 62.5 -232.5t176 -152t267.5 -53.5z" />
    <glyph glyph-name="nine" unicode="9" horiz-adv-x="1265" 
d="M631 -37q-134 0 -240 54.5t-173.5 153.5t-87.5 232h25q32 -190 159 -303.5t316 -113.5q151 0 247.5 67.5t149.5 189t74 283.5t21 351q0 121 -17 235q-2 -147 -49.5 -246t-123 -158t-164 -85t-173.5 -26q-145 0 -256.5 66t-174.5 181.5t-63 265.5q0 155 64.5 273
t177 184.5t255.5 66.5q269 0 409 -194.5t140 -567.5q0 -185 -21 -349t-76.5 -290t-156.5 -198t-262 -72zM595 620q149 0 258 62t169 173.5t60 259.5t-61.5 259.5t-170 174t-250.5 62.5q-137 0 -244 -62.5t-168.5 -175t-61.5 -263.5q0 -145 59 -255.5t165 -172.5t245 -62z
" />
    <glyph glyph-name="colon" unicode=":" horiz-adv-x="400" 
d="M200 -6q-32 0 -50.5 20.5t-18.5 45.5t18.5 45.5t50.5 20.5t50.5 -20.5t18.5 -45.5t-18.5 -45.5t-50.5 -20.5zM200 1015q-32 0 -50.5 20.5t-18.5 45.5t18.5 45.5t50.5 20.5t50.5 -20.5t18.5 -45.5t-18.5 -45.5t-50.5 -20.5z" />
    <glyph glyph-name="semicolon" unicode=";" horiz-adv-x="484" 
d="M91 -421l140 646h31l-150 -646h-21zM283 1015q-32 0 -50.5 20.5t-18.5 45.5t18.5 45.5t50.5 20.5t50.5 -20.5t18.5 -45.5t-18.5 -45.5t-50.5 -20.5z" />
    <glyph glyph-name="less" unicode="&#x3c;" horiz-adv-x="1300" 
d="M1073 206l-890 551l890 550v-28l-845 -522l845 -522v-29z" />
    <glyph glyph-name="equal" unicode="=" horiz-adv-x="1300" 
d="M168 983v23h964v-23h-964zM168 514v23h964v-23h-964z" />
    <glyph glyph-name="greater" unicode="&#x3e;" horiz-adv-x="1300" 
d="M227 206l890 551l-890 550v-28l845 -522l-845 -522v-29z" />
    <glyph glyph-name="question" unicode="?" horiz-adv-x="1021" 
d="M457 475v84q0 77 21 136t72.5 114t142.5 119q125 87 176 162t51 186q0 103 -49 178t-135 116.5t-197 41.5q-192 0 -305 -106t-146 -304h-24q32 206 152.5 319t322.5 113q116 0 207.5 -44t145 -124t53.5 -190q0 -114 -54.5 -194.5t-185.5 -174.5q-87 -62 -135.5 -113.5
t-68 -106.5t-19.5 -128v-84h-25zM471 -6q-32 0 -50.5 20.5t-18.5 45.5t18.5 45.5t50.5 20.5t50.5 -20.5t18.5 -45.5t-18.5 -45.5t-50.5 -20.5z" />
    <glyph glyph-name="at" unicode="@" horiz-adv-x="2057" 
d="M1029 -343q-211 0 -384 68.5t-298.5 194t-193.5 297t-68 376.5q0 196 70.5 363t198 291.5t300.5 194t379 69.5q195 0 364 -64t296 -181t198.5 -275.5t71.5 -347.5q0 -157 -41 -281.5t-113.5 -197t-167.5 -72.5q-80 0 -131 48.5t-59 142.5q-2 26 -7 33.5t-15 7.5
q-7 0 -13.5 -5t-18.5 -25q-62 -100 -161.5 -154.5t-223.5 -54.5q-137 0 -243.5 64t-167 174.5t-60.5 249.5t60.5 249.5t167 174.5t243.5 64q124 0 223.5 -54t161.5 -155q12 -19 18.5 -24.5t13.5 -5.5q9 0 14 8t7 33q3 32 5.5 85t2.5 83h16v-709q0 -106 44.5 -156.5
t120.5 -50.5q90 0 157 69.5t104.5 188.5t37.5 270q0 185 -69.5 339.5t-193.5 267.5t-288.5 175.5t-354.5 62.5q-199 0 -367.5 -68t-293 -190t-193 -284.5t-68.5 -352.5q0 -200 66 -367t188 -289.5t291 -189.5t374 -67q80 0 171.5 13t177 42.5t146.5 78.5v-25
q-61 -49 -146.5 -78t-177 -41.5t-171.5 -12.5zM1012 108q129 0 227.5 59t154 164t55.5 242q0 138 -55.5 242.5t-154 163.5t-227.5 59q-130 0 -230.5 -61t-158 -166t-57.5 -238q0 -132 57.5 -237.5t158 -166.5t230.5 -61z" />
    <glyph glyph-name="A" unicode="A" horiz-adv-x="1345" 
d="M19 0l641 1597h25l641 -1597h-29l-210 524h-829l-210 -524h-29zM267 549h811l-405 1013z" />
    <glyph glyph-name="B" unicode="B" horiz-adv-x="1329" 
d="M196 0v1597h541q214 0 328.5 -99.5t114.5 -291.5q0 -316 -302 -376q168 -25 258.5 -130t90.5 -280q0 -208 -121.5 -314t-353.5 -106h-556zM223 840h523q198 0 302.5 92t104.5 274q0 367 -418 367h-512v-733zM223 24h527q450 0 450 396q0 196 -111.5 296t-320.5 100h-545
v-792z" />
    <glyph glyph-name="C" unicode="C" horiz-adv-x="1727" 
d="M912 -37q-182 0 -332.5 61.5t-260 174t-169 265t-59.5 335.5t59.5 335.5t169 265t260 174t332.5 61.5q208 0 365 -74t255.5 -208t130.5 -314h-28q-31 173 -126 301.5t-246 199t-351 70.5q-176 0 -321.5 -59.5t-251 -168.5t-162.5 -257.5t-57 -325.5t57 -325.5
t162.5 -257.5t251 -168.5t321.5 -59.5q200 0 351 70.5t246 199t126 301.5h28q-32 -179 -130.5 -313.5t-255.5 -208.5t-365 -74z" />
    <glyph glyph-name="D" unicode="D" horiz-adv-x="1609" 
d="M196 0v1597h506q254 0 436 -100t279.5 -279.5t97.5 -418.5t-97.5 -419t-279.5 -280t-436 -100h-506zM223 24h477q246 0 422 96.5t270 271t94 407.5t-94 407t-270 270.5t-422 96.5h-477v-1549z" />
    <glyph glyph-name="E" unicode="E" horiz-adv-x="1186" 
d="M196 0v1597h918v-24h-891v-750h779v-24h-779v-774h932v-25h-959z" />
    <glyph glyph-name="F" unicode="F" horiz-adv-x="1114" 
d="M196 0v1597h894v-24h-867v-750h785v-24h-785v-799h-27z" />
    <glyph glyph-name="G" unicode="G" horiz-adv-x="1782" 
d="M910 -37q-179 0 -328.5 61t-259.5 172.5t-170.5 264t-60.5 336.5t60 337.5t170 265.5t261 173.5t334 61.5q288 0 484 -141t262 -386h-29q-63 233 -250.5 367.5t-466.5 134.5q-177 0 -323 -59.5t-252 -168t-163.5 -257.5t-57.5 -328t58 -327.5t164.5 -256.5t251 -166.5
t316.5 -58.5q273 0 453 147t244 402q14 55 23 114.5t13 122.5h21v-774h-16q0 74 -2 147.5t-4.5 130t-4.5 76.5q-3 31 -8.5 41.5t-17.5 10.5q-11 0 -17.5 -7t-17.5 -28q-95 -189 -255.5 -298.5t-410.5 -109.5z" />
    <glyph glyph-name="H" unicode="H" horiz-adv-x="1503" 
d="M196 0v1597h27v-776h1057v776h27v-1597h-27v797h-1057v-797h-27z" />
    <glyph glyph-name="I" unicode="I" horiz-adv-x="419" 
d="M196 0v1597h27v-1597h-27z" />
    <glyph glyph-name="J" unicode="J" horiz-adv-x="1280" 
d="M602 -37q-231 0 -381 136t-187 374h27q34 -226 178 -355.5t361 -129.5q233 0 354 154t121 450v1005h27v-1007q0 -304 -129 -465.5t-371 -161.5z" />
    <glyph glyph-name="K" unicode="K" horiz-adv-x="1199" 
d="M196 0v1597h27v-790l936 790h39l-938 -791l969 -806h-41l-965 803v-803h-27z" />
    <glyph glyph-name="L" unicode="L" horiz-adv-x="1117" 
d="M196 0v1597h27v-1572h877v-25h-904z" />
    <glyph glyph-name="M" unicode="M" horiz-adv-x="1891" 
d="M196 0v1597h31l719 -1557l718 1557h31v-1597h-27v1545l-713 -1545h-19l-713 1545v-1545h-27z" />
    <glyph glyph-name="N" unicode="N" horiz-adv-x="1548" 
d="M196 0v1597h27l1102 -1552v1552h27v-1597h-27l-1102 1554v-1554h-27z" />
    <glyph glyph-name="O" unicode="O" horiz-adv-x="1830" 
d="M915 -37q-178 0 -328.5 61.5t-262 174t-173 265.5t-61.5 335t61.5 335t173 265.5t262 174t328.5 61.5t328.5 -61.5t262 -174t173 -265.5t61.5 -335t-61.5 -335t-173 -265.5t-262 -174t-328.5 -61.5zM915 -12q172 0 317 60t252.5 168.5t167 257t59.5 325.5t-59.5 325.5
t-167 257t-252.5 168.5t-317 60t-317 -60t-252.5 -168.5t-167 -257t-59.5 -325.5t59.5 -325.5t167 -257t252.5 -168.5t317 -60z" />
    <glyph glyph-name="P" unicode="P" horiz-adv-x="1250" 
d="M196 0v1597h531q224 0 343.5 -117t119.5 -335t-119.5 -335.5t-343.5 -117.5h-504v-692h-27zM223 717h504q215 0 325.5 108.5t110.5 319.5q0 210 -110.5 319t-325.5 109h-504v-856z" />
    <glyph glyph-name="Q" unicode="Q" horiz-adv-x="1849" 
d="M915 -37q-178 0 -328.5 61.5t-262 174t-173 265.5t-61.5 335t61.5 335t173 265.5t262 174t328.5 61.5t328.5 -61.5t262 -174t173 -265.5t61.5 -335q0 -189 -66.5 -347t-184.5 -269l202 -220h-35l-186 202q-108 -96 -249.5 -149t-305.5 -53zM915 -12q159 0 296 52t241 145
l-393 427h35l377 -409q112 108 176 260.5t64 335.5q0 177 -59.5 325.5t-167 257t-252.5 168.5t-317 60t-317 -60t-252.5 -168.5t-167 -257t-59.5 -325.5t59.5 -325.5t167 -257t252.5 -168.5t317 -60z" />
    <glyph glyph-name="R" unicode="R" horiz-adv-x="1354" 
d="M196 0v1597h559q228 0 347 -104.5t119 -304.5q0 -152 -78.5 -265.5t-263.5 -141.5q140 -14 207 -86t88 -232l39 -301q10 -76 22.5 -112t19.5 -50h-26q-7 12 -20 49t-23 113l-39 301q-15 120 -57 185.5t-123.5 91.5t-216.5 26h-527v-766h-27zM223 791h522q165 0 263.5 52
t142 142t43.5 203q0 385 -439 385h-532v-782z" />
    <glyph glyph-name="S" unicode="S" horiz-adv-x="1199" 
d="M636 -37q-247 0 -396.5 133.5t-180.5 366.5h27q28 -218 171 -346.5t379 -128.5q133 0 235 50.5t160 140.5t58 208q0 128 -51.5 208.5t-161.5 133t-286 96.5q-238 60 -341.5 155t-103.5 265q0 114 57.5 202t159.5 137.5t235 49.5q203 0 326 -113.5t144 -318.5h-27
q-21 197 -137 302.5t-306 105.5q-127 0 -222.5 -46.5t-149 -128.5t-53.5 -190q0 -158 97 -247t329 -148q180 -45 294.5 -101t169 -141.5t54.5 -220.5q0 -126 -62.5 -221.5t-171 -149t-246.5 -53.5z" />
    <glyph glyph-name="T" unicode="T" horiz-adv-x="1201" 
d="M587 0v1573h-571v24h1169v-24h-571v-1573h-27z" />
    <glyph glyph-name="U" unicode="U" horiz-adv-x="1518" 
d="M759 -37q-275 0 -428.5 163.5t-153.5 463.5v1007h27v-1005q0 -290 145.5 -447t409.5 -157t409.5 157t145.5 447v1005h27v-1007q0 -300 -153.5 -463.5t-428.5 -163.5z" />
    <glyph glyph-name="V" unicode="V" horiz-adv-x="1396" 
d="M696 -31l-682 1628h29l655 -1564l656 1564h28l-682 -1628h-4z" />
    <glyph glyph-name="W" unicode="W" horiz-adv-x="2078" 
d="M527 0l-502 1597h29l487 -1557l482 1557h32l482 -1558l487 1558h29l-502 -1597h-29l-483 1564l-483 -1564h-29z" />
    <glyph glyph-name="X" unicode="X" horiz-adv-x="1192" 
d="M5 0l575 799l-575 798h33l558 -777l558 777h33l-575 -799l575 -798h-33l-558 776l-558 -776h-33z" />
    <glyph glyph-name="Y" unicode="Y" horiz-adv-x="1275" 
d="M624 0v682l-590 915h31l574 -892l573 892h30l-591 -917v-680h-27z" />
    <glyph glyph-name="Z" unicode="Z" horiz-adv-x="1143" 
d="M-5 0v2l1105 1571h-1049v24h1097v-2l-1105 -1571h1050v-24h-1098z" />
    <glyph glyph-name="bracketleft" unicode="[" horiz-adv-x="581" 
d="M189 -409v2194h387v-23h-361v-2148h361v-23h-387z" />
    <glyph glyph-name="backslash" unicode="\" horiz-adv-x="875" 
d="M812 -297l-721 2044h-27l721 -2044h27z" />
    <glyph glyph-name="bracketright" unicode="]" horiz-adv-x="581" 
d="M392 -409v2194h-387v-23h361v-2148h-361v-23h387z" />
    <glyph glyph-name="asciicircum" unicode="^" horiz-adv-x="1300" 
d="M161 809l477 788h23l479 -788h-29l-460 763l-461 -763h-29z" />
    <glyph glyph-name="underscore" unicode="_" horiz-adv-x="1229" 
d="M0 -207v23h1229v-23h-1229z" />
    <glyph glyph-name="grave" unicode="`" horiz-adv-x="406" 
d="M335 1300l-285 420h37l269 -420h-21z" />
    <glyph glyph-name="a" unicode="a" horiz-adv-x="1170" 
d="M501 -37q-125 0 -219.5 44.5t-147.5 124t-53 183.5q0 155 104.5 228.5t308.5 89.5q182 14 315 31t189 38v3q0 135 -41.5 238t-132.5 160.5t-240 57.5q-169 0 -292 -87.5t-152 -242.5h-25q20 111 86 190t165.5 121t217.5 42q155 0 251.5 -61t141.5 -168t45 -246v-709h-15
q-3 86 -5 154t-5 100q-3 33 -20 33q-13 0 -21 -23q-44 -126 -121.5 -190.5t-166 -87.5t-167.5 -23zM105 315q0 -97 50 -171t139 -116t207 -42q81 0 169 24.5t162.5 92t113.5 196.5q18 59 35 146.5t17 181.5v52q-59 -22 -189.5 -37.5t-314.5 -31.5q-202 -18 -295.5 -86.5
t-93.5 -208.5z" />
    <glyph glyph-name="b" unicode="b" horiz-adv-x="1411" 
d="M741 -37q-157 0 -282.5 69.5t-205.5 199.5q-14 23 -21.5 29.5t-16.5 6.5q-10 0 -16 -9.5t-9 -38.5t-5.5 -72t-3.5 -83.5t-1 -64.5h-15v1659h24v-731q0 -32 6.5 -42t17.5 -10q8 0 16.5 6t22.5 30q83 139 211.5 205.5t279.5 66.5q172 0 304.5 -80.5t208.5 -218.5t76 -312
q0 -173 -76 -311t-209 -218.5t-306 -80.5zM739 -14q167 0 295.5 77.5t201 210.5t72.5 299q0 167 -72.5 300t-200.5 210.5t-294 77.5q-164 0 -288.5 -75.5t-194 -209t-69.5 -309.5q0 -169 70.5 -300t194.5 -206t285 -75z" />
    <glyph glyph-name="c" unicode="c" horiz-adv-x="1291" 
d="M674 -37q-175 0 -309 78t-210 215.5t-76 316.5q0 180 76 317.5t210 215.5t309 78q232 0 376 -123t178 -327h-25q-34 191 -169.5 309t-359.5 118q-168 0 -296.5 -74.5t-201.5 -207t-73 -306.5q0 -173 73 -305.5t201.5 -207t296.5 -74.5q224 0 359.5 118t169.5 308h25
q-34 -203 -178 -326t-376 -123z" />
    <glyph glyph-name="d" unicode="d" horiz-adv-x="1411" 
d="M670 -37q-172 0 -305.5 80.5t-209.5 218.5t-76 311q0 174 76 312t208.5 218.5t304.5 80.5q151 0 280 -66.5t211 -205.5q14 -24 22.5 -30t16.5 -6q11 0 17.5 10t6.5 42v731h24v-1659h-15q0 24 -1 64.5t-3.5 83.5t-5.5 72t-8.5 38.5t-16.5 9.5q-9 0 -16.5 -6.5t-21.5 -29.5
q-79 -130 -205 -199.5t-283 -69.5zM672 -14q161 0 285 75t194.5 206t70.5 300q0 176 -69.5 309.5t-194 209t-288.5 75.5q-166 0 -294 -77.5t-200.5 -210.5t-72.5 -300q0 -166 72.5 -299t201 -210.5t295.5 -77.5z" />
    <glyph glyph-name="e" unicode="e" horiz-adv-x="1284" 
d="M666 -37q-175 0 -307 76t-205.5 213.5t-73.5 320.5q0 182 75 319.5t205.5 214.5t296.5 77q168 0 292 -72.5t192 -203t68 -304.5v-15h-1105v-14v-4q0 -176 70.5 -307.5t197.5 -204.5t294 -73q200 0 332.5 99t169.5 265h25q-37 -178 -178 -282.5t-349 -104.5zM657 1161
q-154 0 -276 -69t-195 -192.5t-81 -288.5h1080q-2 167 -66.5 290.5t-182.5 191.5t-279 68z" />
    <glyph glyph-name="f" unicode="f" horiz-adv-x="650" 
d="M256 0v1125h-248v22h248v181q0 182 66.5 265.5t205.5 83.5q40 0 76 -7t64 -18v-22q-65 25 -139 25q-130 0 -189.5 -78.5t-59.5 -249.5v-180h373v-22h-373v-1125h-24z" />
    <glyph glyph-name="g" unicode="g" horiz-adv-x="1366" 
d="M673 -514q-142 0 -257.5 50t-192.5 140.5t-105 210.5h26q26 -109 97 -194.5t181 -134.5t251 -49q183 0 294 69.5t161.5 192t50.5 282.5v207q0 44 -23 44q-18 0 -41 -38q-73 -122 -194.5 -188t-273.5 -66q-164 0 -292 77t-200.5 210t-72.5 299q0 167 73 299.5t200.5 209.5
t293.5 77q151 0 272.5 -66.5t197.5 -191.5q14 -22 21 -29.5t15 -7.5q10 0 16 10t8 38q2 25 4 65.5t3.5 81t1.5 63.5h15v-1094q0 -168 -53 -295.5t-169.5 -199.5t-307.5 -72zM649 35q158 0 277 72.5t186 200.5t67 296q0 162 -67.5 288t-186.5 197.5t-274 71.5
q-160 0 -282.5 -74.5t-192.5 -201.5t-70 -287t69.5 -287.5t192.5 -201.5t281 -74z" />
    <glyph glyph-name="h" unicode="h" horiz-adv-x="1285" 
d="M165 0v1659h24v-795q0 -29 5 -40t15 -11q8 0 14.5 6.5t18.5 38.5q56 145 169 235.5t300 90.5q194 0 310 -129.5t116 -352.5v-702h-24v702q0 212 -109.5 335.5t-292.5 123.5q-152 0 -267 -72t-181 -239q-34 -85 -54 -186.5t-20 -251.5v-412h-24z" />
    <glyph glyph-name="i" unicode="i" horiz-adv-x="370" 
d="M185 1431q-26 0 -43.5 16.5t-17.5 41.5t17.5 41.5t43.5 16.5t43.5 -16.5t17.5 -41.5t-17.5 -41.5t-43.5 -16.5zM173 0v1147h24v-1147h-24z" />
    <glyph glyph-name="j" unicode="j" horiz-adv-x="370" 
d="M185 1431q-26 0 -43.5 16.5t-17.5 41.5t17.5 41.5t43.5 16.5t43.5 -16.5t17.5 -41.5t-17.5 -41.5t-43.5 -16.5zM173 -487v1634h24v-1634h-24z" />
    <glyph glyph-name="k" unicode="k" horiz-adv-x="962" 
d="M165 0v1659h24v-1084l745 572h39l-746 -573l748 -574h-41l-745 571v-571h-24z" />
    <glyph glyph-name="l" unicode="l" horiz-adv-x="370" 
d="M173 0v1659h24v-1659h-24z" />
    <glyph glyph-name="m" unicode="m" horiz-adv-x="2111" 
d="M165 0v1147h15q0 -92 3 -166t4 -109q3 -59 22 -59q8 0 14.5 6.5t18.5 38.5q56 145 160.5 235.5t276.5 90.5q109 0 186 -43.5t124.5 -113.5t64.5 -148q9 -40 15.5 -53t16.5 -13q7 0 13 7t16 39q47 143 157 234t294 91q182 0 289.5 -129.5t107.5 -352.5v-702h-24v702
q0 212 -101.5 335.5t-271.5 123.5q-145 0 -257 -70t-173 -240q-30 -84 -45 -182t-15 -227v-442h-24v702q0 212 -101 335.5t-272 123.5q-136 0 -243.5 -71t-172.5 -240q-32 -85 -53 -186.5t-21 -251.5v-412h-24z" />
    <glyph glyph-name="n" unicode="n" horiz-adv-x="1285" 
d="M165 0v1147h15q0 -92 3 -166t4 -109q3 -59 22 -59q8 0 14.5 6.5t18.5 38.5q56 145 168.5 235.5t299.5 90.5q194 0 310.5 -129.5t116.5 -352.5v-702h-24v702q0 212 -109.5 335.5t-293.5 123.5q-151 0 -266 -72t-181 -239q-34 -85 -54 -186.5t-20 -251.5v-412h-24z" />
    <glyph glyph-name="o" unicode="o" horiz-adv-x="1354" 
d="M677 -37q-173 0 -308.5 79.5t-213 217.5t-77.5 313q0 176 77.5 314t213 217.5t308.5 79.5t308.5 -79.5t213 -217.5t77.5 -314q0 -175 -77.5 -313t-213 -217.5t-308.5 -79.5zM677 -14q167 0 297 76.5t204 209.5t74 301q0 169 -74 302t-204 209.5t-297 76.5t-297 -76.5
t-204 -209.5t-74 -302q0 -168 74 -301t204 -209.5t297 -76.5z" />
    <glyph glyph-name="p" unicode="p" horiz-adv-x="1411" 
d="M741 1184q173 0 306 -80.5t209 -218.5t76 -311t-76 -311.5t-208.5 -219t-304.5 -80.5q-151 0 -279.5 66.5t-211.5 205.5q-14 24 -22.5 30t-16.5 6q-11 0 -17.5 -10t-6.5 -42v-709h-24v1637h15q0 -23 1 -64t3.5 -84t5.5 -72t9 -38.5t16 -9.5q9 0 16.5 6.5t21.5 29.5
q80 130 205.5 199.5t282.5 69.5zM739 1161q-161 0 -285 -75t-194.5 -206t-70.5 -300q0 -175 69.5 -309t194 -209.5t288.5 -75.5q166 0 294 77.5t200.5 210.5t72.5 300t-72.5 299.5t-201 210t-295.5 77.5z" />
    <glyph glyph-name="q" unicode="q" horiz-adv-x="1411" 
d="M670 1184q157 0 283 -69.5t205 -199.5q14 -23 21.5 -29.5t16.5 -6.5q11 0 16.5 9.5t8.5 38.5t5.5 72t3.5 84t1 64h15v-1637h-24v709q0 32 -6.5 42t-17.5 10q-8 0 -16.5 -6t-22.5 -30q-82 -139 -211 -205.5t-280 -66.5q-172 0 -304.5 80.5t-208.5 219t-76 311.5t76 311
t209.5 218.5t305.5 80.5zM672 1161q-167 0 -295.5 -77.5t-201 -210t-72.5 -299.5t72.5 -300t200.5 -210.5t294 -77.5q164 0 288.5 75.5t194 209.5t69.5 309q0 169 -70.5 300t-194.5 206t-285 75z" />
    <glyph glyph-name="r" unicode="r" horiz-adv-x="889" 
d="M165 0v1147h15q0 -34 1 -84t3 -96.5t4 -70.5q2 -26 6 -35.5t12 -9.5q7 0 11.5 6.5t11.5 28.5q41 135 132.5 211.5t222.5 75.5q137 -1 209.5 -85t72.5 -224q0 -11 -0.5 -19t-1.5 -14h-23q1 7 1.5 14.5t0.5 17.5q0 131 -66.5 209.5t-193.5 78.5t-209.5 -72.5t-123.5 -197.5
q-22 -67 -35.5 -130.5t-19.5 -137.5t-6 -175v-438h-24z" />
    <glyph glyph-name="s" unicode="s" horiz-adv-x="1001" 
d="M524 -37q-119 0 -219 39.5t-165.5 119.5t-82.5 199h25q15 -109 77 -183.5t157.5 -113t207.5 -38.5q120 0 204.5 40t129 106t44.5 142q0 94 -37 153t-126.5 95.5t-247.5 62.5q-200 34 -282 106.5t-82 197.5q0 120 95 207.5t279 87.5q159 0 262 -82.5t122 -243.5h-24
q-21 153 -115 228t-245 75q-175 0 -262.5 -81t-87.5 -191t74.5 -179t267.5 -102q162 -27 257 -65t135.5 -101.5t40.5 -167.5q0 -82 -47.5 -153t-137 -114.5t-217.5 -43.5z" />
    <glyph glyph-name="t" unicode="t" horiz-adv-x="665" 
d="M525 -8q-162 0 -216.5 90t-54.5 280v763h-248v22h198q28 0 37 15t12 55q2 27 4.5 81.5t4 111.5t1.5 89h15v-352h364v-22h-364v-763q0 -181 49 -264.5t198 -83.5q39 0 69.5 5.5t56.5 12.5v-22q-27 -7 -57.5 -12.5t-68.5 -5.5z" />
    <glyph glyph-name="u" unicode="u" horiz-adv-x="1275" 
d="M589 -37q-205 0 -323 129.5t-118 355.5v699h24v-699q0 -216 111.5 -339t305.5 -123q158 0 262 68t161 213q36 92 55 199t19 236v445h24v-1147h-15q0 83 -2.5 147t-4.5 98q-3 59 -22 59q-8 0 -14.5 -6.5t-18.5 -38.5q-55 -145 -166 -220.5t-278 -75.5z" />
    <glyph glyph-name="v" unicode="v" horiz-adv-x="1101" 
d="M537 0l-516 1147h26l503 -1119l503 1119h27l-516 -1147h-27z" />
    <glyph glyph-name="w" unicode="w" horiz-adv-x="1651" 
d="M436 0l-410 1147h27l396 -1113l363 1113h27l364 -1111l396 1111h26l-409 -1147h-27l-363 1107l-364 -1107h-26z" />
    <glyph glyph-name="x" unicode="x" horiz-adv-x="985" 
d="M9 0l470 575l-470 572h31l454 -554l451 554h31l-465 -573l465 -574h-31l-450 555l-455 -555h-31z" />
    <glyph glyph-name="y" unicode="y" horiz-adv-x="1101" 
d="M316 -490l221 490l-516 1147h26l503 -1119l503 1119h27l-738 -1637h-26z" />
    <glyph glyph-name="z" unicode="z" horiz-adv-x="1005" 
d="M21 0v2l917 1122h-901v23h949v-2l-917 -1122h900v-23h-948z" />
    <glyph glyph-name="braceleft" unicode="{" horiz-adv-x="550" 
d="M543 -411q-165 23 -255.5 104t-90.5 226q0 89 19 188.5t38.5 195.5t19.5 176q0 88 -39.5 137.5t-110.5 59.5q-26 4 -53 4h-39v16h39t53 4q71 11 110.5 60t39.5 137q0 80 -19.5 176.5t-38.5 195.5t-19 188q0 146 90.5 226.5t255.5 103.5v-22q-156 -25 -239 -98.5
t-83 -211.5q0 -87 19.5 -187t39 -197.5t19.5 -175.5q0 -82 -37 -136.5t-108 -70.5q71 -16 108 -70.5t37 -136.5q0 -78 -19.5 -175t-39 -197.5t-19.5 -187.5q0 -138 83 -211.5t239 -98.5v-22z" />
    <glyph glyph-name="bar" unicode="|" horiz-adv-x="404" 
d="M189 -369v2116h26v-2116h-26z" />
    <glyph glyph-name="braceright" unicode="}" horiz-adv-x="550" 
d="M7 -411q165 23 255.5 104t90.5 226q0 89 -19 188.5t-38.5 195.5t-19.5 176q0 88 39.5 137.5t110.5 59.5q26 4 53 4h39v16h-39t-53 4q-71 11 -110.5 60t-39.5 137q0 80 19.5 176.5t38.5 195.5t19 188q0 146 -90.5 226.5t-255.5 103.5v-22q156 -25 239 -98.5t83 -211.5
q0 -87 -19.5 -187t-39 -197.5t-19.5 -175.5q0 -82 37 -136.5t108 -70.5q-71 -16 -108 -70.5t-37 -136.5q0 -78 19.5 -175t39 -197.5t19.5 -187.5q0 -138 -83 -211.5t-239 -98.5v-22z" />
    <glyph glyph-name="asciitilde" unicode="~" horiz-adv-x="1300" 
d="M867 664q-63 0 -107 26.5t-79 66t-69 79t-75 66t-99 26.5q-79 0 -132.5 -55.5t-72.5 -159.5h-25q18 110 79 174t151 64q62 0 106 -26.5t79.5 -66t69.5 -79t75.5 -66t99.5 -26.5q77 0 131.5 56t72.5 159h25q-18 -112 -79.5 -175t-150.5 -63z" />
    <glyph glyph-name="uni00A0" unicode="&#xa0;" horiz-adv-x="519" 
 />
    <glyph glyph-name="exclamdown" unicode="&#xa1;" horiz-adv-x="377" 
d="M178 809l-4 -1228h29l-4 1228h-21zM188 1184q-32 0 -50.5 -20.5t-18.5 -45.5t18.5 -45.5t50.5 -20.5t50.5 20.5t18.5 45.5t-18.5 45.5t-50.5 20.5z" />
    <glyph glyph-name="cent" unicode="&#xa2;" horiz-adv-x="1314" 
d="M661 0v189q-169 5 -299 83.5t-203.5 214.5t-73.5 312t73.5 312t203.5 215t299 84v187h24v-187q230 -1 372.5 -124t176.5 -326h-25q-34 191 -168.5 309t-355.5 118v-1175q222 1 356 119t168 307h25q-34 -203 -177.5 -326t-371.5 -123v-189h-24zM109 799q0 -171 70 -301.5
t194.5 -205.5t287.5 -80v1175q-163 -5 -287.5 -80.5t-194.5 -206.5t-70 -301z" />
    <glyph glyph-name="sterling" unicode="&#xa3;" horiz-adv-x="1205" 
d="M77 0v2q128 128 183.5 261t55.5 248q0 63 -8.5 122.5t-20.5 116.5h-200v23h194q-27 115 -57 224t-30 219q0 124 56 218t156.5 147t231.5 53q200 0 318.5 -112t139.5 -320h-25q-20 197 -132 303t-301 106q-124 0 -218.5 -50t-147.5 -138.5t-53 -206.5q0 -113 30 -221
t57 -222h619v-23h-614q13 -57 21.5 -116.5t8.5 -123.5q0 -110 -50 -237t-161 -250h1002l-3 -23h-1052z" />
    <glyph glyph-name="currency" unicode="&#xa4;" horiz-adv-x="1340" 
d="M139 245l-18 16l199 209q-66 66 -103 157.5t-37 200.5t37 200.5t103 157.5l-199 209l18 16l198 -208q64 58 149 90.5t184 32.5t184 -32.5t149 -90.5l198 208l18 -16l-199 -209q66 -66 103 -157.5t37 -200.5t-37 -200.5t-103 -157.5l199 -209l-18 -16l-198 208
q-64 -58 -149 -90.5t-184 -32.5t-184 32.5t-149 90.5zM670 353q135 0 240 62t165 169.5t60 243.5q0 137 -60 244t-165 169t-240 62t-240 -62t-165 -169t-60 -244q0 -136 60 -243.5t165 -169.5t240 -62z" />
    <glyph glyph-name="yen" unicode="&#xa5;" horiz-adv-x="1279" 
d="M162 392v23h465v256h-465v23h456l-556 903h30l548 -894l547 894h30l-556 -903h456v-23h-465v-256h465v-23h-465v-392h-25v392h-465z" />
    <glyph glyph-name="brokenbar" unicode="&#xa6;" horiz-adv-x="404" 
d="M189 907v840h26v-840h-26zM189 -369v840h26v-840h-26z" />
    <glyph glyph-name="section" unicode="&#xa7;" horiz-adv-x="1058" 
d="M542 -252q-114 0 -210.5 40t-159.5 119.5t-80 199.5h25q15 -109 75 -184t151 -113.5t199 -38.5q115 0 194 40t120 106t41 142q0 134 -87.5 204.5t-299.5 106.5q-407 69 -407 352q0 129 90.5 214.5t243.5 101.5q-156 38 -221 112t-65 184q0 127 93 213.5t274 86.5
q154 0 257.5 -83.5t123.5 -246.5h-24q-22 155 -117 231t-240 76q-172 0 -257.5 -80t-85.5 -197q0 -110 76 -184.5t273 -106.5q245 -39 347.5 -123t102.5 -223q0 -127 -84.5 -217t-240.5 -118q148 -42 210.5 -113t62.5 -190q0 -82 -44 -153t-128.5 -114.5t-207.5 -43.5z
M512 392q45 -8 83 -16q171 17 263 104.5t92 216.5q0 125 -94.5 205t-333.5 119q-9 1 -17 3q-175 -6 -276.5 -86t-101.5 -216q0 -263 385 -330z" />
    <glyph glyph-name="dieresis" unicode="&#xa8;" horiz-adv-x="636" 
d="M526 1388q-25 0 -42.5 16t-17.5 41t17.5 41t42.5 16q26 0 43 -16t17 -41t-17 -41t-43 -16zM110 1388q-25 0 -42.5 16t-17.5 41t17.5 41t42.5 16q26 0 43 -16t17 -41t-17 -41t-43 -16z" />
    <glyph glyph-name="copyright" unicode="&#xa9;" horiz-adv-x="1858" 
d="M929 -35q-178 0 -331 63t-266.5 176t-177 265.5t-63.5 330.5q0 179 63.5 331t177 265t266.5 176t331 63q179 0 331.5 -63t266 -176t177 -265t63.5 -331q0 -178 -63.5 -330.5t-177 -265.5t-266 -176t-331.5 -63zM929 -11q173 0 320.5 61.5t257.5 171.5t171 257.5t61 320.5
t-61 320.5t-171 257.5t-257.5 171.5t-320.5 61.5q-172 0 -319.5 -61.5t-257.5 -171.5t-171.5 -257.5t-61.5 -320.5t61.5 -320.5t171.5 -257.5t257.5 -171.5t319.5 -61.5zM943 330q-135 0 -238.5 60t-162.5 166t-59 244t59 244t162.5 166t238.5 60q178 0 289.5 -94.5
t137.5 -252.5h-25q-25 143 -128 233.5t-274 90.5q-128 0 -226 -57t-153.5 -158t-55.5 -232t55.5 -232t153.5 -158t226 -57q171 0 274 90.5t128 233.5h25q-26 -157 -137.5 -252t-289.5 -95z" />
    <glyph glyph-name="ordfeminine" unicode="&#xaa;" horiz-adv-x="1033" 
d="M461 649q-151 0 -244 78.5t-93 203.5t84 184t248 72q129 10 240.5 23.5t157.5 30.5v3q0 160 -75.5 260t-251.5 100q-132 0 -229.5 -68t-121.5 -192h-25q24 133 129 208t247 75q185 0 268.5 -106.5t83.5 -273.5v-568h-15q-3 68 -5 118t-4 81q-2 26 -16 26q-11 0 -17 -19
q-32 -98 -93 -149t-132.5 -69t-135.5 -18zM148 931q0 -115 87 -187t226 -72q64 0 133 19t128 72t91 154q15 47 28 118t13 145v38q-55 -19 -153 -29.5t-245 -23.5q-160 -14 -234 -69t-74 -165zM163 459v23h716v-23h-716z" />
    <glyph glyph-name="guillemotleft" unicode="&#xab;" horiz-adv-x="964" 
d="M934 158h21l-394 448l394 448h-21l-409 -448zM596 158h21l-394 448l394 448h-21l-409 -448z" />
    <glyph glyph-name="logicalnot" unicode="&#xac;" horiz-adv-x="1300" 
d="M145 1006h984v-483h-25v460h-959v23z" />
    <glyph glyph-name="uni00AD" unicode="&#xad;" horiz-adv-x="978" 
d="M99 745v23h780v-23h-780z" />
    <glyph glyph-name="registered" unicode="&#xae;" horiz-adv-x="1114" 
d="M557 692q-134 0 -241 62t-169 169t-62 241q0 135 62 241.5t169 168.5t241 62t241 -62t169 -168.5t62 -241.5q0 -134 -62 -241t-169 -169t-241 -62zM557 715q127 0 228 59t160 161t59 229q0 128 -59 229.5t-160 160.5t-228 59t-228 -59t-160 -160.5t-59 -229.5
q0 -127 59 -229t160 -161t228 -59zM399 916v495h188q154 0 154 -130q0 -45 -22.5 -78t-72.5 -45q41 -6 57.5 -29t21.5 -65l13 -100q3 -21 7 -32t8 -16h-28q-2 3 -6.5 14t-6.5 30l-13 101q-5 44 -26 64t-86 20h-162v-229h-26zM425 1169h158q70 0 101 29.5t31 80.5
q0 108 -129 108h-161v-218z" />
    <glyph glyph-name="macron" unicode="&#xaf;" horiz-adv-x="680" 
d="M50 1420v23h580v-23h-580z" />
    <glyph glyph-name="degree" unicode="&#xb0;" horiz-adv-x="782" 
d="M391 1015q-90 0 -159.5 40t-109.5 110t-40 159q0 90 40 159.5t109.5 109.5t159.5 40t160 -40t109.5 -109.5t39.5 -159.5q0 -89 -39.5 -159t-109.5 -110t-160 -40zM391 1038q125 0 205 80.5t80 205.5t-80 205.5t-205 80.5q-124 0 -204.5 -80.5t-80.5 -205.5t80.5 -205.5
t204.5 -80.5z" />
    <glyph glyph-name="plusminus" unicode="&#xb1;" horiz-adv-x="1300" 
d="M638 199v546h-500v23h500v547h25v-547h499v-23h-499v-546h-25zM138 0v23h1024v-23h-1024z" />
    <glyph glyph-name="uni00B2" unicode="&#xb2;" horiz-adv-x="725" 
d="M87 1014q10 94 42.5 164.5t97.5 131t172 122.5q114 67 157 117t43 123q0 86 -59.5 135.5t-158.5 49.5q-108 0 -179 -57.5t-83 -182.5h-25q11 132 90 197.5t197 65.5q107 0 174.5 -56.5t67.5 -151.5q0 -79 -47.5 -135.5t-165.5 -125.5q-146 -85 -213 -167t-83 -207h526
v-23h-553z" />
    <glyph glyph-name="uni00B3" unicode="&#xb3;" horiz-adv-x="761" 
d="M393 994q-132 0 -213 68.5t-99 184.5h25q17 -107 92 -168.5t195 -61.5q115 0 184.5 61t69.5 162q0 102 -72.5 159.5t-189.5 57.5h-118v22h117q104 0 164 52t60 138t-59.5 137t-158.5 51q-104 0 -166.5 -50t-79.5 -136h-25q19 96 87.5 152.5t183.5 56.5q105 0 173.5 -56.5
t68.5 -153.5q0 -75 -47 -130t-126 -71q95 -15 153.5 -76t58.5 -152q0 -110 -76.5 -178.5t-201.5 -68.5z" />
    <glyph glyph-name="acute" unicode="&#xb4;" horiz-adv-x="406" 
d="M71 1300l285 420h-37l-269 -420h21z" />
    <glyph glyph-name="mu" unicode="&#xb5;" horiz-adv-x="1292" 
d="M163 -487l2 1634h24v-699q0 -216 111.5 -339t305.5 -123q158 0 262 68t161 213q36 92 55 199t19 236v445h24v-1147h-15q0 83 -2.5 147t-4.5 98q-3 59 -22 59q-8 0 -14.5 -6.5t-18.5 -38.5q-55 -145 -166 -220.5t-278 -75.5q-127 0 -222.5 52.5t-151.5 148.5
q-8 14 -13.5 17.5t-10.5 3.5q-21 0 -21 -45v-627h-24z" />
    <glyph glyph-name="paragraph" unicode="&#xb6;" horiz-adv-x="1302" 
d="M711 -300v1067h-223q-205 0 -314.5 108t-109.5 308t109.5 307t314.5 107h249v-1897h-26zM1061 -300v1897h26v-1897h-26z" />
    <glyph glyph-name="periodcentered" unicode="&#xb7;" horiz-adv-x="400" 
d="M200 507q-32 0 -50.5 20.5t-18.5 45.5t18.5 45.5t50.5 20.5t50.5 -20.5t18.5 -45.5t-18.5 -45.5t-50.5 -20.5z" />
    <glyph glyph-name="cedilla" unicode="&#xb8;" horiz-adv-x="599" 
d="M324 -507q-116 0 -191 72.5t-83 198.5h25q10 -116 77 -182t173 -66q94 0 147 50.5t53 140.5q0 88 -73 167.5t-195 125.5l21 8q125 -44 198 -128t73 -173q0 -100 -60.5 -157t-164.5 -57z" />
    <glyph glyph-name="uni00B9" unicode="&#xb9;" horiz-adv-x="469" 
d="M309 1014v791q-32 -50 -105 -106t-151 -89v26q55 24 108.5 61t95 80t59.5 83h17v-846h-24z" />
    <glyph glyph-name="ordmasculine" unicode="&#xba;" horiz-adv-x="1164" 
d="M582 649q-138 0 -246.5 64t-171 174.5t-62.5 250.5t62.5 250.5t171 174.5t246.5 64q139 0 247 -63.5t170.5 -174t62.5 -251.5q0 -140 -62.5 -250.5t-170.5 -174.5t-247 -64zM582 672q133 0 235.5 61t161.5 166.5t59 238.5q0 134 -59 239.5t-162 166t-235 60.5t-235 -60.5
t-162 -166t-59 -239.5t59 -239.5t162 -166t235 -60.5zM217 459v23h730v-23h-730z" />
    <glyph glyph-name="guillemotright" unicode="&#xbb;" horiz-adv-x="964" 
d="M30 158h-21l394 448l-394 448h21l409 -448zM368 158h-21l394 448l-394 448h21l409 -448z" />
    <glyph glyph-name="onequarter" unicode="&#xbc;" horiz-adv-x="1458" 
d="M309 754v791q-32 -50 -105 -106t-151 -89v26q55 24 108.5 61t95 80t59.5 83h17v-846h-24zM248 0l909 1597h29l-909 -1597h-29zM1238 0v243h-460v23l457 580h27v-581h128v-22h-128v-243h-24zM805 265h433v550z" />
    <glyph glyph-name="onehalf" unicode="&#xbd;" horiz-adv-x="1434" 
d="M309 754v791q-32 -50 -105 -106t-151 -89v26q55 24 108.5 61t95 80t59.5 83h17v-846h-24zM119 0l909 1597h29l-909 -1597h-29zM796 0q10 94 42.5 164.5t97.5 131t172 122.5q114 67 157 117t43 123q0 86 -59.5 135.5t-158.5 49.5q-108 0 -179 -57.5t-83 -182.5h-25
q11 132 90 197.5t197 65.5q107 0 174.5 -56.5t67.5 -151.5q0 -79 -47.5 -135.5t-165.5 -125.5q-146 -85 -213 -167t-83 -207h526v-23h-553z" />
    <glyph glyph-name="threequarters" unicode="&#xbe;" horiz-adv-x="1676" 
d="M393 734q-132 0 -213 68.5t-99 184.5h25q17 -107 92 -168.5t195 -61.5q115 0 184.5 61t69.5 162q0 102 -72.5 159.5t-189.5 57.5h-118v22h117q104 0 164 52t60 138t-59.5 137t-158.5 51q-104 0 -166.5 -50t-79.5 -136h-25q19 96 87.5 152.5t183.5 56.5q105 0 173.5 -56.5
t68.5 -153.5q0 -75 -47 -130t-126 -71q95 -15 153.5 -76t58.5 -152q0 -110 -76.5 -178.5t-201.5 -68.5zM428 0l909 1597h29l-909 -1597h-29zM1460 0v243h-460v23l457 580h27v-581h128v-22h-128v-243h-24zM1027 265h433v550z" />
    <glyph glyph-name="questiondown" unicode="&#xbf;" horiz-adv-x="1008" 
d="M558 703v-84q0 -77 -21 -136t-72.5 -114t-142.5 -119q-125 -87 -176 -162t-51 -186q0 -103 49 -178t135 -116.5t197 -41.5q192 0 305 106t146 304h24q-32 -206 -152.5 -319t-322.5 -113q-116 0 -207.5 44t-145 124t-53.5 190q0 114 54.5 194.5t185.5 174.5
q87 62 135.5 113.5t68 106.5t19.5 128v84h25zM544 1184q32 0 50.5 -20.5t18.5 -45.5t-18.5 -45.5t-50.5 -20.5t-50.5 20.5t-18.5 45.5t18.5 45.5t50.5 20.5z" />
    <glyph glyph-name="Agrave" unicode="&#xc0;" horiz-adv-x="1345" 
d="M19 0l641 1597h25l641 -1597h-29l-210 524h-829l-210 -524h-29zM267 549h811l-405 1013zM659 1713l-403 342h50l381 -342h-28z" />
    <glyph glyph-name="Aacute" unicode="&#xc1;" horiz-adv-x="1345" 
d="M19 0l641 1597h25l641 -1597h-29l-210 524h-829l-210 -524h-29zM267 549h811l-405 1013zM685 1713l403 342h-50l-381 -342h28z" />
    <glyph glyph-name="Acircumflex" unicode="&#xc2;" horiz-adv-x="1345" 
d="M19 0l641 1597h25l641 -1597h-29l-210 524h-829l-210 -524h-29zM267 549h811l-405 1013zM378 1713l293 352h2l293 -352h-23l-253 289q-9 10 -17 10t-17 -10l-255 -289h-23z" />
    <glyph glyph-name="Atilde" unicode="&#xc3;" horiz-adv-x="1345" 
d="M19 0l641 1597h25l641 -1597h-29l-210 524h-829l-210 -524h-29zM267 549h811l-405 1013zM834 1761q-54 0 -94 30t-74 69t-71 69t-85 30q-124 0 -153 -163h-18q14 89 58.5 138t112.5 49q54 0 94 -30t74 -69t71 -69t85 -30q124 0 153 163h18q-14 -89 -58.5 -138t-112.5 -49
z" />
    <glyph glyph-name="Adieresis" unicode="&#xc4;" horiz-adv-x="1345" 
d="M19 0l641 1597h25l641 -1597h-29l-210 524h-829l-210 -524h-29zM267 549h811l-405 1013zM930 1799q-25 0 -42.5 16t-17.5 41t17.5 41t42.5 16q26 0 43 -16t17 -41t-17 -41t-43 -16zM414 1799q-25 0 -42.5 16t-17.5 41t17.5 41t42.5 16q26 0 43 -16t17 -41t-17 -41
t-43 -16z" />
    <glyph glyph-name="Aring" unicode="&#xc5;" horiz-adv-x="1345" 
d="M19 0l641 1597h25l641 -1597h-29l-210 524h-829l-210 -524h-29zM267 549h811l-405 1013zM672 1693q-83 0 -137.5 54.5t-54.5 136.5q0 81 54.5 135.5t137.5 54.5t137.5 -54.5t54.5 -135.5q0 -82 -54.5 -136.5t-137.5 -54.5zM672 1716q71 0 118 48.5t47 119.5t-47 119
t-118 48q-72 0 -118.5 -48t-46.5 -119t47 -119.5t118 -48.5z" />
    <glyph glyph-name="AE" unicode="&#xc6;" horiz-adv-x="1968" 
d="M-58 0l1065 1597h889v-24h-857v-750h745v-24h-745v-774h898v-25h-924v628h-620l-417 -628h-34zM409 652h604v909z" />
    <glyph glyph-name="Ccedilla" unicode="&#xc7;" horiz-adv-x="1727" 
d="M912 -37q-182 0 -332.5 61.5t-260 174t-169 265t-59.5 335.5t59.5 335.5t169 265t260 174t332.5 61.5q208 0 365 -74t255.5 -208t130.5 -314h-28q-31 173 -126 301.5t-246 199t-351 70.5q-176 0 -321.5 -59.5t-251 -168.5t-162.5 -257.5t-57 -325.5t57 -325.5
t162.5 -257.5t251 -168.5t321.5 -59.5q200 0 351 70.5t246 199t126 301.5h28q-32 -179 -130.5 -313.5t-255.5 -208.5t-365 -74zM930 -535q-118 0 -193.5 72.5t-83.5 199.5h26q10 -115 77.5 -181t174.5 -66q89 0 140.5 52.5t51.5 139.5q0 86 -69.5 165.5t-187.5 125.5l24 10
q116 -45 188 -128t72 -173q0 -99 -59.5 -158t-160.5 -59z" />
    <glyph glyph-name="Egrave" unicode="&#xc8;" horiz-adv-x="1186" 
d="M196 0v1597h918v-24h-891v-750h779v-24h-779v-774h932v-25h-959zM652 1713l-403 342h50l381 -342h-28z" />
    <glyph glyph-name="Eacute" unicode="&#xc9;" horiz-adv-x="1186" 
d="M196 0v1597h918v-24h-891v-750h779v-24h-779v-774h932v-25h-959zM678 1713l403 342h-50l-381 -342h28z" />
    <glyph glyph-name="Ecircumflex" unicode="&#xca;" horiz-adv-x="1186" 
d="M196 0v1597h918v-24h-891v-750h779v-24h-779v-774h932v-25h-959zM371 1713l293 352h2l293 -352h-23l-253 289q-9 10 -17 10t-17 -10l-255 -289h-23z" />
    <glyph glyph-name="Edieresis" unicode="&#xcb;" horiz-adv-x="1186" 
d="M196 0v1597h918v-24h-891v-750h779v-24h-779v-774h932v-25h-959zM923 1799q-25 0 -42.5 16t-17.5 41t17.5 41t42.5 16q26 0 43 -16t17 -41t-17 -41t-43 -16zM407 1799q-25 0 -42.5 16t-17.5 41t17.5 41t42.5 16q26 0 43 -16t17 -41t-17 -41t-43 -16z" />
    <glyph glyph-name="Igrave" unicode="&#xcc;" horiz-adv-x="419" 
d="M196 0v1597h27v-1597h-27zM197 1713l-403 342h50l381 -342h-28z" />
    <glyph glyph-name="Iacute" unicode="&#xcd;" horiz-adv-x="419" 
d="M196 0v1597h27v-1597h-27zM223 1713l403 342h-50l-381 -342h28z" />
    <glyph glyph-name="Icircumflex" unicode="&#xce;" horiz-adv-x="419" 
d="M196 0v1597h27v-1597h-27zM-84 1713l293 352h2l293 -352h-23l-253 289q-9 10 -17 10t-17 -10l-255 -289h-23z" />
    <glyph glyph-name="Idieresis" unicode="&#xcf;" horiz-adv-x="419" 
d="M196 0v1597h27v-1597h-27zM468 1799q-25 0 -42.5 16t-17.5 41t17.5 41t42.5 16q26 0 43 -16t17 -41t-17 -41t-43 -16zM-48 1799q-25 0 -42.5 16t-17.5 41t17.5 41t42.5 16q26 0 43 -16t17 -41t-17 -41t-43 -16z" />
    <glyph glyph-name="Eth" unicode="&#xd0;" horiz-adv-x="1652" 
d="M239 0v787h-256v24h256v786h506q254 0 436 -100t279.5 -279.5t97.5 -418.5t-97.5 -419t-279.5 -280t-436 -100h-506zM266 24h477q246 0 422 96.5t270 271t94 407.5t-94 407t-270 270.5t-422 96.5h-477v-762h575v-24h-575v-763z" />
    <glyph glyph-name="Ntilde" unicode="&#xd1;" horiz-adv-x="1548" 
d="M196 0v1597h27l1102 -1552v1552h27v-1597h-27l-1102 1554v-1554h-27zM937 1761q-54 0 -94 30t-74 69t-71 69t-85 30q-124 0 -153 -163h-18q14 89 58.5 138t112.5 49q54 0 94 -30t74 -69t71 -69t85 -30q124 0 153 163h18q-14 -89 -58.5 -138t-112.5 -49z" />
    <glyph glyph-name="Ograve" unicode="&#xd2;" horiz-adv-x="1830" 
d="M915 -37q-178 0 -328.5 61.5t-262 174t-173 265.5t-61.5 335t61.5 335t173 265.5t262 174t328.5 61.5t328.5 -61.5t262 -174t173 -265.5t61.5 -335t-61.5 -335t-173 -265.5t-262 -174t-328.5 -61.5zM915 -12q172 0 317 60t252.5 168.5t167 257t59.5 325.5t-59.5 325.5
t-167 257t-252.5 168.5t-317 60t-317 -60t-252.5 -168.5t-167 -257t-59.5 -325.5t59.5 -325.5t167 -257t252.5 -168.5t317 -60zM902 1713l-403 342h50l381 -342h-28z" />
    <glyph glyph-name="Oacute" unicode="&#xd3;" horiz-adv-x="1830" 
d="M915 -37q-178 0 -328.5 61.5t-262 174t-173 265.5t-61.5 335t61.5 335t173 265.5t262 174t328.5 61.5t328.5 -61.5t262 -174t173 -265.5t61.5 -335t-61.5 -335t-173 -265.5t-262 -174t-328.5 -61.5zM915 -12q172 0 317 60t252.5 168.5t167 257t59.5 325.5t-59.5 325.5
t-167 257t-252.5 168.5t-317 60t-317 -60t-252.5 -168.5t-167 -257t-59.5 -325.5t59.5 -325.5t167 -257t252.5 -168.5t317 -60zM928 1713l403 342h-50l-381 -342h28z" />
    <glyph glyph-name="Ocircumflex" unicode="&#xd4;" horiz-adv-x="1830" 
d="M915 -37q-178 0 -328.5 61.5t-262 174t-173 265.5t-61.5 335t61.5 335t173 265.5t262 174t328.5 61.5t328.5 -61.5t262 -174t173 -265.5t61.5 -335t-61.5 -335t-173 -265.5t-262 -174t-328.5 -61.5zM915 -12q172 0 317 60t252.5 168.5t167 257t59.5 325.5t-59.5 325.5
t-167 257t-252.5 168.5t-317 60t-317 -60t-252.5 -168.5t-167 -257t-59.5 -325.5t59.5 -325.5t167 -257t252.5 -168.5t317 -60zM621 1713l293 352h2l293 -352h-23l-253 289q-9 10 -17 10t-17 -10l-255 -289h-23z" />
    <glyph glyph-name="Otilde" unicode="&#xd5;" horiz-adv-x="1830" 
d="M915 -37q-178 0 -328.5 61.5t-262 174t-173 265.5t-61.5 335t61.5 335t173 265.5t262 174t328.5 61.5t328.5 -61.5t262 -174t173 -265.5t61.5 -335t-61.5 -335t-173 -265.5t-262 -174t-328.5 -61.5zM915 -12q172 0 317 60t252.5 168.5t167 257t59.5 325.5t-59.5 325.5
t-167 257t-252.5 168.5t-317 60t-317 -60t-252.5 -168.5t-167 -257t-59.5 -325.5t59.5 -325.5t167 -257t252.5 -168.5t317 -60zM1077 1761q-54 0 -94 30t-74 69t-71 69t-85 30q-124 0 -153 -163h-18q14 89 58.5 138t112.5 49q54 0 94 -30t74 -69t71 -69t85 -30
q124 0 153 163h18q-14 -89 -58.5 -138t-112.5 -49z" />
    <glyph glyph-name="Odieresis" unicode="&#xd6;" horiz-adv-x="1830" 
d="M915 -37q-178 0 -328.5 61.5t-262 174t-173 265.5t-61.5 335t61.5 335t173 265.5t262 174t328.5 61.5t328.5 -61.5t262 -174t173 -265.5t61.5 -335t-61.5 -335t-173 -265.5t-262 -174t-328.5 -61.5zM915 -12q172 0 317 60t252.5 168.5t167 257t59.5 325.5t-59.5 325.5
t-167 257t-252.5 168.5t-317 60t-317 -60t-252.5 -168.5t-167 -257t-59.5 -325.5t59.5 -325.5t167 -257t252.5 -168.5t317 -60zM1173 1799q-25 0 -42.5 16t-17.5 41t17.5 41t42.5 16q26 0 43 -16t17 -41t-17 -41t-43 -16zM657 1799q-25 0 -42.5 16t-17.5 41t17.5 41t42.5 16
q26 0 43 -16t17 -41t-17 -41t-43 -16z" />
    <glyph glyph-name="multiply" unicode="&#xd7;" horiz-adv-x="1300" 
d="M177 249l-17 16l474 493l-474 492l17 16l473 -492l473 492l17 -16l-474 -492l474 -493l-17 -16l-473 492z" />
    <glyph glyph-name="Oslash" unicode="&#xd8;" horiz-adv-x="1830" 
d="M200 -100l188 241q-138 112 -218 281.5t-80 376.5q0 182 61.5 335t173 265.5t262 174t328.5 61.5q146 0 275 -42.5t232 -120.5l175 226h33l-188 -242q139 -112 218.5 -281t79.5 -376q0 -182 -61.5 -335t-173 -265.5t-262 -174t-328.5 -61.5q-146 0 -275 42.5t-232 120.5
l-175 -226h-33zM119 799q0 -200 76.5 -364t209.5 -273l1001 1289q-100 76 -224.5 117.5t-266.5 41.5q-172 0 -317 -60t-252.5 -168.5t-167 -257t-59.5 -325.5zM915 -12q172 0 317 60t252.5 168.5t167 257t59.5 325.5q0 200 -76 364t-209 272l-1002 -1288
q100 -76 224.5 -117.5t266.5 -41.5z" />
    <glyph glyph-name="Ugrave" unicode="&#xd9;" horiz-adv-x="1518" 
d="M759 -37q-275 0 -428.5 163.5t-153.5 463.5v1007h27v-1005q0 -290 145.5 -447t409.5 -157t409.5 157t145.5 447v1005h27v-1007q0 -300 -153.5 -463.5t-428.5 -163.5zM746 1713l-403 342h50l381 -342h-28z" />
    <glyph glyph-name="Uacute" unicode="&#xda;" horiz-adv-x="1518" 
d="M759 -37q-275 0 -428.5 163.5t-153.5 463.5v1007h27v-1005q0 -290 145.5 -447t409.5 -157t409.5 157t145.5 447v1005h27v-1007q0 -300 -153.5 -463.5t-428.5 -163.5zM772 1713l403 342h-50l-381 -342h28z" />
    <glyph glyph-name="Ucircumflex" unicode="&#xdb;" horiz-adv-x="1518" 
d="M759 -37q-275 0 -428.5 163.5t-153.5 463.5v1007h27v-1005q0 -290 145.5 -447t409.5 -157t409.5 157t145.5 447v1005h27v-1007q0 -300 -153.5 -463.5t-428.5 -163.5zM465 1713l293 352h2l293 -352h-23l-253 289q-9 10 -17 10t-17 -10l-255 -289h-23z" />
    <glyph glyph-name="Udieresis" unicode="&#xdc;" horiz-adv-x="1518" 
d="M759 -37q-275 0 -428.5 163.5t-153.5 463.5v1007h27v-1005q0 -290 145.5 -447t409.5 -157t409.5 157t145.5 447v1005h27v-1007q0 -300 -153.5 -463.5t-428.5 -163.5zM1017 1799q-25 0 -42.5 16t-17.5 41t17.5 41t42.5 16q26 0 43 -16t17 -41t-17 -41t-43 -16zM501 1799
q-25 0 -42.5 16t-17.5 41t17.5 41t42.5 16q26 0 43 -16t17 -41t-17 -41t-43 -16z" />
    <glyph glyph-name="Yacute" unicode="&#xdd;" horiz-adv-x="1275" 
d="M624 0v682l-590 915h31l574 -892l573 892h30l-591 -917v-680h-27zM652 1713l403 342h-50l-381 -342h28z" />
    <glyph glyph-name="Thorn" unicode="&#xde;" horiz-adv-x="1271" 
d="M196 0v1597h26v-346h504q224 0 343.5 -117t119.5 -335t-119.5 -335.5t-343.5 -117.5h-504v-346h-26zM222 371h504q215 0 325.5 108.5t110.5 319.5q0 210 -110.5 319t-325.5 109h-504v-856z" />
    <glyph glyph-name="germandbls" unicode="&#xdf;" horiz-adv-x="1216" 
d="M710 -34q-85 0 -178 27t-161 81v26q79 -59 167 -84.5t171 -26.5q120 -1 212 51.5t144 147t52 218.5q0 215 -150 341t-441 133v20q121 10 215 59.5t148.5 132.5t54.5 194q0 167 -99 268.5t-263 101.5q-188 0 -290.5 -112t-102.5 -326v-1218h-24v1221q0 222 110.5 339.5
t306.5 117.5q173 0 279.5 -107t106.5 -285q0 -150 -97 -254.5t-255 -137.5q247 -20 386 -147.5t139 -340.5q0 -131 -54.5 -230t-151.5 -154.5t-225 -55.5z" />
    <glyph glyph-name="agrave" unicode="&#xe0;" horiz-adv-x="1170" 
d="M501 -37q-125 0 -219.5 44.5t-147.5 124t-53 183.5q0 155 104.5 228.5t308.5 89.5q182 14 315 31t189 38v3q0 135 -41.5 238t-132.5 160.5t-240 57.5q-169 0 -292 -87.5t-152 -242.5h-25q20 111 86 190t165.5 121t217.5 42q155 0 251.5 -61t141.5 -168t45 -246v-709h-15
q-3 86 -5 154t-5 100q-3 33 -20 33q-13 0 -21 -23q-44 -126 -121.5 -190.5t-166 -87.5t-167.5 -23zM105 315q0 -97 50 -171t139 -116t207 -42q81 0 169 24.5t162.5 92t113.5 196.5q18 59 35 146.5t17 181.5v52q-59 -22 -189.5 -37.5t-314.5 -31.5q-202 -18 -295.5 -86.5
t-93.5 -208.5zM585 1300l-285 420h37l269 -420h-21z" />
    <glyph glyph-name="aacute" unicode="&#xe1;" horiz-adv-x="1170" 
d="M501 -37q-125 0 -219.5 44.5t-147.5 124t-53 183.5q0 155 104.5 228.5t308.5 89.5q182 14 315 31t189 38v3q0 135 -41.5 238t-132.5 160.5t-240 57.5q-169 0 -292 -87.5t-152 -242.5h-25q20 111 86 190t165.5 121t217.5 42q155 0 251.5 -61t141.5 -168t45 -246v-709h-15
q-3 86 -5 154t-5 100q-3 33 -20 33q-13 0 -21 -23q-44 -126 -121.5 -190.5t-166 -87.5t-167.5 -23zM105 315q0 -97 50 -171t139 -116t207 -42q81 0 169 24.5t162.5 92t113.5 196.5q18 59 35 146.5t17 181.5v52q-59 -22 -189.5 -37.5t-314.5 -31.5q-202 -18 -295.5 -86.5
t-93.5 -208.5zM593 1300l285 420h-37l-269 -420h21z" />
    <glyph glyph-name="acircumflex" unicode="&#xe2;" horiz-adv-x="1170" 
d="M501 -37q-125 0 -219.5 44.5t-147.5 124t-53 183.5q0 155 104.5 228.5t308.5 89.5q182 14 315 31t189 38v3q0 135 -41.5 238t-132.5 160.5t-240 57.5q-169 0 -292 -87.5t-152 -242.5h-25q20 111 86 190t165.5 121t217.5 42q155 0 251.5 -61t141.5 -168t45 -246v-709h-15
q-3 86 -5 154t-5 100q-3 33 -20 33q-13 0 -21 -23q-44 -126 -121.5 -190.5t-166 -87.5t-167.5 -23zM105 315q0 -97 50 -171t139 -116t207 -42q81 0 169 24.5t162.5 92t113.5 196.5q18 59 35 146.5t17 181.5v52q-59 -22 -189.5 -37.5t-314.5 -31.5q-202 -18 -295.5 -86.5
t-93.5 -208.5zM284 1300l304 420h2l304 -420h-21l-270 354q-9 12 -14 12t-14 -12l-270 -354h-21z" />
    <glyph glyph-name="atilde" unicode="&#xe3;" horiz-adv-x="1170" 
d="M501 -37q-125 0 -219.5 44.5t-147.5 124t-53 183.5q0 155 104.5 228.5t308.5 89.5q182 14 315 31t189 38v3q0 135 -41.5 238t-132.5 160.5t-240 57.5q-169 0 -292 -87.5t-152 -242.5h-25q20 111 86 190t165.5 121t217.5 42q155 0 251.5 -61t141.5 -168t45 -246v-709h-15
q-3 86 -5 154t-5 100q-3 33 -20 33q-13 0 -21 -23q-44 -126 -121.5 -190.5t-166 -87.5t-167.5 -23zM105 315q0 -97 50 -171t139 -116t207 -42q81 0 169 24.5t162.5 92t113.5 196.5q18 59 35 146.5t17 181.5v52q-59 -22 -189.5 -37.5t-314.5 -31.5q-202 -18 -295.5 -86.5
t-93.5 -208.5zM751 1342q-54 0 -94 30t-74 69t-71 69t-85 30q-124 0 -153 -163h-18q14 89 58.5 138t112.5 49q54 0 94 -30t74 -69t71 -69t85 -30q124 0 153 163h18q-14 -89 -58.5 -138t-112.5 -49z" />
    <glyph glyph-name="adieresis" unicode="&#xe4;" horiz-adv-x="1170" 
d="M501 -37q-125 0 -219.5 44.5t-147.5 124t-53 183.5q0 155 104.5 228.5t308.5 89.5q182 14 315 31t189 38v3q0 135 -41.5 238t-132.5 160.5t-240 57.5q-169 0 -292 -87.5t-152 -242.5h-25q20 111 86 190t165.5 121t217.5 42q155 0 251.5 -61t141.5 -168t45 -246v-709h-15
q-3 86 -5 154t-5 100q-3 33 -20 33q-13 0 -21 -23q-44 -126 -121.5 -190.5t-166 -87.5t-167.5 -23zM105 315q0 -97 50 -171t139 -116t207 -42q81 0 169 24.5t162.5 92t113.5 196.5q18 59 35 146.5t17 181.5v52q-59 -22 -189.5 -37.5t-314.5 -31.5q-202 -18 -295.5 -86.5
t-93.5 -208.5zM797 1388q-25 0 -42.5 16t-17.5 41t17.5 41t42.5 16q26 0 43 -16t17 -41t-17 -41t-43 -16zM381 1388q-25 0 -42.5 16t-17.5 41t17.5 41t42.5 16q26 0 43 -16t17 -41t-17 -41t-43 -16z" />
    <glyph glyph-name="aring" unicode="&#xe5;" horiz-adv-x="1170" 
d="M501 -37q-125 0 -219.5 44.5t-147.5 124t-53 183.5q0 155 104.5 228.5t308.5 89.5q182 14 315 31t189 38v3q0 135 -41.5 238t-132.5 160.5t-240 57.5q-169 0 -292 -87.5t-152 -242.5h-25q20 111 86 190t165.5 121t217.5 42q155 0 251.5 -61t141.5 -168t45 -246v-709h-15
q-3 86 -5 154t-5 100q-3 33 -20 33q-13 0 -21 -23q-44 -126 -121.5 -190.5t-166 -87.5t-167.5 -23zM105 315q0 -97 50 -171t139 -116t207 -42q81 0 169 24.5t162.5 92t113.5 196.5q18 59 35 146.5t17 181.5v52q-59 -22 -189.5 -37.5t-314.5 -31.5q-202 -18 -295.5 -86.5
t-93.5 -208.5zM586 1300q-83 0 -137 54.5t-54 135.5t54 135.5t137 54.5t137 -54.5t54 -135.5t-54 -135.5t-137 -54.5zM586 1322q72 0 119 48.5t47 119.5t-47 119.5t-119 48.5t-119 -48.5t-47 -119.5t47 -119.5t119 -48.5z" />
    <glyph glyph-name="ae" unicode="&#xe6;" horiz-adv-x="2143" 
d="M520 -37q-119 0 -218 40t-158.5 118t-59.5 191q0 151 102.5 227.5t286.5 76.5h527v29v10q0 243 -111.5 374.5t-323.5 131.5q-162 0 -281 -88.5t-148 -241.5h-25q19 110 83.5 189t161 121.5t210.5 42.5q209 0 322 -118.5t132 -323.5q44 204 186 323t344 119
q155 0 271.5 -72t181.5 -201.5t65 -302.5v-14h-1043v-22v-1q0 -181 66 -312t186 -202t282 -71q182 0 307.5 99t160.5 265h25q-35 -178 -168.5 -282.5t-324.5 -104.5q-225 0 -369.5 129t-179.5 345q-31 -232 -155.5 -353t-334.5 -121zM1550 1161q-150 0 -265 -69
t-182.5 -191.5t-76.5 -284.5h1018q-3 166 -65 288.5t-172 189.5t-257 67zM520 -14q461 0 479 608h-525q-173 0 -269.5 -69.5t-96.5 -213.5q0 -106 57 -178.5t151 -109.5t204 -37z" />
    <glyph glyph-name="ccedilla" unicode="&#xe7;" horiz-adv-x="1291" 
d="M674 -37q-175 0 -309 78t-210 215.5t-76 316.5q0 180 76 317.5t210 215.5t309 78q232 0 376 -123t178 -327h-25q-34 191 -169.5 309t-359.5 118q-168 0 -296.5 -74.5t-201.5 -207t-73 -306.5q0 -173 73 -305.5t201.5 -207t296.5 -74.5q224 0 359.5 118t169.5 308h25
q-34 -203 -178 -326t-376 -123zM697 -535q-116 0 -191 72.5t-83 198.5h25q10 -116 77 -182t173 -66q94 0 147 50.5t53 140.5q0 88 -73 167.5t-195 125.5l21 8q125 -44 198 -128t73 -173q0 -100 -60.5 -157t-164.5 -57z" />
    <glyph glyph-name="egrave" unicode="&#xe8;" horiz-adv-x="1284" 
d="M666 -37q-175 0 -307 76t-205.5 213.5t-73.5 320.5q0 182 75 319.5t205.5 214.5t296.5 77q168 0 292 -72.5t192 -203t68 -304.5v-15h-1105v-14v-4q0 -176 70.5 -307.5t197.5 -204.5t294 -73q200 0 332.5 99t169.5 265h25q-37 -178 -178 -282.5t-349 -104.5zM657 1161
q-154 0 -276 -69t-195 -192.5t-81 -288.5h1080q-2 167 -66.5 290.5t-182.5 191.5t-279 68zM650 1300l-285 420h37l269 -420h-21z" />
    <glyph glyph-name="eacute" unicode="&#xe9;" horiz-adv-x="1284" 
d="M666 -37q-175 0 -307 76t-205.5 213.5t-73.5 320.5q0 182 75 319.5t205.5 214.5t296.5 77q168 0 292 -72.5t192 -203t68 -304.5v-15h-1105v-14v-4q0 -176 70.5 -307.5t197.5 -204.5t294 -73q200 0 332.5 99t169.5 265h25q-37 -178 -178 -282.5t-349 -104.5zM657 1161
q-154 0 -276 -69t-195 -192.5t-81 -288.5h1080q-2 167 -66.5 290.5t-182.5 191.5t-279 68zM658 1300l285 420h-37l-269 -420h21z" />
    <glyph glyph-name="ecircumflex" unicode="&#xea;" horiz-adv-x="1284" 
d="M666 -37q-175 0 -307 76t-205.5 213.5t-73.5 320.5q0 182 75 319.5t205.5 214.5t296.5 77q168 0 292 -72.5t192 -203t68 -304.5v-15h-1105v-14v-4q0 -176 70.5 -307.5t197.5 -204.5t294 -73q200 0 332.5 99t169.5 265h25q-37 -178 -178 -282.5t-349 -104.5zM657 1161
q-154 0 -276 -69t-195 -192.5t-81 -288.5h1080q-2 167 -66.5 290.5t-182.5 191.5t-279 68zM349 1300l304 420h2l304 -420h-21l-270 354q-9 12 -14 12t-14 -12l-270 -354h-21z" />
    <glyph glyph-name="edieresis" unicode="&#xeb;" horiz-adv-x="1284" 
d="M666 -37q-175 0 -307 76t-205.5 213.5t-73.5 320.5q0 182 75 319.5t205.5 214.5t296.5 77q168 0 292 -72.5t192 -203t68 -304.5v-15h-1105v-14v-4q0 -176 70.5 -307.5t197.5 -204.5t294 -73q200 0 332.5 99t169.5 265h25q-37 -178 -178 -282.5t-349 -104.5zM657 1161
q-154 0 -276 -69t-195 -192.5t-81 -288.5h1080q-2 167 -66.5 290.5t-182.5 191.5t-279 68zM862 1388q-25 0 -42.5 16t-17.5 41t17.5 41t42.5 16q26 0 43 -16t17 -41t-17 -41t-43 -16zM446 1388q-25 0 -42.5 16t-17.5 41t17.5 41t42.5 16q26 0 43 -16t17 -41t-17 -41t-43 -16
z" />
    <glyph glyph-name="igrave" unicode="&#xec;" horiz-adv-x="401" 
d="M204 0v1147h24v-1147h-24zM204 1300l-213 420h34l199 -420h-20z" />
    <glyph glyph-name="iacute" unicode="&#xed;" horiz-adv-x="370" 
d="M173 0v1147h24v-1147h-24zM197 1300l213 420h-34l-199 -420h20z" />
    <glyph glyph-name="icircumflex" unicode="&#xee;" horiz-adv-x="401" 
d="M204 0v1147h24v-1147h-24zM211 1720l-232 -420h20l207 353q5 8 10 8t10 -8l207 -353h20l-232 420h-10z" />
    <glyph glyph-name="idieresis" unicode="&#xef;" horiz-adv-x="370" 
d="M173 0v1147h24v-1147h-24zM333 1396q-25 0 -42.5 16t-17.5 41t17.5 41t42.5 16q26 0 43 -16t17 -41t-17 -41t-43 -16zM37 1396q-25 0 -42.5 16t-17.5 41t17.5 41t42.5 16q26 0 43 -16t17 -41t-17 -41t-43 -16z" />
    <glyph glyph-name="eth" unicode="&#xf0;" horiz-adv-x="1308" 
d="M642 -37q-163 0 -289.5 74.5t-199.5 204t-73 293.5t73 293.5t200.5 204t291.5 74.5q155 0 269 -65.5t180 -154.5q18 -24 27.5 -32t18.5 -8q18 0 18 23t-18 92q-77 298 -283 486l-370 -161l-1 22l353 154q-149 129 -349 190l27 12q196 -61 344 -193l304 133v-23l-287 -125
q157 -147 244.5 -370t87.5 -508q0 -178 -70.5 -317t-198.5 -219t-299 -80zM642 -14q159 0 281 73.5t190.5 201.5t68.5 292q0 146 -70.5 266.5t-191.5 192.5t-275 72q-158 0 -280 -71.5t-191.5 -195.5t-69.5 -282q0 -157 69.5 -281.5t190.5 -196t278 -71.5z" />
    <glyph glyph-name="ntilde" unicode="&#xf1;" horiz-adv-x="1285" 
d="M165 0v1147h15q0 -92 3 -166t4 -109q3 -59 22 -59q8 0 14.5 6.5t18.5 38.5q56 145 168.5 235.5t299.5 90.5q194 0 310.5 -129.5t116.5 -352.5v-702h-24v702q0 212 -109.5 335.5t-293.5 123.5q-151 0 -266 -72t-181 -239q-34 -85 -54 -186.5t-20 -251.5v-412h-24z
M814 1342q-54 0 -94 30t-74 69t-71 69t-85 30q-124 0 -153 -163h-18q14 89 58.5 138t112.5 49q54 0 94 -30t74 -69t71 -69t85 -30q124 0 153 163h18q-14 -89 -58.5 -138t-112.5 -49z" />
    <glyph glyph-name="ograve" unicode="&#xf2;" horiz-adv-x="1354" 
d="M677 -37q-173 0 -308.5 79.5t-213 217.5t-77.5 313q0 176 77.5 314t213 217.5t308.5 79.5t308.5 -79.5t213 -217.5t77.5 -314q0 -175 -77.5 -313t-213 -217.5t-308.5 -79.5zM677 -14q167 0 297 76.5t204 209.5t74 301q0 169 -74 302t-204 209.5t-297 76.5t-297 -76.5
t-204 -209.5t-74 -302q0 -168 74 -301t204 -209.5t297 -76.5zM673 1300l-285 420h37l269 -420h-21z" />
    <glyph glyph-name="oacute" unicode="&#xf3;" horiz-adv-x="1354" 
d="M677 -37q-173 0 -308.5 79.5t-213 217.5t-77.5 313q0 176 77.5 314t213 217.5t308.5 79.5t308.5 -79.5t213 -217.5t77.5 -314q0 -175 -77.5 -313t-213 -217.5t-308.5 -79.5zM677 -14q167 0 297 76.5t204 209.5t74 301q0 169 -74 302t-204 209.5t-297 76.5t-297 -76.5
t-204 -209.5t-74 -302q0 -168 74 -301t204 -209.5t297 -76.5zM681 1300l285 420h-37l-269 -420h21z" />
    <glyph glyph-name="ocircumflex" unicode="&#xf4;" horiz-adv-x="1354" 
d="M677 -37q-173 0 -308.5 79.5t-213 217.5t-77.5 313q0 176 77.5 314t213 217.5t308.5 79.5t308.5 -79.5t213 -217.5t77.5 -314q0 -175 -77.5 -313t-213 -217.5t-308.5 -79.5zM677 -14q167 0 297 76.5t204 209.5t74 301q0 169 -74 302t-204 209.5t-297 76.5t-297 -76.5
t-204 -209.5t-74 -302q0 -168 74 -301t204 -209.5t297 -76.5zM372 1300l304 420h2l304 -420h-21l-270 354q-9 12 -14 12t-14 -12l-270 -354h-21z" />
    <glyph glyph-name="otilde" unicode="&#xf5;" horiz-adv-x="1354" 
d="M677 -37q-173 0 -308.5 79.5t-213 217.5t-77.5 313q0 176 77.5 314t213 217.5t308.5 79.5t308.5 -79.5t213 -217.5t77.5 -314q0 -175 -77.5 -313t-213 -217.5t-308.5 -79.5zM677 -14q167 0 297 76.5t204 209.5t74 301q0 169 -74 302t-204 209.5t-297 76.5t-297 -76.5
t-204 -209.5t-74 -302q0 -168 74 -301t204 -209.5t297 -76.5zM839 1342q-54 0 -94 30t-74 69t-71 69t-85 30q-124 0 -153 -163h-18q14 89 58.5 138t112.5 49q54 0 94 -30t74 -69t71 -69t85 -30q124 0 153 163h18q-14 -89 -58.5 -138t-112.5 -49z" />
    <glyph glyph-name="odieresis" unicode="&#xf6;" horiz-adv-x="1354" 
d="M677 -37q-173 0 -308.5 79.5t-213 217.5t-77.5 313q0 176 77.5 314t213 217.5t308.5 79.5t308.5 -79.5t213 -217.5t77.5 -314q0 -175 -77.5 -313t-213 -217.5t-308.5 -79.5zM677 -14q167 0 297 76.5t204 209.5t74 301q0 169 -74 302t-204 209.5t-297 76.5t-297 -76.5
t-204 -209.5t-74 -302q0 -168 74 -301t204 -209.5t297 -76.5zM885 1388q-25 0 -42.5 16t-17.5 41t17.5 41t42.5 16q26 0 43 -16t17 -41t-17 -41t-43 -16zM469 1388q-25 0 -42.5 16t-17.5 41t17.5 41t42.5 16q26 0 43 -16t17 -41t-17 -41t-43 -16z" />
    <glyph glyph-name="divide" unicode="&#xf7;" horiz-adv-x="1300" 
d="M650 1086q-29 0 -45.5 18.5t-16.5 40.5q0 23 16.5 41t45.5 18t45.5 -18t16.5 -41q0 -22 -16.5 -40.5t-45.5 -18.5zM138 745v23h1024v-23h-1024zM650 309q-29 0 -45.5 18.5t-16.5 40.5q0 23 16.5 41t45.5 18t45.5 -18t16.5 -41q0 -22 -16.5 -40.5t-45.5 -18.5z" />
    <glyph glyph-name="oslash" unicode="&#xf8;" horiz-adv-x="1354" 
d="M179 -100l131 182q-108 82 -170 209t-62 282q0 176 77.5 314t213 217.5t308.5 79.5q100 0 188 -27.5t160 -77.5l121 168h29l-131 -182q108 -82 170 -209.5t62 -282.5q0 -175 -77.5 -313t-213 -217.5t-308.5 -79.5q-100 0 -188 27.5t-160 77.5l-121 -168h-29zM102 573
q0 -149 59 -271t162 -201l689 959q-69 48 -154 74.5t-181 26.5q-167 0 -297 -76.5t-204 -209.5t-74 -302zM677 -14q167 0 297 76.5t204 209.5t74 301q0 150 -59 272t-162 201l-689 -959q69 -48 154 -74.5t181 -26.5z" />
    <glyph glyph-name="ugrave" unicode="&#xf9;" horiz-adv-x="1275" 
d="M589 -37q-205 0 -323 129.5t-118 355.5v699h24v-699q0 -216 111.5 -339t305.5 -123q158 0 262 68t161 213q36 92 55 199t19 236v445h24v-1147h-15q0 83 -2.5 147t-4.5 98q-3 59 -22 59q-8 0 -14.5 -6.5t-18.5 -38.5q-55 -145 -166 -220.5t-278 -75.5zM637 1300l-285 420
h37l269 -420h-21z" />
    <glyph glyph-name="uacute" unicode="&#xfa;" horiz-adv-x="1275" 
d="M589 -37q-205 0 -323 129.5t-118 355.5v699h24v-699q0 -216 111.5 -339t305.5 -123q158 0 262 68t161 213q36 92 55 199t19 236v445h24v-1147h-15q0 83 -2.5 147t-4.5 98q-3 59 -22 59q-8 0 -14.5 -6.5t-18.5 -38.5q-55 -145 -166 -220.5t-278 -75.5zM645 1300l285 420
h-37l-269 -420h21z" />
    <glyph glyph-name="ucircumflex" unicode="&#xfb;" horiz-adv-x="1275" 
d="M589 -37q-205 0 -323 129.5t-118 355.5v699h24v-699q0 -216 111.5 -339t305.5 -123q158 0 262 68t161 213q36 92 55 199t19 236v445h24v-1147h-15q0 83 -2.5 147t-4.5 98q-3 59 -22 59q-8 0 -14.5 -6.5t-18.5 -38.5q-55 -145 -166 -220.5t-278 -75.5zM336 1300l304 420h2
l304 -420h-21l-270 354q-9 12 -14 12t-14 -12l-270 -354h-21z" />
    <glyph glyph-name="udieresis" unicode="&#xfc;" horiz-adv-x="1275" 
d="M589 -37q-205 0 -323 129.5t-118 355.5v699h24v-699q0 -216 111.5 -339t305.5 -123q158 0 262 68t161 213q36 92 55 199t19 236v445h24v-1147h-15q0 83 -2.5 147t-4.5 98q-3 59 -22 59q-8 0 -14.5 -6.5t-18.5 -38.5q-55 -145 -166 -220.5t-278 -75.5zM849 1388
q-25 0 -42.5 16t-17.5 41t17.5 41t42.5 16q26 0 43 -16t17 -41t-17 -41t-43 -16zM433 1388q-25 0 -42.5 16t-17.5 41t17.5 41t42.5 16q26 0 43 -16t17 -41t-17 -41t-43 -16z" />
    <glyph glyph-name="yacute" unicode="&#xfd;" horiz-adv-x="1101" 
d="M316 -490l221 490l-516 1147h26l503 -1119l503 1119h27l-738 -1637h-26zM554 1300l285 420h-37l-269 -420h21z" />
    <glyph glyph-name="thorn" unicode="&#xfe;" horiz-adv-x="1411" 
d="M165 -490v2149h24v-724q0 -57 26 -57q9 0 16.5 6.5t21.5 29.5q80 130 206 199.5t282 69.5q173 0 306 -80.5t209 -218.5t76 -311t-76 -311t-209 -218.5t-306 -80.5q-156 0 -282 69.5t-206 199.5q-14 23 -21.5 29.5t-16.5 6.5q-26 0 -26 -57v-701h-24zM739 -14
q167 0 295.5 77.5t201 210.5t72.5 299q0 167 -72.5 299.5t-201 210t-295.5 77.5q-161 0 -285 -74.5t-194.5 -207t-70.5 -305.5t70.5 -305.5t194.5 -207t285 -74.5z" />
    <glyph glyph-name="ydieresis" unicode="&#xff;" horiz-adv-x="1101" 
d="M316 -490l221 490l-516 1147h26l503 -1119l503 1119h27l-738 -1637h-26zM758 1388q-25 0 -42.5 16t-17.5 41t17.5 41t42.5 16q26 0 43 -16t17 -41t-17 -41t-43 -16zM342 1388q-25 0 -42.5 16t-17.5 41t17.5 41t42.5 16q26 0 43 -16t17 -41t-17 -41t-43 -16z" />
    <glyph glyph-name="Amacron" unicode="&#x100;" horiz-adv-x="1345" 
d="M19 0l641 1597h25l641 -1597h-29l-210 524h-829l-210 -524h-29zM267 549h811l-405 1013zM382 1810v23h580v-23h-580z" />
    <glyph glyph-name="amacron" unicode="&#x101;" horiz-adv-x="1170" 
d="M501 -37q-125 0 -219.5 44.5t-147.5 124t-53 183.5q0 155 104.5 228.5t308.5 89.5q182 14 315 31t189 38v3q0 135 -41.5 238t-132.5 160.5t-240 57.5q-169 0 -292 -87.5t-152 -242.5h-25q20 111 86 190t165.5 121t217.5 42q155 0 251.5 -61t141.5 -168t45 -246v-709h-15
q-3 86 -5 154t-5 100q-3 33 -20 33q-13 0 -21 -23q-44 -126 -121.5 -190.5t-166 -87.5t-167.5 -23zM105 315q0 -97 50 -171t139 -116t207 -42q81 0 169 24.5t162.5 92t113.5 196.5q18 59 35 146.5t17 181.5v52q-59 -22 -189.5 -37.5t-314.5 -31.5q-202 -18 -295.5 -86.5
t-93.5 -208.5zM299 1420v23h580v-23h-580z" />
    <glyph glyph-name="Abreve" unicode="&#x102;" horiz-adv-x="1345" 
d="M19 0l641 1597h25l641 -1597h-29l-210 524h-829l-210 -524h-29zM267 549h811l-405 1013zM672 1751q-121 0 -205 66.5t-107 184.5h11q31 -106 111 -165.5t190 -59.5t190 59.5t111 165.5h11q-23 -118 -106.5 -184.5t-205.5 -66.5z" />
    <glyph glyph-name="abreve" unicode="&#x103;" horiz-adv-x="1170" 
d="M501 -37q-125 0 -219.5 44.5t-147.5 124t-53 183.5q0 155 104.5 228.5t308.5 89.5q182 14 315 31t189 38v3q0 135 -41.5 238t-132.5 160.5t-240 57.5q-169 0 -292 -87.5t-152 -242.5h-25q20 111 86 190t165.5 121t217.5 42q155 0 251.5 -61t141.5 -168t45 -246v-709h-15
q-3 86 -5 154t-5 100q-3 33 -20 33q-13 0 -21 -23q-44 -126 -121.5 -190.5t-166 -87.5t-167.5 -23zM105 315q0 -97 50 -171t139 -116t207 -42q81 0 169 24.5t162.5 92t113.5 196.5q18 59 35 146.5t17 181.5v52q-59 -22 -189.5 -37.5t-314.5 -31.5q-202 -18 -295.5 -86.5
t-93.5 -208.5zM589 1328q-121 0 -204.5 69.5t-106.5 190.5h10q31 -110 110.5 -172.5t190.5 -62.5t190.5 62.5t110.5 172.5h10q-23 -121 -106 -190.5t-205 -69.5z" />
    <glyph glyph-name="Aogonek" unicode="&#x104;" horiz-adv-x="1345" 
d="M19 0l641 1597h25l641 -1597h-29l-210 524h-829l-210 -524h-29zM267 549h811l-405 1013zM1269 -455q-75 0 -130 41t-55 122q0 73 52 139.5t167 160.5l23 -8q-83 -69 -129.5 -118.5t-65 -90t-18.5 -83.5q0 -70 46.5 -103.5t110.5 -33.5q72 0 137 35v-26q-67 -35 -138 -35z
" />
    <glyph glyph-name="aogonek" unicode="&#x105;" horiz-adv-x="1170" 
d="M501 -37q-125 0 -219.5 44.5t-147.5 124t-53 183.5q0 155 104.5 228.5t308.5 89.5q182 14 315 31t189 38v3q0 135 -41.5 238t-132.5 160.5t-240 57.5q-169 0 -292 -87.5t-152 -242.5h-25q20 111 86 190t165.5 121t217.5 42q155 0 251.5 -61t141.5 -168t45 -246v-709h-15
q-3 86 -5 154t-5 100q-3 33 -20 33q-13 0 -21 -23q-44 -126 -121.5 -190.5t-166 -87.5t-167.5 -23zM105 315q0 -97 50 -171t139 -116t207 -42q81 0 169 24.5t162.5 92t113.5 196.5q18 59 35 146.5t17 181.5v52q-59 -22 -189.5 -37.5t-314.5 -31.5q-202 -18 -295.5 -86.5
t-93.5 -208.5zM961 -459q-80 0 -128.5 43.5t-48.5 115.5q0 73 52 142t171 166l15 -8q-83 -71 -129.5 -122t-65 -93t-18.5 -85q0 -63 42 -100t112 -37q91 0 168 60v-23q-38 -30 -82 -44.5t-88 -14.5z" />
    <glyph glyph-name="Cacute" unicode="&#x106;" horiz-adv-x="1727" 
d="M912 -37q-182 0 -332.5 61.5t-260 174t-169 265t-59.5 335.5t59.5 335.5t169 265t260 174t332.5 61.5q208 0 365 -74t255.5 -208t130.5 -314h-28q-31 173 -126 301.5t-246 199t-351 70.5q-176 0 -321.5 -59.5t-251 -168.5t-162.5 -257.5t-57 -325.5t57 -325.5
t162.5 -257.5t251 -168.5t321.5 -59.5q200 0 351 70.5t246 199t126 301.5h28q-32 -179 -130.5 -313.5t-255.5 -208.5t-365 -74zM928 1713l403 342h-50l-381 -342h28z" />
    <glyph glyph-name="cacute" unicode="&#x107;" horiz-adv-x="1291" 
d="M674 -37q-175 0 -309 78t-210 215.5t-76 316.5q0 180 76 317.5t210 215.5t309 78q232 0 376 -123t178 -327h-25q-34 191 -169.5 309t-359.5 118q-168 0 -296.5 -74.5t-201.5 -207t-73 -306.5q0 -173 73 -305.5t201.5 -207t296.5 -74.5q224 0 359.5 118t169.5 308h25
q-34 -203 -178 -326t-376 -123zM685 1300l285 420h-37l-269 -420h21z" />
    <glyph glyph-name="Ccircumflex" unicode="&#x108;" horiz-adv-x="1727" 
d="M912 -37q-182 0 -332.5 61.5t-260 174t-169 265t-59.5 335.5t59.5 335.5t169 265t260 174t332.5 61.5q208 0 365 -74t255.5 -208t130.5 -314h-28q-31 173 -126 301.5t-246 199t-351 70.5q-176 0 -321.5 -59.5t-251 -168.5t-162.5 -257.5t-57 -325.5t57 -325.5
t162.5 -257.5t251 -168.5t321.5 -59.5q200 0 351 70.5t246 199t126 301.5h28q-32 -179 -130.5 -313.5t-255.5 -208.5t-365 -74zM621 1713l293 352h2l293 -352h-23l-253 289q-9 10 -17 10t-17 -10l-255 -289h-23z" />
    <glyph glyph-name="ccircumflex" unicode="&#x109;" horiz-adv-x="1291" 
d="M674 -37q-175 0 -309 78t-210 215.5t-76 316.5q0 180 76 317.5t210 215.5t309 78q232 0 376 -123t178 -327h-25q-34 191 -169.5 309t-359.5 118q-168 0 -296.5 -74.5t-201.5 -207t-73 -306.5q0 -173 73 -305.5t201.5 -207t296.5 -74.5q224 0 359.5 118t169.5 308h25
q-34 -203 -178 -326t-376 -123zM376 1300l304 420h2l304 -420h-21l-270 354q-9 12 -14 12t-14 -12l-270 -354h-21z" />
    <glyph glyph-name="Cdotaccent" unicode="&#x10a;" horiz-adv-x="1727" 
d="M912 -37q-182 0 -332.5 61.5t-260 174t-169 265t-59.5 335.5t59.5 335.5t169 265t260 174t332.5 61.5q208 0 365 -74t255.5 -208t130.5 -314h-28q-31 173 -126 301.5t-246 199t-351 70.5q-176 0 -321.5 -59.5t-251 -168.5t-162.5 -257.5t-57 -325.5t57 -325.5
t162.5 -257.5t251 -168.5t321.5 -59.5q200 0 351 70.5t246 199t126 301.5h28q-32 -179 -130.5 -313.5t-255.5 -208.5t-365 -74zM916 1799q-25 0 -42.5 16t-17.5 41t17.5 41t42.5 16q26 0 43 -16t17 -41t-17 -41t-43 -16z" />
    <glyph glyph-name="cdotaccent" unicode="&#x10b;" horiz-adv-x="1291" 
d="M674 -37q-175 0 -309 78t-210 215.5t-76 316.5q0 180 76 317.5t210 215.5t309 78q232 0 376 -123t178 -327h-25q-34 191 -169.5 309t-359.5 118q-168 0 -296.5 -74.5t-201.5 -207t-73 -306.5q0 -173 73 -305.5t201.5 -207t296.5 -74.5q224 0 359.5 118t169.5 308h25
q-34 -203 -178 -326t-376 -123zM680 1388q-29 0 -45 17.5t-16 39.5t16 39.5t45 17.5t45 -17.5t16 -39.5t-16 -39.5t-45 -17.5z" />
    <glyph glyph-name="Ccaron" unicode="&#x10c;" horiz-adv-x="1727" 
d="M912 -37q-182 0 -332.5 61.5t-260 174t-169 265t-59.5 335.5t59.5 335.5t169 265t260 174t332.5 61.5q208 0 365 -74t255.5 -208t130.5 -314h-28q-31 173 -126 301.5t-246 199t-351 70.5q-176 0 -321.5 -59.5t-251 -168.5t-162.5 -257.5t-57 -325.5t57 -325.5
t162.5 -257.5t251 -168.5t321.5 -59.5q200 0 351 70.5t246 199t126 301.5h28q-32 -179 -130.5 -313.5t-255.5 -208.5t-365 -74zM621 2065l293 -352h2l293 352h-23l-253 -289q-9 -10 -17 -10t-17 10l-255 289h-23z" />
    <glyph glyph-name="ccaron" unicode="&#x10d;" horiz-adv-x="1291" 
d="M674 -37q-175 0 -309 78t-210 215.5t-76 316.5q0 180 76 317.5t210 215.5t309 78q232 0 376 -123t178 -327h-25q-34 191 -169.5 309t-359.5 118q-168 0 -296.5 -74.5t-201.5 -207t-73 -306.5q0 -173 73 -305.5t201.5 -207t296.5 -74.5q224 0 359.5 118t169.5 308h25
q-34 -203 -178 -326t-376 -123zM376 1720l304 -420h2l304 420h-21l-270 -354q-9 -12 -14 -12t-14 12l-270 354h-21z" />
    <glyph glyph-name="Dcaron" unicode="&#x10e;" horiz-adv-x="1609" 
d="M196 0v1597h506q254 0 436 -100t279.5 -279.5t97.5 -418.5t-97.5 -419t-279.5 -280t-436 -100h-506zM223 24h477q246 0 422 96.5t270 271t94 407.5t-94 407t-270 270.5t-422 96.5h-477v-1549zM449 2065l293 -352h2l293 352h-23l-253 -289q-9 -10 -17 -10t-17 10l-255 289
h-23z" />
    <glyph glyph-name="dcaron" unicode="&#x10f;" horiz-adv-x="1440" 
d="M670 -37q-172 0 -305.5 80.5t-209.5 218.5t-76 311q0 174 76 312t208.5 218.5t304.5 80.5q151 0 280 -66.5t211 -205.5q14 -24 22.5 -30t16.5 -6q11 0 17.5 10t6.5 42v731h24v-1659h-15q0 24 -1 64.5t-3.5 83.5t-5.5 72t-8.5 38.5t-16.5 9.5q-9 0 -16.5 -6.5t-21.5 -29.5
q-79 -130 -205 -199.5t-283 -69.5zM672 -14q161 0 285 75t194.5 206t70.5 300q0 176 -69.5 309.5t-194 209t-288.5 75.5q-166 0 -294 -77.5t-200.5 -210.5t-72.5 -300q0 -166 72.5 -299t201 -210.5t295.5 -77.5zM1396 1124l59 535h30l-71 -535h-18z" />
    <glyph glyph-name="Dcroat" unicode="&#x110;" horiz-adv-x="1652" 
d="M239 0v787h-256v24h256v786h506q254 0 436 -100t279.5 -279.5t97.5 -418.5t-97.5 -419t-279.5 -280t-436 -100h-506zM266 24h477q246 0 422 96.5t270 271t94 407.5t-94 407t-270 270.5t-422 96.5h-477v-762h575v-24h-575v-763z" />
    <glyph glyph-name="dcroat" unicode="&#x111;" horiz-adv-x="1411" 
d="M670 -37q-172 0 -305.5 80.5t-209.5 218.5t-76 311q0 174 76 312t208.5 218.5t304.5 80.5q151 0 280 -66.5t211 -205.5q14 -24 22.5 -30t16.5 -6q11 0 17.5 10t6.5 42v465h-472v23h472v243h24v-243h200v-23h-200v-1393h-15q0 24 -1 64.5t-3.5 83.5t-5.5 72t-8.5 38.5
t-16.5 9.5q-9 0 -16.5 -6.5t-21.5 -29.5q-79 -130 -205 -199.5t-283 -69.5zM672 -14q161 0 285 75t194.5 206t70.5 300q0 176 -69.5 309.5t-194 209t-288.5 75.5q-166 0 -294 -77.5t-200.5 -210.5t-72.5 -300q0 -166 72.5 -299t201 -210.5t295.5 -77.5z" />
    <glyph glyph-name="Emacron" unicode="&#x112;" horiz-adv-x="1186" 
d="M196 0v1597h918v-24h-891v-750h779v-24h-779v-774h932v-25h-959zM375 1810v23h580v-23h-580z" />
    <glyph glyph-name="emacron" unicode="&#x113;" horiz-adv-x="1284" 
d="M666 -37q-175 0 -307 76t-205.5 213.5t-73.5 320.5q0 182 75 319.5t205.5 214.5t296.5 77q168 0 292 -72.5t192 -203t68 -304.5v-15h-1105v-14v-4q0 -176 70.5 -307.5t197.5 -204.5t294 -73q200 0 332.5 99t169.5 265h25q-37 -178 -178 -282.5t-349 -104.5zM657 1161
q-154 0 -276 -69t-195 -192.5t-81 -288.5h1080q-2 167 -66.5 290.5t-182.5 191.5t-279 68zM364 1420v23h580v-23h-580z" />
    <glyph glyph-name="Ebreve" unicode="&#x114;" horiz-adv-x="1186" 
d="M196 0v1597h918v-24h-891v-750h779v-24h-779v-774h932v-25h-959zM665 1751q-121 0 -205 66.5t-107 184.5h11q31 -106 111 -165.5t190 -59.5t190 59.5t111 165.5h11q-23 -118 -106.5 -184.5t-205.5 -66.5z" />
    <glyph glyph-name="ebreve" unicode="&#x115;" horiz-adv-x="1284" 
d="M666 -37q-175 0 -307 76t-205.5 213.5t-73.5 320.5q0 182 75 319.5t205.5 214.5t296.5 77q168 0 292 -72.5t192 -203t68 -304.5v-15h-1105v-14v-4q0 -176 70.5 -307.5t197.5 -204.5t294 -73q200 0 332.5 99t169.5 265h25q-37 -178 -178 -282.5t-349 -104.5zM657 1161
q-154 0 -276 -69t-195 -192.5t-81 -288.5h1080q-2 167 -66.5 290.5t-182.5 191.5t-279 68zM654 1328q-121 0 -204.5 69.5t-106.5 190.5h10q31 -110 110.5 -172.5t190.5 -62.5t190.5 62.5t110.5 172.5h10q-23 -121 -106 -190.5t-205 -69.5z" />
    <glyph glyph-name="Edotaccent" unicode="&#x116;" horiz-adv-x="1186" 
d="M196 0v1597h918v-24h-891v-750h779v-24h-779v-774h932v-25h-959zM666 1799q-25 0 -42.5 16t-17.5 41t17.5 41t42.5 16q26 0 43 -16t17 -41t-17 -41t-43 -16z" />
    <glyph glyph-name="edotaccent" unicode="&#x117;" horiz-adv-x="1284" 
d="M666 -37q-175 0 -307 76t-205.5 213.5t-73.5 320.5q0 182 75 319.5t205.5 214.5t296.5 77q168 0 292 -72.5t192 -203t68 -304.5v-15h-1105v-14v-4q0 -176 70.5 -307.5t197.5 -204.5t294 -73q200 0 332.5 99t169.5 265h25q-37 -178 -178 -282.5t-349 -104.5zM657 1161
q-154 0 -276 -69t-195 -192.5t-81 -288.5h1080q-2 167 -66.5 290.5t-182.5 191.5t-279 68zM653 1388q-29 0 -45 17.5t-16 39.5t16 39.5t45 17.5t45 -17.5t16 -39.5t-16 -39.5t-45 -17.5z" />
    <glyph glyph-name="Eogonek" unicode="&#x118;" horiz-adv-x="1186" 
d="M196 0v1597h918v-24h-891v-750h779v-24h-779v-774h932v-25h-959zM1098 -455q-75 0 -130 41t-55 122q0 73 52 139.5t167 160.5l23 -8q-83 -69 -129.5 -118.5t-65 -90t-18.5 -83.5q0 -70 46.5 -103.5t110.5 -33.5q72 0 137 35v-26q-67 -35 -138 -35z" />
    <glyph glyph-name="eogonek" unicode="&#x119;" horiz-adv-x="1284" 
d="M666 -37q-175 0 -307 76t-205.5 213.5t-73.5 320.5q0 182 75 319.5t205.5 214.5t296.5 77q168 0 292 -72.5t192 -203t68 -304.5v-15h-1105v-14v-4q0 -176 70.5 -307.5t197.5 -204.5t294 -73q200 0 332.5 99t169.5 265h25q-37 -178 -178 -282.5t-349 -104.5zM657 1161
q-154 0 -276 -69t-195 -192.5t-81 -288.5h1080q-2 167 -66.5 290.5t-182.5 191.5t-279 68zM903 -446q-81 0 -130.5 46t-49.5 122q0 85 64.5 171t200.5 176l20 -6q-127 -88 -193.5 -171.5t-66.5 -169.5q0 -66 42.5 -106t112.5 -40q48 0 89 13t73 33v-23q-34 -21 -73 -33
t-89 -12z" />
    <glyph glyph-name="Ecaron" unicode="&#x11a;" horiz-adv-x="1186" 
d="M196 0v1597h918v-24h-891v-750h779v-24h-779v-774h932v-25h-959zM371 2065l293 -352h2l293 352h-23l-253 -289q-9 -10 -17 -10t-17 10l-255 289h-23z" />
    <glyph glyph-name="ecaron" unicode="&#x11b;" horiz-adv-x="1284" 
d="M666 -37q-175 0 -307 76t-205.5 213.5t-73.5 320.5q0 182 75 319.5t205.5 214.5t296.5 77q168 0 292 -72.5t192 -203t68 -304.5v-15h-1105v-14v-4q0 -176 70.5 -307.5t197.5 -204.5t294 -73q200 0 332.5 99t169.5 265h25q-37 -178 -178 -282.5t-349 -104.5zM657 1161
q-154 0 -276 -69t-195 -192.5t-81 -288.5h1080q-2 167 -66.5 290.5t-182.5 191.5t-279 68zM349 1720l304 -420h2l304 420h-21l-270 -354q-9 -12 -14 -12t-14 12l-270 354h-21z" />
    <glyph glyph-name="Gcircumflex" unicode="&#x11c;" horiz-adv-x="1782" 
d="M910 -37q-179 0 -328.5 61t-259.5 172.5t-170.5 264t-60.5 336.5t60 337.5t170 265.5t261 173.5t334 61.5q288 0 484 -141t262 -386h-29q-63 233 -250.5 367.5t-466.5 134.5q-177 0 -323 -59.5t-252 -168t-163.5 -257.5t-57.5 -328t58 -327.5t164.5 -256.5t251 -166.5
t316.5 -58.5q273 0 453 147t244 402q14 55 23 114.5t13 122.5h21v-774h-16q0 74 -2 147.5t-4.5 130t-4.5 76.5q-3 31 -8.5 41.5t-17.5 10.5q-11 0 -17.5 -7t-17.5 -28q-95 -189 -255.5 -298.5t-410.5 -109.5zM622 1713l293 352h2l293 -352h-23l-253 289q-9 10 -17 10
t-17 -10l-255 -289h-23z" />
    <glyph glyph-name="gcircumflex" unicode="&#x11d;" horiz-adv-x="1366" 
d="M673 -514q-142 0 -257.5 50t-192.5 140.5t-105 210.5h26q26 -109 97 -194.5t181 -134.5t251 -49q183 0 294 69.5t161.5 192t50.5 282.5v207q0 44 -23 44q-18 0 -41 -38q-73 -122 -194.5 -188t-273.5 -66q-164 0 -292 77t-200.5 210t-72.5 299q0 167 73 299.5t200.5 209.5
t293.5 77q151 0 272.5 -66.5t197.5 -191.5q14 -22 21 -29.5t15 -7.5q10 0 16 10t8 38q2 25 4 65.5t3.5 81t1.5 63.5h15v-1094q0 -168 -53 -295.5t-169.5 -199.5t-307.5 -72zM649 35q158 0 277 72.5t186 200.5t67 296q0 162 -67.5 288t-186.5 197.5t-274 71.5
q-160 0 -282.5 -74.5t-192.5 -201.5t-70 -287t69.5 -287.5t192.5 -201.5t281 -74zM376 1300l304 420h2l304 -420h-21l-270 354q-9 12 -14 12t-14 -12l-270 -354h-21z" />
    <glyph glyph-name="Gbreve" unicode="&#x11e;" horiz-adv-x="1782" 
d="M910 -37q-179 0 -328.5 61t-259.5 172.5t-170.5 264t-60.5 336.5t60 337.5t170 265.5t261 173.5t334 61.5q288 0 484 -141t262 -386h-29q-63 233 -250.5 367.5t-466.5 134.5q-177 0 -323 -59.5t-252 -168t-163.5 -257.5t-57.5 -328t58 -327.5t164.5 -256.5t251 -166.5
t316.5 -58.5q273 0 453 147t244 402q14 55 23 114.5t13 122.5h21v-774h-16q0 74 -2 147.5t-4.5 130t-4.5 76.5q-3 31 -8.5 41.5t-17.5 10.5q-11 0 -17.5 -7t-17.5 -28q-95 -189 -255.5 -298.5t-410.5 -109.5zM916 1751q-121 0 -205 66.5t-107 184.5h11q31 -106 111 -165.5
t190 -59.5t190 59.5t111 165.5h11q-23 -118 -106.5 -184.5t-205.5 -66.5z" />
    <glyph glyph-name="gbreve" unicode="&#x11f;" horiz-adv-x="1366" 
d="M673 -514q-142 0 -257.5 50t-192.5 140.5t-105 210.5h26q26 -109 97 -194.5t181 -134.5t251 -49q183 0 294 69.5t161.5 192t50.5 282.5v207q0 44 -23 44q-18 0 -41 -38q-73 -122 -194.5 -188t-273.5 -66q-164 0 -292 77t-200.5 210t-72.5 299q0 167 73 299.5t200.5 209.5
t293.5 77q151 0 272.5 -66.5t197.5 -191.5q14 -22 21 -29.5t15 -7.5q10 0 16 10t8 38q2 25 4 65.5t3.5 81t1.5 63.5h15v-1094q0 -168 -53 -295.5t-169.5 -199.5t-307.5 -72zM649 35q158 0 277 72.5t186 200.5t67 296q0 162 -67.5 288t-186.5 197.5t-274 71.5
q-160 0 -282.5 -74.5t-192.5 -201.5t-70 -287t69.5 -287.5t192.5 -201.5t281 -74zM681 1328q-121 0 -204.5 69.5t-106.5 190.5h10q31 -110 110.5 -172.5t190.5 -62.5t190.5 62.5t110.5 172.5h10q-23 -121 -106 -190.5t-205 -69.5z" />
    <glyph glyph-name="Gdotaccent" unicode="&#x120;" horiz-adv-x="1782" 
d="M910 -37q-179 0 -328.5 61t-259.5 172.5t-170.5 264t-60.5 336.5t60 337.5t170 265.5t261 173.5t334 61.5q288 0 484 -141t262 -386h-29q-63 233 -250.5 367.5t-466.5 134.5q-177 0 -323 -59.5t-252 -168t-163.5 -257.5t-57.5 -328t58 -327.5t164.5 -256.5t251 -166.5
t316.5 -58.5q273 0 453 147t244 402q14 55 23 114.5t13 122.5h21v-774h-16q0 74 -2 147.5t-4.5 130t-4.5 76.5q-3 31 -8.5 41.5t-17.5 10.5q-11 0 -17.5 -7t-17.5 -28q-95 -189 -255.5 -298.5t-410.5 -109.5zM917 1799q-25 0 -42.5 16t-17.5 41t17.5 41t42.5 16q26 0 43 -16
t17 -41t-17 -41t-43 -16z" />
    <glyph glyph-name="gdotaccent" unicode="&#x121;" horiz-adv-x="1366" 
d="M673 -514q-142 0 -257.5 50t-192.5 140.5t-105 210.5h26q26 -109 97 -194.5t181 -134.5t251 -49q183 0 294 69.5t161.5 192t50.5 282.5v207q0 44 -23 44q-18 0 -41 -38q-73 -122 -194.5 -188t-273.5 -66q-164 0 -292 77t-200.5 210t-72.5 299q0 167 73 299.5t200.5 209.5
t293.5 77q151 0 272.5 -66.5t197.5 -191.5q14 -22 21 -29.5t15 -7.5q10 0 16 10t8 38q2 25 4 65.5t3.5 81t1.5 63.5h15v-1094q0 -168 -53 -295.5t-169.5 -199.5t-307.5 -72zM649 35q158 0 277 72.5t186 200.5t67 296q0 162 -67.5 288t-186.5 197.5t-274 71.5
q-160 0 -282.5 -74.5t-192.5 -201.5t-70 -287t69.5 -287.5t192.5 -201.5t281 -74zM680 1388q-29 0 -45 17.5t-16 39.5t16 39.5t45 17.5t45 -17.5t16 -39.5t-16 -39.5t-45 -17.5z" />
    <glyph glyph-name="uni0122" unicode="&#x122;" horiz-adv-x="1782" 
d="M910 -37q-179 0 -328.5 61t-259.5 172.5t-170.5 264t-60.5 336.5t60 337.5t170 265.5t261 173.5t334 61.5q288 0 484 -141t262 -386h-29q-63 233 -250.5 367.5t-466.5 134.5q-177 0 -323 -59.5t-252 -168t-163.5 -257.5t-57.5 -328t58 -327.5t164.5 -256.5t251 -166.5
t316.5 -58.5q273 0 453 147t244 402q14 55 23 114.5t13 122.5h21v-774h-16q0 74 -2 147.5t-4.5 130t-4.5 76.5q-3 31 -8.5 41.5t-17.5 10.5q-11 0 -17.5 -7t-17.5 -28q-95 -189 -255.5 -298.5t-410.5 -109.5zM887 -521l103 398h31l-118 -398h-16z" />
    <glyph glyph-name="uni0123" unicode="&#x123;" horiz-adv-x="1366" 
d="M673 -514q-142 0 -257.5 50t-192.5 140.5t-105 210.5h26q26 -109 97 -194.5t181 -134.5t251 -49q183 0 294 69.5t161.5 192t50.5 282.5v207q0 44 -23 44q-18 0 -41 -38q-73 -122 -194.5 -188t-273.5 -66q-164 0 -292 77t-200.5 210t-72.5 299q0 167 73 299.5t200.5 209.5
t293.5 77q151 0 272.5 -66.5t197.5 -191.5q14 -22 21 -29.5t15 -7.5q10 0 16 10t8 38q2 25 4 65.5t3.5 81t1.5 63.5h15v-1094q0 -168 -53 -295.5t-169.5 -199.5t-307.5 -72zM649 35q158 0 277 72.5t186 200.5t67 296q0 162 -67.5 288t-186.5 197.5t-274 71.5
q-160 0 -282.5 -74.5t-192.5 -201.5t-70 -287t69.5 -287.5t192.5 -201.5t281 -74zM813 1738l-115 -438h-31l130 438h16z" />
    <glyph glyph-name="Hcircumflex" unicode="&#x124;" horiz-adv-x="1503" 
d="M196 0v1597h27v-776h1057v776h27v-1597h-27v797h-1057v-797h-27zM458 1713l293 352h2l293 -352h-23l-253 289q-9 10 -17 10t-17 -10l-255 -289h-23z" />
    <glyph glyph-name="hcircumflex" unicode="&#x125;" horiz-adv-x="1285" 
d="M165 0v1659h24v-795q0 -29 5 -40t15 -11q8 0 14.5 6.5t18.5 38.5q56 145 169 235.5t300 90.5q194 0 310 -129.5t116 -352.5v-702h-24v702q0 212 -109.5 335.5t-292.5 123.5q-152 0 -267 -72t-181 -239q-34 -85 -54 -186.5t-20 -251.5v-412h-24zM-117 1775l293 352h2
l293 -352h-23l-253 289q-9 10 -17 10t-17 -10l-255 -289h-23z" />
    <glyph glyph-name="Hbar" unicode="&#x126;" horiz-adv-x="1545" 
d="M217 0v1197h-220v24h220v376h27v-376h1057v376h27v-376h220v-24h-220v-1197h-27v797h-1057v-797h-27zM244 821h1057v376h-1057v-376z" />
    <glyph glyph-name="hbar" unicode="&#x127;" horiz-adv-x="1285" 
d="M165 0v1393h-196v23h196v243h24v-243h472v-23h-472v-529q0 -29 5 -40t15 -11q8 0 14.5 6.5t18.5 38.5q56 145 169 235.5t300 90.5q194 0 310 -129.5t116 -352.5v-702h-24v702q0 212 -109.5 335.5t-292.5 123.5q-152 0 -267 -72t-181 -239q-34 -85 -54 -186.5t-20 -251.5
v-412h-24z" />
    <glyph glyph-name="Itilde" unicode="&#x128;" horiz-adv-x="419" 
d="M196 0v1597h27v-1597h-27zM372 1761q-54 0 -94 30t-74 69t-71 69t-85 30q-124 0 -153 -163h-18q14 89 58.5 138t112.5 49q54 0 94 -30t74 -69t71 -69t85 -30q124 0 153 163h18q-14 -89 -58.5 -138t-112.5 -49z" />
    <glyph glyph-name="itilde" unicode="&#x129;" horiz-adv-x="401" 
d="M204 0v1147h24v-1147h-24zM347 1394q-44 0 -76.5 25.5t-60.5 59.5t-57.5 59.5t-67.5 25.5q-46 0 -75.5 -38.5t-39.5 -105.5h-20q9 80 44 124t92 44q44 0 76.5 -25.5t60.5 -59.5t57.5 -59.5t67.5 -25.5q46 0 75.5 38.5t39.5 105.5h20q-9 -79 -44 -123.5t-92 -44.5z" />
    <glyph glyph-name="Imacron" unicode="&#x12a;" horiz-adv-x="419" 
d="M196 0v1597h27v-1597h-27zM-80 1810v23h580v-23h-580z" />
    <glyph glyph-name="imacron" unicode="&#x12b;" horiz-adv-x="370" 
d="M173 0v1147h24v-1147h-24zM15 1420v23h340v-23h-340z" />
    <glyph glyph-name="Ibreve" unicode="&#x12c;" horiz-adv-x="419" 
d="M196 0v1597h27v-1597h-27zM210 1751q-121 0 -205 66.5t-107 184.5h11q31 -106 111 -165.5t190 -59.5t190 59.5t111 165.5h11q-23 -118 -106.5 -184.5t-205.5 -66.5z" />
    <glyph glyph-name="ibreve" unicode="&#x12d;" horiz-adv-x="401" 
d="M204 0v1147h24v-1147h-24zM215 1328q-103 0 -164 69t-69 191h9q10 -104 68.5 -170t155.5 -65q98 -1 156 65t68 170h9q-7 -122 -68.5 -191t-164.5 -69z" />
    <glyph glyph-name="Iogonek" unicode="&#x12e;" horiz-adv-x="419" 
d="M196 0v1597h27v-1597h-27zM166 -455q-75 0 -130 41t-55 122q0 73 52 139.5t167 160.5l23 -8q-83 -69 -129.5 -118.5t-65 -90t-18.5 -83.5q0 -70 46.5 -103.5t110.5 -33.5q72 0 137 35v-26q-67 -35 -138 -35z" />
    <glyph glyph-name="iogonek" unicode="&#x12f;" horiz-adv-x="370" 
d="M173 0v1147h24v-1147h-24zM184 1388q-29 0 -45 17.5t-16 39.5t16 39.5t45 17.5t45 -17.5t16 -39.5t-16 -39.5t-45 -17.5zM136 -459q-80 0 -128.5 43.5t-48.5 115.5q0 73 52 142t171 166l15 -8q-83 -71 -129.5 -122t-65 -93t-18.5 -85q0 -63 42 -100t112 -37q91 0 168 60
v-23q-38 -30 -82 -44.5t-88 -14.5z" />
    <glyph glyph-name="Idotaccent" unicode="&#x130;" horiz-adv-x="419" 
d="M196 0v1597h27v-1597h-27zM211 1799q-25 0 -42.5 16t-17.5 41t17.5 41t42.5 16q26 0 43 -16t17 -41t-17 -41t-43 -16z" />
    <glyph glyph-name="dotlessi" unicode="&#x131;" horiz-adv-x="370" 
d="M173 0v1147h24v-1147h-24z" />
    <glyph glyph-name="IJ" unicode="&#x132;" horiz-adv-x="1423" 
d="M178 639v958h27v-958h-27zM745 -37q-231 0 -381 136t-187 374h27q34 -226 178 -355.5t361 -129.5q233 0 354 154t121 450v1005h27v-1007q0 -304 -129 -465.5t-371 -161.5z" />
    <glyph glyph-name="ij" unicode="&#x133;" horiz-adv-x="740" 
d="M185 1431q-26 0 -43.5 16.5t-17.5 41.5t17.5 41.5t43.5 16.5t43.5 -16.5t17.5 -41.5t-17.5 -41.5t-43.5 -16.5zM173 0v1147h24v-1147h-24zM555 1431q-26 0 -43.5 16.5t-17.5 41.5t17.5 41.5t43.5 16.5t43.5 -16.5t17.5 -41.5t-17.5 -41.5t-43.5 -16.5zM543 -487v1634h24
v-1634h-24z" />
    <glyph glyph-name="Jcircumflex" unicode="&#x134;" horiz-adv-x="1280" 
d="M602 -37q-231 0 -381 136t-187 374h27q34 -226 178 -355.5t361 -129.5q233 0 354 154t121 450v1005h27v-1007q0 -304 -129 -465.5t-371 -161.5zM794 1713l293 352h2l293 -352h-23l-253 289q-9 10 -17 10t-17 -10l-255 -289h-23z" />
    <glyph glyph-name="jcircumflex" unicode="&#x135;" horiz-adv-x="396" 
d="M198 -487v1634h25v-1634h-25zM205 1720l-232 -420h20l207 353q5 8 10 8t10 -8l207 -353h20l-232 420h-10z" />
    <glyph glyph-name="uni0136" unicode="&#x136;" horiz-adv-x="1199" 
d="M196 0v1597h27v-790l936 790h39l-938 -791l969 -806h-41l-965 803v-803h-27zM565 -521l103 398h31l-118 -398h-16z" />
    <glyph glyph-name="uni0137" unicode="&#x137;" horiz-adv-x="962" 
d="M165 0v1659h24v-1084l745 572h39l-746 -573l748 -574h-41l-745 571v-571h-24zM410 -591l115 438h31l-130 -438h-16z" />
    <glyph glyph-name="Lacute" unicode="&#x139;" horiz-adv-x="1117" 
d="M196 0v1597h27v-1572h877v-25h-904zM223 1713l403 342h-50l-381 -342h28z" />
    <glyph glyph-name="lacute" unicode="&#x13a;" horiz-adv-x="370" 
d="M173 0v1659h24v-1659h-24zM172 1775l272 342h40l-289 -342h-23z" />
    <glyph glyph-name="uni013B" unicode="&#x13b;" horiz-adv-x="1117" 
d="M196 0v1597h27v-1572h877v-25h-904zM557 -521l103 398h31l-118 -398h-16z" />
    <glyph glyph-name="uni013C" unicode="&#x13c;" horiz-adv-x="370" 
d="M173 0v1659h24v-1659h-24zM56 -591l115 438h31l-130 -438h-16z" />
    <glyph glyph-name="Lcaron" unicode="&#x13d;" horiz-adv-x="1117" 
d="M196 0v1597h27v-1572h877v-25h-904zM581 1062l59 535h30l-71 -535h-18z" />
    <glyph glyph-name="lcaron" unicode="&#x13e;" horiz-adv-x="366" 
d="M173 0v1659h24v-1659h-24zM347 1124l59 535h30l-71 -535h-18z" />
    <glyph glyph-name="Ldot" unicode="&#x13f;" horiz-adv-x="1120" 
d="M196 0v1597h27v-1572h877v-25h-904zM731 737q-31 0 -48.5 19.5t-17.5 43.5t17.5 43.5t48.5 19.5t48.5 -19.5t17.5 -43.5t-17.5 -43.5t-48.5 -19.5z" />
    <glyph glyph-name="ldot" unicode="&#x140;" horiz-adv-x="490" 
d="M173 0v1659h24v-1659h-24zM412 767q-31 0 -48.5 19.5t-17.5 43.5t17.5 43.5t48.5 19.5t48.5 -19.5t17.5 -43.5t-17.5 -43.5t-48.5 -19.5z" />
    <glyph glyph-name="Lslash" unicode="&#x141;" horiz-adv-x="1202" 
d="M280 0v586l-240 -149v30l240 149v981h27v-964l568 353v-30l-568 -353v-578h877v-25h-904z" />
    <glyph glyph-name="lslash" unicode="&#x142;" horiz-adv-x="641" 
d="M316 0v857l-308 -196v27l308 196v775h24v-760l311 198v-27l-311 -198v-872h-24z" />
    <glyph glyph-name="Nacute" unicode="&#x143;" horiz-adv-x="1548" 
d="M196 0v1597h27l1102 -1552v1552h27v-1597h-27l-1102 1554v-1554h-27zM788 1713l403 342h-50l-381 -342h28z" />
    <glyph glyph-name="nacute" unicode="&#x144;" horiz-adv-x="1285" 
d="M165 0v1147h15q0 -92 3 -166t4 -109q3 -59 22 -59q8 0 14.5 6.5t18.5 38.5q56 145 168.5 235.5t299.5 90.5q194 0 310.5 -129.5t116.5 -352.5v-702h-24v702q0 212 -109.5 335.5t-293.5 123.5q-151 0 -266 -72t-181 -239q-34 -85 -54 -186.5t-20 -251.5v-412h-24z
M656 1300l285 420h-37l-269 -420h21z" />
    <glyph glyph-name="uni0145" unicode="&#x145;" horiz-adv-x="1548" 
d="M196 0v1597h27l1102 -1552v1552h27v-1597h-27l-1102 1554v-1554h-27zM658 -521l103 398h31l-118 -398h-16z" />
    <glyph glyph-name="uni0146" unicode="&#x146;" horiz-adv-x="1285" 
d="M165 0v1147h15q0 -92 3 -166t4 -109q3 -59 22 -59q8 0 14.5 6.5t18.5 38.5q56 145 168.5 235.5t299.5 90.5q194 0 310.5 -129.5t116.5 -352.5v-702h-24v702q0 212 -109.5 335.5t-293.5 123.5q-151 0 -266 -72t-181 -239q-34 -85 -54 -186.5t-20 -251.5v-412h-24z
M540 -591l115 438h31l-130 -438h-16z" />
    <glyph glyph-name="Ncaron" unicode="&#x147;" horiz-adv-x="1548" 
d="M196 0v1597h27l1102 -1552v1552h27v-1597h-27l-1102 1554v-1554h-27zM481 2065l293 -352h2l293 352h-23l-253 -289q-9 -10 -17 -10t-17 10l-255 289h-23z" />
    <glyph glyph-name="ncaron" unicode="&#x148;" horiz-adv-x="1285" 
d="M165 0v1147h15q0 -92 3 -166t4 -109q3 -59 22 -59q8 0 14.5 6.5t18.5 38.5q56 145 168.5 235.5t299.5 90.5q194 0 310.5 -129.5t116.5 -352.5v-702h-24v702q0 212 -109.5 335.5t-293.5 123.5q-151 0 -266 -72t-181 -239q-34 -85 -54 -186.5t-20 -251.5v-412h-24z
M347 1720l304 -420h2l304 420h-21l-270 -354q-9 -12 -14 -12t-14 12l-270 354h-21z" />
    <glyph glyph-name="Eng" unicode="&#x14a;" horiz-adv-x="1623" 
d="M1108 -514q-82 0 -167 21.5t-151 58.5v26q70 -37 153.5 -59t164.5 -22q166 0 238.5 97t72.5 303v1086q0 190 -64.5 327.5t-183.5 212t-283 74.5q-402 0 -570 -414q-43 -116 -69 -254t-26 -340v-603h-27v1597h17q0 -109 3.5 -215.5t5.5 -157.5q2 -44 7.5 -62t21.5 -18
q12 0 20 8.5t24 52.5q80 210 232 320.5t362 110.5q172 0 296.5 -78t192.5 -221.5t68 -340.5v-1087q0 -215 -80 -319t-258 -104z" />
    <glyph glyph-name="eng" unicode="&#x14b;" horiz-adv-x="1285" 
d="M813 -514q-53 0 -115.5 13.5t-112.5 40.5v21q48 -23 106 -38t121 -15q158 0 229.5 81t71.5 266v847q0 212 -109.5 335.5t-293.5 123.5q-151 0 -266 -72t-181 -239q-34 -85 -54 -186.5t-20 -251.5v-412h-24v1147h15q0 -92 3 -166t4 -109q3 -59 22 -59q8 0 14.5 6.5
t18.5 38.5q56 145 168.5 235.5t299.5 90.5q194 0 310.5 -129.5t116.5 -352.5v-848q0 -192 -78.5 -280t-245.5 -88z" />
    <glyph glyph-name="Omacron" unicode="&#x14c;" horiz-adv-x="1830" 
d="M915 -37q-178 0 -328.5 61.5t-262 174t-173 265.5t-61.5 335t61.5 335t173 265.5t262 174t328.5 61.5t328.5 -61.5t262 -174t173 -265.5t61.5 -335t-61.5 -335t-173 -265.5t-262 -174t-328.5 -61.5zM915 -12q172 0 317 60t252.5 168.5t167 257t59.5 325.5t-59.5 325.5
t-167 257t-252.5 168.5t-317 60t-317 -60t-252.5 -168.5t-167 -257t-59.5 -325.5t59.5 -325.5t167 -257t252.5 -168.5t317 -60zM625 1810v23h580v-23h-580z" />
    <glyph glyph-name="omacron" unicode="&#x14d;" horiz-adv-x="1354" 
d="M677 -37q-173 0 -308.5 79.5t-213 217.5t-77.5 313q0 176 77.5 314t213 217.5t308.5 79.5t308.5 -79.5t213 -217.5t77.5 -314q0 -175 -77.5 -313t-213 -217.5t-308.5 -79.5zM677 -14q167 0 297 76.5t204 209.5t74 301q0 169 -74 302t-204 209.5t-297 76.5t-297 -76.5
t-204 -209.5t-74 -302q0 -168 74 -301t204 -209.5t297 -76.5zM387 1420v23h580v-23h-580z" />
    <glyph glyph-name="Obreve" unicode="&#x14e;" horiz-adv-x="1830" 
d="M915 -37q-178 0 -328.5 61.5t-262 174t-173 265.5t-61.5 335t61.5 335t173 265.5t262 174t328.5 61.5t328.5 -61.5t262 -174t173 -265.5t61.5 -335t-61.5 -335t-173 -265.5t-262 -174t-328.5 -61.5zM915 -12q172 0 317 60t252.5 168.5t167 257t59.5 325.5t-59.5 325.5
t-167 257t-252.5 168.5t-317 60t-317 -60t-252.5 -168.5t-167 -257t-59.5 -325.5t59.5 -325.5t167 -257t252.5 -168.5t317 -60zM915 1751q-121 0 -205 66.5t-107 184.5h11q31 -106 111 -165.5t190 -59.5t190 59.5t111 165.5h11q-23 -118 -106.5 -184.5t-205.5 -66.5z" />
    <glyph glyph-name="obreve" unicode="&#x14f;" horiz-adv-x="1354" 
d="M677 -37q-173 0 -308.5 79.5t-213 217.5t-77.5 313q0 176 77.5 314t213 217.5t308.5 79.5t308.5 -79.5t213 -217.5t77.5 -314q0 -175 -77.5 -313t-213 -217.5t-308.5 -79.5zM677 -14q167 0 297 76.5t204 209.5t74 301q0 169 -74 302t-204 209.5t-297 76.5t-297 -76.5
t-204 -209.5t-74 -302q0 -168 74 -301t204 -209.5t297 -76.5zM677 1328q-121 0 -204.5 69.5t-106.5 190.5h10q31 -110 110.5 -172.5t190.5 -62.5t190.5 62.5t110.5 172.5h10q-23 -121 -106 -190.5t-205 -69.5z" />
    <glyph glyph-name="Ohungarumlaut" unicode="&#x150;" horiz-adv-x="1830" 
d="M915 -37q-178 0 -328.5 61.5t-262 174t-173 265.5t-61.5 335t61.5 335t173 265.5t262 174t328.5 61.5t328.5 -61.5t262 -174t173 -265.5t61.5 -335t-61.5 -335t-173 -265.5t-262 -174t-328.5 -61.5zM915 -12q172 0 317 60t252.5 168.5t167 257t59.5 325.5t-59.5 325.5
t-167 257t-252.5 168.5t-317 60t-317 -60t-252.5 -168.5t-167 -257t-59.5 -325.5t59.5 -325.5t167 -257t252.5 -168.5t317 -60zM1062 1713l416 342h53l-442 -342h-27zM662 1713l416 342h53l-442 -342h-27z" />
    <glyph glyph-name="ohungarumlaut" unicode="&#x151;" horiz-adv-x="1354" 
d="M677 -37q-173 0 -308.5 79.5t-213 217.5t-77.5 313q0 176 77.5 314t213 217.5t308.5 79.5t308.5 -79.5t213 -217.5t77.5 -314q0 -175 -77.5 -313t-213 -217.5t-308.5 -79.5zM677 -14q167 0 297 76.5t204 209.5t74 301q0 169 -74 302t-204 209.5t-297 76.5t-297 -76.5
t-204 -209.5t-74 -302q0 -168 74 -301t204 -209.5t297 -76.5zM799 1300l281 420h35l-295 -420h-21zM499 1300l281 420h35l-295 -420h-21z" />
    <glyph glyph-name="OE" unicode="&#x152;" horiz-adv-x="2702" 
d="M915 -37q-178 0 -328.5 61.5t-262 174t-173 265.5t-61.5 335t61.5 335t173 265.5t262 174t328.5 61.5q201 0 365 -77.5t276.5 -216.5t155.5 -323v579h918v-24h-891v-750h779v-24h-779v-774h932v-25h-959v580q-43 -184 -155.5 -323t-276.5 -216.5t-365 -77.5zM915 -12
q172 0 317 60t252.5 168.5t167 257t59.5 325.5t-59.5 325.5t-167 257t-252.5 168.5t-317 60t-317 -60t-252.5 -168.5t-167 -257t-59.5 -325.5t59.5 -325.5t167 -257t252.5 -168.5t317 -60z" />
    <glyph glyph-name="oe" unicode="&#x153;" horiz-adv-x="2367" 
d="M658 -37q-167 0 -298 79.5t-206 217.5t-75 313q0 176 75 314t206 217.5t298 79.5q145 0 263.5 -61t197.5 -168.5t107 -248.5q44 228 191.5 353t351.5 125q157 0 274.5 -72t183.5 -201.5t66 -302.5v-14h-1055v-22v-1q0 -176 67.5 -307.5t189 -204.5t283.5 -73
q182 0 310.5 99t163.5 265h25q-23 -118 -93 -205t-174 -134.5t-232 -47.5q-224 0 -369.5 129.5t-184.5 347.5q-27 -140 -105.5 -247.5t-197 -168.5t-263.5 -61zM1769 1161q-150 0 -266.5 -68.5t-185.5 -191t-78 -285.5h1030q-3 166 -66 288.5t-174 189.5t-260 67zM658 -14
q161 0 286.5 76.5t197 209.5t71.5 301q0 169 -71.5 302t-197 209.5t-286.5 76.5t-286.5 -76.5t-197 -209.5t-71.5 -302q0 -168 71.5 -301t197 -209.5t286.5 -76.5z" />
    <glyph glyph-name="Racute" unicode="&#x154;" horiz-adv-x="1354" 
d="M196 0v1597h559q228 0 347 -104.5t119 -304.5q0 -152 -78.5 -265.5t-263.5 -141.5q140 -14 207 -86t88 -232l39 -301q10 -76 22.5 -112t19.5 -50h-26q-7 12 -20 49t-23 113l-39 301q-15 120 -57 185.5t-123.5 91.5t-216.5 26h-527v-766h-27zM223 791h522q165 0 263.5 52
t142 142t43.5 203q0 385 -439 385h-532v-782zM690 1713l403 342h-50l-381 -342h28z" />
    <glyph glyph-name="racute" unicode="&#x155;" horiz-adv-x="889" 
d="M165 0v1147h15q0 -34 1 -84t3 -96.5t4 -70.5q2 -26 6 -35.5t12 -9.5q7 0 11.5 6.5t11.5 28.5q41 135 132.5 211.5t222.5 75.5q137 -1 209.5 -85t72.5 -224q0 -11 -0.5 -19t-1.5 -14h-23q1 7 1.5 14.5t0.5 17.5q0 131 -66.5 209.5t-193.5 78.5t-209.5 -72.5t-123.5 -197.5
q-22 -67 -35.5 -130.5t-19.5 -137.5t-6 -175v-438h-24zM545 1300l285 420h-37l-269 -420h21z" />
    <glyph glyph-name="uni0156" unicode="&#x156;" horiz-adv-x="1354" 
d="M196 0v1597h559q228 0 347 -104.5t119 -304.5q0 -152 -78.5 -265.5t-263.5 -141.5q140 -14 207 -86t88 -232l39 -301q10 -76 22.5 -112t19.5 -50h-26q-7 12 -20 49t-23 113l-39 301q-15 120 -57 185.5t-123.5 91.5t-216.5 26h-527v-766h-27zM223 791h522q165 0 263.5 52
t142 142t43.5 203q0 385 -439 385h-532v-782zM638 -521l103 398h31l-118 -398h-16z" />
    <glyph glyph-name="uni0157" unicode="&#x157;" horiz-adv-x="889" 
d="M165 0v1147h15q0 -34 1 -84t3 -96.5t4 -70.5q2 -26 6 -35.5t12 -9.5q7 0 11.5 6.5t11.5 28.5q41 135 132.5 211.5t222.5 75.5q137 -1 209.5 -85t72.5 -224q0 -11 -0.5 -19t-1.5 -14h-23q1 7 1.5 14.5t0.5 17.5q0 131 -66.5 209.5t-193.5 78.5t-209.5 -72.5t-123.5 -197.5
q-22 -67 -35.5 -130.5t-19.5 -137.5t-6 -175v-438h-24zM48 -591l115 438h31l-130 -438h-16z" />
    <glyph glyph-name="Rcaron" unicode="&#x158;" horiz-adv-x="1354" 
d="M196 0v1597h559q228 0 347 -104.5t119 -304.5q0 -152 -78.5 -265.5t-263.5 -141.5q140 -14 207 -86t88 -232l39 -301q10 -76 22.5 -112t19.5 -50h-26q-7 12 -20 49t-23 113l-39 301q-15 120 -57 185.5t-123.5 91.5t-216.5 26h-527v-766h-27zM223 791h522q165 0 263.5 52
t142 142t43.5 203q0 385 -439 385h-532v-782zM383 2065l293 -352h2l293 352h-23l-253 -289q-9 -10 -17 -10t-17 10l-255 289h-23z" />
    <glyph glyph-name="rcaron" unicode="&#x159;" horiz-adv-x="889" 
d="M165 0v1147h15q0 -34 1 -84t3 -96.5t4 -70.5q2 -26 6 -35.5t12 -9.5q7 0 11.5 6.5t11.5 28.5q41 135 132.5 211.5t222.5 75.5q137 -1 209.5 -85t72.5 -224q0 -11 -0.5 -19t-1.5 -14h-23q1 7 1.5 14.5t0.5 17.5q0 131 -66.5 209.5t-193.5 78.5t-209.5 -72.5t-123.5 -197.5
q-22 -67 -35.5 -130.5t-19.5 -137.5t-6 -175v-438h-24zM236 1720l304 -420h2l304 420h-21l-270 -354q-9 -12 -14 -12t-14 12l-270 354h-21z" />
    <glyph glyph-name="Sacute" unicode="&#x15a;" horiz-adv-x="1199" 
d="M636 -37q-247 0 -396.5 133.5t-180.5 366.5h27q28 -218 171 -346.5t379 -128.5q133 0 235 50.5t160 140.5t58 208q0 128 -51.5 208.5t-161.5 133t-286 96.5q-238 60 -341.5 155t-103.5 265q0 114 57.5 202t159.5 137.5t235 49.5q203 0 326 -113.5t144 -318.5h-27
q-21 197 -137 302.5t-306 105.5q-127 0 -222.5 -46.5t-149 -128.5t-53.5 -190q0 -158 97 -247t329 -148q180 -45 294.5 -101t169 -141.5t54.5 -220.5q0 -126 -62.5 -221.5t-171 -149t-246.5 -53.5zM608 1713l403 342h-50l-381 -342h28z" />
    <glyph glyph-name="sacute" unicode="&#x15b;" horiz-adv-x="1001" 
d="M524 -37q-119 0 -219 39.5t-165.5 119.5t-82.5 199h25q15 -109 77 -183.5t157.5 -113t207.5 -38.5q120 0 204.5 40t129 106t44.5 142q0 94 -37 153t-126.5 95.5t-247.5 62.5q-200 34 -282 106.5t-82 197.5q0 120 95 207.5t279 87.5q159 0 262 -82.5t122 -243.5h-24
q-21 153 -115 228t-245 75q-175 0 -262.5 -81t-87.5 -191t74.5 -179t267.5 -102q162 -27 257 -65t135.5 -101.5t40.5 -167.5q0 -82 -47.5 -153t-137 -114.5t-217.5 -43.5zM515 1300l285 420h-37l-269 -420h21z" />
    <glyph glyph-name="Scircumflex" unicode="&#x15c;" horiz-adv-x="1199" 
d="M636 -37q-247 0 -396.5 133.5t-180.5 366.5h27q28 -218 171 -346.5t379 -128.5q133 0 235 50.5t160 140.5t58 208q0 128 -51.5 208.5t-161.5 133t-286 96.5q-238 60 -341.5 155t-103.5 265q0 114 57.5 202t159.5 137.5t235 49.5q203 0 326 -113.5t144 -318.5h-27
q-21 197 -137 302.5t-306 105.5q-127 0 -222.5 -46.5t-149 -128.5t-53.5 -190q0 -158 97 -247t329 -148q180 -45 294.5 -101t169 -141.5t54.5 -220.5q0 -126 -62.5 -221.5t-171 -149t-246.5 -53.5zM301 1713l293 352h2l293 -352h-23l-253 289q-9 10 -17 10t-17 -10
l-255 -289h-23z" />
    <glyph glyph-name="scircumflex" unicode="&#x15d;" horiz-adv-x="1001" 
d="M524 -37q-119 0 -219 39.5t-165.5 119.5t-82.5 199h25q15 -109 77 -183.5t157.5 -113t207.5 -38.5q120 0 204.5 40t129 106t44.5 142q0 94 -37 153t-126.5 95.5t-247.5 62.5q-200 34 -282 106.5t-82 197.5q0 120 95 207.5t279 87.5q159 0 262 -82.5t122 -243.5h-24
q-21 153 -115 228t-245 75q-175 0 -262.5 -81t-87.5 -191t74.5 -179t267.5 -102q162 -27 257 -65t135.5 -101.5t40.5 -167.5q0 -82 -47.5 -153t-137 -114.5t-217.5 -43.5zM206 1300l304 420h2l304 -420h-21l-270 354q-9 12 -14 12t-14 -12l-270 -354h-21z" />
    <glyph glyph-name="Scedilla" unicode="&#x15e;" horiz-adv-x="1199" 
d="M636 -37q-247 0 -396.5 133.5t-180.5 366.5h27q28 -218 171 -346.5t379 -128.5q133 0 235 50.5t160 140.5t58 208q0 128 -51.5 208.5t-161.5 133t-286 96.5q-238 60 -341.5 155t-103.5 265q0 114 57.5 202t159.5 137.5t235 49.5q203 0 326 -113.5t144 -318.5h-27
q-21 197 -137 302.5t-306 105.5q-127 0 -222.5 -46.5t-149 -128.5t-53.5 -190q0 -158 97 -247t329 -148q180 -45 294.5 -101t169 -141.5t54.5 -220.5q0 -126 -62.5 -221.5t-171 -149t-246.5 -53.5zM660 -535q-118 0 -193.5 72.5t-83.5 199.5h26q10 -115 77.5 -181t174.5 -66
q89 0 140.5 52.5t51.5 139.5q0 86 -69.5 165.5t-187.5 125.5l24 10q116 -45 188 -128t72 -173q0 -99 -59.5 -158t-160.5 -59z" />
    <glyph glyph-name="scedilla" unicode="&#x15f;" horiz-adv-x="1001" 
d="M524 -37q-119 0 -219 39.5t-165.5 119.5t-82.5 199h25q15 -109 77 -183.5t157.5 -113t207.5 -38.5q120 0 204.5 40t129 106t44.5 142q0 94 -37 153t-126.5 95.5t-247.5 62.5q-200 34 -282 106.5t-82 197.5q0 120 95 207.5t279 87.5q159 0 262 -82.5t122 -243.5h-24
q-21 153 -115 228t-245 75q-175 0 -262.5 -81t-87.5 -191t74.5 -179t267.5 -102q162 -27 257 -65t135.5 -101.5t40.5 -167.5q0 -82 -47.5 -153t-137 -114.5t-217.5 -43.5zM540 -535q-116 0 -191 72.5t-83 198.5h25q10 -116 77 -182t173 -66q94 0 147 50.5t53 140.5
q0 88 -73 167.5t-195 125.5l21 8q125 -44 198 -128t73 -173q0 -100 -60.5 -157t-164.5 -57z" />
    <glyph glyph-name="Scaron" unicode="&#x160;" horiz-adv-x="1199" 
d="M636 -37q-247 0 -396.5 133.5t-180.5 366.5h27q28 -218 171 -346.5t379 -128.5q133 0 235 50.5t160 140.5t58 208q0 128 -51.5 208.5t-161.5 133t-286 96.5q-238 60 -341.5 155t-103.5 265q0 114 57.5 202t159.5 137.5t235 49.5q203 0 326 -113.5t144 -318.5h-27
q-21 197 -137 302.5t-306 105.5q-127 0 -222.5 -46.5t-149 -128.5t-53.5 -190q0 -158 97 -247t329 -148q180 -45 294.5 -101t169 -141.5t54.5 -220.5q0 -126 -62.5 -221.5t-171 -149t-246.5 -53.5zM301 2065l293 -352h2l293 352h-23l-253 -289q-9 -10 -17 -10t-17 10
l-255 289h-23z" />
    <glyph glyph-name="scaron" unicode="&#x161;" horiz-adv-x="1001" 
d="M524 -37q-119 0 -219 39.5t-165.5 119.5t-82.5 199h25q15 -109 77 -183.5t157.5 -113t207.5 -38.5q120 0 204.5 40t129 106t44.5 142q0 94 -37 153t-126.5 95.5t-247.5 62.5q-200 34 -282 106.5t-82 197.5q0 120 95 207.5t279 87.5q159 0 262 -82.5t122 -243.5h-24
q-21 153 -115 228t-245 75q-175 0 -262.5 -81t-87.5 -191t74.5 -179t267.5 -102q162 -27 257 -65t135.5 -101.5t40.5 -167.5q0 -82 -47.5 -153t-137 -114.5t-217.5 -43.5zM206 1720l304 -420h2l304 420h-21l-270 -354q-9 -12 -14 -12t-14 12l-270 354h-21z" />
    <glyph glyph-name="uni0162" unicode="&#x162;" horiz-adv-x="1201" 
d="M587 0v1573h-571v24h1169v-24h-571v-1573h-27zM650 -508q-118 0 -193.5 72.5t-83.5 199.5h26q10 -115 77.5 -181t174.5 -66q89 0 140.5 52.5t51.5 139.5q0 86 -69.5 165.5t-187.5 125.5l24 10q116 -45 188 -128t72 -173q0 -99 -59.5 -158t-160.5 -59z" />
    <glyph glyph-name="uni0163" unicode="&#x163;" horiz-adv-x="665" 
d="M525 -8q-162 0 -216.5 90t-54.5 280v763h-248v22h198q28 0 37 15t12 55q2 27 4.5 81.5t4 111.5t1.5 89h15v-352h364v-22h-364v-763q0 -181 49 -264.5t198 -83.5q39 0 69.5 5.5t56.5 12.5v-22q-27 -7 -57.5 -12.5t-68.5 -5.5zM505 -507q-116 0 -191 72.5t-83 198.5h25
q10 -116 77 -182t173 -66q94 0 147 50.5t53 140.5q0 88 -73 167.5t-195 125.5l21 8q125 -44 198 -128t73 -173q0 -100 -60.5 -157t-164.5 -57z" />
    <glyph glyph-name="Tcaron" unicode="&#x164;" horiz-adv-x="1201" 
d="M587 0v1573h-571v24h1169v-24h-571v-1573h-27zM307 2065l293 -352h2l293 352h-23l-253 -289q-9 -10 -17 -10t-17 10l-255 289h-23z" />
    <glyph glyph-name="tcaron" unicode="&#x165;" horiz-adv-x="665" 
d="M525 -8q-162 0 -216.5 90t-54.5 280v763h-248v22h198q28 0 37 15t12 55q2 27 4.5 81.5t4 111.5t1.5 89h15v-352h364v-22h-364v-763q0 -181 49 -264.5t198 -83.5q39 0 69.5 5.5t56.5 12.5v-22q-27 -7 -57.5 -12.5t-68.5 -5.5zM455 1277l43 381h29l-54 -381h-18z" />
    <glyph glyph-name="Tbar" unicode="&#x166;" horiz-adv-x="1219" 
d="M596 0v897h-325v22h325v654h-571v24h1169v-24h-571v-654h328v-22h-328v-897h-27z" />
    <glyph glyph-name="tbar" unicode="&#x167;" horiz-adv-x="721" 
d="M561 -8q-162 0 -216.5 90t-54.5 280v297h-248v22h248v444h-248v22h198q28 0 37 15t12 55q2 27 4.5 81.5t4 111.5t1.5 89h15v-352h364v-22h-364v-444h364v-22h-364v-297q0 -181 49 -264.5t198 -83.5q39 0 69.5 5.5t56.5 12.5v-22q-27 -7 -57.5 -12.5t-68.5 -5.5z" />
    <glyph glyph-name="Utilde" unicode="&#x168;" horiz-adv-x="1518" 
d="M759 -37q-275 0 -428.5 163.5t-153.5 463.5v1007h27v-1005q0 -290 145.5 -447t409.5 -157t409.5 157t145.5 447v1005h27v-1007q0 -300 -153.5 -463.5t-428.5 -163.5zM921 1761q-54 0 -94 30t-74 69t-71 69t-85 30q-124 0 -153 -163h-18q14 89 58.5 138t112.5 49
q54 0 94 -30t74 -69t71 -69t85 -30q124 0 153 163h18q-14 -89 -58.5 -138t-112.5 -49z" />
    <glyph glyph-name="utilde" unicode="&#x169;" horiz-adv-x="1275" 
d="M589 -37q-205 0 -323 129.5t-118 355.5v699h24v-699q0 -216 111.5 -339t305.5 -123q158 0 262 68t161 213q36 92 55 199t19 236v445h24v-1147h-15q0 83 -2.5 147t-4.5 98q-3 59 -22 59q-8 0 -14.5 -6.5t-18.5 -38.5q-55 -145 -166 -220.5t-278 -75.5zM803 1342
q-54 0 -94 30t-74 69t-71 69t-85 30q-124 0 -153 -163h-18q14 89 58.5 138t112.5 49q54 0 94 -30t74 -69t71 -69t85 -30q124 0 153 163h18q-14 -89 -58.5 -138t-112.5 -49z" />
    <glyph glyph-name="Umacron" unicode="&#x16a;" horiz-adv-x="1518" 
d="M759 -37q-275 0 -428.5 163.5t-153.5 463.5v1007h27v-1005q0 -290 145.5 -447t409.5 -157t409.5 157t145.5 447v1005h27v-1007q0 -300 -153.5 -463.5t-428.5 -163.5zM469 1810v23h580v-23h-580z" />
    <glyph glyph-name="umacron" unicode="&#x16b;" horiz-adv-x="1275" 
d="M589 -37q-205 0 -323 129.5t-118 355.5v699h24v-699q0 -216 111.5 -339t305.5 -123q158 0 262 68t161 213q36 92 55 199t19 236v445h24v-1147h-15q0 83 -2.5 147t-4.5 98q-3 59 -22 59q-8 0 -14.5 -6.5t-18.5 -38.5q-55 -145 -166 -220.5t-278 -75.5zM351 1420v23h580
v-23h-580z" />
    <glyph glyph-name="Ubreve" unicode="&#x16c;" horiz-adv-x="1518" 
d="M759 -37q-275 0 -428.5 163.5t-153.5 463.5v1007h27v-1005q0 -290 145.5 -447t409.5 -157t409.5 157t145.5 447v1005h27v-1007q0 -300 -153.5 -463.5t-428.5 -163.5zM759 1751q-121 0 -205 66.5t-107 184.5h11q31 -106 111 -165.5t190 -59.5t190 59.5t111 165.5h11
q-23 -118 -106.5 -184.5t-205.5 -66.5z" />
    <glyph glyph-name="ubreve" unicode="&#x16d;" horiz-adv-x="1275" 
d="M589 -37q-205 0 -323 129.5t-118 355.5v699h24v-699q0 -216 111.5 -339t305.5 -123q158 0 262 68t161 213q36 92 55 199t19 236v445h24v-1147h-15q0 83 -2.5 147t-4.5 98q-3 59 -22 59q-8 0 -14.5 -6.5t-18.5 -38.5q-55 -145 -166 -220.5t-278 -75.5zM641 1328
q-121 0 -204.5 69.5t-106.5 190.5h10q31 -110 110.5 -172.5t190.5 -62.5t190.5 62.5t110.5 172.5h10q-23 -121 -106 -190.5t-205 -69.5z" />
    <glyph glyph-name="Uring" unicode="&#x16e;" horiz-adv-x="1518" 
d="M759 -37q-275 0 -428.5 163.5t-153.5 463.5v1007h27v-1005q0 -290 145.5 -447t409.5 -157t409.5 157t145.5 447v1005h27v-1007q0 -300 -153.5 -463.5t-428.5 -163.5zM759 1693q-83 0 -137.5 54.5t-54.5 136.5q0 81 54.5 135.5t137.5 54.5t137.5 -54.5t54.5 -135.5
q0 -82 -54.5 -136.5t-137.5 -54.5zM759 1716q71 0 118 48.5t47 119.5t-47 119t-118 48q-72 0 -118.5 -48t-46.5 -119t47 -119.5t118 -48.5z" />
    <glyph glyph-name="uring" unicode="&#x16f;" horiz-adv-x="1275" 
d="M589 -37q-205 0 -323 129.5t-118 355.5v699h24v-699q0 -216 111.5 -339t305.5 -123q158 0 262 68t161 213q36 92 55 199t19 236v445h24v-1147h-15q0 83 -2.5 147t-4.5 98q-3 59 -22 59q-8 0 -14.5 -6.5t-18.5 -38.5q-55 -145 -166 -220.5t-278 -75.5zM638 1300
q-83 0 -137 54.5t-54 135.5t54 135.5t137 54.5t137 -54.5t54 -135.5t-54 -135.5t-137 -54.5zM638 1322q72 0 119 48.5t47 119.5t-47 119.5t-119 48.5t-119 -48.5t-47 -119.5t47 -119.5t119 -48.5z" />
    <glyph glyph-name="Uhungarumlaut" unicode="&#x170;" horiz-adv-x="1518" 
d="M759 -37q-275 0 -428.5 163.5t-153.5 463.5v1007h27v-1005q0 -290 145.5 -447t409.5 -157t409.5 157t145.5 447v1005h27v-1007q0 -300 -153.5 -463.5t-428.5 -163.5zM906 1713l416 342h53l-442 -342h-27zM506 1713l416 342h53l-442 -342h-27z" />
    <glyph glyph-name="uhungarumlaut" unicode="&#x171;" horiz-adv-x="1275" 
d="M589 -37q-205 0 -323 129.5t-118 355.5v699h24v-699q0 -216 111.5 -339t305.5 -123q158 0 262 68t161 213q36 92 55 199t19 236v445h24v-1147h-15q0 83 -2.5 147t-4.5 98q-3 59 -22 59q-8 0 -14.5 -6.5t-18.5 -38.5q-55 -145 -166 -220.5t-278 -75.5zM763 1300l281 420
h35l-295 -420h-21zM463 1300l281 420h35l-295 -420h-21z" />
    <glyph glyph-name="Uogonek" unicode="&#x172;" horiz-adv-x="1518" 
d="M759 -37q-275 0 -428.5 163.5t-153.5 463.5v1007h27v-1005q0 -290 145.5 -447t409.5 -157t409.5 157t145.5 447v1005h27v-1007q0 -300 -153.5 -463.5t-428.5 -163.5zM1022 -446q-90 0 -141.5 45.5t-51.5 122.5q0 172 265 348l20 -7q-258 -182 -258 -341q0 -68 44 -106
t123 -38q90 0 177 48v-24q-87 -48 -178 -48z" />
    <glyph glyph-name="uogonek" unicode="&#x173;" horiz-adv-x="1275" 
d="M589 -37q-205 0 -323 129.5t-118 355.5v699h24v-699q0 -216 111.5 -339t305.5 -123q158 0 262 68t161 213q36 92 55 199t19 236v445h24v-1147h-15q0 83 -2.5 147t-4.5 98q-3 59 -22 59q-8 0 -14.5 -6.5t-18.5 -38.5q-55 -145 -166 -220.5t-278 -75.5zM1049 -459
q-80 0 -128.5 43.5t-48.5 115.5q0 73 52 142t171 166l15 -8q-83 -71 -129.5 -122t-65 -93t-18.5 -85q0 -63 42 -100t112 -37q91 0 168 60v-23q-38 -30 -82 -44.5t-88 -14.5z" />
    <glyph glyph-name="Wcircumflex" unicode="&#x174;" horiz-adv-x="2078" 
d="M527 0l-502 1597h29l487 -1557l482 1557h32l482 -1558l487 1558h29l-502 -1597h-29l-483 1564l-483 -1564h-29zM745 1713l293 352h2l293 -352h-23l-253 289q-9 10 -17 10t-17 -10l-255 -289h-23z" />
    <glyph glyph-name="wcircumflex" unicode="&#x175;" horiz-adv-x="1651" 
d="M436 0l-410 1147h27l396 -1113l363 1113h27l364 -1111l396 1111h26l-409 -1147h-27l-363 1107l-364 -1107h-26zM521 1300l304 420h2l304 -420h-21l-270 354q-9 12 -14 12t-14 -12l-270 -354h-21z" />
    <glyph glyph-name="Ycircumflex" unicode="&#x176;" horiz-adv-x="1275" 
d="M624 0v682l-590 915h31l574 -892l573 892h30l-591 -917v-680h-27zM345 1713l293 352h2l293 -352h-23l-253 289q-9 10 -17 10t-17 -10l-255 -289h-23z" />
    <glyph glyph-name="ycircumflex" unicode="&#x177;" horiz-adv-x="1101" 
d="M316 -490l221 490l-516 1147h26l503 -1119l503 1119h27l-738 -1637h-26zM245 1300l304 420h2l304 -420h-21l-270 354q-9 12 -14 12t-14 -12l-270 -354h-21z" />
    <glyph glyph-name="Ydieresis" unicode="&#x178;" horiz-adv-x="1275" 
d="M624 0v682l-590 915h31l574 -892l573 892h30l-591 -917v-680h-27zM897 1799q-25 0 -42.5 16t-17.5 41t17.5 41t42.5 16q26 0 43 -16t17 -41t-17 -41t-43 -16zM381 1799q-25 0 -42.5 16t-17.5 41t17.5 41t42.5 16q26 0 43 -16t17 -41t-17 -41t-43 -16z" />
    <glyph glyph-name="Zacute" unicode="&#x179;" horiz-adv-x="1143" 
d="M-5 0v2l1105 1571h-1049v24h1097v-2l-1105 -1571h1050v-24h-1098zM585 1713l403 342h-50l-381 -342h28z" />
    <glyph glyph-name="zacute" unicode="&#x17a;" horiz-adv-x="1005" 
d="M21 0v2l917 1122h-901v23h949v-2l-917 -1122h900v-23h-948zM508 1300l285 420h-37l-269 -420h21z" />
    <glyph glyph-name="Zdotaccent" unicode="&#x17b;" horiz-adv-x="1143" 
d="M-5 0v2l1105 1571h-1049v24h1097v-2l-1105 -1571h1050v-24h-1098zM573 1799q-25 0 -42.5 16t-17.5 41t17.5 41t42.5 16q26 0 43 -16t17 -41t-17 -41t-43 -16z" />
    <glyph glyph-name="zdotaccent" unicode="&#x17c;" horiz-adv-x="1005" 
d="M21 0v2l917 1122h-901v23h949v-2l-917 -1122h900v-23h-948zM503 1388q-29 0 -45 17.5t-16 39.5t16 39.5t45 17.5t45 -17.5t16 -39.5t-16 -39.5t-45 -17.5z" />
    <glyph glyph-name="Zcaron" unicode="&#x17d;" horiz-adv-x="1143" 
d="M-5 0v2l1105 1571h-1049v24h1097v-2l-1105 -1571h1050v-24h-1098zM278 2065l293 -352h2l293 352h-23l-253 -289q-9 -10 -17 -10t-17 10l-255 289h-23z" />
    <glyph glyph-name="zcaron" unicode="&#x17e;" horiz-adv-x="1005" 
d="M21 0v2l917 1122h-901v23h949v-2l-917 -1122h900v-23h-948zM199 1720l304 -420h2l304 420h-21l-270 -354q-9 -12 -14 -12t-14 12l-270 354h-21z" />
    <glyph glyph-name="uni0180" unicode="&#x180;" horiz-adv-x="1411" 
d="M741 -37q-157 0 -282.5 69.5t-205.5 199.5q-14 23 -21.5 29.5t-16.5 6.5q-10 0 -16 -9.5t-9 -38.5t-5.5 -72t-3.5 -83.5t-1 -64.5h-15v1393h-200v23h200v243h24v-243h472v-23h-472v-465q0 -32 6.5 -42t17.5 -10q8 0 16.5 6t22.5 30q83 139 211.5 205.5t279.5 66.5
q172 0 304.5 -80.5t208.5 -218.5t76 -312q0 -173 -76 -311t-209 -218.5t-306 -80.5zM739 -14q167 0 295.5 77.5t201 210.5t72.5 299q0 167 -72.5 300t-200.5 210.5t-294 77.5q-164 0 -288.5 -75.5t-194 -209t-69.5 -309.5q0 -169 70.5 -300t194.5 -206t285 -75z" />
    <glyph glyph-name="uni0181" unicode="&#x181;" horiz-adv-x="1599" 
d="M467 0v1573h-84q-157 0 -238.5 -72t-81.5 -204q0 -133 65 -272h-26q-65 136 -65 272q0 142 88.5 221t255.5 79h626q214 0 328.5 -99.5t114.5 -291.5q0 -316 -302 -376q168 -25 258.5 -130t90.5 -280q0 -208 -121.5 -314t-353.5 -106h-555zM493 840h523q198 0 302.5 92
t104.5 274q0 367 -418 367h-512v-733zM493 24h527q450 0 450 396q0 196 -111.5 296t-320.5 100h-545v-792z" />
    <glyph glyph-name="uni0186" unicode="&#x186;" horiz-adv-x="1731" 
d="M845 -37q-208 0 -372 74t-270 208t-140 314h27q33 -173 135 -301.5t260.5 -199t359.5 -70.5q166 0 306 60t243 168.5t160 257t57 325.5t-57 325.5t-160 257t-243 168.5t-306 60q-201 0 -359.5 -70.5t-260.5 -199t-135 -301.5h-27q34 180 140 314t270 208t372 74
q172 0 317 -61.5t252.5 -174t166.5 -265t59 -335.5t-59 -335.5t-166.5 -265t-252.5 -174t-317 -61.5z" />
    <glyph glyph-name="uni0187" unicode="&#x187;" horiz-adv-x="1695" 
d="M912 -37q-181 0 -331 61.5t-259.5 174t-169 265t-59.5 335.5t59.5 335.5t169 265t259.5 174t331 61.5q158 0 287 -43.5t226 -123.5q-104 151 -104 283q0 118 75.5 189t194.5 71q125 0 218 -64v-24q-46 31 -99.5 47.5t-119.5 16.5q-108 0 -175.5 -63.5t-67.5 -172.5
q0 -86 41 -174.5t138 -213.5q103 -134 138 -324h-27q-31 173 -126 301.5t-246.5 199t-352.5 70.5q-175 0 -320 -60t-250 -168.5t-162.5 -257t-57.5 -325.5t57.5 -325.5t162.5 -257t250 -168.5t320 -60q201 0 352.5 70.5t246.5 199t126 301.5h27q-32 -180 -131 -314
t-256 -208t-365 -74z" />
    <glyph glyph-name="uni0188" unicode="&#x188;" horiz-adv-x="1301" 
d="M677 -37q-175 0 -309 78t-210 215.5t-76 316.5q0 180 76 317.5t210 215.5t309 78q125 0 225.5 -37.5t171.5 -105.5q-57 95 -78.5 167t-21.5 140q0 106 61 168.5t167 62.5q80 0 137 -32v-21q-62 31 -137 31q-98 0 -151 -57.5t-53 -151.5q0 -55 13 -108.5t46.5 -122
t94.5 -169.5q29 -46 49.5 -100t29.5 -114h-25q-34 191 -169.5 309t-359.5 118q-168 0 -296.5 -74.5t-201.5 -207t-73 -306.5q0 -173 73 -305.5t201.5 -207t296.5 -74.5q224 0 359.5 118t169.5 308h25q-34 -203 -178 -326t-376 -123z" />
    <glyph glyph-name="uni0189" unicode="&#x189;" horiz-adv-x="1652" 
d="M239 0v787h-256v24h256v786h506q254 0 436 -100t279.5 -279.5t97.5 -418.5t-97.5 -419t-279.5 -280t-436 -100h-506zM266 24h477q246 0 422 96.5t270 271t94 407.5t-94 407t-270 270.5t-422 96.5h-477v-762h575v-24h-575v-763z" />
    <glyph glyph-name="uni018A" unicode="&#x18a;" horiz-adv-x="1880" 
d="M467 0v1573h-84q-157 0 -238.5 -72t-81.5 -204q0 -133 65 -272h-26q-65 136 -65 272q0 142 88.5 221t255.5 79h592q254 0 436 -100t279.5 -279.5t97.5 -418.5t-97.5 -419t-279.5 -280t-436 -100h-506zM494 24h477q246 0 422 96.5t270 271t94 407.5t-94 407t-270 270.5
t-422 96.5h-477v-1549z" />
    <glyph glyph-name="uni018E" unicode="&#x18e;" horiz-adv-x="1186" 
d="M990 0h-959v25h932v774h-779v24h779v750h-891v24h918v-1597z" />
    <glyph glyph-name="uni018F" unicode="&#x18f;" horiz-adv-x="1723" 
d="M870 -37q-242 0 -419 99.5t-272.5 278.5t-95.5 417v15h1519v27v1q0 244 -92.5 425.5t-262.5 282.5t-401 101q-183 0 -331.5 -62.5t-247.5 -176t-135 -266.5h-27q36 163 140 281.5t259 183.5t342 65q240 0 415.5 -104.5t271.5 -292t96 -438.5q0 -248 -97 -437
t-268.5 -294.5t-393.5 -105.5zM870 -12q207 0 368.5 95.5t257 266.5t105.5 399h-1491q2 -231 95 -402t263 -265t402 -94z" />
    <glyph glyph-name="uni0190" unicode="&#x190;" horiz-adv-x="1232" 
d="M639 -37q-165 0 -289.5 59.5t-194 167t-69.5 250.5q0 174 113 287t306 137q-146 28 -239 131.5t-93 247.5q0 117 56 205t157.5 137t239.5 49q203 0 329.5 -106.5t151.5 -288.5h-26q-25 176 -143 273.5t-311 97.5q-196 0 -311.5 -100t-115.5 -267q0 -107 54.5 -190.5
t152 -131t227.5 -47.5h251v-24h-254q-241 0 -379.5 -109.5t-138.5 -301.5q0 -137 66 -238.5t184.5 -157.5t275.5 -56q222 0 358 117t156 338h26q-19 -231 -164.5 -355t-375.5 -124z" />
    <glyph glyph-name="uni0191" unicode="&#x191;" horiz-adv-x="1114" 
d="M-27 -514q-35 0 -85.5 11t-79.5 27v25q27 -13 77 -25.5t88 -12.5q125 0 174 74.5t49 252.5v1759h894v-24h-867v-750h785v-24h-785v-963q0 -188 -56.5 -269t-193.5 -81z" />
    <glyph glyph-name="florin" unicode="&#x192;" horiz-adv-x="602" 
d="M57 -514q-68 0 -115 21v21q25 -9 54 -14.5t60 -5.5q90 0 133 62t43 201v1353h-248v23h248v181q0 182 66.5 265.5t205.5 83.5q40 0 76 -7t64 -18v-22q-65 25 -139 25q-130 0 -189.5 -78.5t-59.5 -249.5v-180h373v-23h-373v-1353q0 -148 -49 -216.5t-150 -68.5z" />
    <glyph glyph-name="uni0193" unicode="&#x193;" horiz-adv-x="1748" 
d="M912 -37q-179 0 -328.5 61t-259.5 172.5t-170.5 264t-60.5 336.5t60 337.5t170 265.5t261 173.5t334 61.5q162 0 292 -43.5t227 -124.5q-104 151 -104 284q0 118 75.5 189t194.5 71q125 0 218 -64v-24q-46 31 -99.5 47.5t-119.5 16.5q-108 0 -175.5 -63.5t-67.5 -172.5
q0 -86 42 -173.5t137 -214.5q41 -54 73 -118t51 -137h-27q-62 230 -247 366t-470 136q-177 0 -323 -59.5t-252 -168t-163.5 -257.5t-57.5 -328t58 -327.5t164.5 -256.5t251 -166.5t316.5 -58.5q273 0 453 147t244 402q14 55 23 114.5t13 122.5h21v-774h-16q0 74 -2 147.5
t-4.5 130t-4.5 76.5q-3 31 -8.5 41.5t-17.5 10.5q-11 0 -17.5 -7t-17.5 -28q-95 -189 -255.5 -298.5t-410.5 -109.5z" />
    <glyph glyph-name="uni0194" unicode="&#x194;" horiz-adv-x="1201" 
d="M600 -38q-115 0 -185.5 62t-70.5 161q0 56 21.5 114.5t74 142.5t144.5 215l-586 940h30l573 -915l573 915h29l-587 -941q93 -130 145.5 -214t74 -142.5t21.5 -114.5q0 -99 -70.5 -161t-186.5 -62zM600 -14q103 0 166.5 55t63.5 144q0 48 -20 106t-70 139.5t-139 202.5
q-89 -121 -139 -202.5t-70.5 -139.5t-20.5 -106q0 -88 63.5 -143.5t165.5 -55.5z" />
    <glyph glyph-name="uni0196" unicode="&#x196;" horiz-adv-x="642" 
d="M458 -18q-141 0 -207 83t-66 267v1265h27v-1263q0 -174 58 -250.5t188 -76.5q47 0 98.5 13t82.5 28v-25q-32 -16 -85 -28.5t-96 -12.5z" />
    <glyph glyph-name="uni0197" unicode="&#x197;" horiz-adv-x="460" 
d="M217 0v797h-220v24h220v776h26v-776h220v-24h-220v-797h-26z" />
    <glyph glyph-name="uni0198" unicode="&#x198;" horiz-adv-x="1371" 
d="M196 0v1597h27v-792l790 730q59 55 100 75t90 20q58 0 110.5 -31t90.5 -69v-29q-41 41 -93.5 72.5t-107.5 31.5q-45 0 -80 -18t-90 -68l-774 -712l970 -807h-41l-965 803v-803h-27z" />
    <glyph glyph-name="uni0199" unicode="&#x199;" horiz-adv-x="962" 
d="M165 0v1310q0 192 78.5 280t245.5 88q53 0 115.5 -13.5t112.5 -40.5v-21q-48 23 -106 38t-121 15q-157 0 -229 -81t-72 -266v-734l745 572h39l-746 -573l748 -574h-41l-745 571v-571h-24z" />
    <glyph glyph-name="uni019D" unicode="&#x19d;" horiz-adv-x="1548" 
d="M-27 -514q-35 0 -85.5 11t-79.5 27v25q27 -13 77 -25.5t88 -12.5q125 0 174 74.5t49 252.5v1759h27l1102 -1552v1552h27v-1597h-27l-1102 1554v-1718q0 -188 -56.5 -269t-193.5 -81z" />
    <glyph glyph-name="uni019F" unicode="&#x19f;" horiz-adv-x="1830" 
d="M915 -37q-178 0 -328.5 61.5t-262 174t-173 265.5t-61.5 335t61.5 335t173 265.5t262 174t328.5 61.5t328.5 -61.5t262 -174t173 -265.5t61.5 -335t-61.5 -335t-173 -265.5t-262 -174t-328.5 -61.5zM915 1610q-170 0 -314.5 -58.5t-251.5 -166t-167.5 -253.5t-62.5 -320
h1592q-2 175 -62.5 320.5t-167.5 253t-251.5 166t-314.5 58.5zM915 -12q170 0 314.5 59t251.5 166t167.5 253t62.5 321h-1592q2 -175 62.5 -321t167.5 -253t251.5 -166t314.5 -59z" />
    <glyph glyph-name="Ohorn" unicode="&#x1a0;" horiz-adv-x="1850" 
d="M915 -37q-178 0 -328.5 61.5t-262 174t-173 265.5t-61.5 335t61.5 335t173 265.5t262 174t328.5 61.5t328.5 -61.5t262 -174t173 -265.5t61.5 -335t-61.5 -335t-173 -265.5t-262 -174t-328.5 -61.5zM915 -12q172 0 317 60t252.5 168.5t167 257t59.5 325.5t-59.5 325.5
t-167 257t-252.5 168.5t-317 60t-317 -60t-252.5 -168.5t-167 -257t-59.5 -325.5t59.5 -325.5t167 -257t252.5 -168.5t317 -60zM1546 1433q-79 0 -142 36v16q56 -28 134 -28q71 0 109.5 36.5t38.5 103.5q0 93 -67 221h26q68 -130 68 -222q0 -75 -44.5 -119t-122.5 -44z" />
    <glyph glyph-name="ohorn" unicode="&#x1a1;" horiz-adv-x="1369" 
d="M677 -37q-173 0 -308.5 79.5t-213 217.5t-77.5 313q0 176 77.5 314t213 217.5t308.5 79.5t308.5 -79.5t213 -217.5t77.5 -314q0 -175 -77.5 -313t-213 -217.5t-308.5 -79.5zM677 -14q167 0 297 76.5t204 209.5t74 301q0 169 -74 302t-204 209.5t-297 76.5t-297 -76.5
t-204 -209.5t-74 -302q0 -168 74 -301t204 -209.5t297 -76.5zM1107 1062q-32 0 -66.5 8t-69.5 27v15q36 -18 68.5 -23t65.5 -5q145 0 145 142q0 46 -20.5 109t-64.5 138h23q46 -79 66 -141t20 -106q0 -76 -44 -120t-123 -44z" />
    <glyph glyph-name="uni01A4" unicode="&#x1a4;" horiz-adv-x="1534" 
d="M480 0v1573h-83q-157 0 -238.5 -72t-81.5 -204q0 -133 65 -272h-26q-65 136 -65 272q0 142 88.5 221t255.5 79h616q224 0 343.5 -117t119.5 -335t-119.5 -335.5t-343.5 -117.5h-504v-692h-27zM507 717h504q215 0 325.5 108.5t110.5 319.5q0 210 -110.5 319t-325.5 109
h-504v-856z" />
    <glyph glyph-name="uni01A5" unicode="&#x1a5;" horiz-adv-x="1411" 
d="M165 -498v1808q0 192 78.5 280t245.5 88q53 0 115.5 -13.5t112.5 -40.5v-21q-48 23 -106 38t-121 15q-157 0 -229 -81t-72 -266v-381q0 -32 6.5 -42t17.5 -10q8 0 16.5 6t22.5 30q83 139 211.5 205.5t279.5 66.5q172 0 304.5 -80.5t208.5 -218.5t76 -312q0 -173 -76 -311
t-208.5 -218.5t-304.5 -80.5q-151 0 -279.5 66.5t-211.5 205.5q-14 24 -22.5 30t-16.5 6q-11 0 -17.5 -10t-6.5 -42v-717h-24zM739 -14q167 0 295.5 77.5t201 210.5t72.5 299q0 167 -72.5 300t-200.5 210.5t-294 77.5q-164 0 -288.5 -75.5t-194 -209t-69.5 -309.5
q0 -169 70.5 -300t194.5 -206t285 -75z" />
    <glyph glyph-name="uni01A9" unicode="&#x1a9;" horiz-adv-x="991" 
d="M7 0v2l630 809l-615 784v2h944v-24h-895l598 -763l-612 -786h909v-24h-959z" />
    <glyph glyph-name="uni01AC" unicode="&#x1ac;" horiz-adv-x="1314" 
d="M700 0v1573h-317q-157 0 -238.5 -72t-81.5 -204q0 -133 65 -272h-26q-65 136 -65 272q0 142 88.5 221t255.5 79h917v-24h-571v-1573h-27z" />
    <glyph glyph-name="uni01AD" unicode="&#x1ad;" horiz-adv-x="665" 
d="M525 -8q-162 0 -216.5 90t-54.5 280v763h-248v22h248v225q0 140 49.5 223t175.5 83q52 0 89 -16v-21q-43 15 -88 15q-118 0 -160 -78t-42 -206v-225h364v-22h-364v-763q0 -181 49 -264.5t198 -83.5q39 0 69.5 5.5t56.5 12.5v-22q-27 -7 -57.5 -12.5t-68.5 -5.5z" />
    <glyph glyph-name="uni01AE" unicode="&#x1ae;" horiz-adv-x="1201" 
d="M882 -514q-148 0 -221.5 83t-73.5 267v1737h-571v24h1169v-24h-571v-1735q0 -174 65.5 -250.5t202.5 -76.5q44 0 86.5 7.5t77.5 18.5v-25q-37 -11 -80 -18.5t-84 -7.5z" />
    <glyph glyph-name="Uhorn" unicode="&#x1af;" horiz-adv-x="1529" 
d="M759 -37q-275 0 -428.5 163.5t-153.5 463.5v1007h27v-1005q0 -290 145.5 -447t409.5 -157t409.5 157t145.5 447v1005h119q147 0 147 122q0 60 -34 136h23q36 -67 36 -136q0 -70 -44.5 -108t-128.5 -38h-91v-983q0 -300 -153.5 -463.5t-428.5 -163.5z" />
    <glyph glyph-name="uhorn" unicode="&#x1b0;" horiz-adv-x="1260" 
d="M589 -37q-205 0 -323 129.5t-118 355.5v699h24v-699q0 -216 111.5 -339t305.5 -123q158 0 262 68t161 213q36 92 55 199t19 236v445h24v-1147h-15q0 83 -2.5 147t-4.5 98q-3 59 -22 59q-8 0 -14.5 -6.5t-18.5 -38.5q-55 -145 -166 -220.5t-278 -75.5zM1099 1125v22h85
q145 0 145 122q0 83 -61 204h23q62 -123 62 -204q0 -67 -44 -105.5t-123 -38.5h-87z" />
    <glyph glyph-name="uni01B1" unicode="&#x1b1;" horiz-adv-x="1850" 
d="M103 1597v-24h605q-171 -58 -310 -169.5t-221 -273t-82 -368.5q0 -172 62.5 -318t174.5 -254t263.5 -168t329.5 -60t329.5 60t263.5 168t174.5 254t62.5 318q0 207 -82 368.5t-221 273t-310 169.5h605v24h-695v-19q183 -49 336.5 -157.5t246.5 -274t93 -384.5
q0 -167 -60.5 -308t-169 -246t-255 -163t-318.5 -58t-318.5 58t-255 163t-169 246t-60.5 308q0 219 93 384.5t246.5 274t336.5 157.5v19h-695z" />
    <glyph glyph-name="uni01B2" unicode="&#x1b2;" horiz-adv-x="1578" 
d="M799 -37q-286 0 -455.5 188t-169.5 559v887h26v-887q0 -361 162.5 -541.5t436.5 -180.5q315 0 476.5 241.5t161.5 701.5q0 349 -104 512.5t-321 163.5q-64 0 -122.5 -12.5t-121.5 -38.5v24q51 24 117 38t127 14q230 0 341 -170.5t111 -530.5q0 -474 -168.5 -721
t-496.5 -247z" />
    <glyph glyph-name="uni01B3" unicode="&#x1b3;" horiz-adv-x="1424" 
d="M628 0v682l-590 915h31l573 -892l512 827q38 60 78 78.5t79 18.5q45 0 85 -20t71 -47v-28q-32 30 -72.5 50t-83.5 20q-34 0 -68.5 -16.5t-66.5 -67.5l-521 -839v-681h-27z" />
    <glyph glyph-name="uni01B4" unicode="&#x1b4;" horiz-adv-x="1087" 
d="M319 -498l219 496l-517 1149h26l504 -1121l562 1290q46 105 85 147.5t115 42.5q37 0 76 -14.5t62 -32.5l1 -22q-69 47 -139 47t-102 -39t-75 -137l-791 -1806h-26z" />
    <glyph glyph-name="uni01B7" unicode="&#x1b7;" horiz-adv-x="1098" 
d="M543 -37q-139 0 -250 54.5t-181 153.5t-90 232h27q29 -187 162 -301t332 -114q137 0 239.5 60t159.5 163t57 231q0 221 -137 343.5t-378 122.5h-132v2l546 663h-789v24h841v-2l-548 -663h82q248 0 395 -129t147 -361q0 -135 -61 -243.5t-169.5 -172t-252.5 -63.5z" />
    <glyph glyph-name="uni01C0" unicode="&#x1c0;" horiz-adv-x="354" 
d="M165 -550v2209h24v-2209h-24z" />
    <glyph glyph-name="uni01C1" unicode="&#x1c1;" horiz-adv-x="549" 
d="M360 -550v2209h24v-2209h-24zM165 -550v2209h24v-2209h-24z" />
    <glyph glyph-name="uni01C2" unicode="&#x1c2;" horiz-adv-x="866" 
d="M63 316v22h358v433h-358v22h358v866h24v-866h358v-22h-358v-433h358v-22h-358v-866h-24v866h-358z" />
    <glyph glyph-name="uni01C3" unicode="&#x1c3;" horiz-adv-x="285" 
d="M132 369l-4 1290h29l-4 -1290h-21zM142 -6q-32 0 -50.5 20.5t-18.5 45.5t18.5 45.5t50.5 20.5t50.5 -20.5t18.5 -45.5t-18.5 -45.5t-50.5 -20.5z" />
    <glyph glyph-name="uni01CD" unicode="&#x1cd;" horiz-adv-x="1345" 
d="M19 0l641 1597h25l641 -1597h-29l-210 524h-829l-210 -524h-29zM267 549h811l-405 1013zM378 2065l293 -352h2l293 352h-23l-253 -289q-9 -10 -17 -10t-17 10l-255 289h-23z" />
    <glyph glyph-name="uni01CE" unicode="&#x1ce;" horiz-adv-x="1170" 
d="M501 -37q-125 0 -219.5 44.5t-147.5 124t-53 183.5q0 155 104.5 228.5t308.5 89.5q182 14 315 31t189 38v3q0 135 -41.5 238t-132.5 160.5t-240 57.5q-169 0 -292 -87.5t-152 -242.5h-25q20 111 86 190t165.5 121t217.5 42q155 0 251.5 -61t141.5 -168t45 -246v-709h-15
q-3 86 -5 154t-5 100q-3 33 -20 33q-13 0 -21 -23q-44 -126 -121.5 -190.5t-166 -87.5t-167.5 -23zM105 315q0 -97 50 -171t139 -116t207 -42q81 0 169 24.5t162.5 92t113.5 196.5q18 59 35 146.5t17 181.5v52q-59 -22 -189.5 -37.5t-314.5 -31.5q-202 -18 -295.5 -86.5
t-93.5 -208.5zM284 1720l304 -420h2l304 420h-21l-270 -354q-9 -12 -14 -12t-14 12l-270 354h-21z" />
    <glyph glyph-name="uni01CF" unicode="&#x1cf;" horiz-adv-x="419" 
d="M196 0v1597h27v-1597h-27zM-84 2065l293 -352h2l293 352h-23l-253 -289q-9 -10 -17 -10t-17 10l-255 289h-23z" />
    <glyph glyph-name="uni01D0" unicode="&#x1d0;" horiz-adv-x="370" 
d="M173 0v1147h24v-1147h-24zM180 1304l-232 420h20l207 -353q5 -8 10 -8t10 8l207 353h20l-232 -420h-10z" />
    <glyph glyph-name="uni01D1" unicode="&#x1d1;" horiz-adv-x="1830" 
d="M915 -37q-178 0 -328.5 61.5t-262 174t-173 265.5t-61.5 335t61.5 335t173 265.5t262 174t328.5 61.5t328.5 -61.5t262 -174t173 -265.5t61.5 -335t-61.5 -335t-173 -265.5t-262 -174t-328.5 -61.5zM915 -12q172 0 317 60t252.5 168.5t167 257t59.5 325.5t-59.5 325.5
t-167 257t-252.5 168.5t-317 60t-317 -60t-252.5 -168.5t-167 -257t-59.5 -325.5t59.5 -325.5t167 -257t252.5 -168.5t317 -60zM621 2065l293 -352h2l293 352h-23l-253 -289q-9 -10 -17 -10t-17 10l-255 289h-23z" />
    <glyph glyph-name="uni01D2" unicode="&#x1d2;" horiz-adv-x="1354" 
d="M677 -37q-173 0 -308.5 79.5t-213 217.5t-77.5 313q0 176 77.5 314t213 217.5t308.5 79.5t308.5 -79.5t213 -217.5t77.5 -314q0 -175 -77.5 -313t-213 -217.5t-308.5 -79.5zM677 -14q167 0 297 76.5t204 209.5t74 301q0 169 -74 302t-204 209.5t-297 76.5t-297 -76.5
t-204 -209.5t-74 -302q0 -168 74 -301t204 -209.5t297 -76.5zM372 1720l304 -420h2l304 420h-21l-270 -354q-9 -12 -14 -12t-14 12l-270 354h-21z" />
    <glyph glyph-name="uni01D3" unicode="&#x1d3;" horiz-adv-x="1518" 
d="M759 -37q-275 0 -428.5 163.5t-153.5 463.5v1007h27v-1005q0 -290 145.5 -447t409.5 -157t409.5 157t145.5 447v1005h27v-1007q0 -300 -153.5 -463.5t-428.5 -163.5zM465 2065l293 -352h2l293 352h-23l-253 -289q-9 -10 -17 -10t-17 10l-255 289h-23z" />
    <glyph glyph-name="uni01D4" unicode="&#x1d4;" horiz-adv-x="1275" 
d="M589 -37q-205 0 -323 129.5t-118 355.5v699h24v-699q0 -216 111.5 -339t305.5 -123q158 0 262 68t161 213q36 92 55 199t19 236v445h24v-1147h-15q0 83 -2.5 147t-4.5 98q-3 59 -22 59q-8 0 -14.5 -6.5t-18.5 -38.5q-55 -145 -166 -220.5t-278 -75.5zM336 1720l304 -420
h2l304 420h-21l-270 -354q-9 -12 -14 -12t-14 12l-270 354h-21z" />
    <glyph glyph-name="uni01D5" unicode="&#x1d5;" horiz-adv-x="1518" 
d="M759 -37q-275 0 -428.5 163.5t-153.5 463.5v1007h27v-1005q0 -290 145.5 -447t409.5 -157t409.5 157t145.5 447v1005h27v-1007q0 -300 -153.5 -463.5t-428.5 -163.5zM991 1779q-23 0 -39 15t-16 37q0 23 15.5 38t39.5 15q23 0 39 -15t16 -38q0 -22 -16 -37t-39 -15z
M527 1779q-23 0 -39 15t-16 37q0 23 16 38t39 15t39 -15t16 -38q0 -22 -16 -37t-39 -15zM483 2083v23h552v-23h-552z" />
    <glyph glyph-name="uni01D6" unicode="&#x1d6;" horiz-adv-x="1275" 
d="M589 -37q-205 0 -323 129.5t-118 355.5v699h24v-699q0 -216 111.5 -339t305.5 -123q158 0 262 68t161 213q36 92 55 199t19 236v445h24v-1147h-15q0 83 -2.5 147t-4.5 98q-3 59 -22 59q-8 0 -14.5 -6.5t-18.5 -38.5q-55 -145 -166 -220.5t-278 -75.5zM825 1333
q-23 0 -38.5 14t-15.5 36t15.5 36.5t38.5 14.5t38.5 -14.5t15.5 -36.5t-15.5 -36t-38.5 -14zM457 1333q-22 0 -38 14t-16 36t16 36.5t38 14.5q23 0 38.5 -14.5t15.5 -36.5t-15.5 -36t-38.5 -14zM385 1596v23h512v-23h-512z" />
    <glyph glyph-name="uni01D7" unicode="&#x1d7;" horiz-adv-x="1518" 
d="M759 -37q-275 0 -428.5 163.5t-153.5 463.5v1007h27v-1005q0 -290 145.5 -447t409.5 -157t409.5 157t145.5 447v1005h27v-1007q0 -300 -153.5 -463.5t-428.5 -163.5zM991 1779q-23 0 -39 15t-16 37q0 23 15.5 38t39.5 15q23 0 39 -15t16 -38q0 -22 -16 -37t-39 -15z
M527 1779q-23 0 -39 15t-16 37q0 23 16 38t39 15t39 -15t16 -38q0 -22 -16 -37t-39 -15zM743 1998l270 322h40l-287 -322h-23z" />
    <glyph glyph-name="uni01D8" unicode="&#x1d8;" horiz-adv-x="1275" 
d="M589 -37q-205 0 -323 129.5t-118 355.5v699h24v-699q0 -216 111.5 -339t305.5 -123q158 0 262 68t161 213q36 92 55 199t19 236v445h24v-1147h-15q0 83 -2.5 147t-4.5 98q-3 59 -22 59q-8 0 -14.5 -6.5t-18.5 -38.5q-55 -145 -166 -220.5t-278 -75.5zM825 1333
q-23 0 -38.5 14t-15.5 36t15.5 36.5t38.5 14.5t38.5 -14.5t15.5 -36.5t-15.5 -36t-38.5 -14zM457 1333q-22 0 -38 14t-16 36t16 36.5t38 14.5q23 0 38.5 -14.5t15.5 -36.5t-15.5 -36t-38.5 -14zM644 1533l209 336h-33l-196 -336h20z" />
    <glyph glyph-name="uni01D9" unicode="&#x1d9;" horiz-adv-x="1518" 
d="M759 -37q-275 0 -428.5 163.5t-153.5 463.5v1007h27v-1005q0 -290 145.5 -447t409.5 -157t409.5 157t145.5 447v1005h27v-1007q0 -300 -153.5 -463.5t-428.5 -163.5zM991 1779q-23 0 -39 15t-16 37q0 23 15.5 38t39.5 15q23 0 39 -15t16 -38q0 -22 -16 -37t-39 -15z
M527 1779q-23 0 -39 15t-16 37q0 23 16 38t39 15t39 -15t16 -38q0 -22 -16 -37t-39 -15zM493 2306l264 -317h5l264 317h-24l-226 -258q-8 -9 -16 -9q-7 0 -15 9l-229 258h-23z" />
    <glyph glyph-name="uni01DA" unicode="&#x1da;" horiz-adv-x="1275" 
d="M589 -37q-205 0 -323 129.5t-118 355.5v699h24v-699q0 -216 111.5 -339t305.5 -123q158 0 262 68t161 213q36 92 55 199t19 236v445h24v-1147h-15q0 83 -2.5 147t-4.5 98q-3 59 -22 59q-8 0 -14.5 -6.5t-18.5 -38.5q-55 -145 -166 -220.5t-278 -75.5zM825 1333
q-23 0 -38.5 14t-15.5 36t15.5 36.5t38.5 14.5t38.5 -14.5t15.5 -36.5t-15.5 -36t-38.5 -14zM457 1333q-22 0 -38 14t-16 36t16 36.5t38 14.5q23 0 38.5 -14.5t15.5 -36.5t-15.5 -36t-38.5 -14zM371 1895l267 -362h5l267 362h-21l-235 -301q-9 -11 -13 -11t-13 11l-236 301
h-21z" />
    <glyph glyph-name="uni01DB" unicode="&#x1db;" horiz-adv-x="1518" 
d="M759 -37q-275 0 -428.5 163.5t-153.5 463.5v1007h27v-1005q0 -290 145.5 -447t409.5 -157t409.5 157t145.5 447v1005h27v-1007q0 -300 -153.5 -463.5t-428.5 -163.5zM991 1779q-23 0 -39 15t-16 37q0 23 15.5 38t39.5 15q23 0 39 -15t16 -38q0 -22 -16 -37t-39 -15z
M527 1779q-23 0 -39 15t-16 37q0 23 16 38t39 15t39 -15t16 -38q0 -22 -16 -37t-39 -15zM775 1998l-270 322h-40l287 -322h23z" />
    <glyph glyph-name="uni01DC" unicode="&#x1dc;" horiz-adv-x="1275" 
d="M589 -37q-205 0 -323 129.5t-118 355.5v699h24v-699q0 -216 111.5 -339t305.5 -123q158 0 262 68t161 213q36 92 55 199t19 236v445h24v-1147h-15q0 83 -2.5 147t-4.5 98q-3 59 -22 59q-8 0 -14.5 -6.5t-18.5 -38.5q-55 -145 -166 -220.5t-278 -75.5zM825 1333
q-23 0 -38.5 14t-15.5 36t15.5 36.5t38.5 14.5t38.5 -14.5t15.5 -36.5t-15.5 -36t-38.5 -14zM457 1333q-22 0 -38 14t-16 36t16 36.5t38 14.5q23 0 38.5 -14.5t15.5 -36.5t-15.5 -36t-38.5 -14zM638 1533l-209 336h33l196 -336h-20z" />
    <glyph glyph-name="uni01DD" unicode="&#x1dd;" horiz-adv-x="1285" 
d="M645 -37q-175 0 -302.5 72.5t-197.5 203t-70 304.5v15h1105v14v4q0 176 -67 307.5t-190 204.5t-290 73q-198 0 -338 -99t-179 -265h-25q26 119 102 205.5t189.5 134t250.5 47.5q175 0 303 -76t198 -213.5t70 -320.5q0 -181 -73 -319t-199 -215t-287 -77zM645 -14
q149 0 267 69t188.5 192.5t78.5 287.5h-1080q2 -167 69 -290.5t189 -191t288 -67.5z" />
    <glyph glyph-name="uni01DE" unicode="&#x1de;" horiz-adv-x="1345" 
d="M19 0l641 1597h25l641 -1597h-29l-210 524h-829l-210 -524h-29zM267 549h811l-405 1013zM904 1779q-23 0 -39 15t-16 37q0 23 15.5 38t39.5 15q23 0 39 -15t16 -38q0 -22 -16 -37t-39 -15zM440 1779q-23 0 -39 15t-16 37q0 23 16 38t39 15t39 -15t16 -38q0 -22 -16 -37
t-39 -15zM396 2083v23h552v-23h-552z" />
    <glyph glyph-name="uni01DF" unicode="&#x1df;" horiz-adv-x="1170" 
d="M501 -37q-125 0 -219.5 44.5t-147.5 124t-53 183.5q0 155 104.5 228.5t308.5 89.5q182 14 315 31t189 38v3q0 135 -41.5 238t-132.5 160.5t-240 57.5q-169 0 -292 -87.5t-152 -242.5h-25q20 111 86 190t165.5 121t217.5 42q155 0 251.5 -61t141.5 -168t45 -246v-709h-15
q-3 86 -5 154t-5 100q-3 33 -20 33q-13 0 -21 -23q-44 -126 -121.5 -190.5t-166 -87.5t-167.5 -23zM105 315q0 -97 50 -171t139 -116t207 -42q81 0 169 24.5t162.5 92t113.5 196.5q18 59 35 146.5t17 181.5v52q-59 -22 -189.5 -37.5t-314.5 -31.5q-202 -18 -295.5 -86.5
t-93.5 -208.5zM773 1333q-23 0 -38.5 14t-15.5 36t15.5 36.5t38.5 14.5t38.5 -14.5t15.5 -36.5t-15.5 -36t-38.5 -14zM405 1333q-22 0 -38 14t-16 36t16 36.5t38 14.5q23 0 38.5 -14.5t15.5 -36.5t-15.5 -36t-38.5 -14zM333 1596v23h512v-23h-512z" />
    <glyph glyph-name="uni01E4" unicode="&#x1e4;" horiz-adv-x="1907" 
d="M910 -37q-179 0 -328.5 61t-259.5 172.5t-170.5 264t-60.5 336.5t60 337.5t170 265.5t261 173.5t334 61.5q288 0 484 -141t262 -386h-29q-63 233 -250.5 367.5t-466.5 134.5q-177 0 -323 -59.5t-252 -168t-163.5 -257.5t-57.5 -328t58 -327.5t164.5 -256.5t251 -166.5
t316.5 -58.5q273 0 453 147t244 402q0 2 1 3h-452v24h457q11 49 19 102t11 108h21v-210h256v-24h-256v-540h-16q0 74 -2 147.5t-4.5 130t-4.5 76.5q-3 31 -8.5 41.5t-17.5 10.5q-11 0 -17.5 -7t-17.5 -28q-95 -189 -255.5 -298.5t-410.5 -109.5z" />
    <glyph glyph-name="uni01E5" unicode="&#x1e5;" horiz-adv-x="1538" 
d="M33 593v23h190q4 162 78 290.5t200.5 203t288.5 74.5q151 0 272.5 -66.5t197.5 -191.5q14 -22 21 -29.5t15 -7.5q10 0 16 10t8 38q2 25 4 65.5t3.5 81t1.5 63.5h15v-531h200v-23h-200v-544q0 -168 -53 -295.5t-169.5 -199.5t-307.5 -72q-142 0 -257.5 50t-192.5 140.5
t-105 210.5h26q26 -109 97 -194.5t181 -134.5t251 -49q183 0 294 69.5t161.5 192t50.5 282.5v211q0 44 -23 44q-18 0 -41 -38q-73 -122 -194.5 -188t-273.5 -66q-164 0 -292 77t-200.5 208.5t-72.5 295.5h-190zM792 1161q-156 0 -277.5 -71.5t-192.5 -195t-75 -278.5h1073
q-3 159 -71 282t-186 193t-271 70zM790 35q156 0 274.5 70.5t186 196.5t69.5 291h-1073q1 -159 71 -285.5t192 -199.5t280 -73z" />
    <glyph glyph-name="Gcaron" unicode="&#x1e6;" horiz-adv-x="1782" 
d="M910 -37q-179 0 -328.5 61t-259.5 172.5t-170.5 264t-60.5 336.5t60 337.5t170 265.5t261 173.5t334 61.5q288 0 484 -141t262 -386h-29q-63 233 -250.5 367.5t-466.5 134.5q-177 0 -323 -59.5t-252 -168t-163.5 -257.5t-57.5 -328t58 -327.5t164.5 -256.5t251 -166.5
t316.5 -58.5q273 0 453 147t244 402q14 55 23 114.5t13 122.5h21v-774h-16q0 74 -2 147.5t-4.5 130t-4.5 76.5q-3 31 -8.5 41.5t-17.5 10.5q-11 0 -17.5 -7t-17.5 -28q-95 -189 -255.5 -298.5t-410.5 -109.5zM622 2065l293 -352h2l293 352h-23l-253 -289q-9 -10 -17 -10
t-17 10l-255 289h-23z" />
    <glyph glyph-name="gcaron" unicode="&#x1e7;" horiz-adv-x="1366" 
d="M673 -514q-142 0 -257.5 50t-192.5 140.5t-105 210.5h26q26 -109 97 -194.5t181 -134.5t251 -49q183 0 294 69.5t161.5 192t50.5 282.5v207q0 44 -23 44q-18 0 -41 -38q-73 -122 -194.5 -188t-273.5 -66q-164 0 -292 77t-200.5 210t-72.5 299q0 167 73 299.5t200.5 209.5
t293.5 77q151 0 272.5 -66.5t197.5 -191.5q14 -22 21 -29.5t15 -7.5q10 0 16 10t8 38q2 25 4 65.5t3.5 81t1.5 63.5h15v-1094q0 -168 -53 -295.5t-169.5 -199.5t-307.5 -72zM649 35q158 0 277 72.5t186 200.5t67 296q0 162 -67.5 288t-186.5 197.5t-274 71.5
q-160 0 -282.5 -74.5t-192.5 -201.5t-70 -287t69.5 -287.5t192.5 -201.5t281 -74zM376 1720l304 -420h2l304 420h-21l-270 -354q-9 -12 -14 -12t-14 12l-270 354h-21z" />
    <glyph glyph-name="uni01E8" unicode="&#x1e8;" horiz-adv-x="1199" 
d="M196 0v1597h27v-790l936 790h39l-938 -791l969 -806h-41l-965 803v-803h-27zM357 2065l293 -352h2l293 352h-23l-253 -289q-9 -10 -17 -10t-17 10l-255 289h-23z" />
    <glyph glyph-name="uni01E9" unicode="&#x1e9;" horiz-adv-x="962" 
d="M165 0v1659h24v-1084l745 572h39l-746 -573l748 -574h-41l-745 571v-571h-24zM-117 2127l293 -352h2l293 352h-23l-253 -289q-9 -10 -17 -10t-17 10l-255 289h-23z" />
    <glyph glyph-name="uni01EA" unicode="&#x1ea;" horiz-adv-x="1830" 
d="M915 -37q-178 0 -328.5 61.5t-262 174t-173 265.5t-61.5 335t61.5 335t173 265.5t262 174t328.5 61.5t328.5 -61.5t262 -174t173 -265.5t61.5 -335t-61.5 -335t-173 -265.5t-262 -174t-328.5 -61.5zM915 -12q172 0 317 60t252.5 168.5t167 257t59.5 325.5t-59.5 325.5
t-167 257t-252.5 168.5t-317 60t-317 -60t-252.5 -168.5t-167 -257t-59.5 -325.5t59.5 -325.5t167 -257t252.5 -168.5t317 -60zM1231 -446q-90 0 -141.5 45.5t-51.5 122.5q0 172 265 348l20 -7q-258 -182 -258 -341q0 -68 44 -106t123 -38q90 0 177 48v-24q-87 -48 -178 -48
z" />
    <glyph glyph-name="uni01EB" unicode="&#x1eb;" horiz-adv-x="1354" 
d="M677 -37q-173 0 -308.5 79.5t-213 217.5t-77.5 313q0 176 77.5 314t213 217.5t308.5 79.5t308.5 -79.5t213 -217.5t77.5 -314q0 -175 -77.5 -313t-213 -217.5t-308.5 -79.5zM677 -14q167 0 297 76.5t204 209.5t74 301q0 169 -74 302t-204 209.5t-297 76.5t-297 -76.5
t-204 -209.5t-74 -302q0 -168 74 -301t204 -209.5t297 -76.5zM912 -446q-81 0 -130.5 46t-49.5 122q0 85 64.5 171t200.5 176l20 -6q-127 -88 -193.5 -171.5t-66.5 -169.5q0 -66 42.5 -106t112.5 -40q48 0 89 13t73 33v-23q-34 -21 -73 -33t-89 -12z" />
    <glyph glyph-name="uni01EC" unicode="&#x1ec;" horiz-adv-x="1830" 
d="M915 -37q-178 0 -328.5 61.5t-262 174t-173 265.5t-61.5 335t61.5 335t173 265.5t262 174t328.5 61.5t328.5 -61.5t262 -174t173 -265.5t61.5 -335t-61.5 -335t-173 -265.5t-262 -174t-328.5 -61.5zM915 -12q172 0 317 60t252.5 168.5t167 257t59.5 325.5t-59.5 325.5
t-167 257t-252.5 168.5t-317 60t-317 -60t-252.5 -168.5t-167 -257t-59.5 -325.5t59.5 -325.5t167 -257t252.5 -168.5t317 -60zM625 1810v23h580v-23h-580zM1231 -446q-90 0 -141.5 45.5t-51.5 122.5q0 172 265 348l20 -7q-258 -182 -258 -341q0 -68 44 -106t123 -38
q90 0 177 48v-24q-87 -48 -178 -48z" />
    <glyph glyph-name="uni01ED" unicode="&#x1ed;" horiz-adv-x="1354" 
d="M677 -37q-173 0 -308.5 79.5t-213 217.5t-77.5 313q0 176 77.5 314t213 217.5t308.5 79.5t308.5 -79.5t213 -217.5t77.5 -314q0 -175 -77.5 -313t-213 -217.5t-308.5 -79.5zM677 -14q167 0 297 76.5t204 209.5t74 301q0 169 -74 302t-204 209.5t-297 76.5t-297 -76.5
t-204 -209.5t-74 -302q0 -168 74 -301t204 -209.5t297 -76.5zM912 -446q-81 0 -130.5 46t-49.5 122q0 85 64.5 171t200.5 176l20 -6q-127 -88 -193.5 -171.5t-66.5 -169.5q0 -66 42.5 -106t112.5 -40q48 0 89 13t73 33v-23q-34 -21 -73 -33t-89 -12zM387 1420v23h580v-23
h-580z" />
    <glyph glyph-name="uni01EE" unicode="&#x1ee;" horiz-adv-x="1098" 
d="M543 -37q-139 0 -250 54.5t-181 153.5t-90 232h27q29 -187 162 -301t332 -114q137 0 239.5 60t159.5 163t57 231q0 221 -137 343.5t-378 122.5h-132v2l546 663h-789v24h841v-2l-548 -663h82q248 0 395 -129t147 -361q0 -135 -61 -243.5t-169.5 -172t-252.5 -63.5z
M236 2065l293 -352h2l293 352h-23l-253 -289q-9 -10 -17 -10t-17 10l-255 289h-23z" />
    <glyph glyph-name="uni01EF" unicode="&#x1ef;" horiz-adv-x="1024" 
d="M497 -518q-137 0 -246 48.5t-178.5 136.5t-89.5 206h25q29 -166 160.5 -267t328.5 -101q144 0 251.5 61t167 168.5t59.5 244.5q0 219 -139 345t-380 126h-113v2l527 672h-793v23h841v-2l-529 -673h67q165 0 287 -60t189 -170.5t67 -262.5q0 -144 -63 -256.5t-176 -176.5
t-263 -64zM180 1720l304 -420h2l304 420h-21l-270 -354q-9 -12 -14 -12t-14 12l-270 354h-21z" />
    <glyph glyph-name="uni01F0" unicode="&#x1f0;" horiz-adv-x="371" 
d="M173 -487v1634h25v-1634h-25zM180 1304l-232 420h20l207 -353q5 -8 10 -8t10 8l207 353h20l-232 -420h-10z" />
    <glyph glyph-name="uni01F8" unicode="&#x1f8;" horiz-adv-x="1548" 
d="M196 0v1597h27l1102 -1552v1552h27v-1597h-27l-1102 1554v-1554h-27zM762 1713l-403 342h50l381 -342h-28z" />
    <glyph glyph-name="uni01F9" unicode="&#x1f9;" horiz-adv-x="1285" 
d="M165 0v1147h15q0 -92 3 -166t4 -109q3 -59 22 -59q8 0 14.5 6.5t18.5 38.5q56 145 168.5 235.5t299.5 90.5q194 0 310.5 -129.5t116.5 -352.5v-702h-24v702q0 212 -109.5 335.5t-293.5 123.5q-151 0 -266 -72t-181 -239q-34 -85 -54 -186.5t-20 -251.5v-412h-24z
M648 1300l-285 420h37l269 -420h-21z" />
    <glyph glyph-name="Aringacute" unicode="&#x1fa;" horiz-adv-x="1345" 
d="M19 0l641 1597h25l641 -1597h-29l-210 524h-829l-210 -524h-29zM267 549h811l-405 1013zM672 1684q-75 0 -124.5 49.5t-49.5 122.5q0 74 49.5 123t124.5 49t124.5 -49t49.5 -123q0 -73 -49.5 -122.5t-124.5 -49.5zM672 1706q64 0 106 43.5t42 106.5t-42 106.5t-106 43.5
t-106 -43.5t-42 -106.5t42 -106.5t106 -43.5zM655 2016l270 322h40l-287 -322h-23z" />
    <glyph glyph-name="aringacute" unicode="&#x1fb;" horiz-adv-x="1170" 
d="M501 -37q-125 0 -219.5 44.5t-147.5 124t-53 183.5q0 155 104.5 228.5t308.5 89.5q182 14 315 31t189 38v3q0 135 -41.5 238t-132.5 160.5t-240 57.5q-169 0 -292 -87.5t-152 -242.5h-25q20 111 86 190t165.5 121t217.5 42q155 0 251.5 -61t141.5 -168t45 -246v-709h-15
q-3 86 -5 154t-5 100q-3 33 -20 33q-13 0 -21 -23q-44 -126 -121.5 -190.5t-166 -87.5t-167.5 -23zM105 315q0 -97 50 -171t139 -116t207 -42q81 0 169 24.5t162.5 92t113.5 196.5q18 59 35 146.5t17 181.5v52q-59 -22 -189.5 -37.5t-314.5 -31.5q-202 -18 -295.5 -86.5
t-93.5 -208.5zM586 1270q-76 0 -126.5 49.5t-50.5 122.5t50 122.5t127 49.5t127 -49.5t50 -122.5t-50 -122.5t-127 -49.5zM586 1290q67 0 110.5 43.5t43.5 108.5t-43.5 108t-110.5 43t-110.5 -43t-43.5 -108t43.5 -108.5t110.5 -43.5zM589 1598l209 336h-33l-196 -336h20z
" />
    <glyph glyph-name="AEacute" unicode="&#x1fc;" horiz-adv-x="1968" 
d="M-58 0l1065 1597h889v-24h-857v-750h745v-24h-745v-774h898v-25h-924v628h-620l-417 -628h-34zM409 652h604v909zM1363 1713l403 342h-50l-381 -342h28z" />
    <glyph glyph-name="aeacute" unicode="&#x1fd;" horiz-adv-x="2143" 
d="M520 -37q-119 0 -218 40t-158.5 118t-59.5 191q0 151 102.5 227.5t286.5 76.5h527v29v10q0 243 -111.5 374.5t-323.5 131.5q-162 0 -281 -88.5t-148 -241.5h-25q19 110 83.5 189t161 121.5t210.5 42.5q209 0 322 -118.5t132 -323.5q44 204 186 323t344 119
q155 0 271.5 -72t181.5 -201.5t65 -302.5v-14h-1043v-22v-1q0 -181 66 -312t186 -202t282 -71q182 0 307.5 99t160.5 265h25q-35 -178 -168.5 -282.5t-324.5 -104.5q-225 0 -369.5 129t-179.5 345q-31 -232 -155.5 -353t-334.5 -121zM1550 1161q-150 0 -265 -69
t-182.5 -191.5t-76.5 -284.5h1018q-3 166 -65 288.5t-172 189.5t-257 67zM520 -14q461 0 479 608h-525q-173 0 -269.5 -69.5t-96.5 -213.5q0 -106 57 -178.5t151 -109.5t204 -37zM1075 1300l285 420h-37l-269 -420h21z" />
    <glyph glyph-name="Oslashacute" unicode="&#x1fe;" horiz-adv-x="1830" 
d="M200 -100l188 241q-138 112 -218 281.5t-80 376.5q0 182 61.5 335t173 265.5t262 174t328.5 61.5q146 0 275 -42.5t232 -120.5l175 226h33l-188 -242q139 -112 218.5 -281t79.5 -376q0 -182 -61.5 -335t-173 -265.5t-262 -174t-328.5 -61.5q-146 0 -275 42.5t-232 120.5
l-175 -226h-33zM119 799q0 -200 76.5 -364t209.5 -273l1001 1289q-100 76 -224.5 117.5t-266.5 41.5q-172 0 -317 -60t-252.5 -168.5t-167 -257t-59.5 -325.5zM915 -12q172 0 317 60t252.5 168.5t167 257t59.5 325.5q0 200 -76 364t-209 272l-1002 -1288
q100 -76 224.5 -117.5t266.5 -41.5zM928 1713l403 342h-50l-381 -342h28z" />
    <glyph glyph-name="oslashacute" unicode="&#x1ff;" horiz-adv-x="1354" 
d="M179 -100l131 182q-108 82 -170 209t-62 282q0 176 77.5 314t213 217.5t308.5 79.5q100 0 188 -27.5t160 -77.5l121 168h29l-131 -182q108 -82 170 -209.5t62 -282.5q0 -175 -77.5 -313t-213 -217.5t-308.5 -79.5q-100 0 -188 27.5t-160 77.5l-121 -168h-29zM102 573
q0 -149 59 -271t162 -201l689 959q-69 48 -154 74.5t-181 26.5q-167 0 -297 -76.5t-204 -209.5t-74 -302zM677 -14q167 0 297 76.5t204 209.5t74 301q0 150 -59 272t-162 201l-689 -959q69 -48 154 -74.5t181 -26.5zM681 1300l285 420h-37l-269 -420h21z" />
    <glyph glyph-name="uni0218" unicode="&#x218;" horiz-adv-x="1199" 
d="M636 -37q-247 0 -396.5 133.5t-180.5 366.5h27q28 -218 171 -346.5t379 -128.5q133 0 235 50.5t160 140.5t58 208q0 128 -51.5 208.5t-161.5 133t-286 96.5q-238 60 -341.5 155t-103.5 265q0 114 57.5 202t159.5 137.5t235 49.5q203 0 326 -113.5t144 -318.5h-27
q-21 197 -137 302.5t-306 105.5q-127 0 -222.5 -46.5t-149 -128.5t-53.5 -190q0 -158 97 -247t329 -148q180 -45 294.5 -101t169 -141.5t54.5 -220.5q0 -126 -62.5 -221.5t-171 -149t-246.5 -53.5zM528 -521l103 398h31l-118 -398h-16z" />
    <glyph glyph-name="uni0219" unicode="&#x219;" horiz-adv-x="1001" 
d="M524 -37q-119 0 -219 39.5t-165.5 119.5t-82.5 199h25q15 -109 77 -183.5t157.5 -113t207.5 -38.5q120 0 204.5 40t129 106t44.5 142q0 94 -37 153t-126.5 95.5t-247.5 62.5q-200 34 -282 106.5t-82 197.5q0 120 95 207.5t279 87.5q159 0 262 -82.5t122 -243.5h-24
q-21 153 -115 228t-245 75q-175 0 -262.5 -81t-87.5 -191t74.5 -179t267.5 -102q162 -27 257 -65t135.5 -101.5t40.5 -167.5q0 -82 -47.5 -153t-137 -114.5t-217.5 -43.5zM414 -591l115 438h31l-130 -438h-16z" />
    <glyph glyph-name="uni021A" unicode="&#x21a;" horiz-adv-x="1201" 
d="M587 0v1573h-571v24h1169v-24h-571v-1573h-27zM484 -521l103 398h31l-118 -398h-16z" />
    <glyph glyph-name="uni021B" unicode="&#x21b;" horiz-adv-x="665" 
d="M525 -8q-162 0 -216.5 90t-54.5 280v763h-248v22h198q28 0 37 15t12 55q2 27 4.5 81.5t4 111.5t1.5 89h15v-352h364v-22h-364v-763q0 -181 49 -264.5t198 -83.5q39 0 69.5 5.5t56.5 12.5v-22q-27 -7 -57.5 -12.5t-68.5 -5.5zM333 -591l115 438h31l-130 -438h-16z" />
    <glyph glyph-name="uni021E" unicode="&#x21e;" horiz-adv-x="1503" 
d="M196 0v1597h27v-776h1057v776h27v-1597h-27v797h-1057v-797h-27zM458 2065l293 -352h2l293 352h-23l-253 -289q-9 -10 -17 -10t-17 10l-255 289h-23z" />
    <glyph glyph-name="uni021F" unicode="&#x21f;" horiz-adv-x="1285" 
d="M165 0v1659h24v-795q0 -29 5 -40t15 -11q8 0 14.5 6.5t18.5 38.5q56 145 169 235.5t300 90.5q194 0 310 -129.5t116 -352.5v-702h-24v702q0 212 -109.5 335.5t-292.5 123.5q-152 0 -267 -72t-181 -239q-34 -85 -54 -186.5t-20 -251.5v-412h-24zM-117 2127l293 -352h2
l293 352h-23l-253 -289q-9 -10 -17 -10t-17 10l-255 289h-23z" />
    <glyph glyph-name="uni0226" unicode="&#x226;" horiz-adv-x="1345" 
d="M19 0l641 1597h25l641 -1597h-29l-210 524h-829l-210 -524h-29zM267 549h811l-405 1013zM673 1799q-25 0 -42.5 16t-17.5 41t17.5 41t42.5 16q26 0 43 -16t17 -41t-17 -41t-43 -16z" />
    <glyph glyph-name="uni0227" unicode="&#x227;" horiz-adv-x="1170" 
d="M501 -37q-125 0 -219.5 44.5t-147.5 124t-53 183.5q0 155 104.5 228.5t308.5 89.5q182 14 315 31t189 38v3q0 135 -41.5 238t-132.5 160.5t-240 57.5q-169 0 -292 -87.5t-152 -242.5h-25q20 111 86 190t165.5 121t217.5 42q155 0 251.5 -61t141.5 -168t45 -246v-709h-15
q-3 86 -5 154t-5 100q-3 33 -20 33q-13 0 -21 -23q-44 -126 -121.5 -190.5t-166 -87.5t-167.5 -23zM105 315q0 -97 50 -171t139 -116t207 -42q81 0 169 24.5t162.5 92t113.5 196.5q18 59 35 146.5t17 181.5v52q-59 -22 -189.5 -37.5t-314.5 -31.5q-202 -18 -295.5 -86.5
t-93.5 -208.5zM588 1388q-29 0 -45 17.5t-16 39.5t16 39.5t45 17.5t45 -17.5t16 -39.5t-16 -39.5t-45 -17.5z" />
    <glyph glyph-name="uni0228" unicode="&#x228;" horiz-adv-x="1186" 
d="M196 0v1597h918v-24h-891v-750h779v-24h-779v-774h932v-25h-959zM729 -505q-118 0 -193.5 72.5t-83.5 199.5h26q10 -115 77.5 -181t174.5 -66q89 0 140.5 52.5t51.5 139.5q0 86 -69.5 165.5t-187.5 125.5l24 10q116 -45 188 -128t72 -173q0 -99 -59.5 -158t-160.5 -59z
" />
    <glyph glyph-name="uni0229" unicode="&#x229;" horiz-adv-x="1284" 
d="M666 -37q-175 0 -307 76t-205.5 213.5t-73.5 320.5q0 182 75 319.5t205.5 214.5t296.5 77q168 0 292 -72.5t192 -203t68 -304.5v-15h-1105v-14v-4q0 -176 70.5 -307.5t197.5 -204.5t294 -73q200 0 332.5 99t169.5 265h25q-37 -178 -178 -282.5t-349 -104.5zM657 1161
q-154 0 -276 -69t-195 -192.5t-81 -288.5h1080q-2 167 -66.5 290.5t-182.5 191.5t-279 68zM698 -535q-116 0 -191 72.5t-83 198.5h25q10 -116 77 -182t173 -66q94 0 147 50.5t53 140.5q0 88 -73 167.5t-195 125.5l21 8q125 -44 198 -128t73 -173q0 -100 -60.5 -157
t-164.5 -57z" />
    <glyph glyph-name="uni022A" unicode="&#x22a;" horiz-adv-x="1830" 
d="M915 -37q-178 0 -328.5 61.5t-262 174t-173 265.5t-61.5 335t61.5 335t173 265.5t262 174t328.5 61.5t328.5 -61.5t262 -174t173 -265.5t61.5 -335t-61.5 -335t-173 -265.5t-262 -174t-328.5 -61.5zM915 -12q172 0 317 60t252.5 168.5t167 257t59.5 325.5t-59.5 325.5
t-167 257t-252.5 168.5t-317 60t-317 -60t-252.5 -168.5t-167 -257t-59.5 -325.5t59.5 -325.5t167 -257t252.5 -168.5t317 -60zM1147 1779q-23 0 -39 15t-16 37q0 23 15.5 38t39.5 15q23 0 39 -15t16 -38q0 -22 -16 -37t-39 -15zM683 1779q-23 0 -39 15t-16 37q0 23 16 38
t39 15t39 -15t16 -38q0 -22 -16 -37t-39 -15zM639 2083v23h552v-23h-552z" />
    <glyph glyph-name="uni022B" unicode="&#x22b;" horiz-adv-x="1354" 
d="M677 -37q-173 0 -308.5 79.5t-213 217.5t-77.5 313q0 176 77.5 314t213 217.5t308.5 79.5t308.5 -79.5t213 -217.5t77.5 -314q0 -175 -77.5 -313t-213 -217.5t-308.5 -79.5zM677 -14q167 0 297 76.5t204 209.5t74 301q0 169 -74 302t-204 209.5t-297 76.5t-297 -76.5
t-204 -209.5t-74 -302q0 -168 74 -301t204 -209.5t297 -76.5zM861 1333q-23 0 -38.5 14t-15.5 36t15.5 36.5t38.5 14.5t38.5 -14.5t15.5 -36.5t-15.5 -36t-38.5 -14zM493 1333q-22 0 -38 14t-16 36t16 36.5t38 14.5q23 0 38.5 -14.5t15.5 -36.5t-15.5 -36t-38.5 -14z
M421 1596v23h512v-23h-512z" />
    <glyph glyph-name="uni022C" unicode="&#x22c;" horiz-adv-x="1830" 
d="M915 -37q-178 0 -328.5 61.5t-262 174t-173 265.5t-61.5 335t61.5 335t173 265.5t262 174t328.5 61.5t328.5 -61.5t262 -174t173 -265.5t61.5 -335t-61.5 -335t-173 -265.5t-262 -174t-328.5 -61.5zM915 -12q172 0 317 60t252.5 168.5t167 257t59.5 325.5t-59.5 325.5
t-167 257t-252.5 168.5t-317 60t-317 -60t-252.5 -168.5t-167 -257t-59.5 -325.5t59.5 -325.5t167 -257t252.5 -168.5t317 -60zM1061 1752q-49 0 -85 26.5t-67 62t-64 62t-76 26.5q-52 0 -88 -37.5t-49 -108.5h-18q13 81 53.5 125t101.5 44q49 0 85 -26.5t67 -62t64 -62
t76 -26.5q52 0 88 37.5t49 108.5h18q-13 -83 -54 -126t-101 -43zM640 2134v23h552v-23h-552z" />
    <glyph glyph-name="uni022D" unicode="&#x22d;" horiz-adv-x="1354" 
d="M677 -37q-173 0 -308.5 79.5t-213 217.5t-77.5 313q0 176 77.5 314t213 217.5t308.5 79.5t308.5 -79.5t213 -217.5t77.5 -314q0 -175 -77.5 -313t-213 -217.5t-308.5 -79.5zM677 -14q167 0 297 76.5t204 209.5t74 301q0 169 -74 302t-204 209.5t-297 76.5t-297 -76.5
t-204 -209.5t-74 -302q0 -168 74 -301t204 -209.5t297 -76.5zM814 1341q-46 0 -79.5 21.5t-63 50t-60.5 50t-71 21.5q-99 0 -125 -126h-14q27 149 139 149q45 0 79 -21.5t63.5 -50t60.5 -50.5t71 -22q46 0 79 32.5t46 94.5h14q-27 -149 -139 -149zM421 1643v23h512v-23h-512
z" />
    <glyph glyph-name="uni022E" unicode="&#x22e;" horiz-adv-x="1830" 
d="M915 -37q-178 0 -328.5 61.5t-262 174t-173 265.5t-61.5 335t61.5 335t173 265.5t262 174t328.5 61.5t328.5 -61.5t262 -174t173 -265.5t61.5 -335t-61.5 -335t-173 -265.5t-262 -174t-328.5 -61.5zM915 -12q172 0 317 60t252.5 168.5t167 257t59.5 325.5t-59.5 325.5
t-167 257t-252.5 168.5t-317 60t-317 -60t-252.5 -168.5t-167 -257t-59.5 -325.5t59.5 -325.5t167 -257t252.5 -168.5t317 -60zM916 1799q-25 0 -42.5 16t-17.5 41t17.5 41t42.5 16q26 0 43 -16t17 -41t-17 -41t-43 -16z" />
    <glyph glyph-name="uni022F" unicode="&#x22f;" horiz-adv-x="1354" 
d="M677 -37q-173 0 -308.5 79.5t-213 217.5t-77.5 313q0 176 77.5 314t213 217.5t308.5 79.5t308.5 -79.5t213 -217.5t77.5 -314q0 -175 -77.5 -313t-213 -217.5t-308.5 -79.5zM677 -14q167 0 297 76.5t204 209.5t74 301q0 169 -74 302t-204 209.5t-297 76.5t-297 -76.5
t-204 -209.5t-74 -302q0 -168 74 -301t204 -209.5t297 -76.5zM676 1388q-29 0 -45 17.5t-16 39.5t16 39.5t45 17.5t45 -17.5t16 -39.5t-16 -39.5t-45 -17.5z" />
    <glyph glyph-name="uni0230" unicode="&#x230;" horiz-adv-x="1830" 
d="M915 -37q-178 0 -328.5 61.5t-262 174t-173 265.5t-61.5 335t61.5 335t173 265.5t262 174t328.5 61.5t328.5 -61.5t262 -174t173 -265.5t61.5 -335t-61.5 -335t-173 -265.5t-262 -174t-328.5 -61.5zM915 -12q172 0 317 60t252.5 168.5t167 257t59.5 325.5t-59.5 325.5
t-167 257t-252.5 168.5t-317 60t-317 -60t-252.5 -168.5t-167 -257t-59.5 -325.5t59.5 -325.5t167 -257t252.5 -168.5t317 -60zM915 1779q-23 0 -39 15t-16 37q0 23 15.5 38t39.5 15q23 0 39 -15t16 -38q0 -22 -16 -37t-39 -15zM639 2083v23h552v-23h-552z" />
    <glyph glyph-name="uni0231" unicode="&#x231;" horiz-adv-x="1354" 
d="M677 -37q-173 0 -308.5 79.5t-213 217.5t-77.5 313q0 176 77.5 314t213 217.5t308.5 79.5t308.5 -79.5t213 -217.5t77.5 -314q0 -175 -77.5 -313t-213 -217.5t-308.5 -79.5zM677 -14q167 0 297 76.5t204 209.5t74 301q0 169 -74 302t-204 209.5t-297 76.5t-297 -76.5
t-204 -209.5t-74 -302q0 -168 74 -301t204 -209.5t297 -76.5zM676 1333q-26 0 -40.5 15.5t-14.5 34.5q0 20 14.5 35.5t40.5 15.5t40.5 -15.5t14.5 -35.5q0 -19 -14.5 -34.5t-40.5 -15.5zM420 1596v23h512v-23h-512z" />
    <glyph glyph-name="uni0232" unicode="&#x232;" horiz-adv-x="1275" 
d="M624 0v682l-590 915h31l574 -892l573 892h30l-591 -917v-680h-27zM349 1810v23h580v-23h-580z" />
    <glyph glyph-name="uni0233" unicode="&#x233;" horiz-adv-x="1101" 
d="M316 -490l221 490l-516 1147h26l503 -1119l503 1119h27l-738 -1637h-26zM260 1420v23h580v-23h-580z" />
    <glyph glyph-name="uni0237" unicode="&#x237;" horiz-adv-x="371" 
d="M173 -487v1634h25v-1634h-25z" />
    <glyph glyph-name="uni0241" unicode="&#x241;" horiz-adv-x="926" 
d="M415 0v346q0 116 14 199.5t57.5 156t131.5 154.5q87 76 138 139t73 127.5t22 144.5q0 87 -41.5 164t-123.5 125t-204 48q-110 0 -202 -42.5t-149.5 -125.5t-66.5 -204h-26q9 127 70 215.5t158.5 134.5t215.5 46q126 0 214.5 -50.5t135 -132.5t46.5 -177
q0 -82 -22.5 -148.5t-75 -132.5t-143.5 -148q-87 -84 -128.5 -153.5t-54 -148.5t-12.5 -192v-345h-27z" />
    <glyph glyph-name="uni0242" unicode="&#x242;" horiz-adv-x="876" 
d="M376 0v71q0 93 22.5 166.5t74.5 141.5t139 142q109 93 152.5 162t43.5 162q0 85 -41 157t-121 115.5t-197 43.5q-159 0 -274 -84t-142 -245h-24q28 170 149.5 261t290.5 91q121 0 206.5 -46t131 -123t45.5 -169q0 -65 -19 -117.5t-63.5 -105t-119.5 -117.5
q-86 -74 -136.5 -139.5t-72 -135.5t-21.5 -160v-71h-24z" />
    <glyph glyph-name="uni0243" unicode="&#x243;" horiz-adv-x="1352" 
d="M220 0v408h-220v24h220v1165h540q214 0 328.5 -99.5t114.5 -291.5q0 -316 -302 -376q168 -25 258.5 -130t90.5 -280q0 -208 -121.5 -314t-353.5 -106h-555zM246 840h523q198 0 302.5 92t104.5 274q0 367 -418 367h-512v-733zM246 24h527q450 0 450 396q0 196 -111.5 296
t-320.5 100h-545v-384h585v-24h-585v-384z" />
    <glyph glyph-name="uni0244" unicode="&#x244;" horiz-adv-x="1626" 
d="M-25 808v24h256v765h27v-765h1110v765h27v-765h256v-24h-256v-218q0 -300 -153.5 -463.5t-428.5 -163.5t-428.5 163.5t-153.5 463.5v218h-256zM258 592q0 -290 145.5 -447t409.5 -157t409.5 157t145.5 447v216h-1110v-216z" />
    <glyph glyph-name="uni0245" unicode="&#x245;" horiz-adv-x="1400" 
d="M16 0l671 1597h25l672 -1597h-29l-655 1564l-656 -1564h-28z" />
    <glyph glyph-name="uni024B" unicode="&#x24b;" horiz-adv-x="1411" 
d="M1447 -514q-126 0 -175.5 83.5t-49.5 222.5v427q0 32 -6.5 42t-17.5 10q-8 0 -16.5 -6t-22.5 -30q-82 -139 -211 -205.5t-280 -66.5q-172 0 -304.5 80.5t-208.5 219t-76 311.5t76 311t209.5 218.5t305.5 80.5q157 0 283 -69.5t205 -199.5q14 -23 21.5 -29.5t16.5 -6.5
q11 0 16.5 9.5t8.5 38.5t5.5 72t3.5 84t1 64h15v-1355q0 -127 42 -205.5t160 -78.5q45 0 88 15v-21q-37 -16 -89 -16zM670 -14q164 0 288.5 75.5t194 209.5t69.5 309q0 169 -70.5 300t-194.5 206t-285 75q-167 0 -295.5 -77.5t-201 -210t-72.5 -299.5t72.5 -300
t200.5 -210.5t294 -77.5z" />
    <glyph glyph-name="uni024C" unicode="&#x24c;" horiz-adv-x="1374" 
d="M217 0v766h-220v25h220v806h558q228 0 347 -104.5t119 -304.5q0 -152 -78.5 -265.5t-263.5 -141.5q140 -14 207 -86t88 -232l39 -301q10 -76 22.5 -112t19.5 -50h-26q-7 12 -20 49t-23 113l-39 301q-15 120 -57 185.5t-123.5 91.5t-216.5 26h-527v-766h-26zM775 1573
h-532v-782h522q165 0 263.5 52t142 142t43.5 203q0 385 -439 385z" />
    <glyph glyph-name="uni024D" unicode="&#x24d;" horiz-adv-x="919" 
d="M195 0v562h-200v23h200v562h15q0 -51 2 -120.5t5 -116.5q2 -35 6 -47t13 -12q7 0 11.5 6.5t11.5 28.5q40 135 132.5 211.5t222.5 75.5q137 -1 209.5 -85t72.5 -224q0 -11 -0.5 -19t-1.5 -14h-23q1 7 1.5 14.5t0.5 17.5q0 131 -66.5 209.5t-193.5 78.5t-209.5 -72.5
t-123.5 -197.5q-24 -74 -37.5 -142t-19.5 -154h406v-23h-407q-3 -55 -3 -124v-438h-24z" />
    <glyph glyph-name="uni0251" unicode="&#x251;" horiz-adv-x="1411" 
d="M670 -37q-172 0 -305.5 80.5t-209.5 218.5t-76 311q0 174 76 312t209.5 218.5t305.5 80.5q156 0 282.5 -69.5t205.5 -199.5q14 -23 21.5 -29.5t16.5 -6.5q11 0 16.5 9.5t8.5 38.5t5.5 72t3.5 84t1 64h15v-1147h-15q0 24 -1 64.5t-3.5 83.5t-5.5 72t-8.5 38.5t-16.5 9.5
q-9 0 -16.5 -6.5t-21.5 -29.5q-79 -130 -205.5 -199.5t-282.5 -69.5zM672 -14q161 0 285 75t194.5 207.5t70.5 304.5q0 173 -70.5 305.5t-194.5 207.5t-285 75q-167 0 -295.5 -77.5t-201 -210.5t-72.5 -300q0 -166 72.5 -299t201 -210.5t295.5 -77.5z" />
    <glyph glyph-name="uni0253" unicode="&#x253;" horiz-adv-x="1411" 
d="M741 -37q-157 0 -282.5 69.5t-205.5 199.5q-14 23 -21.5 29.5t-16.5 6.5q-10 0 -16 -9.5t-9 -38.5t-5.5 -72t-3.5 -83.5t-1 -64.5h-15v1310q0 192 78.5 280t245.5 88q53 0 115.5 -13.5t112.5 -40.5v-21q-48 23 -106 38t-121 15q-157 0 -229 -81t-72 -266v-381
q0 -32 6.5 -42t17.5 -10q8 0 16.5 6t22.5 30q83 139 211.5 205.5t279.5 66.5q172 0 304.5 -80.5t208.5 -218.5t76 -312q0 -173 -76 -311t-209 -218.5t-306 -80.5zM739 -14q167 0 295.5 77.5t201 210.5t72.5 299q0 167 -72.5 300t-200.5 210.5t-294 77.5q-164 0 -288.5 -75.5
t-194 -209t-69.5 -309.5q0 -169 70.5 -300t194.5 -206t285 -75z" />
    <glyph glyph-name="uni0254" unicode="&#x254;" horiz-adv-x="1291" 
d="M638 -37q-154 0 -276 56t-199.5 157t-100.5 236h25q23 -127 96.5 -223t189.5 -149.5t265 -53.5q161 0 284.5 74.5t194 207t70.5 305.5t-70.5 305.5t-194 207t-284.5 74.5q-149 0 -265 -53.5t-189.5 -149.5t-96.5 -223h-25q23 136 100.5 236.5t199.5 156.5t276 56
q167 0 296.5 -78t203 -215.5t73.5 -316.5t-73.5 -316.5t-203 -215.5t-296.5 -78z" />
    <glyph glyph-name="uni0256" unicode="&#x256;" horiz-adv-x="1411" 
d="M1447 -514q-126 0 -175.5 83.5t-49.5 222.5v427q0 32 -6.5 42t-17.5 10q-8 0 -16.5 -6t-22.5 -30q-79 -133 -206.5 -202.5t-282.5 -69.5q-172 0 -305.5 80.5t-209.5 218.5t-76 311q0 174 76 312t208.5 218.5t304.5 80.5q151 0 280 -66.5t211 -205.5q14 -24 22.5 -30
t16.5 -6q11 0 17.5 10t6.5 42v731h24v-1867q0 -127 42 -205t160 -78q48 0 88 14v-21q-37 -16 -89 -16zM672 -14q161 0 285 75t194.5 206t70.5 300q0 176 -69.5 309.5t-194 209t-288.5 75.5q-166 0 -294 -77.5t-200.5 -210.5t-72.5 -300q0 -166 72.5 -299t201 -210.5
t295.5 -77.5z" />
    <glyph glyph-name="uni0257" unicode="&#x257;" horiz-adv-x="1411" 
d="M670 -37q-172 0 -305.5 80.5t-209.5 218.5t-76 311q0 174 76 312t208.5 218.5t304.5 80.5q151 0 280 -66.5t211 -205.5q14 -24 22.5 -30t16.5 -6q11 0 17.5 10t6.5 42v443q0 140 49.5 223t175.5 83q52 0 89 -16v-21q-43 15 -88 15q-118 0 -160 -78t-42 -206v-1371h-15
q0 24 -1 64.5t-3.5 83.5t-5.5 72t-8.5 38.5t-16.5 9.5q-9 0 -16.5 -6.5t-21.5 -29.5q-79 -130 -205 -199.5t-283 -69.5zM672 -14q161 0 285 75t194.5 206t70.5 300q0 176 -69.5 309.5t-194 209t-288.5 75.5q-166 0 -294 -77.5t-200.5 -210.5t-72.5 -300q0 -166 72.5 -299
t201 -210.5t295.5 -77.5z" />
    <glyph glyph-name="uni0259" unicode="&#x259;" horiz-adv-x="1285" 
d="M645 -37q-175 0 -302.5 72.5t-197.5 203t-70 304.5v15h1105v14v4q0 176 -67 307.5t-190 204.5t-290 73q-198 0 -338 -99t-179 -265h-25q26 119 102 205.5t189.5 134t250.5 47.5q175 0 303 -76t198 -213.5t70 -320.5q0 -181 -73 -319t-199 -215t-287 -77zM645 -14
q149 0 267 69t188.5 192.5t78.5 287.5h-1080q2 -167 69 -290.5t189 -191t288 -67.5z" />
    <glyph glyph-name="uni025B" unicode="&#x25b;" horiz-adv-x="980" 
d="M510 -37q-129 0 -227 43t-153 121.5t-55 183.5q0 127 88 209.5t239 100.5q-116 20 -189 95t-73 179q0 131 98.5 210t261.5 79q160 0 260.5 -78.5t120.5 -212.5h-24q-19 127 -112.5 197.5t-245.5 70.5t-243.5 -72.5t-91.5 -192.5q0 -116 94 -191t248 -75h196v-22h-198
q-189 0 -297 -79t-108 -218q0 -148 113.5 -236.5t297.5 -88.5q182 0 283.5 84t118.5 243h24q-16 -169 -126 -259.5t-300 -90.5z" />
    <glyph glyph-name="uni0260" unicode="&#x260;" horiz-adv-x="1368" 
d="M673 -514q-142 0 -257.5 50t-192.5 140.5t-105 210.5h26q26 -109 97 -194.5t181 -134.5t251 -49q183 0 294 69.5t161.5 192t50.5 282.5v207q0 44 -23 44q-18 0 -41 -38q-73 -122 -194.5 -188t-273.5 -66q-164 0 -292 77t-200.5 210t-72.5 299q0 167 73 299.5t200.5 209.5
t293.5 77q150 0 271.5 -65t194.5 -185q23 -38 41 -38q23 0 23 44v432q0 140 49.5 223t175.5 83q52 0 89 -16v-21q-43 15 -88 15q-118 0 -160 -78t-42 -206v-1319q0 -168 -53 -295.5t-169.5 -199.5t-307.5 -72zM649 35q158 0 277 72.5t186 200.5t67 296q0 162 -67.5 288
t-186.5 197.5t-274 71.5q-160 0 -282.5 -74.5t-192.5 -201.5t-70 -287t69.5 -287.5t192.5 -201.5t281 -74z" />
    <glyph glyph-name="uni0263" unicode="&#x263;" horiz-adv-x="1115" 
d="M558 -518q-103 0 -165.5 60t-62.5 156q0 56 16.5 114t62.5 146t135 235l-517 954h28l503 -930l503 930h27l-516 -954q89 -147 135 -235.5t62.5 -146.5t16.5 -113q0 -96 -62.5 -156t-165.5 -60zM558 -495q92 0 148 54t56 139q0 47 -15 103.5t-59 143.5t-130 224
q-86 -137 -130 -224t-59 -143.5t-15 -103.5q0 -85 56.5 -139t147.5 -54z" />
    <glyph glyph-name="uni0265" unicode="&#x265;" horiz-adv-x="1285" 
d="M1120 1147v-1659h-24v795q0 29 -5 40t-15 11q-8 0 -14.5 -6.5t-18.5 -38.5q-56 -145 -169 -235.5t-300 -90.5q-194 0 -310 129.5t-116 352.5v702h24v-702q0 -212 109.5 -335.5t292.5 -123.5q152 0 267 72t181 239q34 85 54 186.5t20 251.5v412h24z" />
    <glyph glyph-name="uni0266" unicode="&#x266;" horiz-adv-x="1286" 
d="M166 0v1310q0 192 78.5 280t245.5 88q53 0 115.5 -13.5t112.5 -40.5v-21q-48 23 -106 38t-121 15q-157 0 -229 -81t-72 -266v-445q0 -29 5 -40t15 -11q8 0 14.5 6.5t18.5 38.5q56 145 169 235.5t300 90.5q194 0 310 -129.5t116 -352.5v-702h-24v702q0 212 -109.5 335.5
t-292.5 123.5q-152 0 -267 -72t-181 -239q-34 -85 -54 -186.5t-20 -251.5v-412h-24z" />
    <glyph glyph-name="uni0267" unicode="&#x267;" horiz-adv-x="1286" 
d="M814 -514q-53 0 -115.5 13.5t-112.5 40.5v21q48 -23 106 -38t121 -15q158 0 229.5 80.5t71.5 265.5v848q0 212 -109.5 335.5t-292.5 123.5q-152 0 -267 -72t-181 -239q-34 -85 -54 -186.5t-20 -251.5v-412h-24v1310q0 192 78.5 280t245.5 88q53 0 115.5 -13.5
t112.5 -40.5v-21q-48 23 -106 38t-121 15q-157 0 -229 -81t-72 -266v-445q0 -29 5 -40t15 -11q8 0 14.5 6.5t18.5 38.5q56 145 169 235.5t300 90.5q194 0 310 -129.5t116 -352.5v-848q0 -192 -78.5 -280t-245.5 -88z" />
    <glyph glyph-name="uni0268" unicode="&#x268;" horiz-adv-x="430" 
d="M215 1431q-26 0 -43.5 16.5t-17.5 41.5t17.5 41.5t43.5 16.5t43.5 -16.5t17.5 -41.5t-17.5 -41.5t-43.5 -16.5zM203 0v587h-200v23h200v537h24v-537h200v-23h-200v-587h-24z" />
    <glyph glyph-name="uni0269" unicode="&#x269;" horiz-adv-x="513" 
d="M422 -8q-147 0 -208.5 88t-61.5 265v802h24v-802q0 -168 55 -249.5t192 -81.5q39 0 69.5 6t56.5 15v-22q-27 -9 -57.5 -15t-69.5 -6z" />
    <glyph glyph-name="uni0272" unicode="&#x272;" horiz-adv-x="1285" 
d="M-10 -514q-68 0 -115 21v21q25 -9 54 -14.5t60 -5.5q90 0 133 62t43 201v1376h15q0 -92 3 -166t4 -109q3 -59 22 -59q8 0 14.5 6.5t18.5 38.5q56 145 168.5 235.5t299.5 90.5q194 0 310.5 -129.5t116.5 -352.5v-702h-24v702q0 212 -109.5 335.5t-293.5 123.5
q-151 0 -266 -72t-181 -239q-34 -85 -54 -186.5t-20 -251.5v-641q0 -148 -49 -216.5t-150 -68.5z" />
    <glyph glyph-name="uni0275" unicode="&#x275;" horiz-adv-x="1354" 
d="M677 -37q-173 0 -308.5 79.5t-213 217.5t-77.5 313q0 176 77.5 314t213 217.5t308.5 79.5t308.5 -79.5t213 -217.5t77.5 -314q0 -175 -77.5 -313t-213 -217.5t-308.5 -79.5zM677 1161q-165 0 -294 -75t-203.5 -205t-77.5 -296h1150q-3 166 -77.5 296t-203.5 205t-294 75z
M677 -14q165 0 294 75t203.5 205t77.5 296h-1150q3 -166 77.5 -296t203.5 -205t294 -75z" />
    <glyph glyph-name="uni027D" unicode="&#x27d;" horiz-adv-x="889" 
d="M489 -514q-167 0 -245.5 88t-78.5 280v1293h15q0 -51 2 -120.5t5 -116.5q2 -35 6 -47t13 -12q7 0 11.5 6.5t11.5 28.5q40 135 132.5 211.5t222.5 75.5q137 -1 209.5 -85t72.5 -224q0 -11 -0.5 -19t-1.5 -14h-23q1 7 1.5 14.5t0.5 17.5q0 131 -66.5 209.5t-193.5 78.5
t-209.5 -72.5t-123.5 -197.5q-22 -67 -35.5 -130.5t-19.5 -137.5t-6 -175v-583q0 -184 72 -265.5t229 -81.5q44 0 86.5 7.5t80.5 20.5v-22q-42 -14 -86 -21t-82 -7z" />
    <glyph glyph-name="uni027E" unicode="&#x27e;" horiz-adv-x="534" 
d="M422 1155q39 0 69.5 -6t57.5 -15v-22q-26 9 -56.5 15t-69.5 6q-137 0 -192 -81.5t-55 -249.5v-802h-24v802q0 177 61.5 265t208.5 88z" />
    <glyph glyph-name="uni0283" unicode="&#x283;" horiz-adv-x="366" 
d="M77 -519q-41 0 -88.5 10.5t-99.5 34.5v23q52 -25 99.5 -35t88.5 -10q108 0 153.5 59t45.5 148q0 38 -9 105l-209 1527q-9 66 -9 105q0 99 53.5 164.5t170.5 65.5q41 0 88.5 -10.5t99.5 -34.5v-23q-52 25 -99.5 35t-88.5 10q-108 0 -153.5 -59t-45.5 -148q0 -37 9 -105
l209 -1527q9 -66 9 -105q0 -99 -53.5 -164.5t-170.5 -65.5z" />
    <glyph glyph-name="uni0288" unicode="&#x288;" horiz-adv-x="642" 
d="M580 -514q-167 0 -245.5 88t-78.5 280v1271h-248v22h198q28 0 37 15t12 55q2 27 4.5 81.5t4 111.5t1.5 89h15v-352h364v-22h-364v-1270q0 -185 72 -266t229 -81q44 0 86.5 7.5t80.5 20.5v-22q-42 -14 -86 -21t-82 -7z" />
    <glyph glyph-name="uni0289" unicode="&#x289;" horiz-adv-x="1341" 
d="M-16 562v23h200v562h24v-562h910q4 56 4 117v445h24v-562h200v-23h-200v-562h-15q0 83 -2.5 147t-4.5 98q-3 59 -22 59q-8 0 -14.5 -6.5t-18.5 -38.5q-55 -145 -166 -220.5t-278 -75.5q-205 0 -323 129.5t-118 355.5v114h-200zM208 448q0 -216 111.5 -339t305.5 -123
q158 0 262 68t161 213q26 65 43 138.5t25 156.5h-908v-114z" />
    <glyph glyph-name="uni028A" unicode="&#x28a;" horiz-adv-x="1368" 
d="M684 -37q-170 0 -305 75.5t-213 206.5t-78 297q0 150 56.5 265t153 194.5t215.5 123.5h-446v22h523v-18q-129 -36 -237.5 -113.5t-174.5 -195.5t-66 -278q0 -159 74.5 -285t204 -198.5t293.5 -72.5t293.5 72.5t204 198.5t74.5 285q0 160 -65.5 278t-174.5 195.5
t-238 113.5v18h523v-22h-446q119 -44 215.5 -123.5t153 -194.5t56.5 -265q0 -166 -78 -297t-212.5 -206.5t-305.5 -75.5z" />
    <glyph glyph-name="uni028B" unicode="&#x28b;" horiz-adv-x="1181" 
d="M604 -37q-210 0 -334 137t-124 408v639h24v-639q0 -261 117.5 -391.5t316.5 -130.5q228 0 345 175t117 513q0 249 -75 367t-233 118q-87 0 -177 -37v21q83 38 176 38q170 0 251.5 -123.5t81.5 -383.5q0 -349 -123 -530t-363 -181z" />
    <glyph glyph-name="uni028C" unicode="&#x28c;" horiz-adv-x="1101" 
d="M564 1147l516 -1147h-26l-503 1119l-503 -1119h-27l516 1147h27z" />
    <glyph glyph-name="uni0292" unicode="&#x292;" horiz-adv-x="1024" 
d="M497 -518q-137 0 -246 48.5t-178.5 136.5t-89.5 206h25q29 -166 160.5 -267t328.5 -101q144 0 251.5 61t167 168.5t59.5 244.5q0 219 -139 345t-380 126h-113v2l527 672h-793v23h841v-2l-529 -673h67q165 0 287 -60t189 -170.5t67 -262.5q0 -144 -63 -256.5t-176 -176.5
t-263 -64z" />
    <glyph glyph-name="uni0294" unicode="&#x294;" horiz-adv-x="890" 
d="M366 0v391q0 134 17 221.5t60.5 157t124.5 147.5q86 83 136.5 149t72 129t21.5 134q0 90 -41 164t-121.5 118t-199.5 44q-158 0 -272 -84t-141 -245h-24q28 170 148 261t289 91q123 0 209 -46.5t131.5 -125.5t45.5 -176q0 -74 -21.5 -138.5t-73 -133t-141.5 -156.5
q-80 -79 -122.5 -146t-58 -151t-15.5 -214v-391h-24z" />
    <glyph glyph-name="uni0295" unicode="&#x295;" horiz-adv-x="886" 
d="M495 0v391q0 130 -15.5 214t-58 151t-122.5 146q-89 88 -141 156.5t-73.5 131.5t-21.5 134q0 100 48 180t138.5 127t215.5 47q170 0 282.5 -91t138.5 -261h-24q-25 161 -131 245t-266 84q-182 0 -280 -96t-98 -236q0 -103 50.5 -192.5t179.5 -213.5q81 -78 125 -147.5
t60.5 -157t16.5 -221.5v-391h-24z" />
    <glyph glyph-name="uni0298" unicode="&#x298;" horiz-adv-x="1830" 
d="M915 -37q-178 0 -328.5 61.5t-262 174t-173 265.5t-61.5 335t61.5 335t173 265.5t262 174t328.5 61.5t328.5 -61.5t262 -174t173 -265.5t61.5 -335t-61.5 -335t-173 -265.5t-262 -174t-328.5 -61.5zM915 -14q173 0 318.5 60t254 169t168 258t59.5 326t-59.5 326t-168 258
t-254 169t-318.5 60q-172 0 -318 -60t-254.5 -169t-168 -258t-59.5 -326t59.5 -326t168 -258t254.5 -169t318 -60zM915 742q-29 0 -45 17.5t-16 39.5t16 39.5t45 17.5t45 -17.5t16 -39.5t-16 -39.5t-45 -17.5z" />
    <glyph glyph-name="uni029D" unicode="&#x29d;" horiz-adv-x="366" 
d="M181 1431q-26 0 -43.5 16.5t-17.5 41.5t17.5 41.5t43.5 16.5t43.5 -16.5t17.5 -41.5t-17.5 -41.5t-43.5 -16.5zM-12 -514q-85 0 -142.5 50t-57.5 131q0 83 63.5 134.5t158.5 51.5h159v1294h24v-1294h237v-22h-237v-87q0 -130 -53 -194t-152 -64zM-12 -492q181 0 181 234
v89h-157q-84 0 -142 -45t-58 -119q0 -71 50 -115t126 -44z" />
    <glyph glyph-name="uni02BB" unicode="&#x2bb;" horiz-adv-x="428" 
d="M298 1597l-140 -646h-31l150 646h21z" />
    <glyph glyph-name="uni02BC" unicode="&#x2bc;" horiz-adv-x="375" 
d="M230 1597l-106 -557h-20l96 557h30z" />
    <glyph glyph-name="uni02BE" unicode="&#x2be;" horiz-adv-x="343" 
d="M25 972q140 9 229.5 102t89.5 235q0 143 -89.5 235.5t-229.5 101.5v-22q127 -7 210.5 -95t83.5 -220t-83.5 -220t-210.5 -95v-22z" />
    <glyph glyph-name="uni02BF" unicode="&#x2bf;" horiz-adv-x="343" 
d="M318 972q-140 9 -229.5 102t-89.5 235q0 143 89.5 235.5t229.5 101.5v-22q-127 -7 -210.5 -95t-83.5 -220t83.5 -220t210.5 -95v-22z" />
    <glyph glyph-name="uni02C0" unicode="&#x2c0;" horiz-adv-x="569" 
d="M253 950v43q0 83 32 143t112 127q67 56 93 97t26 96q0 75 -55 130t-158 55q-95 0 -164.5 -49.5t-85.5 -144.5h-23q17 106 93.5 160.5t179.5 54.5q110 0 173 -60t63 -145q0 -59 -28 -104t-98 -104q-85 -72 -111.5 -128.5t-26.5 -127.5v-43h-22z" />
    <glyph glyph-name="circumflex" unicode="&#x2c6;" horiz-adv-x="710" 
d="M50 1300l304 420h2l304 -420h-21l-270 354q-9 12 -14 12t-14 -12l-270 -354h-21z" />
    <glyph glyph-name="caron" unicode="&#x2c7;" horiz-adv-x="710" 
d="M50 1720l304 -420h2l304 420h-21l-270 -354q-9 -12 -14 -12t-14 12l-270 354h-21z" />
    <glyph glyph-name="uni02C9" unicode="&#x2c9;" horiz-adv-x="600" 
d="M-280 1420v23h580v-23h-580z" />
    <glyph glyph-name="uni02CA" unicode="&#x2ca;" horiz-adv-x="600" 
d="M24 1300l285 420h-37l-269 -420h21z" />
    <glyph glyph-name="uni02CB" unicode="&#x2cb;" horiz-adv-x="600" 
d="M15 1300l-285 420h37l269 -420h-21z" />
    <glyph glyph-name="uni02D7" unicode="&#x2d7;" horiz-adv-x="1300" 
d="M208 745v23h884v-23h-884z" />
    <glyph glyph-name="breve" unicode="&#x2d8;" horiz-adv-x="722" 
d="M361 1328q-121 0 -204.5 69.5t-106.5 190.5h10q31 -110 110.5 -172.5t190.5 -62.5t190.5 62.5t110.5 172.5h10q-23 -121 -106 -190.5t-205 -69.5z" />
    <glyph glyph-name="dotaccent" unicode="&#x2d9;" horiz-adv-x="222" 
d="M111 1388q-29 0 -45 17.5t-16 39.5t16 39.5t45 17.5t45 -17.5t16 -39.5t-16 -39.5t-45 -17.5z" />
    <glyph glyph-name="ring" unicode="&#x2da;" horiz-adv-x="482" 
d="M241 1300q-83 0 -137 54.5t-54 135.5t54 135.5t137 54.5t137 -54.5t54 -135.5t-54 -135.5t-137 -54.5zM241 1322q72 0 119 48.5t47 119.5t-47 119.5t-119 48.5t-119 -48.5t-47 -119.5t47 -119.5t119 -48.5z" />
    <glyph glyph-name="ogonek" unicode="&#x2db;" horiz-adv-x="447" 
d="M222 -459q-80 0 -128.5 43.5t-48.5 115.5q0 73 52 142t171 166l15 -8q-83 -71 -129.5 -122t-65 -93t-18.5 -85q0 -63 42 -100t112 -37q91 0 168 60v-23q-38 -30 -82 -44.5t-88 -14.5z" />
    <glyph glyph-name="tilde" unicode="&#x2dc;" horiz-adv-x="766" 
d="M545 1342q-54 0 -94 30t-74 69t-71 69t-85 30q-124 0 -153 -163h-18q14 89 58.5 138t112.5 49q54 0 94 -30t74 -69t71 -69t85 -30q124 0 153 163h18q-14 -89 -58.5 -138t-112.5 -49z" />
    <glyph glyph-name="hungarumlaut" unicode="&#x2dd;" horiz-adv-x="716" 
d="M350 1300l281 420h35l-295 -420h-21zM50 1300l281 420h35l-295 -420h-21z" />
    <glyph glyph-name="uni02EE" unicode="&#x2ee;" horiz-adv-x="524" 
d="M446 1597l-110 -524h-21l101 524h30zM221 1597l-94 -524h-21l84 524h31z" />
    <glyph glyph-name="gravecomb" unicode="&#x300;" 
d="M-4 1300l-285 420h37l269 -420h-21z" />
    <glyph glyph-name="acutecomb" unicode="&#x301;" 
d="M4 1300l285 420h-37l-269 -420h21z" />
    <glyph glyph-name="uni0302" unicode="&#x302;" 
d="M-305 1300l304 420h2l304 -420h-21l-270 354q-9 12 -14 12t-14 -12l-270 -354h-21z" />
    <glyph glyph-name="tildecomb" unicode="&#x303;" 
d="M162 1342q-54 0 -94 30t-74 69t-71 69t-85 30q-124 0 -153 -163h-18q14 89 58.5 138t112.5 49q54 0 94 -30t74 -69t71 -69t85 -30q124 0 153 163h18q-14 -89 -58.5 -138t-112.5 -49z" />
    <glyph glyph-name="uni0304" unicode="&#x304;" 
d="M-290 1420v23h580v-23h-580z" />
    <glyph glyph-name="uni0306" unicode="&#x306;" 
d="M0 1328q-121 0 -204.5 69.5t-106.5 190.5h10q31 -110 110.5 -172.5t190.5 -62.5t190.5 62.5t110.5 172.5h10q-23 -121 -106 -190.5t-205 -69.5z" />
    <glyph glyph-name="uni0307" unicode="&#x307;" 
d="M0 1388q-29 0 -45 17.5t-16 39.5t16 39.5t45 17.5t45 -17.5t16 -39.5t-16 -39.5t-45 -17.5z" />
    <glyph glyph-name="uni0308" unicode="&#x308;" 
d="M208 1388q-25 0 -42.5 16t-17.5 41t17.5 41t42.5 16q26 0 43 -16t17 -41t-17 -41t-43 -16zM-208 1388q-25 0 -42.5 16t-17.5 41t17.5 41t42.5 16q26 0 43 -16t17 -41t-17 -41t-43 -16z" />
    <glyph glyph-name="hookabovecomb" unicode="&#x309;" 
d="M-35 1301v18q106 45 165 111.5t59 140.5q0 70 -44 106t-122 36q-47 0 -98.5 -15t-101.5 -47v19q38 30 94 47.5t108 17.5q86 0 137.5 -43t51.5 -120q0 -85 -69 -157.5t-180 -113.5z" />
    <glyph glyph-name="uni030A" unicode="&#x30a;" 
d="M-3 1300q-83 0 -137 54.5t-54 135.5t54 135.5t137 54.5t137 -54.5t54 -135.5t-54 -135.5t-137 -54.5zM-3 1322q72 0 119 48.5t47 119.5t-47 119.5t-119 48.5t-119 -48.5t-47 -119.5t47 -119.5t119 -48.5z" />
    <glyph glyph-name="uni030B" unicode="&#x30b;" 
d="M122 1300l281 420h35l-295 -420h-21zM-178 1300l281 420h35l-295 -420h-21z" />
    <glyph glyph-name="uni030C" unicode="&#x30c;" 
d="M-305 1720l304 -420h2l304 420h-21l-270 -354q-9 -12 -14 -12t-14 12l-270 354h-21z" />
    <glyph glyph-name="uni030D" unicode="&#x30d;" 
d="M-12 1300v420h24v-420h-24z" />
    <glyph glyph-name="uni0312" unicode="&#x312;" 
d="M132 1738l-115 -438h-31l130 438h16z" />
    <glyph glyph-name="uni031B" unicode="&#x31b;" 
d="M-11 1125v22h85q145 0 145 122q0 83 -61 204h23q62 -123 62 -204q0 -67 -44 -105.5t-123 -38.5h-87z" />
    <glyph glyph-name="dotbelowcomb" unicode="&#x323;" 
d="M0 -377q-29 0 -45 17.5t-16 39.5t16 39.5t45 17.5t45 -17.5t16 -39.5t-16 -39.5t-45 -17.5z" />
    <glyph glyph-name="uni0324" unicode="&#x324;" 
d="M218 -363q-25 0 -42.5 16t-17.5 41t17.5 41t42.5 16q26 0 43 -16t17 -41t-17 -41t-43 -16zM-218 -363q-25 0 -42.5 16t-17.5 41t17.5 41t42.5 16q26 0 43 -16t17 -41t-17 -41t-43 -16z" />
    <glyph glyph-name="uni0325" unicode="&#x325;" 
d="M-3 -585q-83 0 -137 54.5t-54 135.5t54 135.5t137 54.5t137 -54.5t54 -135.5t-54 -135.5t-137 -54.5zM-3 -563q72 0 119 48.5t47 119.5t-47 119.5t-119 48.5t-119 -48.5t-47 -119.5t47 -119.5t119 -48.5z" />
    <glyph glyph-name="uni0326" unicode="&#x326;" 
d="M-129 -591l115 438h31l-130 -438h-16z" />
    <glyph glyph-name="uni0327" unicode="&#x327;" 
d="M26 -507q-116 0 -191 72.5t-83 198.5h25q10 -116 77 -182t173 -66q94 0 147 50.5t53 140.5q0 88 -73 167.5t-195 125.5l21 8q125 -44 198 -128t73 -173q0 -100 -60.5 -157t-164.5 -57z" />
    <glyph glyph-name="uni0328" unicode="&#x328;" 
d="M-61 -459q-80 0 -128.5 43.5t-48.5 115.5q0 73 52 142t171 166l15 -8q-83 -71 -129.5 -122t-65 -93t-18.5 -85q0 -63 42 -100t112 -37q91 0 168 60v-23q-38 -30 -82 -44.5t-88 -14.5z" />
    <glyph glyph-name="uni0329" unicode="&#x329;" 
d="M-12 -620v420h24v-420h-24z" />
    <glyph glyph-name="uni032D" unicode="&#x32d;" 
d="M-305 -597l304 420h2l304 -420h-21l-270 354q-9 12 -14 12t-14 -12l-270 -354h-21z" />
    <glyph glyph-name="uni032E" unicode="&#x32e;" 
d="M0 -430q-121 0 -204.5 69.5t-106.5 190.5h10q31 -110 110.5 -172.5t190.5 -62.5t190.5 62.5t110.5 172.5h10q-23 -121 -106 -190.5t-205 -69.5z" />
    <glyph glyph-name="uni032F" unicode="&#x32f;" 
d="M0 -123q-121 0 -204.5 -69.5t-106.5 -190.5h10q31 110 110.5 172.5t190.5 62.5t190.5 -62.5t110.5 -172.5h10q-23 121 -106 190.5t-205 69.5z" />
    <glyph glyph-name="uni0330" unicode="&#x330;" 
d="M162 -426q-54 0 -94 30t-74 69t-71 69t-85 30q-124 0 -153 -163h-18q14 89 58.5 138t112.5 49q54 0 94 -30t74 -69t71 -69t85 -30q124 0 153 163h18q-14 -89 -58.5 -138t-112.5 -49z" />
    <glyph glyph-name="uni0331" unicode="&#x331;" 
d="M-290 -331v23h580v-23h-580z" />
    <glyph glyph-name="uni0332" unicode="&#x332;" 
d="M-580 -331v23h1160v-23h-1160z" />
    <glyph glyph-name="uni0394" unicode="&#x394;" horiz-adv-x="1417" 
d="M55 0l642 1597h23l642 -1597h-1307zM94 24h1229l-614 1538z" />
    <glyph glyph-name="uni03A9" unicode="&#x3a9;" horiz-adv-x="1850" 
d="M103 0v24h605q-171 58 -310 169.5t-221 273t-82 368.5q0 172 62.5 318t174.5 254t263.5 168t329.5 60t329.5 -60t263.5 -168t174.5 -254t62.5 -318q0 -207 -82 -368.5t-221 -273t-310 -169.5h605v-24h-695v19q183 49 336.5 157.5t246.5 274t93 384.5q0 167 -60.5 308
t-169 246t-255 163t-318.5 58t-318.5 -58t-255 -163t-169 -246t-60.5 -308q0 -219 93 -384.5t246.5 -274t336.5 -157.5v-19h-695z" />
    <glyph glyph-name="uni03BC" unicode="&#x3bc;" horiz-adv-x="1292" 
d="M163 -487l2 1634h24v-699q0 -216 111.5 -339t305.5 -123q158 0 262 68t161 213q36 92 55 199t19 236v445h24v-1147h-15q0 83 -2.5 147t-4.5 98q-3 59 -22 59q-8 0 -14.5 -6.5t-18.5 -38.5q-55 -145 -166 -220.5t-278 -75.5q-127 0 -222.5 52.5t-151.5 148.5
q-8 14 -13.5 17.5t-10.5 3.5q-21 0 -21 -45v-627h-24z" />
    <glyph glyph-name="pi" unicode="&#x3c0;" horiz-adv-x="1405" 
d="M1306 -8q-121 0 -173 71.5t-52 234.5v827h-825v-1125h-24v1125h-248v22h1369v-22h-248v-827q0 -155 45.5 -219.5t157.5 -64.5q42 0 78 11v-21q-39 -12 -80 -12z" />
    <glyph glyph-name="uni058F" unicode="&#x58f;" horiz-adv-x="1316" 
d="M401 600v23h647v268h-647v23h647v130q0 274 -114.5 419.5t-332.5 145.5q-208 0 -339 -128t-165 -349h-25q37 235 174.5 368.5t354.5 133.5q227 0 349.5 -153t122.5 -436v-131h162v-23h-162v-268h162v-23h-162v-600h-25v600h-647z" />
    <glyph glyph-name="uni0E3F" unicode="&#xe3f;" horiz-adv-x="1306" 
d="M155 0v1597h441v141h25v-141h61q209 0 322 -99.5t113 -291.5q0 -316 -296 -376q165 -25 253.5 -130.5t88.5 -279.5q0 -208 -119.5 -314t-346.5 -106h-76v-141h-25v141h-441zM180 840h416v734h-416v-734zM681 1574h-60v-734h71q194 0 296.5 92t102.5 274q0 368 -410 368z
M180 23h416v794h-416v-794zM714 817h-93v-794h75q441 0 441 397q0 196 -109.5 296.5t-313.5 100.5z" />
    <glyph glyph-name="a.sups" unicode="&#x1d43;" horiz-adv-x="980" 
d="M427 649q-151 0 -244 78.5t-93 203.5t84 184t248 72q129 10 240.5 23.5t157.5 30.5v3q0 160 -75.5 260t-251.5 100q-132 0 -229.5 -68t-121.5 -192h-25q24 133 129 208t247 75q185 0 268.5 -106.5t83.5 -273.5v-568h-15q-3 68 -5 118t-4 81q-2 26 -16 26q-11 0 -17 -19
q-32 -98 -93 -149t-132.5 -69t-135.5 -18zM114 931q0 -115 87 -187t226 -72q64 0 133 19t128 72t91 154q15 47 28 118t13 145v38q-55 -19 -153 -29.5t-245 -23.5q-160 -14 -234 -69t-74 -165z" />
    <glyph glyph-name="t.sups" unicode="&#x1d57;" horiz-adv-x="637" 
d="M432 672q-93 0 -140 36t-63.5 103t-16.5 158v606h-198v22h156q23 0 31.5 12t10.5 44q2 25 4 69t3.5 88.5t1.5 68.5h15v-282h291v-22h-291v-605q0 -78 12 -140.5t54 -99t131 -36.5q33 0 56.5 4.5t45.5 10.5v-22q-22 -6 -47.5 -10.5t-55.5 -4.5z" />
    <glyph glyph-name="uni1DC4" unicode="&#x1dc4;" 
d="M331 1601l-158 -226h-421v23h405l154 203h20z" />
    <glyph glyph-name="uni1DC5" unicode="&#x1dc5;" 
d="M-331 1601l158 -226h421v23h-405l-154 203h-20z" />
    <glyph glyph-name="uni1DC6" unicode="&#x1dc6;" 
d="M331 1300l-158 226h-421v-23h405l154 -203h20z" />
    <glyph glyph-name="uni1DC7" unicode="&#x1dc7;" 
d="M-331 1300l158 226h421v-23h-405l-154 -203h-20z" />
    <glyph glyph-name="uni1E00" unicode="&#x1e00;" horiz-adv-x="1345" 
d="M19 0l641 1597h25l641 -1597h-29l-210 524h-829l-210 -524h-29zM267 549h811l-405 1013zM675 -481q-83 0 -137.5 54.5t-54.5 136.5q0 81 54.5 135.5t137.5 54.5t137.5 -54.5t54.5 -135.5q0 -82 -54.5 -136.5t-137.5 -54.5zM675 -458q71 0 118 48.5t47 119.5t-47 119
t-118 48q-72 0 -118.5 -48t-46.5 -119t47 -119.5t118 -48.5z" />
    <glyph glyph-name="uni1E01" unicode="&#x1e01;" horiz-adv-x="1170" 
d="M501 -37q-125 0 -219.5 44.5t-147.5 124t-53 183.5q0 155 104.5 228.5t308.5 89.5q182 14 315 31t189 38v3q0 135 -41.5 238t-132.5 160.5t-240 57.5q-169 0 -292 -87.5t-152 -242.5h-25q20 111 86 190t165.5 121t217.5 42q155 0 251.5 -61t141.5 -168t45 -246v-709h-15
q-3 86 -5 154t-5 100q-3 33 -20 33q-13 0 -21 -23q-44 -126 -121.5 -190.5t-166 -87.5t-167.5 -23zM105 315q0 -97 50 -171t139 -116t207 -42q81 0 169 24.5t162.5 92t113.5 196.5q18 59 35 146.5t17 181.5v52q-59 -22 -189.5 -37.5t-314.5 -31.5q-202 -18 -295.5 -86.5
t-93.5 -208.5zM610 -585q-83 0 -137 54.5t-54 135.5t54 135.5t137 54.5t137 -54.5t54 -135.5t-54 -135.5t-137 -54.5zM610 -563q72 0 119 48.5t47 119.5t-47 119.5t-119 48.5t-119 -48.5t-47 -119.5t47 -119.5t119 -48.5z" />
    <glyph glyph-name="uni1E04" unicode="&#x1e04;" horiz-adv-x="1329" 
d="M196 0v1597h541q214 0 328.5 -99.5t114.5 -291.5q0 -316 -302 -376q168 -25 258.5 -130t90.5 -280q0 -208 -121.5 -314t-353.5 -106h-556zM223 840h523q198 0 302.5 92t104.5 274q0 367 -418 367h-512v-733zM223 24h527q450 0 450 396q0 196 -111.5 296t-320.5 100h-545
v-792zM672 -316q-25 0 -42.5 16t-17.5 41t17.5 41t42.5 16q26 0 43 -16t17 -41t-17 -41t-43 -16z" />
    <glyph glyph-name="uni1E05" unicode="&#x1e05;" horiz-adv-x="1411" 
d="M741 -37q-157 0 -282.5 69.5t-205.5 199.5q-14 23 -21.5 29.5t-16.5 6.5q-10 0 -16 -9.5t-9 -38.5t-5.5 -72t-3.5 -83.5t-1 -64.5h-15v1659h24v-731q0 -32 6.5 -42t17.5 -10q8 0 16.5 6t22.5 30q83 139 211.5 205.5t279.5 66.5q172 0 304.5 -80.5t208.5 -218.5t76 -312
q0 -173 -76 -311t-209 -218.5t-306 -80.5zM739 -14q167 0 295.5 77.5t201 210.5t72.5 299q0 167 -72.5 300t-200.5 210.5t-294 77.5q-164 0 -288.5 -75.5t-194 -209t-69.5 -309.5q0 -169 70.5 -300t194.5 -206t285 -75zM758 -377q-29 0 -45 17.5t-16 39.5t16 39.5t45 17.5
t45 -17.5t16 -39.5t-16 -39.5t-45 -17.5z" />
    <glyph glyph-name="uni1E06" unicode="&#x1e06;" horiz-adv-x="1329" 
d="M196 0v1597h541q214 0 328.5 -99.5t114.5 -291.5q0 -316 -302 -376q168 -25 258.5 -130t90.5 -280q0 -208 -121.5 -314t-353.5 -106h-556zM223 840h523q198 0 302.5 92t104.5 274q0 367 -418 367h-512v-733zM223 24h527q450 0 450 396q0 196 -111.5 296t-320.5 100h-545
v-792zM382 -236v23h580v-23h-580z" />
    <glyph glyph-name="uni1E07" unicode="&#x1e07;" horiz-adv-x="1411" 
d="M741 -37q-157 0 -282.5 69.5t-205.5 199.5q-14 23 -21.5 29.5t-16.5 6.5q-10 0 -16 -9.5t-9 -38.5t-5.5 -72t-3.5 -83.5t-1 -64.5h-15v1659h24v-731q0 -32 6.5 -42t17.5 -10q8 0 16.5 6t22.5 30q83 139 211.5 205.5t279.5 66.5q172 0 304.5 -80.5t208.5 -218.5t76 -312
q0 -173 -76 -311t-209 -218.5t-306 -80.5zM739 -14q167 0 295.5 77.5t201 210.5t72.5 299q0 167 -72.5 300t-200.5 210.5t-294 77.5q-164 0 -288.5 -75.5t-194 -209t-69.5 -309.5q0 -169 70.5 -300t194.5 -206t285 -75zM468 -331v23h580v-23h-580z" />
    <glyph glyph-name="uni1E0C" unicode="&#x1e0c;" horiz-adv-x="1609" 
d="M196 0v1597h506q254 0 436 -100t279.5 -279.5t97.5 -418.5t-97.5 -419t-279.5 -280t-436 -100h-506zM223 24h477q246 0 422 96.5t270 271t94 407.5t-94 407t-270 270.5t-422 96.5h-477v-1549zM743 -316q-25 0 -42.5 16t-17.5 41t17.5 41t42.5 16q26 0 43 -16t17 -41
t-17 -41t-43 -16z" />
    <glyph glyph-name="uni1E0D" unicode="&#x1e0d;" horiz-adv-x="1411" 
d="M670 -37q-172 0 -305.5 80.5t-209.5 218.5t-76 311q0 174 76 312t208.5 218.5t304.5 80.5q151 0 280 -66.5t211 -205.5q14 -24 22.5 -30t16.5 -6q11 0 17.5 10t6.5 42v731h24v-1659h-15q0 24 -1 64.5t-3.5 83.5t-5.5 72t-8.5 38.5t-16.5 9.5q-9 0 -16.5 -6.5t-21.5 -29.5
q-79 -130 -205 -199.5t-283 -69.5zM672 -14q161 0 285 75t194.5 206t70.5 300q0 176 -69.5 309.5t-194 209t-288.5 75.5q-166 0 -294 -77.5t-200.5 -210.5t-72.5 -300q0 -166 72.5 -299t201 -210.5t295.5 -77.5zM698 -377q-29 0 -45 17.5t-16 39.5t16 39.5t45 17.5t45 -17.5
t16 -39.5t-16 -39.5t-45 -17.5z" />
    <glyph glyph-name="uni1E0E" unicode="&#x1e0e;" horiz-adv-x="1609" 
d="M196 0v1597h506q254 0 436 -100t279.5 -279.5t97.5 -418.5t-97.5 -419t-279.5 -280t-436 -100h-506zM223 24h477q246 0 422 96.5t270 271t94 407.5t-94 407t-270 270.5t-422 96.5h-477v-1549zM453 -236v23h580v-23h-580z" />
    <glyph glyph-name="uni1E0F" unicode="&#x1e0f;" horiz-adv-x="1411" 
d="M670 -37q-172 0 -305.5 80.5t-209.5 218.5t-76 311q0 174 76 312t208.5 218.5t304.5 80.5q151 0 280 -66.5t211 -205.5q14 -24 22.5 -30t16.5 -6q11 0 17.5 10t6.5 42v731h24v-1659h-15q0 24 -1 64.5t-3.5 83.5t-5.5 72t-8.5 38.5t-16.5 9.5q-9 0 -16.5 -6.5t-21.5 -29.5
q-79 -130 -205 -199.5t-283 -69.5zM672 -14q161 0 285 75t194.5 206t70.5 300q0 176 -69.5 309.5t-194 209t-288.5 75.5q-166 0 -294 -77.5t-200.5 -210.5t-72.5 -300q0 -166 72.5 -299t201 -210.5t295.5 -77.5zM408 -331v23h580v-23h-580z" />
    <glyph glyph-name="uni1E10" unicode="&#x1e10;" horiz-adv-x="1609" 
d="M196 0v1597h506q254 0 436 -100t279.5 -279.5t97.5 -418.5t-97.5 -419t-279.5 -280t-436 -100h-506zM223 24h477q246 0 422 96.5t270 271t94 407.5t-94 407t-270 270.5t-422 96.5h-477v-1549zM626 -521l103 398h31l-118 -398h-16z" />
    <glyph glyph-name="uni1E11" unicode="&#x1e11;" horiz-adv-x="1411" 
d="M670 -37q-172 0 -305.5 80.5t-209.5 218.5t-76 311q0 174 76 312t208.5 218.5t304.5 80.5q151 0 280 -66.5t211 -205.5q14 -24 22.5 -30t16.5 -6q11 0 17.5 10t6.5 42v731h24v-1659h-15q0 24 -1 64.5t-3.5 83.5t-5.5 72t-8.5 38.5t-16.5 9.5q-9 0 -16.5 -6.5t-21.5 -29.5
q-79 -130 -205 -199.5t-283 -69.5zM672 -14q161 0 285 75t194.5 206t70.5 300q0 176 -69.5 309.5t-194 209t-288.5 75.5q-166 0 -294 -77.5t-200.5 -210.5t-72.5 -300q0 -166 72.5 -299t201 -210.5t295.5 -77.5zM569 -591l115 438h31l-130 -438h-16z" />
    <glyph glyph-name="uni1E12" unicode="&#x1e12;" horiz-adv-x="1609" 
d="M196 0v1597h506q254 0 436 -100t279.5 -279.5t97.5 -418.5t-97.5 -419t-279.5 -280t-436 -100h-506zM223 24h477q246 0 422 96.5t270 271t94 407.5t-94 407t-270 270.5t-422 96.5h-477v-1549zM449 -475l293 352h2l293 -352h-23l-253 289q-9 10 -17 10t-17 -10l-255 -289
h-23z" />
    <glyph glyph-name="uni1E13" unicode="&#x1e13;" horiz-adv-x="1411" 
d="M670 -37q-172 0 -305.5 80.5t-209.5 218.5t-76 311q0 174 76 312t208.5 218.5t304.5 80.5q151 0 280 -66.5t211 -205.5q14 -24 22.5 -30t16.5 -6q11 0 17.5 10t6.5 42v731h24v-1659h-15q0 24 -1 64.5t-3.5 83.5t-5.5 72t-8.5 38.5t-16.5 9.5q-9 0 -16.5 -6.5t-21.5 -29.5
q-79 -130 -205 -199.5t-283 -69.5zM672 -14q161 0 285 75t194.5 206t70.5 300q0 176 -69.5 309.5t-194 209t-288.5 75.5q-166 0 -294 -77.5t-200.5 -210.5t-72.5 -300q0 -166 72.5 -299t201 -210.5t295.5 -77.5zM393 -597l304 420h2l304 -420h-21l-270 354q-9 12 -14 12
t-14 -12l-270 -354h-21z" />
    <glyph glyph-name="uni1E1A" unicode="&#x1e1a;" horiz-adv-x="1186" 
d="M196 0v1597h918v-24h-891v-750h779v-24h-779v-774h932v-25h-959zM868 -380q-54 0 -94 30t-74 69t-71 69t-85 30q-124 0 -153 -163h-18q14 89 58.5 138t112.5 49q54 0 94 -30t74 -69t71 -69t85 -30q124 0 153 163h18q-14 -89 -58.5 -138t-112.5 -49z" />
    <glyph glyph-name="uni1E1B" unicode="&#x1e1b;" horiz-adv-x="1284" 
d="M666 -37q-175 0 -307 76t-205.5 213.5t-73.5 320.5q0 182 75 319.5t205.5 214.5t296.5 77q168 0 292 -72.5t192 -203t68 -304.5v-15h-1105v-14v-4q0 -176 70.5 -307.5t197.5 -204.5t294 -73q200 0 332.5 99t169.5 265h25q-37 -178 -178 -282.5t-349 -104.5zM657 1161
q-154 0 -276 -69t-195 -192.5t-81 -288.5h1080q-2 167 -66.5 290.5t-182.5 191.5t-279 68zM839 -426q-54 0 -94 30t-74 69t-71 69t-85 30q-124 0 -153 -163h-18q14 89 58.5 138t112.5 49q54 0 94 -30t74 -69t71 -69t85 -30q124 0 153 163h18q-14 -89 -58.5 -138t-112.5 -49z
" />
    <glyph glyph-name="uni1E20" unicode="&#x1e20;" horiz-adv-x="1782" 
d="M910 -37q-179 0 -328.5 61t-259.5 172.5t-170.5 264t-60.5 336.5t60 337.5t170 265.5t261 173.5t334 61.5q288 0 484 -141t262 -386h-29q-63 233 -250.5 367.5t-466.5 134.5q-177 0 -323 -59.5t-252 -168t-163.5 -257.5t-57.5 -328t58 -327.5t164.5 -256.5t251 -166.5
t316.5 -58.5q273 0 453 147t244 402q14 55 23 114.5t13 122.5h21v-774h-16q0 74 -2 147.5t-4.5 130t-4.5 76.5q-3 31 -8.5 41.5t-17.5 10.5q-11 0 -17.5 -7t-17.5 -28q-95 -189 -255.5 -298.5t-410.5 -109.5zM626 1810v23h580v-23h-580z" />
    <glyph glyph-name="uni1E21" unicode="&#x1e21;" horiz-adv-x="1366" 
d="M673 -514q-142 0 -257.5 50t-192.5 140.5t-105 210.5h26q26 -109 97 -194.5t181 -134.5t251 -49q183 0 294 69.5t161.5 192t50.5 282.5v207q0 44 -23 44q-18 0 -41 -38q-73 -122 -194.5 -188t-273.5 -66q-164 0 -292 77t-200.5 210t-72.5 299q0 167 73 299.5t200.5 209.5
t293.5 77q151 0 272.5 -66.5t197.5 -191.5q14 -22 21 -29.5t15 -7.5q10 0 16 10t8 38q2 25 4 65.5t3.5 81t1.5 63.5h15v-1094q0 -168 -53 -295.5t-169.5 -199.5t-307.5 -72zM649 35q158 0 277 72.5t186 200.5t67 296q0 162 -67.5 288t-186.5 197.5t-274 71.5
q-160 0 -282.5 -74.5t-192.5 -201.5t-70 -287t69.5 -287.5t192.5 -201.5t281 -74zM391 1420v23h580v-23h-580z" />
    <glyph glyph-name="uni1E22" unicode="&#x1e22;" horiz-adv-x="1503" 
d="M196 0v1597h27v-776h1057v776h27v-1597h-27v797h-1057v-797h-27zM753 1799q-25 0 -42.5 16t-17.5 41t17.5 41t42.5 16q26 0 43 -16t17 -41t-17 -41t-43 -16z" />
    <glyph glyph-name="uni1E23" unicode="&#x1e23;" horiz-adv-x="1285" 
d="M165 0v1659h24v-795q0 -29 5 -40t15 -11q8 0 14.5 6.5t18.5 38.5q56 145 169 235.5t300 90.5q194 0 310 -129.5t116 -352.5v-702h-24v702q0 212 -109.5 335.5t-292.5 123.5q-152 0 -267 -72t-181 -239q-34 -85 -54 -186.5t-20 -251.5v-412h-24zM178 1861q-25 0 -42.5 16
t-17.5 41t17.5 41t42.5 16q26 0 43 -16t17 -41t-17 -41t-43 -16z" />
    <glyph glyph-name="uni1E24" unicode="&#x1e24;" horiz-adv-x="1503" 
d="M196 0v1597h27v-776h1057v776h27v-1597h-27v797h-1057v-797h-27zM752 -316q-25 0 -42.5 16t-17.5 41t17.5 41t42.5 16q26 0 43 -16t17 -41t-17 -41t-43 -16z" />
    <glyph glyph-name="uni1E25" unicode="&#x1e25;" horiz-adv-x="1285" 
d="M165 0v1659h24v-795q0 -29 5 -40t15 -11q8 0 14.5 6.5t18.5 38.5q56 145 169 235.5t300 90.5q194 0 310 -129.5t116 -352.5v-702h-24v702q0 212 -109.5 335.5t-292.5 123.5q-152 0 -267 -72t-181 -239q-34 -85 -54 -186.5t-20 -251.5v-412h-24zM664 -377q-29 0 -45 17.5
t-16 39.5t16 39.5t45 17.5t45 -17.5t16 -39.5t-16 -39.5t-45 -17.5z" />
    <glyph glyph-name="uni1E26" unicode="&#x1e26;" horiz-adv-x="1503" 
d="M196 0v1597h27v-776h1057v776h27v-1597h-27v797h-1057v-797h-27zM1010 1799q-25 0 -42.5 16t-17.5 41t17.5 41t42.5 16q26 0 43 -16t17 -41t-17 -41t-43 -16zM494 1799q-25 0 -42.5 16t-17.5 41t17.5 41t42.5 16q26 0 43 -16t17 -41t-17 -41t-43 -16z" />
    <glyph glyph-name="uni1E27" unicode="&#x1e27;" horiz-adv-x="1285" 
d="M165 0v1659h24v-795q0 -29 5 -40t15 -11q8 0 14.5 6.5t18.5 38.5q56 145 169 235.5t300 90.5q194 0 310 -129.5t116 -352.5v-702h-24v702q0 212 -109.5 335.5t-292.5 123.5q-152 0 -267 -72t-181 -239q-34 -85 -54 -186.5t-20 -251.5v-412h-24zM435 1861q-25 0 -42.5 16
t-17.5 41t17.5 41t42.5 16q26 0 43 -16t17 -41t-17 -41t-43 -16zM-81 1861q-25 0 -42.5 16t-17.5 41t17.5 41t42.5 16q26 0 43 -16t17 -41t-17 -41t-43 -16z" />
    <glyph glyph-name="uni1E28" unicode="&#x1e28;" horiz-adv-x="1503" 
d="M196 0v1597h27v-776h1057v776h27v-1597h-27v797h-1057v-797h-27zM262 -508q-118 0 -193.5 72.5t-83.5 199.5h26q10 -115 77.5 -181t174.5 -66q89 0 140.5 52.5t51.5 139.5q0 86 -69.5 165.5t-187.5 125.5l24 10q116 -45 188 -128t72 -173q0 -99 -59.5 -158t-160.5 -59z
" />
    <glyph glyph-name="uni1E29" unicode="&#x1e29;" horiz-adv-x="1285" 
d="M165 0v1659h24v-795q0 -29 5 -40t15 -11q8 0 14.5 6.5t18.5 38.5q56 145 169 235.5t300 90.5q194 0 310 -129.5t116 -352.5v-702h-24v702q0 212 -109.5 335.5t-292.5 123.5q-152 0 -267 -72t-181 -239q-34 -85 -54 -186.5t-20 -251.5v-412h-24zM232 -507
q-116 0 -191 72.5t-83 198.5h25q10 -116 77 -182t173 -66q94 0 147 50.5t53 140.5q0 88 -73 167.5t-195 125.5l21 8q125 -44 198 -128t73 -173q0 -100 -60.5 -157t-164.5 -57z" />
    <glyph glyph-name="uni1E2A" unicode="&#x1e2a;" horiz-adv-x="1503" 
d="M196 0v1597h27v-776h1057v776h27v-1597h-27v797h-1057v-797h-27zM752 -374q-121 0 -205 66.5t-107 184.5h11q31 -106 111 -165.5t190 -59.5t190 59.5t111 165.5h11q-23 -118 -106.5 -184.5t-205.5 -66.5z" />
    <glyph glyph-name="uni1E2B" unicode="&#x1e2b;" horiz-adv-x="1285" 
d="M165 0v1659h24v-795q0 -29 5 -40t15 -11q8 0 14.5 6.5t18.5 38.5q56 145 169 235.5t300 90.5q194 0 310 -129.5t116 -352.5v-702h-24v702q0 212 -109.5 335.5t-292.5 123.5q-152 0 -267 -72t-181 -239q-34 -85 -54 -186.5t-20 -251.5v-412h-24zM664 -430
q-121 0 -204.5 69.5t-106.5 190.5h10q31 -110 110.5 -172.5t190.5 -62.5t190.5 62.5t110.5 172.5h10q-23 -121 -106 -190.5t-205 -69.5z" />
    <glyph glyph-name="uni1E2C" unicode="&#x1e2c;" horiz-adv-x="419" 
d="M196 0v1597h27v-1597h-27zM371 -380q-54 0 -94 30t-74 69t-71 69t-85 30q-124 0 -153 -163h-18q14 89 58.5 138t112.5 49q54 0 94 -30t74 -69t71 -69t85 -30q124 0 153 163h18q-14 -89 -58.5 -138t-112.5 -49z" />
    <glyph glyph-name="uni1E2D" unicode="&#x1e2d;" horiz-adv-x="396" 
d="M211 1431q-26 0 -43.5 16.5t-17.5 41.5t17.5 41.5t43.5 16.5t43.5 -16.5t17.5 -41.5t-17.5 -41.5t-43.5 -16.5zM199 0v1147h24v-1147h-24zM342 -441q-44 0 -76.5 25.5t-60.5 59.5t-57.5 59.5t-67.5 25.5q-46 0 -75.5 -38.5t-39.5 -105.5h-20q9 80 44 124t92 44
q44 0 76.5 -25.5t60.5 -59.5t57.5 -59.5t67.5 -25.5q46 0 75.5 38.5t39.5 105.5h20q-9 -79 -44 -123.5t-92 -44.5z" />
    <glyph glyph-name="uni1E2E" unicode="&#x1e2e;" horiz-adv-x="419" 
d="M196 0v1597h27v-1597h-27zM442 1779q-23 0 -39 15t-16 37q0 23 15.5 38t39.5 15q23 0 39 -15t16 -38q0 -22 -16 -37t-39 -15zM-22 1779q-23 0 -39 15t-16 37q0 23 16 38t39 15t39 -15t16 -38q0 -22 -16 -37t-39 -15zM194 1998l270 322h40l-287 -322h-23z" />
    <glyph glyph-name="uni1E2F" unicode="&#x1e2f;" horiz-adv-x="370" 
d="M173 0v1147h24v-1147h-24zM369 1333q-23 0 -38.5 14t-15.5 36t15.5 36.5t38.5 14.5t38.5 -14.5t15.5 -36.5t-15.5 -36t-38.5 -14zM1 1333q-22 0 -38 14t-16 36t16 36.5t38 14.5q23 0 38.5 -14.5t15.5 -36.5t-15.5 -36t-38.5 -14zM188 1533l209 336h-33l-196 -336h20z" />
    <glyph glyph-name="uni1E32" unicode="&#x1e32;" horiz-adv-x="1199" 
d="M196 0v1597h27v-790l936 790h39l-938 -791l969 -806h-41l-965 803v-803h-27zM682 -316q-25 0 -42.5 16t-17.5 41t17.5 41t42.5 16q26 0 43 -16t17 -41t-17 -41t-43 -16z" />
    <glyph glyph-name="uni1E33" unicode="&#x1e33;" horiz-adv-x="962" 
d="M165 0v1659h24v-1084l745 572h39l-746 -573l748 -574h-41l-745 571v-571h-24zM539 -377q-29 0 -45 17.5t-16 39.5t16 39.5t45 17.5t45 -17.5t16 -39.5t-16 -39.5t-45 -17.5z" />
    <glyph glyph-name="uni1E34" unicode="&#x1e34;" horiz-adv-x="1199" 
d="M196 0v1597h27v-790l936 790h39l-938 -791l969 -806h-41l-965 803v-803h-27zM392 -236v23h580v-23h-580z" />
    <glyph glyph-name="uni1E35" unicode="&#x1e35;" horiz-adv-x="962" 
d="M165 0v1659h24v-1084l745 572h39l-746 -573l748 -574h-41l-745 571v-571h-24zM249 -331v23h580v-23h-580z" />
    <glyph glyph-name="uni1E36" unicode="&#x1e36;" horiz-adv-x="1117" 
d="M196 0v1597h27v-1572h877v-25h-904zM674 -316q-25 0 -42.5 16t-17.5 41t17.5 41t42.5 16q26 0 43 -16t17 -41t-17 -41t-43 -16z" />
    <glyph glyph-name="uni1E37" unicode="&#x1e37;" horiz-adv-x="370" 
d="M173 0v1659h24v-1659h-24zM185 -377q-29 0 -45 17.5t-16 39.5t16 39.5t45 17.5t45 -17.5t16 -39.5t-16 -39.5t-45 -17.5z" />
    <glyph glyph-name="uni1E3A" unicode="&#x1e3a;" horiz-adv-x="1117" 
d="M196 0v1597h27v-1572h877v-25h-904zM384 -236v23h580v-23h-580z" />
    <glyph glyph-name="uni1E3B" unicode="&#x1e3b;" horiz-adv-x="370" 
d="M173 0v1659h24v-1659h-24zM15 -331v23h340v-23h-340z" />
    <glyph glyph-name="uni1E3C" unicode="&#x1e3c;" horiz-adv-x="1117" 
d="M196 0v1597h27v-1572h877v-25h-904zM380 -475l293 352h2l293 -352h-23l-253 289q-9 10 -17 10t-17 -10l-255 -289h-23z" />
    <glyph glyph-name="uni1E3D" unicode="&#x1e3d;" horiz-adv-x="370" 
d="M173 0v1659h24v-1659h-24zM-141 -468l293 352h2l293 -352h-23l-253 289q-9 10 -17 10t-17 -10l-255 -289h-23z" />
    <glyph glyph-name="uni1E3E" unicode="&#x1e3e;" horiz-adv-x="1891" 
d="M196 0v1597h31l719 -1557l718 1557h31v-1597h-27v1545l-713 -1545h-19l-713 1545v-1545h-27zM959 1713l403 342h-50l-381 -342h28z" />
    <glyph glyph-name="uni1E3F" unicode="&#x1e3f;" horiz-adv-x="2111" 
d="M165 0v1147h15q0 -92 3 -166t4 -109q3 -59 22 -59q8 0 14.5 6.5t18.5 38.5q56 145 160.5 235.5t276.5 90.5q109 0 186 -43.5t124.5 -113.5t64.5 -148q9 -40 15.5 -53t16.5 -13q7 0 13 7t16 39q47 143 157 234t294 91q182 0 289.5 -129.5t107.5 -352.5v-702h-24v702
q0 212 -101.5 335.5t-271.5 123.5q-145 0 -257 -70t-173 -240q-30 -84 -45 -182t-15 -227v-442h-24v702q0 212 -101 335.5t-272 123.5q-136 0 -243.5 -71t-172.5 -240q-32 -85 -53 -186.5t-21 -251.5v-412h-24zM1086 1300l285 420h-37l-269 -420h21z" />
    <glyph glyph-name="uni1E40" unicode="&#x1e40;" horiz-adv-x="1891" 
d="M196 0v1597h31l719 -1557l718 1557h31v-1597h-27v1545l-713 -1545h-19l-713 1545v-1545h-27zM947 1799q-25 0 -42.5 16t-17.5 41t17.5 41t42.5 16q26 0 43 -16t17 -41t-17 -41t-43 -16z" />
    <glyph glyph-name="uni1E41" unicode="&#x1e41;" horiz-adv-x="2111" 
d="M165 0v1147h15q0 -92 3 -166t4 -109q3 -59 22 -59q8 0 14.5 6.5t18.5 38.5q56 145 160.5 235.5t276.5 90.5q109 0 186 -43.5t124.5 -113.5t64.5 -148q9 -40 15.5 -53t16.5 -13q7 0 13 7t16 39q47 143 157 234t294 91q182 0 289.5 -129.5t107.5 -352.5v-702h-24v702
q0 212 -101.5 335.5t-271.5 123.5q-145 0 -257 -70t-173 -240q-30 -84 -45 -182t-15 -227v-442h-24v702q0 212 -101 335.5t-272 123.5q-136 0 -243.5 -71t-172.5 -240q-32 -85 -53 -186.5t-21 -251.5v-412h-24zM1081 1388q-29 0 -45 17.5t-16 39.5t16 39.5t45 17.5t45 -17.5
t16 -39.5t-16 -39.5t-45 -17.5z" />
    <glyph glyph-name="uni1E42" unicode="&#x1e42;" horiz-adv-x="1891" 
d="M196 0v1597h31l719 -1557l718 1557h31v-1597h-27v1545l-713 -1545h-19l-713 1545v-1545h-27zM946 -316q-25 0 -42.5 16t-17.5 41t17.5 41t42.5 16q26 0 43 -16t17 -41t-17 -41t-43 -16z" />
    <glyph glyph-name="uni1E43" unicode="&#x1e43;" horiz-adv-x="2111" 
d="M165 0v1147h15q0 -92 3 -166t4 -109q3 -59 22 -59q8 0 14.5 6.5t18.5 38.5q56 145 160.5 235.5t276.5 90.5q109 0 186 -43.5t124.5 -113.5t64.5 -148q9 -40 15.5 -53t16.5 -13q7 0 13 7t16 39q47 143 157 234t294 91q182 0 289.5 -129.5t107.5 -352.5v-702h-24v702
q0 212 -101.5 335.5t-271.5 123.5q-145 0 -257 -70t-173 -240q-30 -84 -45 -182t-15 -227v-442h-24v702q0 212 -101 335.5t-272 123.5q-136 0 -243.5 -71t-172.5 -240q-32 -85 -53 -186.5t-21 -251.5v-412h-24zM1064 -377q-29 0 -45 17.5t-16 39.5t16 39.5t45 17.5t45 -17.5
t16 -39.5t-16 -39.5t-45 -17.5z" />
    <glyph glyph-name="uni1E44" unicode="&#x1e44;" horiz-adv-x="1548" 
d="M196 0v1597h27l1102 -1552v1552h27v-1597h-27l-1102 1554v-1554h-27zM776 1799q-25 0 -42.5 16t-17.5 41t17.5 41t42.5 16q26 0 43 -16t17 -41t-17 -41t-43 -16z" />
    <glyph glyph-name="uni1E45" unicode="&#x1e45;" horiz-adv-x="1285" 
d="M165 0v1147h15q0 -92 3 -166t4 -109q3 -59 22 -59q8 0 14.5 6.5t18.5 38.5q56 145 168.5 235.5t299.5 90.5q194 0 310.5 -129.5t116.5 -352.5v-702h-24v702q0 212 -109.5 335.5t-293.5 123.5q-151 0 -266 -72t-181 -239q-34 -85 -54 -186.5t-20 -251.5v-412h-24z
M651 1388q-29 0 -45 17.5t-16 39.5t16 39.5t45 17.5t45 -17.5t16 -39.5t-16 -39.5t-45 -17.5z" />
    <glyph glyph-name="uni1E46" unicode="&#x1e46;" horiz-adv-x="1548" 
d="M196 0v1597h27l1102 -1552v1552h27v-1597h-27l-1102 1554v-1554h-27zM775 -316q-25 0 -42.5 16t-17.5 41t17.5 41t42.5 16q26 0 43 -16t17 -41t-17 -41t-43 -16z" />
    <glyph glyph-name="uni1E47" unicode="&#x1e47;" horiz-adv-x="1285" 
d="M165 0v1147h15q0 -92 3 -166t4 -109q3 -59 22 -59q8 0 14.5 6.5t18.5 38.5q56 145 168.5 235.5t299.5 90.5q194 0 310.5 -129.5t116.5 -352.5v-702h-24v702q0 212 -109.5 335.5t-293.5 123.5q-151 0 -266 -72t-181 -239q-34 -85 -54 -186.5t-20 -251.5v-412h-24z
M669 -377q-29 0 -45 17.5t-16 39.5t16 39.5t45 17.5t45 -17.5t16 -39.5t-16 -39.5t-45 -17.5z" />
    <glyph glyph-name="uni1E48" unicode="&#x1e48;" horiz-adv-x="1548" 
d="M196 0v1597h27l1102 -1552v1552h27v-1597h-27l-1102 1554v-1554h-27zM485 -236v23h580v-23h-580z" />
    <glyph glyph-name="uni1E49" unicode="&#x1e49;" horiz-adv-x="1285" 
d="M165 0v1147h15q0 -92 3 -166t4 -109q3 -59 22 -59q8 0 14.5 6.5t18.5 38.5q56 145 168.5 235.5t299.5 90.5q194 0 310.5 -129.5t116.5 -352.5v-702h-24v702q0 212 -109.5 335.5t-293.5 123.5q-151 0 -266 -72t-181 -239q-34 -85 -54 -186.5t-20 -251.5v-412h-24z
M379 -331v23h580v-23h-580z" />
    <glyph glyph-name="uni1E4A" unicode="&#x1e4a;" horiz-adv-x="1548" 
d="M196 0v1597h27l1102 -1552v1552h27v-1597h-27l-1102 1554v-1554h-27zM481 -475l293 352h2l293 -352h-23l-253 289q-9 10 -17 10t-17 -10l-255 -289h-23z" />
    <glyph glyph-name="uni1E4B" unicode="&#x1e4b;" horiz-adv-x="1285" 
d="M165 0v1147h15q0 -92 3 -166t4 -109q3 -59 22 -59q8 0 14.5 6.5t18.5 38.5q56 145 168.5 235.5t299.5 90.5q194 0 310.5 -129.5t116.5 -352.5v-702h-24v702q0 212 -109.5 335.5t-293.5 123.5q-151 0 -266 -72t-181 -239q-34 -85 -54 -186.5t-20 -251.5v-412h-24z
M364 -597l304 420h2l304 -420h-21l-270 354q-9 12 -14 12t-14 -12l-270 -354h-21z" />
    <glyph glyph-name="uni1E4C" unicode="&#x1e4c;" horiz-adv-x="1830" 
d="M915 -37q-178 0 -328.5 61.5t-262 174t-173 265.5t-61.5 335t61.5 335t173 265.5t262 174t328.5 61.5t328.5 -61.5t262 -174t173 -265.5t61.5 -335t-61.5 -335t-173 -265.5t-262 -174t-328.5 -61.5zM915 -12q172 0 317 60t252.5 168.5t167 257t59.5 325.5t-59.5 325.5
t-167 257t-252.5 168.5t-317 60t-317 -60t-252.5 -168.5t-167 -257t-59.5 -325.5t59.5 -325.5t167 -257t252.5 -168.5t317 -60zM1061 1752q-49 0 -85 26.5t-67 62t-64 62t-76 26.5q-52 0 -88 -37.5t-49 -108.5h-18q13 81 53.5 125t101.5 44q49 0 85 -26.5t67 -62t64 -62
t76 -26.5q52 0 88 37.5t49 108.5h18q-13 -83 -54 -126t-101 -43zM900 2049l270 322h40l-287 -322h-23z" />
    <glyph glyph-name="uni1E4D" unicode="&#x1e4d;" horiz-adv-x="1354" 
d="M677 -37q-173 0 -308.5 79.5t-213 217.5t-77.5 313q0 176 77.5 314t213 217.5t308.5 79.5t308.5 -79.5t213 -217.5t77.5 -314q0 -175 -77.5 -313t-213 -217.5t-308.5 -79.5zM677 -14q167 0 297 76.5t204 209.5t74 301q0 169 -74 302t-204 209.5t-297 76.5t-297 -76.5
t-204 -209.5t-74 -302q0 -168 74 -301t204 -209.5t297 -76.5zM814 1341q-46 0 -79.5 21.5t-63 50t-60.5 50t-71 21.5q-99 0 -125 -126h-14q27 149 139 149q45 0 79 -21.5t63.5 -50t60.5 -50.5t71 -22q46 0 79 32.5t46 94.5h14q-27 -149 -139 -149zM680 1580l209 336h-33
l-196 -336h20z" />
    </font>
</defs>
</svg>
