<?xml version="1.0" standalone="no"?>
<!DOCTYPE svg PUBLIC "-//W3C//DTD SVG 1.1//EN" "http://www.w3.org/Graphics/SVG/1.1/DTD/svg11.dtd" >
<svg xmlns="http://www.w3.org/2000/svg" xmlns:xlink="http://www.w3.org/1999/xlink" version="1.1">
<metadata>
Created by FontForge 20170731 at Mon Feb 18 22:39:04 2019
 By Aleksey,,,
Copyright (c) 2018 Kilotype GmbH. All rights reserved.
</metadata>
<defs>
<font id="OldschoolGrotesk-Medium" horiz-adv-x="0" >
  <font-face 
    font-family="Oldschool Grotesk Medium"
    font-weight="500"
    font-stretch="normal"
    units-per-em="2048"
    panose-1="2 11 6 4 3 2 4 2 8 4"
    ascent="1638"
    descent="-410"
    x-height="1175"
    cap-height="1597"
    bbox="-695 -631 2976 2494"
    underline-thickness="50"
    underline-position="-175"
    unicode-range="U+000D-1F310"
  />
<missing-glyph horiz-adv-x="748" 
d="M68 0v1365h544v-1365h-544zM136 68h408v1229h-408v-1229z" />
    <glyph glyph-name="f_f" unicode="ff" horiz-adv-x="1621" 
d="M256 0v928h-223v247h223v103q0 213 105.5 316t314.5 103q45 0 93 -7t84 -21v-227q-54 16 -110 16q-189 0 -189 -192v-91h444v103q0 213 105.5 316t314.5 103q53 0 109.5 -8.5t96.5 -24.5v-228q-61 22 -137 22q-99 0 -145 -49.5t-46 -142.5v-91h308v-247h-308v-928h-298
v928h-444v-928h-298z" />
    <glyph glyph-name="f_i" unicode="fi" horiz-adv-x="1443" 
d="M256 0v928h-223v247h223v103q0 213 105.5 316t314.5 103q43 0 89 -6.5t79 -18.5v-228q-50 14 -101 14q-189 0 -189 -192v-91h308v-247h-308v-928h-298zM1152 1346q-81 0 -133 49.5t-52 124.5q0 74 52 123.5t133 49.5t133.5 -49.5t52.5 -123.5q0 -75 -52.5 -124.5
t-133.5 -49.5zM1001 0v1175h303v-1175h-303z" />
    <glyph glyph-name="f_l" unicode="fl" horiz-adv-x="1440" 
d="M256 0v928h-223v247h223v103q0 213 105.5 316t314.5 103q43 0 89 -6.5t79 -18.5v-228q-50 14 -101 14q-189 0 -189 -192v-91h308v-247h-308v-928h-298zM998 0v1659h303v-1659h-303z" />
    <glyph glyph-name="f_f_i" unicode="ffi" horiz-adv-x="2185" 
d="M256 0v928h-223v247h223v103q0 213 105.5 316t314.5 103q45 0 93 -7t84 -21v-227q-54 16 -110 16q-189 0 -189 -192v-91h444v103q0 213 105.5 316t314.5 103q43 0 88.5 -6.5t79.5 -18.5v-228q-50 14 -101 14q-189 0 -189 -192v-91h308v-247h-308v-928h-298v928h-444v-928
h-298zM1894 1346q-81 0 -133 49.5t-52 124.5q0 74 52 123.5t133 49.5t133 -49.5t52 -123.5q0 -75 -52 -124.5t-133 -49.5zM1743 0v1175h303v-1175h-303z" />
    <glyph glyph-name="f_f_l" unicode="ffl" horiz-adv-x="2182" 
d="M256 0v928h-223v247h223v103q0 213 105.5 316t314.5 103q45 0 93 -7t84 -21v-227q-54 16 -110 16q-189 0 -189 -192v-91h444v103q0 213 105.5 316t314.5 103q43 0 88.5 -6.5t79.5 -18.5v-228q-50 14 -101 14q-189 0 -189 -192v-91h308v-247h-308v-928h-298v928h-444v-928
h-298zM1740 0v1659h303v-1659h-303z" />
    <glyph glyph-name=".notdef" horiz-adv-x="748" 
d="M68 0v1365h544v-1365h-544zM136 68h408v1229h-408v-1229z" />
    <glyph glyph-name=".null" 
 />
    <glyph glyph-name="nonmarkingreturn" horiz-adv-x="682" 
 />
    <glyph glyph-name="NULL" 
 />
    <glyph glyph-name="CR" unicode="&#xd;" horiz-adv-x="468" 
 />
    <glyph glyph-name="space" unicode=" " horiz-adv-x="468" 
 />
    <glyph glyph-name="exclam" unicode="!" horiz-adv-x="613" 
d="M183 520l-36 1077h319l-36 -1077h-247zM306 -23q-86 0 -142 53.5t-56 134.5t56 134t142 53q87 0 143 -53t56 -134t-56 -134.5t-143 -53.5z" />
    <glyph glyph-name="quotedbl" unicode="&#x22;" horiz-adv-x="875" 
d="M108 1060l-31 537h298l-31 -537h-236zM487 1060l-31 537h298l-31 -537h-236z" />
    <glyph glyph-name="numbersign" unicode="#" horiz-adv-x="1620" 
d="M230 0l90 423h-258v188h298l81 375h-273v189h313l90 422h232l-90 -422h354l90 422h232l-90 -422h258v-189h-298l-81 -375h274v-188h-314l-90 -423h-232l90 423h-354l-90 -423h-232zM592 611h354l81 375h-354z" />
    <glyph glyph-name="dollar" unicode="$" horiz-adv-x="1279" 
d="M515 -141v153q-201 35 -324.5 163.5t-140.5 314.5h316q17 -121 93.5 -190t203.5 -69q110 0 174 52t64 145q0 92 -67 146.5t-231 97.5q-270 71 -389 186t-119 308q0 171 113.5 283t306.5 140v149h259v-152q185 -31 292.5 -145t131.5 -292h-307q-14 104 -75.5 165
t-175.5 61q-109 0 -170.5 -51.5t-61.5 -131.5q0 -85 59 -136.5t213 -95.5q195 -55 312.5 -124t170 -160.5t52.5 -214.5q0 -184 -119 -304.5t-322 -148.5v-149h-259z" />
    <glyph glyph-name="percent" unicode="%" horiz-adv-x="2030" 
d="M475 762q-123 0 -216.5 54.5t-146 153t-52.5 229.5q0 132 52.5 230.5t146 153t216.5 54.5t216.5 -54.5t146 -153t52.5 -230.5q0 -131 -52.5 -229.5t-146 -153t-216.5 -54.5zM310 0l1152 1597h257l-1152 -1597h-257zM475 960q84 0 129.5 60.5t45.5 178.5
q0 119 -45.5 179.5t-129.5 60.5q-83 0 -128.5 -60.5t-45.5 -179.5q0 -118 45.5 -178.5t128.5 -60.5zM1555 -38q-123 0 -216.5 54.5t-146 153t-52.5 229.5t52.5 229.5t146 153.5t216.5 55t216.5 -55t146 -153.5t52.5 -229.5t-52.5 -229.5t-146 -153t-216.5 -54.5zM1555 160
q83 0 128.5 60.5t45.5 178.5q0 119 -45.5 179.5t-128.5 60.5q-84 0 -129.5 -60.5t-45.5 -179.5q0 -118 45.5 -178.5t129.5 -60.5z" />
    <glyph glyph-name="ampersand" unicode="&#x26;" horiz-adv-x="1672" 
d="M641 -41q-178 0 -304.5 60t-194 162.5t-67.5 228.5q0 172 95.5 280t285.5 179q-101 105 -145 191.5t-44 189.5q0 109 58 196.5t165 139t255 51.5q225 0 350 -108.5t125 -279.5q0 -151 -101 -258t-267 -179l292 -284q40 59 69 144.5t39 167.5h291q-10 -79 -40.5 -169
t-75 -175t-98.5 -148l357 -348h-351l-168 165q-117 -111 -242.5 -158.5t-283.5 -47.5zM693 967l11 -10q240 97 240 275q0 77 -52.5 124.5t-140.5 48.5q-93 1 -146 -49t-53 -131q0 -65 32.5 -123.5t108.5 -134.5zM383 444q0 -109 78.5 -174.5t211.5 -65.5q102 0 181.5 35
t136.5 98l-382 375q-121 -48 -173.5 -114t-52.5 -154z" />
    <glyph glyph-name="quotesingle" unicode="'" horiz-adv-x="496" 
d="M130 1060l-31 537h298l-31 -537h-236z" />
    <glyph glyph-name="parenleft" unicode="(" horiz-adv-x="782" 
d="M554 -409q-132 116 -241 287t-173.5 378.5t-64.5 431.5t64.5 431.5t173.5 379t241 286.5h245q-196 -201 -305.5 -487.5t-109.5 -609.5t109.5 -609.5t305.5 -487.5h-245z" />
    <glyph glyph-name="parenright" unicode=")" horiz-adv-x="782" 
d="M228 -409q132 116 241 287t173.5 378.5t64.5 431.5t-64.5 431.5t-173.5 379t-241 286.5h-245q196 -201 305.5 -487.5t109.5 -609.5t-109.5 -609.5t-305.5 -487.5h245z" />
    <glyph glyph-name="asterisk" unicode="*" horiz-adv-x="883" 
d="M354 866l16 248l-205 -139l-87 147l219 110l-219 109l87 147l205 -139l-16 248h175l-17 -246l206 137l88 -147l-223 -109l223 -110l-88 -147l-206 137l17 -246h-175z" />
    <glyph glyph-name="plus" unicode="+" horiz-adv-x="1406" 
d="M569 203v434h-408v244h408v434h272v-434h404v-244h-404v-434h-272z" />
    <glyph glyph-name="comma" unicode="," horiz-adv-x="547" 
d="M28 -337l114 653h315l-203 -653h-226z" />
    <glyph glyph-name="hyphen" unicode="-" horiz-adv-x="1042" 
d="M120 603v275h802v-275h-802z" />
    <glyph glyph-name="period" unicode="." horiz-adv-x="563" 
d="M281 -23q-86 0 -142 53.5t-56 134.5t56 134t142 53q87 0 143 -53t56 -134t-56 -134.5t-143 -53.5z" />
    <glyph glyph-name="slash" unicode="/" horiz-adv-x="1063" 
d="M46 -297l721 2044h249l-721 -2044h-249z" />
    <glyph glyph-name="zero" unicode="0" horiz-adv-x="1492" 
d="M746 -38q-198 0 -344.5 103t-226.5 291t-80 443q0 256 80 443.5t226.5 290.5t344.5 103t344.5 -103t226.5 -290.5t80 -443.5q0 -255 -80 -443t-226.5 -291t-344.5 -103zM746 229q153 0 238.5 146.5t85.5 423.5t-85.5 423.5t-238.5 146.5t-238.5 -146.5t-85.5 -423.5
t85.5 -423.5t238.5 -146.5z" />
    <glyph glyph-name="one" unicode="1" horiz-adv-x="914" 
d="M424 0v1100q-66 -63 -167.5 -108t-208.5 -59v291q182 32 300 128t161 245h231v-1597h-316z" />
    <glyph glyph-name="two" unicode="2" horiz-adv-x="1310" 
d="M87 0q4 205 54.5 357t170 275.5t329.5 239.5q104 58 162.5 104.5t82 94.5t23.5 110q0 90 -62 146t-166 56q-127 0 -199 -76t-83 -217h-306q24 255 180 401.5t411 145.5q162 0 278.5 -58.5t179.5 -162.5t63 -241q0 -109 -39.5 -197t-129 -168t-239.5 -166
q-172 -99 -246.5 -186.5t-90.5 -201.5h749v-256h-1122z" />
    <glyph glyph-name="three" unicode="3" horiz-adv-x="1341" 
d="M689 -40q-274 0 -438.5 141t-190.5 381h311q17 -130 102 -199t210 -69t197.5 68t72.5 181q0 116 -79.5 178.5t-210.5 62.5h-209v242h195q119 0 184.5 57.5t65.5 164.5q0 98 -60 156.5t-161 58.5q-108 0 -178 -62.5t-83 -175.5h-309q36 226 182 359t396 133q150 0 264 -55
t178 -154t64 -232q0 -125 -66.5 -217t-184.5 -139q147 -39 229 -146.5t82 -249.5q0 -143 -70 -252.5t-196.5 -170.5t-296.5 -61z" />
    <glyph glyph-name="four" unicode="4" horiz-adv-x="1367" 
d="M810 0v377h-764v270l746 950h318v-969h177v-251h-177v-377h-300zM326 628h484v630z" />
    <glyph glyph-name="five" unicode="5" horiz-adv-x="1376" 
d="M705 -40q-187 0 -321 65.5t-214.5 180.5t-106.5 263h315q24 -116 109 -184t211 -68q132 0 214 86.5t82 226.5q0 134 -82.5 217.5t-216.5 83.5q-88 0 -157.5 -36t-110.5 -100h-305l128 902h923v-256h-679l-61 -432q61 75 153 113t200 38q149 0 265.5 -66.5t183 -182
t66.5 -262.5q0 -171 -74.5 -304t-208.5 -209t-313 -76z" />
    <glyph glyph-name="six" unicode="6" horiz-adv-x="1424" 
d="M743 -40q-195 0 -340.5 90t-225.5 262.5t-80 420.5q0 428 168 666t501 238q224 0 369.5 -126t176.5 -355h-305q-19 110 -82.5 169t-166.5 59q-181 0 -264.5 -155t-86.5 -433q57 107 166 168.5t250 62.5q146 0 260.5 -65t180 -179.5t65.5 -263.5q0 -162 -75 -288.5
t-207.5 -198.5t-303.5 -72zM732 209q128 0 209 83t81 215q0 134 -82.5 216t-206.5 82q-125 0 -208.5 -82.5t-83.5 -216.5q0 -131 81.5 -214t209.5 -83z" />
    <glyph glyph-name="seven" unicode="7" horiz-adv-x="1239" 
d="M218 0q46 183 108.5 370t135 364.5t149.5 332.5t151 274h-721v256h1188v-5q-148 -240 -277.5 -509.5t-232.5 -545.5t-171 -537h-330z" />
    <glyph glyph-name="eight" unicode="8" horiz-adv-x="1381" 
d="M690 -40q-177 0 -313 59t-213 167t-77 255q0 148 89.5 256.5t237.5 153.5q-118 45 -184 138t-66 219q0 128 65.5 224.5t184 150.5t276.5 54q159 0 277.5 -54t184 -150.5t65.5 -224.5q0 -126 -66 -218.5t-184 -138.5q148 -45 237.5 -153.5t89.5 -256.5q0 -147 -77 -255
t-213 -167t-314 -59zM690 944q109 0 177 63t68 166q-1 104 -68 165t-177 61q-109 0 -176.5 -61t-67.5 -165q0 -103 68 -166t176 -63zM690 204q137 0 218 72.5t81 191.5t-82.5 190.5t-216.5 71.5q-133 0 -215.5 -71.5t-82.5 -190.5t81 -191.5t217 -72.5z" />
    <glyph glyph-name="nine" unicode="9" horiz-adv-x="1420" 
d="M699 -35q-243 0 -399.5 128.5t-188.5 353.5h306q20 -111 94.5 -169.5t183.5 -58.5q319 0 319 580v13q-54 -106 -159 -165t-239 -60q-154 0 -271.5 64.5t-184 179.5t-66.5 266q0 158 75.5 281t208 193.5t302.5 70.5q201 0 344.5 -92t220.5 -263t77 -410
q0 -447 -159 -679.5t-464 -232.5zM692 809q125 0 207 81t82 212q0 132 -80.5 212t-207.5 80q-128 0 -210 -80t-82 -212q0 -131 83.5 -212t207.5 -81z" />
    <glyph glyph-name="colon" unicode=":" horiz-adv-x="616" 
d="M307 -23q-86 0 -142 53.5t-56 134.5t56 134t142 53q87 0 143 -53t56 -134t-56 -134.5t-143 -53.5zM307 800q-86 0 -142 53.5t-56 134.5t56 134t142 53q87 0 143 -53t56 -134t-56 -134.5t-143 -53.5z" />
    <glyph glyph-name="semicolon" unicode=";" horiz-adv-x="672" 
d="M59 -337l114 653h315l-203 -653h-226zM373 800q-86 0 -142 53.5t-56 134.5t56 134t142 53q87 0 143 -53t56 -134t-56 -134.5t-143 -53.5z" />
    <glyph glyph-name="less" unicode="&#x3c;" horiz-adv-x="1406" 
d="M1155 131l-954 623l954 622v-278l-540 -345l540 -344v-278z" />
    <glyph glyph-name="equal" unicode="=" horiz-adv-x="1406" 
d="M192 881v242h1022v-242h-1022zM192 396v243h1022v-243h-1022z" />
    <glyph glyph-name="greater" unicode="&#x3e;" horiz-adv-x="1406" 
d="M245 131l954 623l-954 622v-278l540 -345l-540 -344v-278z" />
    <glyph glyph-name="question" unicode="?" horiz-adv-x="1173" 
d="M401 530v72q0 123 56.5 212t195.5 181q98 66 132 114.5t34 112.5q0 83 -55 132t-150 49q-114 0 -179.5 -63.5t-85.5 -172.5h-296q35 221 184 345.5t378 124.5q144 0 253 -52.5t170 -144.5t61 -211q0 -83 -24.5 -151t-83.5 -131t-164 -133q-91 -61 -122.5 -110.5
t-31.5 -121.5v-52h-272zM548 -23q-86 0 -142 53.5t-56 134.5t56 134t142 53t142.5 -53t56.5 -134t-56.5 -134.5t-142.5 -53.5z" />
    <glyph glyph-name="at" unicode="@" horiz-adv-x="2125" 
d="M1072 -387q-216 0 -398.5 70.5t-317 199.5t-209 305.5t-74.5 389.5q0 210 76.5 388.5t213.5 310t321 204.5t400 73q210 0 385.5 -67t304 -188.5t199 -287t70.5 -363.5q0 -168 -50 -297.5t-137.5 -203t-201.5 -73.5q-93 0 -142 34.5t-81 83.5q-23 39 -42 39q-16 0 -45 -29
q-61 -62 -140 -99t-195 -37q-134 0 -242 66.5t-171 180.5t-63 258q0 145 63 259t171 180t242 66q99 0 174 -31.5t133 -89.5q30 -29 44 -29q20 0 28 36q4 17 7 41.5t4 44.5h182v-684q0 -140 107 -140q98 0 156.5 115.5t58.5 315.5q0 170 -59.5 311.5t-168.5 245t-258 160
t-327 56.5q-192 0 -351 -63t-275 -177t-179 -269.5t-63 -340.5q0 -186 63.5 -340t178 -266t269.5 -173.5t339 -61.5q167 0 318 47t258 129v-134q-108 -79 -259.5 -122.5t-316.5 -43.5zM1063 274q127 0 203.5 82t76.5 215q0 132 -76.5 214t-203.5 82q-124 0 -201.5 -81.5
t-77.5 -214.5q0 -132 77.5 -214.5t201.5 -82.5z" />
    <glyph glyph-name="A" unicode="A" horiz-adv-x="1596" 
d="M4 0l563 1597h457l573 -1597h-371l-128 370h-615l-128 -370h-351zM548 613h487l-245 734z" />
    <glyph glyph-name="B" unicode="B" horiz-adv-x="1505" 
d="M153 0v1597h687q249 0 378.5 -114t129.5 -302q0 -116 -58.5 -202t-170.5 -133q145 -43 220 -144.5t75 -243.5q0 -218 -136 -338t-397 -120h-728zM480 931h303q120 0 183.5 52t63.5 154q0 98 -62 151.5t-184 53.5h-304v-411zM480 255h350q126 0 191 58t65 166
q0 109 -66 167t-191 58h-349v-449z" />
    <glyph glyph-name="C" unicode="C" horiz-adv-x="1821" 
d="M934 -40q-188 0 -345.5 62.5t-272.5 176t-178 266.5t-63 334t63 334t178 266.5t272.5 176t345.5 62.5q227 1 402.5 -81t285.5 -232.5t139 -356.5h-349q-30 179 -155 281.5t-312 102.5q-156 0 -271 -70t-178.5 -194.5t-63.5 -288.5t63.5 -288.5t178.5 -194.5t271 -70
q187 0 312 103t155 281h349q-29 -205 -139 -356t-285.5 -232.5t-402.5 -81.5z" />
    <glyph glyph-name="D" unicode="D" horiz-adv-x="1741" 
d="M166 0v1597h657q252 0 441 -98.5t294 -278t105 -421.5t-105 -422t-294 -278.5t-441 -98.5h-657zM504 269h294q242 0 375.5 138.5t133.5 391.5q0 252 -133.5 390.5t-375.5 138.5h-294v-1059z" />
    <glyph glyph-name="E" unicode="E" horiz-adv-x="1363" 
d="M166 0v1597h1090v-272h-760v-386h658v-264h-658v-403h800v-272h-1130z" />
    <glyph glyph-name="F" unicode="F" horiz-adv-x="1259" 
d="M166 0v1597h1040v-269h-707v-424h626v-269h-626v-635h-333z" />
    <glyph glyph-name="G" unicode="G" horiz-adv-x="1841" 
d="M882 -34q-174 0 -321.5 59.5t-256 169.5t-168.5 262t-60 338t63.5 340.5t179 266.5t273.5 173.5t348 61.5q220 0 392 -75.5t281 -215.5t138 -333h-352q-36 161 -153.5 249.5t-295.5 88.5q-150 0 -267 -67t-183.5 -190.5t-66.5 -292.5q0 -168 64 -292.5t178.5 -193.5
t266.5 -69q151 0 254 61t162 177q29 56 45.5 125.5t23.5 143.5h303v-753h-231q-4 45 -8.5 89.5t-10.5 73.5q-12 52 -40 52q-13 0 -25 -8t-33 -31q-83 -99 -211.5 -154.5t-288.5 -55.5z" />
    <glyph glyph-name="H" unicode="H" horiz-adv-x="1721" 
d="M166 0v1597h338v-654h713v654h338v-1597h-338v674h-713v-674h-338z" />
    <glyph glyph-name="I" unicode="I" horiz-adv-x="670" 
d="M166 0v1597h338v-1597h-338z" />
    <glyph glyph-name="J" unicode="J" horiz-adv-x="1487" 
d="M706 -40q-186 0 -331.5 70.5t-237.5 204t-121 320.5h347q28 -151 113 -235t231 -84q292 0 292 340v1021h338v-1011q0 -289 -163 -457.5t-468 -168.5z" />
    <glyph glyph-name="K" unicode="K" horiz-adv-x="1544" 
d="M166 0v1597h338v-771l647 771h399l-667 -774l691 -823h-430l-640 778v-778h-338z" />
    <glyph glyph-name="L" unicode="L" horiz-adv-x="1238" 
d="M166 0v1597h338v-1324h708v-273h-1046z" />
    <glyph glyph-name="M" unicode="M" horiz-adv-x="2101" 
d="M166 0v1597h466l426 -1192l419 1192h458v-1597h-317v1240l-430 -1240h-290l-433 1239v-1239h-299z" />
    <glyph glyph-name="N" unicode="N" horiz-adv-x="1746" 
d="M166 0v1597h375l728 -1163v1163h311v-1597h-375l-728 1160v-1160h-311z" />
    <glyph glyph-name="O" unicode="O" horiz-adv-x="1892" 
d="M946 -40q-194 0 -354 62.5t-275.5 175.5t-178.5 266.5t-63 334.5q0 182 63 335t178.5 266t275.5 175.5t354 62.5t354 -62.5t275.5 -175.5t178 -266t62.5 -335q0 -181 -62.5 -334.5t-178 -266.5t-275.5 -175.5t-354 -62.5zM946 250q153 0 269 68.5t180.5 192.5t64.5 288
q0 165 -64.5 288.5t-180.5 192t-269 68.5t-269 -68.5t-180.5 -192t-64.5 -288.5q0 -164 64.5 -288t180.5 -192.5t269 -68.5z" />
    <glyph glyph-name="P" unicode="P" horiz-adv-x="1454" 
d="M166 0v1597h651q191 0 322.5 -66.5t199.5 -186t68 -278.5q0 -158 -68 -277.5t-200 -186t-323 -66.5h-313v-536h-337zM503 795h283q140 0 213 69.5t73 200.5q0 132 -73 201.5t-213 69.5h-283v-541z" />
    <glyph glyph-name="Q" unicode="Q" horiz-adv-x="1906" 
d="M946 -40q-194 0 -354 62.5t-275.5 175.5t-178.5 266.5t-63 334.5q0 182 63 335t178.5 266t275.5 175.5t354 62.5t354 -62.5t275.5 -175.5t178 -266t62.5 -335q0 -172 -56.5 -319t-160.5 -258l194 -262h-354l-69 93q-92 -45 -198.5 -69t-225.5 -24zM946 243q134 0 243 54
l-297 402h355l149 -202q71 131 71 302q0 167 -65.5 291.5t-183 193.5t-272.5 69t-272.5 -69t-183 -193.5t-65.5 -291.5t65.5 -292t183 -194.5t272.5 -69.5z" />
    <glyph glyph-name="R" unicode="R" horiz-adv-x="1548" 
d="M166 0v1597h732q254 0 392.5 -113.5t138.5 -329.5q0 -141 -73 -243t-206 -142q106 -18 156.5 -82.5t69.5 -199.5l42 -313q11 -73 28 -115.5t33 -58.5h-342q-35 24 -48 132l-35 309q-12 108 -56.5 151t-160.5 43h-339v-635h-332zM499 872h336q262 0 262 233t-257 233h-341
v-466z" />
    <glyph glyph-name="S" unicode="S" horiz-adv-x="1385" 
d="M710 -40q-188 0 -331 67.5t-227.5 187.5t-98.5 278h327q19 -135 109 -209t229 -74q120 0 189.5 57.5t69.5 146.5q0 70 -29 115.5t-96.5 77.5t-185.5 59q-289 68 -416 187t-127 318q0 141 70 245.5t198 162.5t301 58q260 0 409.5 -127t176.5 -351h-320
q-16 107 -81.5 168.5t-181.5 61.5q-109 0 -173.5 -54t-64.5 -142q0 -87 57 -139t202 -87q309 -72 452 -196.5t143 -328.5q0 -149 -75.5 -257t-210.5 -166.5t-315 -58.5z" />
    <glyph glyph-name="T" unicode="T" horiz-adv-x="1370" 
d="M516 0v1325h-490v272h1318v-272h-490v-1325h-338z" />
    <glyph glyph-name="U" unicode="U" horiz-adv-x="1677" 
d="M839 -40q-206 0 -361.5 74t-242.5 222t-87 368v973h338v-992q0 -181 92 -274.5t261 -93.5t260 93.5t91 274.5v992h338v-973q0 -220 -86.5 -368t-241.5 -222t-361 -74z" />
    <glyph glyph-name="V" unicode="V" horiz-adv-x="1598" 
d="M598 0l-606 1597h376l454 -1263l433 1263h339l-582 -1597h-414z" />
    <glyph glyph-name="W" unicode="W" horiz-adv-x="2346" 
d="M473 0l-464 1597h343l331 -1241l316 1241h367l320 -1242l332 1242h319l-464 -1597h-388l-312 1238l-310 -1238h-390z" />
    <glyph glyph-name="X" unicode="X" horiz-adv-x="1504" 
d="M-6 0l544 803l-542 794h401l365 -570l364 570h372l-529 -783l548 -814h-401l-370 585l-376 -585h-376z" />
    <glyph glyph-name="Y" unicode="Y" horiz-adv-x="1505" 
d="M591 0v640l-597 957h375l399 -668l392 668h343l-586 -958v-639h-326z" />
    <glyph glyph-name="Z" unicode="Z" horiz-adv-x="1325" 
d="M13 0v5l792 1323h-732v269h1247v-5l-792 -1323h732v-269h-1247z" />
    <glyph glyph-name="bracketleft" unicode="[" horiz-adv-x="787" 
d="M163 -409v2194h586v-199h-323v-1796h323v-199h-586z" />
    <glyph glyph-name="backslash" unicode="\" horiz-adv-x="1063" 
d="M1017 -297l-721 2044h-249l721 -2044h249z" />
    <glyph glyph-name="bracketright" unicode="]" horiz-adv-x="787" 
d="M624 -409v2194h-586v-199h323v-1796h-323v-199h586z" />
    <glyph glyph-name="asciicircum" unicode="^" horiz-adv-x="1406" 
d="M132 809l445 788h250l448 -788h-273l-302 576l-303 -576h-265z" />
    <glyph glyph-name="underscore" unicode="_" horiz-adv-x="1229" 
d="M0 -413v229h1229v-229h-1229z" />
    <glyph glyph-name="grave" unicode="`" horiz-adv-x="643" 
d="M353 1316l-303 436h324l218 -436h-239z" />
    <glyph glyph-name="a" unicode="a" horiz-adv-x="1286" 
d="M511 -36q-131 0 -231.5 45.5t-157 129.5t-56.5 198q0 333 469 367q100 7 193 18.5t143 24.5v14q0 103 -57 161.5t-162 58.5q-97 0 -160 -44.5t-81 -121.5h-313q35 176 178 287.5t372 111.5q249 0 382 -124t133 -356v-734h-226q-1 24 -5 57t-9 55q-8 35 -27 35
q-18 0 -40 -29q-57 -74 -141.5 -114t-203.5 -40zM375 350q0 -76 56 -120t150 -44q80 0 143 29.5t101 104.5q22 41 34 94t12 119v20q-46 -13 -121.5 -25t-162.5 -21q-115 -11 -163.5 -48.5t-48.5 -108.5z" />
    <glyph glyph-name="b" unicode="b" horiz-adv-x="1497" 
d="M843 -36q-129 0 -221 42.5t-160 115.5q-34 35 -53 35q-26 0 -34 -44q-4 -25 -7.5 -56t-5.5 -57h-225v1659h304v-560q0 -34 21 -34q14 0 30 16q56 59 144.5 94.5t201.5 35.5q169 0 303.5 -81.5t212.5 -222.5t78 -322q0 -178 -78.5 -318.5t-211.5 -221.5t-299 -81zM776 224
q102 0 179.5 46t120.5 128.5t43 189.5t-43 189t-120.5 128t-179.5 46q-154 0 -248.5 -101t-94.5 -262q0 -162 94.5 -263t248.5 -101z" />
    <glyph glyph-name="c" unicode="c" horiz-adv-x="1374" 
d="M705 -39q-186 0 -330.5 80.5t-227 222t-82.5 324.5t82.5 324t227 221.5t330.5 80.5q257 0 419 -137.5t196 -370.5h-305q-20 116 -100 182t-202 66q-153 0 -246 -101t-93 -265t93 -265.5t246 -101.5q122 0 202 67t100 182h305q-34 -232 -196 -370.5t-419 -138.5z" />
    <glyph glyph-name="d" unicode="d" horiz-adv-x="1496" 
d="M654 -36q-166 0 -299 81t-211.5 221.5t-78.5 318.5q0 181 78 322t212.5 222.5t303.5 81.5q113 0 201.5 -35.5t143.5 -94.5q17 -16 31 -16q21 0 21 34v560h304v-1659h-225q-2 26 -5 57t-8 56q-9 44 -34 44q-19 0 -54 -35q-67 -73 -159 -115.5t-221 -42.5zM721 224
q154 0 248.5 101t94.5 263q0 161 -94.5 262t-248.5 101q-102 0 -179 -46t-120.5 -128t-43.5 -189t43.5 -189.5t120.5 -128.5t179 -46z" />
    <glyph glyph-name="e" unicode="e" horiz-adv-x="1361" 
d="M692 -38q-183 0 -324 78t-221.5 218.5t-80.5 326.5q0 184 81.5 325.5t222 222t317.5 80.5q189 0 325 -77.5t209 -212t73 -305.5q0 -30 -2.5 -68.5t-6.5 -58.5h-910q10 -134 96 -214t222 -80q107 0 180 45t98 124h302q-43 -185 -197 -294.5t-384 -109.5zM693 982
q-132 0 -217.5 -79t-99.5 -208h620q-7 131 -90.5 209t-212.5 78z" />
    <glyph glyph-name="f" unicode="f" horiz-adv-x="879" 
d="M256 0v928h-223v247h223v103q0 419 420 419q53 0 109.5 -8.5t96.5 -24.5v-231q-61 22 -137 22q-99 0 -145 -49.5t-46 -142.5v-88h308v-247h-308v-928h-298z" />
    <glyph glyph-name="g" unicode="g" horiz-adv-x="1455" 
d="M723 -514q-170 0 -298 57t-209.5 157.5t-113.5 230.5h304q29 -105 114.5 -162t203.5 -57q147 0 225.5 75t78.5 220v130q0 33 -21 33q-14 0 -33 -19q-57 -56 -143 -86.5t-187 -30.5q-166 0 -296 75.5t-205 207t-75 297.5q0 179 77 313t204.5 208.5t281.5 74.5
q116 0 205 -39.5t164 -116.5q19 -19 28 -25t21 -6q24 0 34 43q10 58 12 109h225v-1147q0 -173 -73.5 -294t-207.5 -184.5t-316 -63.5zM705 279q146 0 236 93t90 242t-90 242t-236 93t-236 -93t-90 -242q0 -148 90 -241.5t236 -93.5z" />
    <glyph glyph-name="h" unicode="h" horiz-adv-x="1390" 
d="M137 0v1659h304v-596q0 -37 22 -37q15 0 37 30q60 76 143.5 116.5t197.5 40.5q198 0 311.5 -126.5t113.5 -356.5v-730h-303v680q0 126 -56.5 195t-163.5 69q-143 0 -223 -108q-79 -106 -79 -299v-537h-304z" />
    <glyph glyph-name="i" unicode="i" horiz-adv-x="582" 
d="M291 1346q-81 0 -133 49.5t-52 124.5q0 74 52 123.5t133 49.5t133 -49.5t52 -123.5q0 -75 -52 -124.5t-133 -49.5zM139 0v1175h304v-1175h-304z" />
    <glyph glyph-name="j" unicode="j" horiz-adv-x="582" 
d="M291 1346q-81 0 -133 49.5t-52 124.5q0 74 52 123.5t133 49.5t133 -49.5t52 -123.5q0 -75 -52 -124.5t-133 -49.5zM139 -487v1662h304v-1662h-304z" />
    <glyph glyph-name="k" unicode="k" horiz-adv-x="1271" 
d="M137 0v1659h304v-1045l460 561h369l-487 -572l520 -603h-390l-472 563v-563h-304z" />
    <glyph glyph-name="l" unicode="l" horiz-adv-x="582" 
d="M139 0v1659h304v-1659h-304z" />
    <glyph glyph-name="m" unicode="m" horiz-adv-x="2122" 
d="M137 0v1175h222q3 -58 14 -116q11 -52 39 -52q12 0 20 5.5t24 24.5q70 87 154 131.5t193 44.5q123 0 203 -46t131 -138q15 -25 24.5 -34t22.5 -9q20 0 50 39q74 100 158.5 144t197.5 44q191 0 299.5 -125.5t108.5 -349.5v-738h-304v689q0 121 -51 188.5t-149 67.5
q-133 0 -207 -115q-68 -104 -68 -286v-544h-303v689q0 121 -51.5 188.5t-149.5 67.5q-131 0 -207 -115q-67 -103 -67 -286v-544h-304z" />
    <glyph glyph-name="n" unicode="n" horiz-adv-x="1390" 
d="M137 0v1175h222q2 -25 6.5 -60.5t8.5 -57.5q10 -50 38 -50q20 0 47 34q65 83 154.5 127.5t213.5 44.5q209 0 324 -126t115 -356v-731h-303v680q0 126 -56.5 195t-163.5 69q-143 0 -223 -108q-79 -106 -79 -299v-537h-304z" />
    <glyph glyph-name="o" unicode="o" horiz-adv-x="1437" 
d="M719 -38q-190 0 -338 80.5t-232.5 222t-84.5 323.5t84.5 323t232.5 221.5t338 80.5t337.5 -80.5t232 -221.5t84.5 -323t-84.5 -323.5t-232 -222t-337.5 -80.5zM719 222q155 0 249.5 101.5t94.5 264.5q0 162 -94.5 263.5t-249.5 101.5t-250 -101.5t-95 -263.5
q0 -163 95 -264.5t250 -101.5z" />
    <glyph glyph-name="p" unicode="p" horiz-adv-x="1497" 
d="M843 1211q166 0 299 -81t211.5 -221t78.5 -319q0 -180 -78 -321.5t-212.5 -223t-303.5 -81.5q-113 0 -201.5 36t-144.5 94q-16 16 -30 16q-21 0 -21 -34v-574h-304v1673h225q2 -25 5.5 -56.5t7.5 -56.5q8 -44 34 -44q20 0 53 36q68 73 160 115t221 42zM776 951
q-154 0 -248.5 -101t-94.5 -263q0 -161 94.5 -262t248.5 -101q102 0 179.5 46t120.5 128t43 189q0 108 -43 190t-120.5 128t-179.5 46z" />
    <glyph glyph-name="q" unicode="q" horiz-adv-x="1497" 
d="M654 1211q129 0 221 -42t159 -115q35 -36 54 -36q25 0 34 44q5 25 8 56.5t5 56.5h225v-1673h-304v574q0 34 -21 34q-14 0 -31 -16q-55 -58 -143.5 -94t-201.5 -36q-169 0 -303.5 81.5t-212.5 223t-78 321.5q0 179 78.5 319t211.5 221t299 81zM721 951q-102 0 -179 -46
t-120.5 -128t-43.5 -190q0 -107 43.5 -189t120.5 -128t179 -46q154 0 248.5 101t94.5 262q0 162 -94.5 263t-248.5 101z" />
    <glyph glyph-name="r" unicode="r" horiz-adv-x="1059" 
d="M137 0v1175h221q2 -20 6 -46.5t8 -49.5q11 -43 35 -43q13 0 23.5 7t26.5 26q50 62 116 97t155 35q149 0 232 -103t81 -288q0 -11 -0.5 -24t-1.5 -24h-272q2 16 2 31q0 71 -34 113t-96 42q-109 0 -161 -112q-38 -80 -38 -216v-620h-303z" />
    <glyph glyph-name="s" unicode="s" horiz-adv-x="1153" 
d="M596 -40q-230 0 -372.5 105.5t-171.5 291.5h306q14 -84 74.5 -132t164.5 -48q90 0 143 36.5t53 97.5q0 65 -47.5 99.5t-183.5 57.5q-250 44 -356 131.5t-106 253.5q0 108 58.5 189.5t164.5 126.5t246 45q221 0 347.5 -98.5t150.5 -285.5h-295q-14 86 -61 127t-135 41
q-82 0 -131 -34.5t-49 -93.5q0 -64 50 -97t172 -54q174 -29 277.5 -76t148.5 -122t45 -188q0 -109 -63 -193t-174 -132t-256 -48z" />
    <glyph glyph-name="t" unicode="t" horiz-adv-x="913" 
d="M662 -15q-211 0 -314 97.5t-103 322.5v523h-223v247h133q68 0 100 24t45 73q11 41 21.5 108.5t16.5 125.5h204v-331h309v-247h-309v-493q0 -112 44 -160.5t145 -48.5q67 0 139 19v-230q-37 -13 -95 -21.5t-113 -8.5z" />
    <glyph glyph-name="u" unicode="u" horiz-adv-x="1385" 
d="M569 -38q-213 0 -329 126.5t-116 355.5v731h303v-680q0 -128 58 -196t168 -68q144 0 216 99q36 48 55.5 118.5t19.5 164.5v562h303v-1175h-221q-1 23 -5 54.5t-9 53.5q-9 50 -37 50q-11 0 -20 -6.5t-28 -27.5q-64 -78 -151 -120t-207 -42z" />
    <glyph glyph-name="v" unicode="v" horiz-adv-x="1314" 
d="M483 0l-484 1175h337l331 -881l323 881h321l-476 -1175h-352z" />
    <glyph glyph-name="w" unicode="w" horiz-adv-x="1881" 
d="M400 0l-392 1175h327l243 -824l230 824h291l229 -825l246 825h299l-393 -1175h-314l-223 798l-225 -798h-318z" />
    <glyph glyph-name="x" unicode="x" horiz-adv-x="1212" 
d="M-1 0l411 590l-413 585h363l256 -391l258 391h327l-399 -573l420 -602h-363l-267 401l-264 -401h-329z" />
    <glyph glyph-name="y" unicode="y" horiz-adv-x="1282" 
d="M278 -498l207 499l-484 1174h337l317 -841l311 841h315l-688 -1673h-315z" />
    <glyph glyph-name="z" unicode="z" horiz-adv-x="1118" 
d="M26 0v5l599 923h-560v247h1033v-5l-606 -935h567v-235h-1033z" />
    <glyph glyph-name="braceleft" unicode="{" horiz-adv-x="759" 
d="M698 -422q-243 9 -378 98t-135 272q0 82 21.5 174t43 177t21.5 144q0 107 -92 135q-30 9 -59.5 13.5t-64.5 5.5v186q35 2 64.5 6t59.5 13q92 28 92 135q0 60 -21.5 145t-43 177t-21.5 173q0 183 135 272t378 98v-188q-133 -9 -193 -61t-60 -146q0 -61 20 -147.5l40 -173
t20 -147.5q0 -196 -189 -249q189 -53 189 -249q0 -60 -20 -147t-40 -173.5t-20 -147.5q0 -94 60 -146t193 -60v-189z" />
    <glyph glyph-name="bar" unicode="|" horiz-adv-x="590" 
d="M163 -369v2116h264v-2116h-264z" />
    <glyph glyph-name="braceright" unicode="}" horiz-adv-x="759" 
d="M61 -422q243 9 378 98t135 272q0 82 -21.5 174t-43 177t-21.5 144q0 107 92 135q30 9 59.5 13.5t64.5 5.5v186q-35 2 -64.5 6t-59.5 13q-92 28 -92 135q0 60 21.5 145t43 177t21.5 173q0 183 -135 272t-378 98v-188q133 -9 193 -61t60 -146q0 -61 -20 -147.5l-40 -173
t-20 -147.5q0 -196 189 -249q-189 -53 -189 -249q0 -60 20 -147t40 -173.5t20 -147.5q0 -94 -60 -146t-193 -60v-189z" />
    <glyph glyph-name="asciitilde" unicode="~" horiz-adv-x="1406" 
d="M926 607q-73 0 -134.5 23.5t-114 55t-99.5 55t-92 23.5q-109 0 -138 -138h-197q21 164 107.5 271t228.5 107q74 0 135 -23.5t114 -55t99.5 -55t91.5 -23.5q109 0 138 138h197q-20 -163 -106.5 -270.5t-229.5 -107.5z" />
    <glyph glyph-name="uni00A0" unicode="&#xa0;" horiz-adv-x="468" 
 />
    <glyph glyph-name="exclamdown" unicode="&#xa1;" horiz-adv-x="589" 
d="M171 672l-36 -1077h319l-36 1077h-247zM294 1215q-86 0 -142 -53.5t-56 -134.5t56 -134t142 -53q87 0 143 53t56 134t-56 134.5t-143 53.5z" />
    <glyph glyph-name="cent" unicode="&#xa2;" horiz-adv-x="1373" 
d="M1315 681q-30 -208 -163 -341t-346 -161v-179h-213v179q-158 23 -278 107t-187.5 216t-67.5 297t67.5 297t187.5 216t278 107v178h213v-178q213 -28 346 -161t163 -341h-287q-21 122 -106 191.5t-214 69.5q-160 0 -258.5 -104.5t-98.5 -274.5t98.5 -274.5t258.5 -104.5
q129 0 214 70t106 191h287z" />
    <glyph glyph-name="sterling" unicode="&#xa3;" horiz-adv-x="1367" 
d="M71 0v5q85 100 134 185t70 167.5t21 174.5q0 46 -5 89t-14 84h-189v156h151q-18 69 -32 141t-14 154q0 145 69.5 253t192 168t282.5 60q248 0 394.5 -137t164.5 -364h-315q-10 116 -69 181.5t-165 65.5q-110 0 -171 -63.5t-61 -166.5q0 -67 16 -140t33 -152h487v-156
h-457q5 -32 7.5 -64.5t2.5 -65.5q0 -73 -27 -154t-104 -157h787v-264h-1189z" />
    <glyph glyph-name="currency" unicode="&#xa4;" horiz-adv-x="1458" 
d="M247 159l-152 143l172 179q-54 69 -84 156.5t-30 187.5t30 187t84 156l-172 179l152 143l181 -186q134 73 301 73t301 -73l181 186l152 -143l-172 -179q54 -69 84 -156t30 -187t-30 -187.5t-84 -156.5l172 -179l-152 -143l-181 186q-134 -73 -301 -73t-301 73zM729 526
q127 0 204 83t77 216q0 132 -77 215t-204 83t-204 -83t-77 -215q0 -133 77 -216t204 -83z" />
    <glyph glyph-name="yen" unicode="&#xa5;" horiz-adv-x="1524" 
d="M233 342v151h378v130h-378v151h302l-488 823h350l382 -685l374 685h322l-479 -823h301v-151h-376v-130h376v-151h-376v-342h-310v342h-378z" />
    <glyph glyph-name="brokenbar" unicode="&#xa6;" horiz-adv-x="590" 
d="M163 864v883h264v-883h-264zM163 -369v883h264v-883h-264z" />
    <glyph glyph-name="section" unicode="&#xa7;" horiz-adv-x="1254" 
d="M635 -257q-231 0 -370 109.5t-168 300.5h305q14 -91 73.5 -144t162.5 -53q86 0 134 39t48 105q0 46 -20 77t-72.5 54t-149.5 44q-179 40 -287.5 91t-157 125.5t-48.5 183.5q0 104 61.5 185.5t166.5 127.5q-86 50 -125 120.5t-39 175.5q0 110 58.5 191.5t163 127
t243.5 45.5q218 0 343 -100t150 -291h-297q-13 88 -58.5 133.5t-134.5 45.5q-77 0 -123 -37t-46 -103q0 -73 49.5 -110.5t185.5 -66.5q181 -39 289 -91.5t156 -127t48 -180.5q0 -101 -61 -182t-165 -129q91 -49 130.5 -117t39.5 -174q0 -110 -62 -195t-171 -132.5
t-252 -47.5zM635 514q40 -10 74 -19q80 21 123.5 70t43.5 115q0 78 -55.5 122t-195.5 77q-47 11 -87 22q-72 -22 -112 -70t-40 -113q0 -77 52.5 -123t196.5 -81z" />
    <glyph glyph-name="dieresis" unicode="&#xa8;" horiz-adv-x="949" 
d="M734 1323q-73 0 -118.5 45t-45.5 112q0 68 45.5 113.5t118.5 45.5t119.5 -45.5t46.5 -113.5q0 -67 -46.5 -112t-119.5 -45zM215 1323q-73 0 -119 45t-46 112q0 68 46 113.5t119 45.5t119 -45.5t46 -113.5q0 -67 -46 -112t-119 -45z" />
    <glyph glyph-name="copyright" unicode="&#xa9;" horiz-adv-x="1863" 
d="M932 -35q-181 0 -336 62.5t-270.5 175.5t-180 265.5t-64.5 331.5t64.5 331.5t180 265.5t270.5 175.5t336 62.5t336 -62.5t270.5 -175.5t180 -265.5t64.5 -331.5t-64.5 -331.5t-180 -265.5t-270.5 -175.5t-336 -62.5zM932 94q149 0 277 53t223.5 148.5t148.5 224t53 280.5
t-53 280.5t-148.5 224t-223.5 148.5t-277 53q-150 0 -278 -53t-223.5 -148.5t-148.5 -224t-53 -280.5t53 -280.5t148.5 -224t223.5 -148.5t278 -53zM945 315q-143 0 -256 62t-178 171.5t-65 251.5t65 251t178 171t256 62q203 0 328.5 -108.5t153.5 -292.5h-265
q-15 80 -69 127.5t-141 47.5q-109 0 -173 -71t-64 -187q0 -115 64 -187t173 -72q87 0 141 48t69 127h265q-28 -182 -152.5 -291.5t-329.5 -109.5z" />
    <glyph glyph-name="ordfeminine" unicode="&#xaa;" horiz-adv-x="1119" 
d="M453 629q-157 0 -257.5 79.5t-100.5 218.5q0 266 384 288q80 5 157 14t119 20v11q0 86 -49 135t-137 49q-79 0 -131.5 -37.5t-67.5 -99.5h-250q29 141 146 231t304 90q200 0 308.5 -99t108.5 -285v-587h-178q-1 20 -4 49t-8 48q-6 28 -22 28q-10 0 -16 -7t-15 -18
q-97 -128 -291 -128zM341 938q0 -64 48 -100t126 -36q65 0 117.5 24.5t84.5 85.5q38 68 38 172v19q-34 -12 -93 -20t-145 -15q-94 -9 -135 -40t-41 -90zM146 341v180h841v-180h-841z" />
    <glyph glyph-name="guillemotleft" unicode="&#xab;" horiz-adv-x="1265" 
d="M964 136h264l-343 470l343 470h-264l-381 -470zM480 136h264l-343 470l343 470h-264l-381 -470z" />
    <glyph glyph-name="logicalnot" unicode="&#xac;" horiz-adv-x="1406" 
d="M140 1123h1097v-646h-250v404h-847v242z" />
    <glyph glyph-name="uni00AD" unicode="&#xad;" horiz-adv-x="1042" 
d="M120 603v275h802v-275h-802z" />
    <glyph glyph-name="registered" unicode="&#xae;" horiz-adv-x="1139" 
d="M569 657q-142 0 -254 64t-176.5 175t-64.5 252q0 140 64.5 251t176.5 175t254 64q143 0 255 -64t176.5 -175t64.5 -251q0 -141 -64.5 -252t-176.5 -175t-255 -64zM569 751q112 0 199.5 51.5t138 141.5t50.5 204t-50.5 203.5t-138 141t-199.5 51.5q-111 0 -199 -51.5
t-138.5 -141t-50.5 -203.5t50.5 -204t138.5 -141.5t199 -51.5zM369 901v495h257q83 0 128.5 -35.5t45.5 -104.5q0 -95 -92 -119q34 -6 51 -26.5t24 -63.5l13 -83q5 -33 11.5 -45t11.5 -18h-150q-13 9 -17 46l-10 78q-4 30 -15.5 41t-41.5 11h-73v-176h-143zM512 1179h79
q62 0 62 53t-62 53h-79v-106z" />
    <glyph glyph-name="macron" unicode="&#xaf;" horiz-adv-x="795" 
d="M41 1359v198h712v-198h-712z" />
    <glyph glyph-name="degree" unicode="&#xb0;" horiz-adv-x="847" 
d="M423 957q-104 0 -184.5 43.5t-126 120t-45.5 174.5q0 99 45.5 175.5t126 120t184.5 43.5t184.5 -43.5t126 -120t45.5 -175.5q0 -98 -45.5 -174.5t-126 -120t-184.5 -43.5zM423 1134q71 0 115.5 45t44.5 116q0 72 -44.5 116.5t-115.5 44.5q-70 0 -114.5 -44.5
t-44.5 -116.5q0 -71 44.5 -116t114.5 -45z" />
    <glyph glyph-name="plusminus" unicode="&#xb1;" horiz-adv-x="1406" 
d="M161 0v243h408v422h-408v243h408v435h272v-435h404v-243h-404v-422h406v-243h-1086z" />
    <glyph glyph-name="uni00B2" unicode="&#xb2;" horiz-adv-x="814" 
d="M77 1014q3 109 28.5 191t92.5 150t194 134q80 42 107.5 70t27.5 67t-29 63t-76 24q-126 0 -134 -138h-212q14 145 106 226t237 81q150 0 230 -72t80 -188q0 -89 -52 -150.5t-178 -129.5q-86 -47 -119.5 -81t-39.5 -75h388v-172h-651z" />
    <glyph glyph-name="uni00B3" unicode="&#xb3;" horiz-adv-x="831" 
d="M429 992q-158 0 -253.5 75.5t-111.5 208.5h212q19 -114 149 -114q59 0 92.5 28t33.5 75q0 48 -36 75.5t-101 27.5h-119v156h114q119 0 119 97q0 41 -28 66t-77 25q-57 0 -88 -29.5t-39 -76.5h-212q23 133 110.5 204.5t232.5 71.5q137 0 219 -65.5t82 -172.5
q0 -70 -38 -117.5t-105 -71.5q81 -18 126 -71.5t45 -133.5q0 -113 -90.5 -185.5t-236.5 -72.5z" />
    <glyph glyph-name="acute" unicode="&#xb4;" horiz-adv-x="643" 
d="M289 1316l303 436h-324l-218 -436h239z" />
    <glyph glyph-name="mu" unicode="&#xb5;" horiz-adv-x="1398" 
d="M137 -487v1662h304v-680q0 -128 57.5 -196t167.5 -68q144 0 216 99q36 48 55.5 118.5t19.5 164.5v562h304v-1175h-222q-1 23 -4.5 54.5t-8.5 53.5q-10 50 -38 50q-11 0 -20 -6.5t-26 -29.5q-112 -149 -295 -149q-123 0 -194 68q-26 25 -42 25q-24 0 -24 -37v-516h-250z
" />
    <glyph glyph-name="paragraph" unicode="&#xb6;" horiz-adv-x="1541" 
d="M735 -300v941h-154q-243 0 -384.5 128.5t-141.5 349.5t140.5 349.5t383.5 128.5h370v-1897h-214zM1139 -300v1897h214v-1897h-214z" />
    <glyph glyph-name="periodcentered" unicode="&#xb7;" horiz-adv-x="590" 
d="M295 400q-86 0 -142 53.5t-56 134.5t56 134t142 53q87 0 143 -53t56 -134t-56 -134.5t-143 -53.5z" />
    <glyph glyph-name="cedilla" unicode="&#xb8;" horiz-adv-x="743" 
d="M391 -531q-159 0 -245.5 87.5t-95.5 227.5h210q5 -65 38.5 -101.5t93.5 -36.5q106 0 106 97q0 121 -243 257h221q104 -47 161 -119t57 -152q0 -113 -79.5 -186.5t-223.5 -73.5z" />
    <glyph glyph-name="uni00B9" unicode="&#xb9;" horiz-adv-x="601" 
d="M264 1014v527q-78 -62 -206 -68v198q214 21 265 189h160v-846h-219z" />
    <glyph glyph-name="ordmasculine" unicode="&#xba;" horiz-adv-x="1239" 
d="M620 627q-154 0 -274.5 64.5t-189 177.5t-68.5 258t68.5 258t189 178t274.5 65t274 -64.5t189 -177.5t69 -259q0 -145 -69 -258t-189 -177.5t-274 -64.5zM620 833q128 0 207 81.5t79 212.5t-79 212.5t-207 81.5t-207.5 -81.5t-79.5 -212.5q0 -130 79.5 -212t207.5 -82z
M170 341v180h900v-180h-900z" />
    <glyph glyph-name="guillemotright" unicode="&#xbb;" horiz-adv-x="1265" 
d="M301 136h-264l343 470l-343 470h264l381 -470zM784 136h-264l343 470l-343 470h264l381 -470z" />
    <glyph glyph-name="onequarter" unicode="&#xbc;" horiz-adv-x="1696" 
d="M264 754v527q-78 -62 -206 -68v198q214 21 265 189h160v-846h-219zM240 0l910 1597h233l-911 -1597h-232zM1333 0v183h-422v182l417 481h210v-495h93v-168h-93v-183h-205zM1098 351h235v272z" />
    <glyph glyph-name="onehalf" unicode="&#xbd;" horiz-adv-x="1706" 
d="M264 754v527q-78 -62 -206 -68v198q214 21 265 189h160v-846h-219zM178 0l910 1597h233l-911 -1597h-232zM969 0q3 109 28.5 191t92.5 150t194 134q80 42 107.5 70t27.5 67t-29 63t-76 24q-126 0 -134 -138h-212q14 145 106 226t237 81q150 0 230 -72t80 -188
q0 -89 -52 -150.5t-178 -129.5q-86 -47 -119.5 -81t-39.5 -75h388v-172h-651z" />
    <glyph glyph-name="threequarters" unicode="&#xbe;" horiz-adv-x="1914" 
d="M429 732q-158 0 -253.5 75.5t-111.5 208.5h212q19 -114 149 -114q59 0 92.5 28t33.5 75q0 48 -36 75.5t-101 27.5h-119v156h114q119 0 119 97q0 41 -28 66t-77 25q-57 0 -88 -29.5t-39 -76.5h-212q23 133 110.5 204.5t232.5 71.5q137 0 219 -65.5t82 -172.5
q0 -70 -38 -117.5t-105 -71.5q81 -18 126 -71.5t45 -133.5q0 -113 -90.5 -185.5t-236.5 -72.5zM422 0l910 1597h233l-911 -1597h-232zM1553 0v183h-422v182l417 481h210v-495h93v-168h-93v-183h-205zM1318 351h235v272z" />
    <glyph glyph-name="questiondown" unicode="&#xbf;" horiz-adv-x="1159" 
d="M762 662v-72q0 -123 -56.5 -212t-195.5 -181q-98 -66 -132 -114.5t-34 -112.5q0 -83 55 -132t150 -49q114 0 179.5 63.5t85.5 172.5h296q-35 -221 -184 -345.5t-378 -124.5q-144 0 -253 52.5t-170 144.5t-61 211q0 83 24.5 151t83.5 131t164 133q91 61 122.5 110.5
t31.5 121.5v52h272zM615 1215q86 0 142 -53.5t56 -134.5t-56 -134t-142 -53t-142.5 53t-56.5 134t56.5 134.5t142.5 53.5z" />
    <glyph glyph-name="Agrave" unicode="&#xc0;" horiz-adv-x="1596" 
d="M4 0l563 1597h457l573 -1597h-371l-128 370h-615l-128 -370h-351zM548 613h487l-245 734zM636 1720l-417 340h375l339 -340h-297z" />
    <glyph glyph-name="Aacute" unicode="&#xc1;" horiz-adv-x="1596" 
d="M4 0l563 1597h457l573 -1597h-371l-128 370h-615l-128 -370h-351zM548 613h487l-245 734zM944 1720l417 340h-375l-339 -340h297z" />
    <glyph glyph-name="Acircumflex" unicode="&#xc2;" horiz-adv-x="1596" 
d="M4 0l563 1597h457l573 -1597h-371l-128 370h-615l-128 -370h-351zM548 613h487l-245 734zM353 1720l294 351h288l295 -351h-237l-173 158q-16 13 -29 13q-12 0 -28 -13l-173 -158h-237z" />
    <glyph glyph-name="Atilde" unicode="&#xc3;" horiz-adv-x="1596" 
d="M4 0l563 1597h457l573 -1597h-371l-128 370h-615l-128 -370h-351zM548 613h487l-245 734zM958 1725q-61 0 -109.5 20.5t-87.5 48t-72.5 48t-65.5 20.5q-41 0 -66 -31t-35 -84h-173q19 143 91 231t181 88q61 0 109.5 -20.5t87.5 -48t73 -48t66 -20.5q41 0 65.5 32t34.5 84
h174q-19 -143 -92 -231.5t-181 -88.5z" />
    <glyph glyph-name="Adieresis" unicode="&#xc4;" horiz-adv-x="1596" 
d="M4 0l563 1597h457l573 -1597h-371l-128 370h-615l-128 -370h-351zM548 613h487l-245 734zM1066 1740q-73 0 -119.5 46.5t-46.5 113.5q0 68 46.5 114.5t119.5 46.5q74 0 121 -46.5t47 -114.5q0 -67 -47 -113.5t-121 -46.5zM513 1740q-73 0 -120 46.5t-47 113.5
q0 68 47 114.5t120 46.5q74 0 120.5 -46.5t46.5 -114.5q0 -67 -46.5 -113.5t-120.5 -46.5z" />
    <glyph glyph-name="Aring" unicode="&#xc5;" horiz-adv-x="1596" 
d="M4 0l563 1597h457l573 -1597h-371l-128 370h-615l-128 -370h-351zM548 613h487l-245 734zM790 1695q-123 0 -201.5 73t-78.5 186q0 115 78.5 188t201.5 73q122 0 201 -73t79 -188q0 -113 -79 -186t-201 -73zM790 1851q45 0 74 29.5t29 73.5q0 46 -29 75.5t-74 29.5
q-46 0 -75 -29.5t-29 -75.5q0 -44 29 -73.5t75 -29.5z" />
    <glyph glyph-name="AE" unicode="&#xc6;" horiz-adv-x="2252" 
d="M-62 0l950 1597h1257v-272h-724v-386h622v-264h-622v-403h764v-272h-1094v470l-484 2l-277 -472h-392zM735 726h356v616z" />
    <glyph glyph-name="Ccedilla" unicode="&#xc7;" horiz-adv-x="1821" 
d="M934 -40q-188 0 -345.5 62.5t-272.5 176t-178 266.5t-63 334t63 334t178 266.5t272.5 176t345.5 62.5q227 1 402.5 -81t285.5 -232.5t139 -356.5h-349q-30 179 -155 281.5t-312 102.5q-156 0 -271 -70t-178.5 -194.5t-63.5 -288.5t63.5 -288.5t178.5 -194.5t271 -70
q187 0 312 103t155 281h349q-29 -205 -139 -356t-285.5 -232.5t-402.5 -81.5zM943 -534q-163 0 -254.5 85.5t-100.5 232.5h221q11 -134 128 -134q106 0 106 99q0 124 -243 251l198 19q120 -47 188.5 -123.5t68.5 -173.5q0 -115 -85 -185.5t-227 -70.5z" />
    <glyph glyph-name="Egrave" unicode="&#xc8;" horiz-adv-x="1363" 
d="M166 0v1597h1090v-272h-760v-386h658v-264h-658v-403h800v-272h-1130zM567 1720l-417 340h375l339 -340h-297z" />
    <glyph glyph-name="Eacute" unicode="&#xc9;" horiz-adv-x="1363" 
d="M166 0v1597h1090v-272h-760v-386h658v-264h-658v-403h800v-272h-1130zM875 1720l417 340h-375l-339 -340h297z" />
    <glyph glyph-name="Ecircumflex" unicode="&#xca;" horiz-adv-x="1363" 
d="M166 0v1597h1090v-272h-760v-386h658v-264h-658v-403h800v-272h-1130zM284 1720l294 351h288l295 -351h-237l-173 158q-16 13 -29 13q-12 0 -28 -13l-173 -158h-237z" />
    <glyph glyph-name="Edieresis" unicode="&#xcb;" horiz-adv-x="1363" 
d="M166 0v1597h1090v-272h-760v-386h658v-264h-658v-403h800v-272h-1130zM997 1740q-73 0 -119.5 46.5t-46.5 113.5q0 68 46.5 114.5t119.5 46.5q74 0 121 -46.5t47 -114.5q0 -67 -47 -113.5t-121 -46.5zM444 1740q-73 0 -120 46.5t-47 113.5q0 68 47 114.5t120 46.5
q74 0 120.5 -46.5t46.5 -114.5q0 -67 -46.5 -113.5t-120.5 -46.5z" />
    <glyph glyph-name="Igrave" unicode="&#xcc;" horiz-adv-x="670" 
d="M166 0v1597h338v-1597h-338zM182 1720l-417 340h375l339 -340h-297z" />
    <glyph glyph-name="Iacute" unicode="&#xcd;" horiz-adv-x="670" 
d="M166 0v1597h338v-1597h-338zM490 1720l417 340h-375l-339 -340h297z" />
    <glyph glyph-name="Icircumflex" unicode="&#xce;" horiz-adv-x="670" 
d="M166 0v1597h338v-1597h-338zM-101 1720l294 351h288l295 -351h-237l-173 158q-16 13 -29 13q-12 0 -28 -13l-173 -158h-237z" />
    <glyph glyph-name="Idieresis" unicode="&#xcf;" horiz-adv-x="670" 
d="M166 0v1597h338v-1597h-338zM612 1740q-73 0 -119.5 46.5t-46.5 113.5q0 68 46.5 114.5t119.5 46.5q74 0 121 -46.5t47 -114.5q0 -67 -47 -113.5t-121 -46.5zM59 1740q-73 0 -120 46.5t-47 113.5q0 68 47 114.5t120 46.5q74 0 120.5 -46.5t46.5 -114.5
q0 -67 -46.5 -113.5t-120.5 -46.5z" />
    <glyph glyph-name="Eth" unicode="&#xd0;" horiz-adv-x="1850" 
d="M275 0v682h-241v241h241v674h656q253 0 442 -98.5t294 -278t105 -421.5t-105 -422t-294 -278.5t-442 -98.5h-656zM613 269h293q243 0 376.5 138.5t133.5 391.5q0 252 -133.5 390.5t-376.5 138.5h-293v-405h412v-241h-412v-413z" />
    <glyph glyph-name="Ntilde" unicode="&#xd1;" horiz-adv-x="1746" 
d="M166 0v1597h375l728 -1163v1163h311v-1597h-375l-728 1160v-1160h-311zM1044 1725q-61 0 -109.5 20.5t-87.5 48t-72.5 48t-65.5 20.5q-41 0 -66 -31t-35 -84h-173q19 143 91 231t181 88q61 0 109.5 -20.5t87.5 -48t73 -48t66 -20.5q41 0 65.5 32t34.5 84h174
q-19 -143 -92 -231.5t-181 -88.5z" />
    <glyph glyph-name="Ograve" unicode="&#xd2;" horiz-adv-x="1892" 
d="M946 -40q-194 0 -354 62.5t-275.5 175.5t-178.5 266.5t-63 334.5q0 182 63 335t178.5 266t275.5 175.5t354 62.5t354 -62.5t275.5 -175.5t178 -266t62.5 -335q0 -181 -62.5 -334.5t-178 -266.5t-275.5 -175.5t-354 -62.5zM946 250q153 0 269 68.5t180.5 192.5t64.5 288
q0 165 -64.5 288.5t-180.5 192t-269 68.5t-269 -68.5t-180.5 -192t-64.5 -288.5q0 -164 64.5 -288t180.5 -192.5t269 -68.5zM792 1720l-417 340h375l339 -340h-297z" />
    <glyph glyph-name="Oacute" unicode="&#xd3;" horiz-adv-x="1892" 
d="M946 -40q-194 0 -354 62.5t-275.5 175.5t-178.5 266.5t-63 334.5q0 182 63 335t178.5 266t275.5 175.5t354 62.5t354 -62.5t275.5 -175.5t178 -266t62.5 -335q0 -181 -62.5 -334.5t-178 -266.5t-275.5 -175.5t-354 -62.5zM946 250q153 0 269 68.5t180.5 192.5t64.5 288
q0 165 -64.5 288.5t-180.5 192t-269 68.5t-269 -68.5t-180.5 -192t-64.5 -288.5q0 -164 64.5 -288t180.5 -192.5t269 -68.5zM1100 1720l417 340h-375l-339 -340h297z" />
    <glyph glyph-name="Ocircumflex" unicode="&#xd4;" horiz-adv-x="1892" 
d="M946 -40q-194 0 -354 62.5t-275.5 175.5t-178.5 266.5t-63 334.5q0 182 63 335t178.5 266t275.5 175.5t354 62.5t354 -62.5t275.5 -175.5t178 -266t62.5 -335q0 -181 -62.5 -334.5t-178 -266.5t-275.5 -175.5t-354 -62.5zM946 250q153 0 269 68.5t180.5 192.5t64.5 288
q0 165 -64.5 288.5t-180.5 192t-269 68.5t-269 -68.5t-180.5 -192t-64.5 -288.5q0 -164 64.5 -288t180.5 -192.5t269 -68.5zM509 1720l294 351h288l295 -351h-237l-173 158q-16 13 -29 13q-12 0 -28 -13l-173 -158h-237z" />
    <glyph glyph-name="Otilde" unicode="&#xd5;" horiz-adv-x="1892" 
d="M946 -40q-194 0 -354 62.5t-275.5 175.5t-178.5 266.5t-63 334.5q0 182 63 335t178.5 266t275.5 175.5t354 62.5t354 -62.5t275.5 -175.5t178 -266t62.5 -335q0 -181 -62.5 -334.5t-178 -266.5t-275.5 -175.5t-354 -62.5zM946 250q153 0 269 68.5t180.5 192.5t64.5 288
q0 165 -64.5 288.5t-180.5 192t-269 68.5t-269 -68.5t-180.5 -192t-64.5 -288.5q0 -164 64.5 -288t180.5 -192.5t269 -68.5zM1114 1725q-61 0 -109.5 20.5t-87.5 48t-72.5 48t-65.5 20.5q-41 0 -66 -31t-35 -84h-173q19 143 91 231t181 88q61 0 109.5 -20.5t87.5 -48t73 -48
t66 -20.5q41 0 65.5 32t34.5 84h174q-19 -143 -92 -231.5t-181 -88.5z" />
    <glyph glyph-name="Odieresis" unicode="&#xd6;" horiz-adv-x="1892" 
d="M946 -40q-194 0 -354 62.5t-275.5 175.5t-178.5 266.5t-63 334.5q0 182 63 335t178.5 266t275.5 175.5t354 62.5t354 -62.5t275.5 -175.5t178 -266t62.5 -335q0 -181 -62.5 -334.5t-178 -266.5t-275.5 -175.5t-354 -62.5zM946 250q153 0 269 68.5t180.5 192.5t64.5 288
q0 165 -64.5 288.5t-180.5 192t-269 68.5t-269 -68.5t-180.5 -192t-64.5 -288.5q0 -164 64.5 -288t180.5 -192.5t269 -68.5zM1222 1740q-73 0 -119.5 46.5t-46.5 113.5q0 68 46.5 114.5t119.5 46.5q74 0 121 -46.5t47 -114.5q0 -67 -47 -113.5t-121 -46.5zM669 1740
q-73 0 -120 46.5t-47 113.5q0 68 47 114.5t120 46.5q74 0 120.5 -46.5t46.5 -114.5q0 -67 -46.5 -113.5t-120.5 -46.5z" />
    <glyph glyph-name="multiply" unicode="&#xd7;" horiz-adv-x="1406" 
d="M344 264l-166 160l365 376l-365 375l165 161l360 -371l360 371l166 -161l-365 -376l365 -375l-166 -160l-359 370z" />
    <glyph glyph-name="Oslash" unicode="&#xd8;" horiz-adv-x="1892" 
d="M108 -100l215 291q-118 112 -183 268t-65 340q0 182 63 335t178.5 266t275.5 175.5t354 62.5q110 0 209.5 -20.5t186.5 -59.5l104 140h339l-216 -292q117 -112 182 -267.5t65 -339.5q0 -181 -62.5 -334.5t-178 -266.5t-275.5 -175.5t-354 -62.5q-110 0 -210 21t-187 60
l-104 -141h-337zM413 799q0 -111 30 -204.5t85 -164.5l659 880q-109 51 -241 51q-158 0 -278.5 -70.5t-187.5 -196.5t-67 -295zM946 237q159 0 279 70.5t187 196.5t67 295q0 111 -30 204.5t-85 164.5l-658 -880q108 -51 240 -51z" />
    <glyph glyph-name="Ugrave" unicode="&#xd9;" horiz-adv-x="1677" 
d="M839 -40q-206 0 -361.5 74t-242.5 222t-87 368v973h338v-992q0 -181 92 -274.5t261 -93.5t260 93.5t91 274.5v992h338v-973q0 -220 -86.5 -368t-241.5 -222t-361 -74zM685 1720l-417 340h375l339 -340h-297z" />
    <glyph glyph-name="Uacute" unicode="&#xda;" horiz-adv-x="1677" 
d="M839 -40q-206 0 -361.5 74t-242.5 222t-87 368v973h338v-992q0 -181 92 -274.5t261 -93.5t260 93.5t91 274.5v992h338v-973q0 -220 -86.5 -368t-241.5 -222t-361 -74zM993 1720l417 340h-375l-339 -340h297z" />
    <glyph glyph-name="Ucircumflex" unicode="&#xdb;" horiz-adv-x="1677" 
d="M839 -40q-206 0 -361.5 74t-242.5 222t-87 368v973h338v-992q0 -181 92 -274.5t261 -93.5t260 93.5t91 274.5v992h338v-973q0 -220 -86.5 -368t-241.5 -222t-361 -74zM402 1720l294 351h288l295 -351h-237l-173 158q-16 13 -29 13q-12 0 -28 -13l-173 -158h-237z" />
    <glyph glyph-name="Udieresis" unicode="&#xdc;" horiz-adv-x="1677" 
d="M839 -40q-206 0 -361.5 74t-242.5 222t-87 368v973h338v-992q0 -181 92 -274.5t261 -93.5t260 93.5t91 274.5v992h338v-973q0 -220 -86.5 -368t-241.5 -222t-361 -74zM1115 1740q-73 0 -119.5 46.5t-46.5 113.5q0 68 46.5 114.5t119.5 46.5q74 0 121 -46.5t47 -114.5
q0 -67 -47 -113.5t-121 -46.5zM562 1740q-73 0 -120 46.5t-47 113.5q0 68 47 114.5t120 46.5q74 0 120.5 -46.5t46.5 -114.5q0 -67 -46.5 -113.5t-120.5 -46.5z" />
    <glyph glyph-name="Yacute" unicode="&#xdd;" horiz-adv-x="1505" 
d="M591 0v640l-597 957h375l399 -668l392 668h343l-586 -958v-639h-326zM908 1720l417 340h-375l-339 -340h297z" />
    <glyph glyph-name="Thorn" unicode="&#xde;" horiz-adv-x="1475" 
d="M166 0v1597h337v-267h314q191 0 322.5 -67t199.5 -186.5t68 -277.5t-68 -277.5t-200 -186.5t-323 -67h-313v-268h-337zM503 527h283q140 0 213 69.5t73 201.5q0 131 -73 200.5t-213 69.5h-283v-541z" />
    <glyph glyph-name="germandbls" unicode="&#xdf;" horiz-adv-x="1371" 
d="M848 -27q-89 0 -169.5 20t-130.5 51v234q110 -55 222 -55q103 0 168 59.5t65 174.5q0 277 -399 282v220q126 16 204.5 87t78.5 183q0 101 -57.5 160.5t-155.5 59.5q-112 0 -175 -68.5t-63 -190.5v-1190h-300l2 1161q1 259 144 399.5t397 140.5q144 0 254.5 -54.5
t173.5 -152t63 -227.5q0 -131 -69 -226t-197 -141q192 -40 298.5 -165.5t106.5 -305.5q0 -151 -65 -252.5t-170 -152.5t-226 -51z" />
    <glyph glyph-name="agrave" unicode="&#xe0;" horiz-adv-x="1286" 
d="M511 -36q-131 0 -231.5 45.5t-157 129.5t-56.5 198q0 333 469 367q100 7 193 18.5t143 24.5v14q0 103 -57 161.5t-162 58.5q-97 0 -160 -44.5t-81 -121.5h-313q35 176 178 287.5t372 111.5q249 0 382 -124t133 -356v-734h-226q-1 24 -5 57t-9 55q-8 35 -27 35
q-18 0 -40 -29q-57 -74 -141.5 -114t-203.5 -40zM375 350q0 -76 56 -120t150 -44q80 0 143 29.5t101 104.5q22 41 34 94t12 119v20q-46 -13 -121.5 -25t-162.5 -21q-115 -11 -163.5 -48.5t-48.5 -108.5zM523 1314l-303 436h324l218 -436h-239z" />
    <glyph glyph-name="aacute" unicode="&#xe1;" horiz-adv-x="1286" 
d="M511 -36q-131 0 -231.5 45.5t-157 129.5t-56.5 198q0 333 469 367q100 7 193 18.5t143 24.5v14q0 103 -57 161.5t-162 58.5q-97 0 -160 -44.5t-81 -121.5h-313q35 176 178 287.5t372 111.5q249 0 382 -124t133 -356v-734h-226q-1 24 -5 57t-9 55q-8 35 -27 35
q-18 0 -40 -29q-57 -74 -141.5 -114t-203.5 -40zM375 350q0 -76 56 -120t150 -44q80 0 143 29.5t101 104.5q22 41 34 94t12 119v20q-46 -13 -121.5 -25t-162.5 -21q-115 -11 -163.5 -48.5t-48.5 -108.5zM759 1314l303 436h-324l-218 -436h239z" />
    <glyph glyph-name="acircumflex" unicode="&#xe2;" horiz-adv-x="1286" 
d="M511 -36q-131 0 -231.5 45.5t-157 129.5t-56.5 198q0 333 469 367q100 7 193 18.5t143 24.5v14q0 103 -57 161.5t-162 58.5q-97 0 -160 -44.5t-81 -121.5h-313q35 176 178 287.5t372 111.5q249 0 382 -124t133 -356v-734h-226q-1 24 -5 57t-9 55q-8 35 -27 35
q-18 0 -40 -29q-57 -74 -141.5 -114t-203.5 -40zM375 350q0 -76 56 -120t150 -44q80 0 143 29.5t101 104.5q22 41 34 94t12 119v20q-46 -13 -121.5 -25t-162.5 -21q-115 -11 -163.5 -48.5t-48.5 -108.5zM227 1314l301 436h226l301 -436h-206l-168 186q-22 23 -40 23t-40 -23
l-168 -186h-206z" />
    <glyph glyph-name="atilde" unicode="&#xe3;" horiz-adv-x="1286" 
d="M511 -36q-131 0 -231.5 45.5t-157 129.5t-56.5 198q0 333 469 367q100 7 193 18.5t143 24.5v14q0 103 -57 161.5t-162 58.5q-97 0 -160 -44.5t-81 -121.5h-313q35 176 178 287.5t372 111.5q249 0 382 -124t133 -356v-734h-226q-1 24 -5 57t-9 55q-8 35 -27 35
q-18 0 -40 -29q-57 -74 -141.5 -114t-203.5 -40zM375 350q0 -76 56 -120t150 -44q80 0 143 29.5t101 104.5q22 41 34 94t12 119v20q-46 -13 -121.5 -25t-162.5 -21q-115 -11 -163.5 -48.5t-48.5 -108.5zM804 1325q-61 0 -109.5 20.5t-87.5 48t-72.5 48t-65.5 20.5
q-41 0 -66 -31t-35 -84h-173q19 143 91 231t181 88q61 0 109.5 -20.5t87.5 -48t73 -48t66 -20.5q41 0 65.5 32t34.5 84h174q-19 -143 -92 -231.5t-181 -88.5z" />
    <glyph glyph-name="adieresis" unicode="&#xe4;" horiz-adv-x="1286" 
d="M511 -36q-131 0 -231.5 45.5t-157 129.5t-56.5 198q0 333 469 367q100 7 193 18.5t143 24.5v14q0 103 -57 161.5t-162 58.5q-97 0 -160 -44.5t-81 -121.5h-313q35 176 178 287.5t372 111.5q249 0 382 -124t133 -356v-734h-226q-1 24 -5 57t-9 55q-8 35 -27 35
q-18 0 -40 -29q-57 -74 -141.5 -114t-203.5 -40zM375 350q0 -76 56 -120t150 -44q80 0 143 29.5t101 104.5q22 41 34 94t12 119v20q-46 -13 -121.5 -25t-162.5 -21q-115 -11 -163.5 -48.5t-48.5 -108.5zM900 1321q-73 0 -118.5 45t-45.5 112q0 68 45.5 113.5t118.5 45.5
t119.5 -45.5t46.5 -113.5q0 -67 -46.5 -112t-119.5 -45zM381 1321q-73 0 -119 45t-46 112q0 68 46 113.5t119 45.5t119 -45.5t46 -113.5q0 -67 -46 -112t-119 -45z" />
    <glyph glyph-name="aring" unicode="&#xe5;" horiz-adv-x="1286" 
d="M511 -36q-131 0 -231.5 45.5t-157 129.5t-56.5 198q0 333 469 367q100 7 193 18.5t143 24.5v14q0 103 -57 161.5t-162 58.5q-97 0 -160 -44.5t-81 -121.5h-313q35 176 178 287.5t372 111.5q249 0 382 -124t133 -356v-734h-226q-1 24 -5 57t-9 55q-8 35 -27 35
q-18 0 -40 -29q-57 -74 -141.5 -114t-203.5 -40zM375 350q0 -76 56 -120t150 -44q80 0 143 29.5t101 104.5q22 41 34 94t12 119v20q-46 -13 -121.5 -25t-162.5 -21q-115 -11 -163.5 -48.5t-48.5 -108.5zM641 1304q-120 0 -196.5 71.5t-76.5 182.5q0 112 76.5 183.5
t196.5 71.5t196.5 -71.5t76.5 -183.5q0 -111 -76.5 -182.5t-196.5 -71.5zM641 1449q48 0 78.5 31t30.5 78q0 48 -30.5 79t-78.5 31t-78.5 -31t-30.5 -79q0 -47 30.5 -78t78.5 -31z" />
    <glyph glyph-name="ae" unicode="&#xe6;" horiz-adv-x="2135" 
d="M577 -38q-149 1 -264.5 46.5t-181.5 131.5t-66 207q0 158 117.5 250.5t338.5 92.5h349v31q0 262 -226 262q-89 0 -150.5 -45.5t-80.5 -125.5h-313q23 116 91.5 206.5t181 142.5t264.5 52q143 -1 251 -54.5t160 -149.5q71 98 185.5 151.5t254.5 53.5q174 0 304.5 -76
t203 -209t72.5 -305q0 -32 -2 -69t-7 -54h-884q6 -138 86.5 -221t217.5 -83q102 0 171.5 45t94.5 124h302q-44 -187 -194.5 -295.5t-365.5 -108.5q-162 0 -283 63.5t-184 174.5q-54 -114 -172.5 -176.5t-270.5 -61.5zM1480 982q-132 0 -213 -80.5t-91 -211.5l594 -1
q-5 134 -84.5 213.5t-205.5 79.5zM599 182q133 -1 199 76.5t71 242.5h-286q-210 0 -210 -152q0 -76 61 -121.5t165 -45.5z" />
    <glyph glyph-name="ccedilla" unicode="&#xe7;" horiz-adv-x="1374" 
d="M705 -39q-186 0 -330.5 80.5t-227 222t-82.5 324.5t82.5 324t227 221.5t330.5 80.5q257 0 419 -137.5t196 -370.5h-305q-20 116 -100 182t-202 66q-153 0 -246 -101t-93 -265t93 -265.5t246 -101.5q122 0 202 67t100 182h305q-34 -232 -196 -370.5t-419 -138.5zM712 -531
q-159 0 -245.5 87.5t-95.5 227.5h210q5 -65 38.5 -101.5t93.5 -36.5q106 0 106 97q0 121 -243 257h221q104 -47 161 -119t57 -152q0 -113 -79.5 -186.5t-223.5 -73.5z" />
    <glyph glyph-name="egrave" unicode="&#xe8;" horiz-adv-x="1361" 
d="M692 -38q-183 0 -324 78t-221.5 218.5t-80.5 326.5q0 184 81.5 325.5t222 222t317.5 80.5q189 0 325 -77.5t209 -212t73 -305.5q0 -30 -2.5 -68.5t-6.5 -58.5h-910q10 -134 96 -214t222 -80q107 0 180 45t98 124h302q-43 -185 -197 -294.5t-384 -109.5zM693 982
q-132 0 -217.5 -79t-99.5 -208h620q-7 131 -90.5 209t-212.5 78zM566 1316l-303 436h324l218 -436h-239z" />
    <glyph glyph-name="eacute" unicode="&#xe9;" horiz-adv-x="1361" 
d="M692 -38q-183 0 -324 78t-221.5 218.5t-80.5 326.5q0 184 81.5 325.5t222 222t317.5 80.5q189 0 325 -77.5t209 -212t73 -305.5q0 -30 -2.5 -68.5t-6.5 -58.5h-910q10 -134 96 -214t222 -80q107 0 180 45t98 124h302q-43 -185 -197 -294.5t-384 -109.5zM693 982
q-132 0 -217.5 -79t-99.5 -208h620q-7 131 -90.5 209t-212.5 78zM802 1316l303 436h-324l-218 -436h239z" />
    <glyph glyph-name="ecircumflex" unicode="&#xea;" horiz-adv-x="1361" 
d="M692 -38q-183 0 -324 78t-221.5 218.5t-80.5 326.5q0 184 81.5 325.5t222 222t317.5 80.5q189 0 325 -77.5t209 -212t73 -305.5q0 -30 -2.5 -68.5t-6.5 -58.5h-910q10 -134 96 -214t222 -80q107 0 180 45t98 124h302q-43 -185 -197 -294.5t-384 -109.5zM693 982
q-132 0 -217.5 -79t-99.5 -208h620q-7 131 -90.5 209t-212.5 78zM270 1316l301 436h226l301 -436h-206l-168 186q-22 23 -40 23t-40 -23l-168 -186h-206z" />
    <glyph glyph-name="edieresis" unicode="&#xeb;" horiz-adv-x="1361" 
d="M692 -38q-183 0 -324 78t-221.5 218.5t-80.5 326.5q0 184 81.5 325.5t222 222t317.5 80.5q189 0 325 -77.5t209 -212t73 -305.5q0 -30 -2.5 -68.5t-6.5 -58.5h-910q10 -134 96 -214t222 -80q107 0 180 45t98 124h302q-43 -185 -197 -294.5t-384 -109.5zM693 982
q-132 0 -217.5 -79t-99.5 -208h620q-7 131 -90.5 209t-212.5 78zM943 1323q-73 0 -118.5 45t-45.5 112q0 68 45.5 113.5t118.5 45.5t119.5 -45.5t46.5 -113.5q0 -67 -46.5 -112t-119.5 -45zM424 1323q-73 0 -119 45t-46 112q0 68 46 113.5t119 45.5t119 -45.5t46 -113.5
q0 -67 -46 -112t-119 -45z" />
    <glyph glyph-name="igrave" unicode="&#xec;" horiz-adv-x="594" 
d="M152 0v1175h303v-1175h-303zM192 1316l-226 436h298l148 -436h-220z" />
    <glyph glyph-name="iacute" unicode="&#xed;" horiz-adv-x="581" 
d="M139 0v1175h303v-1175h-303zM401 1316l226 436h-298l-148 -436h220z" />
    <glyph glyph-name="icircumflex" unicode="&#xee;" horiz-adv-x="590" 
d="M148 0v1175h303v-1175h-303zM195 1751l-253 -436h184l136 186q20 28 37 28t37 -28l136 -186h184l-253 436h-208z" />
    <glyph glyph-name="idieresis" unicode="&#xef;" horiz-adv-x="581" 
d="M139 0v1175h303v-1175h-303zM508 1318q-73 0 -120 46.5t-47 113.5q0 68 47 114.5t120 46.5q74 0 120.5 -46.5t46.5 -114.5q0 -67 -46.5 -113.5t-120.5 -46.5zM71 1318q-73 0 -119.5 46.5t-46.5 113.5q0 68 46.5 114.5t119.5 46.5q74 0 121 -46.5t47 -114.5
q0 -67 -47 -113.5t-121 -46.5z" />
    <glyph glyph-name="eth" unicode="&#xf0;" horiz-adv-x="1379" 
d="M678 -39q-178 0 -316.5 74t-217.5 204t-79 298q0 163 72.5 291t197.5 202t280 74q78 0 150.5 -22t118.5 -56q15 -10 23 -13.5t14 -3.5q20 0 20 27q0 23 -14.5 62.5t-37.5 81.5q-43 77 -119 151l-345 -143l-1 156l219 91q-111 76 -232 117l202 133q152 -54 276 -149
l288 119v-156l-169 -70q135 -142 211 -335t80 -424q4 -226 -74 -384t-219.5 -241.5t-327.5 -83.5zM678 214q138 0 223.5 90t85.5 234q0 91 -39.5 162.5t-108.5 112.5t-160 41q-138 0 -224 -89.5t-86 -231.5t86.5 -230.5t222.5 -88.5z" />
    <glyph glyph-name="ntilde" unicode="&#xf1;" horiz-adv-x="1390" 
d="M137 0v1175h222q2 -25 6.5 -60.5t8.5 -57.5q10 -50 38 -50q20 0 47 34q65 83 154.5 127.5t213.5 44.5q209 0 324 -126t115 -356v-731h-303v680q0 126 -56.5 195t-163.5 69q-143 0 -223 -108q-79 -106 -79 -299v-537h-304zM865 1327q-61 0 -109.5 20.5t-87.5 48t-72.5 48
t-65.5 20.5q-41 0 -66 -31t-35 -84h-173q19 143 91 231t181 88q61 0 109.5 -20.5t87.5 -48t73 -48t66 -20.5q41 0 65.5 32t34.5 84h174q-19 -143 -92 -231.5t-181 -88.5z" />
    <glyph glyph-name="ograve" unicode="&#xf2;" horiz-adv-x="1437" 
d="M719 -38q-190 0 -338 80.5t-232.5 222t-84.5 323.5t84.5 323t232.5 221.5t338 80.5t337.5 -80.5t232 -221.5t84.5 -323t-84.5 -323.5t-232 -222t-337.5 -80.5zM719 222q155 0 249.5 101.5t94.5 264.5q0 162 -94.5 263.5t-249.5 101.5t-250 -101.5t-95 -263.5
q0 -163 95 -264.5t250 -101.5zM601 1316l-303 436h324l218 -436h-239z" />
    <glyph glyph-name="oacute" unicode="&#xf3;" horiz-adv-x="1437" 
d="M719 -38q-190 0 -338 80.5t-232.5 222t-84.5 323.5t84.5 323t232.5 221.5t338 80.5t337.5 -80.5t232 -221.5t84.5 -323t-84.5 -323.5t-232 -222t-337.5 -80.5zM719 222q155 0 249.5 101.5t94.5 264.5q0 162 -94.5 263.5t-249.5 101.5t-250 -101.5t-95 -263.5
q0 -163 95 -264.5t250 -101.5zM837 1316l303 436h-324l-218 -436h239z" />
    <glyph glyph-name="ocircumflex" unicode="&#xf4;" horiz-adv-x="1437" 
d="M719 -38q-190 0 -338 80.5t-232.5 222t-84.5 323.5t84.5 323t232.5 221.5t338 80.5t337.5 -80.5t232 -221.5t84.5 -323t-84.5 -323.5t-232 -222t-337.5 -80.5zM719 222q155 0 249.5 101.5t94.5 264.5q0 162 -94.5 263.5t-249.5 101.5t-250 -101.5t-95 -263.5
q0 -163 95 -264.5t250 -101.5zM305 1316l301 436h226l301 -436h-206l-168 186q-22 23 -40 23t-40 -23l-168 -186h-206z" />
    <glyph glyph-name="otilde" unicode="&#xf5;" horiz-adv-x="1437" 
d="M719 -38q-190 0 -338 80.5t-232.5 222t-84.5 323.5t84.5 323t232.5 221.5t338 80.5t337.5 -80.5t232 -221.5t84.5 -323t-84.5 -323.5t-232 -222t-337.5 -80.5zM719 222q155 0 249.5 101.5t94.5 264.5q0 162 -94.5 263.5t-249.5 101.5t-250 -101.5t-95 -263.5
q0 -163 95 -264.5t250 -101.5zM882 1327q-61 0 -109.5 20.5t-87.5 48t-72.5 48t-65.5 20.5q-41 0 -66 -31t-35 -84h-173q19 143 91 231t181 88q61 0 109.5 -20.5t87.5 -48t73 -48t66 -20.5q41 0 65.5 32t34.5 84h174q-19 -143 -92 -231.5t-181 -88.5z" />
    <glyph glyph-name="odieresis" unicode="&#xf6;" horiz-adv-x="1437" 
d="M719 -38q-190 0 -338 80.5t-232.5 222t-84.5 323.5t84.5 323t232.5 221.5t338 80.5t337.5 -80.5t232 -221.5t84.5 -323t-84.5 -323.5t-232 -222t-337.5 -80.5zM719 222q155 0 249.5 101.5t94.5 264.5q0 162 -94.5 263.5t-249.5 101.5t-250 -101.5t-95 -263.5
q0 -163 95 -264.5t250 -101.5zM978 1323q-73 0 -118.5 45t-45.5 112q0 68 45.5 113.5t118.5 45.5t119.5 -45.5t46.5 -113.5q0 -67 -46.5 -112t-119.5 -45zM459 1323q-73 0 -119 45t-46 112q0 68 46 113.5t119 45.5t119 -45.5t46 -113.5q0 -67 -46 -112t-119 -45z" />
    <glyph glyph-name="divide" unicode="&#xf7;" horiz-adv-x="1406" 
d="M703 1039q-70 0 -113.5 43.5t-43.5 105.5t43.5 105t113.5 43t114 -43t44 -105t-43.5 -105.5t-114.5 -43.5zM185 637v244h1037v-244h-1037zM703 182q-70 0 -113.5 43.5t-43.5 104.5q0 62 43.5 105.5t113.5 43.5q71 0 114.5 -43.5t43.5 -105.5q0 -61 -44 -104.5t-114 -43.5
z" />
    <glyph glyph-name="oslash" unicode="&#xf8;" horiz-adv-x="1437" 
d="M88 -100l167 233q-90 83 -140.5 199.5t-50.5 255.5q0 182 84.5 323t232.5 221.5t338 80.5q148 0 276 -52l82 114h273l-168 -232q90 -84 140.5 -200t50.5 -255q0 -182 -84.5 -323.5t-232 -222t-337.5 -80.5q-149 0 -277 52l-82 -114h-272zM353 588q0 -147 75 -248l436 606
q-67 26 -145 26q-109 0 -191.5 -48.5t-128.5 -135t-46 -200.5zM719 203q109 0 191.5 48.5t128.5 135t46 201.5q0 147 -76 248l-437 -606q68 -27 147 -27z" />
    <glyph glyph-name="ugrave" unicode="&#xf9;" horiz-adv-x="1385" 
d="M569 -38q-213 0 -329 126.5t-116 355.5v731h303v-680q0 -128 58 -196t168 -68q144 0 216 99q36 48 55.5 118.5t19.5 164.5v562h303v-1175h-221q-1 23 -5 54.5t-9 53.5q-9 50 -37 50q-11 0 -20 -6.5t-28 -27.5q-64 -78 -151 -120t-207 -42zM571 1316l-303 436h324
l218 -436h-239z" />
    <glyph glyph-name="uacute" unicode="&#xfa;" horiz-adv-x="1385" 
d="M569 -38q-213 0 -329 126.5t-116 355.5v731h303v-680q0 -128 58 -196t168 -68q144 0 216 99q36 48 55.5 118.5t19.5 164.5v562h303v-1175h-221q-1 23 -5 54.5t-9 53.5q-9 50 -37 50q-11 0 -20 -6.5t-28 -27.5q-64 -78 -151 -120t-207 -42zM807 1316l303 436h-324
l-218 -436h239z" />
    <glyph glyph-name="ucircumflex" unicode="&#xfb;" horiz-adv-x="1385" 
d="M569 -38q-213 0 -329 126.5t-116 355.5v731h303v-680q0 -128 58 -196t168 -68q144 0 216 99q36 48 55.5 118.5t19.5 164.5v562h303v-1175h-221q-1 23 -5 54.5t-9 53.5q-9 50 -37 50q-11 0 -20 -6.5t-28 -27.5q-64 -78 -151 -120t-207 -42zM275 1316l301 436h226l301 -436
h-206l-168 186q-22 23 -40 23t-40 -23l-168 -186h-206z" />
    <glyph glyph-name="udieresis" unicode="&#xfc;" horiz-adv-x="1385" 
d="M569 -38q-213 0 -329 126.5t-116 355.5v731h303v-680q0 -128 58 -196t168 -68q144 0 216 99q36 48 55.5 118.5t19.5 164.5v562h303v-1175h-221q-1 23 -5 54.5t-9 53.5q-9 50 -37 50q-11 0 -20 -6.5t-28 -27.5q-64 -78 -151 -120t-207 -42zM948 1323q-73 0 -118.5 45
t-45.5 112q0 68 45.5 113.5t118.5 45.5t119.5 -45.5t46.5 -113.5q0 -67 -46.5 -112t-119.5 -45zM429 1323q-73 0 -119 45t-46 112q0 68 46 113.5t119 45.5t119 -45.5t46 -113.5q0 -67 -46 -112t-119 -45z" />
    <glyph glyph-name="yacute" unicode="&#xfd;" horiz-adv-x="1282" 
d="M278 -498l207 499l-484 1174h337l317 -841l311 841h315l-688 -1673h-315zM770 1316l303 436h-324l-218 -436h239z" />
    <glyph glyph-name="thorn" unicode="&#xfe;" horiz-adv-x="1497" 
d="M137 -498v2157h304v-533q0 -28 7 -39t21 -11q12 0 43 24q134 112 328 112q168 0 302 -81t212 -222t78 -321q0 -179 -78 -320.5t-212 -222.5t-302 -81q-193 0 -328 111q-31 23 -43 23q-28 0 -28 -48v-548h-304zM777 224q152 0 247 101t95 263q0 108 -43 190t-120 128
t-179 46q-154 0 -249.5 -101.5t-95.5 -262.5q0 -162 95.5 -263t249.5 -101z" />
    <glyph glyph-name="ydieresis" unicode="&#xff;" horiz-adv-x="1282" 
d="M278 -498l207 499l-484 1174h337l317 -841l311 841h315l-688 -1673h-315zM911 1323q-73 0 -118.5 45t-45.5 112q0 68 45.5 113.5t118.5 45.5t119.5 -45.5t46.5 -113.5q0 -67 -46.5 -112t-119.5 -45zM392 1323q-73 0 -119 45t-46 112q0 68 46 113.5t119 45.5t119 -45.5
t46 -113.5q0 -67 -46 -112t-119 -45z" />
    <glyph glyph-name="Amacron" unicode="&#x100;" horiz-adv-x="1596" 
d="M4 0l563 1597h457l573 -1597h-371l-128 370h-615l-128 -370h-351zM548 613h487l-245 734zM434 1749v198h712v-198h-712z" />
    <glyph glyph-name="amacron" unicode="&#x101;" horiz-adv-x="1286" 
d="M511 -36q-131 0 -231.5 45.5t-157 129.5t-56.5 198q0 333 469 367q100 7 193 18.5t143 24.5v14q0 103 -57 161.5t-162 58.5q-97 0 -160 -44.5t-81 -121.5h-313q35 176 178 287.5t372 111.5q249 0 382 -124t133 -356v-734h-226q-1 24 -5 57t-9 55q-8 35 -27 35
q-18 0 -40 -29q-57 -74 -141.5 -114t-203.5 -40zM375 350q0 -76 56 -120t150 -44q80 0 143 29.5t101 104.5q22 41 34 94t12 119v20q-46 -13 -121.5 -25t-162.5 -21q-115 -11 -163.5 -48.5t-48.5 -108.5zM285 1357v198h712v-198h-712z" />
    <glyph glyph-name="Abreve" unicode="&#x102;" horiz-adv-x="1596" 
d="M4 0l563 1597h457l573 -1597h-371l-128 370h-615l-128 -370h-351zM548 613h487l-245 734zM790 1716q-175 0 -279.5 88.5t-114.5 243.5h194q15 -69 64 -109.5t136 -40.5t136 40.5t64 109.5h194q-10 -155 -114 -243.5t-280 -88.5z" />
    <glyph glyph-name="abreve" unicode="&#x103;" horiz-adv-x="1286" 
d="M511 -36q-131 0 -231.5 45.5t-157 129.5t-56.5 198q0 333 469 367q100 7 193 18.5t143 24.5v14q0 103 -57 161.5t-162 58.5q-97 0 -160 -44.5t-81 -121.5h-313q35 176 178 287.5t372 111.5q249 0 382 -124t133 -356v-734h-226q-1 24 -5 57t-9 55q-8 35 -27 35
q-18 0 -40 -29q-57 -74 -141.5 -114t-203.5 -40zM375 350q0 -76 56 -120t150 -44q80 0 143 29.5t101 104.5q22 41 34 94t12 119v20q-46 -13 -121.5 -25t-162.5 -21q-115 -11 -163.5 -48.5t-48.5 -108.5zM641 1326q-172 0 -275 95t-113 261h188q15 -78 65 -123t135 -45
t135 45t65 123h188q-10 -166 -113 -261t-275 -95z" />
    <glyph glyph-name="Aogonek" unicode="&#x104;" horiz-adv-x="1596" 
d="M4 0l563 1597h457l573 -1597h-371l-128 370h-615l-128 -370h-351zM548 613h487l-245 734zM1494 -534q-141 0 -225 66t-84 181q0 101 74 193t229 177l108 -83q-90 -70 -131.5 -124.5t-41.5 -107.5q0 -46 32.5 -71.5t89.5 -25.5q53 0 102 15v-196q-72 -24 -153 -24z" />
    <glyph glyph-name="aogonek" unicode="&#x105;" horiz-adv-x="1286" 
d="M511 -36q-131 0 -231.5 45.5t-157 129.5t-56.5 198q0 333 469 367q100 7 193 18.5t143 24.5v14q0 103 -57 161.5t-162 58.5q-97 0 -160 -44.5t-81 -121.5h-313q35 176 178 287.5t372 111.5q249 0 382 -124t133 -356v-734h-226q-1 24 -5 57t-9 55q-8 35 -27 35
q-18 0 -40 -29q-57 -74 -141.5 -114t-203.5 -40zM375 350q0 -76 56 -120t150 -44q80 0 143 29.5t101 104.5q22 41 34 94t12 119v20q-46 -13 -121.5 -25t-162.5 -21q-115 -11 -163.5 -48.5t-48.5 -108.5zM1062 -521q-135 0 -215.5 65t-80.5 177q0 176 252 350l145 -71
q-176 -135 -176 -233q0 -49 35 -73.5t90 -24.5q69 0 122 24l1 -180q-74 -34 -173 -34z" />
    <glyph glyph-name="Cacute" unicode="&#x106;" horiz-adv-x="1821" 
d="M934 -40q-188 0 -345.5 62.5t-272.5 176t-178 266.5t-63 334t63 334t178 266.5t272.5 176t345.5 62.5q227 1 402.5 -81t285.5 -232.5t139 -356.5h-349q-30 179 -155 281.5t-312 102.5q-156 0 -271 -70t-178.5 -194.5t-63.5 -288.5t63.5 -288.5t178.5 -194.5t271 -70
q187 0 312 103t155 281h349q-29 -205 -139 -356t-285.5 -232.5t-402.5 -81.5zM1085 1720l417 340h-375l-339 -340h297z" />
    <glyph glyph-name="cacute" unicode="&#x107;" horiz-adv-x="1374" 
d="M705 -39q-186 0 -330.5 80.5t-227 222t-82.5 324.5t82.5 324t227 221.5t330.5 80.5q257 0 419 -137.5t196 -370.5h-305q-20 116 -100 182t-202 66q-153 0 -246 -101t-93 -265t93 -265.5t246 -101.5q122 0 202 67t100 182h305q-34 -232 -196 -370.5t-419 -138.5zM816 1316
l303 436h-324l-218 -436h239z" />
    <glyph glyph-name="Ccircumflex" unicode="&#x108;" horiz-adv-x="1821" 
d="M934 -40q-188 0 -345.5 62.5t-272.5 176t-178 266.5t-63 334t63 334t178 266.5t272.5 176t345.5 62.5q227 1 402.5 -81t285.5 -232.5t139 -356.5h-349q-30 179 -155 281.5t-312 102.5q-156 0 -271 -70t-178.5 -194.5t-63.5 -288.5t63.5 -288.5t178.5 -194.5t271 -70
q187 0 312 103t155 281h349q-29 -205 -139 -356t-285.5 -232.5t-402.5 -81.5zM494 1720l294 351h288l295 -351h-237l-173 158q-16 13 -29 13q-12 0 -28 -13l-173 -158h-237z" />
    <glyph glyph-name="ccircumflex" unicode="&#x109;" horiz-adv-x="1374" 
d="M705 -39q-186 0 -330.5 80.5t-227 222t-82.5 324.5t82.5 324t227 221.5t330.5 80.5q257 0 419 -137.5t196 -370.5h-305q-20 116 -100 182t-202 66q-153 0 -246 -101t-93 -265t93 -265.5t246 -101.5q122 0 202 67t100 182h305q-34 -232 -196 -370.5t-419 -138.5zM284 1316
l301 436h226l301 -436h-206l-168 186q-22 23 -40 23t-40 -23l-168 -186h-206z" />
    <glyph glyph-name="Cdotaccent" unicode="&#x10a;" horiz-adv-x="1821" 
d="M934 -40q-188 0 -345.5 62.5t-272.5 176t-178 266.5t-63 334t63 334t178 266.5t272.5 176t345.5 62.5q227 1 402.5 -81t285.5 -232.5t139 -356.5h-349q-30 179 -155 281.5t-312 102.5q-156 0 -271 -70t-178.5 -194.5t-63.5 -288.5t63.5 -288.5t178.5 -194.5t271 -70
q187 0 312 103t155 281h349q-29 -205 -139 -356t-285.5 -232.5t-402.5 -81.5zM930 1730q-73 0 -120 46t-47 114t47 114t120 46q74 0 121 -46t47 -114t-47 -114t-121 -46z" />
    <glyph glyph-name="cdotaccent" unicode="&#x10b;" horiz-adv-x="1374" 
d="M705 -39q-186 0 -330.5 80.5t-227 222t-82.5 324.5t82.5 324t227 221.5t330.5 80.5q257 0 419 -137.5t196 -370.5h-305q-20 116 -100 182t-202 66q-153 0 -246 -101t-93 -265t93 -265.5t246 -101.5q122 0 202 67t100 182h305q-34 -232 -196 -370.5t-419 -138.5zM697 1325
q-73 0 -119.5 45.5t-46.5 113.5t46.5 113.5t119.5 45.5t119.5 -45.5t46.5 -113.5t-46.5 -113.5t-119.5 -45.5z" />
    <glyph glyph-name="Ccaron" unicode="&#x10c;" horiz-adv-x="1821" 
d="M934 -40q-188 0 -345.5 62.5t-272.5 176t-178 266.5t-63 334t63 334t178 266.5t272.5 176t345.5 62.5q227 1 402.5 -81t285.5 -232.5t139 -356.5h-349q-30 179 -155 281.5t-312 102.5q-156 0 -271 -70t-178.5 -194.5t-63.5 -288.5t63.5 -288.5t178.5 -194.5t271 -70
q187 0 312 103t155 281h349q-29 -205 -139 -356t-285.5 -232.5t-402.5 -81.5zM493 2071l294 -351h288l295 351h-237l-173 -158q-16 -13 -29 -13q-12 0 -28 13l-173 158h-237z" />
    <glyph glyph-name="ccaron" unicode="&#x10d;" horiz-adv-x="1374" 
d="M705 -39q-186 0 -330.5 80.5t-227 222t-82.5 324.5t82.5 324t227 221.5t330.5 80.5q257 0 419 -137.5t196 -370.5h-305q-20 116 -100 182t-202 66q-153 0 -246 -101t-93 -265t93 -265.5t246 -101.5q122 0 202 67t100 182h305q-34 -232 -196 -370.5t-419 -138.5zM284 1751
l301 -436h226l301 436h-206l-168 -186q-22 -23 -40 -23t-40 23l-168 186h-206z" />
    <glyph glyph-name="Dcaron" unicode="&#x10e;" horiz-adv-x="1741" 
d="M166 0v1597h657q252 0 441 -98.5t294 -278t105 -421.5t-105 -422t-294 -278.5t-441 -98.5h-657zM504 269h294q242 0 375.5 138.5t133.5 391.5q0 252 -133.5 390.5t-375.5 138.5h-294v-1059zM380 2071l294 -351h288l295 351h-237l-173 -158q-16 -13 -29 -13q-12 0 -28 13
l-173 158h-237z" />
    <glyph glyph-name="dcaron" unicode="&#x10f;" horiz-adv-x="1674" 
d="M654 -36q-166 0 -299 81t-211.5 221.5t-78.5 318.5q0 181 78 322t212.5 222.5t303.5 81.5q113 0 201.5 -35.5t143.5 -94.5q17 -16 31 -16q21 0 21 34v560h304v-1659h-225q-2 26 -5 57t-8 56q-9 44 -34 44q-19 0 -54 -35q-67 -73 -159 -115.5t-221 -42.5zM721 224
q154 0 248.5 101t94.5 263q0 161 -94.5 262t-248.5 101q-102 0 -179 -46t-120.5 -128t-43.5 -189t43.5 -189.5t120.5 -128.5t179 -46zM1472 1136l38 523h275l-97 -523h-216z" />
    <glyph glyph-name="Dcroat" unicode="&#x110;" horiz-adv-x="1850" 
d="M275 0v682h-241v241h241v674h656q253 0 442 -98.5t294 -278t105 -421.5t-105 -422t-294 -278.5t-442 -98.5h-656zM613 269h293q243 0 376.5 138.5t133.5 391.5q0 252 -133.5 390.5t-376.5 138.5h-293v-405h412v-241h-412v-413z" />
    <glyph glyph-name="dcroat" unicode="&#x111;" horiz-adv-x="1496" 
d="M654 -36q-166 0 -299 81t-211.5 221.5t-78.5 318.5q0 181 78 322t212.5 222.5t303.5 81.5q113 0 201.5 -35.5t143.5 -94.5q17 -16 31 -16q21 0 21 34v227h-348v173h348v160h304v-160h161v-173h-161v-1326h-225q-2 26 -5 57t-8 56q-9 44 -34 44q-19 0 -54 -35
q-67 -73 -159 -115.5t-221 -42.5zM721 224q154 0 248.5 101t94.5 263q0 161 -94.5 262t-248.5 101q-102 0 -179 -46t-120.5 -128t-43.5 -189t43.5 -189.5t120.5 -128.5t179 -46z" />
    <glyph glyph-name="Emacron" unicode="&#x112;" horiz-adv-x="1363" 
d="M166 0v1597h1090v-272h-760v-386h658v-264h-658v-403h800v-272h-1130zM365 1749v198h712v-198h-712z" />
    <glyph glyph-name="emacron" unicode="&#x113;" horiz-adv-x="1361" 
d="M692 -38q-183 0 -324 78t-221.5 218.5t-80.5 326.5q0 184 81.5 325.5t222 222t317.5 80.5q189 0 325 -77.5t209 -212t73 -305.5q0 -30 -2.5 -68.5t-6.5 -58.5h-910q10 -134 96 -214t222 -80q107 0 180 45t98 124h302q-43 -185 -197 -294.5t-384 -109.5zM693 982
q-132 0 -217.5 -79t-99.5 -208h620q-7 131 -90.5 209t-212.5 78zM328 1359v198h712v-198h-712z" />
    <glyph glyph-name="Ebreve" unicode="&#x114;" horiz-adv-x="1363" 
d="M166 0v1597h1090v-272h-760v-386h658v-264h-658v-403h800v-272h-1130zM721 1716q-175 0 -279.5 88.5t-114.5 243.5h194q15 -69 64 -109.5t136 -40.5t136 40.5t64 109.5h194q-10 -155 -114 -243.5t-280 -88.5z" />
    <glyph glyph-name="ebreve" unicode="&#x115;" horiz-adv-x="1361" 
d="M692 -38q-183 0 -324 78t-221.5 218.5t-80.5 326.5q0 184 81.5 325.5t222 222t317.5 80.5q189 0 325 -77.5t209 -212t73 -305.5q0 -30 -2.5 -68.5t-6.5 -58.5h-910q10 -134 96 -214t222 -80q107 0 180 45t98 124h302q-43 -185 -197 -294.5t-384 -109.5zM693 982
q-132 0 -217.5 -79t-99.5 -208h620q-7 131 -90.5 209t-212.5 78zM684 1328q-172 0 -275 95t-113 261h188q15 -78 65 -123t135 -45t135 45t65 123h188q-10 -166 -113 -261t-275 -95z" />
    <glyph glyph-name="Edotaccent" unicode="&#x116;" horiz-adv-x="1363" 
d="M166 0v1597h1090v-272h-760v-386h658v-264h-658v-403h800v-272h-1130zM720 1730q-73 0 -120 46t-47 114t47 114t120 46q74 0 121 -46t47 -114t-47 -114t-121 -46z" />
    <glyph glyph-name="edotaccent" unicode="&#x117;" horiz-adv-x="1361" 
d="M692 -38q-183 0 -324 78t-221.5 218.5t-80.5 326.5q0 184 81.5 325.5t222 222t317.5 80.5q189 0 325 -77.5t209 -212t73 -305.5q0 -30 -2.5 -68.5t-6.5 -58.5h-910q10 -134 96 -214t222 -80q107 0 180 45t98 124h302q-43 -185 -197 -294.5t-384 -109.5zM693 982
q-132 0 -217.5 -79t-99.5 -208h620q-7 131 -90.5 209t-212.5 78zM683 1325q-73 0 -119.5 45.5t-46.5 113.5t46.5 113.5t119.5 45.5t119.5 -45.5t46.5 -113.5t-46.5 -113.5t-119.5 -45.5z" />
    <glyph glyph-name="Eogonek" unicode="&#x118;" horiz-adv-x="1363" 
d="M166 0v1597h1090v-272h-760v-386h658v-264h-658v-403h800v-272h-1130zM1194 -534q-141 0 -225 66t-84 181q0 101 74 193t229 177l108 -83q-90 -70 -131.5 -124.5t-41.5 -107.5q0 -46 32.5 -71.5t89.5 -25.5q53 0 102 15v-196q-72 -24 -153 -24z" />
    <glyph glyph-name="eogonek" unicode="&#x119;" horiz-adv-x="1361" 
d="M692 -38q-183 0 -324 78t-221.5 218.5t-80.5 326.5q0 184 81.5 325.5t222 222t317.5 80.5q189 0 325 -77.5t209 -212t73 -305.5q0 -30 -2.5 -68.5t-6.5 -58.5h-910q10 -134 96 -214t222 -80q107 0 180 45t98 124h302q-43 -185 -197 -294.5t-384 -109.5zM693 982
q-132 0 -217.5 -79t-99.5 -208h620q-7 131 -90.5 209t-212.5 78zM957 -494q-130 0 -210 63.5t-80 172.5q0 107 77.5 196t250.5 181l84 -54q-191 -131 -191 -261q0 -55 35 -81t91 -26q57 0 120 22l1 -178q-80 -35 -178 -35z" />
    <glyph glyph-name="Ecaron" unicode="&#x11a;" horiz-adv-x="1363" 
d="M166 0v1597h1090v-272h-760v-386h658v-264h-658v-403h800v-272h-1130zM283 2071l294 -351h288l295 351h-237l-173 -158q-16 -13 -29 -13q-12 0 -28 13l-173 158h-237z" />
    <glyph glyph-name="ecaron" unicode="&#x11b;" horiz-adv-x="1361" 
d="M692 -38q-183 0 -324 78t-221.5 218.5t-80.5 326.5q0 184 81.5 325.5t222 222t317.5 80.5q189 0 325 -77.5t209 -212t73 -305.5q0 -30 -2.5 -68.5t-6.5 -58.5h-910q10 -134 96 -214t222 -80q107 0 180 45t98 124h302q-43 -185 -197 -294.5t-384 -109.5zM693 982
q-132 0 -217.5 -79t-99.5 -208h620q-7 131 -90.5 209t-212.5 78zM270 1751l301 -436h226l301 436h-206l-168 -186q-22 -23 -40 -23t-40 23l-168 186h-206z" />
    <glyph glyph-name="Gcircumflex" unicode="&#x11c;" horiz-adv-x="1841" 
d="M882 -34q-174 0 -321.5 59.5t-256 169.5t-168.5 262t-60 338t63.5 340.5t179 266.5t273.5 173.5t348 61.5q220 0 392 -75.5t281 -215.5t138 -333h-352q-36 161 -153.5 249.5t-295.5 88.5q-150 0 -267 -67t-183.5 -190.5t-66.5 -292.5q0 -168 64 -292.5t178.5 -193.5
t266.5 -69q151 0 254 61t162 177q29 56 45.5 125.5t23.5 143.5h303v-753h-231q-4 45 -8.5 89.5t-10.5 73.5q-12 52 -40 52q-13 0 -25 -8t-33 -31q-83 -99 -211.5 -154.5t-288.5 -55.5zM494 1720l294 351h288l295 -351h-237l-173 158q-16 13 -29 13q-12 0 -28 -13l-173 -158
h-237z" />
    <glyph glyph-name="gcircumflex" unicode="&#x11d;" horiz-adv-x="1455" 
d="M723 -514q-170 0 -298 57t-209.5 157.5t-113.5 230.5h304q29 -105 114.5 -162t203.5 -57q147 0 225.5 75t78.5 220v130q0 33 -21 33q-14 0 -33 -19q-57 -56 -143 -86.5t-187 -30.5q-166 0 -296 75.5t-205 207t-75 297.5q0 179 77 313t204.5 208.5t281.5 74.5
q116 0 205 -39.5t164 -116.5q19 -19 28 -25t21 -6q24 0 34 43q10 58 12 109h225v-1147q0 -173 -73.5 -294t-207.5 -184.5t-316 -63.5zM705 279q146 0 236 93t90 242t-90 242t-236 93t-236 -93t-90 -242q0 -148 90 -241.5t236 -93.5zM326 1316l301 436h226l301 -436h-206
l-168 186q-22 23 -40 23t-40 -23l-168 -186h-206z" />
    <glyph glyph-name="Gbreve" unicode="&#x11e;" horiz-adv-x="1841" 
d="M882 -34q-174 0 -321.5 59.5t-256 169.5t-168.5 262t-60 338t63.5 340.5t179 266.5t273.5 173.5t348 61.5q220 0 392 -75.5t281 -215.5t138 -333h-352q-36 161 -153.5 249.5t-295.5 88.5q-150 0 -267 -67t-183.5 -190.5t-66.5 -292.5q0 -168 64 -292.5t178.5 -193.5
t266.5 -69q151 0 254 61t162 177q29 56 45.5 125.5t23.5 143.5h303v-753h-231q-4 45 -8.5 89.5t-10.5 73.5q-12 52 -40 52q-13 0 -25 -8t-33 -31q-83 -99 -211.5 -154.5t-288.5 -55.5zM931 1716q-175 0 -279.5 88.5t-114.5 243.5h194q15 -69 64 -109.5t136 -40.5t136 40.5
t64 109.5h194q-10 -155 -114 -243.5t-280 -88.5z" />
    <glyph glyph-name="gbreve" unicode="&#x11f;" horiz-adv-x="1455" 
d="M723 -514q-170 0 -298 57t-209.5 157.5t-113.5 230.5h304q29 -105 114.5 -162t203.5 -57q147 0 225.5 75t78.5 220v130q0 33 -21 33q-14 0 -33 -19q-57 -56 -143 -86.5t-187 -30.5q-166 0 -296 75.5t-205 207t-75 297.5q0 179 77 313t204.5 208.5t281.5 74.5
q116 0 205 -39.5t164 -116.5q19 -19 28 -25t21 -6q24 0 34 43q10 58 12 109h225v-1147q0 -173 -73.5 -294t-207.5 -184.5t-316 -63.5zM705 279q146 0 236 93t90 242t-90 242t-236 93t-236 -93t-90 -242q0 -148 90 -241.5t236 -93.5zM740 1328q-172 0 -275 95t-113 261h188
q15 -78 65 -123t135 -45t135 45t65 123h188q-10 -166 -113 -261t-275 -95z" />
    <glyph glyph-name="Gdotaccent" unicode="&#x120;" horiz-adv-x="1841" 
d="M882 -34q-174 0 -321.5 59.5t-256 169.5t-168.5 262t-60 338t63.5 340.5t179 266.5t273.5 173.5t348 61.5q220 0 392 -75.5t281 -215.5t138 -333h-352q-36 161 -153.5 249.5t-295.5 88.5q-150 0 -267 -67t-183.5 -190.5t-66.5 -292.5q0 -168 64 -292.5t178.5 -193.5
t266.5 -69q151 0 254 61t162 177q29 56 45.5 125.5t23.5 143.5h303v-753h-231q-4 45 -8.5 89.5t-10.5 73.5q-12 52 -40 52q-13 0 -25 -8t-33 -31q-83 -99 -211.5 -154.5t-288.5 -55.5zM930 1730q-73 0 -120 46t-47 114t47 114t120 46q74 0 121 -46t47 -114t-47 -114
t-121 -46z" />
    <glyph glyph-name="gdotaccent" unicode="&#x121;" horiz-adv-x="1455" 
d="M723 -514q-170 0 -298 57t-209.5 157.5t-113.5 230.5h304q29 -105 114.5 -162t203.5 -57q147 0 225.5 75t78.5 220v130q0 33 -21 33q-14 0 -33 -19q-57 -56 -143 -86.5t-187 -30.5q-166 0 -296 75.5t-205 207t-75 297.5q0 179 77 313t204.5 208.5t281.5 74.5
q116 0 205 -39.5t164 -116.5q19 -19 28 -25t21 -6q24 0 34 43q10 58 12 109h225v-1147q0 -173 -73.5 -294t-207.5 -184.5t-316 -63.5zM705 279q146 0 236 93t90 242t-90 242t-236 93t-236 -93t-90 -242q0 -148 90 -241.5t236 -93.5zM739 1325q-73 0 -119.5 45.5t-46.5 113.5
t46.5 113.5t119.5 45.5t119.5 -45.5t46.5 -113.5t-46.5 -113.5t-119.5 -45.5z" />
    <glyph glyph-name="uni0122" unicode="&#x122;" horiz-adv-x="1841" 
d="M882 -34q-174 0 -321.5 59.5t-256 169.5t-168.5 262t-60 338t63.5 340.5t179 266.5t273.5 173.5t348 61.5q220 0 392 -75.5t281 -215.5t138 -333h-352q-36 161 -153.5 249.5t-295.5 88.5q-150 0 -267 -67t-183.5 -190.5t-66.5 -292.5q0 -168 64 -292.5t178.5 -193.5
t266.5 -69q151 0 254 61t162 177q29 56 45.5 125.5t23.5 143.5h303v-753h-231q-4 45 -8.5 89.5t-10.5 73.5q-12 52 -40 52q-13 0 -25 -8t-33 -31q-83 -99 -211.5 -154.5t-288.5 -55.5zM812 -541l80 423h261l-141 -423h-200z" />
    <glyph glyph-name="uni0123" unicode="&#x123;" horiz-adv-x="1455" 
d="M723 -514q-170 0 -298 57t-209.5 157.5t-113.5 230.5h304q29 -105 114.5 -162t203.5 -57q147 0 225.5 75t78.5 220v130q0 33 -21 33q-14 0 -33 -19q-57 -56 -143 -86.5t-187 -30.5q-166 0 -296 75.5t-205 207t-75 297.5q0 179 77 313t204.5 208.5t281.5 74.5
q116 0 205 -39.5t164 -116.5q19 -19 28 -25t21 -6q24 0 34 43q10 58 12 109h225v-1147q0 -173 -73.5 -294t-207.5 -184.5t-316 -63.5zM705 279q146 0 236 93t90 242t-90 242t-236 93t-236 -93t-90 -242q0 -148 90 -241.5t236 -93.5zM955 1779l-88 -463h-261l155 463h194z
" />
    <glyph glyph-name="Hcircumflex" unicode="&#x124;" horiz-adv-x="1721" 
d="M166 0v1597h338v-654h713v654h338v-1597h-338v674h-713v-674h-338zM424 1720l294 351h288l295 -351h-237l-173 158q-16 13 -29 13q-12 0 -28 -13l-173 -158h-237z" />
    <glyph glyph-name="hcircumflex" unicode="&#x125;" horiz-adv-x="1390" 
d="M137 0v1659h304v-596q0 -37 22 -37q15 0 37 30q60 76 143.5 116.5t197.5 40.5q198 0 311.5 -126.5t113.5 -356.5v-730h-303v680q0 126 -56.5 195t-163.5 69q-143 0 -223 -108q-79 -106 -79 -299v-537h-304zM-148 1782l294 351h288l295 -351h-237l-173 158q-16 13 -29 13
q-12 0 -28 -13l-173 -158h-237z" />
    <glyph glyph-name="Hbar" unicode="&#x126;" horiz-adv-x="1917" 
d="M264 0v1162h-226v197h226v238h338v-238h713v238h338v-238h225v-197h-225v-1162h-338v669h-713v-669h-338zM602 923h713v239h-713v-239z" />
    <glyph glyph-name="hbar" unicode="&#x127;" horiz-adv-x="1390" 
d="M137 0v1326h-176v173h176v160h304v-160h332v-173h-332v-263q0 -37 22 -37q15 0 37 30q60 76 143.5 116.5t197.5 40.5q198 0 311.5 -126.5t113.5 -356.5v-730h-303v680q0 126 -56.5 195t-163.5 69q-143 0 -223 -108q-79 -106 -79 -299v-537h-304z" />
    <glyph glyph-name="Itilde" unicode="&#x128;" horiz-adv-x="670" 
d="M166 0v1597h338v-1597h-338zM504 1725q-61 0 -109.5 20.5t-87.5 48t-72.5 48t-65.5 20.5q-41 0 -66 -31t-35 -84h-173q19 143 91 231t181 88q61 0 109.5 -20.5t87.5 -48t73 -48t66 -20.5q41 0 65.5 32t34.5 84h174q-19 -143 -92 -231.5t-181 -88.5z" />
    <glyph glyph-name="itilde" unicode="&#x129;" horiz-adv-x="590" 
d="M148 0v1175h303v-1175h-303zM441 1342q-65 0 -115 30.5t-90 60.5t-76 30q-62 0 -74 -104h-164q8 128 68.5 213.5t166.5 85.5q65 0 115 -30t90 -60t76 -30q62 0 74 103h164q-8 -127 -68.5 -213t-166.5 -86z" />
    <glyph glyph-name="Imacron" unicode="&#x12a;" horiz-adv-x="670" 
d="M166 0v1597h338v-1597h-338zM-20 1749v198h712v-198h-712z" />
    <glyph glyph-name="imacron" unicode="&#x12b;" horiz-adv-x="581" 
d="M139 0v1175h303v-1175h-303zM19 1359v198h542v-198h-542z" />
    <glyph glyph-name="Ibreve" unicode="&#x12c;" horiz-adv-x="670" 
d="M166 0v1597h338v-1597h-338zM336 1716q-175 0 -279.5 88.5t-114.5 243.5h194q15 -69 64 -109.5t136 -40.5t136 40.5t64 109.5h194q-10 -155 -114 -243.5t-280 -88.5z" />
    <glyph glyph-name="ibreve" unicode="&#x12d;" horiz-adv-x="594" 
d="M152 0v1175h303v-1175h-303zM302 1328q-163 0 -246 99.5t-79 256.5h168q11 -176 157 -176t157 176h168q4 -157 -79 -256.5t-246 -99.5z" />
    <glyph glyph-name="Iogonek" unicode="&#x12e;" horiz-adv-x="670" 
d="M166 0v1597h338v-1597h-338zM402 -534q-141 0 -225 66t-84 181q0 101 74 193t229 177l108 -83q-90 -70 -131.5 -124.5t-41.5 -107.5q0 -46 32.5 -71.5t89.5 -25.5q53 0 102 15v-196q-72 -24 -153 -24z" />
    <glyph glyph-name="iogonek" unicode="&#x12f;" horiz-adv-x="581" 
d="M139 0v1175h303v-1175h-303zM289 1325q-73 0 -119.5 45.5t-46.5 113.5t46.5 113.5t119.5 45.5t119.5 -45.5t46.5 -113.5t-46.5 -113.5t-119.5 -45.5zM341 -521q-135 0 -215.5 65t-80.5 177q0 176 252 350l145 -71q-176 -135 -176 -233q0 -49 35 -73.5t90 -24.5
q69 0 122 24l1 -180q-74 -34 -173 -34z" />
    <glyph glyph-name="Idotaccent" unicode="&#x130;" horiz-adv-x="670" 
d="M166 0v1597h338v-1597h-338zM335 1730q-73 0 -120 46t-47 114t47 114t120 46q74 0 121 -46t47 -114t-47 -114t-121 -46z" />
    <glyph glyph-name="dotlessi" unicode="&#x131;" horiz-adv-x="581" 
d="M139 0v1175h303v-1175h-303z" />
    <glyph glyph-name="IJ" unicode="&#x132;" horiz-adv-x="1614" 
d="M148 724v873h338v-873h-338zM833 -40q-186 0 -331.5 70.5t-237.5 204t-121 320.5h347q28 -151 113 -235t231 -84q292 0 292 340v1021h338v-1011q0 -289 -163 -457.5t-468 -168.5z" />
    <glyph glyph-name="ij" unicode="&#x133;" horiz-adv-x="1164" 
d="M291 1346q-81 0 -133 49.5t-52 124.5q0 74 52 123.5t133 49.5t133 -49.5t52 -123.5q0 -75 -52 -124.5t-133 -49.5zM139 0v1175h304v-1175h-304zM873 1346q-81 0 -133 49.5t-52 124.5q0 74 52 123.5t133 49.5t133 -49.5t52 -123.5q0 -75 -52 -124.5t-133 -49.5zM721 -487
v1662h304v-1662h-304z" />
    <glyph glyph-name="Jcircumflex" unicode="&#x134;" horiz-adv-x="1487" 
d="M706 -40q-186 0 -331.5 70.5t-237.5 204t-121 320.5h347q28 -151 113 -235t231 -84q292 0 292 340v1021h338v-1011q0 -289 -163 -457.5t-468 -168.5zM731 1720l294 351h288l295 -351h-237l-173 158q-16 13 -29 13q-12 0 -28 -13l-173 -158h-237z" />
    <glyph glyph-name="jcircumflex" unicode="&#x135;" horiz-adv-x="590" 
d="M148 -487v1662h303v-1662h-303zM196 1751l-253 -436h184l136 186q20 28 37 28t37 -28l136 -186h184l-253 436h-208z" />
    <glyph glyph-name="uni0136" unicode="&#x136;" horiz-adv-x="1544" 
d="M166 0v1597h338v-771l647 771h399l-667 -774l691 -823h-430l-640 778v-778h-338zM594 -541l80 423h261l-141 -423h-200z" />
    <glyph glyph-name="uni0137" unicode="&#x137;" horiz-adv-x="1271" 
d="M137 0v1659h304v-1045l460 561h369l-487 -572l520 -603h-390l-472 563v-563h-304zM456 -616l88 463h261l-155 -463h-194z" />
    <glyph glyph-name="Lacute" unicode="&#x139;" horiz-adv-x="1238" 
d="M166 0v1597h338v-1324h708v-273h-1046zM489 1720l417 340h-375l-339 -340h297z" />
    <glyph glyph-name="lacute" unicode="&#x13a;" horiz-adv-x="582" 
d="M139 0v1659h304v-1659h-304zM155 1782l233 340h334l-299 -340h-268z" />
    <glyph glyph-name="uni013B" unicode="&#x13b;" horiz-adv-x="1238" 
d="M166 0v1597h338v-1324h708v-273h-1046zM501 -541l80 423h261l-141 -423h-200z" />
    <glyph glyph-name="uni013C" unicode="&#x13c;" horiz-adv-x="582" 
d="M139 0v1659h304v-1659h-304zM71 -616l88 463h261l-155 -463h-194z" />
    <glyph glyph-name="Lcaron" unicode="&#x13d;" horiz-adv-x="1238" 
d="M166 0v1597h338v-1324h708v-273h-1046zM726 1074l38 523h275l-97 -523h-216z" />
    <glyph glyph-name="lcaron" unicode="&#x13e;" horiz-adv-x="756" 
d="M139 0v1659h304v-1659h-304zM555 1136l38 523h275l-97 -523h-216z" />
    <glyph glyph-name="Ldot" unicode="&#x13f;" horiz-adv-x="1246" 
d="M166 0v1597h338v-1324h708v-273h-1046zM929 710q-76 0 -123.5 47t-47.5 117t47.5 117t123.5 47t123.5 -47t47.5 -117t-47.5 -117t-123.5 -47z" />
    <glyph glyph-name="ldot" unicode="&#x140;" horiz-adv-x="894" 
d="M139 0v1659h304v-1659h-304zM738 664q-76 0 -123.5 47t-47.5 117t47.5 117t123.5 47t123.5 -47t47.5 -117t-47.5 -117t-123.5 -47z" />
    <glyph glyph-name="Lslash" unicode="&#x141;" horiz-adv-x="1351" 
d="M278 0v488l-217 -111v255l217 111v854h338v-680l424 218v-257l-424 -217v-388h707v-273h-1045z" />
    <glyph glyph-name="lslash" unicode="&#x142;" horiz-adv-x="923" 
d="M323 0v613l-268 -140v233l268 140v813h303v-655l268 140v-233l-268 -140v-771h-303z" />
    <glyph glyph-name="Nacute" unicode="&#x143;" horiz-adv-x="1746" 
d="M166 0v1597h375l728 -1163v1163h311v-1597h-375l-728 1160v-1160h-311zM1030 1720l417 340h-375l-339 -340h297z" />
    <glyph glyph-name="nacute" unicode="&#x144;" horiz-adv-x="1390" 
d="M137 0v1175h222q2 -25 6.5 -60.5t8.5 -57.5q10 -50 38 -50q20 0 47 34q65 83 154.5 127.5t213.5 44.5q209 0 324 -126t115 -356v-731h-303v680q0 126 -56.5 195t-163.5 69q-143 0 -223 -108q-79 -106 -79 -299v-537h-304zM820 1316l303 436h-324l-218 -436h239z" />
    <glyph glyph-name="uni0145" unicode="&#x145;" horiz-adv-x="1746" 
d="M166 0v1597h375l728 -1163v1163h311v-1597h-375l-728 1160v-1160h-311zM662 -541l80 423h261l-141 -423h-200z" />
    <glyph glyph-name="uni0146" unicode="&#x146;" horiz-adv-x="1390" 
d="M137 0v1175h222q2 -25 6.5 -60.5t8.5 -57.5q10 -50 38 -50q20 0 47 34q65 83 154.5 127.5t213.5 44.5q209 0 324 -126t115 -356v-731h-303v680q0 126 -56.5 195t-163.5 69q-143 0 -223 -108q-79 -106 -79 -299v-537h-304zM484 -616l88 463h261l-155 -463h-194z" />
    <glyph glyph-name="Ncaron" unicode="&#x147;" horiz-adv-x="1746" 
d="M166 0v1597h375l728 -1163v1163h311v-1597h-375l-728 1160v-1160h-311zM438 2071l294 -351h288l295 351h-237l-173 -158q-16 -13 -29 -13q-12 0 -28 13l-173 158h-237z" />
    <glyph glyph-name="ncaron" unicode="&#x148;" horiz-adv-x="1390" 
d="M137 0v1175h222q2 -25 6.5 -60.5t8.5 -57.5q10 -50 38 -50q20 0 47 34q65 83 154.5 127.5t213.5 44.5q209 0 324 -126t115 -356v-731h-303v680q0 126 -56.5 195t-163.5 69q-143 0 -223 -108q-79 -106 -79 -299v-537h-304zM288 1751l301 -436h226l301 436h-206l-168 -186
q-22 -23 -40 -23t-40 23l-168 186h-206z" />
    <glyph glyph-name="Eng" unicode="&#x14a;" horiz-adv-x="1761" 
d="M1196 -514q-70 0 -165 17t-170 54v250q55 -22 115.5 -35t126.5 -13q90 0 130.5 51t40.5 157v973q0 192 -83.5 299.5t-238.5 107.5q-106 0 -188 -43.5t-139 -123.5q-58 -82 -90 -201t-32 -268v-711h-337v1597h249q1 -37 7 -96.5t10 -88.5q13 -69 49 -69q15 0 26 9t32 36
q88 117 209.5 183.5t290.5 66.5q269 0 420.5 -170t151.5 -478v-989q0 -276 -99 -395.5t-316 -119.5z" />
    <glyph glyph-name="eng" unicode="&#x14b;" horiz-adv-x="1390" 
d="M836 -514q-73 0 -148 17.5t-125 45.5v220q46 -19 94.5 -30t98.5 -11q207 0 207 197v755q0 126 -56.5 195t-163.5 69q-143 0 -223 -108q-79 -106 -79 -299v-537h-304v1175h222q2 -25 6.5 -60.5t8.5 -57.5q10 -50 38 -50q20 0 47 34q65 83 154.5 127.5t213.5 44.5
q209 0 324 -126t115 -356v-822q0 -207 -108 -315t-322 -108z" />
    <glyph glyph-name="Omacron" unicode="&#x14c;" horiz-adv-x="1892" 
d="M946 -40q-194 0 -354 62.5t-275.5 175.5t-178.5 266.5t-63 334.5q0 182 63 335t178.5 266t275.5 175.5t354 62.5t354 -62.5t275.5 -175.5t178 -266t62.5 -335q0 -181 -62.5 -334.5t-178 -266.5t-275.5 -175.5t-354 -62.5zM946 250q153 0 269 68.5t180.5 192.5t64.5 288
q0 165 -64.5 288.5t-180.5 192t-269 68.5t-269 -68.5t-180.5 -192t-64.5 -288.5q0 -164 64.5 -288t180.5 -192.5t269 -68.5zM590 1749v198h712v-198h-712z" />
    <glyph glyph-name="omacron" unicode="&#x14d;" horiz-adv-x="1437" 
d="M719 -38q-190 0 -338 80.5t-232.5 222t-84.5 323.5t84.5 323t232.5 221.5t338 80.5t337.5 -80.5t232 -221.5t84.5 -323t-84.5 -323.5t-232 -222t-337.5 -80.5zM719 222q155 0 249.5 101.5t94.5 264.5q0 162 -94.5 263.5t-249.5 101.5t-250 -101.5t-95 -263.5
q0 -163 95 -264.5t250 -101.5zM363 1359v198h712v-198h-712z" />
    <glyph glyph-name="Obreve" unicode="&#x14e;" horiz-adv-x="1892" 
d="M946 -40q-194 0 -354 62.5t-275.5 175.5t-178.5 266.5t-63 334.5q0 182 63 335t178.5 266t275.5 175.5t354 62.5t354 -62.5t275.5 -175.5t178 -266t62.5 -335q0 -181 -62.5 -334.5t-178 -266.5t-275.5 -175.5t-354 -62.5zM946 250q153 0 269 68.5t180.5 192.5t64.5 288
q0 165 -64.5 288.5t-180.5 192t-269 68.5t-269 -68.5t-180.5 -192t-64.5 -288.5q0 -164 64.5 -288t180.5 -192.5t269 -68.5zM946 1716q-175 0 -279.5 88.5t-114.5 243.5h194q15 -69 64 -109.5t136 -40.5t136 40.5t64 109.5h194q-10 -155 -114 -243.5t-280 -88.5z" />
    <glyph glyph-name="obreve" unicode="&#x14f;" horiz-adv-x="1437" 
d="M719 -38q-190 0 -338 80.5t-232.5 222t-84.5 323.5t84.5 323t232.5 221.5t338 80.5t337.5 -80.5t232 -221.5t84.5 -323t-84.5 -323.5t-232 -222t-337.5 -80.5zM719 222q155 0 249.5 101.5t94.5 264.5q0 162 -94.5 263.5t-249.5 101.5t-250 -101.5t-95 -263.5
q0 -163 95 -264.5t250 -101.5zM719 1328q-172 0 -275 95t-113 261h188q15 -78 65 -123t135 -45t135 45t65 123h188q-10 -166 -113 -261t-275 -95z" />
    <glyph glyph-name="Ohungarumlaut" unicode="&#x150;" horiz-adv-x="1892" 
d="M946 -40q-194 0 -354 62.5t-275.5 175.5t-178.5 266.5t-63 334.5q0 182 63 335t178.5 266t275.5 175.5t354 62.5t354 -62.5t275.5 -175.5t178 -266t62.5 -335q0 -181 -62.5 -334.5t-178 -266.5t-275.5 -175.5t-354 -62.5zM946 250q153 0 269 68.5t180.5 192.5t64.5 288
q0 165 -64.5 288.5t-180.5 192t-269 68.5t-269 -68.5t-180.5 -192t-64.5 -288.5q0 -164 64.5 -288t180.5 -192.5t269 -68.5zM1057 1720l352 340h361l-414 -340h-299zM531 1720l323 340h360l-385 -340h-298z" />
    <glyph glyph-name="ohungarumlaut" unicode="&#x151;" horiz-adv-x="1437" 
d="M719 -38q-190 0 -338 80.5t-232.5 222t-84.5 323.5t84.5 323t232.5 221.5t338 80.5t337.5 -80.5t232 -221.5t84.5 -323t-84.5 -323.5t-232 -222t-337.5 -80.5zM719 222q155 0 249.5 101.5t94.5 264.5q0 162 -94.5 263.5t-249.5 101.5t-250 -101.5t-95 -263.5
q0 -163 95 -264.5t250 -101.5zM783 1316l252 436h301l-326 -436h-227zM363 1316l217 436h291l-280 -436h-228z" />
    <glyph glyph-name="OE" unicode="&#x152;" horiz-adv-x="2667" 
d="M928 -40q-189 0 -345 62.5t-270 175.5t-176 266t-62 335t62 335t176 266t270 175.5t345 62.5q168 0 307 -51.5t240 -148.5v159h1085v-272h-760v-386h657v-264h-657v-403h799v-272h-1124v160q-101 -97 -240 -148.5t-307 -51.5zM946 250q153 0 269 68.5t180.5 192.5
t64.5 288q0 165 -64.5 288.5t-180.5 192t-269 68.5t-269 -68.5t-180.5 -192t-64.5 -288.5q0 -164 64.5 -288t180.5 -192.5t269 -68.5z" />
    <glyph glyph-name="oe" unicode="&#x153;" horiz-adv-x="2269" 
d="M698 -38q-183 0 -326.5 81t-225.5 222.5t-82 322.5t82 322t225 222t327 81q156 0 275.5 -58t188.5 -158q70 101 189 159t265 58q175 0 306.5 -75.5t205 -208.5t73.5 -306q0 -32 -2 -69t-7 -55h-891q6 -138 88 -220.5t220 -82.5q103 0 173.5 45t95.5 124h303
q-45 -188 -197.5 -296t-369.5 -108q-155 0 -272.5 55t-185.5 152q-70 -96 -188 -151.5t-270 -55.5zM1610 982q-133 0 -216 -80.5t-93 -211.5l603 -1q-5 134 -86 213.5t-208 79.5zM711 222q154 0 245 101.5t91 264.5q0 162 -91 263.5t-245 101.5q-151 0 -244 -101.5
t-93 -263.5q0 -163 93 -264.5t244 -101.5z" />
    <glyph glyph-name="Racute" unicode="&#x154;" horiz-adv-x="1548" 
d="M166 0v1597h732q254 0 392.5 -113.5t138.5 -329.5q0 -141 -73 -243t-206 -142q106 -18 156.5 -82.5t69.5 -199.5l42 -313q11 -73 28 -115.5t33 -58.5h-342q-35 24 -48 132l-35 309q-12 108 -56.5 151t-160.5 43h-339v-635h-332zM499 872h336q262 0 262 233t-257 233h-341
v-466zM919 1720l417 340h-375l-339 -340h297z" />
    <glyph glyph-name="racute" unicode="&#x155;" horiz-adv-x="1059" 
d="M137 0v1175h221q2 -20 6 -46.5t8 -49.5q11 -43 35 -43q13 0 23.5 7t26.5 26q50 62 116 97t155 35q149 0 232 -103t81 -288q0 -11 -0.5 -24t-1.5 -24h-272q2 16 2 31q0 71 -34 113t-96 42q-109 0 -161 -112q-38 -80 -38 -216v-620h-303zM665 1316l303 436h-324l-218 -436
h239z" />
    <glyph glyph-name="uni0156" unicode="&#x156;" horiz-adv-x="1548" 
d="M166 0v1597h732q254 0 392.5 -113.5t138.5 -329.5q0 -141 -73 -243t-206 -142q106 -18 156.5 -82.5t69.5 -199.5l42 -313q11 -73 28 -115.5t33 -58.5h-342q-35 24 -48 132l-35 309q-12 108 -56.5 151t-160.5 43h-339v-635h-332zM499 872h336q262 0 262 233t-257 233h-341
v-466zM624 -541l80 423h261l-141 -423h-200z" />
    <glyph glyph-name="uni0157" unicode="&#x157;" horiz-adv-x="1059" 
d="M137 0v1175h221q2 -20 6 -46.5t8 -49.5q11 -43 35 -43q13 0 23.5 7t26.5 26q50 62 116 97t155 35q149 0 232 -103t81 -288q0 -11 -0.5 -24t-1.5 -24h-272q2 16 2 31q0 71 -34 113t-96 42q-109 0 -161 -112q-38 -80 -38 -216v-620h-303zM73 -616l88 463h261l-155 -463
h-194z" />
    <glyph glyph-name="Rcaron" unicode="&#x158;" horiz-adv-x="1548" 
d="M166 0v1597h732q254 0 392.5 -113.5t138.5 -329.5q0 -141 -73 -243t-206 -142q106 -18 156.5 -82.5t69.5 -199.5l42 -313q11 -73 28 -115.5t33 -58.5h-342q-35 24 -48 132l-35 309q-12 108 -56.5 151t-160.5 43h-339v-635h-332zM499 872h336q262 0 262 233t-257 233h-341
v-466zM327 2071l294 -351h288l295 351h-237l-173 -158q-16 -13 -29 -13q-12 0 -28 13l-173 158h-237z" />
    <glyph glyph-name="rcaron" unicode="&#x159;" horiz-adv-x="1059" 
d="M137 0v1175h221q2 -20 6 -46.5t8 -49.5q11 -43 35 -43q13 0 23.5 7t26.5 26q50 62 116 97t155 35q149 0 232 -103t81 -288q0 -11 -0.5 -24t-1.5 -24h-272q2 16 2 31q0 71 -34 113t-96 42q-109 0 -161 -112q-38 -80 -38 -216v-620h-303zM133 1751l301 -436h226l301 436
h-206l-168 -186q-22 -23 -40 -23t-40 23l-168 186h-206z" />
    <glyph glyph-name="Sacute" unicode="&#x15a;" horiz-adv-x="1385" 
d="M710 -40q-188 0 -331 67.5t-227.5 187.5t-98.5 278h327q19 -135 109 -209t229 -74q120 0 189.5 57.5t69.5 146.5q0 70 -29 115.5t-96.5 77.5t-185.5 59q-289 68 -416 187t-127 318q0 141 70 245.5t198 162.5t301 58q260 0 409.5 -127t176.5 -351h-320
q-16 107 -81.5 168.5t-181.5 61.5q-109 0 -173.5 -54t-64.5 -142q0 -87 57 -139t202 -87q309 -72 452 -196.5t143 -328.5q0 -149 -75.5 -257t-210.5 -166.5t-315 -58.5zM845 1720l417 340h-375l-339 -340h297z" />
    <glyph glyph-name="sacute" unicode="&#x15b;" horiz-adv-x="1153" 
d="M596 -40q-230 0 -372.5 105.5t-171.5 291.5h306q14 -84 74.5 -132t164.5 -48q90 0 143 36.5t53 97.5q0 65 -47.5 99.5t-183.5 57.5q-250 44 -356 131.5t-106 253.5q0 108 58.5 189.5t164.5 126.5t246 45q221 0 347.5 -98.5t150.5 -285.5h-295q-14 86 -61 127t-135 41
q-82 0 -131 -34.5t-49 -93.5q0 -64 50 -97t172 -54q174 -29 277.5 -76t148.5 -122t45 -188q0 -109 -63 -193t-174 -132t-256 -48zM699 1316l303 436h-324l-218 -436h239z" />
    <glyph glyph-name="Scircumflex" unicode="&#x15c;" horiz-adv-x="1385" 
d="M710 -40q-188 0 -331 67.5t-227.5 187.5t-98.5 278h327q19 -135 109 -209t229 -74q120 0 189.5 57.5t69.5 146.5q0 70 -29 115.5t-96.5 77.5t-185.5 59q-289 68 -416 187t-127 318q0 141 70 245.5t198 162.5t301 58q260 0 409.5 -127t176.5 -351h-320
q-16 107 -81.5 168.5t-181.5 61.5q-109 0 -173.5 -54t-64.5 -142q0 -87 57 -139t202 -87q309 -72 452 -196.5t143 -328.5q0 -149 -75.5 -257t-210.5 -166.5t-315 -58.5zM254 1720l294 351h288l295 -351h-237l-173 158q-16 13 -29 13q-12 0 -28 -13l-173 -158h-237z" />
    <glyph glyph-name="scircumflex" unicode="&#x15d;" horiz-adv-x="1153" 
d="M596 -40q-230 0 -372.5 105.5t-171.5 291.5h306q14 -84 74.5 -132t164.5 -48q90 0 143 36.5t53 97.5q0 65 -47.5 99.5t-183.5 57.5q-250 44 -356 131.5t-106 253.5q0 108 58.5 189.5t164.5 126.5t246 45q221 0 347.5 -98.5t150.5 -285.5h-295q-14 86 -61 127t-135 41
q-82 0 -131 -34.5t-49 -93.5q0 -64 50 -97t172 -54q174 -29 277.5 -76t148.5 -122t45 -188q0 -109 -63 -193t-174 -132t-256 -48zM167 1316l301 436h226l301 -436h-206l-168 186q-22 23 -40 23t-40 -23l-168 -186h-206z" />
    <glyph glyph-name="Scedilla" unicode="&#x15e;" horiz-adv-x="1385" 
d="M710 -40q-188 0 -331 67.5t-227.5 187.5t-98.5 278h327q19 -135 109 -209t229 -74q120 0 189.5 57.5t69.5 146.5q0 70 -29 115.5t-96.5 77.5t-185.5 59q-289 68 -416 187t-127 318q0 141 70 245.5t198 162.5t301 58q260 0 409.5 -127t176.5 -351h-320
q-16 107 -81.5 168.5t-181.5 61.5q-109 0 -173.5 -54t-64.5 -142q0 -87 57 -139t202 -87q309 -72 452 -196.5t143 -328.5q0 -149 -75.5 -257t-210.5 -166.5t-315 -58.5zM750 -534q-163 0 -254.5 85.5t-100.5 232.5h221q11 -134 128 -134q106 0 106 99q0 124 -243 251l198 19
q120 -47 188.5 -123.5t68.5 -173.5q0 -115 -85 -185.5t-227 -70.5z" />
    <glyph glyph-name="scedilla" unicode="&#x15f;" horiz-adv-x="1153" 
d="M596 -40q-230 0 -372.5 105.5t-171.5 291.5h306q14 -84 74.5 -132t164.5 -48q90 0 143 36.5t53 97.5q0 65 -47.5 99.5t-183.5 57.5q-250 44 -356 131.5t-106 253.5q0 108 58.5 189.5t164.5 126.5t246 45q221 0 347.5 -98.5t150.5 -285.5h-295q-14 86 -61 127t-135 41
q-82 0 -131 -34.5t-49 -93.5q0 -64 50 -97t172 -54q174 -29 277.5 -76t148.5 -122t45 -188q0 -109 -63 -193t-174 -132t-256 -48zM591 -531q-159 0 -245.5 87.5t-95.5 227.5h210q5 -65 38.5 -101.5t93.5 -36.5q106 0 106 97q0 121 -243 257h221q104 -47 161 -119t57 -152
q0 -113 -79.5 -186.5t-223.5 -73.5z" />
    <glyph glyph-name="Scaron" unicode="&#x160;" horiz-adv-x="1385" 
d="M710 -40q-188 0 -331 67.5t-227.5 187.5t-98.5 278h327q19 -135 109 -209t229 -74q120 0 189.5 57.5t69.5 146.5q0 70 -29 115.5t-96.5 77.5t-185.5 59q-289 68 -416 187t-127 318q0 141 70 245.5t198 162.5t301 58q260 0 409.5 -127t176.5 -351h-320
q-16 107 -81.5 168.5t-181.5 61.5q-109 0 -173.5 -54t-64.5 -142q0 -87 57 -139t202 -87q309 -72 452 -196.5t143 -328.5q0 -149 -75.5 -257t-210.5 -166.5t-315 -58.5zM253 2071l294 -351h288l295 351h-237l-173 -158q-16 -13 -29 -13q-12 0 -28 13l-173 158h-237z" />
    <glyph glyph-name="scaron" unicode="&#x161;" horiz-adv-x="1153" 
d="M596 -40q-230 0 -372.5 105.5t-171.5 291.5h306q14 -84 74.5 -132t164.5 -48q90 0 143 36.5t53 97.5q0 65 -47.5 99.5t-183.5 57.5q-250 44 -356 131.5t-106 253.5q0 108 58.5 189.5t164.5 126.5t246 45q221 0 347.5 -98.5t150.5 -285.5h-295q-14 86 -61 127t-135 41
q-82 0 -131 -34.5t-49 -93.5q0 -64 50 -97t172 -54q174 -29 277.5 -76t148.5 -122t45 -188q0 -109 -63 -193t-174 -132t-256 -48zM167 1751l301 -436h226l301 436h-206l-168 -186q-22 -23 -40 -23t-40 23l-168 186h-206z" />
    <glyph glyph-name="uni0162" unicode="&#x162;" horiz-adv-x="1370" 
d="M516 0v1325h-490v272h1318v-272h-490v-1325h-338zM718 -534q-163 0 -254.5 85.5t-100.5 232.5h221q11 -134 128 -134q106 0 106 99q0 124 -243 251l198 19q120 -47 188.5 -123.5t68.5 -173.5q0 -115 -85 -185.5t-227 -70.5z" />
    <glyph glyph-name="uni0163" unicode="&#x163;" horiz-adv-x="913" 
d="M662 -15q-211 0 -314 97.5t-103 322.5v523h-223v247h133q68 0 100 24t45 73q11 41 21.5 108.5t16.5 125.5h204v-331h309v-247h-309v-493q0 -112 44 -160.5t145 -48.5q67 0 139 19v-230q-37 -13 -95 -21.5t-113 -8.5zM559 -498q-159 0 -245.5 87.5t-95.5 227.5h210
q5 -65 38.5 -101.5t93.5 -36.5q106 0 106 97q0 121 -243 257h221q104 -47 161 -119t57 -152q0 -113 -79.5 -186.5t-223.5 -73.5z" />
    <glyph glyph-name="Tcaron" unicode="&#x164;" horiz-adv-x="1370" 
d="M516 0v1325h-490v272h1318v-272h-490v-1325h-338zM248 2071l294 -351h288l295 351h-237l-173 -158q-16 -13 -29 -13q-12 0 -28 13l-173 158h-237z" />
    <glyph glyph-name="tcaron" unicode="&#x165;" horiz-adv-x="912" 
d="M662 -15q-211 0 -314 97.5t-103 322.5v523h-223v247h133q68 0 100 24t45 73q11 41 21.5 108.5t16.5 125.5h204v-331h309v-247h-309v-493q0 -112 44 -160.5t145 -48.5q67 0 139 19v-230q-37 -13 -95 -21.5t-113 -8.5zM650 1286l35 381h260l-87 -381h-208z" />
    <glyph glyph-name="Tbar" unicode="&#x166;" horiz-adv-x="1390" 
d="M526 0v708h-271v235h271v382h-490v272h1318v-272h-490v-382h265v-235h-265v-708h-338z" />
    <glyph glyph-name="tbar" unicode="&#x167;" horiz-adv-x="942" 
d="M46 539v174h222v215h-222v247h132q68 0 100.5 24t45.5 73q11 41 21.5 108.5t15.5 125.5h205v-331h309v-247h-309v-215h309v-174h-309v-104q0 -112 43.5 -160.5t145.5 -48.5q68 0 138 19v-230q-36 -13 -94.5 -21.5t-113.5 -8.5q-211 0 -314 97.5t-103 322.5v134h-222z" />
    <glyph glyph-name="Utilde" unicode="&#x168;" horiz-adv-x="1677" 
d="M839 -40q-206 0 -361.5 74t-242.5 222t-87 368v973h338v-992q0 -181 92 -274.5t261 -93.5t260 93.5t91 274.5v992h338v-973q0 -220 -86.5 -368t-241.5 -222t-361 -74zM1007 1725q-61 0 -109.5 20.5t-87.5 48t-72.5 48t-65.5 20.5q-41 0 -66 -31t-35 -84h-173
q19 143 91 231t181 88q61 0 109.5 -20.5t87.5 -48t73 -48t66 -20.5q41 0 65.5 32t34.5 84h174q-19 -143 -92 -231.5t-181 -88.5z" />
    <glyph glyph-name="utilde" unicode="&#x169;" horiz-adv-x="1385" 
d="M569 -38q-213 0 -329 126.5t-116 355.5v731h303v-680q0 -128 58 -196t168 -68q144 0 216 99q36 48 55.5 118.5t19.5 164.5v562h303v-1175h-221q-1 23 -5 54.5t-9 53.5q-9 50 -37 50q-11 0 -20 -6.5t-28 -27.5q-64 -78 -151 -120t-207 -42zM852 1327q-61 0 -109.5 20.5
t-87.5 48t-72.5 48t-65.5 20.5q-41 0 -66 -31t-35 -84h-173q19 143 91 231t181 88q61 0 109.5 -20.5t87.5 -48t73 -48t66 -20.5q41 0 65.5 32t34.5 84h174q-19 -143 -92 -231.5t-181 -88.5z" />
    <glyph glyph-name="Umacron" unicode="&#x16a;" horiz-adv-x="1677" 
d="M839 -40q-206 0 -361.5 74t-242.5 222t-87 368v973h338v-992q0 -181 92 -274.5t261 -93.5t260 93.5t91 274.5v992h338v-973q0 -220 -86.5 -368t-241.5 -222t-361 -74zM483 1749v198h712v-198h-712z" />
    <glyph glyph-name="umacron" unicode="&#x16b;" horiz-adv-x="1385" 
d="M569 -38q-213 0 -329 126.5t-116 355.5v731h303v-680q0 -128 58 -196t168 -68q144 0 216 99q36 48 55.5 118.5t19.5 164.5v562h303v-1175h-221q-1 23 -5 54.5t-9 53.5q-9 50 -37 50q-11 0 -20 -6.5t-28 -27.5q-64 -78 -151 -120t-207 -42zM333 1359v198h712v-198h-712z
" />
    <glyph glyph-name="Ubreve" unicode="&#x16c;" horiz-adv-x="1677" 
d="M839 -40q-206 0 -361.5 74t-242.5 222t-87 368v973h338v-992q0 -181 92 -274.5t261 -93.5t260 93.5t91 274.5v992h338v-973q0 -220 -86.5 -368t-241.5 -222t-361 -74zM839 1716q-175 0 -279.5 88.5t-114.5 243.5h194q15 -69 64 -109.5t136 -40.5t136 40.5t64 109.5h194
q-10 -155 -114 -243.5t-280 -88.5z" />
    <glyph glyph-name="ubreve" unicode="&#x16d;" horiz-adv-x="1385" 
d="M569 -38q-213 0 -329 126.5t-116 355.5v731h303v-680q0 -128 58 -196t168 -68q144 0 216 99q36 48 55.5 118.5t19.5 164.5v562h303v-1175h-221q-1 23 -5 54.5t-9 53.5q-9 50 -37 50q-11 0 -20 -6.5t-28 -27.5q-64 -78 -151 -120t-207 -42zM689 1328q-172 0 -275 95
t-113 261h188q15 -78 65 -123t135 -45t135 45t65 123h188q-10 -166 -113 -261t-275 -95z" />
    <glyph glyph-name="Uring" unicode="&#x16e;" horiz-adv-x="1677" 
d="M839 -40q-206 0 -361.5 74t-242.5 222t-87 368v973h338v-992q0 -181 92 -274.5t261 -93.5t260 93.5t91 274.5v992h338v-973q0 -220 -86.5 -368t-241.5 -222t-361 -74zM839 1695q-123 0 -201.5 73t-78.5 186q0 115 78.5 188t201.5 73q122 0 201 -73t79 -188
q0 -113 -79 -186t-201 -73zM839 1851q45 0 74 29.5t29 73.5q0 46 -29 75.5t-74 29.5q-46 0 -75 -29.5t-29 -75.5q0 -44 29 -73.5t75 -29.5z" />
    <glyph glyph-name="uring" unicode="&#x16f;" horiz-adv-x="1385" 
d="M569 -38q-213 0 -329 126.5t-116 355.5v731h303v-680q0 -128 58 -196t168 -68q144 0 216 99q36 48 55.5 118.5t19.5 164.5v562h303v-1175h-221q-1 23 -5 54.5t-9 53.5q-9 50 -37 50q-11 0 -20 -6.5t-28 -27.5q-64 -78 -151 -120t-207 -42zM689 1306q-120 0 -196.5 71.5
t-76.5 182.5q0 112 76.5 183.5t196.5 71.5t196.5 -71.5t76.5 -183.5q0 -111 -76.5 -182.5t-196.5 -71.5zM689 1451q48 0 78.5 31t30.5 78q0 48 -30.5 79t-78.5 31t-78.5 -31t-30.5 -79q0 -47 30.5 -78t78.5 -31z" />
    <glyph glyph-name="Uhungarumlaut" unicode="&#x170;" horiz-adv-x="1677" 
d="M839 -40q-206 0 -361.5 74t-242.5 222t-87 368v973h338v-992q0 -181 92 -274.5t261 -93.5t260 93.5t91 274.5v992h338v-973q0 -220 -86.5 -368t-241.5 -222t-361 -74zM950 1720l352 340h361l-414 -340h-299zM424 1720l323 340h360l-385 -340h-298z" />
    <glyph glyph-name="uhungarumlaut" unicode="&#x171;" horiz-adv-x="1385" 
d="M569 -38q-213 0 -329 126.5t-116 355.5v731h303v-680q0 -128 58 -196t168 -68q144 0 216 99q36 48 55.5 118.5t19.5 164.5v562h303v-1175h-221q-1 23 -5 54.5t-9 53.5q-9 50 -37 50q-11 0 -20 -6.5t-28 -27.5q-64 -78 -151 -120t-207 -42zM753 1316l252 436h301
l-326 -436h-227zM333 1316l217 436h291l-280 -436h-228z" />
    <glyph glyph-name="Uogonek" unicode="&#x172;" horiz-adv-x="1677" 
d="M839 -40q-206 0 -361.5 74t-242.5 222t-87 368v973h338v-992q0 -181 92 -274.5t261 -93.5t260 93.5t91 274.5v992h338v-973q0 -220 -86.5 -368t-241.5 -222t-361 -74zM1138 -508q-135 0 -219.5 63.5t-83.5 180.5q0 110 80 201t258 182l83 -54q-96 -64 -140.5 -129
t-45.5 -127q0 -58 35 -85t90 -27q35 0 72.5 7t74.5 22l1 -190q-43 -22 -97.5 -33t-107.5 -11z" />
    <glyph glyph-name="uogonek" unicode="&#x173;" horiz-adv-x="1385" 
d="M569 -38q-213 0 -329 126.5t-116 355.5v731h303v-680q0 -128 58 -196t168 -68q144 0 216 99q36 48 55.5 118.5t19.5 164.5v562h303v-1175h-221q-1 23 -5 54.5t-9 53.5q-9 50 -37 50q-11 0 -20 -6.5t-28 -27.5q-64 -78 -151 -120t-207 -42zM1146 -521q-135 0 -215.5 65
t-80.5 177q0 176 252 350l145 -71q-176 -135 -176 -233q0 -49 35 -73.5t90 -24.5q69 0 122 24l1 -180q-74 -34 -173 -34z" />
    <glyph glyph-name="Wcircumflex" unicode="&#x174;" horiz-adv-x="2346" 
d="M473 0l-464 1597h343l331 -1241l316 1241h367l320 -1242l332 1242h319l-464 -1597h-388l-312 1238l-310 -1238h-390zM737 1720l294 351h288l295 -351h-237l-173 158q-16 13 -29 13q-12 0 -28 -13l-173 -158h-237z" />
    <glyph glyph-name="wcircumflex" unicode="&#x175;" horiz-adv-x="1881" 
d="M400 0l-392 1175h327l243 -824l230 824h291l229 -825l246 825h299l-393 -1175h-314l-223 798l-225 -798h-318zM527 1316l301 436h226l301 -436h-206l-168 186q-22 23 -40 23t-40 -23l-168 -186h-206z" />
    <glyph glyph-name="Ycircumflex" unicode="&#x176;" horiz-adv-x="1505" 
d="M591 0v640l-597 957h375l399 -668l392 668h343l-586 -958v-639h-326zM317 1720l294 351h288l295 -351h-237l-173 158q-16 13 -29 13q-12 0 -28 -13l-173 -158h-237z" />
    <glyph glyph-name="ycircumflex" unicode="&#x177;" horiz-adv-x="1282" 
d="M278 -498l207 499l-484 1174h337l317 -841l311 841h315l-688 -1673h-315zM238 1316l301 436h226l301 -436h-206l-168 186q-22 23 -40 23t-40 -23l-168 -186h-206z" />
    <glyph glyph-name="Ydieresis" unicode="&#x178;" horiz-adv-x="1505" 
d="M591 0v640l-597 957h375l399 -668l392 668h343l-586 -958v-639h-326zM1030 1740q-73 0 -119.5 46.5t-46.5 113.5q0 68 46.5 114.5t119.5 46.5q74 0 121 -46.5t47 -114.5q0 -67 -47 -113.5t-121 -46.5zM477 1740q-73 0 -120 46.5t-47 113.5q0 68 47 114.5t120 46.5
q74 0 120.5 -46.5t46.5 -114.5q0 -67 -46.5 -113.5t-120.5 -46.5z" />
    <glyph glyph-name="Zacute" unicode="&#x179;" horiz-adv-x="1325" 
d="M13 0v5l792 1323h-732v269h1247v-5l-792 -1323h732v-269h-1247zM821 1720l417 340h-375l-339 -340h297z" />
    <glyph glyph-name="zacute" unicode="&#x17a;" horiz-adv-x="1118" 
d="M26 0v5l599 923h-560v247h1033v-5l-606 -935h567v-235h-1033zM680 1316l303 436h-324l-218 -436h239z" />
    <glyph glyph-name="Zdotaccent" unicode="&#x17b;" horiz-adv-x="1325" 
d="M13 0v5l792 1323h-732v269h1247v-5l-792 -1323h732v-269h-1247zM666 1730q-73 0 -120 46t-47 114t47 114t120 46q74 0 121 -46t47 -114t-47 -114t-121 -46z" />
    <glyph glyph-name="zdotaccent" unicode="&#x17c;" horiz-adv-x="1118" 
d="M26 0v5l599 923h-560v247h1033v-5l-606 -935h567v-235h-1033zM561 1325q-73 0 -119.5 45.5t-46.5 113.5t46.5 113.5t119.5 45.5t119.5 -45.5t46.5 -113.5t-46.5 -113.5t-119.5 -45.5z" />
    <glyph glyph-name="Zcaron" unicode="&#x17d;" horiz-adv-x="1325" 
d="M13 0v5l792 1323h-732v269h1247v-5l-792 -1323h732v-269h-1247zM229 2071l294 -351h288l295 351h-237l-173 -158q-16 -13 -29 -13q-12 0 -28 13l-173 158h-237z" />
    <glyph glyph-name="zcaron" unicode="&#x17e;" horiz-adv-x="1118" 
d="M26 0v5l599 923h-560v247h1033v-5l-606 -935h567v-235h-1033zM148 1751l301 -436h226l301 436h-206l-168 -186q-22 -23 -40 -23t-40 23l-168 186h-206z" />
    <glyph glyph-name="uni0180" unicode="&#x180;" horiz-adv-x="1497" 
d="M843 -36q-129 0 -221 42.5t-160 115.5q-34 35 -53 35q-26 0 -34 -44q-4 -25 -7.5 -56t-5.5 -57h-225v1326h-161v173h161v160h304v-160h348v-173h-348v-227q0 -34 21 -34q14 0 30 16q56 59 144.5 94.5t201.5 35.5q169 0 303.5 -81.5t212.5 -222.5t78 -322
q0 -178 -78.5 -318.5t-211.5 -221.5t-299 -81zM776 224q102 0 179.5 46t120.5 128.5t43 189.5t-43 189t-120.5 128t-179.5 46q-154 0 -248.5 -101t-94.5 -262q0 -162 94.5 -263t248.5 -101z" />
    <glyph glyph-name="uni0181" unicode="&#x181;" horiz-adv-x="1875" 
d="M539 0v1342h-95q-157 0 -157 -153q0 -49 14.5 -111t46.5 -143h-233q-40 64 -69.5 150.5t-29.5 171.5q0 169 106.5 254.5t296.5 85.5h807q248 0 377 -114t129 -302q0 -242 -230 -335q144 -44 219.5 -145.5t75.5 -242.5q0 -218 -135.5 -338t-395.5 -120h-727zM866 922h302
q247 0 247 211q0 209 -246 209h-303v-420zM865 255h351q126 0 190.5 59t64.5 168q0 111 -66 170t-191 59h-349v-456z" />
    <glyph glyph-name="uni0186" unicode="&#x186;" horiz-adv-x="1818" 
d="M897 -40q-229 0 -406.5 82.5t-289 233.5t-142.5 354h350q35 -177 158.5 -280.5t320.5 -103.5q149 0 262 69.5t176 194t63 289.5q0 166 -63 290t-176 193.5t-262 69.5q-197 0 -320.5 -103.5t-158.5 -280.5h-350q31 203 142.5 354t289 234t406.5 82q189 0 344 -62.5
t267.5 -176t173 -266.5t60.5 -334t-60.5 -334t-173 -266.5t-267.5 -176t-344 -62.5z" />
    <glyph glyph-name="uni0187" unicode="&#x187;" horiz-adv-x="1797" 
d="M934 -40q-188 0 -345 62.5t-272 176t-178 266.5t-63 334t63 334t178 266.5t272 176t345 62.5q241 0 411 -95q-34 53 -51 105t-17 110q0 126 98 206.5t260 80.5q71 0 138.5 -17.5t119.5 -51.5v-238q-85 41 -177 41q-76 0 -124.5 -41.5t-48.5 -126.5q0 -44 10.5 -87
t35.5 -99t70 -141q46 -88 69 -159t34 -157h-350q-29 179 -154.5 281.5t-312.5 102.5q-156 0 -271 -70t-178.5 -194.5t-63.5 -288.5t63.5 -288.5t178.5 -194.5t271 -70q187 0 312.5 103t154.5 281h350q-30 -205 -140 -356t-285.5 -232.5t-402.5 -81.5z" />
    <glyph glyph-name="uni0188" unicode="&#x188;" horiz-adv-x="1382" 
d="M706 -39q-186 0 -330.5 80.5t-227 222t-82.5 324.5t82.5 324t227 221.5t330.5 80.5q129 0 240 -40q-42 76 -42 173q0 126 86.5 196t225.5 70q54 0 112.5 -12.5t96.5 -34.5v-214q-63 22 -122 22q-73 0 -115 -37.5t-42 -103.5q0 -59 21.5 -121.5t68.5 -152.5
q34 -67 55 -127t31 -126h-306q-20 116 -100 182t-202 66q-153 0 -245.5 -101t-92.5 -265t92.5 -265.5t245.5 -101.5q122 0 202 67t100 182h306q-22 -155 -103 -269.5t-211 -177t-302 -62.5z" />
    <glyph glyph-name="uni0189" unicode="&#x189;" horiz-adv-x="1850" 
d="M275 0v682h-241v241h241v674h656q253 0 442 -98.5t294 -278t105 -421.5t-105 -422t-294 -278.5t-442 -98.5h-656zM613 269h293q243 0 376.5 138.5t133.5 391.5q0 252 -133.5 390.5t-376.5 138.5h-293v-405h412v-241h-412v-413z" />
    <glyph glyph-name="uni018A" unicode="&#x18a;" horiz-adv-x="2112" 
d="M537 0v1342h-93q-157 0 -157 -153q0 -49 14.5 -111t46.5 -143h-233q-40 64 -69.5 150.5t-29.5 171.5q0 169 106.5 254.5t296.5 85.5h775q253 0 441.5 -98.5t293.5 -278t105 -421.5t-105 -422t-293.5 -278.5t-441.5 -98.5h-657zM875 269h294q242 0 375.5 138.5
t133.5 391.5q0 252 -133.5 390.5t-375.5 138.5h-294v-1059z" />
    <glyph glyph-name="uni018E" unicode="&#x18e;" horiz-adv-x="1363" 
d="M1197 0h-1130v272h800v403h-658v264h658v386h-760v272h1090v-1597z" />
    <glyph glyph-name="uni018F" unicode="&#x18f;" horiz-adv-x="1780" 
d="M889 -40q-179 0 -327.5 57.5t-257 163t-168 251.5t-59.5 322q0 33 2.5 76.5t6.5 65.5h1263q-6 142 -63.5 247.5t-158.5 163t-236 57.5q-161 0 -275 -72.5t-164 -194.5h-349q43 166 151.5 287t270 187.5t364.5 66.5q242 0 425 -105t285.5 -293.5t102.5 -439.5
q0 -184 -59.5 -338t-168.5 -266.5t-258 -174t-327 -61.5zM893 231q193 0 315 122t139 321h-928q4 -134 64 -233.5t165.5 -154.5t244.5 -55z" />
    <glyph glyph-name="uni0190" unicode="&#x190;" horiz-adv-x="1397" 
d="M714 -40q-177 0 -322.5 56t-231.5 164t-86 264q0 153 90 258t252 144q-127 37 -201 132t-74 225q0 128 68.5 226t195 153t299.5 55q257 0 417 -126t174 -359h-318q-14 105 -79 162t-178 57q-109 0 -176.5 -56.5t-67.5 -154.5t69.5 -158t184.5 -60h257v-226h-262
q-137 0 -215.5 -63t-78.5 -173q0 -119 80 -185t216 -66q131 0 204.5 66.5t88.5 189.5h335q-25 -250 -192 -387.5t-449 -137.5z" />
    <glyph glyph-name="uni0191" unicode="&#x191;" horiz-adv-x="1259" 
d="M117 -514q-73 0 -154 18t-136 46v254q106 -45 196 -45q76 -1 109.5 41.5t33.5 140.5v1656h1040v-269h-707v-424h626v-269h-626v-692q0 -241 -89.5 -349t-292.5 -108z" />
    <glyph glyph-name="florin" unicode="&#x192;" horiz-adv-x="873" 
d="M206 -514q-55 0 -116 12t-101 33v212q27 -8 57 -13.5t61 -5.5q77 0 111.5 42.5t34.5 129.5v1032h-223v247h223v103q0 213 105.5 316t315.5 103q53 0 109 -9t97 -24v-232q-64 23 -138 23q-99 0 -145 -49.5t-46 -142.5v-88h309v-247h-309v-1069q0 -180 -85.5 -276.5
t-259.5 -96.5z" />
    <glyph glyph-name="uni0193" unicode="&#x193;" horiz-adv-x="1812" 
d="M883 -34q-174 0 -321.5 59.5t-256 169.5t-168.5 262t-60 338t63.5 340.5t179 266.5t273.5 173.5t348 61.5q241 0 409 -94q-34 53 -51 105t-17 110q0 128 98.5 207.5t258.5 79.5q148 0 258 -71v-238q-87 42 -179 42q-74 0 -122 -41.5t-48 -125.5q0 -44 9.5 -87.5
t34.5 -99.5t69 -140q37 -76 58.5 -138.5t32.5 -132.5h-352q-36 161 -153.5 249.5t-295.5 88.5q-150 0 -267 -67t-183.5 -190.5t-66.5 -292.5q0 -168 64 -292.5t178.5 -193.5t266.5 -69t254.5 61t161.5 177q29 56 45.5 125.5t23.5 143.5h303v-753h-231q-4 45 -8.5 89.5
t-10.5 73.5q-12 52 -40 52q-13 0 -25 -8t-33 -31q-82 -99 -211 -154.5t-289 -55.5z" />
    <glyph glyph-name="uni0194" unicode="&#x194;" horiz-adv-x="1537" 
d="M776 -39q-179 0 -288 84t-109 223q0 96 46.5 186.5t163.5 220.5l-608 922l375 1l427 -662l422 662l352 -1l-597 -919q118 -130 165.5 -221.5t47.5 -188.5q0 -139 -109 -223t-288 -84zM776 170q50 0 83 29.5t33 75.5q0 52 -30.5 103.5t-85.5 115.5q-55 -64 -85.5 -115.5
t-30.5 -103.5q0 -46 33.5 -75.5t82.5 -29.5z" />
    <glyph glyph-name="uni0196" unicode="&#x196;" horiz-adv-x="848" 
d="M588 -18q-217 0 -324.5 98t-107.5 324v1193h337v-1149q0 -94 37 -143.5t130 -49.5q45 0 84.5 7t85.5 21v-257q-43 -19 -108.5 -31.5t-133.5 -12.5z" />
    <glyph glyph-name="uni0197" unicode="&#x197;" horiz-adv-x="872" 
d="M267 0v702h-228v241h228v655l338 -1v-654h228v-241h-228v-702h-338z" />
    <glyph glyph-name="uni0198" unicode="&#x198;" horiz-adv-x="1656" 
d="M166 0v1597h344v-771l495 593q92 119 171 164.5t183 45.5q74 0 148.5 -27t131.5 -79v-280q-56 38 -109.5 61t-106.5 23q-58 0 -100.5 -26t-102.5 -98l-335 -376l694 -827h-430l-639 778v-778h-344z" />
    <glyph glyph-name="uni0199" unicode="&#x199;" horiz-adv-x="1270" 
d="M137 0v1274q0 207 109 315t322 108q74 0 148.5 -17.5t123.5 -45.5v-220q-46 19 -93.5 30t-102.5 11q-203 0 -203 -205v-635l459 560h369l-485 -572l518 -603h-390l-471 562v-562h-304z" />
    <glyph glyph-name="uni019D" unicode="&#x19d;" horiz-adv-x="1746" 
d="M107 -514q-65 0 -143.5 16.5t-137.5 47.5v254q106 -45 196 -45q76 -1 110 41t34 141v1656h375l728 -1163v1163h311v-1597h-375l-728 1160v-1218q0 -243 -87 -349.5t-283 -106.5z" />
    <glyph glyph-name="uni019F" unicode="&#x19f;" horiz-adv-x="1892" 
d="M946 -40q-194 0 -354 62.5t-275.5 175.5t-178.5 266.5t-63 334.5q0 182 63 335t178.5 266t275.5 175.5t354 62.5t354 -62.5t275.5 -175.5t178 -266t62.5 -335q0 -181 -62.5 -334.5t-178 -266.5t-275.5 -175.5t-354 -62.5zM946 1361q-140 0 -250.5 -55t-181.5 -156
t-92 -237h1048q-21 136 -92 237t-181.5 156t-250.5 55zM946 237q140 0 250.5 55t181.5 156t92 237h-1048q21 -136 92 -237t181.5 -156t250.5 -55z" />
    <glyph glyph-name="Ohorn" unicode="&#x1a0;" horiz-adv-x="1931" 
d="M946 -40q-194 0 -354 62.5t-275.5 175.5t-178.5 266.5t-63 334.5q0 182 63 335t178.5 266t275.5 175.5t354 62.5t354 -62.5t275.5 -175.5t178 -266t62.5 -335q0 -181 -62.5 -334.5t-178 -266.5t-275.5 -175.5t-354 -62.5zM946 250q153 0 269 68.5t180.5 192.5t64.5 288
q0 165 -64.5 288.5t-180.5 192t-269 68.5t-269 -68.5t-180.5 -192t-64.5 -288.5q0 -164 64.5 -288t180.5 -192.5t269 -68.5zM1645 1318q-65 0 -126 18.5t-105 48.5v135q62 -32 115 -32q104 0 104 130q0 88 -45 200h224q37 -65 57 -131.5t20 -136.5q0 -106 -65 -169t-179 -63
z" />
    <glyph glyph-name="ohorn" unicode="&#x1a1;" horiz-adv-x="1494" 
d="M719 -38q-190 0 -338 80.5t-232.5 222t-84.5 323.5t84.5 323t232.5 221.5t338 80.5t337.5 -80.5t232 -221.5t84.5 -323t-84.5 -323.5t-232 -222t-337.5 -80.5zM719 222q155 0 249.5 101.5t94.5 264.5q0 162 -94.5 263.5t-249.5 101.5t-250 -101.5t-95 -263.5
q0 -163 95 -264.5t250 -101.5zM1240 942q-55 0 -112.5 18.5t-100.5 47.5v139q61 -29 112 -29q59 0 81.5 35.5t22.5 95.5q0 97 -48 208h204q35 -67 53.5 -136t18.5 -142q0 -110 -62 -173.5t-169 -63.5z" />
    <glyph glyph-name="uni01A4" unicode="&#x1a4;" horiz-adv-x="1848" 
d="M560 0v1342h-94q-158 0 -158 -153q0 -49 15 -111t47 -143h-234q-40 64 -69.5 150.5t-29.5 171.5q0 169 106.5 254.5t296.5 85.5h771q191 0 322.5 -66.5t199.5 -186t68 -278.5q0 -158 -68 -277.5t-200 -186t-323 -66.5h-312v-536h-338zM898 795h282q140 0 213 69.5
t73 200.5q0 132 -73 201.5t-213 69.5h-282v-541z" />
    <glyph glyph-name="uni01A5" unicode="&#x1a5;" horiz-adv-x="1497" 
d="M137 -483v1757q0 208 108.5 315.5t322.5 107.5q74 0 148.5 -17t123.5 -45v-220q-45 19 -93.5 29.5t-98.5 10.5q-207 0 -207 -197v-159q0 -34 21 -34q13 0 30 17q56 59 144.5 94.5t201.5 35.5q169 0 303.5 -81.5t212.5 -222t78 -319.5q0 -180 -78 -321t-212.5 -222.5
t-303.5 -81.5q-113 0 -201.5 36t-144.5 94q-16 16 -30 16q-21 0 -21 -34v-559h-304zM776 224q102 0 179.5 46.5t120.5 128.5t43 189t-43 189t-120.5 128.5t-179.5 46.5q-154 0 -248.5 -101.5t-94.5 -262.5q0 -162 94.5 -263t248.5 -101z" />
    <glyph glyph-name="uni01A9" unicode="&#x1a9;" horiz-adv-x="1228" 
d="M-1 0v5l558 809l-541 778v5h1128v-272h-573l362 -511l-378 -542h608v-272h-1164z" />
    <glyph glyph-name="uni01AC" unicode="&#x1ac;" horiz-adv-x="1565" 
d="M711 0v1325l-268 1q-158 0 -158 -148q0 -49 14.5 -107.5t47.5 -135.5h-234q-40 64 -69.5 150.5t-29.5 171.5q0 169 106.5 254.5t296.5 85.5h1121v-272h-489v-1325h-338z" />
    <glyph glyph-name="uni01AD" unicode="&#x1ad;" horiz-adv-x="913" 
d="M662 -15q-211 0 -314 97.5t-103 322.5v523h-223v247h223v149q0 181 88 277t262 96q56 0 115 -12t99 -32v-213q-28 9 -56.5 14.5t-57.5 5.5q-153 0 -153 -178v-107h309v-247h-309v-493q0 -100 39 -154.5t151 -54.5q66 0 138 19v-230q-37 -13 -95 -21.5t-113 -8.5z" />
    <glyph glyph-name="uni01AE" unicode="&#x1ae;" horiz-adv-x="1370" 
d="M942 -514q-140 0 -235 43t-142.5 142.5t-47.5 270.5l-1 1383h-490v272h1318v-272h-490v-1361q0 -114 43 -160t134 -45q47 0 95 9.5t97 25.5v-255q-58 -23 -134 -38t-147 -15z" />
    <glyph glyph-name="Uhorn" unicode="&#x1af;" horiz-adv-x="1765" 
d="M839 -40q-206 0 -361.5 74t-242.5 222t-87 368v973h338v-992q0 -181 92 -274.5t261 -93.5t260 93.5t91 274.5v992h267q60 0 82.5 22.5t22.5 67.5q0 65 -54 168h219q81 -122 81 -249q0 -207 -280 -213v-769q0 -220 -86.5 -368t-241.5 -222t-361 -74z" />
    <glyph glyph-name="uhorn" unicode="&#x1b0;" horiz-adv-x="1447" 
d="M569 -38q-213 0 -329 126.5t-116 355.5v731h303v-680q0 -128 58 -196t168 -68q144 0 216 99q36 48 55.5 118.5t19.5 164.5v562h303v-1175h-221q-1 23 -5 54.5t-9 53.5q-9 50 -37 50q-11 0 -20 -6.5t-28 -27.5q-64 -78 -151 -120t-207 -42zM1014 976v199h120
q75 0 100.5 27t25.5 73q0 44 -13.5 88.5t-33.5 90.5h204q27 -52 47 -109t20 -123q0 -103 -72 -174.5t-206 -71.5h-192z" />
    <glyph glyph-name="uni01B1" unicode="&#x1b1;" horiz-adv-x="1913" 
d="M85 1597v-274h364q-95 -54 -170.5 -145t-119 -209t-43.5 -252q0 -165 61 -303.5t173 -240.5t266 -158t340 -56t340 56t266 158t173 240.5t61 303.5q0 134 -43.5 252t-118.5 209t-171 145h365v274h-785v-256q123 -38 220.5 -117.5t154 -195t56.5 -261.5q0 -153 -65 -271
t-181.5 -185.5t-271.5 -67.5q-154 0 -270.5 67.5t-181.5 185.5t-65 271q0 146 56.5 261.5t154 195t219.5 117.5v256h-784z" />
    <glyph glyph-name="uni01B2" unicode="&#x1b2;" horiz-adv-x="1716" 
d="M865 -40q-340 0 -529.5 186.5t-189.5 538.5v912h338l1 -911q0 -223 100.5 -331t281.5 -108q202 0 307 171t105 501q0 230 -67.5 332.5t-223.5 102.5q-85 0 -169 -28v257q55 22 131 36.5t157 14.5q266 -1 389.5 -172.5t123.5 -506.5q0 -310 -82 -533t-249.5 -342.5
t-423.5 -119.5z" />
    <glyph glyph-name="uni01B3" unicode="&#x1b3;" horiz-adv-x="1627" 
d="M602 0v638l-597 959h375l399 -669l277 485q66 116 141.5 166t183.5 50q68 0 133.5 -26t112.5 -67v-275q-49 32 -96.5 50t-91.5 18q-60 0 -99.5 -28t-86.5 -107l-325 -552v-642h-326z" />
    <glyph glyph-name="uni01B4" unicode="&#x1b4;" horiz-adv-x="1272" 
d="M274 -507l211 508l-484 1174h337l320 -847l345 942q56 159 138 228t213 69q53 0 103.5 -12.5t84.5 -34.5v-217q-56 24 -106 24q-56 0 -90 -26.5t-61 -93.5l-696 -1714h-315z" />
    <glyph glyph-name="uni01B7" unicode="&#x1b7;" horiz-adv-x="1287" 
d="M634 -40q-162 0 -294 61.5t-214.5 175t-98.5 269.5h328q19 -114 91.5 -177t188.5 -63t182.5 69t66.5 182q0 124 -80.5 195.5t-217.5 71.5h-320v5l382 576h-524v272h1023v-5l-407 -609q148 -12 255 -79t165 -174.5t58 -241.5q0 -156 -72 -275t-203 -186t-309 -67z" />
    <glyph glyph-name="uni01C0" unicode="&#x1c0;" horiz-adv-x="567" 
d="M137 -550v2209h292v-2209h-292z" />
    <glyph glyph-name="uni01C1" unicode="&#x1c1;" horiz-adv-x="997" 
d="M591 -550v2209h268v-2209h-268zM137 -550v2209h269v-2209h-269z" />
    <glyph glyph-name="uni01C2" unicode="&#x1c2;" horiz-adv-x="1219" 
d="M96 182v226h368v293h-368v226h368v732h291v-732h368v-226h-368v-293h368v-226h-368v-732h-291v732h-368z" />
    <glyph glyph-name="uni01C3" unicode="&#x1c3;" horiz-adv-x="521" 
d="M137 520l-36 1139h319l-36 -1139h-247zM260 -23q-85 0 -141.5 53.5t-56.5 134.5t56.5 134t141.5 53q87 0 143 -53t56 -134t-56 -134.5t-143 -53.5z" />
    <glyph glyph-name="uni01CD" unicode="&#x1cd;" horiz-adv-x="1596" 
d="M4 0l563 1597h457l573 -1597h-371l-128 370h-615l-128 -370h-351zM548 613h487l-245 734zM352 2071l294 -351h288l295 351h-237l-173 -158q-16 -13 -29 -13q-12 0 -28 13l-173 158h-237z" />
    <glyph glyph-name="uni01CE" unicode="&#x1ce;" horiz-adv-x="1286" 
d="M511 -36q-131 0 -231.5 45.5t-157 129.5t-56.5 198q0 333 469 367q100 7 193 18.5t143 24.5v14q0 103 -57 161.5t-162 58.5q-97 0 -160 -44.5t-81 -121.5h-313q35 176 178 287.5t372 111.5q249 0 382 -124t133 -356v-734h-226q-1 24 -5 57t-9 55q-8 35 -27 35
q-18 0 -40 -29q-57 -74 -141.5 -114t-203.5 -40zM375 350q0 -76 56 -120t150 -44q80 0 143 29.5t101 104.5q22 41 34 94t12 119v20q-46 -13 -121.5 -25t-162.5 -21q-115 -11 -163.5 -48.5t-48.5 -108.5zM227 1749l301 -436h226l301 436h-206l-168 -186q-22 -23 -40 -23
t-40 23l-168 186h-206z" />
    <glyph glyph-name="uni01CF" unicode="&#x1cf;" horiz-adv-x="670" 
d="M166 0v1597h338v-1597h-338zM-102 2071l294 -351h288l295 351h-237l-173 -158q-16 -13 -29 -13q-12 0 -28 13l-173 158h-237z" />
    <glyph glyph-name="uni01D0" unicode="&#x1d0;" horiz-adv-x="581" 
d="M139 0v1175h303v-1175h-303zM186 1316l-253 436h184l136 -186q20 -28 37 -28t37 28l136 186h184l-253 -436h-208z" />
    <glyph glyph-name="uni01D1" unicode="&#x1d1;" horiz-adv-x="1892" 
d="M946 -40q-194 0 -354 62.5t-275.5 175.5t-178.5 266.5t-63 334.5q0 182 63 335t178.5 266t275.5 175.5t354 62.5t354 -62.5t275.5 -175.5t178 -266t62.5 -335q0 -181 -62.5 -334.5t-178 -266.5t-275.5 -175.5t-354 -62.5zM946 250q153 0 269 68.5t180.5 192.5t64.5 288
q0 165 -64.5 288.5t-180.5 192t-269 68.5t-269 -68.5t-180.5 -192t-64.5 -288.5q0 -164 64.5 -288t180.5 -192.5t269 -68.5zM508 2071l294 -351h288l295 351h-237l-173 -158q-16 -13 -29 -13q-12 0 -28 13l-173 158h-237z" />
    <glyph glyph-name="uni01D2" unicode="&#x1d2;" horiz-adv-x="1437" 
d="M719 -38q-190 0 -338 80.5t-232.5 222t-84.5 323.5t84.5 323t232.5 221.5t338 80.5t337.5 -80.5t232 -221.5t84.5 -323t-84.5 -323.5t-232 -222t-337.5 -80.5zM719 222q155 0 249.5 101.5t94.5 264.5q0 162 -94.5 263.5t-249.5 101.5t-250 -101.5t-95 -263.5
q0 -163 95 -264.5t250 -101.5zM305 1751l301 -436h226l301 436h-206l-168 -186q-22 -23 -40 -23t-40 23l-168 186h-206z" />
    <glyph glyph-name="uni01D3" unicode="&#x1d3;" horiz-adv-x="1677" 
d="M839 -40q-206 0 -361.5 74t-242.5 222t-87 368v973h338v-992q0 -181 92 -274.5t261 -93.5t260 93.5t91 274.5v992h338v-973q0 -220 -86.5 -368t-241.5 -222t-361 -74zM401 2071l294 -351h288l295 351h-237l-173 -158q-16 -13 -29 -13q-12 0 -28 13l-173 158h-237z" />
    <glyph glyph-name="uni01D4" unicode="&#x1d4;" horiz-adv-x="1385" 
d="M569 -38q-213 0 -329 126.5t-116 355.5v731h303v-680q0 -128 58 -196t168 -68q144 0 216 99q36 48 55.5 118.5t19.5 164.5v562h303v-1175h-221q-1 23 -5 54.5t-9 53.5q-9 50 -37 50q-11 0 -20 -6.5t-28 -27.5q-64 -78 -151 -120t-207 -42zM275 1751l301 -436h226l301 436
h-206l-168 -186q-22 -23 -40 -23t-40 23l-168 186h-206z" />
    <glyph glyph-name="uni01D5" unicode="&#x1d5;" horiz-adv-x="1677" 
d="M839 -40q-206 0 -361.5 74t-242.5 222t-87 368v973h338v-992q0 -181 92 -274.5t261 -93.5t260 93.5t91 274.5v992h338v-973q0 -220 -86.5 -368t-241.5 -222t-361 -74zM1077 1738q-65 0 -107.5 41.5t-42.5 104.5q0 62 42.5 103.5t107.5 41.5q67 0 110 -41.5t43 -103.5
t-42.5 -104t-110.5 -42zM599 1738q-67 0 -109 42t-42 104q0 61 42 103t109 42q66 0 109 -42t43 -103q0 -62 -42.5 -104t-109.5 -42zM508 2147v192h662v-192h-662z" />
    <glyph glyph-name="uni01D6" unicode="&#x1d6;" horiz-adv-x="1385" 
d="M569 -38q-213 0 -329 126.5t-116 355.5v731h303v-680q0 -128 58 -196t168 -68q144 0 216 99q36 48 55.5 118.5t19.5 164.5v562h303v-1175h-221q-1 23 -5 54.5t-9 53.5q-9 50 -37 50q-11 0 -20 -6.5t-28 -27.5q-64 -78 -151 -120t-207 -42zM919 1301q-64 0 -105.5 40
t-41.5 98q0 59 41.5 99.5t105.5 40.5t105.5 -40.5t41.5 -99.5q0 -58 -41.5 -98t-105.5 -40zM459 1301q-64 0 -105 40t-41 98q0 59 41 99.5t105 40.5q65 0 106.5 -40.5t41.5 -99.5q0 -58 -41.5 -98t-106.5 -40zM356 1684v178h668v-178h-668z" />
    <glyph glyph-name="uni01D7" unicode="&#x1d7;" horiz-adv-x="1677" 
d="M839 -40q-206 0 -361.5 74t-242.5 222t-87 368v973h338v-992q0 -181 92 -274.5t261 -93.5t260 93.5t91 274.5v992h338v-973q0 -220 -86.5 -368t-241.5 -222t-361 -74zM1077 1738q-65 0 -107.5 41.5t-42.5 104.5q0 62 42.5 103.5t107.5 41.5q67 0 110 -41.5t43 -103.5
t-42.5 -104t-110.5 -42zM599 1738q-67 0 -109 42t-42 104q0 61 42 103t109 42q66 0 109 -42t43 -103q0 -62 -42.5 -104t-109.5 -42zM711 2104l230 322h309l-306 -322h-233z" />
    <glyph glyph-name="uni01D8" unicode="&#x1d8;" horiz-adv-x="1385" 
d="M569 -38q-213 0 -329 126.5t-116 355.5v731h303v-680q0 -128 58 -196t168 -68q144 0 216 99q36 48 55.5 118.5t19.5 164.5v562h303v-1175h-221q-1 23 -5 54.5t-9 53.5q-9 50 -37 50q-11 0 -20 -6.5t-28 -27.5q-64 -78 -151 -120t-207 -42zM919 1301q-64 0 -105.5 40
t-41.5 98q0 59 41.5 99.5t105.5 40.5t105.5 -40.5t41.5 -99.5q0 -58 -41.5 -98t-105.5 -40zM459 1301q-64 0 -105 40t-41 98q0 59 41 99.5t105 40.5q65 0 106.5 -40.5t41.5 -99.5q0 -58 -41.5 -98t-106.5 -40zM777 1653l248 346h-257l-166 -346h175z" />
    <glyph glyph-name="uni01D9" unicode="&#x1d9;" horiz-adv-x="1677" 
d="M839 -40q-206 0 -361.5 74t-242.5 222t-87 368v973h338v-992q0 -181 92 -274.5t261 -93.5t260 93.5t91 274.5v992h338v-973q0 -220 -86.5 -368t-241.5 -222t-361 -74zM1077 1738q-65 0 -107.5 41.5t-42.5 104.5q0 62 42.5 103.5t107.5 41.5q67 0 110 -41.5t43 -103.5
t-42.5 -104t-110.5 -42zM599 1738q-67 0 -109 42t-42 104q0 61 42 103t109 42q66 0 109 -42t43 -103q0 -62 -42.5 -104t-109.5 -42zM420 2421l273 -319h292l274 319h-241l-150 -133q-14 -12 -29 -12t-29 12l-149 133h-241z" />
    <glyph glyph-name="uni01DA" unicode="&#x1da;" horiz-adv-x="1385" 
d="M569 -38q-213 0 -329 126.5t-116 355.5v731h303v-680q0 -128 58 -196t168 -68q144 0 216 99q36 48 55.5 118.5t19.5 164.5v562h303v-1175h-221q-1 23 -5 54.5t-9 53.5q-9 50 -37 50q-11 0 -20 -6.5t-28 -27.5q-64 -78 -151 -120t-207 -42zM919 1301q-64 0 -105.5 40
t-41.5 98q0 59 41.5 99.5t105.5 40.5t105.5 -40.5t41.5 -99.5q0 -58 -41.5 -98t-105.5 -40zM459 1301q-64 0 -105 40t-41 98q0 59 41 99.5t105 40.5q65 0 106.5 -40.5t41.5 -99.5q0 -58 -41.5 -98t-106.5 -40zM315 2029l271 -376h210l270 376h-200l-141 -148
q-17 -18 -34 -18t-33 18l-143 148h-200z" />
    <glyph glyph-name="uni01DB" unicode="&#x1db;" horiz-adv-x="1677" 
d="M839 -40q-206 0 -361.5 74t-242.5 222t-87 368v973h338v-992q0 -181 92 -274.5t261 -93.5t260 93.5t91 274.5v992h338v-973q0 -220 -86.5 -368t-241.5 -222t-361 -74zM1077 1738q-65 0 -107.5 41.5t-42.5 104.5q0 62 42.5 103.5t107.5 41.5q67 0 110 -41.5t43 -103.5
t-42.5 -104t-110.5 -42zM599 1738q-67 0 -109 42t-42 104q0 61 42 103t109 42q66 0 109 -42t43 -103q0 -62 -42.5 -104t-109.5 -42zM957 2104l-230 322h-309l306 -322h233z" />
    <glyph glyph-name="uni01DC" unicode="&#x1dc;" horiz-adv-x="1385" 
d="M569 -38q-213 0 -329 126.5t-116 355.5v731h303v-680q0 -128 58 -196t168 -68q144 0 216 99q36 48 55.5 118.5t19.5 164.5v562h303v-1175h-221q-1 23 -5 54.5t-9 53.5q-9 50 -37 50q-11 0 -20 -6.5t-28 -27.5q-64 -78 -151 -120t-207 -42zM919 1301q-64 0 -105.5 40
t-41.5 98q0 59 41.5 99.5t105.5 40.5t105.5 -40.5t41.5 -99.5q0 -58 -41.5 -98t-105.5 -40zM459 1301q-64 0 -105 40t-41 98q0 59 41 99.5t105 40.5q65 0 106.5 -40.5t41.5 -99.5q0 -58 -41.5 -98t-106.5 -40zM603 1653l-248 346h257l166 -346h-175z" />
    <glyph glyph-name="uni01DD" unicode="&#x1dd;" horiz-adv-x="1359" 
d="M678 -38q-178 0 -316 75t-217 209t-79 309q0 29 2.5 65.5t6.5 54.5h911q-7 138 -89 220.5t-218 82.5q-106 0 -179.5 -45t-110.5 -124h-302q49 185 205.5 294.5t387.5 109.5q181 0 319 -78t216 -218t78 -327q0 -184 -78.5 -325.5t-217 -222t-319.5 -80.5zM682 193
q128 0 209 81t95 212h-622q5 -134 93 -213.5t225 -79.5z" />
    <glyph glyph-name="uni01DE" unicode="&#x1de;" horiz-adv-x="1596" 
d="M4 0l563 1597h457l573 -1597h-371l-128 370h-615l-128 -370h-351zM548 613h487l-245 734zM1028 1738q-65 0 -107.5 41.5t-42.5 104.5q0 62 42.5 103.5t107.5 41.5q67 0 110 -41.5t43 -103.5t-42.5 -104t-110.5 -42zM550 1738q-67 0 -109 42t-42 104q0 61 42 103t109 42
q66 0 109 -42t43 -103q0 -62 -42.5 -104t-109.5 -42zM459 2147v192h662v-192h-662z" />
    <glyph glyph-name="uni01DF" unicode="&#x1df;" horiz-adv-x="1286" 
d="M511 -36q-131 0 -231.5 45.5t-157 129.5t-56.5 198q0 333 469 367q100 7 193 18.5t143 24.5v14q0 103 -57 161.5t-162 58.5q-97 0 -160 -44.5t-81 -121.5h-313q35 176 178 287.5t372 111.5q249 0 382 -124t133 -356v-734h-226q-1 24 -5 57t-9 55q-8 35 -27 35
q-18 0 -40 -29q-57 -74 -141.5 -114t-203.5 -40zM375 350q0 -76 56 -120t150 -44q80 0 143 29.5t101 104.5q22 41 34 94t12 119v20q-46 -13 -121.5 -25t-162.5 -21q-115 -11 -163.5 -48.5t-48.5 -108.5zM871 1299q-64 0 -105.5 40t-41.5 98q0 59 41.5 99.5t105.5 40.5
t105.5 -40.5t41.5 -99.5q0 -58 -41.5 -98t-105.5 -40zM411 1299q-64 0 -105 40t-41 98q0 59 41 99.5t105 40.5q65 0 106.5 -40.5t41.5 -99.5q0 -58 -41.5 -98t-106.5 -40zM308 1682v178h668v-178h-668z" />
    <glyph glyph-name="uni01E4" unicode="&#x1e4;" horiz-adv-x="1997" 
d="M882 -34q-174 0 -321.5 59.5t-256 169.5t-168.5 262t-60 338t63.5 340.5t179 266.5t273.5 173.5t348 61.5q220 0 392 -75.5t281 -215.5t138 -333h-352q-36 161 -153.5 249.5t-295.5 88.5q-150 0 -267 -67t-183.5 -190.5t-66.5 -292.5q0 -168 64 -292.5t178.5 -193.5
t266.5 -69q151 0 254 61t162 177q8 15 15 32h-322v212h915v-212h-236v-516h-231q-4 45 -8.5 89.5t-10.5 73.5q-12 52 -40 52q-13 0 -25 -8t-33 -31q-83 -99 -211.5 -154.5t-288.5 -55.5z" />
    <glyph glyph-name="uni01E5" unicode="&#x1e5;" horiz-adv-x="1671" 
d="M50 527v174h168q19 154 98 268.5t198.5 177.5t260.5 63q116 0 205 -39.5t165 -116.5q18 -19 27.5 -25t20.5 -6q26 0 34 43q5 26 8.5 57t4.5 52h224v-474h173v-174h-173v-500q0 -259 -161.5 -400.5t-435.5 -141.5q-170 0 -297.5 57t-209 157.5t-113.5 230.5h303
q30 -106 115.5 -162.5t202.5 -56.5q147 0 226 75t79 220v131q0 33 -22 33q-13 0 -33 -19q-56 -56 -142 -86.5t-187 -30.5q-152 0 -274 63t-199.5 174.5t-96.5 255.5h-169zM850 956q-127 0 -213.5 -69.5t-111.5 -185.5h650q-24 116 -110.5 185.5t-214.5 69.5zM850 273
q128 0 214 69.5t111 184.5h-650q25 -115 111.5 -184.5t213.5 -69.5z" />
    <glyph glyph-name="Gcaron" unicode="&#x1e6;" horiz-adv-x="1841" 
d="M882 -34q-174 0 -321.5 59.5t-256 169.5t-168.5 262t-60 338t63.5 340.5t179 266.5t273.5 173.5t348 61.5q220 0 392 -75.5t281 -215.5t138 -333h-352q-36 161 -153.5 249.5t-295.5 88.5q-150 0 -267 -67t-183.5 -190.5t-66.5 -292.5q0 -168 64 -292.5t178.5 -193.5
t266.5 -69q151 0 254 61t162 177q29 56 45.5 125.5t23.5 143.5h303v-753h-231q-4 45 -8.5 89.5t-10.5 73.5q-12 52 -40 52q-13 0 -25 -8t-33 -31q-83 -99 -211.5 -154.5t-288.5 -55.5zM493 2071l294 -351h288l295 351h-237l-173 -158q-16 -13 -29 -13q-12 0 -28 13l-173 158
h-237z" />
    <glyph glyph-name="gcaron" unicode="&#x1e7;" horiz-adv-x="1455" 
d="M723 -514q-170 0 -298 57t-209.5 157.5t-113.5 230.5h304q29 -105 114.5 -162t203.5 -57q147 0 225.5 75t78.5 220v130q0 33 -21 33q-14 0 -33 -19q-57 -56 -143 -86.5t-187 -30.5q-166 0 -296 75.5t-205 207t-75 297.5q0 179 77 313t204.5 208.5t281.5 74.5
q116 0 205 -39.5t164 -116.5q19 -19 28 -25t21 -6q24 0 34 43q10 58 12 109h225v-1147q0 -173 -73.5 -294t-207.5 -184.5t-316 -63.5zM705 279q146 0 236 93t90 242t-90 242t-236 93t-236 -93t-90 -242q0 -148 90 -241.5t236 -93.5zM326 1751l301 -436h226l301 436h-206
l-168 -186q-22 -23 -40 -23t-40 23l-168 186h-206z" />
    <glyph glyph-name="uni01E8" unicode="&#x1e8;" horiz-adv-x="1544" 
d="M166 0v1597h338v-771l647 771h399l-667 -774l691 -823h-430l-640 778v-778h-338zM343 2071l294 -351h288l295 351h-237l-173 -158q-16 -13 -29 -13q-12 0 -28 13l-173 158h-237z" />
    <glyph glyph-name="uni01E9" unicode="&#x1e9;" horiz-adv-x="1271" 
d="M137 0v1659h304v-1045l460 561h369l-487 -572l520 -603h-390l-472 563v-563h-304zM-151 2133l294 -351h288l295 351h-237l-173 -158q-16 -13 -29 -13q-12 0 -28 13l-173 158h-237z" />
    <glyph glyph-name="uni01EA" unicode="&#x1ea;" horiz-adv-x="1892" 
d="M946 -40q-194 0 -354 62.5t-275.5 175.5t-178.5 266.5t-63 334.5q0 182 63 335t178.5 266t275.5 175.5t354 62.5t354 -62.5t275.5 -175.5t178 -266t62.5 -335q0 -181 -62.5 -334.5t-178 -266.5t-275.5 -175.5t-354 -62.5zM946 250q153 0 269 68.5t180.5 192.5t64.5 288
q0 165 -64.5 288.5t-180.5 192t-269 68.5t-269 -68.5t-180.5 -192t-64.5 -288.5q0 -164 64.5 -288t180.5 -192.5t269 -68.5zM1273 -508q-135 0 -219.5 63.5t-83.5 180.5q0 110 80 201t258 182l83 -54q-96 -64 -140.5 -129t-45.5 -127q0 -58 35 -85t90 -27q35 0 72.5 7
t74.5 22l1 -190q-43 -22 -97.5 -33t-107.5 -11z" />
    <glyph glyph-name="uni01EB" unicode="&#x1eb;" horiz-adv-x="1437" 
d="M719 -38q-190 0 -338 80.5t-232.5 222t-84.5 323.5t84.5 323t232.5 221.5t338 80.5t337.5 -80.5t232 -221.5t84.5 -323t-84.5 -323.5t-232 -222t-337.5 -80.5zM719 222q155 0 249.5 101.5t94.5 264.5q0 162 -94.5 263.5t-249.5 101.5t-250 -101.5t-95 -263.5
q0 -163 95 -264.5t250 -101.5zM972 -494q-130 0 -210 63.5t-80 172.5q0 107 77.5 196t250.5 181l84 -54q-191 -131 -191 -261q0 -55 35 -81t91 -26q57 0 120 22l1 -178q-80 -35 -178 -35z" />
    <glyph glyph-name="uni01EC" unicode="&#x1ec;" horiz-adv-x="1892" 
d="M946 -40q-194 0 -354 62.5t-275.5 175.5t-178.5 266.5t-63 334.5q0 182 63 335t178.5 266t275.5 175.5t354 62.5t354 -62.5t275.5 -175.5t178 -266t62.5 -335q0 -181 -62.5 -334.5t-178 -266.5t-275.5 -175.5t-354 -62.5zM946 250q153 0 269 68.5t180.5 192.5t64.5 288
q0 165 -64.5 288.5t-180.5 192t-269 68.5t-269 -68.5t-180.5 -192t-64.5 -288.5q0 -164 64.5 -288t180.5 -192.5t269 -68.5zM590 1749v198h712v-198h-712zM1273 -508q-135 0 -219.5 63.5t-83.5 180.5q0 110 80 201t258 182l83 -54q-96 -64 -140.5 -129t-45.5 -127
q0 -58 35 -85t90 -27q35 0 72.5 7t74.5 22l1 -190q-43 -22 -97.5 -33t-107.5 -11z" />
    <glyph glyph-name="uni01ED" unicode="&#x1ed;" horiz-adv-x="1437" 
d="M719 -38q-190 0 -338 80.5t-232.5 222t-84.5 323.5t84.5 323t232.5 221.5t338 80.5t337.5 -80.5t232 -221.5t84.5 -323t-84.5 -323.5t-232 -222t-337.5 -80.5zM719 222q155 0 249.5 101.5t94.5 264.5q0 162 -94.5 263.5t-249.5 101.5t-250 -101.5t-95 -263.5
q0 -163 95 -264.5t250 -101.5zM972 -494q-130 0 -210 63.5t-80 172.5q0 107 77.5 196t250.5 181l84 -54q-191 -131 -191 -261q0 -55 35 -81t91 -26q57 0 120 22l1 -178q-80 -35 -178 -35zM363 1359v198h712v-198h-712z" />
    <glyph glyph-name="uni01EE" unicode="&#x1ee;" horiz-adv-x="1287" 
d="M634 -40q-162 0 -294 61.5t-214.5 175t-98.5 269.5h328q19 -114 91.5 -177t188.5 -63t182.5 69t66.5 182q0 124 -80.5 195.5t-217.5 71.5h-320v5l382 576h-524v272h1023v-5l-407 -609q148 -12 255 -79t165 -174.5t58 -241.5q0 -156 -72 -275t-203 -186t-309 -67z
M183 2071l294 -351h288l295 351h-237l-173 -158q-16 -13 -29 -13q-12 0 -28 13l-173 158h-237z" />
    <glyph glyph-name="uni01EF" unicode="&#x1ef;" horiz-adv-x="1203" 
d="M610 -515q-164 0 -296 59.5t-214.5 168.5t-99.5 259h301q22 -114 103 -177t200 -63q126 0 201.5 78.5t75.5 208.5q0 137 -86 218t-250 81h-298v5l411 605h-559v247h1017v-5l-433 -634q150 -7 261 -75t172 -180t61 -253q0 -164 -74 -286.5t-202 -189.5t-291 -67zM178 1751
l301 -436h226l301 436h-206l-168 -186q-22 -23 -40 -23t-40 23l-168 186h-206z" />
    <glyph glyph-name="uni01F0" unicode="&#x1f0;" horiz-adv-x="581" 
d="M139 -487v1662h303v-1662h-303zM186 1316l-253 436h184l136 -186q20 -28 37 -28t37 28l136 186h184l-253 -436h-208z" />
    <glyph glyph-name="uni01F8" unicode="&#x1f8;" horiz-adv-x="1746" 
d="M166 0v1597h375l728 -1163v1163h311v-1597h-375l-728 1160v-1160h-311zM722 1720l-417 340h375l339 -340h-297z" />
    <glyph glyph-name="uni01F9" unicode="&#x1f9;" horiz-adv-x="1390" 
d="M137 0v1175h222q2 -25 6.5 -60.5t8.5 -57.5q10 -50 38 -50q20 0 47 34q65 83 154.5 127.5t213.5 44.5q209 0 324 -126t115 -356v-731h-303v680q0 126 -56.5 195t-163.5 69q-143 0 -223 -108q-79 -106 -79 -299v-537h-304zM584 1316l-303 436h324l218 -436h-239z" />
    <glyph glyph-name="Aringacute" unicode="&#x1fa;" horiz-adv-x="1596" 
d="M4 0l563 1597h457l573 -1597h-371l-128 370h-615l-128 -370h-351zM548 613h487l-245 734zM790 1709q-113 0 -186 66.5t-73 169.5q0 104 73 170.5t186 66.5t186 -66.5t73 -170.5q0 -103 -73 -169.5t-186 -66.5zM790 1853q41 0 67 26.5t26 65.5q0 40 -26 66t-67 26
q-40 0 -66.5 -26t-26.5 -66q0 -39 26.5 -65.5t66.5 -26.5zM661 2099l230 322h309l-306 -322h-233z" />
    <glyph glyph-name="aringacute" unicode="&#x1fb;" horiz-adv-x="1286" 
d="M511 -36q-131 0 -231.5 45.5t-157 129.5t-56.5 198q0 333 469 367q100 7 193 18.5t143 24.5v14q0 103 -57 161.5t-162 58.5q-97 0 -160 -44.5t-81 -121.5h-313q35 176 178 287.5t372 111.5q249 0 382 -124t133 -356v-734h-226q-1 24 -5 57t-9 55q-8 35 -27 35
q-18 0 -40 -29q-57 -74 -141.5 -114t-203.5 -40zM375 350q0 -76 56 -120t150 -44q80 0 143 29.5t101 104.5q22 41 34 94t12 119v20q-46 -13 -121.5 -25t-162.5 -21q-115 -11 -163.5 -48.5t-48.5 -108.5zM641 1296q-106 0 -173.5 62t-67.5 158q0 97 67.5 159t173.5 62
t174 -62t68 -159q0 -96 -68 -158t-174 -62zM641 1425q42 0 68.5 25.5t26.5 65.5t-26.5 66t-68.5 26q-41 0 -68 -26t-27 -66t27 -65.5t68 -25.5zM728 1654l248 346h-257l-166 -346h175z" />
    <glyph glyph-name="AEacute" unicode="&#x1fc;" horiz-adv-x="2252" 
d="M-62 0l950 1597h1257v-272h-724v-386h622v-264h-622v-403h764v-272h-1094v470l-484 2l-277 -472h-392zM735 726h356v616zM1583 1720l417 340h-375l-339 -340h297z" />
    <glyph glyph-name="aeacute" unicode="&#x1fd;" horiz-adv-x="2135" 
d="M577 -38q-149 1 -264.5 46.5t-181.5 131.5t-66 207q0 158 117.5 250.5t338.5 92.5h349v31q0 262 -226 262q-89 0 -150.5 -45.5t-80.5 -125.5h-313q23 116 91.5 206.5t181 142.5t264.5 52q143 -1 251 -54.5t160 -149.5q71 98 185.5 151.5t254.5 53.5q174 0 304.5 -76
t203 -209t72.5 -305q0 -32 -2 -69t-7 -54h-884q6 -138 86.5 -221t217.5 -83q102 0 171.5 45t94.5 124h302q-44 -187 -194.5 -295.5t-365.5 -108.5q-162 0 -283 63.5t-184 174.5q-54 -114 -172.5 -176.5t-270.5 -61.5zM1480 982q-132 0 -213 -80.5t-91 -211.5l594 -1
q-5 134 -84.5 213.5t-205.5 79.5zM599 182q133 -1 199 76.5t71 242.5h-286q-210 0 -210 -152q0 -76 61 -121.5t165 -45.5zM1174 1317l303 436h-324l-218 -436h239z" />
    <glyph glyph-name="Oslashacute" unicode="&#x1fe;" horiz-adv-x="1892" 
d="M108 -100l215 291q-118 112 -183 268t-65 340q0 182 63 335t178.5 266t275.5 175.5t354 62.5q110 0 209.5 -20.5t186.5 -59.5l104 140h339l-216 -292q117 -112 182 -267.5t65 -339.5q0 -181 -62.5 -334.5t-178 -266.5t-275.5 -175.5t-354 -62.5q-110 0 -210 21t-187 60
l-104 -141h-337zM413 799q0 -111 30 -204.5t85 -164.5l659 880q-109 51 -241 51q-158 0 -278.5 -70.5t-187.5 -196.5t-67 -295zM946 237q159 0 279 70.5t187 196.5t67 295q0 111 -30 204.5t-85 164.5l-658 -880q108 -51 240 -51zM1100 1720l417 340h-375l-339 -340h297z" />
    <glyph glyph-name="oslashacute" unicode="&#x1ff;" horiz-adv-x="1437" 
d="M88 -100l167 233q-90 83 -140.5 199.5t-50.5 255.5q0 182 84.5 323t232.5 221.5t338 80.5q148 0 276 -52l82 114h273l-168 -232q90 -84 140.5 -200t50.5 -255q0 -182 -84.5 -323.5t-232 -222t-337.5 -80.5q-149 0 -277 52l-82 -114h-272zM353 588q0 -147 75 -248l436 606
q-67 26 -145 26q-109 0 -191.5 -48.5t-128.5 -135t-46 -200.5zM719 203q109 0 191.5 48.5t128.5 135t46 201.5q0 147 -76 248l-437 -606q68 -27 147 -27zM837 1316l303 436h-324l-218 -436h239z" />
    <glyph glyph-name="uni0218" unicode="&#x218;" horiz-adv-x="1385" 
d="M710 -40q-188 0 -331 67.5t-227.5 187.5t-98.5 278h327q19 -135 109 -209t229 -74q120 0 189.5 57.5t69.5 146.5q0 70 -29 115.5t-96.5 77.5t-185.5 59q-289 68 -416 187t-127 318q0 141 70 245.5t198 162.5t301 58q260 0 409.5 -127t176.5 -351h-320
q-16 107 -81.5 168.5t-181.5 61.5q-109 0 -173.5 -54t-64.5 -142q0 -87 57 -139t202 -87q309 -72 452 -196.5t143 -328.5q0 -149 -75.5 -257t-210.5 -166.5t-315 -58.5zM526 -541l80 423h261l-141 -423h-200z" />
    <glyph glyph-name="uni0219" unicode="&#x219;" horiz-adv-x="1153" 
d="M596 -40q-230 0 -372.5 105.5t-171.5 291.5h306q14 -84 74.5 -132t164.5 -48q90 0 143 36.5t53 97.5q0 65 -47.5 99.5t-183.5 57.5q-250 44 -356 131.5t-106 253.5q0 108 58.5 189.5t164.5 126.5t246 45q221 0 347.5 -98.5t150.5 -285.5h-295q-14 86 -61 127t-135 41
q-82 0 -131 -34.5t-49 -93.5q0 -64 50 -97t172 -54q174 -29 277.5 -76t148.5 -122t45 -188q0 -109 -63 -193t-174 -132t-256 -48zM412 -616l88 463h261l-155 -463h-194z" />
    <glyph glyph-name="uni021A" unicode="&#x21a;" horiz-adv-x="1370" 
d="M516 0v1325h-490v272h1318v-272h-490v-1325h-338zM472 -541l80 423h261l-141 -423h-200z" />
    <glyph glyph-name="uni021B" unicode="&#x21b;" horiz-adv-x="913" 
d="M662 -15q-211 0 -314 97.5t-103 322.5v523h-223v247h133q68 0 100 24t45 73q11 41 21.5 108.5t16.5 125.5h204v-331h309v-247h-309v-493q0 -112 44 -160.5t145 -48.5q67 0 139 19v-230q-37 -13 -95 -21.5t-113 -8.5zM361 -611l88 463h261l-155 -463h-194z" />
    <glyph glyph-name="uni021E" unicode="&#x21e;" horiz-adv-x="1721" 
d="M166 0v1597h338v-654h713v654h338v-1597h-338v674h-713v-674h-338zM423 2071l294 -351h288l295 351h-237l-173 -158q-16 -13 -29 -13q-12 0 -28 13l-173 158h-237z" />
    <glyph glyph-name="uni021F" unicode="&#x21f;" horiz-adv-x="1390" 
d="M137 0v1659h304v-596q0 -37 22 -37q15 0 37 30q60 76 143.5 116.5t197.5 40.5q198 0 311.5 -126.5t113.5 -356.5v-730h-303v680q0 126 -56.5 195t-163.5 69q-143 0 -223 -108q-79 -106 -79 -299v-537h-304zM-149 2133l294 -351h288l295 351h-237l-173 -158
q-16 -13 -29 -13q-12 0 -28 13l-173 158h-237z" />
    <glyph glyph-name="uni0226" unicode="&#x226;" horiz-adv-x="1596" 
d="M4 0l563 1597h457l573 -1597h-371l-128 370h-615l-128 -370h-351zM548 613h487l-245 734zM789 1730q-73 0 -120 46t-47 114t47 114t120 46q74 0 121 -46t47 -114t-47 -114t-121 -46z" />
    <glyph glyph-name="uni0227" unicode="&#x227;" horiz-adv-x="1286" 
d="M511 -36q-131 0 -231.5 45.5t-157 129.5t-56.5 198q0 333 469 367q100 7 193 18.5t143 24.5v14q0 103 -57 161.5t-162 58.5q-97 0 -160 -44.5t-81 -121.5h-313q35 176 178 287.5t372 111.5q249 0 382 -124t133 -356v-734h-226q-1 24 -5 57t-9 55q-8 35 -27 35
q-18 0 -40 -29q-57 -74 -141.5 -114t-203.5 -40zM375 350q0 -76 56 -120t150 -44q80 0 143 29.5t101 104.5q22 41 34 94t12 119v20q-46 -13 -121.5 -25t-162.5 -21q-115 -11 -163.5 -48.5t-48.5 -108.5zM640 1323q-73 0 -119.5 45.5t-46.5 113.5t46.5 113.5t119.5 45.5
t119.5 -45.5t46.5 -113.5t-46.5 -113.5t-119.5 -45.5z" />
    <glyph glyph-name="uni0228" unicode="&#x228;" horiz-adv-x="1363" 
d="M166 0v1597h1090v-272h-760v-386h658v-264h-658v-403h800v-272h-1130zM790 -534q-163 0 -254.5 85.5t-100.5 232.5h221q11 -134 128 -134q106 0 106 99q0 124 -243 251l198 19q120 -47 188.5 -123.5t68.5 -173.5q0 -115 -85 -185.5t-227 -70.5z" />
    <glyph glyph-name="uni0229" unicode="&#x229;" horiz-adv-x="1361" 
d="M692 -38q-183 0 -324 78t-221.5 218.5t-80.5 326.5q0 184 81.5 325.5t222 222t317.5 80.5q189 0 325 -77.5t209 -212t73 -305.5q0 -30 -2.5 -68.5t-6.5 -58.5h-910q10 -134 96 -214t222 -80q107 0 180 45t98 124h302q-43 -185 -197 -294.5t-384 -109.5zM693 982
q-132 0 -217.5 -79t-99.5 -208h620q-7 131 -90.5 209t-212.5 78zM715 -531q-159 0 -245.5 87.5t-95.5 227.5h210q5 -65 38.5 -101.5t93.5 -36.5q106 0 106 97q0 121 -243 257h221q104 -47 161 -119t57 -152q0 -113 -79.5 -186.5t-223.5 -73.5z" />
    <glyph glyph-name="uni022A" unicode="&#x22a;" horiz-adv-x="1892" 
d="M946 -40q-194 0 -354 62.5t-275.5 175.5t-178.5 266.5t-63 334.5q0 182 63 335t178.5 266t275.5 175.5t354 62.5t354 -62.5t275.5 -175.5t178 -266t62.5 -335q0 -181 -62.5 -334.5t-178 -266.5t-275.5 -175.5t-354 -62.5zM946 250q153 0 269 68.5t180.5 192.5t64.5 288
q0 165 -64.5 288.5t-180.5 192t-269 68.5t-269 -68.5t-180.5 -192t-64.5 -288.5q0 -164 64.5 -288t180.5 -192.5t269 -68.5zM1184 1738q-65 0 -107.5 41.5t-42.5 104.5q0 62 42.5 103.5t107.5 41.5q67 0 110 -41.5t43 -103.5t-42.5 -104t-110.5 -42zM706 1738q-67 0 -109 42
t-42 104q0 61 42 103t109 42q66 0 109 -42t43 -103q0 -62 -42.5 -104t-109.5 -42zM615 2147v192h662v-192h-662z" />
    <glyph glyph-name="uni022B" unicode="&#x22b;" horiz-adv-x="1437" 
d="M719 -38q-190 0 -338 80.5t-232.5 222t-84.5 323.5t84.5 323t232.5 221.5t338 80.5t337.5 -80.5t232 -221.5t84.5 -323t-84.5 -323.5t-232 -222t-337.5 -80.5zM719 222q155 0 249.5 101.5t94.5 264.5q0 162 -94.5 263.5t-249.5 101.5t-250 -101.5t-95 -263.5
q0 -163 95 -264.5t250 -101.5zM949 1301q-64 0 -105.5 40t-41.5 98q0 59 41.5 99.5t105.5 40.5t105.5 -40.5t41.5 -99.5q0 -58 -41.5 -98t-105.5 -40zM489 1301q-64 0 -105 40t-41 98q0 59 41 99.5t105 40.5q65 0 106.5 -40.5t41.5 -99.5q0 -58 -41.5 -98t-106.5 -40z
M386 1684v178h668v-178h-668z" />
    <glyph glyph-name="uni022C" unicode="&#x22c;" horiz-adv-x="1892" 
d="M946 -40q-194 0 -354 62.5t-275.5 175.5t-178.5 266.5t-63 334.5q0 182 63 335t178.5 266t275.5 175.5t354 62.5t354 -62.5t275.5 -175.5t178 -266t62.5 -335q0 -181 -62.5 -334.5t-178 -266.5t-275.5 -175.5t-354 -62.5zM946 250q153 0 269 68.5t180.5 192.5t64.5 288
q0 165 -64.5 288.5t-180.5 192t-269 68.5t-269 -68.5t-180.5 -192t-64.5 -288.5q0 -164 64.5 -288t180.5 -192.5t269 -68.5zM1086 1730q-66 0 -115.5 30t-89.5 60t-80 30q-36 0 -57.5 -28t-30.5 -75h-157q17 131 84 211t169 80q65 0 113.5 -30t88.5 -60t80 -30q36 0 58 28
t30 74h158q-16 -130 -83 -210t-168 -80zM615 2169v192h662v-192h-662z" />
    <glyph glyph-name="uni022D" unicode="&#x22d;" horiz-adv-x="1437" 
d="M719 -38q-190 0 -338 80.5t-232.5 222t-84.5 323.5t84.5 323t232.5 221.5t338 80.5t337.5 -80.5t232 -221.5t84.5 -323t-84.5 -323.5t-232 -222t-337.5 -80.5zM719 222q155 0 249.5 101.5t94.5 264.5q0 162 -94.5 263.5t-249.5 101.5t-250 -101.5t-95 -263.5
q0 -163 95 -264.5t250 -101.5zM851 1335q-58 0 -103.5 26t-82.5 51.5t-72 25.5q-66 0 -83 -89h-160q17 124 79 199t159 75q58 0 103 -25.5t82.5 -51.5t72.5 -26q66 0 84 88h159q-16 -124 -79 -198.5t-159 -74.5zM385 1758v178h668v-178h-668z" />
    <glyph glyph-name="uni022E" unicode="&#x22e;" horiz-adv-x="1892" 
d="M946 -40q-194 0 -354 62.5t-275.5 175.5t-178.5 266.5t-63 334.5q0 182 63 335t178.5 266t275.5 175.5t354 62.5t354 -62.5t275.5 -175.5t178 -266t62.5 -335q0 -181 -62.5 -334.5t-178 -266.5t-275.5 -175.5t-354 -62.5zM946 250q153 0 269 68.5t180.5 192.5t64.5 288
q0 165 -64.5 288.5t-180.5 192t-269 68.5t-269 -68.5t-180.5 -192t-64.5 -288.5q0 -164 64.5 -288t180.5 -192.5t269 -68.5zM945 1730q-73 0 -120 46t-47 114t47 114t120 46q74 0 121 -46t47 -114t-47 -114t-121 -46z" />
    <glyph glyph-name="uni022F" unicode="&#x22f;" horiz-adv-x="1437" 
d="M719 -38q-190 0 -338 80.5t-232.5 222t-84.5 323.5t84.5 323t232.5 221.5t338 80.5t337.5 -80.5t232 -221.5t84.5 -323t-84.5 -323.5t-232 -222t-337.5 -80.5zM719 222q155 0 249.5 101.5t94.5 264.5q0 162 -94.5 263.5t-249.5 101.5t-250 -101.5t-95 -263.5
q0 -163 95 -264.5t250 -101.5zM718 1325q-73 0 -119.5 45.5t-46.5 113.5t46.5 113.5t119.5 45.5t119.5 -45.5t46.5 -113.5t-46.5 -113.5t-119.5 -45.5z" />
    <glyph glyph-name="uni0230" unicode="&#x230;" horiz-adv-x="1892" 
d="M946 -40q-194 0 -354 62.5t-275.5 175.5t-178.5 266.5t-63 334.5q0 182 63 335t178.5 266t275.5 175.5t354 62.5t354 -62.5t275.5 -175.5t178 -266t62.5 -335q0 -181 -62.5 -334.5t-178 -266.5t-275.5 -175.5t-354 -62.5zM946 250q153 0 269 68.5t180.5 192.5t64.5 288
q0 165 -64.5 288.5t-180.5 192t-269 68.5t-269 -68.5t-180.5 -192t-64.5 -288.5q0 -164 64.5 -288t180.5 -192.5t269 -68.5zM945 1738q-67 0 -110 42.5t-43 106.5q0 62 43 105t110 43q68 0 112 -43t44 -105q0 -63 -43.5 -106t-112.5 -43zM615 2147v192h662v-192h-662z" />
    <glyph glyph-name="uni0231" unicode="&#x231;" horiz-adv-x="1437" 
d="M719 -38q-190 0 -338 80.5t-232.5 222t-84.5 323.5t84.5 323t232.5 221.5t338 80.5t337.5 -80.5t232 -221.5t84.5 -323t-84.5 -323.5t-232 -222t-337.5 -80.5zM719 222q155 0 249.5 101.5t94.5 264.5q0 162 -94.5 263.5t-249.5 101.5t-250 -101.5t-95 -263.5
q0 -163 95 -264.5t250 -101.5zM718 1301q-67 0 -110 42t-43 103q0 63 43 105t110 42q68 0 110.5 -42t42.5 -105q0 -61 -42.5 -103t-110.5 -42zM385 1696v178h668v-178h-668z" />
    <glyph glyph-name="uni0232" unicode="&#x232;" horiz-adv-x="1505" 
d="M591 0v640l-597 957h375l399 -668l392 668h343l-586 -958v-639h-326zM398 1749v198h712v-198h-712z" />
    <glyph glyph-name="uni0233" unicode="&#x233;" horiz-adv-x="1282" 
d="M278 -498l207 499l-484 1174h337l317 -841l311 841h315l-688 -1673h-315zM296 1359v198h712v-198h-712z" />
    <glyph glyph-name="uni0237" unicode="&#x237;" horiz-adv-x="581" 
d="M139 -487v1662h303v-1662h-303z" />
    <glyph glyph-name="uni0241" unicode="&#x241;" horiz-adv-x="1176" 
d="M373 0v373q0 103 20 193t75 176t160 177q93 83 129 142.5t36 123.5q0 80 -53 126.5t-145 46.5q-90 0 -151.5 -48.5t-78.5 -143.5h-346q29 221 185.5 344.5t394.5 123.5q164 0 283.5 -55.5t184.5 -154.5t65 -230q0 -77 -22.5 -147t-76.5 -143.5t-149 -163.5
q-73 -71 -110 -126t-49.5 -111.5t-12.5 -134.5v-368h-339z" />
    <glyph glyph-name="uni0242" unicode="&#x242;" horiz-adv-x="1125" 
d="M345 0v85q0 150 61 256.5t198 212.5q69 53 106.5 90t51.5 71.5t14 76.5q0 77 -56 126t-149 49q-103 0 -172.5 -58t-85.5 -160h-310q27 215 179.5 339t387.5 124q154 0 268 -53t177.5 -148t63.5 -220q0 -117 -60 -210.5t-203 -200.5q-92 -72 -132.5 -141.5t-40.5 -164.5
v-74h-298z" />
    <glyph glyph-name="uni0243" unicode="&#x243;" horiz-adv-x="1592" 
d="M255 0v394h-214v190h214v1013h687q248 0 377.5 -113.5t129.5 -298.5q0 -242 -228 -334q143 -45 218 -147.5t75 -245.5q0 -218 -136 -338t-395 -120h-728zM582 934h302q248 0 248 205q0 203 -246 203h-304v-408zM582 255h350q126 0 191 61.5t65 171.5q0 116 -66 175.5
t-191 59.5h-349v-153h392v-162h-392v-153z" />
    <glyph glyph-name="uni0244" unicode="&#x244;" horiz-adv-x="1905" 
d="M21 808v241h241v548h331v-548h719v548h330v-548h242v-241h-242v-184q0 -220 -86.5 -368t-241.5 -222t-361 -74t-361.5 74t-242.5 222t-87 368v184h-241zM593 605q0 -183 94 -277t266 -94q173 0 266 94t93 277v203h-719v-203z" />
    <glyph glyph-name="uni0245" unicode="&#x245;" horiz-adv-x="1602" 
d="M6 0l581 1597h415l606 -1597h-376l-454 1263l-433 -1263h-339z" />
    <glyph glyph-name="uni024B" unicode="&#x24b;" horiz-adv-x="1497" 
d="M1410 -514q-175 0 -264.5 96t-89.5 277v217q0 34 -21 34q-14 0 -31 -16q-55 -58 -143.5 -94t-201.5 -36q-169 0 -303.5 81.5t-212.5 223t-78 321.5q0 179 78.5 319t211.5 221t299 81q129 0 221 -42t159 -115q35 -36 54 -36q25 0 34 44q5 25 8 56.5t5 56.5h225v-1279
q0 -173 152 -173q29 0 57.5 5.5t56.5 14.5v-212q-40 -21 -99.5 -33t-116.5 -12zM721 224q154 0 248.5 101t94.5 262q0 162 -94.5 263t-248.5 101q-102 0 -179 -46t-120.5 -128t-43.5 -190q0 -107 43.5 -189t120.5 -128t179 -46z" />
    <glyph glyph-name="uni024C" unicode="&#x24c;" horiz-adv-x="1649" 
d="M267 0v635h-229v237h229v725h733q253 0 391.5 -113.5t138.5 -331.5q0 -143 -73.5 -244t-207.5 -141q107 -18 158 -81.5t70 -198.5l42 -313q11 -73 28 -115.5t33 -58.5h-342q-35 24 -48 132l-35 309q-13 108 -57.5 151t-159.5 43h-339v-635h-332zM941 1338h-341v-466h336
q263 0 263 233t-258 233z" />
    <glyph glyph-name="uni024D" unicode="&#x24d;" horiz-adv-x="1130" 
d="M208 0v422h-172v173h172v580h220q2 -20 6 -46.5t9 -49.5q9 -43 35 -43q21 0 49 33q50 62 116.5 97t155.5 35q149 0 231.5 -103t81.5 -288q0 -11 -0.5 -24t-1.5 -24h-273q2 16 2 31q1 71 -33 113t-96 42q-109 0 -161 -112q-38 -80 -38 -216v-25h300v-173h-300v-422h-303z
" />
    <glyph glyph-name="uni0251" unicode="&#x251;" horiz-adv-x="1496" 
d="M652 -35q-166 0 -298.5 81.5t-210 222.5t-77.5 319t77.5 318.5t210 222t298.5 81.5q128 0 221 -41.5t160 -115.5q34 -35 53 -35q26 0 34 43q5 26 8.5 57.5t4.5 56.5h225v-1175h-225q-1 26 -4.5 57.5t-8.5 56.5q-8 44 -34 44q-18 0 -53 -36q-67 -73 -160 -115t-221 -42z
M720 224q156 0 249.5 100.5t93.5 263.5q0 162 -93.5 263t-249.5 101q-152 0 -248 -100.5t-96 -263.5t96 -263.5t248 -100.5z" />
    <glyph glyph-name="uni0253" unicode="&#x253;" horiz-adv-x="1497" 
d="M843 -36q-129 0 -221 42.5t-160 115.5q-34 35 -53 35q-26 0 -34 -44q-4 -25 -7.5 -56t-5.5 -57h-225v1274q0 421 430 423q74 0 149 -17t124 -45v-220q-46 19 -94.5 29.5t-98.5 10.5q-207 0 -207 -197l1 -159q0 -34 21 -34q14 0 30 16q56 59 144.5 94.5t201.5 35.5
q169 0 303.5 -81.5t212.5 -222.5t78 -322q0 -178 -78.5 -318.5t-211.5 -221.5t-299 -81zM776 224q102 0 179.5 46t120.5 128.5t43 189.5t-43 189t-120.5 128t-179.5 46q-154 0 -248.5 -101t-94.5 -262q0 -162 94.5 -263t248.5 -101z" />
    <glyph glyph-name="uni0254" unicode="&#x254;" horiz-adv-x="1375" 
d="M682 -39q-265 0 -429.5 138.5t-198.5 370.5h305q20 -115 104.5 -182t212.5 -67q147 0 235.5 101.5t88.5 265.5t-88.5 265t-235.5 101q-128 0 -212.5 -66t-104.5 -182h-305q34 233 198.5 370.5t429.5 137.5q181 0 322.5 -80.5t223 -221.5t81.5 -324t-81.5 -324.5
t-223 -222t-322.5 -80.5z" />
    <glyph glyph-name="uni0256" unicode="&#x256;" horiz-adv-x="1496" 
d="M1410 -514q-175 0 -264.5 96t-89.5 277v218q0 34 -21 34q-13 0 -31 -17q-55 -58 -143.5 -94t-201.5 -36q-169 0 -303.5 81t-212.5 222.5t-78 320.5t78 320t212.5 222t303.5 81q113 0 201.5 -35.5t143.5 -94.5q17 -16 31 -16q21 0 21 34v560h304v-1763q0 -173 152 -173
q29 0 57.5 5.5t56.5 14.5v-212q-40 -21 -99.5 -33t-116.5 -12zM721 224q154 0 248.5 101t94.5 263q0 161 -94.5 262t-248.5 101q-102 0 -179 -46t-120.5 -128t-43.5 -189t43.5 -189t120.5 -128.5t179 -46.5z" />
    <glyph glyph-name="uni0257" unicode="&#x257;" horiz-adv-x="1496" 
d="M654 -36q-166 0 -299 81t-211.5 221.5t-78.5 318.5q0 181 78 322t212.5 222.5t303.5 81.5q113 0 201.5 -35.5t143.5 -94.5q17 -16 31 -16q21 0 21 34v225q0 181 89.5 277t264.5 96q57 0 116.5 -12t99.5 -32v-213q-28 9 -56.5 14.5t-57.5 5.5q-152 0 -152 -178v-1282h-225
q-2 26 -5 57t-8 56q-9 44 -34 44q-19 0 -54 -35q-67 -73 -159 -115.5t-221 -42.5zM721 224q154 0 248.5 101t94.5 263q0 161 -94.5 262t-248.5 101q-102 0 -179 -46t-120.5 -128t-43.5 -189t43.5 -189.5t120.5 -128.5t179 -46z" />
    <glyph glyph-name="uni0259" unicode="&#x259;" horiz-adv-x="1359" 
d="M678 -38q-178 0 -316 75t-217 209t-79 309q0 29 2.5 65.5t6.5 54.5h911q-7 138 -89 220.5t-218 82.5q-106 0 -179.5 -45t-110.5 -124h-302q49 185 205.5 294.5t387.5 109.5q181 0 319 -78t216 -218t78 -327q0 -184 -78.5 -325.5t-217 -222t-319.5 -80.5zM682 193
q128 0 209 81t95 212h-622q5 -134 93 -213.5t225 -79.5z" />
    <glyph glyph-name="uni025B" unicode="&#x25b;" horiz-adv-x="1137" 
d="M580 -41q-142 0 -259 41t-187 122t-70 201q0 113 69.5 189t194.5 106q-99 29 -157 99t-58 166q0 148 123.5 239.5t335.5 91.5q215 0 345.5 -97.5t140.5 -276.5h-288q-22 144 -184 144q-79 0 -128 -36.5t-49 -104.5q0 -64 50 -103.5t135 -39.5h202v-192h-206
q-98 0 -154 -41t-56 -114q0 -77 56.5 -120t154.5 -43q183 0 206 167h307q-21 -190 -156 -294t-368 -104z" />
    <glyph glyph-name="uni0260" unicode="&#x260;" horiz-adv-x="1457" 
d="M723 -514q-244 0 -407.5 120t-213.5 325h304q29 -103 113.5 -161t204.5 -58q149 0 226.5 76t77.5 220v130q0 33 -21 33q-13 0 -33 -19q-57 -56 -143 -86.5t-187 -30.5q-166 0 -296 75.5t-205 206.5t-75 298q0 171 74 305.5t202.5 212t292.5 77.5q104 0 185 -33t131 -84
q27 -24 43 -24q20 0 20 34v221q0 181 89.5 277t265.5 96q56 0 115.5 -12t99.5 -32v-213q-28 9 -56.5 14.5t-57.5 5.5q-152 0 -152 -172v-1259q0 -253 -158 -398t-439 -145zM705 280q146 0 236 93t90 242t-90 241.5t-236 92.5t-236 -93t-90 -241t90 -241.5t236 -93.5z" />
    <glyph glyph-name="uni0263" unicode="&#x263;" horiz-adv-x="1389" 
d="M698 -516q-157 0 -259.5 84.5t-102.5 229.5q0 85 44 186t138 245l-513 946h351l349 -687l344 687h333l-508 -940q97 -148 142 -250t45 -187q0 -145 -102.5 -229.5t-260.5 -84.5zM698 -308q44 0 70 26t26 73q0 92 -96 245q-96 -155 -96 -245q0 -46 26.5 -72.5t69.5 -26.5z
" />
    <glyph glyph-name="uni0265" unicode="&#x265;" horiz-adv-x="1390" 
d="M1253 1175v-1659h-304v596q0 37 -22 37q-15 0 -37 -30q-60 -76 -143.5 -116.5t-197.5 -40.5q-198 0 -311.5 126.5t-113.5 356.5v730h303v-680q0 -126 56.5 -195t163.5 -69q143 0 223 108q79 106 79 299v537h304z" />
    <glyph glyph-name="uni0266" unicode="&#x266;" horiz-adv-x="1391" 
d="M138 0v1274q0 208 108.5 315.5t322.5 107.5q74 0 148.5 -17t123.5 -45v-220q-45 19 -93.5 29.5t-98.5 10.5q-208 0 -207 -197v-195q0 -37 22 -37q15 0 37 30q60 76 143.5 116.5t197.5 40.5q198 0 311.5 -126.5t113.5 -356.5v-730h-303v680q0 126 -56.5 195t-163.5 69
q-143 0 -223 -108q-79 -106 -79 -299v-537h-304z" />
    <glyph glyph-name="uni0267" unicode="&#x267;" horiz-adv-x="1390" 
d="M836 -514q-74 0 -148.5 17.5t-124.5 45.5v220q46 -19 95 -29.5t104 -10.5q99 0 150 50.5t51 162.5v738q0 126 -56 195t-163 69q-141 0 -221 -105q-82 -106 -82 -304v-535h-303v1274q0 207 108 315t322 108q74 0 149 -17.5t124 -45.5v-220q-46 19 -94 30t-99 11
q-207 0 -207 -198v-191q0 -35 23 -35q9 0 16 5.5t21 22.5q60 74 143.5 114t195.5 40q199 0 313 -126.5t114 -357.5v-820q0 -207 -108.5 -315t-322.5 -108z" />
    <glyph glyph-name="uni0268" unicode="&#x268;" horiz-adv-x="724" 
d="M362 1346q-81 0 -133 49.5t-52 124.5q0 74 52 123.5t133 49.5t133 -49.5t52 -123.5q0 -75 -52 -124.5t-133 -49.5zM210 0v526h-172v173h172v476h304v-476h172v-173h-172v-526h-304z" />
    <glyph glyph-name="uni0269" unicode="&#x269;" horiz-adv-x="751" 
d="M544 -15q-211 0 -314.5 97.5t-103.5 322.5v770h298v-740q0 -112 43.5 -160.5t145.5 -48.5q68 0 138 19v-230q-36 -13 -94 -21.5t-113 -8.5z" />
    <glyph glyph-name="uni0272" unicode="&#x272;" horiz-adv-x="1391" 
d="M91 -514q-55 0 -115.5 12t-100.5 33v212q26 -8 56.5 -13.5t58.5 -5.5q82 0 115 45t33 133v1273h222q2 -23 6.5 -58t8.5 -56q10 -50 38 -50q20 0 47 32q65 82 154 126t213 44q209 0 324.5 -126.5t115.5 -356.5v-730h-304v680q0 126 -55.5 195t-162.5 69q-141 0 -223 -105
q-81 -107 -81 -304v-676q0 -180 -86.5 -276.5t-263.5 -96.5z" />
    <glyph glyph-name="uni0275" unicode="&#x275;" horiz-adv-x="1437" 
d="M719 -38q-190 0 -338 80.5t-232.5 222t-84.5 323.5t84.5 323t232.5 221.5t338 80.5t337.5 -80.5t232 -221.5t84.5 -323t-84.5 -323.5t-232 -222t-337.5 -80.5zM719 972q-142 0 -238 -81t-120 -216h716q-24 135 -120 216t-238 81zM719 203q142 0 238 81.5t120 216.5h-716
q24 -135 120 -216.5t238 -81.5z" />
    <glyph glyph-name="uni027D" unicode="&#x27d;" horiz-adv-x="1059" 
d="M568 -514q-214 0 -322.5 108t-108.5 315v1266h221q2 -19 6 -45t8 -48q11 -43 35 -43q21 0 50 33q50 61 116 95t154 34q149 0 231.5 -103t82.5 -288q0 -25 -3 -48h-273q1 7 1.5 14.5t0.5 17.5q1 71 -32.5 112.5t-95.5 41.5q-108 0 -161 -111q-38 -80 -38 -217v-673
q0 -115 51.5 -166.5t153.5 -51.5q88 0 170 30v-222q-47 -23 -113.5 -37t-133.5 -14z" />
    <glyph glyph-name="uni027E" unicode="&#x27e;" horiz-adv-x="767" 
d="M544 1190q55 0 113 -8.5t94 -21.5v-230q-70 19 -138 19q-102 0 -145.5 -48.5t-43.5 -160.5v-740h-298v770q0 225 103.5 322.5t314.5 97.5z" />
    <glyph glyph-name="uni0283" unicode="&#x283;" horiz-adv-x="736" 
d="M282 -515q-68 0 -134 15t-110 41v211q76 -32 153 -32q72 0 108 37t36 97q0 26 -2.5 51t-7.5 56l-175 1266q-11 74 -11 140q0 155 91.5 242.5t265.5 87.5q69 0 134.5 -14.5t110.5 -40.5v-211q-76 32 -154 32q-72 0 -107.5 -37t-35.5 -98q0 -25 3 -50t7 -57l175 -1265
q10 -79 10 -140q0 -154 -91.5 -242.5t-265.5 -88.5z" />
    <glyph glyph-name="uni0288" unicode="&#x288;" horiz-adv-x="879" 
d="M683 -514q-212 0 -319.5 108t-107.5 315v1019h-223v247h133q68 0 100 24t45 73q11 41 21.5 108.5t16.5 125.5h205v-331h308v-247h-308v-1003q0 -197 207 -197q83 0 168 31v-221q-47 -23 -114 -37.5t-132 -14.5z" />
    <glyph glyph-name="uni0289" unicode="&#x289;" horiz-adv-x="1535" 
d="M30 580v173h173v422h297v-422h529v422h297v-422h173v-173h-173v-580h-222q-1 23 -4.5 54.5t-8.5 53.5q-9 50 -37 50q-11 0 -20 -6.5t-28 -27.5q-64 -78 -151 -120t-207 -42q-209 0 -327 126.5t-118 355.5v136h-173zM500 495q0 -130 59 -199.5t173 -69.5q148 0 222 104
q33 44 52 106t22 144h-528v-85z" />
    <glyph glyph-name="uni028A" unicode="&#x28a;" horiz-adv-x="1471" 
d="M736 -38q-184 0 -326 71t-222.5 194t-80.5 277q0 144 62 253t160 171h-255v247h588v-227q-113 -52 -186 -148.5t-73 -240.5q0 -148 91 -243t242 -95q150 0 241 95t91 243q0 144 -72.5 240.5t-185.5 148.5v227h587v-247h-255q98 -62 160 -171t62 -253q0 -154 -80.5 -277
t-222 -194t-325.5 -71z" />
    <glyph glyph-name="uni028B" unicode="&#x28b;" horiz-adv-x="1318" 
d="M665 -42q-258 0 -401 139t-143 398v680h297l1 -679q0 -147 64 -219t185 -72q138 0 207.5 120t69.5 349q0 145 -42 218t-155 73q-58 0 -115 -16v220q40 15 98.5 26.5t121.5 10.5q197 -1 294.5 -123t97.5 -378q0 -231 -62 -398.5t-190.5 -258t-327.5 -90.5z" />
    <glyph glyph-name="uni028C" unicode="&#x28c;" horiz-adv-x="1314" 
d="M831 1175l484 -1175h-337l-331 881l-323 -881h-321l476 1175h352z" />
    <glyph glyph-name="uni0292" unicode="&#x292;" horiz-adv-x="1203" 
d="M610 -515q-164 0 -296 59.5t-214.5 168.5t-99.5 259h301q22 -114 103 -177t200 -63q126 0 201.5 78.5t75.5 208.5q0 137 -86 218t-250 81h-298v5l411 605h-559v247h1017v-5l-433 -634q150 -7 261 -75t172 -180t61 -253q0 -164 -74 -286.5t-202 -189.5t-291 -67z" />
    <glyph glyph-name="uni0294" unicode="&#x294;" horiz-adv-x="1090" 
d="M351 0v417q0 125 24 219.5t78.5 176.5t143.5 168q66 65 103 111.5t51.5 87.5t14.5 88q0 86 -56.5 137t-149.5 51q-105 0 -174 -58t-85 -160h-310q27 215 180 339t393 124q153 0 266 -53.5t175 -148.5t62 -220q0 -74 -19 -140.5t-71.5 -141.5t-151.5 -177
q-66 -68 -104.5 -124.5t-54.5 -121.5t-16 -161v-413h-299z" />
    <glyph glyph-name="uni0295" unicode="&#x295;" horiz-adv-x="1089" 
d="M438 0v413q0 96 -16 161t-54 121.5t-105 124.5q-99 102 -151.5 177t-72 139.5t-19.5 136.5q0 128 64 224.5t182 150t279 53.5q243 0 384.5 -124t166.5 -339h-310q-14 102 -74.5 160t-166.5 58q-102 0 -163 -52t-61 -141q0 -45 15 -85t51.5 -86t102.5 -111
q90 -86 144.5 -168t78.5 -176.5t24 -219.5v-417h-299z" />
    <glyph glyph-name="uni0298" unicode="&#x298;" horiz-adv-x="1876" 
d="M938 -40q-190 0 -348 62.5t-273.5 175.5t-178.5 266.5t-63 334.5q0 182 63 335t178.5 266t273.5 175.5t348 62.5t348 -62.5t273.5 -175.5t178.5 -266t63 -335q0 -181 -63 -334.5t-178.5 -266.5t-273.5 -175.5t-348 -62.5zM938 221q161 0 283 72t190.5 202.5t68.5 303.5
q0 174 -68.5 304t-190.5 202t-283 72t-283 -72t-190.5 -202t-68.5 -304q0 -173 68.5 -303.5t190.5 -202.5t283 -72zM937 640q-73 0 -119 45.5t-46 113.5t46 113.5t119 45.5t119.5 -45.5t46.5 -113.5t-46.5 -113.5t-119.5 -45.5z" />
    <glyph glyph-name="uni029D" unicode="&#x29d;" horiz-adv-x="586" 
d="M294 1346q-81 0 -133 49.5t-52 124.5q0 74 52 123.5t133 49.5t133 -49.5t52 -123.5q0 -75 -52 -124.5t-133 -49.5zM89 -514q-134 0 -223.5 66.5t-89.5 184.5q0 104 76.5 168t199.5 64h90v1206h303v-1206h198v-148h-202q-31 -335 -352 -335zM57 -356q101 0 101 130v47
h-101q-45 0 -72 -24.5t-27 -63.5q0 -41 27.5 -65t71.5 -24z" />
    <glyph glyph-name="uni02BB" unicode="&#x2bb;" horiz-adv-x="643" 
d="M518 1597l-114 -653h-315l202 653h227z" />
    <glyph glyph-name="uni02BC" unicode="&#x2bc;" horiz-adv-x="560" 
d="M474 1597l-152 -616h-235l91 616h296z" />
    <glyph glyph-name="uni02BE" unicode="&#x2be;" horiz-adv-x="455" 
d="M35 919q120 5 211.5 56t143 137.5t51.5 196.5q0 111 -51.5 197t-143 137.5t-211.5 55.5v-201q82 -3 135.5 -55.5t53.5 -133.5q0 -82 -53 -134.5t-136 -55.5v-200z" />
    <glyph glyph-name="uni02BF" unicode="&#x2bf;" horiz-adv-x="455" 
d="M420 919q-120 5 -211.5 56t-143 137.5t-51.5 196.5q0 111 51.5 197t143 137.5t211.5 55.5v-201q-82 -3 -135.5 -55.5t-53.5 -133.5q0 -82 53 -134.5t136 -55.5v-200z" />
    <glyph glyph-name="uni02C0" unicode="&#x2c0;" horiz-adv-x="725" 
d="M223 950v53q0 90 38 156.5t124 128.5q62 45 81.5 71.5t19.5 58.5q0 38 -28.5 61.5t-76.5 23.5q-58 0 -93.5 -31.5t-43.5 -83.5h-226q17 133 111 213t254 80q143 0 233.5 -72.5t90.5 -190.5q0 -74 -37.5 -132t-126.5 -124q-57 -40 -79 -80.5t-22 -86.5v-45h-219z" />
    <glyph glyph-name="circumflex" unicode="&#x2c6;" horiz-adv-x="928" 
d="M50 1316l301 436h226l301 -436h-206l-168 186q-22 23 -40 23t-40 -23l-168 -186h-206z" />
    <glyph glyph-name="caron" unicode="&#x2c7;" horiz-adv-x="928" 
d="M50 1751l301 -436h226l301 436h-206l-168 -186q-22 -23 -40 -23t-40 23l-168 186h-206z" />
    <glyph glyph-name="uni02C9" unicode="&#x2c9;" horiz-adv-x="600" 
d="M-346 1359v198h712v-198h-712z" />
    <glyph glyph-name="uni02CA" unicode="&#x2ca;" horiz-adv-x="600" 
d="M138 1316l303 436h-324l-218 -436h239z" />
    <glyph glyph-name="uni02CB" unicode="&#x2cb;" horiz-adv-x="600" 
d="M-99 1316l-303 436h324l218 -436h-239z" />
    <glyph glyph-name="uni02D7" unicode="&#x2d7;" horiz-adv-x="1220" 
d="M167 637v244h886v-244h-886z" />
    <glyph glyph-name="breve" unicode="&#x2d8;" horiz-adv-x="876" 
d="M438 1328q-172 0 -275 95t-113 261h188q15 -78 65 -123t135 -45t135 45t65 123h188q-10 -166 -113 -261t-275 -95z" />
    <glyph glyph-name="dotaccent" unicode="&#x2d9;" horiz-adv-x="432" 
d="M216 1325q-73 0 -119.5 45.5t-46.5 113.5t46.5 113.5t119.5 45.5t119.5 -45.5t46.5 -113.5t-46.5 -113.5t-119.5 -45.5z" />
    <glyph glyph-name="ring" unicode="&#x2da;" horiz-adv-x="646" 
d="M323 1306q-120 0 -196.5 71.5t-76.5 182.5q0 112 76.5 183.5t196.5 71.5t196.5 -71.5t76.5 -183.5q0 -111 -76.5 -182.5t-196.5 -71.5zM323 1451q48 0 78.5 31t30.5 78q0 48 -30.5 79t-78.5 31t-78.5 -31t-30.5 -79q0 -47 30.5 -78t78.5 -31z" />
    <glyph glyph-name="ogonek" unicode="&#x2db;" horiz-adv-x="569" 
d="M346 -521q-135 0 -215.5 65t-80.5 177q0 176 252 350l145 -71q-176 -135 -176 -233q0 -49 35 -73.5t90 -24.5q69 0 122 24l1 -180q-74 -34 -173 -34z" />
    <glyph glyph-name="tilde" unicode="&#x2dc;" horiz-adv-x="982" 
d="M659 1327q-61 0 -109.5 20.5t-87.5 48t-72.5 48t-65.5 20.5q-41 0 -66 -31t-35 -84h-173q19 143 91 231t181 88q61 0 109.5 -20.5t87.5 -48t73 -48t66 -20.5q41 0 65.5 32t34.5 84h174q-19 -143 -92 -231.5t-181 -88.5z" />
    <glyph glyph-name="hungarumlaut" unicode="&#x2dd;" horiz-adv-x="1074" 
d="M470 1316l252 436h301l-326 -436h-227zM50 1316l217 436h291l-280 -436h-228z" />
    <glyph glyph-name="uni02EE" unicode="&#x2ee;" horiz-adv-x="913" 
d="M869 1597l-173 -595h-220l113 595h280zM449 1597l-136 -595h-223l74 595h285z" />
    <glyph glyph-name="gravecomb" unicode="&#x300;" 
d="M-118 1316l-303 436h324l218 -436h-239z" />
    <glyph glyph-name="acutecomb" unicode="&#x301;" 
d="M118 1316l303 436h-324l-218 -436h239z" />
    <glyph glyph-name="uni0302" unicode="&#x302;" 
d="M-414 1316l301 436h226l301 -436h-206l-168 186q-22 23 -40 23t-40 -23l-168 -186h-206z" />
    <glyph glyph-name="tildecomb" unicode="&#x303;" 
d="M163 1327q-61 0 -109.5 20.5t-87.5 48t-72.5 48t-65.5 20.5q-41 0 -66 -31t-35 -84h-173q19 143 91 231t181 88q61 0 109.5 -20.5t87.5 -48t73 -48t66 -20.5q41 0 65.5 32t34.5 84h174q-19 -143 -92 -231.5t-181 -88.5z" />
    <glyph glyph-name="uni0304" unicode="&#x304;" 
d="M-356 1359v198h712v-198h-712z" />
    <glyph glyph-name="uni0306" unicode="&#x306;" 
d="M0 1328q-172 0 -275 95t-113 261h188q15 -78 65 -123t135 -45t135 45t65 123h188q-10 -166 -113 -261t-275 -95z" />
    <glyph glyph-name="uni0307" unicode="&#x307;" 
d="M0 1325q-73 0 -119.5 45.5t-46.5 113.5t46.5 113.5t119.5 45.5t119.5 -45.5t46.5 -113.5t-46.5 -113.5t-119.5 -45.5z" />
    <glyph glyph-name="uni0308" unicode="&#x308;" 
d="M259 1323q-73 0 -118.5 45t-45.5 112q0 68 45.5 113.5t118.5 45.5t119.5 -45.5t46.5 -113.5q0 -67 -46.5 -112t-119.5 -45zM-260 1323q-73 0 -119 45t-46 112q0 68 46 113.5t119 45.5t119 -45.5t46 -113.5q0 -67 -46 -112t-119 -45z" />
    <glyph glyph-name="hookabovecomb" unicode="&#x309;" 
d="M-78 1310l1 138q166 28 166 127q0 87 -125 87q-46 0 -98.5 -13.5t-97.5 -38.5v161q44 31 110.5 51t136.5 20q130 0 204.5 -63t74.5 -179q0 -128 -100.5 -203.5t-271.5 -86.5z" />
    <glyph glyph-name="uni030A" unicode="&#x30a;" 
d="M0 1306q-120 0 -196.5 71.5t-76.5 182.5q0 112 76.5 183.5t196.5 71.5t196.5 -71.5t76.5 -183.5q0 -111 -76.5 -182.5t-196.5 -71.5zM0 1451q48 0 78.5 31t30.5 78q0 48 -30.5 79t-78.5 31t-78.5 -31t-30.5 -79q0 -47 30.5 -78t78.5 -31z" />
    <glyph glyph-name="uni030B" unicode="&#x30b;" 
d="M64 1316l252 436h301l-326 -436h-227zM-356 1316l217 436h291l-280 -436h-228z" />
    <glyph glyph-name="uni030C" unicode="&#x30c;" 
d="M-414 1751l301 -436h226l301 436h-206l-168 -186q-22 -23 -40 -23t-40 23l-168 186h-206z" />
    <glyph glyph-name="uni030D" unicode="&#x30d;" 
d="M-127 1316v436h238v-436h-238z" />
    <glyph glyph-name="uni0312" unicode="&#x312;" 
d="M215 1779l-88 -463h-261l155 463h194z" />
    <glyph glyph-name="uni031B" unicode="&#x31b;" 
d="M-69 979v199h120q75 0 100.5 27t25.5 73q0 44 -13.5 88.5t-33.5 90.5h204q27 -52 47 -109t20 -123q0 -103 -72 -174.5t-206 -71.5h-192z" />
    <glyph glyph-name="dotbelowcomb" unicode="&#x323;" 
d="M0 -482q-73 0 -119.5 45.5t-46.5 113.5t46.5 113.5t119.5 45.5t119.5 -45.5t46.5 -113.5t-46.5 -113.5t-119.5 -45.5z" />
    <glyph glyph-name="uni0324" unicode="&#x324;" 
d="M265 -464q-73 0 -120 46.5t-47 114.5t47 114t120 46q74 0 120.5 -46t46.5 -114t-46.5 -114.5t-120.5 -46.5zM-266 -464q-73 0 -119.5 46.5t-46.5 114.5t46.5 114t119.5 46q74 0 121 -46t47 -114t-47 -114.5t-121 -46.5z" />
    <glyph glyph-name="uni0325" unicode="&#x325;" 
d="M0 -620q-120 0 -196.5 71.5t-76.5 182.5q0 112 76.5 183.5t196.5 71.5t196.5 -71.5t76.5 -183.5q0 -111 -76.5 -182.5t-196.5 -71.5zM0 -475q48 0 78.5 31t30.5 78q0 48 -30.5 79t-78.5 31t-78.5 -31t-30.5 -79q0 -47 30.5 -78t78.5 -31z" />
    <glyph glyph-name="uni0326" unicode="&#x326;" 
d="M-222 -616l88 463h261l-155 -463h-194z" />
    <glyph glyph-name="uni0327" unicode="&#x327;" 
d="M21 -531q-159 0 -245.5 87.5t-95.5 227.5h210q5 -65 38.5 -101.5t93.5 -36.5q106 0 106 97q0 121 -243 257h221q104 -47 161 -119t57 -152q0 -113 -79.5 -186.5t-223.5 -73.5z" />
    <glyph glyph-name="uni0328" unicode="&#x328;" 
d="M-101 -521q-135 0 -215.5 65t-80.5 177q0 176 252 350l145 -71q-176 -135 -176 -233q0 -49 35 -73.5t90 -24.5q69 0 122 24l1 -180q-74 -34 -173 -34z" />
    <glyph glyph-name="uni0329" unicode="&#x329;" 
d="M-119 -627v436h238v-436h-238z" />
    <glyph glyph-name="uni032D" unicode="&#x32d;" 
d="M-413 -631l301 436h226l301 -436h-206l-168 186q-22 23 -40 23t-40 -23l-168 -186h-206z" />
    <glyph glyph-name="uni032E" unicode="&#x32e;" 
d="M0 -497q-172 0 -275 95t-113 261h188q15 -78 65 -123t135 -45t135 45t65 123h188q-10 -166 -113 -261t-275 -95z" />
    <glyph glyph-name="uni032F" unicode="&#x32f;" 
d="M0 -100q-172 0 -275 -95t-113 -261h188q15 78 65 123t135 45t135 -45t65 -123h188q-10 166 -113 261t-275 95z" />
    <glyph glyph-name="uni0330" unicode="&#x330;" 
d="M163 -491q-61 0 -109.5 20.5t-87.5 48t-72.5 48t-65.5 20.5q-41 0 -66 -31t-35 -84h-173q19 143 91 231t181 88q61 0 109.5 -20.5t87.5 -48t73 -48t66 -20.5q41 0 65.5 32t34.5 84h174q-19 -143 -92 -231.5t-181 -88.5z" />
    <glyph glyph-name="uni0331" unicode="&#x331;" 
d="M-356 -392v198h712v-198h-712z" />
    <glyph glyph-name="uni0332" unicode="&#x332;" 
d="M-695 -392v198h1390v-198h-1390z" />
    <glyph glyph-name="uni0394" unicode="&#x394;" horiz-adv-x="1672" 
d="M48 0l585 1597h410l581 -1597h-1576zM470 260h710l-354 1047z" />
    <glyph glyph-name="uni03A9" unicode="&#x3a9;" horiz-adv-x="1913" 
d="M85 0v274h364q-95 54 -170.5 145t-119 209t-43.5 252q0 165 61 303.5t173 240.5t266 158t340 56t340 -56t266 -158t173 -240.5t61 -303.5q0 -134 -43.5 -252t-118.5 -209t-171 -145h365v-274h-785v256q123 38 220.5 117.5t154 195t56.5 261.5q0 153 -65 271t-181.5 185.5
t-271.5 67.5q-154 0 -270.5 -67.5t-181.5 -185.5t-65 -271q0 -146 56.5 -261.5t154 -195t219.5 -117.5v-256h-784z" />
    <glyph glyph-name="uni03BC" unicode="&#x3bc;" horiz-adv-x="1398" 
d="M137 -487v1662h304v-680q0 -128 57.5 -196t167.5 -68q144 0 216 99q36 48 55.5 118.5t19.5 164.5v562h304v-1175h-222q-1 23 -4.5 54.5t-8.5 53.5q-10 50 -38 50q-11 0 -20 -6.5t-26 -29.5q-112 -149 -295 -149q-123 0 -194 68q-26 25 -42 25q-24 0 -24 -37v-516h-250z
" />
    <glyph glyph-name="pi" unicode="&#x3c0;" horiz-adv-x="1593" 
d="M1382 -15q-193 0 -284 97.5t-91 305.5v540h-471v-928h-297v928h-206v247h1478v-247h-206v-522q0 -94 38.5 -137t123.5 -43q31 0 59 6v-225q-27 -11 -65 -16.5t-79 -5.5z" />
    <glyph glyph-name="uni058F" unicode="&#x58f;" horiz-adv-x="1466" 
d="M354 508v152h561v134h-561v152h561v120q0 305 -242 305q-109 0 -179 -66t-89 -182h-334q38 242 200 377t404 135q274 0 416.5 -146.5t142.5 -418.5v-124h146v-152h-146v-134h146v-152h-146v-508h-319v508h-561z" />
    <glyph glyph-name="uni0E3F" unicode="&#xe3f;" horiz-adv-x="1347" 
d="M83 0v1597h475v141h171v-141h11q245 0 372 -113t127 -301q0 -119 -58 -207.5t-170 -131.5q135 -42 207.5 -143.5t72.5 -244.5q0 -217 -132.5 -336.5t-384.5 -119.5h-45v-141h-171v141h-475zM381 919h319q116 0 178 56.5t62 160.5q0 101 -60 157t-172 56h-327v-430z
M379 248h353q122 0 186.5 61t64.5 175q0 113 -66 173.5t-188 60.5h-350v-470z" />
    <glyph glyph-name="a.sups" unicode="&#x1d43;" horiz-adv-x="1083" 
d="M432 629q-157 0 -257.5 79.5t-100.5 218.5q0 266 384 288q80 5 157 14t119 20v11q0 86 -49 135t-137 49q-79 0 -131.5 -37.5t-67.5 -99.5h-250q29 141 146 231t304 90q200 0 308.5 -99t108.5 -285v-587h-178q-1 20 -4 49t-8 48q-6 28 -22 28q-10 0 -16 -7t-15 -18
q-97 -128 -291 -128zM320 938q0 -64 48 -100t126 -36q65 0 117.5 24.5t84.5 85.5q38 68 38 172v19q-34 -12 -93 -20t-145 -15q-94 -9 -135 -40t-41 -90z" />
    <glyph glyph-name="t.sups" unicode="&#x1d57;" horiz-adv-x="828" 
d="M559 645q-187 0 -262.5 87t-75.5 249v420h-182v196h107q53 0 80 18t39 61q10 34 18 87.5t12 99.5h162v-266h257v-196h-257v-397q0 -73 29.5 -120t126.5 -47q54 0 110 13v-182q-26 -10 -73 -16.5t-91 -6.5z" />
    <glyph glyph-name="uni1DC4" unicode="&#x1dc4;" 
d="M387 1672l-171 -335h-539v185h394l127 150h189z" />
    <glyph glyph-name="uni1DC5" unicode="&#x1dc5;" 
d="M-387 1672l171 -335h539v185h-394l-127 150h-189z" />
    <glyph glyph-name="uni1DC6" unicode="&#x1dc6;" 
d="M387 1316l-171 335h-539v-185h394l127 -150h189z" />
    <glyph glyph-name="uni1DC7" unicode="&#x1dc7;" 
d="M-387 1316l171 335h539v-185h-394l-127 -150h-189z" />
    <glyph glyph-name="uni1E00" unicode="&#x1e00;" horiz-adv-x="1596" 
d="M4 0l563 1597h457l573 -1597h-371l-128 370h-615l-128 -370h-351zM548 613h487l-245 734zM793 -613q-123 0 -201.5 73t-78.5 186q0 115 78.5 188t201.5 73q122 0 201 -73t79 -188q0 -113 -79 -186t-201 -73zM793 -457q45 0 74 29.5t29 73.5q0 46 -29 75.5t-74 29.5
q-46 0 -75 -29.5t-29 -75.5q0 -44 29 -73.5t75 -29.5z" />
    <glyph glyph-name="uni1E01" unicode="&#x1e01;" horiz-adv-x="1286" 
d="M511 -36q-131 0 -231.5 45.5t-157 129.5t-56.5 198q0 333 469 367q100 7 193 18.5t143 24.5v14q0 103 -57 161.5t-162 58.5q-97 0 -160 -44.5t-81 -121.5h-313q35 176 178 287.5t372 111.5q249 0 382 -124t133 -356v-734h-226q-1 24 -5 57t-9 55q-8 35 -27 35
q-18 0 -40 -29q-57 -74 -141.5 -114t-203.5 -40zM375 350q0 -76 56 -120t150 -44q80 0 143 29.5t101 104.5q22 41 34 94t12 119v20q-46 -13 -121.5 -25t-162.5 -21q-115 -11 -163.5 -48.5t-48.5 -108.5zM649 -620q-120 0 -196.5 71.5t-76.5 182.5q0 112 76.5 183.5
t196.5 71.5t196.5 -71.5t76.5 -183.5q0 -111 -76.5 -182.5t-196.5 -71.5zM649 -475q48 0 78.5 31t30.5 78q0 48 -30.5 79t-78.5 31t-78.5 -31t-30.5 -79q0 -47 30.5 -78t78.5 -31z" />
    <glyph glyph-name="uni1E04" unicode="&#x1e04;" horiz-adv-x="1505" 
d="M153 0v1597h687q249 0 378.5 -114t129.5 -302q0 -116 -58.5 -202t-170.5 -133q145 -43 220 -144.5t75 -243.5q0 -218 -136 -338t-397 -120h-728zM480 931h303q120 0 183.5 52t63.5 154q0 98 -62 151.5t-184 53.5h-304v-411zM480 255h350q126 0 191 58t65 166
q0 109 -66 167t-191 58h-349v-449zM743 -453q-73 0 -120 46t-47 114t47 114t120 46q74 0 121 -46t47 -114t-47 -114t-121 -46z" />
    <glyph glyph-name="uni1E05" unicode="&#x1e05;" horiz-adv-x="1497" 
d="M843 -36q-129 0 -221 42.5t-160 115.5q-34 35 -53 35q-26 0 -34 -44q-4 -25 -7.5 -56t-5.5 -57h-225v1659h304v-560q0 -34 21 -34q14 0 30 16q56 59 144.5 94.5t201.5 35.5q169 0 303.5 -81.5t212.5 -222.5t78 -322q0 -178 -78.5 -318.5t-211.5 -221.5t-299 -81zM776 224
q102 0 179.5 46t120.5 128.5t43 189.5t-43 189t-120.5 128t-179.5 46q-154 0 -248.5 -101t-94.5 -262q0 -162 94.5 -263t248.5 -101zM768 -482q-73 0 -119.5 45.5t-46.5 113.5t46.5 113.5t119.5 45.5t119.5 -45.5t46.5 -113.5t-46.5 -113.5t-119.5 -45.5z" />
    <glyph glyph-name="uni1E06" unicode="&#x1e06;" horiz-adv-x="1505" 
d="M153 0v1597h687q249 0 378.5 -114t129.5 -302q0 -116 -58.5 -202t-170.5 -133q145 -43 220 -144.5t75 -243.5q0 -218 -136 -338t-397 -120h-728zM480 931h303q120 0 183.5 52t63.5 154q0 98 -62 151.5t-184 53.5h-304v-411zM480 255h350q126 0 191 58t65 166
q0 109 -66 167t-191 58h-349v-449zM387 -352v198h712v-198h-712z" />
    <glyph glyph-name="uni1E07" unicode="&#x1e07;" horiz-adv-x="1497" 
d="M843 -36q-129 0 -221 42.5t-160 115.5q-34 35 -53 35q-26 0 -34 -44q-4 -25 -7.5 -56t-5.5 -57h-225v1659h304v-560q0 -34 21 -34q14 0 30 16q56 59 144.5 94.5t201.5 35.5q169 0 303.5 -81.5t212.5 -222.5t78 -322q0 -178 -78.5 -318.5t-211.5 -221.5t-299 -81zM776 224
q102 0 179.5 46t120.5 128.5t43 189.5t-43 189t-120.5 128t-179.5 46q-154 0 -248.5 -101t-94.5 -262q0 -162 94.5 -263t248.5 -101zM412 -392v198h712v-198h-712z" />
    <glyph glyph-name="uni1E0C" unicode="&#x1e0c;" horiz-adv-x="1741" 
d="M166 0v1597h657q252 0 441 -98.5t294 -278t105 -421.5t-105 -422t-294 -278.5t-441 -98.5h-657zM504 269h294q242 0 375.5 138.5t133.5 391.5q0 252 -133.5 390.5t-375.5 138.5h-294v-1059zM818 -453q-73 0 -120 46t-47 114t47 114t120 46q74 0 121 -46t47 -114t-47 -114
t-121 -46z" />
    <glyph glyph-name="uni1E0D" unicode="&#x1e0d;" horiz-adv-x="1496" 
d="M654 -36q-166 0 -299 81t-211.5 221.5t-78.5 318.5q0 181 78 322t212.5 222.5t303.5 81.5q113 0 201.5 -35.5t143.5 -94.5q17 -16 31 -16q21 0 21 34v560h304v-1659h-225q-2 26 -5 57t-8 56q-9 44 -34 44q-19 0 -54 -35q-67 -73 -159 -115.5t-221 -42.5zM721 224
q154 0 248.5 101t94.5 263q0 161 -94.5 262t-248.5 101q-102 0 -179 -46t-120.5 -128t-43.5 -189t43.5 -189.5t120.5 -128.5t179 -46zM748 -470q-73 0 -119.5 45.5t-46.5 113.5t46.5 113.5t119.5 45.5t119.5 -45.5t46.5 -113.5t-46.5 -113.5t-119.5 -45.5z" />
    <glyph glyph-name="uni1E0E" unicode="&#x1e0e;" horiz-adv-x="1741" 
d="M166 0v1597h657q252 0 441 -98.5t294 -278t105 -421.5t-105 -422t-294 -278.5t-441 -98.5h-657zM504 269h294q242 0 375.5 138.5t133.5 391.5q0 252 -133.5 390.5t-375.5 138.5h-294v-1059zM462 -352v198h712v-198h-712z" />
    <glyph glyph-name="uni1E0F" unicode="&#x1e0f;" horiz-adv-x="1496" 
d="M654 -36q-166 0 -299 81t-211.5 221.5t-78.5 318.5q0 181 78 322t212.5 222.5t303.5 81.5q113 0 201.5 -35.5t143.5 -94.5q17 -16 31 -16q21 0 21 34v560h304v-1659h-225q-2 26 -5 57t-8 56q-9 44 -34 44q-19 0 -54 -35q-67 -73 -159 -115.5t-221 -42.5zM721 224
q154 0 248.5 101t94.5 263q0 161 -94.5 262t-248.5 101q-102 0 -179 -46t-120.5 -128t-43.5 -189t43.5 -189.5t120.5 -128.5t179 -46zM392 -380v198h712v-198h-712z" />
    <glyph glyph-name="uni1E10" unicode="&#x1e10;" horiz-adv-x="1741" 
d="M166 0v1597h657q252 0 441 -98.5t294 -278t105 -421.5t-105 -422t-294 -278.5t-441 -98.5h-657zM504 269h294q242 0 375.5 138.5t133.5 391.5q0 252 -133.5 390.5t-375.5 138.5h-294v-1059zM604 -541l80 423h261l-141 -423h-200z" />
    <glyph glyph-name="uni1E11" unicode="&#x1e11;" horiz-adv-x="1496" 
d="M654 -36q-166 0 -299 81t-211.5 221.5t-78.5 318.5q0 181 78 322t212.5 222.5t303.5 81.5q113 0 201.5 -35.5t143.5 -94.5q17 -16 31 -16q21 0 21 34v560h304v-1659h-225q-2 26 -5 57t-8 56q-9 44 -34 44q-19 0 -54 -35q-67 -73 -159 -115.5t-221 -42.5zM721 224
q154 0 248.5 101t94.5 263q0 161 -94.5 262t-248.5 101q-102 0 -179 -46t-120.5 -128t-43.5 -189t43.5 -189.5t120.5 -128.5t179 -46zM528 -604l88 463h261l-155 -463h-194z" />
    <glyph glyph-name="uni1E12" unicode="&#x1e12;" horiz-adv-x="1741" 
d="M166 0v1597h657q252 0 441 -98.5t294 -278t105 -421.5t-105 -422t-294 -278.5t-441 -98.5h-657zM504 269h294q242 0 375.5 138.5t133.5 391.5q0 252 -133.5 390.5t-375.5 138.5h-294v-1059zM380 -469l294 351h288l295 -351h-237l-173 158q-16 13 -29 13q-12 0 -28 -13
l-173 -158h-237z" />
    <glyph glyph-name="uni1E13" unicode="&#x1e13;" horiz-adv-x="1496" 
d="M654 -36q-166 0 -299 81t-211.5 221.5t-78.5 318.5q0 181 78 322t212.5 222.5t303.5 81.5q113 0 201.5 -35.5t143.5 -94.5q17 -16 31 -16q21 0 21 34v560h304v-1659h-225q-2 26 -5 57t-8 56q-9 44 -34 44q-19 0 -54 -35q-67 -73 -159 -115.5t-221 -42.5zM721 224
q154 0 248.5 101t94.5 263q0 161 -94.5 262t-248.5 101q-102 0 -179 -46t-120.5 -128t-43.5 -189t43.5 -189.5t120.5 -128.5t179 -46zM335 -619l301 436h226l301 -436h-206l-168 186q-22 23 -40 23t-40 -23l-168 -186h-206z" />
    <glyph glyph-name="uni1E1A" unicode="&#x1e1a;" horiz-adv-x="1363" 
d="M166 0v1597h1090v-272h-760v-386h658v-264h-658v-403h800v-272h-1130zM933 -466q-61 0 -109.5 20.5t-87.5 48t-72.5 48t-65.5 20.5q-41 0 -66 -31t-35 -84h-173q19 143 91 231t181 88q61 0 109.5 -20.5t87.5 -48t73 -48t66 -20.5q41 0 65.5 32t34.5 84h174
q-19 -143 -92 -231.5t-181 -88.5z" />
    <glyph glyph-name="uni1E1B" unicode="&#x1e1b;" horiz-adv-x="1361" 
d="M692 -38q-183 0 -324 78t-221.5 218.5t-80.5 326.5q0 184 81.5 325.5t222 222t317.5 80.5q189 0 325 -77.5t209 -212t73 -305.5q0 -30 -2.5 -68.5t-6.5 -58.5h-910q10 -134 96 -214t222 -80q107 0 180 45t98 124h302q-43 -185 -197 -294.5t-384 -109.5zM693 982
q-132 0 -217.5 -79t-99.5 -208h620q-7 131 -90.5 209t-212.5 78zM851 -491q-61 0 -109.5 20.5t-87.5 48t-72.5 48t-65.5 20.5q-41 0 -66 -31t-35 -84h-173q19 143 91 231t181 88q61 0 109.5 -20.5t87.5 -48t73 -48t66 -20.5q41 0 65.5 32t34.5 84h174q-19 -143 -92 -231.5
t-181 -88.5z" />
    <glyph glyph-name="uni1E20" unicode="&#x1e20;" horiz-adv-x="1841" 
d="M882 -34q-174 0 -321.5 59.5t-256 169.5t-168.5 262t-60 338t63.5 340.5t179 266.5t273.5 173.5t348 61.5q220 0 392 -75.5t281 -215.5t138 -333h-352q-36 161 -153.5 249.5t-295.5 88.5q-150 0 -267 -67t-183.5 -190.5t-66.5 -292.5q0 -168 64 -292.5t178.5 -193.5
t266.5 -69q151 0 254 61t162 177q29 56 45.5 125.5t23.5 143.5h303v-753h-231q-4 45 -8.5 89.5t-10.5 73.5q-12 52 -40 52q-13 0 -25 -8t-33 -31q-83 -99 -211.5 -154.5t-288.5 -55.5zM575 1749v198h712v-198h-712z" />
    <glyph glyph-name="uni1E21" unicode="&#x1e21;" horiz-adv-x="1455" 
d="M723 -514q-170 0 -298 57t-209.5 157.5t-113.5 230.5h304q29 -105 114.5 -162t203.5 -57q147 0 225.5 75t78.5 220v130q0 33 -21 33q-14 0 -33 -19q-57 -56 -143 -86.5t-187 -30.5q-166 0 -296 75.5t-205 207t-75 297.5q0 179 77 313t204.5 208.5t281.5 74.5
q116 0 205 -39.5t164 -116.5q19 -19 28 -25t21 -6q24 0 34 43q10 58 12 109h225v-1147q0 -173 -73.5 -294t-207.5 -184.5t-316 -63.5zM705 279q146 0 236 93t90 242t-90 242t-236 93t-236 -93t-90 -242q0 -148 90 -241.5t236 -93.5zM384 1359v198h712v-198h-712z" />
    <glyph glyph-name="uni1E22" unicode="&#x1e22;" horiz-adv-x="1721" 
d="M166 0v1597h338v-654h713v654h338v-1597h-338v674h-713v-674h-338zM860 1730q-73 0 -120 46t-47 114t47 114t120 46q74 0 121 -46t47 -114t-47 -114t-121 -46z" />
    <glyph glyph-name="uni1E23" unicode="&#x1e23;" horiz-adv-x="1390" 
d="M137 0v1659h304v-596q0 -37 22 -37q15 0 37 30q60 76 143.5 116.5t197.5 40.5q198 0 311.5 -126.5t113.5 -356.5v-730h-303v680q0 126 -56.5 195t-163.5 69q-143 0 -223 -108q-79 -106 -79 -299v-537h-304zM288 1792q-73 0 -120 46t-47 114t47 114t120 46q74 0 121 -46
t47 -114t-47 -114t-121 -46z" />
    <glyph glyph-name="uni1E24" unicode="&#x1e24;" horiz-adv-x="1721" 
d="M166 0v1597h338v-654h713v654h338v-1597h-338v674h-713v-674h-338zM861 -453q-73 0 -120 46t-47 114t47 114t120 46q74 0 121 -46t47 -114t-47 -114t-121 -46z" />
    <glyph glyph-name="uni1E25" unicode="&#x1e25;" horiz-adv-x="1390" 
d="M137 0v1659h304v-596q0 -37 22 -37q15 0 37 30q60 76 143.5 116.5t197.5 40.5q198 0 311.5 -126.5t113.5 -356.5v-730h-303v680q0 126 -56.5 195t-163.5 69q-143 0 -223 -108q-79 -106 -79 -299v-537h-304zM707 -482q-73 0 -119.5 45.5t-46.5 113.5t46.5 113.5
t119.5 45.5t119.5 -45.5t46.5 -113.5t-46.5 -113.5t-119.5 -45.5z" />
    <glyph glyph-name="uni1E26" unicode="&#x1e26;" horiz-adv-x="1721" 
d="M166 0v1597h338v-654h713v654h338v-1597h-338v674h-713v-674h-338zM1137 1740q-73 0 -119.5 46.5t-46.5 113.5q0 68 46.5 114.5t119.5 46.5q74 0 121 -46.5t47 -114.5q0 -67 -47 -113.5t-121 -46.5zM584 1740q-73 0 -120 46.5t-47 113.5q0 68 47 114.5t120 46.5
q74 0 120.5 -46.5t46.5 -114.5q0 -67 -46.5 -113.5t-120.5 -46.5z" />
    <glyph glyph-name="uni1E27" unicode="&#x1e27;" horiz-adv-x="1390" 
d="M137 0v1659h304v-596q0 -37 22 -37q15 0 37 30q60 76 143.5 116.5t197.5 40.5q198 0 311.5 -126.5t113.5 -356.5v-730h-303v680q0 126 -56.5 195t-163.5 69q-143 0 -223 -108q-79 -106 -79 -299v-537h-304zM565 1802q-73 0 -119.5 46.5t-46.5 113.5q0 68 46.5 114.5
t119.5 46.5q74 0 121 -46.5t47 -114.5q0 -67 -47 -113.5t-121 -46.5zM12 1802q-73 0 -120 46.5t-47 113.5q0 68 47 114.5t120 46.5q74 0 120.5 -46.5t46.5 -114.5q0 -67 -46.5 -113.5t-120.5 -46.5z" />
    <glyph glyph-name="uni1E28" unicode="&#x1e28;" horiz-adv-x="1721" 
d="M166 0v1597h338v-654h713v654h338v-1597h-338v674h-713v-674h-338zM364 -534q-163 0 -254.5 85.5t-100.5 232.5h221q11 -134 128 -134q106 0 106 99q0 124 -243 251l198 19q120 -47 188.5 -123.5t68.5 -173.5q0 -115 -85 -185.5t-227 -70.5z" />
    <glyph glyph-name="uni1E29" unicode="&#x1e29;" horiz-adv-x="1390" 
d="M137 0v1659h304v-596q0 -37 22 -37q15 0 37 30q60 76 143.5 116.5t197.5 40.5q198 0 311.5 -126.5t113.5 -356.5v-730h-303v680q0 126 -56.5 195t-163.5 69q-143 0 -223 -108q-79 -106 -79 -299v-537h-304zM318 -531q-159 0 -245.5 87.5t-95.5 227.5h210
q5 -65 38.5 -101.5t93.5 -36.5q106 0 106 97q0 121 -243 257h221q104 -47 161 -119t57 -152q0 -113 -79.5 -186.5t-223.5 -73.5z" />
    <glyph glyph-name="uni1E2A" unicode="&#x1e2a;" horiz-adv-x="1721" 
d="M166 0v1597h338v-654h713v654h338v-1597h-338v674h-713v-674h-338zM861 -452q-175 0 -279.5 88.5t-114.5 243.5h194q15 -69 64 -109.5t136 -40.5t136 40.5t64 109.5h194q-10 -155 -114 -243.5t-280 -88.5z" />
    <glyph glyph-name="uni1E2B" unicode="&#x1e2b;" horiz-adv-x="1390" 
d="M137 0v1659h304v-596q0 -37 22 -37q15 0 37 30q60 76 143.5 116.5t197.5 40.5q198 0 311.5 -126.5t113.5 -356.5v-730h-303v680q0 126 -56.5 195t-163.5 69q-143 0 -223 -108q-79 -106 -79 -299v-537h-304zM707 -497q-172 0 -275 95t-113 261h188q15 -78 65 -123t135 -45
t135 45t65 123h188q-10 -166 -113 -261t-275 -95z" />
    <glyph glyph-name="uni1E2C" unicode="&#x1e2c;" horiz-adv-x="670" 
d="M166 0v1597h338v-1597h-338zM506 -466q-61 0 -109.5 20.5t-87.5 48t-72.5 48t-65.5 20.5q-41 0 -66 -31t-35 -84h-173q19 143 91 231t181 88q61 0 109.5 -20.5t87.5 -48t73 -48t66 -20.5q41 0 65.5 32t34.5 84h174q-19 -143 -92 -231.5t-181 -88.5z" />
    <glyph glyph-name="uni1E2D" unicode="&#x1e2d;" horiz-adv-x="591" 
d="M300 1346q-81 0 -133 49.5t-52 124.5q0 74 52 123.5t133 49.5t133 -49.5t52 -123.5q0 -75 -52 -124.5t-133 -49.5zM148 0v1175h304v-1175h-304zM444 -484q-65 0 -115 30.5t-90 60.5t-76 30q-62 0 -74 -104h-164q8 128 68.5 213.5t166.5 85.5q65 0 115 -30t90 -60t76 -30
q62 0 74 103h164q-8 -127 -68.5 -213t-166.5 -86z" />
    <glyph glyph-name="uni1E2E" unicode="&#x1e2e;" horiz-adv-x="670" 
d="M166 0v1597h338v-1597h-338zM574 1738q-65 0 -107.5 41.5t-42.5 104.5q0 62 42.5 103.5t107.5 41.5q67 0 110 -41.5t43 -103.5t-42.5 -104t-110.5 -42zM96 1738q-67 0 -109 42t-42 104q0 61 42 103t109 42q66 0 109 -42t43 -103q0 -62 -42.5 -104t-109.5 -42zM208 2104
l230 322h309l-306 -322h-233z" />
    <glyph glyph-name="uni1E2F" unicode="&#x1e2f;" horiz-adv-x="581" 
d="M139 0v1175h303v-1175h-303zM520 1301q-64 0 -105.5 40t-41.5 98q0 59 41.5 99.5t105.5 40.5t105.5 -40.5t41.5 -99.5q0 -58 -41.5 -98t-105.5 -40zM60 1301q-64 0 -105 40t-41 98q0 59 41 99.5t105 40.5q65 0 106.5 -40.5t41.5 -99.5q0 -58 -41.5 -98t-106.5 -40z
M378 1653l248 346h-257l-166 -346h175z" />
    <glyph glyph-name="uni1E32" unicode="&#x1e32;" horiz-adv-x="1544" 
d="M166 0v1597h338v-771l647 771h399l-667 -774l691 -823h-430l-640 778v-778h-338zM808 -453q-73 0 -120 46t-47 114t47 114t120 46q74 0 121 -46t47 -114t-47 -114t-121 -46z" />
    <glyph glyph-name="uni1E33" unicode="&#x1e33;" horiz-adv-x="1271" 
d="M137 0v1659h304v-1045l460 561h369l-487 -572l520 -603h-390l-472 563v-563h-304zM676 -482q-73 0 -119.5 45.5t-46.5 113.5t46.5 113.5t119.5 45.5t119.5 -45.5t46.5 -113.5t-46.5 -113.5t-119.5 -45.5z" />
    <glyph glyph-name="uni1E34" unicode="&#x1e34;" horiz-adv-x="1544" 
d="M166 0v1597h338v-771l647 771h399l-667 -774l691 -823h-430l-640 778v-778h-338zM452 -352v198h712v-198h-712z" />
    <glyph glyph-name="uni1E35" unicode="&#x1e35;" horiz-adv-x="1271" 
d="M137 0v1659h304v-1045l460 561h369l-487 -572l520 -603h-390l-472 563v-563h-304zM320 -392v198h712v-198h-712z" />
    <glyph glyph-name="uni1E36" unicode="&#x1e36;" horiz-adv-x="1238" 
d="M166 0v1597h338v-1324h708v-273h-1046zM715 -453q-73 0 -120 46t-47 114t47 114t120 46q74 0 121 -46t47 -114t-47 -114t-121 -46z" />
    <glyph glyph-name="uni1E37" unicode="&#x1e37;" horiz-adv-x="582" 
d="M139 0v1659h304v-1659h-304zM291 -482q-73 0 -119.5 45.5t-46.5 113.5t46.5 113.5t119.5 45.5t119.5 -45.5t46.5 -113.5t-46.5 -113.5t-119.5 -45.5z" />
    <glyph glyph-name="uni1E3A" unicode="&#x1e3a;" horiz-adv-x="1238" 
d="M166 0v1597h338v-1324h708v-273h-1046zM359 -352v198h712v-198h-712z" />
    <glyph glyph-name="uni1E3B" unicode="&#x1e3b;" horiz-adv-x="582" 
d="M139 0v1659h304v-1659h-304zM20 -392v198h542v-198h-542z" />
    <glyph glyph-name="uni1E3C" unicode="&#x1e3c;" horiz-adv-x="1238" 
d="M166 0v1597h338v-1324h708v-273h-1046zM277 -469l294 351h288l295 -351h-237l-173 158q-16 13 -29 13q-12 0 -28 -13l-173 -158h-237z" />
    <glyph glyph-name="uni1E3D" unicode="&#x1e3d;" horiz-adv-x="582" 
d="M139 0v1659h304v-1659h-304zM-155 -474l294 351h288l295 -351h-237l-173 158q-16 13 -29 13q-12 0 -28 -13l-173 -158h-237z" />
    <glyph glyph-name="uni1E3E" unicode="&#x1e3e;" horiz-adv-x="2101" 
d="M166 0v1597h466l426 -1192l419 1192h458v-1597h-317v1240l-430 -1240h-290l-433 1239v-1239h-299zM1205 1720l417 340h-375l-339 -340h297z" />
    <glyph glyph-name="uni1E3F" unicode="&#x1e3f;" horiz-adv-x="2122" 
d="M137 0v1175h222q3 -58 14 -116q11 -52 39 -52q12 0 20 5.5t24 24.5q70 87 154 131.5t193 44.5q123 0 203 -46t131 -138q15 -25 24.5 -34t22.5 -9q20 0 50 39q74 100 158.5 144t197.5 44q191 0 299.5 -125.5t108.5 -349.5v-738h-304v689q0 121 -51 188.5t-149 67.5
q-133 0 -207 -115q-68 -104 -68 -286v-544h-303v689q0 121 -51.5 188.5t-149.5 67.5q-131 0 -207 -115q-67 -103 -67 -286v-544h-304zM1193 1316l303 436h-324l-218 -436h239z" />
    <glyph glyph-name="uni1E40" unicode="&#x1e40;" horiz-adv-x="2101" 
d="M166 0v1597h466l426 -1192l419 1192h458v-1597h-317v1240l-430 -1240h-290l-433 1239v-1239h-299zM1050 1730q-73 0 -120 46t-47 114t47 114t120 46q74 0 121 -46t47 -114t-47 -114t-121 -46z" />
    <glyph glyph-name="uni1E41" unicode="&#x1e41;" horiz-adv-x="2122" 
d="M137 0v1175h222q3 -58 14 -116q11 -52 39 -52q12 0 20 5.5t24 24.5q70 87 154 131.5t193 44.5q123 0 203 -46t131 -138q15 -25 24.5 -34t22.5 -9q20 0 50 39q74 100 158.5 144t197.5 44q191 0 299.5 -125.5t108.5 -349.5v-738h-304v689q0 121 -51 188.5t-149 67.5
q-133 0 -207 -115q-68 -104 -68 -286v-544h-303v689q0 121 -51.5 188.5t-149.5 67.5q-131 0 -207 -115q-67 -103 -67 -286v-544h-304zM1074 1325q-73 0 -119.5 45.5t-46.5 113.5t46.5 113.5t119.5 45.5t119.5 -45.5t46.5 -113.5t-46.5 -113.5t-119.5 -45.5z" />
    <glyph glyph-name="uni1E42" unicode="&#x1e42;" horiz-adv-x="2101" 
d="M166 0v1597h466l426 -1192l419 1192h458v-1597h-317v1240l-430 -1240h-290l-433 1239v-1239h-299zM1051 -453q-73 0 -120 46t-47 114t47 114t120 46q74 0 121 -46t47 -114t-47 -114t-121 -46z" />
    <glyph glyph-name="uni1E43" unicode="&#x1e43;" horiz-adv-x="2122" 
d="M137 0v1175h222q3 -58 14 -116q11 -52 39 -52q12 0 20 5.5t24 24.5q70 87 154 131.5t193 44.5q123 0 203 -46t131 -138q15 -25 24.5 -34t22.5 -9q20 0 50 39q74 100 158.5 144t197.5 44q191 0 299.5 -125.5t108.5 -349.5v-738h-304v689q0 121 -51 188.5t-149 67.5
q-133 0 -207 -115q-68 -104 -68 -286v-544h-303v689q0 121 -51.5 188.5t-149.5 67.5q-131 0 -207 -115q-67 -103 -67 -286v-544h-304zM1066 -482q-73 0 -119.5 45.5t-46.5 113.5t46.5 113.5t119.5 45.5t119.5 -45.5t46.5 -113.5t-46.5 -113.5t-119.5 -45.5z" />
    <glyph glyph-name="uni1E44" unicode="&#x1e44;" horiz-adv-x="1746" 
d="M166 0v1597h375l728 -1163v1163h311v-1597h-375l-728 1160v-1160h-311zM875 1730q-73 0 -120 46t-47 114t47 114t120 46q74 0 121 -46t47 -114t-47 -114t-121 -46z" />
    <glyph glyph-name="uni1E45" unicode="&#x1e45;" horiz-adv-x="1390" 
d="M137 0v1175h222q2 -25 6.5 -60.5t8.5 -57.5q10 -50 38 -50q20 0 47 34q65 83 154.5 127.5t213.5 44.5q209 0 324 -126t115 -356v-731h-303v680q0 126 -56.5 195t-163.5 69q-143 0 -223 -108q-79 -106 -79 -299v-537h-304zM701 1325q-73 0 -119.5 45.5t-46.5 113.5
t46.5 113.5t119.5 45.5t119.5 -45.5t46.5 -113.5t-46.5 -113.5t-119.5 -45.5z" />
    <glyph glyph-name="uni1E46" unicode="&#x1e46;" horiz-adv-x="1746" 
d="M166 0v1597h375l728 -1163v1163h311v-1597h-375l-728 1160v-1160h-311zM876 -453q-73 0 -120 46t-47 114t47 114t120 46q74 0 121 -46t47 -114t-47 -114t-121 -46z" />
    <glyph glyph-name="uni1E47" unicode="&#x1e47;" horiz-adv-x="1390" 
d="M137 0v1175h222q2 -25 6.5 -60.5t8.5 -57.5q10 -50 38 -50q20 0 47 34q65 83 154.5 127.5t213.5 44.5q209 0 324 -126t115 -356v-731h-303v680q0 126 -56.5 195t-163.5 69q-143 0 -223 -108q-79 -106 -79 -299v-537h-304zM704 -482q-73 0 -119.5 45.5t-46.5 113.5
t46.5 113.5t119.5 45.5t119.5 -45.5t46.5 -113.5t-46.5 -113.5t-119.5 -45.5z" />
    <glyph glyph-name="uni1E48" unicode="&#x1e48;" horiz-adv-x="1746" 
d="M166 0v1597h375l728 -1163v1163h311v-1597h-375l-728 1160v-1160h-311zM520 -352v198h712v-198h-712z" />
    <glyph glyph-name="uni1E49" unicode="&#x1e49;" horiz-adv-x="1390" 
d="M137 0v1175h222q2 -25 6.5 -60.5t8.5 -57.5q10 -50 38 -50q20 0 47 34q65 83 154.5 127.5t213.5 44.5q209 0 324 -126t115 -356v-731h-303v680q0 126 -56.5 195t-163.5 69q-143 0 -223 -108q-79 -106 -79 -299v-537h-304zM348 -392v198h712v-198h-712z" />
    <glyph glyph-name="uni1E4A" unicode="&#x1e4a;" horiz-adv-x="1746" 
d="M166 0v1597h375l728 -1163v1163h311v-1597h-375l-728 1160v-1160h-311zM438 -469l294 351h288l295 -351h-237l-173 158q-16 13 -29 13q-12 0 -28 -13l-173 -158h-237z" />
    <glyph glyph-name="uni1E4B" unicode="&#x1e4b;" horiz-adv-x="1390" 
d="M137 0v1175h222q2 -25 6.5 -60.5t8.5 -57.5q10 -50 38 -50q20 0 47 34q65 83 154.5 127.5t213.5 44.5q209 0 324 -126t115 -356v-731h-303v680q0 126 -56.5 195t-163.5 69q-143 0 -223 -108q-79 -106 -79 -299v-537h-304zM291 -631l301 436h226l301 -436h-206l-168 186
q-22 23 -40 23t-40 -23l-168 -186h-206z" />
    <glyph glyph-name="uni1E4C" unicode="&#x1e4c;" horiz-adv-x="1892" 
d="M946 -40q-194 0 -354 62.5t-275.5 175.5t-178.5 266.5t-63 334.5q0 182 63 335t178.5 266t275.5 175.5t354 62.5t354 -62.5t275.5 -175.5t178 -266t62.5 -335q0 -181 -62.5 -334.5t-178 -266.5t-275.5 -175.5t-354 -62.5zM946 250q153 0 269 68.5t180.5 192.5t64.5 288
q0 165 -64.5 288.5t-180.5 192t-269 68.5t-269 -68.5t-180.5 -192t-64.5 -288.5q0 -164 64.5 -288t180.5 -192.5t269 -68.5zM1086 1730q-66 0 -115.5 30t-89.5 60t-80 30q-36 0 -57.5 -28t-30.5 -75h-157q17 131 84 211t169 80q65 0 113.5 -30t88.5 -60t80 -30q36 0 58 28
t30 74h158q-16 -130 -83 -210t-168 -80zM818 2126l230 322h309l-306 -322h-233z" />
    <glyph glyph-name="uni1E4D" unicode="&#x1e4d;" horiz-adv-x="1437" 
d="M719 -38q-190 0 -338 80.5t-232.5 222t-84.5 323.5t84.5 323t232.5 221.5t338 80.5t337.5 -80.5t232 -221.5t84.5 -323t-84.5 -323.5t-232 -222t-337.5 -80.5zM719 222q155 0 249.5 101.5t94.5 264.5q0 162 -94.5 263.5t-249.5 101.5t-250 -101.5t-95 -263.5
q0 -163 95 -264.5t250 -101.5zM851 1335q-58 0 -103.5 26t-82.5 51.5t-72 25.5q-66 0 -83 -89h-160q17 124 79 199t159 75q58 0 103 -25.5t82.5 -51.5t72.5 -26q66 0 84 88h159q-16 -124 -79 -198.5t-159 -74.5zM806 1727l248 346h-257l-166 -346h175z" />
    <glyph glyph-name="uni1E4E" unicode="&#x1e4e;" horiz-adv-x="1892" 
d="M946 -40q-194 0 -354 62.5t-275.5 175.5t-178.5 266.5t-63 334.5q0 182 63 335t178.5 266t275.5 175.5t354 62.5t354 -62.5t275.5 -175.5t178 -266t62.5 -335q0 -181 -62.5 -334.5t-178 -266.5t-275.5 -175.5t-354 -62.5zM946 250q153 0 269 68.5t180.5 192.5t64.5 288
q0 165 -64.5 288.5t-180.5 192t-269 68.5t-269 -68.5t-180.5 -192t-64.5 -288.5q0 -164 64.5 -288t180.5 -192.5t269 -68.5zM1086 1730q-66 0 -115.5 30t-89.5 60t-80 30q-36 0 -57.5 -28t-30.5 -75h-157q17 131 84 211t169 80q65 0 113.5 -30t88.5 -60t80 -30q36 0 58 28
t30 74h158q-16 -130 -83 -210t-168 -80zM1184 2142q-65 0 -107.5 41.5t-42.5 104.5q0 62 42.5 103.5t107.5 41.5q67 0 110 -41.5t43 -103.5t-42.5 -104t-110.5 -42zM706 2142q-67 0 -109 42t-42 104q0 61 42 103t109 42q66 0 109 -42t43 -103q0 -62 -42.5 -104t-109.5 -42z
" />
    <glyph glyph-name="uni1E4F" unicode="&#x1e4f;" horiz-adv-x="1437" 
d="M719 -38q-190 0 -338 80.5t-232.5 222t-84.5 323.5t84.5 323t232.5 221.5t338 80.5t337.5 -80.5t232 -221.5t84.5 -323t-84.5 -323.5t-232 -222t-337.5 -80.5zM719 222q155 0 249.5 101.5t94.5 264.5q0 162 -94.5 263.5t-249.5 101.5t-250 -101.5t-95 -263.5
q0 -163 95 -264.5t250 -101.5zM851 1335q-58 0 -103.5 26t-82.5 51.5t-72 25.5q-66 0 -83 -89h-160q17 124 79 199t159 75q58 0 103 -25.5t82.5 -51.5t72.5 -26q66 0 84 88h159q-16 -124 -79 -198.5t-159 -74.5zM949 1712q-64 0 -105.5 40t-41.5 98q0 59 41.5 99.5
t105.5 40.5t105.5 -40.5t41.5 -99.5q0 -58 -41.5 -98t-105.5 -40zM489 1712q-64 0 -105 40t-41 98q0 59 41 99.5t105 40.5q65 0 106.5 -40.5t41.5 -99.5q0 -58 -41.5 -98t-106.5 -40z" />
    <glyph glyph-name="uni1E50" unicode="&#x1e50;" horiz-adv-x="1892" 
d="M946 -40q-194 0 -354 62.5t-275.5 175.5t-178.5 266.5t-63 334.5q0 182 63 335t178.5 266t275.5 175.5t354 62.5t354 -62.5t275.5 -175.5t178 -266t62.5 -335q0 -181 -62.5 -334.5t-178 -266.5t-275.5 -175.5t-354 -62.5zM946 250q153 0 269 68.5t180.5 192.5t64.5 288
q0 165 -64.5 288.5t-180.5 192t-269 68.5t-269 -68.5t-180.5 -192t-64.5 -288.5q0 -164 64.5 -288t180.5 -192.5t269 -68.5zM615 1765v192h662v-192h-662zM1064 2063l-230 322h-309l306 -322h233z" />
    <glyph glyph-name="uni1E51" unicode="&#x1e51;" horiz-adv-x="1437" 
d="M719 -38q-190 0 -338 80.5t-232.5 222t-84.5 323.5t84.5 323t232.5 221.5t338 80.5t337.5 -80.5t232 -221.5t84.5 -323t-84.5 -323.5t-232 -222t-337.5 -80.5zM719 222q155 0 249.5 101.5t94.5 264.5q0 162 -94.5 263.5t-249.5 101.5t-250 -101.5t-95 -263.5
q0 -163 95 -264.5t250 -101.5zM385 1347v178h668v-178h-668zM632 1643l-248 346h257l166 -346h-175z" />
    <glyph glyph-name="uni1E52" unicode="&#x1e52;" horiz-adv-x="1892" 
d="M946 -40q-194 0 -354 62.5t-275.5 175.5t-178.5 266.5t-63 334.5q0 182 63 335t178.5 266t275.5 175.5t354 62.5t354 -62.5t275.5 -175.5t178 -266t62.5 -335q0 -181 -62.5 -334.5t-178 -266.5t-275.5 -175.5t-354 -62.5zM946 250q153 0 269 68.5t180.5 192.5t64.5 288
q0 165 -64.5 288.5t-180.5 192t-269 68.5t-269 -68.5t-180.5 -192t-64.5 -288.5q0 -164 64.5 -288t180.5 -192.5t269 -68.5zM615 1765v192h662v-192h-662zM818 2063l230 322h309l-306 -322h-233z" />
    <glyph glyph-name="uni1E53" unicode="&#x1e53;" horiz-adv-x="1437" 
d="M719 -38q-190 0 -338 80.5t-232.5 222t-84.5 323.5t84.5 323t232.5 221.5t338 80.5t337.5 -80.5t232 -221.5t84.5 -323t-84.5 -323.5t-232 -222t-337.5 -80.5zM719 222q155 0 249.5 101.5t94.5 264.5q0 162 -94.5 263.5t-249.5 101.5t-250 -101.5t-95 -263.5
q0 -163 95 -264.5t250 -101.5zM385 1347v178h668v-178h-668zM806 1643l248 346h-257l-166 -346h175z" />
    <glyph glyph-name="uni1E58" unicode="&#x1e58;" horiz-adv-x="1548" 
d="M166 0v1597h732q254 0 392.5 -113.5t138.5 -329.5q0 -141 -73 -243t-206 -142q106 -18 156.5 -82.5t69.5 -199.5l42 -313q11 -73 28 -115.5t33 -58.5h-342q-35 24 -48 132l-35 309q-12 108 -56.5 151t-160.5 43h-339v-635h-332zM499 872h336q262 0 262 233t-257 233h-341
v-466zM764 1730q-73 0 -120 46t-47 114t47 114t120 46q74 0 121 -46t47 -114t-47 -114t-121 -46z" />
    <glyph glyph-name="uni1E59" unicode="&#x1e59;" horiz-adv-x="1059" 
d="M137 0v1175h221q2 -20 6 -46.5t8 -49.5q11 -43 35 -43q13 0 23.5 7t26.5 26q50 62 116 97t155 35q149 0 232 -103t81 -288q0 -11 -0.5 -24t-1.5 -24h-272q2 16 2 31q0 71 -34 113t-96 42q-109 0 -161 -112q-38 -80 -38 -216v-620h-303zM546 1325q-73 0 -119.5 45.5
t-46.5 113.5t46.5 113.5t119.5 45.5t119.5 -45.5t46.5 -113.5t-46.5 -113.5t-119.5 -45.5z" />
    <glyph glyph-name="uni1E5A" unicode="&#x1e5a;" horiz-adv-x="1548" 
d="M166 0v1597h732q254 0 392.5 -113.5t138.5 -329.5q0 -141 -73 -243t-206 -142q106 -18 156.5 -82.5t69.5 -199.5l42 -313q11 -73 28 -115.5t33 -58.5h-342q-35 24 -48 132l-35 309q-12 108 -56.5 151t-160.5 43h-339v-635h-332zM499 872h336q262 0 262 233t-257 233h-341
v-466zM838 -453q-73 0 -120 46t-47 114t47 114t120 46q74 0 121 -46t47 -114t-47 -114t-121 -46z" />
    <glyph glyph-name="uni1E5B" unicode="&#x1e5b;" horiz-adv-x="1059" 
d="M137 0v1175h221q2 -20 6 -46.5t8 -49.5q11 -43 35 -43q13 0 23.5 7t26.5 26q50 62 116 97t155 35q149 0 232 -103t81 -288q0 -11 -0.5 -24t-1.5 -24h-272q2 16 2 31q0 71 -34 113t-96 42q-109 0 -161 -112q-38 -80 -38 -216v-620h-303zM293 -482q-73 0 -119.5 45.5
t-46.5 113.5t46.5 113.5t119.5 45.5t119.5 -45.5t46.5 -113.5t-46.5 -113.5t-119.5 -45.5z" />
    <glyph glyph-name="uni1E5E" unicode="&#x1e5e;" horiz-adv-x="1548" 
d="M166 0v1597h732q254 0 392.5 -113.5t138.5 -329.5q0 -141 -73 -243t-206 -142q106 -18 156.5 -82.5t69.5 -199.5l42 -313q11 -73 28 -115.5t33 -58.5h-342q-35 24 -48 132l-35 309q-12 108 -56.5 151t-160.5 43h-339v-635h-332zM499 872h336q262 0 262 233t-257 233h-341
v-466zM482 -352v198h712v-198h-712z" />
    <glyph glyph-name="uni1E5F" unicode="&#x1e5f;" horiz-adv-x="1059" 
d="M137 0v1175h221q2 -20 6 -46.5t8 -49.5q11 -43 35 -43q13 0 23.5 7t26.5 26q50 62 116 97t155 35q149 0 232 -103t81 -288q0 -11 -0.5 -24t-1.5 -24h-272q2 16 2 31q0 71 -34 113t-96 42q-109 0 -161 -112q-38 -80 -38 -216v-620h-303zM22 -392v198h542v-198h-542z" />
    <glyph glyph-name="uni1E60" unicode="&#x1e60;" horiz-adv-x="1385" 
d="M710 -40q-188 0 -331 67.5t-227.5 187.5t-98.5 278h327q19 -135 109 -209t229 -74q120 0 189.5 57.5t69.5 146.5q0 70 -29 115.5t-96.5 77.5t-185.5 59q-289 68 -416 187t-127 318q0 141 70 245.5t198 162.5t301 58q260 0 409.5 -127t176.5 -351h-320
q-16 107 -81.5 168.5t-181.5 61.5q-109 0 -173.5 -54t-64.5 -142q0 -87 57 -139t202 -87q309 -72 452 -196.5t143 -328.5q0 -149 -75.5 -257t-210.5 -166.5t-315 -58.5zM690 1730q-73 0 -120 46t-47 114t47 114t120 46q74 0 121 -46t47 -114t-47 -114t-121 -46z" />
    <glyph glyph-name="uni1E61" unicode="&#x1e61;" horiz-adv-x="1153" 
d="M596 -40q-230 0 -372.5 105.5t-171.5 291.5h306q14 -84 74.5 -132t164.5 -48q90 0 143 36.5t53 97.5q0 65 -47.5 99.5t-183.5 57.5q-250 44 -356 131.5t-106 253.5q0 108 58.5 189.5t164.5 126.5t246 45q221 0 347.5 -98.5t150.5 -285.5h-295q-14 86 -61 127t-135 41
q-82 0 -131 -34.5t-49 -93.5q0 -64 50 -97t172 -54q174 -29 277.5 -76t148.5 -122t45 -188q0 -109 -63 -193t-174 -132t-256 -48zM580 1325q-73 0 -119.5 45.5t-46.5 113.5t46.5 113.5t119.5 45.5t119.5 -45.5t46.5 -113.5t-46.5 -113.5t-119.5 -45.5z" />
    </font>
</defs>
</svg>
