<svg xmlns="http://www.w3.org/2000/svg" width="355" height="400.074" viewBox="0 0 355 400.074">
  <path id="Kitchen_location_thumbnail_border" data-name="Kitchen location thumbnail border" d="M.647,108.33c.006,30.865.014,233,.021,263.861,0,4.182-.029,8.363.026,12.543a49.864,49.864,0,0,0,.7,9.055c.351,1.776.714,5.034,2.764,6.007a4.338,4.338,0,0,0,2.149.253c2.33-.147,341.975-2.061,344.3-2.28,1.523-.144,4.4-1.479,4.394-3.163-.056-32.083-.415-63.356-.471-95.44s-.113,20.835-.168-11.249c-.016-8.78.17-272.928-.1-281.705a26.735,26.735,0,0,0-.349-4.4c-.125-.619-.227-1.391-.9-1.726C351.588-.619,11.843,3.135,10.494,3.223a48.673,48.673,0,0,0-6.824.632C2.3,4.14.519,5.088.071,6.44c-.413,1.252,1.08,2.387,2.116,2.327,1.975-.115,3.957-.063,5.772-.283C8.881,8.372,347.99,4.295,347.99,4.295s.121.591.159.947c.189,1.726.217,258.814.242,260.547.118,7.64.048,15.286.06,22.926q.042,23.533.083,47.067c.055,31.378.11-22.244.164,9.134.03,17.628.061,34.445.092,52.073,1.466-1.054,2.93-2.542,4.4-3.6-2.1.2-341.209,1.7-343.317,1.84-.192.013-.37.022-.722.073a5.157,5.157,0,0,1-.89-1.3,16.651,16.651,0,0,1-1.049-3.874c-1.119-6.133-.632-11.764-.633-17.954,0-15.124-.009-201.516-.012-216.641-.006-30.249-.013-54.358-.022-84.607,0-17.058-.007-38.432-.012-55.49,0-2.011-5.905.407-5.905,2.387" transform="translate(0 0.001)"/>
</svg>
